<?xml version="1.0" encoding="UTF-8"?>
<svg width="512px" height="512px" viewBox="0 0 512 512" version="1.1" xmlns="http://www.w3.org/2000/svg" xmlns:xlink="http://www.w3.org/1999/xlink">
    <!-- Generator: Sketch 48.1 (47250) - http://www.bohemiancoding.com/sketch -->
    <title>#ADS</title>
    <desc>Created with Sketch.</desc>
    <defs></defs>
    <g id="Компании-BIG" stroke="none" stroke-width="1" fill="none" fill-rule="evenodd">
        <g id="#ADS" fill="#1E71B8" fill-rule="nonzero">
            <g id="adidas" transform="translate(-1.000000, 77.000000)">
                <path d="M488.020175,237.5584 C490.15016,238.772738 492.285558,239.304348 494.569811,239.304348 L494.642886,239.304348 C496.932552,239.304348 499.06795,238.772738 501.197935,237.5584 C503.280787,236.467481 504.982403,234.771793 506.077685,232.695652 C507.227685,230.709603 507.830841,228.455795 507.826059,226.162515 C507.826059,223.8067 507.292886,221.604701 506.077685,219.475562 C504.930145,217.349122 503.254846,215.754292 501.124861,214.612814 C498.989463,213.474036 496.859478,212.869565 494.642886,212.869565 L494.569811,212.869565 C492.303947,212.937728 490.085698,213.534798 488.093249,214.612814 C485.963264,215.754292 484.361039,217.349122 483.140425,219.475562 C481.970641,221.509472 481.367041,223.818043 481.392051,226.162515 C481.392051,228.364514 481.925224,230.569212 483.140425,232.695652 C484.234176,234.772917 485.936197,236.469007 488.020175,237.5584 Z M485.051187,220.61704 C486.01425,218.895034 487.438574,217.473951 489.165008,216.512578 C490.913382,215.600476 492.74295,215.071564 494.572518,215.071564 L494.645592,215.071564 C496.47516,215.071564 498.304728,215.600476 500.058515,216.512578 C501.783825,217.475432 503.207787,218.896153 504.172336,220.61704 C505.165607,222.362988 505.620293,224.187193 505.620293,226.162515 C505.629581,228.080342 505.130042,229.96651 504.172336,231.629734 C503.235097,233.325412 501.83496,234.721446 500.134296,235.655938 C498.464896,236.610103 496.572516,237.108108 494.648299,237.09965 L494.575224,237.09965 C492.651169,237.106834 490.759115,236.608915 489.089227,235.655938 C487.391277,234.719684 485.993327,233.323961 485.0566,231.629734 C484.063328,229.883786 483.530156,228.062279 483.530156,226.162515 C483.522036,224.187193 484.055209,222.365686 485.051187,220.61704 Z" id="Shape"></path>
                <path d="M491.193021,226.549929 L492.577782,226.549929 C493.428889,226.549929 494.041905,226.706014 494.427777,227.089379 C494.583768,227.166053 494.663132,227.245464 494.737022,227.319399 C495.352775,227.858849 496.047892,228.940488 496.896263,230.405492 L498.207132,232.716639 L500.982126,232.716639 L499.288121,229.866042 C498.437014,228.554384 497.668006,227.552157 497.128881,227.012706 C496.770957,226.67891 496.35183,226.417612 495.894638,226.243237 C497.128881,226.166564 498.127769,225.703786 498.899513,224.931579 C499.671256,224.159371 500.059865,223.236555 500.059865,222.154916 C500.059865,221.385446 499.82451,220.689911 499.364748,220.073788 C498.933592,219.404775 498.277342,218.912292 497.514752,218.685457 C496.898999,218.455437 495.976738,218.299353 494.739759,218.299353 C494.509878,218.299353 494.200633,218.22268 493.894125,218.22268 L488.886,218.22268 L488.886,232.713901 L491.195758,232.713901 L491.195758,226.549929 L491.193021,226.549929 Z M491.193021,220.227134 L494.737022,220.227134 C495.432139,220.306546 495.891901,220.383219 496.201146,220.459892 C496.620254,220.579018 496.977757,220.854412 497.200034,221.229362 C497.429915,221.536054 497.509279,221.924897 497.509279,222.387674 C497.526823,222.980399 497.270384,223.548138 496.814162,223.926613 C496.42829,224.312717 495.733174,224.466063 494.734285,224.545475 L491.190285,224.545475 L491.190285,220.227134 L491.193021,220.227134 Z M145.216454,221.848223 L166.017959,221.848223 L145.216454,187.159109 L127.649705,157.946647 L53.0012828,202.808642 L64.402292,221.848223 L145.216454,221.848223 Z M338.735312,221.848223 L440.350979,221.848223 L377.098093,116.398025 L307.151287,0 L278.336783,17.3445572 L232.576755,44.8619957 L278.336783,121.099731 L338.735312,221.848223 Z M303.224151,256.614011 C296.056786,251.991717 287.657915,249.291727 278.566664,249.291727 L278.336783,249.291727 C253.225006,249.445073 232.809373,269.949659 232.809373,295.079277 C232.809373,320.211633 253.225006,340.713481 278.336783,340.869565 L278.566664,340.869565 C287.657915,340.869565 296.056786,338.172314 303.224151,333.547281 L303.224151,338.32566 L324.252801,338.32566 L324.252801,221.850962 L303.224151,221.850962 L303.224151,256.614011 Z M303.224151,299.860394 C300.99102,311.424345 290.742153,320.285568 278.566664,320.285568 L278.336783,320.285568 C264.546652,320.132222 253.37826,308.877702 253.37826,295.079277 C253.37826,281.28359 264.546652,270.02907 278.336783,269.949659 L278.566664,269.949659 C290.742153,269.949659 300.988284,278.739685 303.224151,290.300898 L303.224151,299.860394 Z M401.985461,256.614011 C394.654337,251.827011 386.087482,249.282434 377.333447,249.291727 L377.098093,249.291727 C351.986317,249.445073 331.57342,269.949659 331.57342,295.079277 C331.57342,320.211633 351.986317,340.713481 377.098093,340.869565 L377.333447,340.869565 C386.424699,340.869565 394.89746,338.172314 401.985461,333.547281 L401.985461,338.32566 L423.019584,338.32566 L423.019584,251.602874 L401.985461,251.602874 L401.985461,256.614011 Z M401.985461,299.860394 C399.75233,311.424345 389.503464,320.285568 377.333447,320.285568 L377.098093,320.285568 C363.313435,320.132222 352.142307,308.877702 352.142307,295.079277 C352.142307,281.28359 363.313435,270.02907 377.098093,269.949659 L377.333447,269.949659 C389.503464,269.949659 399.749594,278.739685 401.985461,290.300898 L401.985461,299.860394 Z M497.821261,289.375344 C497.052253,288.986502 495.971265,288.603136 494.737022,288.140359 C490.038142,286.522008 482.411015,284.517553 471.779013,282.206406 C462.457881,280.12254 457.759001,277.428027 457.759001,274.035241 C457.759001,271.644683 458.604635,269.716901 460.222013,268.331308 C462.381254,266.4802 466.229026,265.554645 471.779013,265.554645 C477.402891,265.554645 481.486017,266.789631 483.875139,269.177451 C485.339263,270.642455 486.414778,273.260295 487.109895,276.962512 L509.452151,276.962512 C509.452151,266.017423 504.983152,258.155689 496.201146,253.37731 C495.738539,253.075039 495.248298,252.817393 494.737022,252.60784 C488.647909,249.754504 480.561019,248.2895 470.47088,248.2895 C458.218763,248.2895 448.976995,251.528939 442.816728,258.079015 C437.887967,263.320171 435.498845,269.716901 435.498845,277.271943 C435.498845,286.680831 440.118361,293.460926 449.518857,297.85594 C453.062858,299.550963 461.688874,301.941522 475.405114,304.871531 C484.572992,306.875986 489.189772,309.729321 489.189772,313.352127 C489.189772,315.512666 488.270247,317.361036 486.266997,319.05606 C483.721885,321.213861 479.868639,322.2955 474.709997,322.2955 C467.851877,322.2955 462.999743,321.139926 460.150859,318.905452 C457.296502,316.747651 455.832378,313.587623 455.832378,309.578713 L432.414607,309.578713 C432.414607,320.21711 436.883606,328.155517 445.895493,333.393935 C453.062858,337.479518 462.460617,339.563384 474.096981,339.563384 C481.874626,339.563384 488.806636,338.251726 494.739759,335.710559 C495.974002,335.171109 497.05499,334.62892 498.209869,334.012797 C507.377747,328.927725 512,320.833233 512,309.734798 C511.997263,300.629864 507.29291,293.844292 497.821261,289.375344 Z M70.4120414,256.614011 C63.0481272,251.836465 54.4597747,249.293407 45.6834003,249.291727 L45.4507825,249.291727 C20.4156333,249.445073 0,269.949659 0,295.079277 C0,320.211633 20.4156333,340.713481 45.4507825,340.869565 L45.6834003,340.869565 C54.7746515,340.869565 63.247413,338.172314 70.4120414,333.547281 L70.4120414,338.32566 L91.4434277,338.32566 L91.4434277,251.602874 L70.4120414,251.602874 L70.4120414,256.614011 Z M70.4120414,299.860394 C68.1789105,311.424345 57.9300436,320.285568 45.6834003,320.285568 L45.4507825,320.285568 C31.7400154,320.132222 20.5688874,308.877702 20.5688874,295.079277 C20.5688874,281.28359 31.7400154,270.02907 45.4507825,269.949659 L45.6834003,269.949659 C57.9327803,269.949659 68.1789105,278.739685 70.4120414,290.300898 L70.4120414,299.860394 Z M201.685111,242.43222 L224.566493,242.43222 L224.566493,222.311 L201.685111,222.311 L201.685111,242.43222 Z M201.685111,338.322922 L224.566493,338.322922 L224.566493,249.291727 L201.685111,249.291727 L201.685111,338.322922 Z M170.177713,256.614011 C162.812951,251.836101 154.223619,249.293035 145.446335,249.291727 L145.216454,249.291727 C120.101941,249.445073 99.686308,269.949659 99.686308,295.079277 C99.686308,320.211633 120.099205,340.713481 145.216454,340.869565 L145.446335,340.869565 C154.223754,340.869196 162.813348,338.326052 170.177713,333.547281 L170.177713,338.32566 L191.209099,338.32566 L191.209099,221.850962 L170.177713,221.850962 L170.177713,256.614011 Z M170.177713,299.860394 C167.944582,311.424345 157.695715,320.285568 145.446335,320.285568 L145.216454,320.285568 C131.426323,320.132222 120.255195,308.877702 120.255195,295.079277 C120.255195,281.28359 131.426323,270.02907 145.216454,269.949659 L145.446335,269.949659 C157.695715,269.949659 167.941846,278.739685 170.177713,290.300898 L170.177713,299.860394 Z M303.142051,221.848223 L278.336783,180.379014 L217.401864,78.9349868 L145.216454,122.411389 L142.750706,123.873656 L145.216454,127.959238 L201.605747,221.848223 L303.142051,221.848223 Z" id="Shape"></path>
            </g>
        </g>
    </g>
</svg>