<?xml version="1.0" encoding="UTF-8"?>
<svg width="512px" height="512px" viewBox="0 0 512 512" version="1.1" xmlns="http://www.w3.org/2000/svg" xmlns:xlink="http://www.w3.org/1999/xlink">
    <!-- Generator: Sketch 48.1 (47250) - http://www.bohemiancoding.com/sketch -->
    <title>#BMW</title>
    <desc>Created with Sketch.</desc>
    <defs></defs>
    <g id="Компании-BIG" stroke="none" stroke-width="1" fill="none" fill-rule="evenodd">
        <g id="#BMW">
            <g id="bmw-2">
                <path d="M256.000582,0 C397.000557,0 512,114.999704 512,256 C512,397.001461 397.000557,512 256.000582,512 C115.000607,512 0,397.001461 0,256 C0,114.999704 115.000607,0 256.000582,0 Z" id="Shape" fill="#000000" fill-rule="nonzero"></path>
                <path d="M107.236861,179.03268 L46.8496732,127.17573 L69.4621184,100.926375 C74.0640229,95.5853557 78.3713216,91.8336209 82.3583968,89.6479186 C86.3710898,87.4587285 90.4303608,86.5507319 94.5466899,86.9123029 C98.6467166,87.2622478 102.105132,88.6166857 104.88933,91.0070069 C107.461599,93.2159614 109.191971,96.1189926 110.066473,99.7033119 C110.957277,103.271355 110.678973,107.312579 109.266496,111.792106 C113.981352,108.476349 118.601888,106.805682 123.137419,106.735925 C127.688088,106.677795 131.720576,108.157794 135.236049,111.175924 C138.014301,113.539703 140.116637,116.595362 141.329614,120.032669 C142.568588,123.504215 142.964501,126.821134 142.533654,129.991565 C142.102808,133.161996 140.88363,136.563786 138.921532,140.203911 C136.95827,143.845198 134.056462,147.896885 130.212614,152.358973 L107.236861,179.03268 Z M80.2099874,139.703989 L93.2401775,124.578464 C96.7614729,120.489573 99.0612607,117.337744 100.140705,115.148554 C101.554347,112.285051 102.0865,109.651745 101.704561,107.255611 C101.321457,104.860639 100.083647,102.749344 97.9736648,100.936839 C95.9777983,99.2219923 93.7292463,98.2547028 91.2559555,98.0582221 C88.7570469,97.8663918 86.3408141,98.5674442 84.0119151,100.136964 C81.6690427,101.722761 78.3294014,105.029217 73.9929914,110.062146 L61.9584057,124.033201 L80.2099874,139.703989 Z M108.090402,163.645568 L123.085019,146.240169 C125.665439,143.24413 127.37718,141.058427 128.231886,139.694689 C129.731696,137.272977 130.712163,135.025656 131.173285,132.930637 C131.649545,130.844919 131.535429,128.706884 130.872857,126.523507 C130.182338,124.343618 128.901444,122.42299 126.975444,120.768599 C124.726892,118.836345 122.196544,117.824877 119.372754,117.724892 C116.564101,117.635372 113.797369,118.488726 111.073722,120.288442 C108.38035,122.081183 105.096603,125.210923 101.266728,129.656734 L87.3387474,145.825118 L108.090402,163.645568 Z M207.640356,89.9501966 L207.640356,21.751634 L225.648568,21.751634 L247.024367,70.038216 C249.001603,74.532857 250.453671,77.8986061 251.337488,80.1377883 C252.368026,77.6602715 253.966815,74.0073584 256.153652,69.1976507 L277.780973,21.751634 L293.874829,21.751634 L293.874829,89.9501966 L282.346779,89.9501966 L282.346779,32.8661628 L256.090771,89.9501966 L245.298653,89.9501966 L219.168406,31.896548 L219.168406,89.9501966 L207.640356,89.9501966 Z M370.995156,129.772995 L412.790743,73.1912078 L418.494217,80.2191709 L390.188778,116.179787 C387.275471,119.91776 384.252411,123.569159 381.123538,127.129225 C387.85755,123.877412 391.73866,122.016077 392.809954,121.547546 L436.553664,102.470318 L443.265551,110.739946 L422.480127,139.836527 C417.341412,147.067946 412.178242,153.46345 407.010416,159.02304 C410.879881,156.971038 415.43055,154.727205 420.618173,152.285729 L461.227185,132.869019 L466.823529,139.763282 L402.351453,168.405284 L396.990327,161.798184 L428.473549,118.253879 C431.108698,114.604454 432.738928,112.387361 433.366566,111.600276 C430.495033,113.022145 428.014756,114.190565 425.918747,115.107863 L376.669519,136.762592 L370.995156,129.772995 Z" id="Shape" fill="#FFFFFF" fill-rule="nonzero"></path>
                <path d="M406.588235,257.673203 C406.588235,339.69395 339.69395,406.588235 257.673203,406.588235 L257.673203,257.673203 L406.588235,257.673203 Z" id="Shape" fill="#00ACEC"></path>
                <path d="M406.588235,254.326797 C406.588235,172.307217 339.69395,105.411765 257.673203,105.411765 L257.673203,254.326797 L406.588235,254.326797 Z" id="Shape" fill="#FFFFFF"></path>
                <path d="M105.411765,254.326797 C105.411765,172.307217 172.30605,105.411765 254.326797,105.411765 L254.326797,254.326797 L105.411765,254.326797 Z" id="Shape" fill="#00ACEC"></path>
                <path d="M105.411765,257.673203 C105.411765,339.69395 172.30605,406.588235 254.326797,406.588235 L254.326797,257.673203 L105.411765,257.673203 Z" id="Shape" fill="#FFFFFF"></path>
            </g>
        </g>
    </g>
</svg>