<?xml version="1.0" encoding="UTF-8"?>
<svg width="512px" height="512px" viewBox="0 0 512 512" version="1.1" xmlns="http://www.w3.org/2000/svg" xmlns:xlink="http://www.w3.org/1999/xlink">
    <!-- Generator: Sketch 48.1 (47250) - http://www.bohemiancoding.com/sketch -->
    <title>#BOS3</title>
    <desc>Created with Sketch.</desc>
    <defs></defs>
    <g id="Компании-BIG" stroke="none" stroke-width="1" fill="none" fill-rule="evenodd">
        <g id="#BOS3" fill="#000000" fill-rule="nonzero">
            <g id="boss-hugo-boss" transform="translate(0.000000, 179.000000)">
                <path d="M295.191995,97.1119868 L300.665355,97.1119868 C300.665355,103.19678 301.67519,110.216427 303.117421,115.501097 C304.485761,120.356833 308.013341,124.915617 311.114,128.391071 C316.880185,135.050524 326.967587,138.814682 337.993671,138.814682 C345.919097,138.814682 353.26982,136.065114 358.16574,132.08649 C363.354486,127.810912 366.668605,121.657379 366.668605,114.27204 C366.668605,108.118507 364.076969,102.473644 360.617806,98.923952 C357.084752,95.379759 349.37826,90.1638288 340.440263,86.6883751 L327.610707,81.7666486 C316.803558,77.5680585 307.293594,71.1230715 302.537245,65.1867545 C297.780895,59.1789488 294.611819,50.416076 294.611819,41.80168 C294.611819,29.5661031 299.58163,19.5769231 308.010605,12.3373109 C316.445053,5.16918755 329.988882,1.33354041 345.919097,1.33354041 C364.000342,1.33354041 376.53981,4.37456244 388.718036,12.0486063 L388.718036,43.6851339 L383.822116,43.6851339 C383.822116,41.2242707 383.176259,38.7606579 383.176259,37.5316011 C383.176259,35.7223855 382.59882,33.8389315 382.59882,32.6098747 C382.59882,31.3780683 381.37005,30.1462619 381.37005,28.917205 C380.146754,25.876183 378.274865,21.8948088 375.89669,18.4935933 C370.059352,9.87919727 359.974686,5.02621002 348.945865,5.02621002 C341.666296,5.02621002 334.534508,7.34409572 329.991619,11.1082541 C325.090225,15.0896283 322.717523,21.6061041 322.717523,28.3397958 C322.717523,33.8416811 324.518259,39.0548617 327.613444,42.4588267 C330.927563,46.1514963 337.919781,50.0613818 346.491063,53.534086 L358.16574,58.3870732 C370.201659,63.3087997 380.144018,69.7537867 385.622851,75.6186149 C391.46019,81.7721477 394.774309,90.315055 394.774309,100.158508 C394.774309,112.468323 389.872915,123.615071 380.144018,130.860183 C370.491747,138.099795 356.939708,142.512851 340.440263,142.512851 C332.443684,142.512851 321.704952,140.99234 309.887967,138.817432 C305.709057,138.097045 300.15907,136.716762 295.189259,134.618842 L295.189259,97.1119868 L295.191995,97.1119868 Z M412.404002,97.1119868 L417.877363,97.1119868 C417.877363,103.19678 418.887197,110.216427 420.329428,115.501097 C421.697768,120.356833 425.230822,124.915617 428.326007,128.391071 C434.092192,135.050524 444.179595,138.814682 455.205679,138.814682 C463.131104,138.814682 470.481827,136.065114 475.377747,132.08649 C480.566493,127.810912 483.880612,121.657379 483.880612,114.27204 C483.880612,108.118507 481.288976,102.473644 477.829813,98.923952 C474.296759,95.379759 466.590268,90.1638288 457.652271,86.6883751 L444.822714,81.7666486 C434.015565,77.5680585 424.505602,71.1230715 419.749252,65.1867545 C414.992902,59.1789488 411.823826,50.416076 411.823826,41.80168 C411.823826,29.5661031 416.793637,19.5769231 425.228085,12.3373109 C433.65706,5.16918755 447.200889,1.33354041 463.131104,1.33354041 C481.217823,1.33354041 493.751817,4.37456244 505.935517,12.0486063 L505.935517,43.6851339 L501.034123,43.6851339 C501.034123,41.2242707 500.388266,38.7606579 500.388266,37.5316011 C500.388266,35.7223855 499.810827,33.8389315 499.810827,32.6098747 C499.810827,31.3780683 498.582058,30.1462619 498.582058,28.917205 C497.358762,25.876183 495.486872,21.8948088 493.108698,18.4935933 C487.271359,9.87919727 477.18122,5.02621002 466.157872,5.02621002 C458.878303,5.02621002 451.746515,7.34409572 447.203626,11.1082541 C442.307705,15.0896283 439.92953,21.6061041 439.92953,28.3397958 C439.92953,33.8416811 441.730266,39.0548617 444.825451,42.4588267 C448.145044,46.1514963 455.131788,50.0613818 463.70307,53.534086 L475.377747,58.3870732 C487.413666,63.3087997 497.356025,69.7537867 502.834858,75.6186149 C508.672197,81.7721477 511.986317,90.315055 511.986317,100.158508 C511.986317,112.468323 507.084923,123.615071 497.356025,130.860183 C487.703754,138.099795 474.151715,142.512851 457.652271,142.512851 C449.655691,142.512851 438.916959,140.99234 427.099974,138.817432 C422.921064,138.097045 417.371077,136.716762 412.401266,134.618842 L412.401266,97.1119868 L412.404002,97.1119868 Z M207.180364,0 C225.483281,0 241.408022,5.50188526 253.008809,15.3508373 C268.284957,27.5864142 276.213119,47.2760695 276.213119,73.0505185 C276.213119,82.896721 274.412383,92.0912759 271.963055,100.705672 C268.862396,109.248579 264.037629,117.282816 258.487642,122.787451 C246.306679,135.677425 228.581202,142.405618 205.305738,142.405618 C183.976054,142.405618 166.82528,136.257584 155.224493,124.016508 C142.975113,111.706693 136.921577,93.3203327 136.921577,70.5869057 C136.921577,48.5051264 142.972377,31.2735847 155.224493,19.0407573 C167.47661,6.73369166 185.202087,1.95368546e-14 207.180364,1.95368546e-14 Z M207.251518,3.69266962 C195.002138,3.69266962 185.202087,10.3521229 179.14855,22.6591886 C174.249893,33.0855499 171.078081,49.7369328 171.078081,70.5869057 C171.078081,93.3203327 174.249893,110.408897 179.14855,120.832509 C184.624647,132.562165 193.704952,138.64146 205.376892,138.64146 C229.878389,138.64146 241.982725,116.05376 241.982725,71.7472234 C241.982725,48.4363872 238.955957,31.2048455 233.47986,20.7784842 C231.027794,15.8540082 226.70384,11.6554181 221.805183,8.46866897 C217.048833,5.4303965 211.427692,3.69266962 206.526298,3.69266962 L207.251518,3.69266962 Z M76.3834773,70.7051372 C89.8588899,70.7051372 101.462413,73.7434096 108.739246,79.899692 C116.089968,85.4730661 119.76533,94.0187229 119.76533,104.442335 C119.76533,110.595867 117.961858,116.75215 115.512529,121.676626 C112.414607,126.595603 107.51595,131.520079 102.037116,133.980942 C96.7636757,136.175257 91.2096065,137.614509 85.5376721,138.25652 C79.4129821,139.485577 70.261524,140.065736 59.3093304,140.065736 L0,140.065736 L0,136.370316 L14.6302916,136.370316 L14.6302916,6.27176426 L0,6.27176426 L0,2.57909464 L58.080561,2.57909464 C66.583426,2.57909464 74.5827418,3.15925346 80.6362781,3.81090103 C91.0849226,5.04270743 99.5877876,8.66113872 105.712478,14.2372623 C111.837168,19.7391476 114.863936,27.7018961 114.863936,36.9706893 C114.863936,49.2062662 109.387839,58.4008211 99.0103481,63.9741951 C94.1089541,66.4350583 86.1835286,68.8986711 75.7348841,69.4760803 L76.3834773,70.7051372 Z M46.4797742,136.370316 L55.7051227,136.370316 C61.7559223,136.370316 66.6573163,135.795657 70.261524,135.069771 C74.0980172,133.843781 77.5008469,131.531447 80.0615753,128.410318 C84.3855298,122.905683 86.8375951,114.942934 86.8375951,105.093982 C86.8375951,94.6703705 84.3855298,85.9817361 80.0615753,81.0600097 C77.6122466,78.5963969 74.5882152,76.1355337 70.9840075,74.9779656 C67.2347558,73.6746704 61.1839562,72.5171024 54.9853759,72.5171024 L46.4825109,72.5171024 L46.4825109,136.370316 L46.4797742,136.370316 Z M46.4797742,68.8959215 L54.9826392,68.8959215 C63.6305482,68.8959215 70.9812708,66.4323087 75.1601813,61.5105823 C79.4841358,56.5888558 81.9334645,48.6233578 81.9334645,37.4738602 C81.9334645,28.9309529 80.0588386,20.9682044 77.0320705,16.0437284 C75.1601813,12.27957 72.1334132,9.81870678 69.106645,8.65838915 C65.36013,7.35509399 59.8840332,6.19752593 53.8304969,6.19752593 L46.4797742,6.19752593 L46.4797742,68.8959215 Z" id="Shape"></path>
            </g>
        </g>
    </g>
</svg>