<?xml version="1.0" encoding="UTF-8"?>
<svg width="512px" height="512px" viewBox="0 0 512 512" version="1.1" xmlns="http://www.w3.org/2000/svg" xmlns:xlink="http://www.w3.org/1999/xlink">
    <!-- Generator: Sketch 48.1 (47250) - http://www.bohemiancoding.com/sketch -->
    <title>CFD</title>
    <desc>Created with Sketch.</desc>
    <defs></defs>
    <g id="Компании-BIG" stroke="none" stroke-width="1" fill="none" fill-rule="evenodd">
        <g id="CFD" fill="#000000" fill-rule="nonzero">
            <g id="nasdaq-2" transform="translate(0.000000, 214.000000)">
                <path d="M505.338324,1.11304348 C501.711719,1.11304348 498.643478,3.94013188 498.643478,7.77309218 C498.643478,11.6424768 501.708955,14.4695652 505.338324,14.4695652 C508.928995,14.4695652 512,11.6424768 512,7.77309218 C512,3.94013188 508.928995,1.11304348 505.338324,1.11304348 Z M505.338324,13.3600241 C502.319839,13.3600241 499.973049,10.9924426 499.973049,7.77589405 C499.973049,4.61258106 502.322603,2.22818836 505.338324,2.22818836 C508.318111,2.22818836 510.673193,4.61258106 510.673193,7.77589405 C510.670429,10.9924426 508.318111,13.3600241 505.338324,13.3600241 Z" id="Shape"></path>
                <path d="M506.51506,7.49652647 C507.620809,7.35570774 508.466542,6.76482131 508.466542,5.40633474 C508.466542,3.9097906 507.585228,3.24711423 505.808914,3.24711423 L502.943272,3.24711423 L502.943272,10.840281 L504.081865,10.840281 L504.081865,7.54898835 L505.392889,7.54898835 L507.38269,10.840281 L508.66087,10.840281 L506.51506,7.49652647 Z M504.084602,6.57430185 L504.084602,4.22456188 L505.633745,4.22456188 C506.430213,4.22456188 507.275947,4.39575327 507.275947,5.33730595 C507.275947,6.50251191 506.416528,6.57430185 505.447629,6.57430185 L504.084602,6.57430185 Z M234.83477,25.2258806 L198.087781,25.2258806 C196.741697,25.2258806 195.650481,24.1250359 195.650481,22.7670751 C195.650481,21.4091144 196.741697,20.3082697 198.087781,20.3082697 L246.146799,20.3082697 L246.146799,0 L190.892203,0 C181.597344,0 174.059641,7.93002726 174.059641,17.3096591 L174.059641,28.5558294 C174.059641,37.934222 181.595836,45.5369114 190.892203,45.5369114 L225.36748,45.5369114 C226.712808,45.5369114 227.803412,46.637138 227.803412,47.9943363 C227.803412,49.3515346 226.712808,50.4517612 225.36748,50.4517612 L177.790174,50.4517612 L177.790174,70.762792 L234.83477,70.762792 C239.299043,70.762792 243.580471,68.9737189 246.737189,65.7891482 C249.893906,62.6045776 251.667332,58.2853729 251.667332,53.78171 L251.667332,42.5383008 C251.670069,33.1559079 244.132365,25.2258806 234.83477,25.2258806 Z M141.585112,1.42108547e-14 L118.041421,1.42108547e-14 L84.431037,70.7600309 L111.223549,70.7600309 L114.469634,62.8962712 L144.921518,62.8244813 L148.241501,70.7600309 L175.034013,70.7600309 L141.585112,1.42108547e-14 Z M136.390283,42.5880016 L122.913285,42.5880016 L129.733894,26.5374276 L136.58461,42.9082952 L136.390283,42.5880016 Z M388.380581,1.42108547e-14 L364.83689,1.42108547e-14 L331.229242,70.7600309 L358.016281,70.7600309 L361.267839,62.8962712 L391.716986,62.8244813 L395.036969,70.7600309 L421.829482,70.7600309 L388.380581,1.42108547e-14 Z M383.185751,42.5880016 L369.708753,42.5880016 L376.529362,26.5374276 L383.404711,42.9690405 L383.185751,42.5880016 Z M328.952057,5.2434268 C324.734337,0.328577035 316.501435,0.00276115155 308.821407,0.00276115155 L257.839271,0.00276115155 L257.839271,70.5777949 L257.743476,70.6661517 L308.821407,70.762792 C316.504172,70.762792 324.734337,70.4369761 328.952057,65.5221264 C333.175251,60.6100378 334.146886,57.9869438 334.146886,35.3841572 C334.146886,12.7813705 333.175251,10.1555154 328.952057,5.2434268 Z M309.141636,43.1126204 C309.141636,45.7191474 307.050567,47.8286672 304.469574,47.8286672 L281.996051,47.8286672 L281.996051,22.9341248 L304.469574,22.9341248 C307.050567,22.9341248 309.141636,25.0464057 309.141636,27.6501717 L309.141636,43.1126204 Z M57.4770415,34.3984261 L22.7335384,1.42108547e-14 L0,1.42108547e-14 L0,70.7600309 L24.0308774,70.7600309 L24.0308774,36.692943 L57.4770415,70.7600309 L81.5106559,70.7600309 L81.5106559,1.42108547e-14 L57.4770415,1.42108547e-14 L57.4770415,34.3984261 Z M489.373217,65.5193652 C493.596411,60.6072766 494.568046,57.9841826 494.568046,35.381396 C494.568046,12.7786094 493.596411,10.1555154 489.373217,5.2434268 C485.150023,0.328577035 476.922595,0.00276115155 469.242567,0.00276115155 L445.208953,0.00276115155 C437.526188,0.00276115155 429.301497,0.331338186 425.078303,5.2434268 C420.860583,10.1555154 419.883473,12.7786094 419.883473,35.381396 C419.883473,57.9841826 420.860583,60.6072766 425.078303,65.5193652 C429.301497,70.434215 437.528925,70.7600309 445.208953,70.7600309 L469.562796,70.7600309 L469.562796,92.3826087 L493.596411,92.3826087 L493.596411,70.7600309 L476.035806,70.7324194 C481.408541,70.3375747 486.389884,68.9901327 489.373217,65.5193652 Z M469.562796,40.8208646 C469.562796,43.4246305 467.471727,45.5369114 464.890734,45.5369114 L449.558049,45.5369114 C446.977297,45.5353871 444.885986,43.4243874 444.885986,40.8208646 L444.885986,27.6474105 C444.885986,25.0436446 446.977056,22.9313637 449.558049,22.9313637 L464.890734,22.9313637 C467.471727,22.9313637 469.562796,25.0408834 469.562796,27.6474105 L469.562796,40.8208646 Z" id="Shape"></path>
            </g>
        </g>
    </g>
</svg>