<?xml version="1.0" encoding="UTF-8"?>
<svg width="512px" height="512px" viewBox="0 0 512 512" version="1.1" xmlns="http://www.w3.org/2000/svg" xmlns:xlink="http://www.w3.org/1999/xlink">
    <!-- Generator: Sketch 48.1 (47250) - http://www.bohemiancoding.com/sketch -->
    <title>#CHMF</title>
    <desc>Created with Sketch.</desc>
    <defs></defs>
    <g id="Компании-BIG" stroke="none" stroke-width="1" fill="none" fill-rule="evenodd">
        <g id="#CHMF" fill-rule="nonzero">
            <g id="severstal" transform="translate(27.000000, 0.000000)">
                <path d="M390.640557,78.2445603 L448.886245,70.0696167 C448.886245,70.0696167 422.091126,0 310.255201,0 C198.419275,0 95.9004344,42.0430096 44.6441051,120.28757 C-6.6153154,198.53213 90.0764838,252.25186 106.386018,253.420151 C122.695553,254.588443 199.584684,282.61505 283.463173,251.083568 C367.344754,219.555184 437.241435,189.188895 454.713287,109.772944 C420.925718,110.941236 392.965191,115.614403 392.965191,115.614403 C392.965191,115.614403 391.805965,155.320829 341.711953,184.515728 C291.617941,213.710627 250.841013,226.555638 213.56031,226.555638 C176.279608,226.555638 74.9292663,225.390445 87.7456671,150.644563 C100.562068,75.9048778 212.397993,39.7002282 258.99578,35.0270611 C305.596659,30.3600918 362.68003,39.7033271 390.640557,78.2445603 Z M49.0986236,481.639908 L49.0986236,482.129537 C49.0986236,487.44418 47.0058345,491.602927 42.8078914,494.615075 C38.6099483,497.624123 32.7952715,499.130197 25.3329484,499.130197 C17.2121851,499.130197 10.9554569,496.877284 6.56585509,492.355964 C2.18861836,487.834644 0,481.357907 0,472.931951 C0,464.193004 2.25971755,457.474552 6.78224392,452.776593 C11.301679,448.084833 17.7964349,445.738953 26.2881505,445.738953 C33.3826126,445.738953 38.8603411,447.186147 42.699697,450.089832 C46.551418,452.990419 48.5854729,457.226639 48.8235006,462.776799 L34.1739774,462.776799 C33.9823188,460.592063 33.1198547,458.890757 31.5773116,457.669784 C30.0347684,456.436415 28.0007135,455.822829 25.4751468,455.822829 C21.9232789,455.822829 19.2678789,457.294815 17.4965818,460.235687 C15.7376499,463.170362 14.853547,467.58322 14.853547,473.483558 C14.853547,478.423232 15.76238,482.247296 17.5924112,484.934057 C19.4100773,487.627016 21.9943781,488.971946 25.3329484,488.971946 C28.0470825,488.971946 30.1738755,488.336668 31.7195099,487.084706 C33.2620531,485.81415 34.1214259,483.998184 34.3130845,481.636809 L49.0986236,481.636809 L49.0986236,481.639908 Z M67.1021735,475.885219 L79.8412926,475.885219 C79.627995,473.47736 79.0035587,471.655197 77.9648923,470.406333 C76.9354998,469.172964 75.535155,468.546983 73.7885881,468.546983 C71.8039935,468.546983 70.2738154,469.132678 69.1980538,470.319564 C68.131566,471.497152 67.4267567,473.356503 67.1021735,475.885219 Z M91.7890468,486.663253 C91.2047969,490.719736 89.3253055,493.824851 86.1320247,495.966202 C82.951109,498.126148 78.6573366,499.204571 73.2630724,499.204571 C67.14236,499.204571 62.520913,497.611727 59.4234616,494.435337 C56.3136451,491.246552 54.7587369,486.517604 54.7587369,480.273286 C54.7587369,474.27998 56.4094745,469.625406 59.6985846,466.315763 C62.9876946,462.993723 67.6060503,461.342001 73.5381953,461.342001 C79.5661696,461.342001 84.135065,463.012317 87.2572466,466.328158 C90.3794282,469.650198 91.9343364,474.518597 91.9343364,480.908564 C91.9343364,481.556237 91.9343364,482.052064 91.9219713,482.386747 C91.9094868,482.691155 91.8774776,482.994443 91.826142,483.29473 L66.9599751,483.29473 C66.9599751,486.151932 67.5349512,488.305679 68.6972683,489.759071 C69.844129,491.212463 71.5659658,491.943808 73.8627785,491.943808 C75.4640558,491.943808 76.76548,491.494465 77.7608686,490.623669 C78.7531659,489.746676 79.4116062,488.426537 79.7361894,486.666352 L91.7890468,486.666352 L91.7890468,486.663253 Z M112.302707,490.70734 L115.100305,490.70734 C117.792801,490.70734 119.672292,490.416042 120.744962,489.842742 C121.820724,489.266343 122.361696,488.305679 122.361696,486.954551 C122.361696,485.603423 121.845454,484.673748 120.803696,484.122141 C119.76503,483.570534 117.860808,483.291631 115.097214,483.291631 L112.299616,483.291631 L112.299616,490.70734 L112.302707,490.70734 Z M112.302707,476.690937 L115.100305,476.690937 C117.650602,476.690937 119.394078,476.412035 120.327641,475.860428 C121.261204,475.30882 121.727986,474.360552 121.727986,472.997028 C121.727986,471.73267 121.248839,470.837083 120.293637,470.322663 C119.335344,469.808242 117.601142,469.554131 115.100305,469.554131 L112.302707,469.554131 L112.302707,476.690937 Z M99.897445,498.333775 L99.897445,462.218994 L117.76807,462.218994 C123.508557,462.218994 127.752869,462.968932 130.507189,464.493599 C133.246054,466.018267 134.621668,468.379642 134.621668,471.556032 C134.621668,473.669493 133.953954,475.380096 132.612344,476.71263 C131.261459,478.032769 129.21813,478.999631 126.46381,479.634909 C129.610721,480.17412 131.941538,481.171972 133.450077,482.619166 C134.955525,484.072558 135.709795,486.015579 135.709795,488.460625 C135.709795,491.782664 134.491835,494.264897 132.049733,495.885631 C129.60763,497.512562 125.876469,498.330676 120.853157,498.330676 L99.897445,498.330676 L99.897445,498.333775 Z M152.430468,475.885219 L165.169587,475.885219 C164.95629,473.47736 164.331853,471.655197 163.293187,470.406333 C162.266886,469.172964 160.866541,468.546983 159.119974,468.546983 C157.13538,468.546983 155.60211,469.132678 154.526349,470.319564 C153.459861,471.497152 152.755052,473.356503 152.430468,475.885219 Z M177.117342,486.663253 C176.533092,490.719736 174.6536,493.824851 171.46032,495.966202 C168.279404,498.126148 163.985631,499.204571 158.588276,499.204571 C152.464472,499.204571 147.849208,497.611727 144.748665,494.435337 C141.638849,491.246552 140.08394,486.517604 140.08394,480.273286 C140.08394,474.27998 141.737769,469.625406 145.023788,466.315763 C148.312898,462.993723 152.931254,461.342001 158.863399,461.342001 C164.891373,461.342001 169.460269,463.012317 172.58245,466.328158 C175.704632,469.650198 177.25954,474.518597 177.25954,480.908564 C177.25954,481.556237 177.25954,482.052064 177.247175,482.386747 C177.23469,482.691155 177.202681,482.994443 177.151346,483.29473 L152.285179,483.29473 C152.285179,486.151932 152.860155,488.305679 154.022472,489.759071 C155.169333,491.212463 156.891169,491.943808 159.187982,491.943808 C160.792351,491.943808 162.093775,491.494465 163.086072,490.623669 C164.075278,489.746676 164.73681,488.426537 165.058302,486.666352 L177.117342,486.666352 L177.117342,486.663253 Z M197.878303,480.056362 C197.878303,483.548841 198.465644,486.260394 199.661965,488.178624 C200.858287,490.096853 202.521389,491.054419 204.672912,491.054419 C206.682237,491.054419 208.215506,490.121645 209.263447,488.252998 C210.317569,486.371955 210.843085,483.648007 210.843085,480.056362 C210.843085,476.328364 210.317569,473.561031 209.251082,471.751263 C208.184594,469.941496 206.558586,469.027315 204.394698,469.027315 C202.385373,469.027315 200.796461,470.006573 199.62487,471.96199 C198.456371,473.917407 197.878303,476.616563 197.878303,480.056362 Z M184.808419,512 L184.808419,470.648049 C184.808419,469.709077 184.76205,468.571774 184.66622,467.217548 C184.544233,465.548801 184.392737,463.882355 184.211804,462.218994 L197.559903,462.218994 L197.631002,466.951041 C199.315743,464.983228 201.136501,463.54843 203.084,462.634249 C205.034591,461.726266 207.269578,461.267627 209.795145,461.267627 C214.543334,461.267627 218.240491,462.937943 220.883526,466.26618 C223.535835,469.613011 224.865081,474.27998 224.865081,480.273286 C224.865081,486.387449 223.52347,491.063715 220.834066,494.326875 C218.144662,497.577639 214.292941,499.204571 209.266538,499.204571 C206.960451,499.204571 204.867662,498.786217 202.991262,497.934015 C201.11154,497.092328 199.45544,495.819581 198.156518,494.218413 L198.156518,512 L184.808419,512 Z M280.050413,481.639908 L280.050413,482.129537 C280.050413,487.44418 277.954532,491.602927 273.75968,494.615075 C269.564829,497.624123 263.750152,499.130197 256.287829,499.130197 C248.167065,499.130197 241.913428,496.877284 237.523827,492.355964 C233.14659,487.834644 230.95488,481.357907 230.95488,472.931951 C230.95488,464.193004 233.217689,457.474552 237.734033,452.776593 C242.256559,448.084833 248.751315,445.738953 257.246122,445.738953 C264.334402,445.738953 269.815221,447.186147 273.651486,450.089832 C277.503207,452.990419 279.537262,457.226639 279.778381,462.776799 L265.125766,462.776799 C264.934108,460.592063 264.074735,458.890757 262.529101,457.669784 C260.989649,456.436415 258.955594,455.822829 256.430027,455.822829 C252.875068,455.822829 250.222759,457.294815 248.448371,460.235687 C246.69253,463.170362 245.808427,467.58322 245.808427,473.483558 C245.808427,478.423232 246.714169,482.247296 248.5442,484.934057 C250.361866,487.627016 252.946167,488.971946 256.284738,488.971946 C259.001963,488.971946 261.125665,488.336668 262.671299,487.084706 C264.210751,485.81415 265.073215,483.998184 265.267965,481.636809 L280.050413,481.636809 L280.050413,481.639908 Z M285.048994,462.218994 L319.210607,462.218994 L319.210607,470.542686 L308.808487,470.542686 L308.808487,498.336874 L295.531487,498.336874 L295.531487,470.542686 L285.048994,470.542686 L285.048994,462.218994 Z M347.569907,481.422984 C347.378249,481.422984 347.106217,481.410588 346.732174,481.385797 C346.438955,481.364304 346.145145,481.351902 345.851162,481.34861 C342.778441,481.34861 340.447624,481.819645 338.877259,482.740024 C337.313077,483.6666 336.534078,485.045618 336.534078,486.867782 C336.534078,488.2468 336.997768,489.374806 337.915875,490.245601 C338.840164,491.110199 340.02412,491.540949 341.470834,491.540949 C343.529619,491.540949 345.069071,490.831297 346.107737,489.421289 C347.152586,487.992688 347.678102,485.879227 347.678102,483.077806 C347.678102,482.619166 347.665737,482.296879 347.653372,482.067559 C347.642317,481.850851 347.614411,481.635339 347.569907,481.422984 Z M348.166522,498.333775 C348.053637,497.464018 347.958817,496.592001 347.882126,495.718289 C347.8203,494.878482 347.761566,494.097555 347.712106,493.36931 C346.685805,495.222462 345.152535,496.638667 343.11848,497.636519 C341.090608,498.628172 338.704148,499.130197 335.971467,499.130197 C332.234123,499.130197 329.2325,498.088961 326.988239,496.000291 C324.731613,493.917818 323.600209,491.169079 323.600209,487.750973 C323.600209,483.555039 325.30968,480.378649 328.731715,478.231099 C332.15375,476.077352 337.201792,474.998929 343.851111,474.998929 C344.858865,474.998929 345.619317,474.998929 346.132467,475.005127 C346.651801,475.017522 347.127856,475.042314 347.569907,475.067105 L347.569907,472.997028 C347.569907,471.264733 347.189681,469.941496 346.423047,469.01492 C345.668777,468.088343 344.593016,467.623506 343.205036,467.623506 C341.90052,467.623506 340.824759,468.072849 339.987025,468.943644 C339.164747,469.820638 338.744335,470.957941 338.744335,472.364849 L338.744335,473.000127 L326.054676,473.000127 C326.104136,469.064502 327.55085,466.142223 330.42573,464.223994 C333.282063,462.305764 337.622204,461.342001 343.436881,461.342001 C349.582323,461.342001 353.93483,462.395632 356.509857,464.505995 C359.081793,466.607061 360.361578,470.214201 360.361578,475.30882 L360.361578,490.143337 C360.361578,491.990292 360.398673,493.558344 360.469772,494.8289 C360.540872,496.111852 360.639792,497.273945 360.778899,498.333775 L348.166522,498.333775 Z M383.546095,485.01153 C383.546095,490.096853 382.665083,493.583135 380.87833,495.488969 C379.110124,497.382408 375.916843,498.333775 371.326309,498.333775 C369.28686,498.337921 367.252737,498.124968 365.258148,497.698497 L365.221053,488.55979 C365.366342,488.55979 365.523997,488.572186 365.709473,488.596977 C365.901132,488.621769 366.145342,488.634164 366.451378,488.634164 C367.826992,488.634164 368.813107,488.228206 369.391174,487.422488 C369.981607,486.616769 370.266004,485.237751 370.266004,483.29473 L370.266004,462.218994 L406.424576,462.218994 L406.424576,498.333835 L393.147576,498.333775 L393.147576,470.539587 L383.543003,470.539587 L383.543003,485.01153 L383.546095,485.01153 Z M428.159287,490.70734 L430.616846,490.70734 C433.556643,490.70734 435.569059,490.332371 436.629364,489.607224 C437.69276,488.863484 438.218276,487.580533 438.218276,485.758369 C438.218276,483.930008 437.71749,482.66565 436.715919,481.968393 C435.708166,481.258741 433.680293,480.908564 430.616846,480.908564 L428.159287,480.908564 L428.159287,490.70734 Z M415.757116,498.333775 L415.757116,462.218994 L428.159287,462.218994 L428.159287,473.210853 L434.861158,473.210853 C440.555275,473.210853 444.774857,474.245892 447.522995,476.303573 C450.264951,478.367452 451.640565,481.534545 451.640565,485.823446 C451.640565,490.199118 450.277316,493.378607 447.541543,495.355716 C444.811953,497.335924 440.363617,498.333775 434.193444,498.333775 L415.757116,498.333775 Z" id="Shape" fill="#00ACEC"></path>
                <path d="M17.6182583,322.832613 C21.2685074,327.718001 42.5765657,364.959784 42.5765657,364.959784 L1.79020979,386.333356 L44.4032356,383.276889 L51.1010253,433.345915 L66.9290739,399.761973 L141.195106,454.713287 L76.0593327,377.780827 L90.6696013,332.603389 L62.0579541,355.192108 L17.6182583,322.832613 Z M148.180341,449.083931 C148.180341,449.083931 89.0191076,184.290329 87.4149762,174.646648 C85.8139355,165.009166 86.5031866,136.5865 92.91044,134.98077 C99.3176934,133.37194 388.475524,134.98077 388.475524,134.98077 C388.475524,134.98077 387.637914,151.09387 363.10923,172.163655 C334.441948,196.801386 277.580279,226.932077 215.461138,226.560093 C170.607273,352.684317 148.180341,449.083931 148.180341,449.083931 Z M166.153413,447.995878 L234.942526,380.834195 L217.287808,369.234498 L245.290565,371.069619 L258.686145,333.217162 L261.727504,366.794904 L293.383601,361.909516 L265.377753,377.783927 L267.810222,416.247057 L250.767484,390.60807 L166.153413,447.995878 Z" id="Shape" fill="#CC2229"></path>
            </g>
        </g>
    </g>
</svg>