<?xml version="1.0" encoding="UTF-8"?>
<svg width="512px" height="512px" viewBox="0 0 512 512" version="1.1" xmlns="http://www.w3.org/2000/svg" xmlns:xlink="http://www.w3.org/1999/xlink">
    <!-- Generator: Sketch 48.1 (47250) - http://www.bohemiancoding.com/sketch -->
    <title>#FB</title>
    <desc>Created with Sketch.</desc>
    <defs></defs>
    <g id="Компании-BIG" stroke="none" stroke-width="1" fill="none" fill-rule="evenodd">
        <g id="#FB" fill-rule="nonzero">
            <g id="facebook-3" transform="translate(-1.000000, 0.000000)">
                <circle id="Oval" fill="#3C5A9A" cx="256" cy="256" r="256"></circle>
                <path d="M340.512688,78.7692308 L283.518918,78.7692308 C249.696912,78.7692308 212.077302,92.908374 212.077302,141.638619 C212.242415,158.618095 212.077302,174.879455 212.077302,193.180541 L172.949833,193.180541 L172.949833,255.067839 L213.288133,255.067839 L213.288133,433.230769 L287.411746,433.230769 L287.411746,253.89211 L336.335935,253.89211 L340.762542,193.006874 L286.134521,193.006874 C286.134521,193.006874 286.256827,165.922552 286.134521,158.057149 C286.134521,138.800023 306.294061,139.902812 307.506639,139.902812 C317.099805,139.902812 335.75236,139.930599 340.540644,139.902812 L340.540644,78.7692308 L340.512688,78.7692308 Z" id="Shape" fill="#FFFFFF"></path>
            </g>
        </g>
    </g>
</svg>