<?xml version="1.0" encoding="UTF-8"?>
<svg width="512px" height="512px" viewBox="0 0 512 512" version="1.1" xmlns="http://www.w3.org/2000/svg" xmlns:xlink="http://www.w3.org/1999/xlink">
    <!-- Generator: Sketch 48.1 (47250) - http://www.bohemiancoding.com/sketch -->
    <title>#GAZP</title>
    <desc>Created with Sketch.</desc>
    <defs></defs>
    <g id="Компании-BIG" stroke="none" stroke-width="1" fill="none" fill-rule="evenodd">
        <g id="#GAZP" fill="#236AB3" fill-rule="nonzero">
            <g id="OAO" transform="translate(93.000000, 0.000000)">
                <path d="M244.313309,338.405405 L244.313309,338.607029 C279.655062,286.088679 297.509848,232.754528 297.71246,169.60595 C297.71246,106.879231 278.60148,52.3415414 244.313309,0 L244.10758,0 C213.107957,49.2582481 193.410961,100.740562 191.543814,158.166125 C189.470248,222.295776 207.951203,285.419254 244.313309,338.405405 Z M244.313309,326.13427 L244.313309,325.941951 C234.463253,306.728753 229.329379,285.86224 229.329379,264.639007 C229.329379,243.797309 234.460136,221.922676 244.313309,203.546992 L244.313309,203.329859 C253.767493,222.750885 259.31906,242.972202 259.31906,264.642109 C259.31906,286.919989 253.767493,306.108372 244.313309,326.13427 Z M204.679301,156.745453 C208.204748,110.161047 222.328358,68.2512111 244.104463,26.1800764 L244.310192,26.3599869 C269.362377,71.3407083 282.513449,115.449794 284.972846,166.54437 C286.197869,189.039384 283.950435,210.910914 279.231136,232.962355 C280.253547,210.275024 279.019173,189.039384 274.907709,166.960025 C269.362377,136.316308 258.695639,108.923387 244.310192,81.1427274 L244.104463,80.9162883 C231.380435,106.054125 221.723639,130.773204 215.7762,157.958298 C210.243336,183.30086 208.99961,206.807094 208.99961,232.959254 C205.299605,207.427475 202.840208,182.460244 204.679301,156.745453 Z" id="Shape"></path>
                <path d="M189.12872,401.552663 C199.380206,391.539964 209.000496,386.435938 223.555305,387.859236 C246.90021,390.107364 261.843686,404.008549 263.071874,427.078997 C265.332362,471.20433 206.746226,497.971012 170.108903,495.921339 C117.04495,493.266997 81.8130478,459.160564 73.411618,410.551378 C68.2998673,380.913294 79.3286872,348.431716 100.257638,325.981441 C120.912966,303.912573 148.987174,295.121615 178.062588,294.520047 L178.062588,161.942492 C78.7192571,161.942492 5.40108013,232.220535 0.276892021,328.424924 C-5.25461929,435.665297 72.7835319,508.374419 172.32897,511.856693 C225.181488,513.893962 264.710495,494.091827 300.984026,459.982294 L300.984026,345.771172 L189.125611,345.771172 L189.125611,401.552663 L189.12872,401.552663 Z" id="Shape"></path>
            </g>
        </g>
    </g>
</svg>