<?xml version="1.0" encoding="UTF-8"?>
<svg width="512px" height="512px" viewBox="0 0 512 512" version="1.1" xmlns="http://www.w3.org/2000/svg" xmlns:xlink="http://www.w3.org/1999/xlink">
    <!-- Generator: Sketch 48.1 (47250) - http://www.bohemiancoding.com/sketch -->
    <title>#GMKN</title>
    <desc>Created with Sketch.</desc>
    <defs>
        <polygon id="path-1" points="6.47030059e-05 0.826061856 171.031225 0.826061856 171.031225 341.773196 6.47030059e-05 341.773196"></polygon>
        <polygon id="path-3" points="0.921336082 0.826325773 171.853856 0.826325773 171.853856 341.52306 0.921336082 341.52306"></polygon>
    </defs>
    <g id="Компании-BIG" stroke="none" stroke-width="1" fill="none" fill-rule="evenodd">
        <g id="#GMKN">
            <g id="Page-1" transform="translate(1.000000, 90.000000)">
                <g id="Group-3" transform="translate(0.000000, 0.493526)">
                    <mask id="mask-2" fill="white">
                        <use xlink:href="#path-1"></use>
                    </mask>
                    <g id="Clip-2"></g>
                    <path d="M170.847802,227.561567 C170.780503,253.783093 170.707926,280.003299 170.651184,306.224825 C170.628751,316.285361 170.500751,326.349856 170.717163,336.405113 C170.802936,340.365196 170.416297,341.932866 165.498194,341.76132 C117.727802,340.090722 77.4790598,321.753732 45.0567918,286.952247 C17.9445443,257.848742 2.98305979,223.028784 0.41382268,183.23134 C-2.89306392,131.989113 13.6400495,87.7209072 49.3758021,51.1181856 C76.6398021,23.1917526 110.3104,7.19175258 149.02974,1.93715464 C150.074854,1.79463918 151.428751,2.28684536 152.012008,0.826061856 L170.816132,0.826061856 L171.031225,1.024 L170.900586,1.28395876 C170.882111,76.710268 170.866276,152.136577 170.847802,227.561567" id="Fill-1" fill="#0088BD" mask="url(#mask-2)"></path>
                </g>
                <g id="Group-6" transform="translate(339.134021, 0.493526)">
                    <mask id="mask-4" fill="white">
                        <use xlink:href="#path-3"></use>
                    </mask>
                    <g id="Clip-5"></g>
                    <path d="M16.7537485,0.826325773 C23.9692536,2.12611959 31.2230268,3.24776907 38.3949856,4.75341856 C107.232594,19.2042227 161.550779,78.2544495 170.389377,148.159604 C179.844223,222.944594 143.000016,291.993336 75.6759753,324.947398 C52.4617897,336.309047 27.8396041,342.259068 1.80941856,341.450161 C1.83053196,267.767027 1.84636701,194.086532 1.90706804,120.403398 C1.90838763,118.536181 1.43333608,116.840511 0.921336082,115.111852 C2.05618144,113.294779 1.6022433,111.267893 1.60488247,109.330738 C1.63127423,77.5933361 1.61148041,45.855934 1.63655258,14.1172124 C1.63919175,9.6873567 1.81337732,5.25618144 1.90838763,0.826325773 L16.7537485,0.826325773 Z" id="Fill-4" fill="#0088BD" mask="url(#mask-4)"></path>
                </g>
                <path d="M341.042408,1.31985155 C340.947398,5.74970722 340.773212,10.1808825 340.770573,14.6107381 C340.745501,46.3494598 340.765295,78.0868619 340.738903,109.824264 C340.736264,111.761419 341.190202,113.788305 340.055357,115.605377 C309.340635,94.9208412 278.629872,74.2283876 247.908553,53.5530887 C222.246532,36.2849649 196.571315,19.0353155 170.900058,1.77774845 L171.030697,1.5164701 L170.815604,1.31985155 L341.042408,1.31985155 Z" id="Fill-7" fill="#FDFCFC"></path>
                <path d="M170.900586,1.77801237 C196.570524,19.0355794 222.24574,36.2839093 247.907761,53.5533526 C278.6304,74.2286515 309.339843,94.9197856 340.054565,115.605641 C340.566565,117.334301 341.042936,119.028652 341.041616,120.897188 C340.980915,194.579002 340.96508,268.260816 340.942647,341.943951 C333.848544,338.751868 327.905122,333.75327 321.524915,329.461971 C271.962524,296.135786 222.47139,262.702713 172.953864,229.309229 C172.278235,228.852652 171.551142,228.471291 170.847802,228.055621 C170.866276,152.629311 170.882111,77.2043216 170.900586,1.77801237" id="Fill-9" fill="#126186"></path>
            </g>
        </g>
    </g>
</svg>