<?xml version="1.0" encoding="UTF-8"?>
<svg width="512px" height="512px" viewBox="0 0 512 512" version="1.1" xmlns="http://www.w3.org/2000/svg" xmlns:xlink="http://www.w3.org/1999/xlink">
    <!-- Generator: Sketch 48.1 (47250) - http://www.bohemiancoding.com/sketch -->
    <title>#GOOG</title>
    <desc>Created with Sketch.</desc>
    <defs></defs>
    <g id="Компании-BIG" stroke="none" stroke-width="1" fill="none" fill-rule="evenodd">
        <g id="#GOOG" fill-rule="nonzero">
            <g id="google-icon" transform="translate(5.000000, 1.000000)">
                <path d="M500.036397,260.78974 C500.036397,239.813374 498.33429,224.506137 494.650626,208.632183 L255.120611,208.632183 L255.120611,303.309191 L395.719328,303.309191 C392.88574,326.83774 377.578504,362.271267 343.561771,386.081221 L343.084947,389.250931 L418.819908,447.921832 L424.066931,448.445557 C472.255511,403.940641 500.036397,338.459359 500.036397,260.78974" id="Shape" fill="#4285F4"></path>
                <path d="M255.120611,510.241221 C324.002198,510.241221 381.828885,487.562748 424.066931,448.445557 L343.561771,386.081221 C322.018687,401.105099 293.104366,411.593282 255.120611,411.593282 C187.655817,411.593282 130.395847,367.090321 109.984244,305.578015 L106.992366,305.832061 L28.2420763,366.777649 L27.2122137,369.64055 C69.1649466,452.979298 155.339237,510.241221 255.120611,510.241221" id="Shape" fill="#34A853"></path>
                <path d="M109.984244,305.578015 C104.598473,289.704061 101.481527,272.694718 101.481527,255.120611 C101.481527,237.54455 104.598473,220.53716 109.700885,204.663206 L109.558229,201.282443 L29.8210687,139.357802 L27.2122137,140.598718 C9.92146565,175.182168 0,214.017954 0,255.120611 C0,296.223267 9.92146565,335.057099 27.2122137,369.64055 L109.984244,305.578015" id="Shape" fill="#FBBC05"></path>
                <path d="M255.120611,98.6459847 C303.025832,98.6459847 335.340458,119.338992 353.766595,136.631695 L425.767084,66.3313588 C381.547481,25.2287023 324.002198,0 255.120611,0 C155.339237,0 69.1649466,57.2599695 27.2122137,140.598718 L109.700885,204.663206 C130.395847,143.150901 187.655817,98.6459847 255.120611,98.6459847" id="Shape" fill="#EB4335"></path>
            </g>
        </g>
    </g>
</svg>