<?xml version="1.0" encoding="UTF-8"?>
<svg width="512px" height="512px" viewBox="0 0 512 512" version="1.1" xmlns="http://www.w3.org/2000/svg" xmlns:xlink="http://www.w3.org/1999/xlink">
    <!-- Generator: Sketch 48.1 (47250) - http://www.bohemiancoding.com/sketch -->
    <title>#LKOH</title>
    <desc>Created with Sketch.</desc>
    <defs></defs>
    <g id="Компании-BIG" stroke="none" stroke-width="1" fill="none" fill-rule="evenodd">
        <g id="#LKOH" fill="#CC2229" fill-rule="nonzero">
            <path d="M0,0 L0,512 L512,512 L512,0 L0,0 Z M160.103286,84.4916306 C160.103286,84.4916306 161.553726,55.8195489 189.346025,55.8195489 C217.126628,55.8195489 218.343126,84.4916306 218.343126,84.4916306 L218.343126,284.436992 C218.343126,284.436992 218.682342,302.563157 238.391948,302.563157 C258.101554,302.563157 257.002027,284.436992 257.002027,284.436992 L257.002027,84.4916306 C257.002027,84.4916306 259.657268,55.8195489 286.724348,55.8195489 C313.791428,55.8195489 315.95539,84.4916306 315.95539,84.4916306 L315.95539,284.436992 C315.95539,284.436992 314.996228,357.938117 238.403645,361.864662 C161.565423,359.646342 159.881041,284.436992 159.881041,284.436992 L160.103286,84.4916306 Z M120.072167,438.845287 C120.072167,438.845287 60.9070632,438.845287 60.9070632,380.301284 L60.9070632,84.475048 C60.9070632,84.475048 60.9070632,55.8195489 90.4896153,55.8195489 C120.072167,55.8195489 119.825646,84.475048 119.825646,84.475048 L119.825646,361.699514 C119.825646,361.699514 117.642172,380.301284 140.192999,380.301284 L403.77119,380.301284 L340.239138,223.567442 C340.239138,223.567442 330.049592,196.393919 340.239138,177.780293 C350.416944,159.166667 393.581644,84.475048 393.581644,84.475048 C393.581644,84.475048 405.461622,55.8195489 427.777666,55.8195489 C450.09371,55.8195489 462.936294,80.0646857 453.721095,96.9710745 C444.505895,113.865607 402.796844,186.11493 402.796844,186.11493 C402.796844,186.11493 392.125995,201.053253 402.796844,221.385972 C420.252898,263.509674 491.063197,438.857143 491.063197,438.857143 L120.072167,438.857143 L120.072167,438.845287 Z" id="Shape"></path>
        </g>
    </g>
</svg>