<?xml version="1.0" encoding="UTF-8"?>
<svg width="512px" height="512px" viewBox="0 0 512 512" version="1.1" xmlns="http://www.w3.org/2000/svg" xmlns:xlink="http://www.w3.org/1999/xlink">
    <!-- Generator: Sketch 48.1 (47250) - http://www.bohemiancoding.com/sketch -->
    <title>CDF</title>
    <desc>Created with Sketch.</desc>
    <defs>
        <polygon id="path-1" points="0 0.124046639 92.2303645 0.124046639 92.2303645 99.6423642 0 99.6423642"></polygon>
        <polygon id="path-3" points="0 0.124046639 92.2303645 0.124046639 92.2303645 99.6423642 0 99.6423642"></polygon>
        <polygon id="path-5" points="0 0.124365118 68.6264946 0.124365118 68.6264946 72.00826 0 72.00826"></polygon>
        <polygon id="path-7" points="0 0.125002076 54.338362 0.125002076 54.338362 57.3142759 0 57.3142759"></polygon>
        <polygon id="path-9" points="0 0.122772723 40.6689651 0.122772723 40.6689651 43.2187139 0 43.2187139"></polygon>
        <polygon id="path-11" points="0 0.122772723 27.162459 0.122772723 27.162459 29.2381228 0 29.2381228"></polygon>
    </defs>
    <g id="Компании" stroke="none" stroke-width="1" fill="none" fill-rule="evenodd">
        <g id="CDF">
            <g id="Page-1" transform="translate(-5.000000, 155.000000)">
                <polygon id="Fill-1" fill="#22477E" points="0 0 0 151 98 129.498589 98 0"></polygon>
                <g id="Group-32" transform="translate(0.000000, 2.000000)">
                    <g id="Group-4">
                        <mask id="mask-2" fill="white">
                            <use xlink:href="#path-1"></use>
                        </mask>
                        <g id="Clip-3"></g>
                        <path d="M37.5759127,85.6229187 C25.5638765,92.5721304 12.8671355,97.1932607 -0.00156325301,99.6423642 L-0.00156325301,0.124046639 L92.2303645,0.124046639 L92.2303645,15.5447998 C83.6324729,44.0486702 64.8359187,69.482403 37.5759127,85.6229187" id="Fill-2" fill="#22477E" mask="url(#mask-2)"></path>
                    </g>
                    <g id="Group-7">
                        <mask id="mask-4" fill="white">
                            <use xlink:href="#path-3"></use>
                        </mask>
                        <g id="Clip-6"></g>
                        <path d="M37.5759127,85.6229187 C25.5638765,92.5721304 12.8671355,97.1932607 -0.00156325301,99.6423642 L-0.00156325301,0.124046639 L92.2303645,0.124046639 L92.2303645,15.5447998 C83.6324729,44.0486702 64.8359187,69.482403 37.5759127,85.6229187" id="Fill-5" fill="#22477E" mask="url(#mask-4)"></path>
                    </g>
                    <path d="M30.2558241,73.1949127 C20.585541,78.9721218 10.3806253,82.972218 0.000625301205,85.3194082 L0.000625301205,0.123091202 L81.9213361,0.123091202 C76.1685651,29.7957795 58.2349265,56.9110815 30.2558241,73.1949127" id="Fill-8" fill="#12578E"></path>
                    <g id="Group-12">
                        <mask id="mask-6" fill="white">
                            <use xlink:href="#path-5"></use>
                        </mask>
                        <g id="Clip-11"></g>
                        <path d="M23.9112054,62.2596178 C16.2450127,66.7215086 8.19425964,69.9508856 -0.000312650602,72.00826 L-0.000312650602,0.124365118 L68.6264946,0.124365118 C63.1707416,25.3383475 47.7351813,48.2783898 23.9112054,62.2596178" id="Fill-10" fill="#00639A" mask="url(#mask-6)"></path>
                    </g>
                    <g id="Group-15">
                        <mask id="mask-8" fill="white">
                            <use xlink:href="#path-7"></use>
                        </mask>
                        <g id="Clip-14"></g>
                        <path d="M17.0797898,49.8332042 C11.5740127,53.0689509 5.8400006,55.5403479 -0.000312650602,57.3142759 L-0.000312650602,0.125002076 L54.338362,0.125002076 C49.098338,20.3675272 36.2483982,38.568602 17.0797898,49.8332042" id="Fill-13" fill="#0070A7" mask="url(#mask-8)"></path>
                    </g>
                    <g id="Group-18">
                        <mask id="mask-10" fill="white">
                            <use xlink:href="#path-9"></use>
                        </mask>
                        <g id="Clip-17"></g>
                        <path d="M10.2480614,38.4001266 C6.91833253,40.3269246 3.48542892,41.928874 -0.000625301205,43.2187139 L-0.000625301205,0.122135765 L40.6689651,0.122135765 C35.7822361,15.6893892 25.3897301,29.5177474 10.2480614,38.4001266" id="Fill-16" fill="#0078AF" mask="url(#mask-10)"></path>
                    </g>
                    <g id="Group-21">
                        <mask id="mask-12" fill="white">
                            <use xlink:href="#path-11"></use>
                        </mask>
                        <g id="Clip-20"></g>
                        <path d="M4.39211566,26.9673675 C2.94766988,27.7985977 1.47821205,28.553393 -0.000625301205,29.2381228 L-0.000625301205,0.122772723 L27.162459,0.122772723 C22.8822723,11.0561568 15.1254108,20.6614834 4.39211566,26.9673675" id="Fill-19" fill="#007FB4" mask="url(#mask-12)"></path>
                    </g>
                    <path d="M11.5533777,0.12372816 C8.70513072,4.99964163 4.81575723,9.31184728 0.000937951807,12.6718007 L0.000937951807,0.12372816 L11.5533777,0.12372816 Z" id="Fill-22" fill="#0083BA"></path>
                    <polygon id="Fill-24" fill="#22477E" points="208.371934 190.508244 168.843519 98.0506062 168.843519 190.508244 147.373802 190.508244 147.373802 73.1965051 182.021742 73.1965051 218.132886 157.701723 218.132886 73.1965051 239.114868 73.1965051 239.114868 190.508244"></polygon>
                    <polygon id="Fill-26" fill="#22477E" points="311.33747 145.770225 311.33747 190.50697 286.450482 190.50697 286.450482 145.770225 248.873006 73.1952312 275.71406 73.1952312 301.09191 124.893927 325.978898 73.1952312 349.399554 73.1952312"></polygon>
                    <polygon id="Fill-28" fill="#22477E" points="446.510082 190.508244 446.510082 73.1965051 516.293696 73.1965051 516.293696 90.0981856 470.4216 90.0981856 470.4216 121.414226 512.38869 121.414226 512.38869 138.315906 470.4216 138.315906 470.4216 174.106576 518.244636 174.106576 518.244636 190.508244"></polygon>
                    <path d="M387.952187,191.999363 C377.215766,191.999363 365.503874,190.008869 354.770579,186.034251 L354.770579,168.638928 C365.016139,172.613546 374.777091,174.600855 385.022651,174.600855 C398.688609,174.104028 404.544555,169.632583 405.03229,159.686484 C405.03229,150.740409 398.688609,147.759445 381.120772,138.810185 C364.040669,130.360938 353.304248,123.898999 352.816513,105.010009 C352.328778,84.6305381 369.40888,71.7034756 393.808133,71.7034756 C405.03229,71.7034756 414.305507,74.1907965 422.112392,77.17176 L422.112392,94.5702677 C413.32691,91.0892922 405.03229,88.605156 396.246808,88.605156 C384.047181,88.605156 376.728031,92.5829587 376.240296,101.529034 C376.240296,110.478294 381.608507,112.96243 397.713139,120.418023 C421.624657,131.354592 428.940681,140.800679 428.456073,157.699175 C428.456073,176.591349 413.814645,191.502536 387.952187,191.999363" id="Fill-30" fill="#22477E"></path>
                </g>
            </g>
        </g>
    </g>
</svg>