<?xml version="1.0" encoding="UTF-8"?>
<svg width="512px" height="512px" viewBox="0 0 512 512" version="1.1" xmlns="http://www.w3.org/2000/svg" xmlns:xlink="http://www.w3.org/1999/xlink">
    <!-- Generator: Sketch 48.1 (47250) - http://www.bohemiancoding.com/sketch -->
    <title>#ROSN</title>
    <desc>Created with Sketch.</desc>
    <defs></defs>
    <g id="Компании-BIG" stroke="none" stroke-width="1" fill="none" fill-rule="evenodd">
        <g id="#ROSN" fill-rule="nonzero">
            <g id="Group" transform="translate(111.000000, 1.000000)">
                <g id="rosneft-1">
                    <path d="M23.57068,287.784219 L23.57068,149.809176 L0,149.809176 L0,273.037619 L23.57068,287.784219 Z M65.049902,320.613419 L65.049902,101.930854 L41.4764693,101.930854 L41.4764693,305.875069 L65.049902,320.613419 Z M108.444947,283.073118 L108.444947,49.6384531 L84.874267,49.6384531 L84.874267,282.29481 L108.444947,283.073118 Z M156.40934,233.434665 L156.40934,0 L132.83866,0 L132.83866,232.659107 L156.40934,233.434665 Z M267.593144,287.784219 L267.593144,149.809176 L291.169329,149.809176 L291.169329,273.037619 L267.593144,287.784219 Z M226.116674,320.613419 L226.116674,101.930854 L249.690107,101.930854 L249.690107,305.875069 L226.116674,320.613419 Z M182.718877,283.073118 L182.718877,49.6384531 L206.295062,49.6384531 L206.295062,282.29481 L182.718877,283.073118 Z" id="Shape" fill="#686A76"></path>
                    <path d="M111.949729,510.121852 L111.949729,308.149545 L88.3322684,308.149545 L88.3322684,509.344782 L111.949729,510.121852 Z M201.201278,509.720961 L201.201278,307.745908 L177.586576,307.745908 L177.586576,508.943891 L201.201278,509.720961 Z M157.720108,512 L157.720108,266.632588 L134.102647,266.632588 L134.102647,511.22293 L157.720108,512 Z" id="Shape" fill="#E5A663"></path>
                </g>
            </g>
        </g>
    </g>
</svg>