<?xml version="1.0" encoding="UTF-8"?>
<svg width="512px" height="512px" viewBox="0 0 512 512" version="1.1" xmlns="http://www.w3.org/2000/svg" xmlns:xlink="http://www.w3.org/1999/xlink">
    <!-- Generator: Sketch 48.1 (47250) - http://www.bohemiancoding.com/sketch -->
    <title>#RTKM</title>
    <desc>Created with Sketch.</desc>
    <defs>
        <polygon id="path-1" points="1.06548267 0.970213855 160.842276 0.970213855 160.842276 282.250524 1.06548267 282.250524"></polygon>
    </defs>
    <g id="Компании-BIG" stroke="none" stroke-width="1" fill="none" fill-rule="evenodd">
        <g id="#RTKM">
            <g id="Page-1" transform="translate(102.000000, 0.000000)">
                <path d="M88.3183139,233.776052 C66.6089441,203.30973 53.7992245,166.318008 52.1528795,130.749878 C52.0409569,128.231492 51.9651384,125.676975 51.9651384,123.093553 L51.9651384,122.938186 L51.9651384,122.855083 C51.9651384,93.320961 60.6409434,66.4136201 74.9237085,45.9955479 C82.8882636,32.4063832 100.600914,18.6221069 123.454783,9.6 C113.20123,13.4769406 103.247342,18.4920325 93.7952994,24.5152012 L93.7952994,24.5260407 C-71.2616203,125.232554 18.1392469,384.225195 85.534691,464.217356 C86.5058902,465.395252 93.791689,473.398443 96.0770758,475.649453 C138.391031,517.244365 198.962808,524.152762 231.384252,491.135536 C262.989744,458.905983 255.967505,400.509791 216.173613,359.037727 C174.379556,313.956098 127.000201,290.922085 88.3183139,233.776052" id="Fill-1" fill="#00A0D3"></path>
                <g id="Group-5" transform="translate(161.600000, 0.000000)">
                    <mask id="mask-2" fill="white">
                        <use xlink:href="#path-1"></use>
                    </mask>
                    <g id="Clip-4"></g>
                    <path d="M8.671456,1.10134684 C6.14690489,1.16623797 3.59362489,1.31404557 1.06548267,1.53755949 C14.6542471,0.802126582 26.4079538,2.91469367 34.4089493,7.67698228 C35.8274382,8.48812152 37.2171982,9.34612658 38.5746382,10.2906532 C45.1355982,14.8186127 50.3786204,20.7381266 54.3252516,27.6778734 C60.6599716,38.1181367 63.8021938,51.063919 63.809376,65.249843 C63.809376,65.6103494 63.8021938,65.9348051 63.8021938,66.2700759 L63.8021938,66.3097316 C63.6118649,95.0817418 50.6371804,128.86479 25.7005049,157.085225 C25.0612871,157.788213 24.3753849,158.527251 23.7397582,159.255473 C23.7397582,159.255473 23.7289849,159.273499 23.7146204,159.287919 C21.6030471,161.724942 19.6099804,164.288142 17.7246471,167.01357 C-6.971424,202.65683 -1.606304,249.248668 29.679456,271.091747 C60.9688071,292.93122 106.353269,281.733894 131.056523,246.058187 C132.284683,244.280891 133.455385,242.467544 134.536309,240.636172 C205.356612,129.145985 122.998069,-3.79072405 8.671456,1.10134684" id="Fill-3" fill="#00A0D3" mask="url(#mask-2)"></path>
                </g>
                <path d="M109.800823,201.700737 C113.301586,142.258177 151.550394,96.1706493 195.243231,98.7656515 C203.308325,99.2578695 211.38063,101.747913 218.555211,105.262205 C223.15199,92.080897 225.524288,78.9792125 225.6,66.7859598 L225.6,66.7425288 L225.6,65.7219003 C225.6,51.4765329 222.445348,38.4798066 216.085568,27.9984591 L216.085568,27.9876013 C212.101693,21.0277838 206.848746,15.0885948 200.276253,10.5464363 C198.913443,9.59457355 197.51458,8.73681134 196.08327,7.91886087 C181.369971,-0.836104527 153.965956,-0.716669282 125.779588,9.6778163 C101.404039,18.6716522 82.429256,33.1233169 74.1262109,47.3578265 C59.8635768,67.8102075 51.2,94.7627611 51.2,124.346509 C51.2,126.912558 51.279317,129.485844 51.4018978,132.008461 C53.0351064,167.694265 65.8267711,204.795195 87.501937,235.374237 C105.049015,261.411121 124.391541,280.394086 144.191942,297.6 C121.442391,277.639837 107.428524,241.751355 109.800823,201.700737" id="Fill-6" fill="#E5722A"></path>
            </g>
        </g>
    </g>
</svg>