<?xml version="1.0" encoding="UTF-8"?>
<svg width="512px" height="512px" viewBox="0 0 512 512" version="1.1" xmlns="http://www.w3.org/2000/svg" xmlns:xlink="http://www.w3.org/1999/xlink">
    <!-- Generator: Sketch 48.1 (47250) - http://www.bohemiancoding.com/sketch -->
    <title>#SBER</title>
    <desc>Created with Sketch.</desc>
    <defs></defs>
    <g id="Компании-BIG" stroke="none" stroke-width="1" fill="none" fill-rule="evenodd">
        <g id="#SBER" fill="#6CB239">
            <g id="Group-5" transform="translate(0.000000, 8.000000)">
                <path d="M419.356551,32.0721346 L441.656928,52.1958268 L160.035033,211.927634 L23.6841601,133.948327 L36.4272323,108.793711 L160.035033,178.597769 L419.356551,32.0721346 Z M362.64988,0 L392.5961,15.0927692 L160.035033,147.1545 L51.7189189,86.1545575 L70.1963736,64.1442691 L160.035033,115.082365 L362.64988,0 Z M461.40869,72.9483845 L477.974684,94.9586729 L160.035033,275.443038 L6.48101266,188.659615 L13.4897024,160.989538 L160.035033,243.999769 L461.40869,72.9483845 Z" id="Shape"></path>
                <path d="M498.179142,153.716746 C507.388859,179.877779 512,207.291808 512,235.984145 C512,264.676483 507.388859,292.520834 498.179142,319.517197 L491.896933,336.603503 C479.01209,367.263607 460.465227,395.180472 437.24172,418.870903 C413.807467,442.209319 386.062328,460.698347 355.573011,473.293952 C323.332718,487.216128 290.037013,494.177215 255.685898,494.177215 C220.920156,494.177215 187.624452,487.216128 155.798784,473.293952 C126.05881,460.637429 99.0453134,442.500632 74.7582958,418.870903 C50.8859039,394.823509 32.6674995,367.40948 20.1030827,336.603503 C6.82250157,304.745252 -0.0120252469,270.537253 1.58829171e-05,235.984145 L1.58829171e-05,218.897839 L155.798784,308.126327 L484.358283,118.278481 L498.179142,153.716746 Z" id="Shape"></path>
            </g>
        </g>
    </g>
</svg>