<?xml version="1.0" encoding="UTF-8"?>
<svg width="512px" height="512px" viewBox="0 0 512 512" version="1.1" xmlns="http://www.w3.org/2000/svg" xmlns:xlink="http://www.w3.org/1999/xlink">
    <!-- Generator: Sketch 48.1 (47250) - http://www.bohemiancoding.com/sketch -->
    <title>#SNGS</title>
    <desc>Created with Sketch.</desc>
    <defs></defs>
    <g id="Компании-BIG" stroke="none" stroke-width="1" fill="none" fill-rule="evenodd">
        <g id="#SNGS">
            <g id="Page-1" transform="translate(-1.000000, 109.000000)">
                <g id="Group-12">
                    <path d="M256.359564,3.32878598 C395.965473,3.32878598 509.778407,65.8052445 509.778407,142.474811 C509.778407,219.144377 395.965473,281.620836 256.359564,281.620836 C116.750924,281.620836 2.93798988,219.144377 2.93798988,142.474811 C2.93798988,65.8052445 116.750924,3.32878598 256.359564,3.32878598" id="Fill-2" fill="#FFFFFE"></path>
                    <path d="M4.94441353,142.475084 C4.94441353,66.8577702 117.727923,5.33790469 256.359018,5.33790469 C394.987382,5.33790469 507.770891,66.8577702 507.770891,142.475084 C507.770891,218.092398 394.987382,279.612263 256.359018,279.612263 C117.727923,279.612263 4.94441353,218.092398 4.94441353,142.475084 M0.930473998,142.475084 C0.930473998,220.308961 115.51616,283.629954 256.359018,283.629954 C397.201876,283.629954 511.784831,220.308961 511.784831,142.475084 C511.784831,64.6412074 397.201876,1.32021389 256.359018,1.32021389 C115.51616,1.32021389 0.930473998,64.6412074 0.930473998,142.475084" id="Fill-4" fill="#00A3DA"></path>
                    <path d="M166.569375,25.2057957 C157.512071,40.7763974 151.605845,51.2223935 146.090092,73.2978279 C144.514552,88.078557 145.500288,101.481792 149.833705,114.882294 C155.147396,130.649681 167.948313,142.869474 177.005618,157.059848 C183.111175,166.322402 188.818068,174.207462 192.168479,186.030952 C193.544687,196.673733 193.544687,206.728892 191.772546,216.975371 C188.228265,227.421367 183.897579,235.503211 178.581157,242.991968 C174.643674,247.326701 171.096662,250.283941 165.976841,252.451307 C160.466549,254.424622 154.754194,254.618674 149.241171,254.225104 C138.804928,252.057737 128.568017,248.116574 118.129043,244.96255 C104.541722,239.64116 91.5469338,233.726681 78.5521458,227.224582 C65.3580262,218.552383 52.9557723,209.683398 41.1378605,199.040617 C31.6873539,189.187709 25.3851958,179.135283 19.6755716,166.52192 C16.1312903,158.63686 14.9516836,150.557749 14.5584813,141.095677 C14.5584813,133.016565 16.5244925,125.72186 19.2823694,118.036318 C23.2198529,109.167334 27.160067,101.481792 33.4594946,93.0063778 C39.7616527,85.9111905 46.8474847,79.2095729 54.3319801,72.7047402 C62.0103461,66.7929952 67.7227008,63.0486167 76.1874713,58.1180628 C85.2447756,52.9961903 93.5156755,48.2651544 103.954649,43.9304213 C113.994959,39.5929551 123.248864,36.6384492 133.687838,33.4844252 C144.711153,30.1336164 155.147396,27.1763774 166.569375,25.2057957" id="Fill-6" fill="#292D78"></path>
                    <path d="M345.360618,257.970849 C354.617254,242.203462 360.324147,231.757466 366.036502,209.682032 C367.415441,194.901303 366.626306,181.500801 362.099019,168.097566 C356.782597,152.330179 343.981679,140.110386 334.927106,126.116796 C328.818818,116.654725 323.111924,108.772398 319.761514,96.9461746 C318.581907,86.3033937 318.385306,76.4477521 320.157446,66.0044892 C323.701728,55.5584931 328.032414,47.4766484 333.351566,39.9878914 C337.28905,35.6531583 340.833331,32.6959192 345.953152,30.7226044 C351.463444,28.557971 357.3724,28.3611862 362.688822,28.7547559 C373.321666,30.9221224 383.364706,34.8632858 393.800949,38.0173097 C407.388271,43.3387002 420.383059,49.2504452 433.377847,55.7552779 C446.569236,64.4274772 458.976951,73.4932462 470.792132,83.9392423 C480.239908,93.7948838 486.544797,104.044095 492.254421,116.460673 C495.798702,124.342999 496.978309,132.422111 497.374242,141.884183 C497.374242,149.963294 495.40277,157.454785 492.647623,164.943542 C488.71014,173.812526 484.772656,181.500801 478.470498,189.973482 C472.16834,197.068669 465.082508,203.770287 457.598013,210.27512 C449.919647,216.383649 444.210022,219.931243 435.742521,225.055849 C426.682487,229.983669 418.414317,234.711972 407.978074,239.049438 C397.935034,243.384172 388.681128,246.341411 378.244886,249.694953 C367.21884,252.846243 356.782597,255.803482 345.360618,257.970849" id="Fill-8" fill="#00A3DA"></path>
                    <path d="M225.640639,17.5202538 C246.316523,15.546939 264.824334,16.1400267 285.303618,17.323469 C282.152539,23.8283017 279.00146,30.1336164 275.65651,36.4416643 C272.702032,43.3373336 270.73329,48.2651544 268.96115,54.3736843 C266.992408,61.8651744 265.416868,70.143804 265.220267,77.2389912 C264.630464,84.7277483 265.023666,89.8523539 265.80734,96.5539714 C267.38561,104.042728 268.174745,110.941131 270.927161,118.233103 C274.673504,125.921378 279.200791,133.410135 284.12128,140.505322 C288.061494,146.220283 291.605776,152.132028 295.543259,157.650203 C299.680075,164.155036 302.23862,168.689287 305.979502,177.558271 C308.344177,184.259888 310.310188,189.581279 311.492525,197.463606 C311.885727,204.362008 311.885727,210.076968 310.310188,216.975371 C308.144845,224.466861 305.782901,231.165745 302.828423,237.473793 C299.480743,244.175411 296.922198,249.300016 292.785382,255.804849 C289.830905,259.549227 287.471691,263.487658 284.517213,267.232036 C263.841329,268.415478 244.740984,267.825124 225.050836,266.641682 C228.595117,261.716594 232.5326,256.39247 235.880281,251.267865 C239.623894,245.35612 242.971574,239.050805 245.923321,232.152403 C248.088664,226.04114 250.057406,220.129395 251.436344,213.43051 C252.222749,208.305904 252.222749,203.378084 251.829546,197.857175 C251.043142,191.155558 249.271001,185.640115 246.316523,178.34541 C242.971574,169.276908 239.227961,163.958251 234.697943,155.682354 C229.974055,148.781219 225.444038,141.885549 220.717419,134.987147 C217.369739,128.679099 213.432255,123.751278 210.281176,116.262521 C207.52603,108.380195 205.75389,101.085489 204.967485,92.2165053 C204.374951,82.7571666 204.768153,75.4651944 206.147092,65.412768 C207.919232,57.1341385 209.887974,49.4485966 213.238385,40.7763974 C217.369739,32.8940707 220.520818,25.9956682 225.640639,17.5202538" id="Fill-10" fill="#D8232A"></path>
                </g>
            </g>
        </g>
    </g>
</svg>