<?xml version="1.0" encoding="UTF-8"?>
<svg width="512px" height="512px" viewBox="0 0 512 512" version="1.1" xmlns="http://www.w3.org/2000/svg" xmlns:xlink="http://www.w3.org/1999/xlink">
    <!-- Generator: Sketch 48.1 (47250) - http://www.bohemiancoding.com/sketch -->
    <title>#UTX</title>
    <desc>Created with Sketch.</desc>
    <defs></defs>
    <g id="Компании-BIG" stroke="none" stroke-width="1" fill="none" fill-rule="evenodd">
        <g id="#UTX" fill="#3370A4" fill-rule="nonzero">
            <g id="united-technologies">
                <path d="M355.639064,240 L508,206.268679 C506.970677,200.836199 505.756946,195.440742 504.360936,190.091774 L351.660666,223.881962 C353.415842,229.144755 354.691269,234.501736 355.639064,240 Z M349.390639,217.877434 L485.369937,140.089358 C482.80914,135.151605 480.124816,130.279712 477.319532,125.47834 L341.726373,203.101585 C344.663366,207.787472 347.29613,212.673509 349.390639,217.877434 Z M318.815482,177.611774 L397.985599,41.8387925 C391.738007,37.5874656 385.265527,33.6807298 378.59676,30.1358491 L299.414941,165.767547 C306.377138,168.946415 312.894689,172.914113 318.815482,177.611774 Z M337.432043,196.732075 L447.657066,84.765283 C443.10513,79.6877767 438.370815,74.7788591 433.463546,70.0483019 L323.683168,181.67366 C328.784878,186.206491 333.348335,191.233811 337.432043,196.732075 Z M296.758776,164.425358 L336.870387,12.1811321 C329.347404,9.7957171 321.72695,7.73347448 314.029703,6 L274,157.96166 C281.799501,159.267147 289.431971,161.434837 296.758776,164.425358 Z" id="Shape"></path>
                <path d="M355.23265,255.952922 C355.23265,310.810905 310.816803,355.241046 256.047063,355.241046 C201.277323,355.241046 156.861476,310.810905 156.861476,255.952922 C156.87447,201.165798 201.277564,156.758952 256.047063,156.758954 C259.694457,156.758954 263.388914,157.053193 267.071606,157.394511 L266.895119,156.758954 L266.895119,0.188313181 C263.235959,0.0941565905 259.647394,0 256.047063,0 C251.529001,0 247.081533,0.0941565905 242.716426,0.329548067 L242.716426,156.758954 L202.159757,5.74355202 C193.123633,7.61491426 184.275761,10.0747552 175.616141,12.922992 L213.666697,154.393269 L140.248185,27.670268 C131.023807,32.2957105 122.058277,37.4978622 113.563379,43.2414142 L182.181451,161.572709 L84.6666054,65.8036872 C76.7011674,72.9831272 69.2769556,80.6333502 62.2527806,88.7072778 L156.861476,179.744931 L42.1568159,115.259436 C36.0939889,124.468784 30.6198037,134.052674 25.7670742,143.953657 L132.612189,206.403016 L13.4600607,174.201462 C9.83831825,184.978224 6.91821177,195.978342 4.71808071,207.13273 L116.94016,236.67436 L0.717713025,237.804239 C0.295047459,243.841218 0.0556995319,249.889642 0,255.941152 C0,262.08487 0.352973619,268.181509 0.717713025,274.172222 L113.292766,274.172222 L4.55335968,303.737391 C6.890532,316.149584 10.1669255,328.366241 14.3542605,340.281918 L114.469345,315.224495 L25.0728927,366.528068 C30.7675338,378.297641 37.3210773,389.631741 44.5923339,400.247897 L127.741153,353.993472 L60.0525784,420.609259 C69.2319828,431.547219 79.3112896,441.696697 90.1847596,450.951221 L153.178785,391.503103 L109.515948,465.910349 C121.288879,474.11876 133.720675,481.33853 146.68407,487.495747 L188.252597,420.491564 L168.603732,496.652476 C182.767807,501.769882 197.354907,505.62952 212.195974,508.186658 L231.774244,441.041239 L233.021417,510.940738 C240.622116,511.588065 248.281644,512 256.070595,512 C264.624322,512 273.107455,511.588065 281.496461,510.646499 L281.496461,444.736886 L302.416031,507.751184 C318.701231,504.779861 334.657017,500.222977 350.055704,494.145557 L334.666054,433.873569 L368.869198,485.824468 C384.975384,477.829581 400.214271,468.194242 414.343965,457.071399 L384.258847,408.474829 L428.321721,445.184129 C442.340172,432.494849 454.86189,418.243455 465.642798,402.707738 L426.59215,366.116133 L475.078959,388.501862 C485.776181,370.840706 494.290233,351.945677 500.434231,332.23153 L459.289273,311.611236 L504.799338,316.095444 C509.568007,296.395208 511.985096,276.198914 512,255.929383 L355.23265,255.929383 L355.23265,255.952922 Z" id="Shape"></path>
            </g>
        </g>
    </g>
</svg>