<?xml version="1.0" encoding="UTF-8"?>
<svg width="512px" height="512px" viewBox="0 0 512 512" version="1.1" xmlns="http://www.w3.org/2000/svg" xmlns:xlink="http://www.w3.org/1999/xlink">
    <!-- Generator: Sketch 48.1 (47250) - http://www.bohemiancoding.com/sketch -->
    <title>#VOW</title>
    <desc>Created with Sketch.</desc>
    <defs></defs>
    <g id="Компании-BIG" stroke="none" stroke-width="1" fill="none" fill-rule="evenodd">
        <g id="#VOW">
            <g id="Group-2">
                <g id="volkswagen-3-(1)" fill-rule="nonzero">
                    <path d="M255.716969,0.82047205 C396.008149,0.82047205 510.403578,115.222261 510.403578,255.716969 C510.403578,395.795081 396.004969,510.406758 255.716969,510.406758 C115.428969,510.406758 0.82047205,395.795081 0.82047205,255.716969 C0.817291925,115.219081 115.428969,0.82047205 255.716969,0.82047205 Z" id="Shape" fill="#295CA7"></path>
                    <path d="M255.716969,33.178236 C378.049988,33.178236 478.052174,133.174062 478.052174,255.720149 C478.052174,378.056348 378.053168,477.842286 255.716969,477.842286 C133.38077,477.842286 33.3881242,378.053168 33.3881242,255.716969 C33.3881242,133.174062 133.38077,33.178236 255.716969,33.178236 Z M106.868075,136.096596 L186.61605,342.979578 L215.841391,267.407106 L292.456944,267.407106 L321.679106,342.979578 L402.263453,133.590658 C388.043922,116.435174 370.948147,101.884342 351.74082,90.5890186 L295.796075,244.653317 L216.881292,244.653317 L160.729839,89.959354 C140.062211,101.859379 121.900522,117.518311 106.868075,136.096596 Z M434.417689,188.078907 L343.602882,425.023602 C404.565863,393.082435 446.521242,329.20328 446.521242,255.720149 C446.521242,231.920099 442.348919,209.16313 434.417689,188.078907 Z M303.937193,440.469466 L303.317068,435.667478 L254.044224,307.905988 L204.777739,435.667478 L204.571031,439.636273 C220.853267,444.225193 237.971876,446.524422 255.716969,446.524422 C272.415801,446.524422 288.491329,444.438261 303.937193,440.469466 Z M164.068969,422.934261 L75.5565714,192.25441 C68.4585342,212.085665 64.6996273,233.379776 64.6996273,255.716969 C64.6996273,327.530534 104.781913,390.573317 164.068969,422.934261 Z" id="Shape" fill="#FFFFFF"></path>
                </g>
                <path d="M254.557192,64.693284 C271.162529,64.693284 287.562315,66.7948162 303.133574,70.9914832 L255.180169,205.169675 L207.018051,70.7835691 C222.544496,66.7199828 238.519437,64.6734179 254.557192,64.693284 Z" id="Path" fill="#295CA7"></path>
            </g>
        </g>
    </g>
</svg>