<?xml version="1.0" encoding="UTF-8"?>
<svg width="512px" height="512px" viewBox="0 0 512 512" version="1.1" xmlns="http://www.w3.org/2000/svg" xmlns:xlink="http://www.w3.org/1999/xlink">
    <!-- Generator: Sketch 48.1 (47250) - http://www.bohemiancoding.com/sketch -->
    <title>#VTBR</title>
    <desc>Created with Sketch.</desc>
    <defs></defs>
    <g id="Компании-BIG" stroke="none" stroke-width="1" fill="none" fill-rule="evenodd">
        <g id="#VTBR" fill="#30417E" fill-rule="nonzero">
            <g id="vtb-bank" transform="translate(0.000000, 152.000000)">
                <path d="M341.900521,144.079631 L341.900521,90.9014724 L304.74131,90.9014724 L304.74131,65.9031925 L411.649265,65.9031925 L407.475652,78.2887039 L403.302038,90.6742153 L387.102888,90.794207 L370.902378,90.9132897 L370.902378,197.25779 L341.900068,197.25779 L341.900068,144.079631 L341.900521,144.079631 Z M210.4838,131.325963 L210.4838,65.8486508 L239.14624,66.032729 C270.032795,66.2308972 269.730083,66.2090805 276.774473,68.7734495 C281.512725,70.4983308 284.702526,72.6218211 288.950911,76.8792554 C292.210046,80.1426672 293.225127,81.5289355 294.946233,85.0605106 C297.661574,90.6305819 298.615478,95.3793461 298.263372,101.57392 C297.662027,112.157737 292.571669,121.010764 284.351326,125.771346 L281.963167,127.153978 L285.684979,129.095662 C290.177165,131.439592 295.738812,136.501971 298.312314,140.588508 C303.188327,148.332521 304.603549,159.527205 302.011921,169.860585 C301.524319,171.804996 300.185682,175.311119 299.036012,177.652321 C297.323969,181.140263 296.276261,182.576073 293.228752,185.606319 C288.973569,189.837846 285.928327,191.794075 280.35082,193.880296 C272.887257,196.671922 271.036547,196.802822 239.180227,196.802822 L210.4838,196.802822 L210.4838,131.325963 Z M262.708352,170.745978 C265.533358,169.35971 267.088607,167.756639 268.687359,164.581857 C272.617173,156.778758 270.2988,146.416289 263.888383,143.136514 C261.382402,141.853875 255.891449,141.299368 247.189397,141.450267 L239.712238,141.580258 L239.592604,156.349242 C239.526895,164.47141 239.580822,171.399115 239.712238,171.743637 C239.909363,172.256329 241.768683,172.336323 250.046577,172.187697 C259.98576,172.009528 260.180619,171.987711 262.707899,170.746887 L262.708352,170.745978 Z M260.456141,115.867027 C267.481498,113.482646 270.360883,102.494311 265.601332,96.2356508 C262.585998,92.2713781 259.148318,91.3564411 247.266434,91.3564411 L239.485658,91.3564411 L239.485658,116.9215 L249.115331,116.685153 C255.116544,116.537436 259.3894,116.22973 260.455688,115.867936 L260.456141,115.867027 Z M418.938362,131.126432 L418.938362,65.4491328 L462.668408,65.4491328 C486.72084,65.4491328 506.400721,65.6036676 506.40208,65.7900185 C506.40344,65.9786418 504.533244,71.6032548 502.245687,78.2891584 L498.086574,90.4474127 L448.39338,90.4474127 L448.39338,114.870278 L461.421762,115.12026 C470.08303,115.286158 475.826394,115.606591 478.555784,116.077922 C493.012982,118.571841 502.537069,125.054577 508.010349,136.126542 C511.339271,142.861079 511.998167,146.089493 511.999979,155.670652 C512.001792,163.041054 511.885783,164.283696 510.83309,168.201608 C506.494072,184.349133 494.376091,194.022558 475.595282,196.332854 C473.341259,196.610108 460.84806,196.805549 445.346778,196.805549 L418.938362,196.805549 L418.938362,131.12825 L418.938362,131.126432 Z M466.848366,171.350937 C473.866472,170.437363 477.76819,166.781251 479.211961,159.76537 C480.754974,152.268159 477.920452,144.82458 472.474815,142.07386 C469.143174,140.391249 466.161374,139.990367 456.982143,139.990367 L448.39474,139.990367 L448.39474,171.80636 L455.985188,171.792724 C460.158802,171.784998 465.048411,171.58683 466.84746,171.351846 L466.848366,171.350937 Z M44.6155068,130.590105 C38.7864955,126.613106 27.2367784,115.556594 21.6320819,108.587074 C13.0990583,97.9773491 6.07052952,85.1114162 1.58332826,71.8850536 C-0.632629547,65.3536848 -0.644411736,65.5945774 2.32515299,57.2687866 C6.3900081,45.8741161 13.5454219,32.9868211 21.2536923,23.1802232 C25.1264071,18.2523804 36.4558879,7.03951561 41.3876402,3.25295798 L45.6246966,0 L160.564479,0 L159.422513,3.74974198 C158.795338,5.81323636 157.675577,9.08573845 156.934659,11.0219689 L155.587411,14.5444537 L49.6591899,14.5444537 L47.0299492,16.7715732 C45.6164437,17.9676658 44.2113077,19.173673 42.8146446,20.3895061 L41.2285807,21.7803195 L96.6275258,21.7985 C127.098078,21.8089539 152.026471,21.9084925 152.026471,22.0198485 C152.026471,22.3761876 148.804495,27.8149042 146.02118,32.1555147 L143.326231,36.3579528 L85.9664576,36.4733994 L28.6062313,36.588846 L26.4414807,39.7704452 C25.2505733,41.5203248 24.2676669,43.2083905 24.2563378,43.5201872 C24.2404772,43.9724288 35.786569,44.0883299 80.5312433,44.0883299 L136.825182,44.0883299 L133.210769,47.7562594 C131.221391,49.7733933 127.739755,52.9436297 125.472136,54.8012291 L121.34837,58.1782695 L16.6160416,58.1782695 L15.2656215,61.9261934 L13.9165609,65.6736628 L15.2715126,69.5224889 C21.2011257,86.3731476 31.77564,102.222512 44.7442045,113.701267 L48.2593752,116.811508 L94.9317969,116.811508 C120.602014,116.811508 141.604672,116.745149 141.604672,116.662882 C141.604672,116.192459 138.993557,110.192872 137.438309,107.090813 C133.194002,98.6232138 127.747005,91.0846416 120.900647,84.2023879 L116.720689,80.0004043 L72.1776715,79.8849577 L27.635107,79.7690566 L25.5958821,75.6584303 C24.4747615,73.3972223 23.1066681,70.2778915 22.5560774,68.7270891 L21.5545913,65.9068286 L121.614376,65.9068286 L128.255905,72.3672931 C141.035048,84.7964379 149.84586,97.7146399 155.422913,112.198643 C157.170756,116.737876 159.445624,125.163206 159.951352,128.970216 L160.268565,131.356416 L103.000784,131.356416 C50.0896929,131.356416 45.6487141,131.298238 44.6141473,130.592832 L44.6155068,130.590105 Z" id="Shape"></path>
            </g>
        </g>
    </g>
</svg>