<?xml version="1.0" encoding="utf-8"?>
<!-- Generator: Adobe Illustrator 16.0.0, SVG Export Plug-In . SVG Version: 6.00 Build 0)  -->
<!DOCTYPE svg PUBLIC "-//W3C//DTD SVG 1.1//EN" "http://www.w3.org/Graphics/SVG/1.1/DTD/svg11.dtd">
<svg version="1.1" id="Слой_1" xmlns="http://www.w3.org/2000/svg" xmlns:xlink="http://www.w3.org/1999/xlink" x="0px" y="0px"
	 width="200px" height="200px" viewBox="0 0 200 200" enable-background="new 0 0 200 200" xml:space="preserve">
<g>
	<path fill="#76BF6D" d="M67.401,126.512c-6.734-3.847-21.159-13.468-27.895-31.739C28.93,66.879,37.586,29.369,66.441,13.02
		c18.273-10.581,41.355-9.618,59.633,0c21.158,11.542,33.66,33.662,33.66,56.746c0,1.924-0.963,38.472-31.74,55.785
		C99.138,141.898,69.323,127.475,67.401,126.512z"/>
	<path fill="#FFFFFF" d="M78.942,95.733c0.964-2.886,1.923-3.846,2.884-5.771c0.963-0.962,0.963-2.888,1.927-4.81
		c0.961-0.961,0.961-1.923,0.961-1.923c0-0.962-1.923-0.962-5.772,0h-7.693l-4.808,9.617c-2.888,4.808-4.812,9.62-3.848,9.62
		c0,0,3.848,0.961,6.73,0.961h5.775C77.018,100.542,77.979,97.657,78.942,95.733z"/>
	<path fill="#1A1C4B" d="M116.455,82.269c0,0,0.961,0,2.883,0c1.924,0,2.889,0,2.889,0c1.92,0,2.883,0,2.883,0
		c0.966,0,1.925-0.961,2.886-2.886c0.961-0.962,0.961-2.886,1.922-3.847c0.965-1.924,0.965-2.885,0.965-2.885
		c-0.965-0.962-1.926,0-8.653,0c-1.929,0-2.89,0-4.812,0c-2.888,0-2.888,0-2.888,0C111.643,73.612,113.568,80.345,116.455,82.269z"
		/>
	<path fill="#1A1C4B" d="M111.643,66.879c0.965,0,0.965,0,4.813,0c4.808,0,4.808,0,5.771,0c1.92,0,3.849,0,7.691,0
		c1.924,0,2.885,0,3.848,0c0.965,0,0.965-0.962,2.885-3.847c1.925-2.886,1.925-4.81,1.925-4.81c0-0.962-0.962,0-4.81,0
		c-1.922,0-0.963,0-3.848,0s-4.809,0-6.73,0c-1.926,0-3.85,0-8.658,0c-5.771,0-6.731,0-7.694,0.962c-0.959,0.962,0,2.886,0,3.848
		C106.834,62.071,108.758,64.957,111.643,66.879z"/>
	<path fill="#FFFFFF" d="M128.955,102.468c0,0-5.768-12.505-12.5-27.895c-6.732-15.388-14.43-30.777-16.353-34.625
		c-0.965-1.924-1.924-7.694-3.845-7.694c-0.963,0-1.927,0.962-3.847,4.809c-2.888,4.81-2.888,5.771-6.736,13.466
		c-0.96,1.924-1.92,4.809-0.96,5.771c0,0,0,0,1.923,0c0,0,0.961,0,3.845,0c1.927,0,1.927,0,2.888,0s0.961,0,1.924,0
		c0.963,2.886,1.922,5.772,2.884,7.695c0.96,0.962,0.96,2.885,1.923,4.809c0.963,1.923,0.963,2.886,1.922,3.848
		c1.925,2.884,2.89,6.731,3.851,9.618c1.92,4.807,4.808,11.541,5.769,14.424l2.887,5.775h7.697
		C125.109,103.43,128.955,103.43,128.955,102.468z"/>
	<path fill="#FFFFFF" d="M88.562,71.688c0-0.962,0.961-1.924,0.961-2.886c0.96-1.923,0.96-1.923,0.96-1.923s-0.96,0-1.92,0
		c-0.963,0-0.963,0-2.888,0c-1.92,0-2.884,0.962-3.847,0c-0.961,0-0.961-0.962-0.961,0c-0.96,0-0.96,0.962-1.923,2.886
		c-0.964,2.886-1.924,2.886-0.964,3.847c0,0,0.964,0,2.888-0.961c0.961,0,0.961,0,2.888,0c1.92,0,1.92,0,2.884,0
		c0.963,0,1.924,0.961,2.885,0C88.562,72.651,88.562,72.651,88.562,71.688z"/>
	<path fill="#1A1C4B" d="M58.746,66.879c0.96,0.962,2.885,0.962,6.732,0.962c1.923,0,3.845,0,6.732,0c1.924,0,1.924,0,5.769,0
		c1.928,0,1.928,0,7.695,0c4.808,0,5.772,0,6.736,0h0.96c1.924,0,1.924,0,2.888,0c0.959,0-0.963,0,0.959,0c0.961,0,0.961,0,0.961,0
		s0-0.962,0-1.924c0-0.961,0,0,0-0.961c0-0.962,0-0.962-0.961-1.923c-0.959-1.924-0.959-1.924-0.959-2.886s-0.963-1.924-0.963-1.924
		c-0.963-0.962-1.923-0.962-3.848-0.962c-1.923,0-3.847,0-6.731,0c-2.888,0-4.809,0-5.772,0c-4.809,0-9.62,0-13.464,0
		c-1.924,0-2.885,0-4.811,0c-0.961,0-1.921,0-2.885,0c-1.923,0-1.923,0-1.923,0c0,0.962,0,0.962,0,2.886
		c0,0.961,0,0.961,0.964,2.886c0.96,1.923,0.96,1.923,0.96,2.884C57.782,65.917,57.782,66.879,58.746,66.879z"/>
	<path fill="#1A1C4B" d="M64.514,78.421c1.927,1.924,1.927,2.887,2.887,2.887c0.96,0.961,1.921,1.923,2.885,1.923
		c0.964,0.962,1.924,0.962,4.812,0.962c1.92,0,4.809,0,6.729,0c2.888,0,1.927,0,5.772,0c4.811,0,4.811,0,8.658,0
		c1.921,0,2.881,0,4.808,0c0.961,0,1.922,0,2.886,0c1.926,0,2.885,0,2.885,0s0-0.962-0.959-1.924c0-0.961-0.963-1.924-0.963-1.924
		c0-0.962-0.965-1.924-0.965-2.885c0,0,0-0.962-0.964-1.924c0,0,0-0.963-0.961-0.963s-0.961,0-1.922,0c-0.964,0-1.923,0-2.885,0
		c-0.959,0-1.922,0-3.847,0c-0.96,0-1.924,0-4.808,0c-1.924,0-2.888,0-3.848,0c-2.888,0-3.848,0-6.736,0c-0.96,0-1.92,0-2.881,0
		c-0.963,0-1.927,0-3.847,0c-1.926,0-2.888,0-4.808,0c-3.848,0-3.848,0-4.811,0.963C62.593,74.573,63.554,75.536,64.514,78.421z"/>
</g>
<text transform="matrix(1 0 0 1 0.978 187.876)" fill="#1C354B" font-family="'Tahoma'" font-size="52.3094">Adv</text>
<text transform="matrix(1 0 0 1 87.1572 187.2256)" fill="#549366" font-family="'Tahoma'" font-size="50.3985">Cash</text>
</svg>
