<?xml version="1.0" encoding="utf-8"?>
<!-- Generator: Adobe Illustrator 23.0.1, SVG Export Plug-In . SVG Version: 6.00 Build 0)  -->
<svg version="1.1" id="Layer_1" xmlns="http://www.w3.org/2000/svg" xmlns:xlink="http://www.w3.org/1999/xlink" x="0px" y="0px"
	 viewBox="0 0 457.16 792" xml:space="preserve">
<path fill="#4C6E8F" d="M380.78,340.98c-0.14-0.06-0.23-0.09-0.28-0.1c-0.98-0.4-2-0.68-3.05-0.81c0.02,0.1,0.07,0.15,0.17,0.15
	c-1.92,0.3-3.15,1.84-4.84,2.6c-1.91,0.87-4.04,0.26-6.06,0.51c-2.24,0.28-4.44,1.44-6.64,1.98c-2.27,0.56-4.18,1.64-6.37,2.38
	c-1.54,0.52-4.13,0.54-5.08-1.03c-0.27-0.45,0.14-0.99,0.08-1.49c-0.09-0.88-0.52-1.85-0.97-2.62c-1.18-2-3.57-3.23-5.28-4.77
	c-1.72-1.55-3.36-3.2-5.31-4.49c-2.1-1.38-4-2.35-5.49-4.41c-1.18-1.64-2.11-3.44-3.44-4.98c-1.58-1.83-3.95-2.77-5.51-4.57
	c-1.23-1.42-1.39-3.28-2.4-4.8c-1.01-1.51-2.84-2.04-4.09-3.29c-0.75-0.75-0.57-2.16-0.65-3.1c-0.49-5.6-5.01-8.59-8.07-12.89
	c-1.07-1.5-0.61-3.08-0.91-4.77c-0.33-1.9-1.67-3.16-3.2-4.3c-1.77-1.32-3.42-2.47-4.64-4.32c-1.4-2.13-2.47-4.44-3.54-6.74
	c1.93-1.34,4.65-1.38,4.84-4.22c0.17-2.5-0.99-5.35-2.01-7.6c-1.82-4.01-5.1-4.5-9.19-5.36c-3.17-0.66-5.19-1.85-8.34-0.35
	c-2.72,1.3-4.88,2.23-8,1.83c-3.03-0.39-5.93-1.41-8.87-2.17c-1.29-0.33-2.51-0.56-3.68-1.2c-1.08-0.59-2.13-1.35-3.39-1.53
	c-1.39-1.16-4.66-0.42-6.72-0.61c-0.03-0.18-0.33-1.16-0.34-1.32c-0.1,0.05-0.22,0.07-0.34,0.04c0.01-0.66-0.27-1.24-0.37-1.73
	c-3.26-1.26-8.34-0.36-10.06,2.83c-0.96,1.78,0.16,3.87-0.81,5.57c-1.4,2.44-4.4,1.49-6.54,0.81c-1.42-1.53-5.23-2.16-6.86-1.14
	c-0.41,0.03-1.35-0.2-1.96-0.57c0.05-0.35,0.06-1.35-0.12-1.65c-0.01-0.01-0.72-0.94-0.73-0.52c0.01-0.25,0.02-0.49,0.03-0.74
	c0-0.09-0.98-0.51-1.09-0.58c-0.32-0.17-0.64-0.31-0.97-0.45c-0.71-0.3-1.4-0.66-2.06-1.06c-0.76-0.15-1.42-0.47-2.14-0.72
	c-0.78-0.28-1.58-0.45-2.38-0.63c-0.91-0.21-1.83-0.42-2.74-0.63c-1.47-0.41-2.93-0.91-4.41-1.25c-1.13-0.26-2.22-0.22-3.32-0.68
	c-0.15-0.15-0.44-0.4-0.87-0.69c-0.8-0.54-0.89-1.38-0.75-2.24c0-0.54,0.19-1.12,0.43-1.6c0.19-0.38,0.46-0.68,0.44-1.13
	c-0.04-0.83-0.79-1.51-1.27-2.14c-0.51-0.66-0.82-1.63-1.11-2.39c0.6-0.7,0.81-1.5,0.76-2.54c0,0.09,0.1,0.15,0.09,0.14
	c-0.15-0.46-0.16-0.44-0.61-0.73c-0.17-0.98-2.32-2.79-4-2.56c-0.59-0.54-0.23-0.36-1.18-0.46c-0.68-0.59-0.9-0.53-1.85-0.79
	c-0.57-0.33-1.3-0.46-2.31-0.12c-0.89-0.38-2.1,0.26-2.01,0.33c-0.98,1.25-2.64,2.27-4.31,1.62c-0.57-0.03-0.93-0.01-1.49,0.02
	c-0.63-0.92-1.84-1.21-3.04-0.92c-1.76-1.33-2.65,0.74-4.29,0.98c-2.31,0.33-4.47-1.21-6.82-0.66c-0.07-0.14-0.07-0.29,0-0.43
	c-3.05-0.16-9.25,2.42-11.53,4.26c-1.45,0.08-3.74,0.44-5.44,1.22c-0.02-0.15-0.08-0.27-0.19-0.38c-0.95,0.35-1.79,0.31-2.69,0.83
	c-0.97-0.22-2.06,0.02-2.94,0.6c-0.44,0.02-1.42,0.03-1.98-0.19c-0.67,0.05-2.49-0.12-2.83-0.19c0.12-0.18-0.68-0.31-0.98-0.31
	c-0.04-0.72,0.02-0.52-0.6-1.34c0.04,0.04,0.08,0.09,0.12,0.14c0.16-2.31-2.75-2.91-4.59-2.25c-1.58,0.57-1.92,2.62-2.66,3.89
	c-2.08,3.53-5.52,4.48-9.11,6.09c-3.85,1.72-7.16,4.53-8.27,8.57c-0.5,1.84-0.31,3.7-1.27,5.41c-1.05,1.88-2.66,3.48-4.31,4.89
	c-1.71,1.47-3.43,2.75-5.63,3.46c-2.29,0.73-4.24,1.48-5.68,3.44c-1.28,1.75-2.61,3.21-4.44,4.46c-1.68,1.15-3.46,2.18-4.79,3.72
	c-1.35,1.57-2.21,3.51-3.46,5.17c-1.34,1.77-2.79,3.45-4.19,5.17c-2.49,3.07-5.46,6.69-5.63,10.75c3.66,0.8,1.29,5.06,1.1,7.36
	c-0.14,1.7,0.16,3.39,0.14,5.09c-0.02,1.61-0.46,3.2-1.01,4.72c-1.09,3.01-2.54,6.3-4.42,8.95c-0.95,1.35-1.77,2.6-1.28,4.28
	c0.5,1.72,1.15,3.23,1.42,5.02c0.51,3.32,1.65,6.44,3.99,8.99c2.5,2.73,5.41,5.08,7.73,7.97c2.39,2.98,3.18,6.43,4.89,9.73
	c0.89,1.71,2.09,3.24,3.68,4.4c1.39,1.01,2.97,1.79,4.14,3.05c1.77,1.89,2.74,4.29,4.7,6.04c1.59,1.42,3.49,2.5,5.68,2.74
	c2.31,0.25,4.61-0.36,6.78-1.05c2.38-0.76,4.87-1.21,7.36-1.46c2.78-0.27,5.61-0.27,8.38,0.16c2.38,0.36,4.72,1.05,7.14,1.15
	c3,0.13,5.26-1.22,8.03-2.01c2.4-0.68,4.9-0.83,7.37-1.15c2.89-0.38,4.82-1.29,7.33-2.62c1.78-0.95,3.8-1.18,5.4,0.2
	c1.58,1.37,3.06,2.9,4.51,4.4c1.26,1.3,2.69,2.99,4.49,3.6c2.68,0.91,5.6-0.03,8.31,0.72c1.94,0.53,3.7,1.92,5.13,3.24
	c1.59,1.47,2.35,2.84,2.18,4.98c-0.17,2.06-0.8,4.2-0.36,6.26c-1.07,2.64-2.92,5.43-2.43,8.38c0.53,3.18,3.55,5.74,5.74,7.98
	c4.74,4.86,8.77,10.39,12.11,16.2c0.84,1.46,1.8,2.87,2.38,4.44c0.59,1.59,0.24,3.28,0.19,4.91c-0.07,2.72,1.49,4.83,2.71,7.17
	c3.06,5.88-2.8,10.05-3.32,15.71h-0.32c-1.35,2.89-2.55,5.86-3.26,8.96c-1.12,4.89-0.73,9.86,1.49,14.42
	c2.3,4.73,6.5,8.06,9.25,12.49c1.46,2.35,1.82,4.88,2.06,7.56c0.24,2.63,0.93,4.85,1.68,7.37c0.74,2.48,0.52,5.08,1.09,7.59
	c0.6,2.68,2.36,4.91,3.91,7.16c1.76,2.55,3.58,5.06,5.43,7.55c1.07,1.44,2.51,2.59,3.51,4.08c1.19,1.75,0.38,3.08-0.17,4.85
	c-0.53,1.69,0.6,3.19,1.68,4.43c2.2,2.52,6.04,5.93,9.75,5.83c5.55-0.16,10.26-3.21,15.96-2.53c2.82,0.34,5-0.07,7.41-1.56
	c2-1.24,3.95-2.29,6.17-3.12c2.34-0.88,4.74-1.67,6.89-2.95c2.15-1.29,3.76-3.15,5.34-5.02c1.84-2.17,3.55-4.44,5.39-6.61
	c1.56-1.85,3.53-3.52,4.76-5.59c1.38-2.33,0.77-4.78,1.18-7.29c0.33-2.03,1.34-4.31,2.78-5.84c1.67-1.77,4.36-1.93,6.24-3.41
	c1.63-1.28,2.49-3.29,2.88-5.23c0.86-4.23-0.57-8.38-0.11-12.59c0.39-3.59,3.33-5.68,6.02-7.85c4.19-3.38,8.41-6.84,13.22-9.4
	c3.64-1.94,7.79-3.71,9.85-7.39c2.66-4.74,0.97-10.51,1.57-15.62c0.3-2.49,1.64-5.36-0.12-7.63c-1.11-1.43-2.96-2.07-4.06-3.49
	c-1.79-2.33-0.27-5.01-0.57-7.58c-0.24-2.1-1.91-3.56-2.68-5.45c-1.44-3.5,1.74-7.78,3.73-10.49c2.75-3.74,6.44-6.63,9.44-10.16
	c1.65-1.94,2.61-4.25,4.14-6.25c1.4-1.83,3.33-3.13,4.95-4.77c3.79-3.81,6.79-7.91,11.22-11.15h-0.64c3.5-0.29,4.28-4.97,5.15-7.49
	c0.62-1.78,1.62-3.07,2.89-4.5c1.84-2.06,2.41-4.04,2.94-6.65c0.95-4.75,5.48-8,6.38-12.72c0.54-2.79-0.71-7.53,2.65-9.04
	C382.3,342.07,381.49,341.78,380.78,340.98z"/>
<path fill="#4C6E8F" d="M377.7,463.9c-0.57-0.79-0.24-1.8-0.18-2.67c0.21-2.96-1.23-7.22-3.77-9.03l-0.96,0.92
	c-5.19,1.9-1.48,4.23-4.15,6.75c-0.17-0.25-0.5-0.61-0.7-0.9c-2.04,0.74-2.91,2.61-4,4.26c-1.46,2.21-3.62,4.01-6.01,5.26
	c-3.23,1.68-7.98,1.65-9.89,5.12c-0.52,0.96-0.23,1.32-0.17,2.3c0.05,0.97-1.18,0.99-1.52,1.72c-1.22,2.59-1.04,4.52-0.17,7.15
	c1.5,4.5-2.14,7.02-4.33,10.49c-1.15,1.82-1.23,3.21-0.35,5.11c0.96,2.05-0.43,4.7-0.64,6.83c-0.22,2.27,0.62,4.44,2.76,5.63
	c1.99,1.11,4.15,0.2,6.08-0.53c1.97-0.74,3.68-0.99,5.77-0.78c2.35,0.24,3.53-1.04,4.34-3.07c0.91-2.29,1.55-4.36,3.09-6.37
	c1.66-2.17,3.33-4.22,4.12-6.85c0.58-1.93,0.96-3.88,1.8-5.74c0.9-1.97,1.97-3.87,2.84-5.86c1.81-4.09,2.01-8.45,2.56-12.8
	c0.81-1.23,2.2-1.57,3.34-0.58c1.29-1.27,2.15-2.79,1.6-4.6C378.94,464.89,378.15,464.53,377.7,463.9z"/>
<path fill="#4C6E8F" d="M381.93,5.13H77.07c-39.84,0-72.13,32.04-72.13,71.56v639.36c0,39.52,32.3,71.56,72.13,71.56h304.86
	c39.84,0,72.13-32.04,72.13-71.56V76.69C454.07,37.17,421.77,5.13,381.93,5.13z M160.52,49.44c0-2.06,1.68-3.73,3.76-3.73h130.46
	c2.08,0,3.76,1.67,3.76,3.73v0.08c0,2.06-1.68,3.73-3.76,3.73H164.27c-2.08,0-3.76-1.67-3.76-3.73V49.44z M229.5,762.86
	c-20.09,0-36.37-16.15-36.37-36.08c0-19.93,16.28-36.08,36.37-36.08c20.09,0,36.37,16.15,36.37,36.08
	C265.87,746.71,249.59,762.86,229.5,762.86z M414.88,656.43c0,6.87-5.62,12.44-12.54,12.44H56.66c-6.93,0-12.54-5.57-12.54-12.44
	V95.37c0-6.87,5.62-12.44,12.54-12.44h345.68c6.93,0,12.54,5.57,12.54,12.44V656.43z"/>
</svg>
