<svg width="512" height="805" viewBox="0 0 512 805" version="1.1" xmlns="http://www.w3.org/2000/svg" xmlns:xlink="http://www.w3.org/1999/xlink">
<g id="Canvas" fill="none">
<g id="Subtract">
<path fill-rule="evenodd" clip-rule="evenodd" d="M 18.6868 4.29167C 17.9043 2.14779 16.9717 0 14.0033 0C 11.0286 0 10.0641 2.17969 9.3099 4.29167C 9.09603 4.89648 6.67773 11.5768 4.51042 17.5645C 2.75814 22.4056 1.1696 26.7936 1.04264 27.1504C 0.962565 27.3724 1.06771 27.6367 1.29818 27.7279L 5.79785 29.4883C 5.95996 29.554 6.12272 29.5072 6.23405 29.4023C 6.28548 29.3542 6.32585 29.2936 6.35026 29.2259L 6.75716 28.0983C 7.28809 26.627 8.16178 24.207 8.28874 23.8411L 19.721 23.8411C 19.9079 24.36 21.5716 29.0052 21.6549 29.2259C 21.735 29.4492 21.9837 29.5742 22.2054 29.4883C 22.4274 29.4043 26.4349 27.832 26.7087 27.7279C 26.9805 27.6217 27.0225 27.3288 26.9606 27.1504C 26.7288 26.5111 19.0153 5.20247 18.6868 4.29167ZM 10.1126 18.6641L 13.9766 6.95768L 14.0267 6.95768L 17.9043 18.6641L 10.1126 18.6641Z" transform="scale(18.2857)" fill="#EE2A23"/>
<path fill-rule="nonzero" clip-rule="nonzero" d="M 0 38.5755C 0 38.3294 0.191732 38.1276 0.432292 38.1276L 27.5628 38.1276C 27.8083 38.1276 28 38.3294 28 38.5755L 28 43.5553C 28 43.8014 27.8083 44 27.5628 44L 0.432292 44C 0.191732 44 0 43.8014 0 43.5553L 0 38.5755Z" transform="scale(18.2857)" fill="#EE2A23"/>
</g>
</g>
</svg>

