<svg width="512" height="151" viewBox="0 0 512 151" version="1.1" xmlns="http://www.w3.org/2000/svg" xmlns:xlink="http://www.w3.org/1999/xlink">
<g id="Canvas" fill="none">
<g id="logo2">
<g id="Vector">
<path d="M 3.33112 5.37009C 3.73797 4.12574 4.13635 2.89004 4.54321 1.65433C 4.66187 1.30004 4.78901 0.945744 4.88225 0.591451C 4.99244 0.168028 5.20435 -0.0307211 5.67053 0.0038441C 6.39948 0.0556919 6.39948 0.029769 6.13672 0.712431C 5.34844 2.74314 4.64492 4.8084 3.78883 6.81318C 3.3735 7.78101 2.90731 8.71427 2.08513 9.40557C 1.75456 9.68209 1.39008 9.88085 0.983231 10.0364C 0.737423 10.1314 0.618758 10.071 0.567901 9.82036C 0.542472 9.6821 0.508568 9.53519 0.449235 9.40557C 0.339046 9.15497 0.449236 9.05128 0.669615 8.95623C 1.37313 8.6365 1.89018 8.10074 2.29703 7.43536C 2.55131 7.02058 2.57674 6.62308 2.39875 6.16509C 1.65285 4.29857 0.923899 2.43205 0.194952 0.565528C 0.135619 0.409985 0.0762841 0.245801 -1.03468e-06 0.0124859C 0.415329 0.0124859 0.779803 0.0124859 1.15275 0.0124859C 1.37313 0.0124859 1.39856 0.211236 1.45789 0.36678C 2.00884 1.90493 2.55979 3.44308 3.11922 4.98123C 3.15312 5.11085 3.15312 5.27503 3.33112 5.37009Z" transform="translate(448.784 49.402) scale(10.0392)" fill="#7D7D7D"/>
</g>
<g id="Vector_2">
<path d="M 3.85994 1.3009C 3.28356 1.07623 2.72414 0.78242 2.07148 0.98117C 1.69853 1.09351 1.44424 1.3009 1.36796 1.6984C 1.29167 2.11318 1.45272 2.41562 1.80024 2.64894C 2.24947 2.94274 2.77499 3.081 3.24965 3.34024C 4.25831 3.876 4.64822 4.76606 4.32612 5.81165C 4.03794 6.72763 3.30051 7.04736 2.46138 7.21154C 1.707 7.35845 0.978053 7.2029 0.274535 6.92638C 0.037203 6.83133 -0.0814629 6.71899 0.0626313 6.45975C 0.0795836 6.43383 0.0795826 6.4079 0.0880587 6.38198C 0.257581 5.84622 0.25758 5.84622 0.749196 6.04497C 1.32557 6.28693 1.91043 6.38198 2.52071 6.20051C 2.94452 6.07089 3.18185 5.77709 3.22423 5.33638C 3.25813 4.90432 3.07166 4.59323 2.69871 4.38584C 2.11385 4.04883 1.45272 3.86736 0.90177 3.46122C 0.0202528 2.80448 -0.106889 1.56014 0.647486 0.747854C 1.24082 0.117039 1.99519 -0.0298606 2.8089 0.0047046C 2.95299 0.0133459 3.08861 0.0392687 3.22423 0.0738339C 4.22441 0.24666 4.27527 0.341715 3.85994 1.3009Z" transform="translate(88.3775 48.2647) scale(10.0392)" fill="#070707"/>
</g>
<g id="Vector_3">
<path d="M 2.27399 0.797838C 2.27399 1.61012 2.274 1.61012 3.0538 1.61012C 3.19789 1.61012 3.34199 1.6274 3.47761 1.61012C 3.90989 1.54099 4.06246 1.68789 4.02855 2.15452C 4.00313 2.46561 3.96922 2.61251 3.6217 2.58658C 3.25723 2.55202 2.88428 2.58658 2.5198 2.57794C 2.33333 2.5693 2.28247 2.63843 2.28247 2.8199C 2.29095 4.14202 2.28247 5.46414 2.3079 6.78625C 2.31638 7.37386 2.64695 7.65903 3.2318 7.66767C 3.31656 7.66767 3.40132 7.65903 3.48609 7.66767C 3.63018 7.69359 3.84208 7.55533 3.90141 7.7368C 3.9777 7.97875 3.96074 8.24663 3.96922 8.50587C 3.96922 8.575 3.87599 8.60093 3.80818 8.61821C 3.30809 8.75647 2.80799 8.80832 2.3079 8.66142C 1.57895 8.45403 1.18058 7.95283 1.12124 7.17511C 1.01953 5.78386 1.05343 4.38398 1.06191 2.99273C 1.06191 2.63843 0.95172 2.53474 0.638103 2.57794C 0.510961 2.59523 0.383819 2.5693 0.256677 2.58658C 0.0702019 2.60387 -0.00608223 2.53474 0.0193462 2.34463C 0.0278223 2.28414 0.0278223 2.23229 0.0193462 2.1718C -0.056939 1.73974 0.0871562 1.53235 0.544867 1.61876C 0.638105 1.63604 0.739818 1.61012 0.841532 1.6274C 1.01105 1.64468 1.07039 1.56691 1.05344 1.40273C 1.04496 1.35952 1.05344 1.31632 1.05344 1.27311C 1.06191 0.262077 1.07038 0.270719 2.06209 0.0201211C 2.26552 -0.0317267 2.31638 0.0114782 2.3079 0.210228C 2.274 0.391695 2.27399 0.599088 2.27399 0.797838Z" transform="translate(141.147 33.3627) scale(10.0392)" fill="#070808"/>
</g>
<g id="Vector_4">
<path d="M 14.384 3.24842C 14.1043 3.36076 13.9856 3.17929 13.85 3.07559C 12.5277 2.09913 11.1122 1.31277 9.50174 0.967118C 7.45052 0.526412 5.59425 1.01896 3.88207 2.19418C 3.38198 2.53983 2.90731 2.92869 2.45808 3.34347C 2.22922 3.55951 1.96646 3.65456 1.65284 3.64592C 1.1358 3.62864 0.610279 3.63728 -2.06937e-06 3.63728C 1.71218 1.64978 3.78883 0.509129 6.28081 0.102988C 9.5526 -0.424131 12.0361 1.13994 14.384 3.24842Z" transform="translate(56.7598 0) scale(10.0392)" fill="#BD2426"/>
</g>
<g id="Vector_5">
<path d="M 1.18766 1.39965C 1.55213 0.708348 2.00984 0.181228 2.7727 0.0429673C 3.34907 -0.0607283 3.41688 -0.00888052 3.41688 0.561445C 3.41688 0.665141 3.4084 0.760195 3.41688 0.86389C 3.44231 1.07992 3.39145 1.17498 3.14564 1.21818C 1.77251 1.43422 1.3148 1.9959 1.30633 3.42171C 1.29785 4.5278 1.29785 5.64253 1.3148 6.74861C 1.3148 7.03378 1.23851 7.11155 0.958801 7.11155C 0.0518551 7.11155 0.0518561 7.12019 0.0433799 6.20421C 0.0264277 4.28584 0.0857606 2.37612 0.000999266 0.457751C -0.00747687 0.259001 0.0349059 0.18123 0.246809 0.163948C 1.1029 0.0861759 1.1029 0.0861737 1.1029 0.950303C 1.09442 1.07128 1.04356 1.21818 1.18766 1.39965Z" transform="translate(195.363 47.9706) scale(10.0392)" fill="#080808"/>
</g>
<g id="Subtract">
<path fill-rule="evenodd" clip-rule="evenodd" d="M 1.12744 6.33858C 0.754395 7.45284 0.381348 8.57589 0 9.7253L 0.207031 9.7214C 0.404297 9.71651 0.585449 9.71261 0.762695 9.75167C 1.16113 9.81222 1.33936 9.63058 1.44922 9.25069C 1.57129 8.81124 1.71143 8.38058 1.85156 7.94991C 1.94531 7.66085 2.03906 7.37276 2.12744 7.08175C 2.2207 6.7878 2.38184 6.65792 2.68701 6.66671C 3.53467 6.68429 4.38232 6.6755 5.22998 6.66671C 5.53467 6.65792 5.6875 6.7878 5.78076 7.08175C 5.97559 7.70382 6.1875 8.32589 6.39941 8.94796C 6.65381 9.69112 6.81494 9.77706 7.57764 9.75167C 7.9082 9.74288 7.95898 9.65694 7.84912 9.32784C 6.89111 6.51925 5.9502 3.71163 5.00928 0.894249C 4.72949 0.0387804 4.72949 0.0651476 3.87354 0.00460071C 3.40723 -0.0305555 3.19531 0.133507 3.05127 0.574913C 2.42432 2.50167 1.77148 4.41964 1.12744 6.33858ZM 3.94141 1.24874C 3.54297 2.78683 2.99219 4.17843 2.54297 5.66476L 5.08594 5.66476C 5.26367 5.66476 5.38232 5.67355 5.29785 5.41378C 5.05811 4.69015 4.80371 3.96847 4.55664 3.23019C 4.34082 2.58566 4.13086 1.92941 3.94141 1.24874Z" transform="translate(0 21.902) scale(10.0392)" fill="#070707"/>
</g>
<g id="Subtract_2">
<path fill-rule="evenodd" clip-rule="evenodd" d="M 0.00925787 0.845022L 0.00925787 4.94951C 0.00925787 6.2542 0.000468807 7.56768 0.00925787 8.88115C 0.0175587 9.85772 -0.177266 9.70147 0.873516 9.72783C 1.1367 9.73662 1.21287 9.6585 1.21287 9.39092C 1.20066 8.70537 1.20115 8.02373 1.20311 7.34112L 1.20408 6.49639C 1.20408 6.18194 1.20408 6.03057 1.27928 5.96416C 1.35301 5.89971 1.499 5.91729 1.78904 5.94268C 2.67088 6.0208 3.52684 5.89092 4.33201 5.47588C 5.45945 4.89776 6.03562 3.72197 5.8408 2.41729C 5.65428 1.16436 4.83201 0.334279 3.54393 0.10967C 2.59422 -0.0631816 1.6367 -0.00263473 0.678691 0.0930684C 0.350078 0.127248 0.183086 0.141897 0.0981251 0.233693C 0.0116993 0.326467 0.00925787 0.497365 0.00925787 0.845022ZM 1.21287 3.96416C 1.21287 4.94072 1.21287 4.94072 2.24705 4.94951C 2.73875 4.97588 3.25584 4.87237 3.72215 4.59502C 4.51854 4.12041 4.68846 3.36846 4.57811 2.51299C 4.48484 1.76983 4.03562 1.346 3.3574 1.13018C 3.01072 1.02178 2.66404 0.980764 2.3159 0.98174C 2.05125 0.982717 1.78563 1.00713 1.51805 1.04424C 1.35789 1.06572 1.27488 1.11455 1.23582 1.2083C 1.21287 1.26397 1.20457 1.33428 1.20457 1.42412C 1.21092 1.72686 1.21385 2.02959 1.21482 2.33233C 1.21678 2.87627 1.21287 3.42022 1.21287 3.96416Z" transform="translate(319.005 21.5294) scale(10.0392)" fill="#7D7D7D"/>
</g>
<g id="Subtract_3">
<path fill-rule="evenodd" clip-rule="evenodd" d="M 0.000155557 3.82845C 0.00894462 5.83334 1.38199 7.25912 3.29752 7.25033C 5.34879 7.24252 6.68814 5.7474 6.68814 3.47494C 6.67935 1.42611 5.28092 -0.0250626 3.34 0.000328019C 1.29703 0.0266952 -0.016446 1.5306 0.000155557 3.82845ZM 5.27457 4.58627C 5.37418 4.25521 5.42642 3.89193 5.41666 3.47494C 5.41666 3.24447 5.37125 2.96908 5.28824 2.68783C 5.2067 2.41146 5.08902 2.12923 4.94205 1.8763C 4.23014 0.682945 2.62809 0.614586 1.82291 1.74642C 1.11051 2.75716 1.08512 4.42513 1.78043 5.44466C 2.60269 6.66341 4.24674 6.59408 4.95914 5.31478C 5.08902 5.08431 5.19644 4.84505 5.27457 4.58627Z" transform="translate(235.794 48.049) scale(10.0392)" fill="#070707"/>
</g>
<g id="Subtract_4">
<path fill-rule="evenodd" clip-rule="evenodd" d="M 2.06073 7.2843C 2.8996 7.29309 3.58612 6.9386 4.18817 6.29895C 4.41522 7.12902 4.41717 7.12902 5.11004 7.10266L 5.12909 7.10266C 5.33221 7.09387 5.40887 7.03332 5.39178 6.82629L 5.3703 6.47668C 5.35028 6.1466 5.33026 5.81848 5.32391 5.48645C 5.32098 5.10656 5.32147 4.7257 5.32196 4.34485C 5.32245 3.70227 5.32294 3.05871 5.30682 2.41906C 5.27313 1.18371 4.71356 0.465939 3.56073 0.129025C 2.53534 -0.17371 1.56903 0.0948452 0.653502 0.535275C 0.412779 0.655392 0.501158 0.820431 0.589537 0.984494C 0.629088 1.05774 0.668638 1.13098 0.678892 1.20031C 0.713072 1.39953 0.848326 1.41711 1.02655 1.32141C 1.54364 1.05383 2.08612 0.932736 2.66229 0.950314C 3.19452 0.965939 3.5827 1.15246 3.82294 1.49524C 3.96893 1.70324 4.05975 1.96887 4.09491 2.28918C 4.1286 2.56555 4.05243 2.68664 3.76434 2.68664C 3.50165 2.68664 3.23016 2.7218 2.96747 2.75598C 2.48456 2.81555 2.0119 2.91027 1.57098 3.09777C 1.31561 3.20617 1.07049 3.34485 0.840025 3.52551C 0.340513 3.91906 0.0416853 4.5177 0.00408766 5.13586C -0.0120256 5.39856 0.0192244 5.66418 0.10272 5.91906C 0.382506 6.76574 1.11981 7.27551 2.06073 7.2843ZM 2.71356 6.32531C 3.70526 6.12707 4.15448 5.53039 4.14569 4.41613C 4.14081 3.8966 4.13885 3.69543 3.94354 3.62805C 3.82049 3.58606 3.62176 3.59582 3.29803 3.61242L 3.25702 3.61242C 3.21405 3.61242 3.17401 3.61438 3.1286 3.62121C 2.56952 3.70715 2.00995 3.80188 1.59442 4.25207C 1.21307 4.66613 1.1369 5.29699 1.3996 5.77258C 1.65399 6.2218 2.16229 6.43762 2.71356 6.32531Z" transform="translate(384.784 47.8824) scale(10.0392)" fill="#7D7D7D"/>
</g>
</g>
</g>
</svg>

