<svg width="512" height="497" viewBox="0 0 512 497" version="1.1" xmlns="http://www.w3.org/2000/svg" xmlns:xlink="http://www.w3.org/1999/xlink">
<g id="Canvas" fill="none">
<g id="Vector">
<path d="M 16.7676 0L 0.540305 5.7931C 0.231214 5.94828 0 6.25862 0 6.56897L 0 9.67241C 0 10.1379 0.309091 10.4483 0.772727 10.4483L 2.31818 10.4483L 2.31818 12.7759C 2.31818 13.2414 2.62727 13.5517 3.09091 13.5517L 3.86364 13.5517L 3.86364 25.2414L 3.09091 25.2414C 2.62727 25.2414 2.31818 25.5517 2.31818 26.0172L 2.31818 28.3448L 0.772727 28.3448C 0.309091 28.3448 0 28.6552 0 29.1207L 0 32.2241C 0 32.6897 0.309091 33 0.772727 33L 33.2273 33C 33.6909 33 34 32.6897 34 32.2241L 34 29.1207C 34 28.6552 33.6909 28.3448 33.2273 28.3448L 31.6818 28.3448L 31.6818 26.0172C 31.6818 25.5517 31.3727 25.2414 30.9091 25.2414L 30.1364 25.2414L 30.1364 13.5517L 30.9091 13.5517C 31.3727 13.5517 31.6818 13.2414 31.6818 12.7759L 31.6818 10.4483L 33.2273 10.4483C 33.6909 10.4483 34 10.1379 34 9.67241L 34 6.56897C 34 6.25862 33.7688 5.94828 33.4597 5.7931L 17.2324 0L 16.7676 0ZM 17 1.55172L 32.4545 7.11146L 32.4545 8.89655L 30.9091 8.89655L 3.09091 8.89655L 1.54545 8.89655L 1.54545 7.19026L 17 1.55172ZM 17 4.24138C 16.5901 4.24138 16.197 4.40486 15.9072 4.69587C 15.6174 4.98687 15.4545 5.38156 15.4545 5.7931C 15.4545 6.20465 15.6174 6.59933 15.9072 6.89034C 16.197 7.18134 16.5901 7.34483 17 7.34483C 17.4099 7.34483 17.803 7.18134 18.0928 6.89034C 18.3826 6.59933 18.5455 6.20465 18.5455 5.7931C 18.5455 5.38156 18.3826 4.98687 18.0928 4.69587C 17.803 4.40486 17.4099 4.24138 17 4.24138ZM 3.86364 10.4483L 30.1364 10.4483L 30.1364 12L 29.3636 12L 26.2727 12L 18.5455 12L 15.4545 12L 7.72727 12L 4.63636 12L 3.86364 12L 3.86364 10.4483ZM 5.40909 13.5517L 6.95455 13.5517L 6.95455 25.2414L 5.40909 25.2414L 5.40909 13.5517ZM 8.5 13.5517L 14.6818 13.5517L 14.6818 25.2414L 8.5 25.2414L 8.5 13.5517ZM 16.2273 13.5517L 17.7727 13.5517L 17.7727 25.2414L 16.2273 25.2414L 16.2273 13.5517ZM 19.3182 13.5517L 25.5 13.5517L 25.5 25.2414L 19.3182 25.2414L 19.3182 13.5517ZM 27.0455 13.5517L 28.5909 13.5517L 28.5909 25.2414L 27.0455 25.2414L 27.0455 13.5517ZM 3.86364 26.7931L 4.63636 26.7931L 7.72727 26.7931L 15.4545 26.7931L 18.5455 26.7931L 26.2727 26.7931L 29.3636 26.7931L 30.1364 26.7931L 30.1364 28.3448L 3.86364 28.3448L 3.86364 26.7931ZM 1.54545 29.8966L 3.09091 29.8966L 30.9091 29.8966L 32.4545 29.8966L 32.4545 31.4483L 1.54545 31.4483L 1.54545 29.8966Z" transform="scale(15.0588)" fill="#506B94"/>
</g>
</g>
</svg>

