<svg width="512" height="405" viewBox="0 0 512 405" version="1.1" xmlns="http://www.w3.org/2000/svg" xmlns:xlink="http://www.w3.org/1999/xlink">
<g id="Canvas" fill="none">
<g id="Vector">
<path d="M 9.53965 27.8386L 5.39199 27.8386C 1.92663 24.3395 -0.00880732 19.6446 3.01194e-05 14.759C 0.00886756 9.87329 1.96128 5.18519 5.43927 1.69834L 9.66969 1.69834C 5.259 4.99585 2.83571 9.3053 2.83276 14.7677C 2.8298 20.2301 5.25161 24.5425 9.64752 27.8313C 9.62683 27.8618 9.57807 27.8386 9.53965 27.8386ZM 32.5609 1.69979L 28.4531 1.69979C 28.4031 1.68937 28.351 1.69603 28.3054 1.71869C 32.7161 5.00312 35.1305 9.32566 35.1275 14.7852C 35.1246 20.2447 32.7042 24.5614 28.2876 27.8429L 32.6052 27.8429C 36.072 24.3441 38.0085 19.6486 38 14.7622C 37.9914 9.87568 36.0385 5.18678 32.5594 1.69979L 32.5609 1.69979ZM 33.9587 15.0149C 33.9011 18.9253 32.2681 22.6533 29.4184 25.3796C 26.5688 28.1059 22.7357 29.6074 18.7615 29.5542C 10.5356 29.4422 3.82719 22.7309 3.99712 14.4537C 4.17 6.44251 10.8547 -0.0303837 18.9861 0.00014884C 27.1573 -0.0361994 34.0873 6.58936 33.9587 15.0149ZM 26.1983 14.8302C 26.0018 14.1643 25.687 13.5682 25.0857 13.164C 24.5626 12.8107 23.9641 12.6988 23.348 12.6522C 23.2918 12.6522 23.2091 12.677 23.1869 12.6115C 23.1648 12.5461 23.2445 12.5258 23.2815 12.488C 23.7767 12.0151 24.061 11.3683 24.072 10.6894C 24.0567 10.2357 23.9455 9.79003 23.7455 9.38091C 23.3184 8.46638 22.618 7.9168 21.5911 7.78158C 20.873 7.68853 20.1608 7.75251 19.4456 7.81648C 19.1693 7.8412 19.1693 7.84265 19.0984 7.57949C 18.8989 6.85252 18.7349 6.10229 18.5191 5.37242C 18.4792 5.24302 18.4305 5.2154 18.3004 5.24884C 17.8572 5.36806 17.4139 5.4771 16.9706 5.5847C 16.8672 5.60941 16.8376 5.65448 16.8642 5.75626C 16.9366 6.02378 16.9972 6.29421 17.0681 6.56174C 17.1937 7.04008 17.3311 7.51551 17.4109 8.00403C 17.4242 8.08546 17.473 8.18723 17.3252 8.22213C 16.9868 8.30354 16.6514 8.39078 16.316 8.48092C 16.2126 8.50855 16.1801 8.46348 16.1682 8.37333C 16.1387 8.22794 16.1047 8.08255 16.0678 7.92843C 15.9111 7.30712 15.753 6.68677 15.5934 6.0674C 15.5772 6.00634 15.5831 5.92201 15.4619 5.95399C 14.9881 6.07709 14.5128 6.19583 14.036 6.31021C 13.9193 6.33928 13.909 6.38726 13.937 6.49485C 14.141 7.27125 14.336 8.05201 14.5399 8.82114C 14.5709 8.94182 14.5562 8.99271 14.4232 9.02033C 14.1277 9.07994 13.8321 9.15409 13.5366 9.22679L 11.4192 9.75021C 11.3556 9.76765 11.2566 9.75021 11.2921 9.88687C 11.4295 10.3725 11.564 10.8596 11.6866 11.3495C 11.7265 11.5138 11.7945 11.5371 11.9496 11.4949C 12.2918 11.3719 12.6431 11.2747 13.0002 11.2041C 13.6046 11.1169 13.9223 11.3161 14.0759 11.8962C 14.2148 12.4211 14.3404 12.9489 14.4764 13.4752C 14.8561 14.9291 15.1901 16.4078 15.6023 17.8602C 15.7158 18.2065 15.7993 18.5615 15.852 18.9216C 15.889 19.2676 15.7841 19.4523 15.4679 19.6006C 15.3365 19.6574 15.1986 19.6979 15.0571 19.7213C 14.8106 19.7528 14.5667 19.8014 14.3271 19.8667C 14.2414 19.8972 14.1897 19.935 14.1986 20.0426C 14.2518 20.6242 14.301 21.2023 14.3463 21.7771C 14.3567 21.9225 14.4128 21.937 14.5443 21.8992C 15.5284 21.6085 16.5303 21.3962 17.5306 21.1723C 17.6311 21.1505 17.6695 21.1723 17.6902 21.2668C 17.7301 21.4529 17.7788 21.6375 17.8232 21.8222C 17.9709 22.4445 18.1187 23.0682 18.3093 23.6803C 18.3285 23.7414 18.33 23.8257 18.4334 23.7864C 18.8989 23.6323 19.3894 23.5713 19.8608 23.4404C 19.948 23.4172 19.9775 23.3866 19.9524 23.295C 19.8697 22.9795 19.8047 22.6626 19.7175 22.3471C 19.5963 21.8673 19.4604 21.3933 19.3599 20.9091C 19.3451 20.8364 19.3082 20.7637 19.4323 20.7346C 19.6953 20.675 19.9539 20.5994 20.2184 20.5427C 20.6026 20.4584 20.604 20.4628 20.7016 20.8335C 20.8877 21.5411 21.0729 22.2501 21.2572 22.9606C 21.2808 23.0566 21.3148 23.0813 21.4153 23.0566C 21.8585 22.9504 22.3018 22.853 22.7451 22.7309C 22.9121 22.6844 22.9431 22.6262 22.8929 22.4605C 22.686 21.7248 22.4718 20.9876 22.3329 20.2345C 22.2915 20.0135 22.29 20.0135 22.5072 19.9364C 23.0066 19.762 23.5031 19.5817 23.9848 19.3549C 24.6557 19.0437 25.2822 18.6744 25.7225 18.0667C 26.4436 17.0707 26.5411 15.9774 26.1983 14.8302ZM 21.7551 14.7372C 21.5191 14.682 21.2759 14.6629 21.034 14.6805C 20.907 14.6805 20.7799 14.6703 20.6543 14.6805C 19.7677 14.7634 18.9033 15.0105 18.0419 15.2417C 17.965 15.2621 17.9296 15.2882 17.9591 15.3755C 18.2857 16.3932 18.4911 17.4459 18.7674 18.4767C 18.8486 18.7835 18.8501 18.7835 19.1515 18.7079C 19.9081 18.5174 20.6794 18.3677 21.399 18.0565C 21.8822 17.8486 22.3447 17.6116 22.6698 17.1842C 23.3982 16.2042 22.9505 15.0047 21.7551 14.7328L 21.7551 14.7372ZM 20.6026 12.3397C 20.7547 12.196 20.8711 12.0197 20.9426 11.8246C 21.0142 11.6294 21.039 11.4207 21.0151 11.2145C 20.9912 11.0084 20.9193 10.8105 20.8049 10.6362C 20.6906 10.4619 20.5369 10.3159 20.3558 10.2096C 19.9884 9.99386 19.5617 9.89628 19.1353 9.93049C 18.3403 9.96103 17.5868 10.1922 16.8302 10.4059C 16.7356 10.4321 16.7504 10.4932 16.7652 10.5513C 16.9937 11.54 17.2459 12.5224 17.5217 13.4984C 17.5498 13.5973 17.5912 13.6235 17.6961 13.6031C 18.113 13.5247 18.5235 13.4158 18.924 13.2774C 19.5402 13.0608 20.1342 12.8035 20.6026 12.3353L 20.6026 12.3397Z" transform="scale(13.4737)" fill="#00AA4F"/>
</g>
</g>
</svg>

