<svg width="33" height="33" viewBox="0 0 33 33" fill="none" xmlns="http://www.w3.org/2000/svg">
    <path d="M32.34 33H0.66C0.484957 33 0.317084 32.9305 0.19331 32.8067C0.0695355 32.6829 0 32.515 0 32.34V0.66C0 0.484957 0.0695355 0.317084 0.19331 0.19331C0.317084 0.0695355 0.484957 0 0.66 0L32.34 0C32.515 0 32.6829 0.0695355 32.8067 0.19331C32.9305 0.317084 33 0.484957 33 0.66V32.34C33 32.515 32.9305 32.6829 32.8067 32.8067C32.6829 32.9305 32.515 33 32.34 33Z" fill="#245B74"/>
    <path d="M29.5263 2.47461V30.5246H30.1863C30.2738 30.5246 30.3578 30.4898 30.4197 30.428C30.4815 30.3661 30.5163 30.2821 30.5163 30.1946V2.80461C30.5163 2.76127 30.5078 2.71835 30.4912 2.67831C30.4746 2.63827 30.4503 2.60188 30.4197 2.57124C30.389 2.54059 30.3527 2.51628 30.3126 2.4997C30.2726 2.48312 30.2297 2.4746 30.1863 2.47461H29.5263ZM2.79631 30.5246H3.45631V2.47461H2.79631C2.70879 2.47461 2.62485 2.50938 2.56296 2.57126C2.50108 2.63315 2.46631 2.71709 2.46631 2.80461V30.1946C2.46634 30.2821 2.50112 30.366 2.563 30.4279C2.62488 30.4898 2.7088 30.5246 2.79631 30.5246ZM17.4132 15.8396H18.0732V2.47461H17.4132V15.8396ZM20.8572 15.8396H22.8372V2.47461H20.8572V15.8396ZM26.8863 15.8396H27.8763V2.47461H26.8863V15.8396ZM14.3958 15.8396H15.0558V2.47461H14.3958V15.8396ZM12.6064 15.8396H13.5964V2.47461H12.6064V15.8396ZM9.2587 15.8396H10.9087V2.47461H9.2587V15.8396ZM5.10631 15.8396H6.09631V2.47461H5.10631V15.8396ZM23.5792 15.8396H24.2392V2.47461H23.5792V15.8396ZM14.3958 30.5246H15.0558V27.3896H14.3958V30.5246ZM12.6064 30.5246H13.5964V27.3896H12.6064V30.5246ZM9.2587 30.5246H10.9087V27.3896H9.2587V30.5246ZM5.10631 30.5246H6.09631V27.3896H5.10631V30.5246Z" fill="white"/>
    <path d="M8.70101 20.1976C8.70542 20.379 8.67342 20.5595 8.60691 20.7283C8.54039 20.8972 8.44072 21.051 8.31376 21.1807C8.18835 21.3107 8.03734 21.4133 7.87026 21.4821C7.70319 21.5508 7.52367 21.5841 7.34306 21.58H5.24162C5.2232 21.5829 5.20434 21.5815 5.18659 21.5758C5.16883 21.57 5.15269 21.5602 5.1395 21.547C5.12631 21.5338 5.11643 21.5176 5.1107 21.4999C5.10496 21.4821 5.10351 21.4633 5.10649 21.4448V17.4203C5.10649 17.3283 5.14955 17.2791 5.24162 17.2791H6.87001C7.02971 17.2734 7.18896 17.2993 7.33866 17.3552C7.48837 17.411 7.62561 17.4959 7.74253 17.6048C7.85333 17.7058 7.94132 17.8293 8.00061 17.967C8.05991 18.1047 8.08915 18.2535 8.08639 18.4034C8.08781 18.5907 8.03447 18.7743 7.93294 18.9317C8.16836 19.0475 8.36576 19.2282 8.50186 19.4525C8.63795 19.6768 8.70705 19.9353 8.70101 20.1976ZM5.81318 17.9427V18.7844H7.24472C7.33429 18.6901 7.38288 18.5641 7.37986 18.4341C7.38275 18.3672 7.37139 18.3005 7.34653 18.2383C7.32168 18.1761 7.28389 18.1199 7.23569 18.0735C7.18748 18.027 7.12995 17.9913 7.0669 17.9688C7.00386 17.9462 6.93675 17.9374 6.87001 17.9427H5.81318ZM7.25099 20.9163C7.44817 20.9147 7.63674 20.8354 7.77586 20.6956C7.91497 20.5559 7.99343 20.3669 7.99423 20.1698C7.99504 19.9726 7.91812 19.783 7.78015 19.6422C7.64217 19.5013 7.45425 19.4204 7.2571 19.4172H5.81318V20.9163H7.25099Z" fill="white"/>
    <path d="M11.4894 21.6601C11.1955 21.6637 10.9038 21.6084 10.6316 21.4976C10.3594 21.3868 10.112 21.2227 9.90419 21.0148C9.69634 20.807 9.53218 20.5597 9.42137 20.2874C9.31056 20.0152 9.25534 19.7235 9.25896 19.4296C9.25673 19.1361 9.31291 18.845 9.42421 18.5734C9.53552 18.3018 9.69973 18.0551 9.9073 17.8475C10.1149 17.64 10.3616 17.4758 10.6332 17.3645C10.9049 17.2532 11.1959 17.197 11.4894 17.1993C11.7826 17.1984 12.073 17.2555 12.344 17.3673C12.615 17.479 12.8612 17.6433 13.0685 17.8506C13.2758 18.0578 13.4401 18.3041 13.5518 18.575C13.6636 18.846 13.7207 19.1364 13.7199 19.4296C13.7221 19.7231 13.666 20.0142 13.5547 20.2858C13.4434 20.5574 13.2792 20.8042 13.0716 21.0118C12.864 21.2193 12.6173 21.3836 12.3456 21.4948C12.074 21.6061 11.783 21.6623 11.4894 21.6601ZM11.4894 20.9717C11.6899 20.9764 11.8892 20.9401 12.0751 20.8651C12.2611 20.7901 12.4298 20.6779 12.5708 20.5354C12.7162 20.3911 12.8304 20.2185 12.9064 20.0283C12.9825 19.8381 13.0188 19.6343 13.013 19.4296C13.0193 19.2257 12.9833 19.0226 12.9072 18.8333C12.831 18.644 12.7165 18.4725 12.5708 18.3297C12.4309 18.1852 12.2626 18.0714 12.0765 17.9952C11.8903 17.9191 11.6905 17.8824 11.4894 17.8873C11.2875 17.8829 11.0869 17.9199 10.8998 17.9959C10.7127 18.072 10.5432 18.1856 10.4017 18.3297C10.2581 18.4738 10.1454 18.6456 10.0704 18.8347C9.9954 19.0238 9.95977 19.2262 9.96565 19.4296C9.96032 19.6338 9.9962 19.8369 10.0711 20.0269C10.146 20.2169 10.2585 20.3898 10.4017 20.5354C10.5444 20.6775 10.7142 20.7894 10.9011 20.8644C11.088 20.9394 11.2881 20.9758 11.4894 20.9717Z" fill="white"/>
    <path d="M16.6819 20.9039C16.774 20.9039 16.823 20.947 16.823 21.039V21.4446C16.823 21.5368 16.774 21.5799 16.6819 21.5799H14.5313C14.5129 21.5829 14.494 21.5814 14.4762 21.5757C14.4585 21.5699 14.4423 21.56 14.4291 21.5468C14.4159 21.5336 14.406 21.5175 14.4003 21.4997C14.3945 21.4819 14.3931 21.463 14.396 21.4446V17.4141C14.3931 17.3957 14.3945 17.3768 14.4003 17.359C14.406 17.3413 14.4159 17.3251 14.4291 17.3119C14.4423 17.2987 14.4585 17.2888 14.4762 17.2831C14.494 17.2773 14.5129 17.2759 14.5313 17.2788H14.9615C15.0536 17.2788 15.1029 17.3217 15.1029 17.4141V20.9039H16.6819Z" fill="white"/>
    <path d="M19.7976 20.9039C19.816 20.9009 19.8349 20.9023 19.8526 20.9081C19.8704 20.9138 19.8865 20.9237 19.8997 20.9369C19.9129 20.9501 19.9228 20.9662 19.9285 20.984C19.9343 21.0017 19.9357 21.0206 19.9327 21.039V21.4446C19.9357 21.463 19.9343 21.4819 19.9286 21.4997C19.9228 21.5175 19.913 21.5336 19.8998 21.5468C19.8866 21.5601 19.8704 21.57 19.8527 21.5757C19.8349 21.5814 19.816 21.5829 19.7976 21.5799H17.5488C17.5303 21.5829 17.5115 21.5814 17.4937 21.5757C17.4759 21.5699 17.4598 21.56 17.4466 21.5468C17.4334 21.5336 17.4235 21.5175 17.4178 21.4997C17.4121 21.4819 17.4107 21.463 17.4136 21.4446V17.4142C17.4106 17.3957 17.4121 17.3768 17.4178 17.3591C17.4235 17.3413 17.4334 17.3251 17.4466 17.3119C17.4598 17.2987 17.4759 17.2888 17.4937 17.2831C17.5115 17.2773 17.5303 17.2759 17.5488 17.2789H19.7608C19.8528 17.2789 19.902 17.3218 19.902 17.4142V17.8196C19.902 17.9116 19.8528 17.9547 19.7608 17.9547H18.1203V19.0729H19.6134C19.7053 19.0729 19.7486 19.1221 19.7486 19.2143V19.6012C19.7515 19.6197 19.7501 19.6385 19.7443 19.6563C19.7386 19.674 19.7287 19.6902 19.7155 19.7034C19.7024 19.7166 19.6862 19.7265 19.6685 19.7322C19.6507 19.738 19.6319 19.7395 19.6134 19.7365H18.1203V20.9039H19.7976Z" fill="white"/>
    <path d="M23.1995 17.2783C23.2918 17.2783 23.3409 17.3212 23.3409 17.4135V17.8189C23.3409 17.9111 23.2918 17.9542 23.1995 17.9542H22.2534V21.4441C22.2534 21.5363 22.2043 21.5792 22.1119 21.5792H21.682C21.5896 21.5792 21.5405 21.5363 21.5405 21.4441V17.9542H20.5944C20.5021 17.9542 20.4531 17.9111 20.4531 17.8189V17.4135C20.4531 17.3212 20.5021 17.2783 20.5944 17.2783H23.1995Z" fill="white"/>
    <path d="M25.7863 21.6598C25.4924 21.6634 25.2007 21.6081 24.9285 21.4973C24.6562 21.3865 24.4089 21.2224 24.2011 21.0145C23.9932 20.8067 23.8291 20.5594 23.7182 20.2871C23.6074 20.0149 23.5522 19.7232 23.5558 19.4293C23.5544 18.9861 23.6846 18.5525 23.93 18.1835C24.1753 17.8144 24.5247 17.5265 24.9338 17.3563C25.343 17.186 25.7935 17.1411 26.2282 17.2272C26.6629 17.3133 27.0623 17.5266 27.3756 17.8399C27.689 18.1533 27.9023 18.5527 27.9884 18.9874C28.0745 19.4221 28.0296 19.8726 27.8593 20.2817C27.6891 20.6909 27.4012 21.0403 27.0321 21.2856C26.6631 21.5309 26.2295 21.6612 25.7863 21.6598ZM25.7863 20.9714C25.9868 20.9761 26.1861 20.9398 26.372 20.8648C26.558 20.7898 26.7266 20.6776 26.8677 20.5351C27.013 20.3908 27.1272 20.2182 27.2033 20.028C27.2793 19.8378 27.3156 19.634 27.3099 19.4293C27.3162 19.2253 27.2801 19.0223 27.204 18.833C27.1279 18.6437 27.0134 18.4722 26.8677 18.3294C26.7278 18.1849 26.5595 18.0711 26.3733 17.9949C26.1872 17.9188 25.9873 17.882 25.7863 17.887C25.5844 17.8826 25.3837 17.9196 25.1967 17.9957C25.0096 18.0717 24.8401 18.1853 24.6986 18.3294C24.555 18.4735 24.4422 18.6453 24.3673 18.8344C24.2923 19.0235 24.2566 19.2259 24.2625 19.4293C24.2572 19.6335 24.2931 19.8366 24.368 20.0266C24.4429 20.2166 24.5554 20.3895 24.6986 20.5351C24.8413 20.6772 25.0111 20.7891 25.198 20.8641C25.3849 20.939 25.585 20.9755 25.7863 20.9714Z" fill="white"/>
    <path d="M7.78933 25.0605C7.79282 25.1938 7.76893 25.3265 7.71912 25.4502C7.66931 25.5739 7.59465 25.6861 7.49975 25.7798C7.40716 25.8749 7.29581 25.9498 7.17277 25.9996C7.04973 26.0495 6.91767 26.0732 6.78497 26.0693H5.215C5.20026 26.0714 5.18523 26.0701 5.1711 26.0653C5.15698 26.0606 5.14414 26.0527 5.13361 26.0422C5.12308 26.0316 5.11514 26.0188 5.11043 26.0047C5.10571 25.9905 5.10434 25.9755 5.10643 25.9608V23.0109C5.10433 22.9962 5.10569 22.9811 5.1104 22.967C5.11511 22.9529 5.12305 22.94 5.13358 22.9295C5.14411 22.9189 5.15695 22.911 5.17109 22.9063C5.18522 22.9016 5.20025 22.9002 5.215 22.9023H6.42296C6.66948 22.8934 6.90974 22.9811 7.09253 23.1467C7.17777 23.2235 7.24537 23.3179 7.29069 23.4233C7.336 23.5287 7.35796 23.6427 7.35505 23.7574C7.35536 23.8938 7.31604 24.0274 7.24186 24.142C7.40941 24.2291 7.54937 24.3612 7.64607 24.5235C7.74276 24.6857 7.79237 24.8717 7.78933 25.0605ZM5.72633 23.4859V24.0199H6.64027C6.68541 23.977 6.71658 23.9215 6.7297 23.8607C6.74282 23.7998 6.73728 23.7364 6.71382 23.6788C6.69035 23.6211 6.65004 23.5718 6.59815 23.5374C6.54626 23.503 6.48521 23.4851 6.42296 23.4859H5.72633ZM6.70808 25.4857C6.82784 25.4841 6.94217 25.4356 7.02649 25.3505C7.11081 25.2655 7.15838 25.1507 7.15896 25.031C7.15954 24.9112 7.1131 24.796 7.02961 24.7101C6.94612 24.6243 6.83227 24.5746 6.71254 24.5718H5.72633V25.4857H6.70808Z" fill="white"/>
    <path d="M10.8533 25.9477C10.8758 26.0244 10.8396 26.0698 10.7629 26.0698H10.3103C10.2825 26.0715 10.255 26.0634 10.2327 26.0468C10.2104 26.0302 10.1946 26.0063 10.1882 25.9792L10.0389 25.4997H8.82183L8.66788 25.9792C8.66315 26.0063 8.64845 26.0306 8.62667 26.0474C8.60489 26.0642 8.57762 26.0721 8.55024 26.0698H8.09335C8.01646 26.0698 7.97571 26.0244 8.00739 25.9477L9.01174 22.9932C9.01863 22.9655 9.03518 22.9412 9.05841 22.9246C9.08165 22.908 9.11003 22.9003 9.13846 22.9028H9.72223C9.74999 22.901 9.77748 22.9091 9.79983 22.9257C9.82218 22.9422 9.83794 22.9662 9.84433 22.9932L10.8533 25.9477ZM9.00729 24.9206H9.84895L9.42804 23.595L9.00729 24.9206Z" fill="white"/>
    <path d="M12.9723 23.0109C12.9702 22.9962 12.9716 22.9811 12.9763 22.967C12.981 22.9529 12.9889 22.9401 12.9994 22.9295C13.0099 22.919 13.0228 22.9111 13.0369 22.9063C13.051 22.9016 13.066 22.9002 13.0808 22.9023H13.488C13.5027 22.9002 13.5178 22.9016 13.5319 22.9063C13.546 22.911 13.5589 22.9189 13.5694 22.9295C13.5799 22.94 13.5879 22.9529 13.5926 22.967C13.5973 22.9811 13.5986 22.9962 13.5965 23.0109V25.9608C13.5986 25.9756 13.5973 25.9906 13.5926 26.0048C13.5879 26.0189 13.5799 26.0317 13.5694 26.0423C13.5589 26.0528 13.546 26.0607 13.5319 26.0654C13.5178 26.0702 13.5027 26.0715 13.488 26.0694H13.2076C13.1816 26.0711 13.1557 26.0657 13.1325 26.0538C13.1094 26.0418 13.09 26.0238 13.0763 26.0016L11.8865 24.1148V25.9608C11.8887 25.9752 11.8876 25.9899 11.8832 26.0038C11.8788 26.0177 11.8713 26.0303 11.8612 26.0408C11.8512 26.0513 11.8388 26.0594 11.8251 26.0643C11.8115 26.0693 11.7968 26.071 11.7824 26.0694H11.3751C11.3604 26.0715 11.3454 26.0701 11.3312 26.0654C11.3171 26.0607 11.3043 26.0528 11.2938 26.0422C11.2832 26.0317 11.2753 26.0189 11.2706 26.0047C11.2659 25.9906 11.2645 25.9756 11.2666 25.9608V23.011C11.2645 22.9962 11.2659 22.9812 11.2706 22.9671C11.2753 22.953 11.2832 22.9401 11.2938 22.9296C11.3043 22.9191 11.3171 22.9111 11.3312 22.9064C11.3454 22.9017 11.3604 22.9003 11.3751 22.9024H11.6558C11.6818 22.9007 11.7077 22.9061 11.7308 22.9181C11.7538 22.93 11.7732 22.9481 11.7868 22.9702L12.9723 24.857V23.0109Z" fill="white"/>
    <path d="M14.1414 24.4861C14.1374 24.2683 14.1774 24.052 14.259 23.8501C14.3406 23.6481 14.4622 23.4648 14.6164 23.311C14.7707 23.1572 14.9544 23.0361 15.1565 22.9551C15.3587 22.874 15.5751 22.8346 15.7929 22.8392C16.1319 22.8346 16.4634 22.9393 16.7383 23.1377C17.0073 23.325 17.205 23.5977 17.2995 23.9116C17.3055 23.9257 17.3076 23.9412 17.3058 23.9564C17.304 23.9716 17.2982 23.9861 17.289 23.9985C17.2799 24.0108 17.2677 24.0205 17.2536 24.0267C17.2396 24.0329 17.2242 24.0353 17.2089 24.0337H16.7655C16.7387 24.0339 16.7126 24.0257 16.6907 24.0102C16.6688 23.9948 16.6522 23.9728 16.6434 23.9475C16.5641 23.7916 16.4419 23.6616 16.2913 23.5727C16.1406 23.4837 15.9677 23.4396 15.7929 23.4454C15.6552 23.4394 15.5177 23.462 15.3892 23.5119C15.2606 23.5617 15.1439 23.6377 15.0462 23.735C14.8653 23.9434 14.7657 24.2101 14.7657 24.4861C14.7657 24.7621 14.8653 25.0288 15.0462 25.2372C15.1439 25.3345 15.2607 25.4104 15.3892 25.4603C15.5177 25.5101 15.6552 25.5327 15.7929 25.5267C15.9679 25.5335 16.1412 25.4897 16.292 25.4007C16.4428 25.3116 16.5648 25.181 16.6434 25.0245C16.6522 24.9992 16.6688 24.9772 16.6907 24.9618C16.7126 24.9464 16.7387 24.9382 16.7655 24.9384H17.2089C17.2235 24.936 17.2384 24.9375 17.2522 24.9428C17.2659 24.9481 17.2781 24.957 17.2873 24.9685C17.2965 24.98 17.3025 24.9938 17.3046 25.0084C17.3068 25.023 17.305 25.0379 17.2995 25.0515C17.207 25.3675 17.011 25.6432 16.7429 25.8343C16.4666 26.0334 16.1334 26.1381 15.7929 26.1328C15.5751 26.1374 15.3587 26.0981 15.1565 26.017C14.9544 25.936 14.7707 25.8149 14.6165 25.6611C14.4622 25.5074 14.3406 25.324 14.259 25.1221C14.1774 24.9202 14.1374 24.7039 14.1414 24.4861Z" fill="white"/>
    <path d="M20.3221 25.9477C20.3445 26.0244 20.3084 26.0698 20.2316 26.0698H19.779C19.7513 26.0715 19.7238 26.0634 19.7015 26.0468C19.6791 26.0302 19.6634 26.0063 19.6569 25.9792L19.5076 25.4997H18.2906L18.1366 25.9792C18.1319 26.0063 18.1172 26.0306 18.0954 26.0474C18.0736 26.0642 18.0464 26.0721 18.019 26.0698H17.5621C17.4852 26.0698 17.4445 26.0244 17.4761 25.9477L18.4805 22.9932C18.4874 22.9655 18.5039 22.9412 18.5272 22.9246C18.5504 22.908 18.5788 22.9003 18.6072 22.9028H19.191C19.2187 22.901 19.2462 22.9091 19.2686 22.9257C19.2909 22.9422 19.3067 22.9662 19.3131 22.9932L20.3221 25.9477ZM18.476 24.9206H19.3177L18.8968 23.595L18.476 24.9206Z" fill="white"/>
    <path d="M23.2645 25.9337C23.3187 26.006 23.2915 26.0693 23.2011 26.0693H22.7214C22.696 26.0704 22.6708 26.0652 22.6479 26.0541C22.625 26.0431 22.6052 26.0265 22.5903 26.006L21.7441 24.9699H21.3597V25.9608C21.3618 25.9755 21.3604 25.9905 21.3557 26.0047C21.351 26.0188 21.3431 26.0316 21.3325 26.0422C21.322 26.0527 21.3092 26.0607 21.295 26.0654C21.2809 26.0701 21.2659 26.0714 21.2511 26.0693H20.8439C20.8292 26.0714 20.8141 26.0701 20.8 26.0654C20.7859 26.0607 20.773 26.0527 20.7625 26.0422C20.752 26.0316 20.744 26.0188 20.7393 26.0047C20.7346 25.9905 20.7332 25.9755 20.7353 25.9608V23.0109C20.7332 22.9961 20.7346 22.9811 20.7393 22.967C20.7441 22.9529 20.752 22.94 20.7625 22.9295C20.773 22.919 20.7859 22.911 20.8 22.9063C20.8141 22.9016 20.8292 22.9002 20.8439 22.9023H21.9342C22.1706 22.8969 22.4016 22.9729 22.5886 23.1175C22.7756 23.2622 22.9072 23.4668 22.9613 23.6969C23.0154 23.9271 22.9887 24.1688 22.8857 24.3816C22.7828 24.5944 22.6098 24.7654 22.3957 24.8658L23.2645 25.9337ZM21.3597 23.4859V24.4226H21.9342C22.0515 24.4125 22.1607 24.3588 22.2403 24.272C22.3198 24.1853 22.364 24.0719 22.364 23.9542C22.364 23.8365 22.3198 23.7231 22.2403 23.6364C22.1607 23.5497 22.0515 23.496 21.9342 23.4859H21.3597Z" fill="white"/>
    <path d="M23.6738 23.0109C23.6717 22.9961 23.6731 22.9811 23.6778 22.967C23.6825 22.9529 23.6905 22.94 23.701 22.9295C23.7115 22.919 23.7243 22.911 23.7385 22.9063C23.7526 22.9016 23.7676 22.9002 23.7824 22.9023H24.1896C24.204 22.9007 24.2187 22.9025 24.2323 22.9074C24.246 22.9124 24.2584 22.9204 24.2684 22.9309C24.2785 22.9414 24.286 22.9541 24.2904 22.9679C24.2948 22.9818 24.2959 22.9965 24.2937 23.0109V25.9608C24.2959 25.9752 24.2948 25.9899 24.2904 26.0038C24.286 26.0177 24.2785 26.0303 24.2684 26.0408C24.2584 26.0513 24.246 26.0594 24.2323 26.0643C24.2187 26.0693 24.204 26.071 24.1896 26.0694H23.7824C23.7676 26.0715 23.7526 26.0701 23.7385 26.0654C23.7243 26.0607 23.7115 26.0528 23.701 26.0422C23.6905 26.0317 23.6825 26.0189 23.6778 26.0047C23.6731 25.9906 23.6717 25.9756 23.6738 25.9608V23.0109Z" fill="white"/>
    <path d="M26.3793 26.1334C26.0909 26.1327 25.8077 26.0562 25.5581 25.9116C25.3085 25.767 25.1013 25.5594 24.9572 25.3095C24.813 25.0597 24.737 24.7764 24.7368 24.4879C24.7366 24.1995 24.8121 23.916 24.9559 23.666C25.0996 23.4159 25.3065 23.208 25.5559 23.063C25.8052 22.918 26.0883 22.8411 26.3767 22.8399C26.6652 22.8387 26.9489 22.9132 27.1994 23.0561C27.45 23.199 27.6586 23.4052 27.8045 23.6541C27.9529 23.9062 28.0295 24.1942 28.026 24.4867C28.0279 24.7035 27.9866 24.9185 27.9045 25.1191C27.8224 25.3197 27.7012 25.502 27.5479 25.6553C27.3946 25.8086 27.2124 25.9298 27.0117 26.0119C26.8111 26.094 26.5961 26.1353 26.3793 26.1334ZM27.4019 24.4867C27.4063 24.3488 27.3825 24.2115 27.3319 24.0831C27.2814 23.9548 27.2051 23.8381 27.1078 23.7402C26.9123 23.5515 26.6511 23.446 26.3793 23.446C26.1076 23.446 25.8464 23.5515 25.6509 23.7402C25.4618 23.9428 25.3567 24.2096 25.3567 24.4867C25.3567 24.7638 25.4618 25.0306 25.6509 25.2332C25.7459 25.3292 25.8595 25.4048 25.9848 25.4554C26.11 25.506 26.2443 25.5305 26.3793 25.5274C26.5158 25.5296 26.6513 25.5041 26.7776 25.4524C26.9038 25.4007 27.0183 25.3238 27.1139 25.2264C27.2095 25.1291 27.2844 25.0133 27.3339 24.8862C27.3834 24.759 27.4065 24.6231 27.4019 24.4867Z" fill="white"/>
    <path d="M18.6552 22.6713C18.5881 22.6713 18.5564 22.6241 18.5918 22.5607L18.8093 22.1895C18.8194 22.1692 18.8353 22.1523 18.855 22.141C18.8747 22.1298 18.8973 22.1246 18.9199 22.1263H19.3794C19.4581 22.1263 19.4858 22.1815 19.4347 22.2409L19.1304 22.616C19.1173 22.6339 19.1 22.6483 19.0801 22.6579C19.0601 22.6676 19.0381 22.6722 19.0159 22.6713H18.6552Z" fill="white"/>
    <path d="M17.5125 28.9412C17.5084 28.7234 17.5484 28.5071 17.63 28.3051C17.7116 28.1032 17.8332 27.9199 17.9874 27.7661C18.1416 27.6123 18.3253 27.4912 18.5275 27.4101C18.7296 27.3291 18.9461 27.2897 19.1638 27.2943C19.5028 27.2897 19.8343 27.3944 20.1093 27.5928C20.3782 27.7801 20.5759 28.0528 20.6704 28.3666C20.6764 28.3808 20.6786 28.3962 20.6767 28.4115C20.6749 28.4267 20.6691 28.4412 20.66 28.4536C20.6508 28.4659 20.6386 28.4756 20.6246 28.4818C20.6105 28.488 20.5951 28.4904 20.5798 28.4887H20.1365C20.1097 28.4889 20.0835 28.4807 20.0616 28.4653C20.0397 28.4499 20.0232 28.4279 20.0144 28.4026C19.935 28.2467 19.8129 28.1166 19.6622 28.0277C19.5116 27.9388 19.3387 27.8947 19.1638 27.9005C19.0261 27.8945 18.8886 27.9171 18.7601 27.9669C18.6316 28.0168 18.5148 28.0928 18.4172 28.1901C18.2363 28.3985 18.1367 28.6652 18.1367 28.9412C18.1367 29.2171 18.2363 29.4838 18.4172 29.6923C18.5148 29.7895 18.6316 29.8655 18.7601 29.9154C18.8886 29.9652 19.0261 29.9878 19.1638 29.9818C19.3388 29.9886 19.5121 29.9448 19.663 29.8558C19.8138 29.7667 19.9358 29.6361 20.0144 29.4796C20.0232 29.4543 20.0397 29.4323 20.0616 29.4169C20.0835 29.4014 20.1097 29.3932 20.1365 29.3934H20.5798C20.5944 29.3911 20.6093 29.3926 20.6231 29.3979C20.6369 29.4032 20.649 29.412 20.6582 29.4236C20.6674 29.4351 20.6734 29.4488 20.6756 29.4634C20.6777 29.478 20.6759 29.4929 20.6704 29.5066C20.578 29.8226 20.3819 30.0983 20.1139 30.2894C19.8376 30.4885 19.5044 30.5932 19.1638 30.5879C18.9461 30.5925 18.7296 30.5532 18.5275 30.4721C18.3253 30.3911 18.1416 30.27 17.9874 30.1162C17.8332 29.9625 17.7116 29.7791 17.63 29.5772C17.5484 29.3753 17.5084 29.1589 17.5125 28.9412Z" fill="white"/>
    <path d="M22.6518 30.5885C22.3634 30.5877 22.0802 30.5112 21.8306 30.3667C21.581 30.2221 21.3738 30.0145 21.2296 29.7646C21.0855 29.5148 21.0095 29.2314 21.0093 28.943C21.0091 28.6546 21.0846 28.3711 21.2283 28.121C21.3721 27.871 21.579 27.663 21.8283 27.5181C22.0777 27.3731 22.3608 27.2961 22.6492 27.2949C22.9376 27.2937 23.2213 27.3683 23.4719 27.5112C23.7225 27.6541 23.9311 27.8603 24.0769 28.1092C24.2253 28.3613 24.3019 28.6492 24.2985 28.9418C24.3004 29.1586 24.2591 29.3735 24.177 29.5742C24.0949 29.7748 23.9737 29.9571 23.8204 30.1104C23.6671 30.2637 23.4848 30.3849 23.2842 30.467C23.0836 30.5491 22.8686 30.5904 22.6518 30.5885ZM23.6743 28.9418C23.6787 28.8039 23.6549 28.6666 23.6044 28.5382C23.5538 28.4098 23.4776 28.2932 23.3803 28.1953C23.1847 28.0066 22.9236 27.9011 22.6518 27.9011C22.38 27.9011 22.1189 28.0066 21.9233 28.1953C21.7343 28.3979 21.6291 28.6647 21.6291 28.9418C21.6291 29.2189 21.7343 29.4857 21.9233 29.6882C22.0184 29.7843 22.132 29.8599 22.2572 29.9105C22.3825 29.961 22.5168 29.9855 22.6518 29.9824C22.7882 29.9847 22.9237 29.9592 23.05 29.9075C23.1763 29.8557 23.2907 29.7789 23.3864 29.6815C23.482 29.5842 23.5569 29.4684 23.6064 29.3412C23.6559 29.2141 23.679 29.0782 23.6743 28.9418Z" fill="white"/>
    <path d="M27.7679 27.3574C27.7827 27.3553 27.7977 27.3567 27.8118 27.3614C27.826 27.3661 27.8388 27.374 27.8493 27.3846C27.8599 27.3951 27.8678 27.4079 27.8725 27.4221C27.8772 27.4362 27.8786 27.4512 27.8765 27.466V30.4158C27.8786 30.4306 27.8773 30.4456 27.8726 30.4597C27.8678 30.4739 27.8599 30.4867 27.8494 30.4972C27.8388 30.5078 27.826 30.5157 27.8119 30.5204C27.7977 30.5251 27.7827 30.5265 27.7679 30.5244H27.3607C27.346 30.5265 27.3309 30.5252 27.3168 30.5205C27.3027 30.5158 27.2898 30.5078 27.2793 30.4973C27.2687 30.4867 27.2608 30.4739 27.2561 30.4598C27.2514 30.4456 27.25 30.4306 27.2522 30.4158V28.398L26.587 29.9363C26.5782 29.9613 26.5616 29.9827 26.5396 29.9974C26.5175 30.012 26.4914 30.0192 26.4649 30.0177H26.1889C26.1625 30.0192 26.1363 30.012 26.1142 29.9974C26.0922 29.9827 26.0755 29.9613 26.0666 29.9363L25.3972 28.398V30.4158C25.3995 30.4302 25.3983 30.4449 25.394 30.4588C25.3896 30.4727 25.3821 30.4853 25.372 30.4958C25.3619 30.5064 25.3496 30.5144 25.3359 30.5193C25.3222 30.5243 25.3076 30.526 25.2931 30.5244H24.8859C24.8712 30.5265 24.8561 30.5251 24.842 30.5204C24.8279 30.5157 24.815 30.5078 24.8045 30.4972C24.7939 30.4867 24.786 30.4739 24.7813 30.4597C24.7766 30.4456 24.7752 30.4306 24.7773 30.4158V27.466C24.7752 27.4512 24.7766 27.4362 24.7813 27.4221C24.786 27.4079 24.794 27.3951 24.8045 27.3846C24.815 27.374 24.8279 27.3661 24.842 27.3614C24.8561 27.3567 24.8712 27.3553 24.8859 27.3574H25.3972C25.4243 27.3552 25.4514 27.362 25.4743 27.3768C25.4972 27.3915 25.5145 27.4133 25.5238 27.4389L26.3292 29.2938L27.1301 27.4389C27.1393 27.4134 27.1567 27.3915 27.1796 27.3768C27.2025 27.3621 27.2295 27.3553 27.2566 27.3574H27.7679Z" fill="white"/>
    <path d="M17.3104 29.8652H16.6504V30.5252H17.3104V29.8652Z" fill="white"/>
</svg>
