<svg width="512" height="512" viewBox="0 0 512 512" version="1.1" xmlns="http://www.w3.org/2000/svg" xmlns:xlink="http://www.w3.org/1999/xlink">
<g id="Canvas" fill="none">
<g id="Bitcoin 2">
<g id="Group">
<g id="Vector">
<path d="M 35.4612 22.3411C 33.0568 31.9782 23.2891 37.8432 13.644 35.4399C 4.00287 33.0373 -1.86631 23.276 0.539191 13.6394C 2.94245 4.00122 12.7102 -1.86435 22.3525 0.538321C 31.997 2.94099 37.8656 12.7034 35.4612 22.3411Z" transform="scale(14.2222)" fill="#F7931A"/>
</g>
<g id="Vector_2">
<path d="M 17.1772 9.15813C 17.5356 6.76446 15.7117 5.47768 13.2179 4.61926L 14.0269 1.37673L 12.0517 0.884838L 11.2641 4.04192C 10.7449 3.91263 10.2116 3.79064 9.68166 3.66977L 10.4749 0.491889L 8.50084 -6.86229e-08L 7.69132 3.24141C 7.26152 3.14359 6.8396 3.0469 6.43006 2.94515L 6.43231 2.93503L 3.70839 2.25538L 3.18296 4.36348C 3.18296 4.36348 4.64843 4.69909 4.61749 4.71988C 5.41745 4.91945 5.56203 5.44844 5.53784 5.86781L 4.61637 9.56176C 4.6715 9.57581 4.74294 9.59605 4.8217 9.62753C 4.75588 9.61123 4.68556 9.59324 4.61299 9.57581L 3.32135 14.7505C 3.22347 14.9933 2.97538 15.3576 2.4162 15.2193C 2.43588 15.248 0.980542 14.8612 0.980542 14.8612L 1.37344e-07 17.1205L 2.57034 17.7608C 3.04851 17.8806 3.51713 18.0059 3.97842 18.124L 3.16102 21.4036L 5.13392 21.8955L 5.94345 18.6507C 6.48238 18.7969 7.00556 18.9318 7.51749 19.0589L 6.71078 22.2885L 8.68593 22.7804L 9.50333 19.5069C 12.8714 20.1438 15.404 19.8869 16.4701 16.8428C 17.3291 14.3918 16.4273 12.978 14.6552 12.0561C 15.9458 11.7587 16.9179 10.9104 17.1772 9.15813ZM 12.6643 15.4819C 12.054 17.9329 7.92422 16.6079 6.58533 16.2756L 7.66994 11.9307C 9.00883 12.2646 13.3023 12.9257 12.6643 15.4819ZM 13.2753 9.12271C 12.7184 11.3522 9.28111 10.2195 8.16612 9.94178L 9.14948 6.00104C 10.2645 6.27875 13.8553 6.79706 13.2753 9.12271Z" transform="translate(124.583 89.1528) scale(14.2222)" fill="white"/>
</g>
</g>
</g>
</g>
</svg>

