<svg width="512" height="512" viewBox="0 0 512 512" version="1.1" xmlns="http://www.w3.org/2000/svg" xmlns:xlink="http://www.w3.org/1999/xlink">
<g id="Canvas" fill="none">
<g id="bitcoin-gold-seeklogo.com">
<g id="Group">
<g id="Vector">
<path d="M 17.9939 0L 19.973 0C 22.039 0.135849 24.0932 0.548148 26.0123 1.32486C 30.7625 3.19332 34.6831 7.06588 36.5958 11.8016C 39.2295 18.1065 38.0995 25.7954 33.7017 31.0406C 30.7262 34.6914 26.351 37.1802 21.6793 37.8121C 17.2952 38.4372 12.6959 37.4927 8.94587 35.1238C 6.05413 33.3234 3.6604 30.7303 2.10917 27.6949C 0.120535 23.8816 -0.484073 19.3748 0.389967 15.1669C 1.32519 10.5039 4.10844 6.25097 7.98975 3.50815C 10.8974 1.40599 14.4217 0.221919 17.9939 0ZM 16.8158 0.860507C 11.0356 1.52417 5.72294 5.16361 2.96706 10.2818C 1.10326 13.6858 0.358236 17.6988 0.922182 21.5421C 1.55852 26.1713 4.07633 30.5013 7.7625 33.3663C 10.5682 35.5791 14.0398 36.9383 17.6049 37.2043C 21.6426 37.526 25.7776 36.4479 29.1292 34.174C 33.2392 31.454 36.1561 27.0038 36.9938 22.1461C 37.4762 19.2836 37.313 16.3008 36.4276 13.531C 35.164 9.50433 32.4564 5.94641 28.9032 3.66585C 25.37 1.34747 21.0086 0.341999 16.817 0.860507L 16.8158 0.860507Z" transform="scale(13.4737)" fill="#00206B"/>
</g>
<g id="Vector_2">
<path d="M 9.05654 0.142039C 12.3602 -0.411239 15.9045 0.671757 18.2799 3.04314C 20.389 5.03376 21.6201 7.92821 21.5589 10.8293C 21.5998 13.7146 20.3632 16.5863 18.264 18.5611C 15.9791 20.8326 12.6162 21.9175 9.43009 21.4985C 6.42795 21.1375 3.61697 19.4308 1.91183 16.9328C 0.0256106 14.2567 -0.495203 10.6957 0.484672 7.57728C 1.6327 3.74081 5.09751 0.739967 9.05597 0.142229L 9.05654 0.142039ZM 9.71492 0.799057C 9.7172 1.74348 9.71796 2.6879 9.7172 3.63232C 10.1882 3.63232 10.6592 3.63308 11.1303 3.6346C 11.1326 2.66561 11.1349 1.69661 11.1303 0.728947C 10.6593 0.744717 10.1859 0.766946 9.71492 0.799246L 9.71492 0.799057ZM 13.114 3.67773C 14.3553 3.84474 15.6894 4.03474 16.6789 4.87302C 18.1893 6.22961 17.9945 9.07865 16.1444 10.0615C 17.2518 10.3197 18.3485 11.0581 18.6218 12.222C 18.9773 13.7485 18.6942 15.5783 17.4692 16.6541C 16.2554 17.6529 14.6112 17.7842 13.11 17.9271C 13.1168 18.8104 13.1146 19.6941 13.1123 20.5791C 16.2714 19.8068 18.9978 17.4538 20.1572 14.41C 21.2578 11.6018 20.9974 8.29757 19.4439 5.71111C 18.0717 3.37849 15.7388 1.66412 13.1191 1.0073C 13.1123 1.89725 13.1123 2.7874 13.1146 3.67735L 13.114 3.67773ZM 3.68499 3.63935C 5.05305 3.70509 6.42282 3.69141 7.79279 3.68913C 7.79279 2.8558 7.79507 2.02227 7.78823 1.18893C 6.25505 1.68711 4.88964 2.57954 3.68404 3.63992L 3.68499 3.63935ZM 3.50733 3.69692C 3.11325 4.44647 2.48603 5.03984 2.08739 5.78692C 0.477261 8.52955 0.296183 12.0466 1.63897 14.932C 2.79803 17.5182 5.09713 19.5299 7.78937 20.3967C 7.79393 19.5655 7.79165 18.7321 7.79165 17.9011C 6.41712 17.8874 5.04032 17.9374 3.66846 17.8631C 3.68423 17.0976 3.86322 16.348 4.12448 15.6277C 4.79711 15.6141 5.499 15.7319 6.14902 15.5122C 6.52904 15.1928 6.42073 14.6652 6.44107 14.2282C 6.42073 11.7303 6.45019 9.23217 6.42738 6.73425C 6.45228 6.33107 6.19937 5.89636 5.78136 5.81713C 5.09067 5.679 4.38194 5.73334 3.68442 5.72878C 3.60291 5.16714 3.59378 4.59866 3.58485 4.03018L 3.82483 4.11397C 3.72071 3.97584 3.61431 3.83543 3.50771 3.6973L 3.50733 3.69692ZM 9.77439 5.89674L 9.77439 9.5793C 11.0039 9.55669 12.3672 9.6933 13.4429 8.97909C 14.3359 8.39484 14.2789 6.91361 13.3568 6.38826C 12.2812 5.74968 10.9676 5.93075 9.77439 5.89674ZM 9.77439 11.5608L 9.77439 15.6458C 11.2916 15.5234 12.9945 15.7788 14.3156 14.8622C 15.2599 14.2352 15.1467 12.6835 14.1729 12.1401C 12.8504 11.3497 11.2426 11.6011 9.77515 11.5604L 9.77439 11.5608ZM 9.71815 17.956C 9.71815 18.9004 9.71663 19.8455 9.71359 20.7913C 10.2049 20.8231 10.6963 20.8434 11.1879 20.8571C 11.1924 19.89 11.1901 18.9231 11.1901 17.956L 9.71815 17.956Z" transform="translate(110.724 110.5) scale(13.4737)" fill="#00206B"/>
</g>
</g>
<g id="Vector_3">
<path d="M 15.1979 0.109572C 18.5269 -0.248197 21.9734 0.259101 24.9644 1.79448C 28.8118 3.68099 31.8892 7.07361 33.4044 11.0799C 34.951 15.0931 34.917 19.6837 33.316 23.6769C 30.8793 29.9706 24.4481 34.4977 17.6771 34.5068C 13.7006 34.6518 9.69925 33.3133 6.58539 30.8399C 3.26328 28.2581 0.967024 24.3989 0.258101 20.2522C -0.465832 16.144 0.344935 11.7797 2.54163 8.22862C 5.22493 3.77618 10.034 0.698379 15.1979 0.109572ZM 14.6182 5.68548C 11.9121 6.29462 9.43932 7.89346 7.77941 10.1174C 5.94886 12.5272 5.10959 15.6593 5.48315 18.6601C 5.8341 21.8711 7.58921 24.8995 10.1978 26.8018C 12.6391 28.6362 15.8116 29.4428 18.8347 29.028C 22.5689 28.572 26.002 26.1948 27.7434 22.8612C 29.0478 20.4832 29.4056 17.6552 28.9278 15.0004C 28.3186 11.7822 26.3077 8.85847 23.511 7.15075C 20.891 5.5217 17.6234 4.9992 14.6182 5.68548Z" transform="translate(23.2763 23.3947) scale(13.4737)" fill="#EBA809"/>
</g>
</g>
</g>
</svg>

