<svg width="512" height="418" viewBox="0 0 512 418" version="1.1" xmlns="http://www.w3.org/2000/svg" xmlns:xlink="http://www.w3.org/1999/xlink">
<g id="Canvas" fill="none">
<g id="&#208;&#154;&#208;&#176;&#209;&#128;&#209;&#130;&#208;&#176; ">
<g id="Vector">
<path d="M 3.7243 18.1105L 7.54937 16.4375C 7.69938 15.2588 7.99938 14.1562 7.92438 12.9394L 2.52427 15.2968L 1.47425 12.8254C 1.43675 12.7874 1.47425 12.7113 1.51175 12.7113L 27.0873 1.49475C 27.1248 1.45673 27.1998 1.49475 27.1998 1.53277L 28.2498 4.00422L 12.0495 11.1144C 14.562 11.1144 17.0746 11.1144 19.6246 11.1144L 29.4498 6.81786L 31.3249 11.2284C 31.8124 11.1904 32.2999 11.0003 32.8249 10.8862L 28.5873 0.962438C 28.2498 0.163971 27.3123 -0.216251 26.4873 0.125949L 0.949238 11.3045C 0.161722 11.6467 -0.213286 12.5972 0.124221 13.4337L 7.02436 29.5932C 7.21187 29.9734 7.51187 30.2776 7.88688 30.4297C 7.88688 29.6312 7.92438 28.9088 8.03688 28.1103L 3.7243 18.1105Z" transform="scale(13.4737)" fill="#565285"/>
</g>
<g id="Group">
<g id="Vector_2">
<path d="M 29.4381 2.90087e-07L 1.61253 2.90087e-07C 0.750015 2.90087e-07 -2.86108e-07 0.722422 -2.86108e-07 1.63496L -2.86108e-07 19.2392C -2.86108e-07 20.1138 0.712515 20.8742 1.61253 20.8742L 29.4381 20.8742C 30.3006 20.8742 31.0506 20.1518 31.0506 19.2392L 31.0506 1.59693C 31.0131 0.722423 30.3006 2.90087e-07 29.4381 2.90087e-07ZM 29.5131 19.2012C 29.5131 19.2392 29.4756 19.3153 29.4006 19.3153L 1.61253 19.3153C 1.57503 19.3153 1.50003 19.2773 1.50003 19.2012L 1.50003 1.59693C 1.50003 1.55891 1.53753 1.48287 1.61253 1.48287L 29.4381 1.48287C 29.4756 1.48287 29.5506 1.52089 29.5506 1.59693L 29.5506 19.2012L 29.5131 19.2012Z" transform="translate(93.6316 136.421) scale(13.4737)" fill="#565285"/>
</g>
<g id="Vector_3">
<path d="M 4.8751 -5.80173e-07L 0.600012 -5.80173e-07C 0.262505 -5.80173e-07 -2.86108e-07 0.266154 -2.86108e-07 0.608355L -2.86108e-07 0.912534C -2.86108e-07 1.25473 0.262505 1.52089 0.600012 1.52089L 4.8751 1.52089C 5.21261 1.52089 5.47511 1.25473 5.47511 0.912534L 5.47511 0.608355C 5.47511 0.266154 5.21261 -5.80173e-07 4.8751 -5.80173e-07Z" transform="translate(136.579 343.395) scale(13.4737)" fill="#565285"/>
</g>
<g id="Vector_4">
<path d="M 4.9126 -5.80173e-07L 0.600013 -5.80173e-07C 0.262506 -5.80173e-07 -2.86108e-07 0.266154 -2.86108e-07 0.608355L -2.86108e-07 0.912534C -2.86108e-07 1.25473 0.262506 1.52089 0.600013 1.52089L 4.8751 1.52089C 5.21261 1.52089 5.47511 1.25473 5.47511 0.912534L 5.47511 0.608355C 5.47511 0.266154 5.21261 -5.80173e-07 4.9126 -5.80173e-07Z" transform="translate(222.48 343.395) scale(13.4737)" fill="#565285"/>
</g>
<g id="Vector_5">
<path d="M 4.9126 -5.80173e-07L 0.600012 -5.80173e-07C 0.262505 -5.80173e-07 0 0.266154 0 0.608355L 0 0.912534C 0 1.25473 0.262505 1.52089 0.600012 1.52089L 4.8751 1.52089C 5.21261 1.52089 5.47511 1.25473 5.47511 0.912534L 5.47511 0.608355C 5.47511 0.266154 5.21261 -5.80173e-07 4.9126 -5.80173e-07Z" transform="translate(309.382 343.395) scale(13.4737)" fill="#565285"/>
</g>
<g id="Vector_6">
<path d="M 4.8751 -5.80173e-07L 0.600011 -5.80173e-07C 0.262504 -5.80173e-07 -5.72216e-07 0.266154 -5.72216e-07 0.608355L -5.72216e-07 0.912534C -5.72216e-07 1.25473 0.262504 1.52089 0.600011 1.52089L 4.8751 1.52089C 5.21261 1.52089 5.47511 1.25473 5.47511 0.912534L 5.47511 0.608355C 5.47511 0.266154 5.21261 -5.80173e-07 4.8751 -5.80173e-07Z" transform="translate(395.789 343.395) scale(13.4737)" fill="#565285"/>
</g>
<g id="Vector_7">
<path d="M 0.528593 4.03036L 7.12873 4.03036C 7.42874 4.03036 7.65374 3.80222 7.65374 3.49805L 7.65374 0.532312C 7.65374 0.228134 7.42874 0 7.12873 0L 0.528593 0C 0.228587 0 0.00358242 0.228134 0.00358242 0.532312L 0.00358242 3.49805C -0.0339183 3.80222 0.228587 4.03036 0.528593 4.03036ZM 1.46611 1.52089L 6.15371 1.52089L 6.15371 2.50947L 1.46611 2.50947L 1.46611 1.52089Z" transform="translate(137.039 186.632) scale(13.4737)" fill="#565285"/>
</g>
</g>
</g>
</g>
</svg>

