<svg width="36" height="23" viewBox="0 0 36 23" fill="none" xmlns="http://www.w3.org/2000/svg">
    <path d="M0 0H36V22.2857H0V0Z" fill="#6CA841"/>
    <path d="M29.443 3.42871H6.55728C6.3041 4.1516 5.8914 4.8082 5.3498 5.3498C4.8082 5.8914 4.1516 6.3041 3.42871 6.55728V15.7287C4.1516 15.9819 4.8082 16.3946 5.3498 16.9362C5.8914 17.4778 6.3041 18.1344 6.55728 18.8573H29.443C29.6962 18.1344 30.1089 17.4778 30.6505 16.9362C31.1921 16.3946 31.8487 15.9819 32.5716 15.7287V6.55728C31.8487 6.3041 31.1921 5.8914 30.6505 5.3498C30.1089 4.8082 29.6962 4.1516 29.443 3.42871Z" fill="#84C474"/>
    <path d="M17.9997 13.713C17.7723 13.713 17.5543 13.6227 17.3936 13.462C17.2328 13.3012 17.1425 13.0832 17.1425 12.8559C17.1425 12.6286 17.0522 12.4105 16.8915 12.2498C16.7307 12.089 16.5127 11.9987 16.2854 11.9987C16.058 11.9987 15.84 12.089 15.6793 12.2498C15.5185 12.4105 15.4282 12.6286 15.4282 12.8559C15.4304 13.3858 15.5963 13.9021 15.9032 14.3342C16.21 14.7663 16.6429 15.093 17.1425 15.2696V16.2845C17.1425 16.5118 17.2328 16.7298 17.3936 16.8906C17.5543 17.0513 17.7723 17.1416 17.9997 17.1416C18.227 17.1416 18.445 17.0513 18.6057 16.8906C18.7665 16.7298 18.8568 16.5118 18.8568 16.2845V15.2696C19.4282 15.0683 19.91 14.6713 20.2168 14.1489C20.5235 13.6264 20.6355 13.0123 20.5328 12.4152C20.4302 11.8181 20.1195 11.2766 19.6559 10.8866C19.1922 10.4966 18.6055 10.2833 17.9997 10.2845C17.8301 10.2845 17.6644 10.2342 17.5234 10.14C17.3825 10.0458 17.2726 9.91195 17.2078 9.75533C17.1429 9.59871 17.1259 9.42636 17.159 9.26009C17.1921 9.09383 17.2737 8.9411 17.3936 8.82122C17.5134 8.70135 17.6662 8.61972 17.8324 8.58664C17.9987 8.55357 18.171 8.57054 18.3277 8.63542C18.4843 8.70029 18.6182 8.81016 18.7123 8.95111C18.8065 9.09207 18.8568 9.25779 18.8568 9.42732C18.8568 9.65464 18.9471 9.87266 19.1078 10.0334C19.2686 10.1942 19.4866 10.2845 19.7139 10.2845C19.9413 10.2845 20.1593 10.1942 20.32 10.0334C20.4808 9.87266 20.5711 9.65464 20.5711 9.42732C20.5689 8.89738 20.403 8.38106 20.0961 7.949C19.7893 7.51694 19.3564 7.19024 18.8568 7.0136V5.99874C18.8568 5.77142 18.7665 5.5534 18.6057 5.39265C18.445 5.23191 18.227 5.1416 17.9997 5.1416C17.7723 5.1416 17.5543 5.23191 17.3936 5.39265C17.2328 5.5534 17.1425 5.77142 17.1425 5.99874V7.0136C16.5711 7.21488 16.0893 7.6119 15.7825 8.13434C15.4758 8.65679 15.3638 9.27095 15.4665 9.86804C15.5691 10.4651 15.8798 11.0066 16.3434 11.3966C16.8071 11.7866 17.3938 11.9999 17.9997 11.9987C18.227 11.9987 18.445 12.089 18.6057 12.2498C18.7665 12.4105 18.8568 12.6286 18.8568 12.8559C18.8568 13.0832 18.7665 13.3012 18.6057 13.462C18.445 13.6227 18.227 13.713 17.9997 13.713Z" fill="#F1F2F2"/>
    <path d="M24.8571 11.9975H28.2857C28.513 11.9975 28.7311 11.9072 28.8918 11.7464C29.0526 11.5857 29.1429 11.3677 29.1429 11.1403C29.1429 10.913 29.0526 10.695 28.8918 10.5343C28.7311 10.3735 28.513 10.2832 28.2857 10.2832H24.8571C24.6298 10.2832 24.4118 10.3735 24.2511 10.5343C24.0903 10.695 24 10.913 24 11.1403C24 11.3677 24.0903 11.5857 24.2511 11.7464C24.4118 11.9072 24.6298 11.9975 24.8571 11.9975Z" fill="#F1F2F2"/>
    <path d="M7.71408 11.9975H11.1426C11.37 11.9975 11.588 11.9072 11.7487 11.7464C11.9095 11.5857 11.9998 11.3677 11.9998 11.1403C11.9998 10.913 11.9095 10.695 11.7487 10.5343C11.588 10.3735 11.37 10.2832 11.1426 10.2832H7.71408C7.48675 10.2832 7.26873 10.3735 7.10798 10.5343C6.94724 10.695 6.85693 10.913 6.85693 11.1403C6.85693 11.3677 6.94724 11.5857 7.10798 11.7464C7.26873 11.9072 7.48675 11.9975 7.71408 11.9975Z" fill="#F1F2F2"/>
</svg>
