<svg width="512" height="205" viewBox="0 0 512 205" version="1.1" xmlns="http://www.w3.org/2000/svg" xmlns:xlink="http://www.w3.org/1999/xlink">
<g id="Canvas" fill="none">
<rect width="512" height="204.8" fill="#E5E5E5"/>
<g id="Asset 1">
<g id="Layer 2">
<g id="Layer 1">
<g id="Vector">
<path d="M -3.55768e-07 3.10443C 0.729908 2.15721 1.45998 1.21015 2.19021 0.263251C 2.25821 0.17526 2.31407 0.0752487 2.41851 0.0204349C 2.51323 -0.012261 2.61281 0.00408714 2.70704 0.00408714C 7.0826 0.00408714 11.4578 0.00408714 15.8328 0.00408714C 15.9974 -0.00168273 15.9479 0.0935203 15.91 0.174779C 15.774 0.472514 15.6224 0.763007 15.4558 1.04507C 15.075 1.68408 14.7296 2.34329 14.3634 2.98807C 14.3148 3.07654 14.2794 3.18569 14.1424 3.17704C 9.5165 3.17704 4.8911 3.17559 0.266187 3.17271C 0.18021 3.17079 0.0548885 3.25253 -3.55768e-07 3.10443Z" transform="translate(253.169 147.225) scale(12.8)" fill="#578DCA"/>
</g>
<g id="Vector_2">
<path d="M 1.87077 0.00721233C 1.96792 0.00480822 2.06507 1.10052e-08 2.16222 1.10052e-08L 15.678 1.10052e-08L 15.9209 1.10052e-08C 15.7076 0.294744 15.5187 0.559197 15.3263 0.820765C 14.7612 1.59008 14.1945 2.3594 13.6262 3.12871C 13.5417 3.17151 13.4513 3.14987 13.3639 3.14987C 9.0094 3.14987 4.65488 3.14987 0.300369 3.14987C 0.251795 3.14987 0.203221 3.14747 0.154646 3.14987C -0.00419125 3.15949 -0.0255639 3.07823 0.0230103 2.95417C 0.0652947 2.84134 0.118488 2.73281 0.181848 2.6301C 0.659332 1.87713 1.1135 1.1107 1.56913 0.34475C 1.64733 0.215889 1.72019 0.0754892 1.87077 0.00721233Z" transform="translate(61.9625 11.55) scale(12.8)" fill="#578DCA"/>
</g>
<g id="Vector_3">
<path d="M 0.00822817 15.0472C 0.944415 13.3823 1.88012 11.7174 2.81533 10.0524C 4.07826 7.80859 5.34362 5.56475 6.6114 3.32091C 6.63035 3.28725 6.64395 3.25023 6.66726 3.20022C 6.57789 3.15214 6.48851 3.16897 6.40545 3.16897C 4.90791 3.16897 3.41036 3.16416 1.91331 3.17186C 1.69472 3.17186 1.67044 3.13099 1.76759 2.9425C 2.22775 2.04272 2.6811 1.13926 3.12766 0.232105C 3.19615 0.0936285 3.27339 0.0330449 3.43902 0.032564C 5.56722 0.0271147 7.69526 0.0165366 9.82313 0.000829736C 10.0497 -0.00546381 10.2758 0.0240777 10.493 0.0883395C 10.8723 0.208545 11.021 0.466747 10.9258 0.848039C 10.8663 1.07343 10.7599 1.28404 10.6134 1.46638C 8.44702 4.26188 6.28158 7.05803 4.11712 9.85481C 2.76352 11.6021 1.40927 13.3491 0.0543742 15.0958C 0.011629 15.1049 -0.014116 15.0987 0.00822817 15.0472Z" transform="translate(234.975 11.525) scale(12.8)" fill="#578DCA"/>
</g>
<g id="Vector_4">
<path d="M 10.0513 0.0250028C 9.91675 0.294264 9.78414 0.564005 9.64813 0.832304C 8.32076 3.45086 6.9942 6.06894 5.66845 8.68654C 5.23323 9.54497 4.79719 10.4028 4.36035 11.2599C 4.23163 11.5133 4.23308 11.5143 4.5119 11.5143C 5.87198 11.5143 7.23205 11.5167 8.59213 11.5104C 8.79371 11.5104 8.82723 11.5393 8.72328 11.7263C 8.21277 12.6447 7.71245 13.5688 7.21505 14.4944C 7.15045 14.6141 7.08147 14.6699 6.93672 14.6694C 4.88155 14.6622 2.82589 14.6661 0.770715 14.6545C 0.112049 14.6507 -0.161425 14.216 0.0955329 13.6174C 0.147795 13.5001 0.212953 13.3888 0.28983 13.2856C 1.03172 12.2656 1.77555 11.2469 2.52133 10.2295L 9.89878 0.130303C 9.93132 0.0860673 9.96629 0.043274 10.0003 0L 10.0513 0.0250028Z" transform="translate(150.069 0) scale(12.8)" fill="#578DCA"/>
</g>
<g id="Vector_5">
<path d="M -5.92947e-08 5.69289C 0.35362 4.94713 0.689754 4.23455 1.02929 3.52293C 1.55826 2.41416 2.09112 1.3073 2.61621 0.196601C 2.68227 0.0566816 2.75367 -0.00582548 2.92125 0.000425213C 3.33365 0.0158115 3.74701 0.00908027 4.15941 0.0033104C 4.27647 0.0033104 4.32213 0.0225431 4.32942 0.156693C 4.37799 1.03564 4.43482 1.9141 4.42122 2.80122C 4.51837 2.78824 4.51837 2.69832 4.54314 2.64207C 4.93174 1.82948 5.31612 1.01512 5.69629 0.199005C 5.75944 0.0634132 5.8289 -0.00534435 5.99891 0.00186799C 6.39431 0.0191776 6.79067 0.00763763 7.22833 0.00763763C 7.05297 0.379314 6.88831 0.728872 6.72364 1.07651C 6.02126 2.55263 5.31499 4.02732 4.61941 5.50633C 4.55092 5.65057 4.4766 5.70587 4.31387 5.69866C 3.96657 5.68471 3.61781 5.68567 3.27001 5.69866C 3.10243 5.70491 3.05677 5.6573 3.04997 5.48806C 3.01403 4.53891 2.96205 3.58977 2.91542 2.63149C 2.84208 2.65553 2.8411 2.72765 2.81827 2.77573C 2.3837 3.69058 1.95203 4.60671 1.52329 5.52412C 1.465 5.64913 1.40282 5.70346 1.25661 5.69914C 0.851505 5.68519 0.446882 5.69289 -5.92947e-08 5.69289Z" transform="translate(112.712 63.7) scale(12.8)" fill="#010101"/>
</g>
<g id="Vector_6">
<path d="M 3.65669 4.24047C 3.5746 4.68379 3.49931 5.09778 3.42111 5.51128C 3.40896 5.57475 3.34728 5.59591 3.29676 5.61562C 2.73087 5.8368 2.14166 5.93056 1.54129 5.83344C 0.756812 5.7065 0.165664 5.06123 0.0325712 4.28567C -0.0971219 3.53126 0.178295 2.87638 0.543573 2.26285C 1.43248 0.767486 2.75224 -0.0244285 4.53006 0.000574324C 4.86133 0.00538255 5.18727 0.061158 5.48308 0.227042C 5.59723 0.290991 5.63658 0.352537 5.5472 0.485725C 5.32473 0.817973 5.12218 1.16417 4.91574 1.50651C 4.87153 1.5796 4.84773 1.63633 4.7399 1.57431C 4.08123 1.19494 3.1044 1.36803 2.51666 1.89502C 2.00913 2.33695 1.67442 2.94121 1.57091 3.60242C 1.49271 4.08613 1.74141 4.41453 2.23201 4.47271C 2.61055 4.5152 2.99389 4.47129 3.35262 4.34433L 3.65669 4.24047Z" transform="translate(377.019 62.6625) scale(12.8)" fill="#010101"/>
</g>
<g id="Vector_7">
<path d="M 3.6597 4.22815C 3.57421 4.66089 3.49358 5.05276 3.42266 5.44415C 3.40663 5.53214 3.37409 5.58839 3.29054 5.61917C 2.70765 5.83602 2.10484 5.93939 1.48698 5.82255C 0.667049 5.66821 0.0608426 4.9489 0.0059538 4.12092C -0.0518495 3.24631 0.318286 2.51017 0.809857 1.8399C 1.72985 0.585433 2.98695 -0.0506955 4.5695 0.00315662C 4.89106 0.0142155 5.21116 0.0632595 5.49484 0.240202C 5.59539 0.302709 5.62259 0.354638 5.54924 0.467151C 5.33163 0.803727 5.12907 1.148 4.91778 1.48842C 4.87892 1.55189 4.86143 1.63699 4.74097 1.58026C 3.85692 1.16434 3.07099 1.36869 2.39386 2.00675C 1.89549 2.47603 1.58704 3.06456 1.55936 3.76031C 1.54333 4.16372 1.78231 4.41711 2.19082 4.47096C 2.69356 4.5378 3.16813 4.43346 3.6597 4.22815Z" transform="translate(0 62.65) scale(12.8)" fill="#010101"/>
</g>
<g id="Vector_8">
<path d="M -1.42307e-06 5.6891L 2.05809 1.39775C 1.63258 1.39775 1.23961 1.3891 0.847619 1.4016C 0.665951 1.40737 0.665465 1.35352 0.734926 1.2184C 0.915622 0.863077 1.09001 0.504383 1.26147 0.144247C 1.30616 0.0480821 1.35328 -1.76083e-07 1.47374 -1.76083e-07C 2.84985 0.00528887 4.22547 0.00336567 5.60255 0.00384649C 5.6341 0.00779604 5.66529 0.0142274 5.69581 0.0230795C 5.48403 0.460147 5.2737 0.88856 5.07115 1.31697C 5.02257 1.41747 4.94582 1.39823 4.86859 1.39871C 4.51254 1.39871 4.15601 1.40593 3.79996 1.39583C 3.65958 1.39198 3.59012 1.43622 3.5294 1.56412C 2.90377 2.8734 2.2723 4.17931 1.65201 5.49148C 1.57817 5.64823 1.49414 5.69775 1.32559 5.69294C 0.897652 5.68092 0.469225 5.6891 -1.42307e-06 5.6891Z" transform="translate(439.094 63.7625) scale(12.8)" fill="#010101"/>
</g>
<g id="Vector_9">
<path d="M 5.70358 0.00480836C 5.4816 0.46736 5.27564 0.889041 5.07746 1.31361C 5.03131 1.41218 4.95554 1.40016 4.87636 1.40016C 4.52031 1.40016 4.16427 1.40977 3.80773 1.39631C 3.65327 1.39054 3.58186 1.44439 3.5192 1.57902C 2.89648 2.88926 2.26453 4.19518 1.64424 5.50638C 1.57526 5.65063 1.49851 5.69871 1.33968 5.69871C 0.905423 5.68621 0.470198 5.69438 -3.55768e-07 5.69438L 2.05566 1.40112C 1.64327 1.40112 1.26487 1.39631 0.886479 1.40112C 0.73007 1.404 0.656723 1.39342 0.750472 1.21264C 0.934082 0.85875 1.10215 0.497171 1.27021 0.135592C 1.31199 0.0461588 1.35571 -1.61409e-07 1.46451 -1.61409e-07C 2.86539 0.00625053 4.26481 0.00480836 5.70358 0.00480836Z" transform="translate(234.825 63.7125) scale(12.8)" fill="#010101"/>
</g>
<g id="Subtract">
<path fill-rule="evenodd" clip-rule="evenodd" d="M 0.030764 4.64752C 0.175783 5.46002 0.74219 5.8731 1.67432 5.8731C 2.12744 5.88287 2.57666 5.78619 2.98487 5.59185C 4.63867 4.78423 5.49268 3.40923 5.72412 1.64849C 5.83838 0.780328 5.33399 0.191461 4.46338 0.0400939C 3.75 -0.0849061 3.08203 0.0918517 2.46485 0.438531C 1.21533 1.1397 0.493166 2.23931 0.104494 3.57916C -0.00243917 3.92486 -0.0278298 4.29107 0.030764 4.64752ZM 2.95947 4.22564C 3.646 3.62701 3.99805 2.84869 4.14014 2.1397C 4.17627 1.54595 3.98487 1.34771 3.55322 1.35162C 3.25635 1.35552 3.00244 1.47466 2.78613 1.66021C 2.10694 2.24029 1.72168 2.98736 1.57959 3.8565C 1.51367 4.25787 1.75879 4.52056 2.16651 4.52935C 2.46045 4.53326 2.74414 4.42388 2.95947 4.22564Z" transform="translate(55.3187 62.55) scale(12.8)" fill="#010101"/>
</g>
<g id="Subtract_2">
<path fill-rule="evenodd" clip-rule="evenodd" d="M 2.14111 3.0145L 0 5.69028C 0.110352 5.69028 0.21582 5.68735 0.317871 5.68442C 0.549316 5.67661 0.762695 5.66978 0.970215 5.70396C 1.21826 5.74009 1.42773 5.71958 1.60791 5.64146C 1.81885 5.54966 1.98926 5.37974 2.13281 5.12974L 2.15918 5.08286C 2.31445 4.81235 2.49316 4.50083 2.74561 4.37583C 3.01221 4.24399 3.39404 4.34067 3.7251 4.33677L 3.74951 4.33677C 3.91309 4.31138 3.95996 4.37095 3.91943 4.53306C 3.88379 4.67661 3.85303 4.82114 3.82275 4.96567C 3.78564 5.14146 3.74854 5.31626 3.70264 5.48911C 3.6543 5.67173 3.71533 5.70396 3.88477 5.69907C 4.28125 5.68638 4.67871 5.68052 5.07471 5.69907C 5.27246 5.70689 5.31348 5.62485 5.34082 5.45884C 5.45557 4.75767 5.58252 4.05845 5.70605 3.35825L 5.99707 1.6981C 6.08398 1.20591 6.17188 0.713721 6.26318 0.221534C 6.29736 0.0350102 6.24805 -0.00502885 6.06396 0.000830528C 5.61963 0.0125493 5.17383 0.00864303 4.72852 0.000830528C 4.68896 -0.00209916 4.64893 0.00278365 4.61182 0.0145024L 4.56934 0.0320805C 4.52002 0.0564946 4.47803 0.0926274 4.44775 0.138526C 3.94141 0.775245 3.43164 1.40903 2.92188 2.04282L 2.14111 3.0145ZM 4.46094 2.15708L 4.52686 1.86021L 4.47021 1.84458C 4.32422 2.04185 4.16846 2.23618 4.03271 2.43735C 3.98779 2.50376 3.93896 2.56821 3.88965 2.63364C 3.79102 2.7645 3.68945 2.89829 3.61133 3.06235L 4.14551 3.06235C 4.21338 3.06333 4.26611 3.05845 4.28418 2.97153C 4.34033 2.70005 4.40088 2.42856 4.46094 2.15708Z" transform="translate(300.469 63.7375) scale(12.8)" fill="#010101"/>
</g>
</g>
</g>
</g>
</g>
</svg>

