<svg width="512" height="107" viewBox="0 0 512 107" fill="none" xmlns="http://www.w3.org/2000/svg">
<path d="M391.622 5.41216L389.558 5.51224C387.569 5.6181 385.669 6.13503 383.952 6.99355C382.231 7.85538 380.671 9.05218 379.397 10.5021C378.111 11.9569 377.093 13.6591 376.417 15.5134C375.742 17.3719 375.411 19.3817 375.506 21.4461L378.795 95.7626C378.878 97.6062 379.34 99.2951 380.126 100.763C380.896 102.235 381.962 103.495 383.249 104.478C384.539 105.457 386.048 106.167 387.693 106.554C389.322 106.934 391.1 106.995 392.94 106.682L408.64 103.952L429.308 100.373L444.462 97.7551C443.883 97.6864 443.309 97.5988 442.745 97.497C442.181 97.3945 441.626 97.2737 441.087 97.1397C440.544 97.0024 440.008 96.8445 439.487 96.6699C438.961 96.4954 438.458 96.3052 437.947 96.086C436.923 95.6551 435.953 95.1812 435.029 94.6593C434.113 94.1333 433.236 93.5609 432.417 92.9422C431.603 92.3194 430.839 91.6586 430.117 90.9506C429.404 90.2401 428.747 89.4726 428.139 88.6662C427.243 87.457 426.32 86.0576 425.367 84.4629C424.405 82.8542 423.411 81.0479 422.387 79.0463C421.357 77.0216 420.294 74.7876 419.187 72.3535C418.075 69.9028 416.94 67.2322 415.751 64.3406L391.622 5.41216Z" fill="#00ADEE"/>
<path d="M464.56 1.84843L417.91 4.13616L436.794 54.2512C437.62 56.4512 438.383 58.4363 439.093 60.2178C439.808 61.9927 440.448 63.5535 441.036 64.9157C441.615 66.268 442.142 67.4242 442.618 68.3812C443.083 69.3323 443.501 70.0941 443.858 70.6441C444.441 71.5415 445.086 72.333 445.776 73.0485C446.468 73.7473 447.21 74.3586 448.003 74.8846C448.791 75.4032 449.631 75.8308 450.519 76.1707C451.413 76.5164 452.357 76.758 453.344 76.925C453.689 76.9755 454.056 77.0193 454.415 77.0491C454.782 77.0813 455.15 77.0938 455.515 77.0938C455.897 77.0938 456.272 77.0813 456.653 77.0491C457.038 77.016 457.423 76.9697 457.818 76.9176C458.52 76.8117 459.243 76.6595 459.983 76.4643C460.724 76.2691 461.479 76.0144 462.25 75.7373C463.023 75.4437 463.804 75.1129 464.6 74.7266C465.403 74.3453 466.22 73.9243 467.059 73.4554C468.373 72.7085 469.573 71.9468 470.677 71.1627C471.775 70.3786 472.768 69.5664 473.658 68.7344C474.54 67.9106 475.33 67.0521 476.002 66.1811C476.684 65.3077 477.266 64.4045 477.736 63.4732C478.213 62.5535 478.608 61.6354 478.927 60.7157C479.262 59.8018 479.504 58.8928 479.672 57.9789C479.845 57.0683 479.944 56.1651 479.966 55.2619C479.987 54.3537 479.93 53.4489 479.799 52.5532C479.665 51.6533 479.479 50.617 479.222 49.4532C478.97 48.2887 478.652 46.9968 478.279 45.5585C477.892 44.1226 477.452 42.5561 476.952 40.8424C476.435 39.1254 475.861 37.2677 475.226 35.2678L464.56 1.84843Z" fill="#E93A26"/>
<path d="M502.122 0.0125856L486.416 0.778473L492.816 22.6732C493.699 25.7037 494.486 28.5083 495.17 31.0872C495.854 33.6495 496.44 36.0042 496.924 38.1373C497.404 40.2687 497.792 42.1876 498.097 43.9104C498.387 45.6142 498.591 47.1269 498.701 48.4412C498.808 49.7488 498.859 51.0349 498.84 52.3078C498.831 53.5716 498.753 54.818 498.604 56.0388C498.465 57.2671 498.255 58.473 497.987 59.6549C497.722 60.8368 497.398 62.0096 497.005 63.1617C496.608 64.3114 496.155 65.4453 495.631 66.571C495.107 67.7049 494.526 68.8215 493.867 69.9273C493.216 71.0398 492.506 72.1365 491.718 73.2249C490.926 74.3216 490.075 75.4035 489.161 76.4812C488.239 77.5564 487.223 78.6291 486.095 79.6903C484.97 80.7531 483.745 81.8143 482.421 82.8547C481.081 83.9134 479.651 84.9564 478.103 85.9911C476.546 87.039 474.89 88.0745 473.132 89.1075C472.151 89.6848 471.187 90.2258 470.239 90.7501C469.291 91.2646 468.372 91.7592 467.473 92.2157C466.567 92.6863 465.684 93.1156 464.818 93.5209C463.957 93.9311 463.116 94.3083 462.295 94.6523L497.698 88.5203C499.091 88.2763 500.431 87.7263 501.661 86.948C502.884 86.1672 504.003 85.14 504.961 83.9597C505.916 82.7729 506.711 81.4239 507.299 79.974C507.878 78.5307 508.235 76.9807 508.334 75.401L511.974 12.275C512.072 10.5315 511.879 8.87981 511.436 7.39353C510.991 5.89154 510.311 4.55744 509.423 3.44087C508.536 2.32016 507.446 1.43021 506.213 0.833883C504.979 0.243341 503.596 -0.0635067 502.122 0.0125856Z" fill="#FFC627"/>
<path d="M72.8302 34.6318C69.4003 32.5782 65.7082 30.9637 61.7423 29.7892C57.7772 28.6131 53.7377 28.0242 49.6304 28.0242C41.6977 28.0242 35.3597 30.5237 30.6139 35.5185C25.8648 40.5091 23.4918 47.3641 23.4918 56.0733C23.4918 64.8851 25.7903 71.8327 30.3947 76.9243C34.9933 82.0158 41.4529 84.56 49.7759 84.56C54.2778 84.56 58.5836 83.8776 62.6975 82.5063C66.8115 81.1333 70.5747 79.3253 74.0063 77.0707L78.8506 97.7752C75.2255 99.7371 70.6508 101.324 65.1184 102.548C59.5885 103.772 54.1297 104.383 48.7478 104.383C41.4066 104.383 34.7444 103.329 28.7761 101.226C22.8037 99.1225 17.6923 96.0615 13.4328 92.0484C9.17408 88.0362 5.87234 83.0712 3.52009 77.1434C1.17116 71.2231 0 64.3963 0 56.6589C0 49.2209 1.14717 42.5165 3.44731 36.5441C5.74579 30.5733 9.05333 25.4801 13.3567 21.2752C17.6658 17.0661 22.8765 13.833 28.9994 11.5792C35.1149 9.32869 41.9417 8.20467 49.4823 8.20467C55.0619 8.20467 60.4694 8.84236 65.7082 10.1153C70.942 11.3857 75.668 13.0506 79.8762 15.1059L72.8302 34.6318Z" fill="#00ADEE"/>
<path d="M178.405 102.184H155.204L148.453 82.6519H114.381L107.775 102.184H84.5742L117.172 10.4072H146.394L178.405 102.184ZM131.564 28.4725L119.376 64.446H143.312L131.564 28.4725Z" fill="#00ADEE"/>
<path d="M218.783 85.1472C222.897 85.1472 226.247 84.4136 228.845 82.9471C231.437 81.479 232.734 79.3253 232.734 76.4859C232.734 74.9194 232.316 73.5969 231.485 72.5208C230.651 71.4448 229.455 70.4878 227.89 69.6558C226.324 68.8246 224.363 68.0388 222.018 67.3069C219.665 66.5724 216.972 65.7643 213.939 64.8851C210.609 64.001 207.206 62.8803 203.732 61.5073C200.257 60.136 197.076 58.3983 194.188 56.295C191.299 54.1933 188.951 51.5458 187.14 48.364C185.328 45.1847 184.425 41.2957 184.425 36.6929C184.425 28.1731 187.458 21.324 193.529 16.134C199.597 10.9498 208.309 8.35189 219.665 8.35189C226.907 8.35189 233.344 9.08551 238.974 10.5536C244.602 12.0217 249.618 13.9802 254.027 16.4259L249.475 35.6674C244.872 33.2167 239.929 31.2581 234.644 29.7901C229.356 28.322 224.413 27.5859 219.813 27.5859C211.783 27.5859 207.771 30.1838 207.771 35.3696C207.771 36.8344 208.26 38.137 209.239 39.2611C210.215 40.3892 211.588 41.3685 213.35 42.1972C215.113 43.0293 217.168 43.8101 219.517 44.5478C221.87 45.2814 224.413 46.0415 227.152 46.8223C230.679 47.8032 234.15 48.9794 237.579 50.3474C241.007 51.7203 244.088 53.4556 246.832 55.5589C249.57 57.6679 251.77 60.2567 253.44 63.3451C255.1 66.426 255.936 70.1702 255.936 74.5778C255.936 78.9821 255.1 82.9934 253.44 86.6169C251.77 90.2387 249.351 93.3718 246.169 96.0135C242.986 98.656 239.072 100.713 234.425 102.181C229.773 103.649 224.413 104.383 218.343 104.383C211.49 104.383 204.956 103.599 198.738 102.032C192.523 100.47 187.263 98.4633 182.955 96.0135L187.359 76.6315C191.962 79.0805 196.929 81.111 202.265 82.7279C207.598 84.3408 213.104 85.1472 218.783 85.1472Z" fill="#00ADEE"/>
<path d="M331.264 102.184V65.7668H294.405V102.184H271.059V10.4072H294.405V46.092H331.264V10.4072H354.61V102.184H331.264Z" fill="#00ADEE"/>
</svg>
