<svg width="54" height="8" viewBox="0 0 54 8" fill="none" xmlns="http://www.w3.org/2000/svg">
<path d="M11.394 0L10.3371 3.0829H4.69028L5.74714 0H2.73857L1.88337e-06 7.99187H3.00085L4.05771 4.90898H9.70457L8.64771 7.99187H11.6563L14.3949 0H11.394Z" transform="translate(39.605 0.000976562)" fill="#3B72BC"/>
<path d="M12.5434 3.68913C12.4123 3.49691 12.2271 3.34165 12.0189 3.23815C11.7874 3.13465 11.5329 3.0829 11.2783 3.0829H4.68257L5.05285 1.97394H13.7083L14.3949 0H4.79828C4.50514 0 4.21971 0.0517513 3.94971 0.155254C3.64114 0.258756 3.36343 0.41401 3.11657 0.613622C2.90057 0.813234 2.63828 1.02024 2.47628 1.2716C2.28343 1.51557 2.12143 1.78912 2.00571 2.07744L1.74343 2.83153C1.674 3.09768 1.64314 3.37123 1.63543 3.64477C1.68171 3.89613 1.74343 4.14749 1.85143 4.30275C1.98257 4.49497 2.16771 4.65022 2.376 4.76112C2.59971 4.87941 2.85428 4.94594 3.11657 4.96073H9.71228L9.342 6.02533H0.678858L-4.70842e-07 7.99927H9.59657C9.88971 7.99927 10.1751 7.94752 10.4451 7.84401C10.7537 7.74051 11.0314 7.58526 11.2783 7.39304C11.4943 7.19343 11.7566 6.98642 11.9186 6.73506C12.1191 6.49109 12.2734 6.21755 12.3891 5.92922L12.6514 5.17513C12.7363 4.90898 12.7749 4.63544 12.7594 4.36189C12.7054 4.09574 12.6514 3.85177 12.5434 3.68913Z" transform="translate(26.5293 0.000976562)" fill="#3B72BC"/>
<path d="M13.8163 1.22047C13.77 0.969108 13.7083 0.769496 13.5617 0.606849C13.4537 0.41463 13.284 0.251983 13.0834 0.155874C12.852 0.0523712 12.5974 -0.0067731 12.3429 0.000619943H4.806C4.51286 0.000619943 4.22743 0.0523712 3.95743 0.155874C3.64886 0.259376 3.36343 0.41463 3.11657 0.614242C2.90057 0.813854 2.646 1.02086 2.47628 1.27222C2.27571 1.51619 2.12143 1.78974 2.00571 2.07806L2.35421e-07 7.99249H3.00857L5.06828 1.98195H10.7614L10.1366 3.74889H6.12514L5.49257 5.61933H9.49628L8.70171 7.99989H11.664L13.716 2.02631C13.8009 1.76016 13.8317 1.49401 13.8163 1.22047Z" transform="translate(13.4458)" fill="#3B72BC"/>
<path d="M13.8163 1.2649C13.8009 1.03572 13.7314 0.806534 13.608 0.606922C13.5 0.399917 13.3071 0.23727 13.0834 0.155947C12.852 0.0450513 12.5974 -0.00669994 12.3429 0.000693097H2.74629L2.05971 1.97463H10.7537L9.38057 6.01123H0.686571L-7.35691e-09 7.98517H9.64286C9.93012 7.97792 10.2142 7.92547 10.4837 7.82992C10.7537 7.68206 11.0623 7.5342 11.3246 7.32719C11.5791 7.13497 11.8106 6.91318 12.0111 6.66921C12.1809 6.42524 12.3197 6.17388 12.4354 5.90773L13.7083 2.07074C13.824 1.81938 13.8626 1.53845 13.8163 1.2649Z" transform="translate(0.316406 0.00683594)" fill="#3B72BC"/>
<path d="M5.80114 5.64044e-08H0.686571L0 1.82608H5.16857L5.80114 5.64044e-08Z" transform="translate(0 3.08398)" fill="#3B72BC"/>
</svg>
