<svg width="512" height="168" viewBox="0 0 512 168" version="1.1" xmlns="http://www.w3.org/2000/svg" xmlns:xlink="http://www.w3.org/1999/xlink">
<g id="Canvas" fill="none">
<g id="Asset 1 2">
<g id="Layer 2">
<g id="Layer 1">
<g id="Vector">
<path d="M 6.05351 9.33419C 5.15965 9.33419 4.26578 9.31896 3.37742 9.33419C 1.23902 9.3771 -0.0206455 8.04811 0.0522388 6.10583C 0.123748 4.24109 0.05224 2.36803 0.0233613 0.503284C 0.0233613 0.10597 0.143 0.0118323 0.523924 0.00629479C 2.23739 -0.0213926 2.23327 -0.0338517 2.23739 1.71599C 2.23739 3.12251 2.2374 4.53042 2.26628 5.93694C 2.29103 7.13857 2.71733 7.54973 3.89311 7.56634C 4.4198 7.57327 4.94925 7.53866 5.47319 7.57604C 5.9435 7.61064 6.09889 7.47082 6.09339 6.97245C 6.06589 4.85021 6.09339 2.72658 6.06864 0.604343C 6.06864 0.108738 6.20616 -0.00201126 6.67922 0.00214185C 8.28543 0.0201387 8.2868 0.00214196 8.2868 1.61217C 8.2868 3.89638 8.29505 6.18059 8.2868 8.4648C 8.28441 8.97176 8.2384 9.47757 8.14928 9.97653C 7.87425 11.5312 7.03264 12.2455 5.43743 12.3909C 3.78722 12.5418 2.13701 12.4393 0.486795 12.4836C 0.123749 12.4933 0.0261106 12.3687 0.013734 12.0116C -0.0302716 10.7116 -0.0440219 10.7158 1.21427 10.7116C 2.40517 10.7116 3.59882 10.731 4.78973 10.677C 5.83211 10.6355 5.96962 10.45 6.05351 9.33419Z" transform="translate(430.37 33.9519) scale(9.84615)" fill="#020202"/>
</g>
<g id="Vector_2">
<path d="M 3.87334 1.77351C 3.87334 3.47628 3.87334 3.47075 5.57306 3.48321C 5.8481 3.48321 6.30466 3.32262 6.38717 3.60918C 6.51506 4.05495 6.4573 4.56578 6.42567 5.04478C 6.41192 5.24136 6.17401 5.19567 6.01999 5.19706C 5.44792 5.19706 4.87447 5.21367 4.3024 5.19706C 3.97648 5.1846 3.86234 5.29119 3.86647 5.62621C 3.88572 7.03273 3.86647 8.43925 3.89397 9.84439C 3.91185 10.7332 4.18551 10.9851 5.05462 11.0322C 5.23741 11.0528 5.4219 11.0528 5.60469 11.0322C 6.30053 10.9117 6.52193 11.1803 6.4683 11.8891C 6.40229 12.782 6.45317 12.7889 5.53593 12.7848C 4.91848 12.7848 4.29827 12.8194 3.68357 12.746C 2.42666 12.5965 1.75832 11.7908 1.71569 10.34C 1.67031 8.8421 1.67443 7.34283 1.70331 5.84494C 1.71294 5.34241 1.60705 5.10707 1.0721 5.19567C 0.871329 5.2289 0.659553 5.18044 0.454651 5.20536C 0.0751022 5.25243 -0.0376639 5.07662 0.0104673 4.73052C 0.0152128 4.66139 0.0152128 4.592 0.0104673 4.52287C 0.0104673 3.48597 0.0104684 3.4569 1.05148 3.49151C 1.55204 3.50812 1.73907 3.39461 1.70331 2.8547C 1.65243 2.05038 1.70331 1.24191 1.68406 0.43482C 1.68406 0.135796 1.76795 0.0568869 2.06773 0.0388901C 3.87472 -0.0690908 3.87334 -0.0787814 3.87334 1.77351Z" transform="translate(180.192 0) scale(9.84615)" fill="#891B21"/>
</g>
<g id="Subtract">
<path fill-rule="evenodd" clip-rule="evenodd" d="M 8.93546 7.93147L 8.93937 6.35823L 8.93937 1.65706C 8.93937 0.814286 8.93937 0.395341 8.72989 0.190263C 8.51944 -0.0167682 8.09708 -0.00700259 7.25089 0.00569272C 6.87687 0.0105755 6.73917 0.0984662 6.75577 0.499833C 6.77042 0.892411 6.767 1.28597 6.76359 1.67854C 6.75968 2.09163 6.75577 2.50472 6.77335 2.9178C 6.79288 3.35823 6.63614 3.46468 6.22355 3.45491C 5.39835 3.4344 4.57316 3.4305 3.74796 3.48811C 2.23819 3.59651 1.10099 4.31038 0.484777 5.73421C -0.04745 6.95589 -0.117274 8.23128 0.157628 9.52034C 0.412023 10.7235 0.934972 11.5877 1.74015 12.1151C 2.32364 12.4969 3.05607 12.701 3.94181 12.7293C 5.37931 12.7752 6.8256 12.7235 8.267 12.7625C 8.78263 12.7762 8.96573 12.661 8.9545 12.0955C 8.92667 10.7078 8.93107 9.32015 8.93546 7.93147ZM 6.76017 10.535C 6.75333 9.7303 6.76017 8.92464 6.76017 8.11897L 6.75626 7.38948C 6.75235 6.80354 6.74796 6.21858 6.76847 5.63558C 6.77823 5.27327 6.6586 5.14046 6.29825 5.1639C 5.6381 5.20491 4.97501 5.12386 4.31485 5.23323C 3.12003 5.43245 2.51896 6.03597 2.29484 7.31722C 2.03067 8.80159 2.48722 10.2078 3.39493 10.7147C 3.6298 10.8592 3.89591 10.9432 4.17081 10.9617C 4.46573 10.9696 4.76066 10.9735 5.05607 10.9774C 5.49161 10.9832 5.92716 10.9901 6.36271 11.0067C 6.5756 11.0155 6.67569 10.952 6.72159 10.8397C 6.75431 10.7596 6.76017 10.6561 6.76017 10.535Z" transform="translate(0 0.307692) scale(9.84615)" fill="#891B21"/>
</g>
<g id="Subtract_2">
<path fill-rule="evenodd" clip-rule="evenodd" d="M 0 0.601531C 0.0180664 2.46774 0.00830078 4.33786 0.00830078 6.20602L 0.00976562 10.8418C 0.00976562 11.7197 0.00976562 12.1591 0.229004 12.3701C 0.451172 12.583 0.897949 12.5615 1.79736 12.5244C 2.13818 12.5029 2.21826 12.4091 2.20996 12.0879C 2.19336 11.3281 2.22656 10.5654 2.19336 9.80466C 2.17529 9.39841 2.31982 9.30954 2.69531 9.32028C 3.49707 9.34372 4.30029 9.34665 5.10059 9.31247C 6.47998 9.25095 7.55518 8.65427 8.2168 7.39743C 8.81201 6.25973 8.9165 5.01364 8.7666 3.76755C 8.4834 1.42673 7.00098 0.00387496 4.86963 0.0419609C 3.43115 0.0683281 1.98438 0.0468437 0.542969 0.000945275C 0.0493164 -0.0156563 0 0.186492 0 0.601531ZM 2.20166 3.95016L 2.19775 4.64157C 2.19775 4.82126 2.19336 5.00192 2.19385 5.18063C 2.19434 5.2988 2.19678 5.41696 2.20459 5.53317C 2.23633 6.19626 1.91064 7.12692 2.32324 7.44235C 2.64697 7.69333 3.22217 7.63376 3.77686 7.57614C 3.95898 7.55759 4.13916 7.53903 4.30762 7.5322C 5.57666 7.47848 6.23291 6.89548 6.45557 5.64938C 6.51562 5.31052 6.55029 4.96677 6.55859 4.62204C 6.60938 2.70114 5.71582 1.77243 3.80811 1.74997C 3.43848 1.74118 3.06982 1.78122 2.70801 1.74118C 2.25977 1.69723 2.17432 1.89059 2.18945 2.29489C 2.20996 2.84665 2.20605 3.39841 2.20166 3.95016Z" transform="translate(248.308 34) scale(9.84615)" fill="#010101"/>
</g>
<g id="Subtract_3">
<path fill-rule="evenodd" clip-rule="evenodd" d="M 8.98047 7.03409L 8.98242 5.85928L 8.95947 5.86124C 8.95947 5.52237 8.96338 5.1835 8.96777 4.84463C 8.97607 4.16788 8.98438 3.49112 8.95947 2.81534C 8.89746 1.11612 7.85791 0.0838923 6.18018 0.046783C 4.84863 0.0165095 3.51611 0.00967358 2.18506 0.00381421L 1.57861 0.000884521C 0.466309 -0.00595142 0.46582 -0.0010686 0.449707 1.121L 0.448242 1.17569C 0.441406 1.63174 0.567871 1.75381 1.01904 1.75381C 2.55078 1.76163 4.08691 1.64639 5.61621 1.81827C 6.021 1.86319 6.30371 1.99795 6.4917 2.2294C 6.6499 2.42374 6.74072 2.68741 6.78076 3.0253C 6.83887 3.47647 6.75879 3.67374 6.23096 3.6542C 5.01807 3.60831 3.80225 3.60733 2.58936 3.6542C 0.962402 3.7167 0 4.8046 0 6.5087C 0.000976562 7.46963 0.330078 8.24112 0.922363 8.72549C 1.34717 9.07315 1.90771 9.27334 2.57959 9.28995C 4.56982 9.33877 6.56494 9.29581 8.55762 9.32413C 8.97021 9.32999 8.98242 9.14737 8.98242 8.83487C 8.97852 8.23526 8.979 7.63467 8.98047 7.03409ZM 4.40137 7.53018C 4.57617 7.52725 4.75098 7.52432 4.92578 7.52432L 4.91748 7.55753C 5.08691 7.55753 5.25586 7.5546 5.4248 7.55167C 5.76123 7.54678 6.0957 7.54092 6.43018 7.55753C 6.76025 7.57022 6.85254 7.4042 6.78369 7.14249C 6.63232 6.56924 7.13867 5.89737 6.52246 5.40225C 6.49219 5.38272 6.43018 5.40225 6.38477 5.40225C 5.36328 5.40909 4.32764 5.38858 3.30029 5.40909C 2.87988 5.4169 2.57178 5.58096 2.39893 5.86026C 2.29395 6.03018 2.23877 6.24307 2.23877 6.49014C 2.2373 7.10245 2.58105 7.47354 3.27588 7.51749C 3.65088 7.54092 4.02637 7.53604 4.40137 7.53018Z" transform="translate(337.216 34.1538) scale(9.84615)" fill="#010101"/>
</g>
<g id="Subtract_4">
<path fill-rule="evenodd" clip-rule="evenodd" d="M 8.37607 7.19931C 8.88437 6.44443 9.1583 5.55381 9.16416 4.6417C 9.17002 4.03525 9.05674 3.43369 8.83066 2.87217C 8.6041 2.30967 8.27012 1.79795 7.84678 1.36728C 7.42344 0.935642 6.91904 0.592868 6.36387 0.357517C 5.8082 0.123142 5.21201 0.00204802 4.60947 9.48902e-05C 3.70322 -0.00576448 2.81602 0.259861 2.05967 0.761814C 1.30283 1.26474 0.711523 1.98154 0.359473 2.82138C 0.00791014 3.6622 -0.0887695 4.58896 0.0826172 5.48545C 0.178809 5.9874 0.356543 6.46689 0.606055 6.90537C 0.801855 7.24912 1.04209 7.56845 1.32236 7.85459C 1.95908 8.50302 2.77256 8.94736 3.66025 9.13095C 4.10264 9.22275 4.55381 9.24716 4.99863 9.20615C 5.44639 9.16513 5.88828 9.05771 6.30918 8.88486C 6.76963 8.69638 7.19395 8.43466 7.56699 8.1124C 7.87412 7.84677 8.14658 7.54013 8.37607 7.19931ZM 3.23447 7.37021L 4.54063 7.37021L 4.68857 7.37021C 4.96104 7.37021 5.23252 7.37119 5.50742 7.36338C 6.08311 7.36338 6.35996 7.33603 6.49131 7.12412C 6.59092 6.96396 6.60752 6.69736 6.60752 6.25595C 6.60947 5.69541 6.50059 5.15049 6.3917 4.60849C 6.34336 4.36728 6.29502 4.12705 6.25693 3.88584L 6.20518 3.55478C 5.94932 1.91806 5.94639 1.90049 4.05674 1.92002L 3.98789 1.92002C 3.20957 1.93564 2.86729 2.27158 2.83945 3.05869C 2.83262 3.25986 2.87021 3.49326 2.88242 3.70713C 2.89365 3.90634 2.88242 4.08799 2.7916 4.21103C 2.39023 4.754 2.42441 5.32822 2.45811 5.89951C 2.47227 6.13877 2.48643 6.37705 2.46836 6.6124C 2.43125 7.10361 2.72129 7.37021 3.23447 7.37021Z" transform="translate(93.0577 34.7019) scale(9.84615)" fill="#891B21"/>
</g>
<g id="Vector_3">
<path d="M 1.13505 1.67199L 1.06629 1.67199C 0.158671 1.67199 -0.19475 1.14316 0.103664 0.261318C 0.171048 0.0647375 0.29894 0.0301279 0.469462 0.0301279C 0.744289 0.0483365 1.02008 0.046023 1.29457 0.0232062C 1.98216 -0.0792373 2.22969 0.149184 2.16368 0.874595C 2.09767 1.66507 2.14855 1.67199 1.13505 1.67199Z" transform="translate(126.942 59.8558) scale(9.84615)" fill="#8B2024"/>
</g>
</g>
</g>
</g>
</g>
</svg>

