<svg width="205" height="56" viewBox="0 0 205 56" fill="none" xmlns="http://www.w3.org/2000/svg">
<path d="M0.35021 25.0002C-1.64979 12.6002 5.35016 5.83333 10.3502 3.5C11.3502 2.6666 17.0502 0 21.8502 0C26.6502 0 32.1835 3.66667 34.3502 5.5C35.3502 4 38.2502 1 41.8502 1C45.4502 1 49.0169 8 50.3502 11.5C51.5169 10.6667 54.4502 9 56.8502 9C59.2502 9 62.8502 10.6667 64.3502 11.5C64.5169 8 66.2502 1 71.8502 1C77.4502 1 79.5169 8 79.8502 11.5C81.1835 10.6667 84.2502 8.9 85.8502 8.5C87.8502 8 87.8502 7.5 97.3502 7.5C104.95 7.5 111.517 11.1667 113.85 13H118.85C120.85 11.6667 126.15 8.6 131.35 7C137.85 5 149.35 3.00019 159.35 4.5C167.35 5.69985 172.684 11.6666 174.35 14.5C174.517 13.6667 174.95 11.6 175.35 10C175.85 8 178.35 4.5 182.35 3.00019C186.007 1.62917 198.85 1.50019 202.35 5.50019C205.85 9.50019 204.35 16.0002 201.85 21.5002C199.85 25.9002 191.35 25.0002 187.35 24.0002C186.684 28.5002 183.55 40.1 182.35 42.5C180.85 45.5 178.85 55.5 170.85 55.5C164.45 55.5 162.017 47.5 160.35 43.5C158.85 46.3333 147.75 52.0002 133.35 52.0002C118.95 52.0002 106.35 45.0002 101.85 41.5002C98.5169 44.1669 88.4502 49.5002 74.8502 49.5002C61.2502 49.5002 50.8502 44.8335 47.3502 42.5002C41.1835 45.1669 27.4502 50.3002 21.8502 49.5002C14.8502 48.5002 2.85021 40.5002 0.35021 25.0002Z" fill="#4AB3CF"/>
<path d="M22.8721 37.3702C20.3315 37.3702 18.0745 36.8152 16.1011 35.7052C14.1278 34.5705 12.5985 33.0042 11.5131 31.0062C10.4278 28.9835 9.88513 26.6895 9.88513 24.1242C9.88513 21.5095 10.4525 19.1908 11.5871 17.1682C12.7218 15.1455 14.2635 13.5792 16.2121 12.4692C18.1855 11.3592 20.3685 10.8042 22.7611 10.8042C24.6851 10.8042 26.3625 11.0385 27.7931 11.5072C29.2485 11.9758 30.6421 12.6295 31.9741 13.4682C32.1715 13.5668 32.3441 13.7395 32.4921 13.9862C32.6401 14.2328 32.7141 14.5042 32.7141 14.8002C32.7141 15.2195 32.5661 15.5772 32.2701 15.8732C31.9988 16.1692 31.6288 16.3172 31.1601 16.3172C30.8888 16.3172 30.6298 16.2555 30.3831 16.1322C29.2238 15.4415 28.0645 14.9235 26.9051 14.5782C25.7458 14.2328 24.4878 14.0602 23.1311 14.0602C21.2565 14.0602 19.5668 14.4548 18.0621 15.2442C16.5575 16.0335 15.3735 17.1928 14.5101 18.7222C13.6715 20.2268 13.2521 22.0275 13.2521 24.1242C13.2521 26.0482 13.6468 27.7748 14.4361 29.3042C15.2501 30.8088 16.4095 32.0052 17.9141 32.8932C19.4435 33.7565 21.2441 34.1882 23.3161 34.1882C25.6348 34.1882 27.7931 33.6455 29.7911 32.5602V25.8632H23.6861C23.2668 25.8632 22.9091 25.7152 22.6131 25.4192C22.3171 25.1232 22.1691 24.7655 22.1691 24.3462C22.1691 23.9268 22.3171 23.5692 22.6131 23.2732C22.9091 22.9772 23.2668 22.8292 23.6861 22.8292H30.9751C31.4685 22.8292 31.8878 23.0018 32.2331 23.3472C32.5785 23.6925 32.7511 24.1118 32.7511 24.6052V33.0042C32.7511 33.5222 32.6155 33.9908 32.3441 34.4102C32.0975 34.8048 31.7645 35.1008 31.3451 35.2982C28.5825 36.6795 25.7581 37.3702 22.8721 37.3702Z" fill="white"/>
<path d="M40.4411 37.1852C39.9724 37.1852 39.5777 37.0248 39.2571 36.7042C38.9364 36.3835 38.7761 35.9888 38.7761 35.5202V11.5072C38.7761 11.0385 38.9364 10.6438 39.2571 10.3232C39.5777 9.97784 39.9724 9.80518 40.4411 9.80518C40.9344 9.80518 41.3414 9.96551 41.6621 10.2862C41.9827 10.6068 42.1431 11.0138 42.1431 11.5072V35.5202C42.1431 35.9888 41.9704 36.3835 41.6251 36.7042C41.3044 37.0248 40.9097 37.1852 40.4411 37.1852Z" fill="white"/>
<path d="M56.3149 37.3702C54.4156 37.3702 52.7506 36.9632 51.3199 36.1492C49.8893 35.3352 48.7793 34.1882 47.9899 32.7082C47.2253 31.2035 46.8429 29.4892 46.8429 27.5652C46.8429 25.6412 47.2253 23.9392 47.9899 22.4592C48.7793 20.9545 49.8893 19.7952 51.3199 18.9812C52.7506 18.1672 54.4156 17.7602 56.3149 17.7602C58.1896 17.7602 59.8423 18.1672 61.2729 18.9812C62.7036 19.7952 63.8136 20.9545 64.6029 22.4592C65.3923 23.9392 65.7869 25.6412 65.7869 27.5652C65.7869 29.4892 65.3923 31.2035 64.6029 32.7082C63.8136 34.1882 62.7036 35.3352 61.2729 36.1492C59.8423 36.9632 58.1896 37.3702 56.3149 37.3702ZM56.3149 34.2992C57.3263 34.2992 58.2883 34.0648 59.2009 33.5962C60.1383 33.1275 60.9029 32.3875 61.4949 31.3762C62.1116 30.3648 62.4199 29.0822 62.4199 27.5282C62.4199 25.9988 62.1116 24.7285 61.4949 23.7172C60.9029 22.7058 60.1383 21.9782 59.2009 21.5342C58.2883 21.0655 57.3263 20.8312 56.3149 20.8312C55.2789 20.8312 54.2923 21.0655 53.3549 21.5342C52.4423 21.9782 51.6899 22.7058 51.0979 23.7172C50.5059 24.7285 50.2099 25.9988 50.2099 27.5282C50.2099 29.0822 50.5059 30.3648 51.0979 31.3762C51.6899 32.3875 52.4423 33.1275 53.3549 33.5962C54.2923 34.0648 55.2789 34.2992 56.3149 34.2992Z" fill="white"/>
<path d="M80.1947 37.3702C77.7773 37.3702 75.6683 36.4328 73.8677 34.5582V35.5202C73.8677 35.9888 73.695 36.3835 73.3497 36.7042C73.029 37.0248 72.6343 37.1852 72.1657 37.1852C71.697 37.1852 71.3023 37.0248 70.9817 36.7042C70.661 36.3835 70.5007 35.9888 70.5007 35.5202V11.5072C70.5007 11.0385 70.661 10.6438 70.9817 10.3232C71.3023 9.97784 71.697 9.80518 72.1657 9.80518C72.659 9.80518 73.066 9.96551 73.3867 10.2862C73.7073 10.6068 73.8677 11.0138 73.8677 11.5072V20.5722C75.6683 18.6975 77.7773 17.7602 80.1947 17.7602C81.724 17.7602 83.167 18.1548 84.5237 18.9442C85.905 19.7088 87.015 20.8435 87.8537 22.3482C88.717 23.8282 89.1487 25.5672 89.1487 27.5652C89.1487 29.5632 88.717 31.3145 87.8537 32.8192C87.015 34.2992 85.905 35.4338 84.5237 36.2232C83.167 36.9878 81.724 37.3702 80.1947 37.3702ZM79.7137 34.2252C81.539 34.2252 83.0067 33.6455 84.1167 32.4862C85.2267 31.3268 85.7817 29.6865 85.7817 27.5652C85.7817 25.4438 85.2267 23.8035 84.1167 22.6442C83.0067 21.4848 81.539 20.9052 79.7137 20.9052C78.579 20.9052 77.506 21.1642 76.4947 21.6822C75.508 22.1755 74.6323 22.8415 73.8677 23.6802V31.4502C74.6323 32.2888 75.508 32.9672 76.4947 33.4852C77.506 33.9785 78.579 34.2252 79.7137 34.2252Z" fill="white"/>
<path d="M102.278 37.3702C99.2691 37.3702 96.9135 36.5192 95.2115 34.8172C93.5341 33.0905 92.6955 30.6732 92.6955 27.5652C92.6955 25.8138 93.0161 24.1982 93.6575 22.7182C94.2988 21.2382 95.2855 20.0418 96.6175 19.1292C97.9495 18.2165 99.5898 17.7602 101.538 17.7602C103.364 17.7602 104.942 18.1918 106.274 19.0552C107.606 19.8938 108.618 21.0285 109.308 22.4592C109.999 23.8652 110.344 25.4068 110.344 27.0842C110.344 27.5528 110.184 27.9475 109.863 28.2682C109.567 28.5888 109.16 28.7492 108.642 28.7492H96.0995C96.2968 30.4758 96.9381 31.8202 98.0235 32.7822C99.1088 33.7442 100.626 34.2252 102.574 34.2252C103.61 34.2252 104.511 34.1265 105.275 33.9292C106.065 33.7318 106.829 33.4482 107.569 33.0782C107.767 32.9795 107.989 32.9302 108.235 32.9302C108.63 32.9302 108.975 33.0658 109.271 33.3372C109.567 33.6085 109.715 33.9538 109.715 34.3732C109.715 34.9158 109.395 35.3722 108.753 35.7422C107.791 36.2848 106.842 36.6918 105.904 36.9632C104.967 37.2345 103.758 37.3702 102.278 37.3702ZM107.014 26.0112C106.94 24.8025 106.62 23.7912 106.052 22.9772C105.51 22.1632 104.831 21.5712 104.017 21.2012C103.203 20.8065 102.377 20.6092 101.538 20.6092C100.7 20.6092 99.8735 20.8065 99.0595 21.2012C98.2455 21.5712 97.5671 22.1632 97.0245 22.9772C96.4818 23.7912 96.1735 24.8025 96.0995 26.0112H107.014Z" fill="white"/>
<path d="M126.076 45.6952C125.607 45.6952 125.212 45.5225 124.892 45.1772C124.571 44.8565 124.411 44.4618 124.411 43.9932V19.6102C124.411 19.1415 124.571 18.7468 124.892 18.4262C125.212 18.1055 125.607 17.9452 126.076 17.9452C126.544 17.9452 126.939 18.1055 127.26 18.4262C127.605 18.7468 127.778 19.1415 127.778 19.6102V20.5722C129.578 18.6975 131.687 17.7602 134.105 17.7602C135.634 17.7602 137.077 18.1548 138.434 18.9442C139.815 19.7088 140.925 20.8435 141.764 22.3482C142.627 23.8282 143.059 25.5672 143.059 27.5652C143.059 29.5632 142.627 31.3145 141.764 32.8192C140.925 34.2992 139.815 35.4338 138.434 36.2232C137.077 36.9878 135.634 37.3702 134.105 37.3702C131.687 37.3702 129.578 36.4328 127.778 34.5582V43.9932C127.778 44.4865 127.617 44.8935 127.297 45.2142C126.976 45.5348 126.569 45.6952 126.076 45.6952ZM133.624 34.2252C135.449 34.2252 136.917 33.6455 138.027 32.4862C139.137 31.3268 139.692 29.6865 139.692 27.5652C139.692 25.4438 139.137 23.8035 138.027 22.6442C136.917 21.4848 135.449 20.9052 133.624 20.9052C132.489 20.9052 131.416 21.1642 130.405 21.6822C129.418 22.1755 128.542 22.8415 127.778 23.6802V31.4502C128.542 32.2888 129.418 32.9672 130.405 33.4852C131.416 33.9785 132.489 34.2252 133.624 34.2252Z" fill="white"/>
<path d="M152.563 37.3702C151.477 37.3702 150.466 37.1482 149.529 36.7042C148.616 36.2602 147.888 35.6188 147.346 34.7802C146.803 33.9168 146.532 32.9302 146.532 31.8202C146.532 29.9948 147.247 28.5395 148.678 27.4542C150.133 26.3688 152.254 25.8262 155.042 25.8262H159.519V25.5302C159.519 23.9022 159.112 22.7305 158.298 22.0152C157.508 21.2998 156.263 20.9422 154.561 20.9422C153.623 20.9422 152.785 21.0162 152.045 21.1642C151.329 21.3122 150.528 21.5342 149.64 21.8302C149.442 21.8795 149.282 21.9042 149.159 21.9042C148.789 21.9042 148.468 21.7685 148.197 21.4972C147.925 21.2258 147.79 20.8928 147.79 20.4982C147.79 19.8322 148.11 19.3635 148.752 19.0922C150.848 18.2042 152.982 17.7602 155.153 17.7602C156.855 17.7602 158.285 18.1055 159.445 18.7962C160.629 19.4868 161.492 20.3872 162.035 21.4972C162.602 22.5825 162.886 23.7665 162.886 25.0492V35.5202C162.886 35.9888 162.713 36.3835 162.368 36.7042C162.047 37.0248 161.652 37.1852 161.184 37.1852C160.715 37.1852 160.32 37.0248 160 36.7042C159.679 36.3835 159.519 35.9888 159.519 35.5202V34.5582C157.693 36.4328 155.375 37.3702 152.563 37.3702ZM153.821 34.4102C154.906 34.4102 155.954 34.1512 156.966 33.6332C157.977 33.0905 158.828 32.4245 159.519 31.6352V28.5272H155.486C151.761 28.5272 149.899 29.5015 149.899 31.4502C149.899 32.3382 150.195 33.0535 150.787 33.5962C151.403 34.1388 152.415 34.4102 153.821 34.4102Z" fill="white"/>
<path d="M172.422 45.6952C171.978 45.6952 171.595 45.5348 171.275 45.2142C170.979 44.8935 170.831 44.5112 170.831 44.0672C170.831 43.8698 170.868 43.6725 170.942 43.4752L173.347 37.2962L166.391 20.3502C166.292 20.1035 166.243 19.8692 166.243 19.6472C166.243 19.1785 166.403 18.7838 166.724 18.4632C167.044 18.1178 167.439 17.9452 167.908 17.9452C168.253 17.9452 168.561 18.0438 168.833 18.2412C169.129 18.4385 169.338 18.6852 169.462 18.9812L175.16 33.1152L180.969 19.0552C181.289 18.3152 181.807 17.9452 182.523 17.9452C182.991 17.9452 183.386 18.1178 183.707 18.4632C184.027 18.7838 184.188 19.1785 184.188 19.6472C184.188 19.8692 184.151 20.0788 184.077 20.2762L173.976 44.5482C173.63 45.3128 173.112 45.6952 172.422 45.6952Z" fill="white"/>
<path fill-rule="evenodd" clip-rule="evenodd" d="M15.6027 36.5721C13.4692 35.3453 11.8081 33.6442 10.6344 31.4835L10.632 31.479C9.45981 29.2945 8.88513 26.8348 8.88513 24.1242C8.88513 21.3604 9.48626 18.8693 10.715 16.6789C11.9354 14.5035 13.6051 12.8034 15.7172 11.6003L15.7219 11.5976C17.8535 10.3986 20.2068 9.80418 22.7611 9.80418C24.762 9.80418 26.5481 10.0474 28.1022 10.5561C29.6257 11.047 31.0827 11.7291 32.4722 12.6001C32.8581 12.8073 33.142 13.1257 33.3496 13.4717C33.5937 13.8784 33.7141 14.3284 33.7141 14.8002C33.7141 15.4771 33.4664 16.0837 32.9922 16.5652C32.5011 17.0912 31.8507 17.3172 31.1601 17.3172C30.7309 17.3172 30.3191 17.2182 29.9359 17.0266C29.914 17.0156 29.8924 17.0038 29.8713 16.9913C28.775 16.3381 27.6912 15.8557 26.6197 15.5366C25.5634 15.2219 24.4027 15.0602 23.1311 15.0602C21.4013 15.0602 19.8737 15.4231 18.5267 16.1297C17.1993 16.8261 16.1542 17.8449 15.3824 19.2113C14.6437 20.5376 14.2521 22.1623 14.2521 24.1242C14.2521 25.9039 14.6154 27.4675 15.3203 28.8369C16.0442 30.1715 17.0694 31.2316 18.4141 32.0271C19.7668 32.7886 21.3892 33.1882 23.3161 33.1882C25.2698 33.1882 27.0908 32.7752 28.7911 31.9501V26.8632H23.6861C23.0021 26.8632 22.3899 26.6102 21.906 26.1263C21.4221 25.6424 21.1691 25.0302 21.1691 24.3462C21.1691 23.6621 21.4221 23.05 21.906 22.5661C22.3899 22.0822 23.0021 21.8292 23.6861 21.8292H30.9751C31.7307 21.8292 32.4052 22.1051 32.9402 22.6401C33.4752 23.1751 33.7511 23.8497 33.7511 24.6052V33.0042C33.7511 33.7047 33.5652 34.3611 33.188 34.9468C32.8426 35.4968 32.3687 35.9191 31.7825 36.1975C28.894 37.64 25.9207 38.3702 22.8721 38.3702C20.1811 38.3702 17.7515 37.7808 15.6109 36.5768L15.6027 36.5721ZM31.3451 35.2982C31.7645 35.1008 32.0975 34.8048 32.3441 34.4102C32.6155 33.9908 32.7511 33.5222 32.7511 33.0042V24.6052C32.7511 24.1118 32.5785 23.6925 32.2331 23.3472C31.8878 23.0018 31.4685 22.8292 30.9751 22.8292H23.6861C23.2668 22.8292 22.9091 22.9772 22.6131 23.2732C22.3171 23.5692 22.1691 23.9268 22.1691 24.3462C22.1691 24.7655 22.3171 25.1232 22.6131 25.4192C22.9091 25.7152 23.2668 25.8632 23.6861 25.8632H29.7911V32.5602C27.7931 33.6455 25.6348 34.1882 23.3161 34.1882C21.2441 34.1882 19.4435 33.7565 17.9141 32.8932C16.4095 32.0052 15.2501 30.8088 14.4361 29.3042C13.6468 27.7748 13.2521 26.0482 13.2521 24.1242C13.2521 22.0275 13.6715 20.2268 14.5101 18.7222C15.3735 17.1928 16.5575 16.0335 18.0621 15.2442C19.5668 14.4548 21.2565 14.0602 23.1311 14.0602C24.4878 14.0602 25.7458 14.2328 26.9051 14.5782C28.0645 14.9235 29.2238 15.4415 30.3831 16.1322C30.6298 16.2555 30.8888 16.3172 31.1601 16.3172C31.6288 16.3172 31.9988 16.1692 32.2701 15.8732C32.5661 15.5772 32.7141 15.2195 32.7141 14.8002C32.7141 14.5042 32.6401 14.2328 32.4921 13.9862C32.3441 13.7395 32.1715 13.5668 31.9741 13.4682C30.6421 12.6295 29.2485 11.9758 27.7931 11.5072C26.3625 11.0385 24.6851 10.8042 22.7611 10.8042C20.3685 10.8042 18.1855 11.3592 16.2121 12.4692C14.2635 13.5792 12.7218 15.1455 11.5871 17.1682C10.4525 19.1908 9.88513 21.5095 9.88513 24.1242C9.88513 26.6895 10.4278 28.9835 11.5131 31.0062C12.5985 33.0042 14.1278 34.5705 16.1011 35.7052C18.0745 36.8152 20.3315 37.3702 22.8721 37.3702C25.7581 37.3702 28.5825 36.6795 31.3451 35.2982ZM40.4411 38.1852C39.7171 38.1852 39.0651 37.9264 38.55 37.4113C38.0349 36.8962 37.7761 36.2441 37.7761 35.5202V11.5072C37.7761 10.7894 38.0305 10.1423 38.5369 9.62924C39.0438 9.09015 39.6987 8.80518 40.4411 8.80518C41.1739 8.80518 41.8436 9.05345 42.3692 9.57907C42.8948 10.1047 43.1431 10.7743 43.1431 11.5072V35.5202C43.1431 36.2625 42.8581 36.9174 42.319 37.4244C41.806 37.9308 41.1589 38.1852 40.4411 38.1852ZM41.6251 36.7042C41.9704 36.3835 42.1431 35.9888 42.1431 35.5202V11.5072C42.1431 11.0138 41.9827 10.6068 41.6621 10.2862C41.3414 9.96551 40.9344 9.80518 40.4411 9.80518C39.9724 9.80518 39.5777 9.97784 39.2571 10.3232C38.9364 10.6438 38.7761 11.0385 38.7761 11.5072V35.5202C38.7761 35.9888 38.9364 36.3835 39.2571 36.7042C39.5777 37.0248 39.9724 37.1852 40.4411 37.1852C40.9097 37.1852 41.3044 37.0248 41.6251 36.7042ZM47.1076 33.1788L47.0984 33.1612C46.253 31.4977 45.8429 29.6245 45.8429 27.5652C45.8429 25.5063 46.2529 23.6426 47.1015 22.0002L47.1044 21.9946C47.9796 20.3262 49.2228 19.0239 50.8254 18.112C52.4286 17.1998 54.2692 16.7602 56.3149 16.7602C58.3385 16.7602 60.1662 17.2009 61.7675 18.112C63.369 19.0232 64.6116 20.3245 65.4867 21.9913C66.363 23.6355 66.7869 25.5025 66.7869 27.5652C66.7869 29.6294 66.3624 31.5067 65.4885 33.1727L65.4853 33.1788C64.6087 34.8223 63.3658 36.109 61.7675 37.0183C60.1662 37.9294 58.3385 38.3702 56.3149 38.3702C54.2692 38.3702 52.4286 37.9305 50.8254 37.0183C49.2271 36.109 47.9841 34.8223 47.1076 33.1788ZM64.6029 22.4592C63.8136 20.9545 62.7036 19.7952 61.2729 18.9812C59.8423 18.1672 58.1896 17.7602 56.3149 17.7602C54.4156 17.7602 52.7506 18.1672 51.3199 18.9812C49.8893 19.7952 48.7793 20.9545 47.9899 22.4592C47.2253 23.9392 46.8429 25.6412 46.8429 27.5652C46.8429 29.4892 47.2253 31.2035 47.9899 32.7082C48.7793 34.1882 49.8893 35.3352 51.3199 36.1492C52.7506 36.9632 54.4156 37.3702 56.3149 37.3702C58.1896 37.3702 59.8423 36.9632 61.2729 36.1492C62.7036 35.3352 63.8136 34.1882 64.6029 32.7082C65.3923 31.2035 65.7869 29.4892 65.7869 27.5652C65.7869 25.6412 65.3923 23.9392 64.6029 22.4592ZM58.7537 32.7017C59.4976 32.3298 60.1259 31.7355 60.6319 30.871L60.6411 30.8556C61.1367 30.0428 61.4199 28.9545 61.4199 27.5282C61.4199 26.13 61.1381 25.0528 60.6411 24.2378L60.6319 24.2224C60.1278 23.3612 59.5054 22.7849 58.7728 22.4379C58.7668 22.4351 58.7608 22.4321 58.7548 22.4292C58.7513 22.4274 58.7477 22.4256 58.7441 22.4237C57.9707 22.0266 57.165 21.8312 56.3149 21.8312C55.436 21.8312 54.6023 22.0285 53.8021 22.4286L53.7924 22.4335C53.0837 22.7783 52.469 23.3545 51.9609 24.2224C51.482 25.0405 51.2099 26.1236 51.2099 27.5282C51.2099 28.9608 51.4833 30.055 51.9609 30.871C52.4698 31.7402 53.0887 32.3341 53.807 32.7042C54.6057 33.1026 55.4378 33.2992 56.3149 33.2992C57.165 33.2992 57.9707 33.1038 58.7441 32.7066L58.7537 32.7017ZM53.3549 33.5962C52.4423 33.1275 51.6899 32.3875 51.0979 31.3762C50.5059 30.3648 50.2099 29.0822 50.2099 27.5282C50.2099 25.9988 50.5059 24.7285 51.0979 23.7172C51.6899 22.7058 52.4423 21.9782 53.3549 21.5342C54.2923 21.0655 55.2789 20.8312 56.3149 20.8312C57.3263 20.8312 58.2883 21.0655 59.2009 21.5342C60.1383 21.9782 60.9029 22.7058 61.4949 23.7172C62.1116 24.7285 62.4199 25.9988 62.4199 27.5282C62.4199 29.0822 62.1116 30.3648 61.4949 31.3762C60.9029 32.3875 60.1383 33.1275 59.2009 33.5962C58.2883 34.0648 57.3263 34.2992 56.3149 34.2992C55.2789 34.2992 54.2923 34.0648 53.3549 33.5962ZM76.9505 22.5722L76.9419 22.5766C76.1776 22.9587 75.4868 23.4583 74.8677 24.0799V31.051C75.4872 31.6757 76.1795 32.1886 76.9463 32.5928C77.816 33.0147 78.7346 33.2252 79.7137 33.2252C81.3073 33.2252 82.4996 32.7291 83.3944 31.7946C84.2748 30.8751 84.7817 29.5142 84.7817 27.5652C84.7817 25.6162 84.2748 24.2553 83.3944 23.3357C82.4996 22.4012 81.3073 21.9052 79.7137 21.9052C78.7378 21.9052 77.821 22.1264 76.9505 22.5722ZM76.4947 33.4852C75.508 32.9672 74.6323 32.2888 73.8677 31.4502V23.6802C74.6323 22.8415 75.508 22.1755 76.4947 21.6822C77.506 21.1642 78.579 20.9052 79.7137 20.9052C81.539 20.9052 83.0067 21.4848 84.1167 22.6442C85.2267 23.8035 85.7817 25.4438 85.7817 27.5652C85.7817 29.6865 85.2267 31.3268 84.1167 32.4862C83.0067 33.6455 81.539 34.2252 79.7137 34.2252C78.579 34.2252 77.506 33.9785 76.4947 33.4852ZM85.0198 37.0914L85.0147 37.0943C83.511 37.9418 81.8993 38.3702 80.1947 38.3702C78.1418 38.3702 76.2885 37.7599 74.6529 36.5718C74.5143 36.8872 74.31 37.1739 74.0436 37.4244C73.5306 37.9308 72.8835 38.1852 72.1657 38.1852C71.4417 38.1852 70.7897 37.9264 70.2746 37.4113C69.7595 36.8962 69.5007 36.2441 69.5007 35.5202V11.5072C69.5007 10.7894 69.7551 10.1422 70.2615 9.6292C70.7685 9.09014 71.4234 8.80518 72.1657 8.80518C72.8985 8.80518 73.5682 9.05345 74.0938 9.57907C74.6194 10.1047 74.8677 10.7743 74.8677 11.5072V18.4068C76.4502 17.3185 78.2311 16.7602 80.1947 16.7602C81.902 16.7602 83.5148 17.2023 85.0173 18.0745C86.5698 18.9362 87.8038 20.2079 88.7225 21.8529C89.6855 23.5077 90.1487 25.4236 90.1487 27.5652C90.1487 29.71 89.6841 31.6373 88.7223 33.3146C87.8015 34.9386 86.5673 36.2071 85.0198 37.0914ZM87.8537 32.8192C88.717 31.3145 89.1487 29.5632 89.1487 27.5652C89.1487 25.5672 88.717 23.8282 87.8537 22.3482C87.015 20.8435 85.905 19.7088 84.5237 18.9442C83.167 18.1548 81.724 17.7602 80.1947 17.7602C78.2115 17.7602 76.4358 18.3911 74.8677 19.6528C74.5244 19.9291 74.1911 20.2355 73.8677 20.5722V11.5072C73.8677 11.0138 73.7073 10.6068 73.3867 10.2862C73.066 9.96551 72.659 9.80518 72.1657 9.80518C71.697 9.80518 71.3023 9.97784 70.9817 10.3232C70.661 10.6438 70.5007 11.0385 70.5007 11.5072V35.5202C70.5007 35.9888 70.661 36.3835 70.9817 36.7042C71.3023 37.0248 71.697 37.1852 72.1657 37.1852C72.6343 37.1852 73.029 37.0248 73.3497 36.7042C73.5961 36.4754 73.7546 36.2089 73.8251 35.9048C73.8535 35.7826 73.8677 35.6544 73.8677 35.5202V34.5582C74.1911 34.8949 74.5244 35.2013 74.8677 35.4775C76.4358 36.7393 78.2115 37.3702 80.1947 37.3702C81.724 37.3702 83.167 36.9878 84.5237 36.2232C85.905 35.4338 87.015 34.2992 87.8537 32.8192ZM94.5044 35.5243L94.4942 35.514C92.5872 33.5509 91.6955 30.8546 91.6955 27.5652C91.6955 25.6889 92.0397 23.9365 92.7399 22.3206C93.4562 20.6676 94.5651 19.3232 96.0522 18.3042C97.5825 17.2557 99.4304 16.7602 101.538 16.7602C103.525 16.7602 105.297 17.2315 106.813 18.2123C108.301 19.151 109.437 20.4268 110.208 22.0215C110.969 23.5734 111.344 25.2663 111.344 27.0842C111.344 27.8016 111.09 28.4484 110.584 28.9613C110.065 29.5147 109.376 29.7492 108.642 29.7492H97.3063C97.5783 30.7193 98.0473 31.467 98.6868 32.0338C99.5343 32.785 100.785 33.2252 102.574 33.2252C103.551 33.2252 104.363 33.1318 105.026 32.9609L105.033 32.959C105.75 32.7797 106.446 32.5217 107.122 32.1837C107.474 32.0078 107.852 31.9302 108.235 31.9302C108.885 31.9302 109.47 32.1629 109.947 32.6C110.46 33.07 110.715 33.6876 110.715 34.3732C110.715 35.3992 110.077 36.1332 109.253 36.6084L109.245 36.6132C108.224 37.1889 107.203 37.6283 106.183 37.9237C105.121 38.231 103.809 38.3702 102.278 38.3702C99.074 38.3702 96.4382 37.4582 94.5044 35.5243ZM96.2735 29.7492C96.1974 29.4315 96.1393 29.0981 96.0995 28.7492H108.642C109.16 28.7492 109.567 28.5888 109.863 28.2682C110.184 27.9475 110.344 27.5528 110.344 27.0842C110.344 25.4068 109.999 23.8652 109.308 22.4592C108.618 21.0285 107.606 19.8938 106.274 19.0552C104.942 18.1918 103.364 17.7602 101.538 17.7602C99.5898 17.7602 97.9495 18.2165 96.6175 19.1292C95.2855 20.0418 94.2988 21.2382 93.6575 22.7182C93.0161 24.1982 92.6955 25.8138 92.6955 27.5652C92.6955 30.6732 93.5341 33.0905 95.2115 34.8172C96.9135 36.5192 99.2691 37.3702 102.278 37.3702C103.758 37.3702 104.967 37.2345 105.904 36.9632C106.842 36.6918 107.791 36.2848 108.753 35.7422C109.395 35.3722 109.715 34.9158 109.715 34.3732C109.715 33.9538 109.567 33.6085 109.271 33.3372C108.975 33.0658 108.63 32.9302 108.235 32.9302C107.989 32.9302 107.767 32.9795 107.569 33.0782C106.829 33.4482 106.065 33.7318 105.275 33.9292C104.511 34.1265 103.61 34.2252 102.574 34.2252C100.626 34.2252 99.1088 33.7442 98.0235 32.7822C97.1575 32.0146 96.5742 31.0036 96.2735 29.7492ZM105.232 23.549L105.22 23.5319C104.771 22.858 104.232 22.3971 103.604 22.1115C103.596 22.1081 103.589 22.1046 103.581 22.101C102.892 21.767 102.214 21.6092 101.538 21.6092C100.863 21.6092 100.185 21.767 99.4957 22.101C99.4883 22.1046 99.4808 22.1081 99.4733 22.1115C98.845 22.3971 98.3058 22.858 97.8565 23.5319C97.5842 23.9403 97.3757 24.4291 97.244 25.0112H105.865C105.73 24.4369 105.514 23.9539 105.232 23.549ZM106.888 25.0112C106.951 25.328 106.993 25.6613 107.014 26.0112H96.0995C96.1209 25.6613 96.1619 25.328 96.2226 25.0112C96.3716 24.2335 96.6389 23.5555 97.0245 22.9772C97.5671 22.1632 98.2455 21.5712 99.0595 21.2012C99.8735 20.8065 100.7 20.6092 101.538 20.6092C102.377 20.6092 103.203 20.8065 104.017 21.2012C104.831 21.5712 105.51 22.1632 106.052 22.9772C106.456 23.5555 106.734 24.2335 106.888 25.0112ZM138.93 37.0914L138.925 37.0943C137.421 37.9418 135.809 38.3702 134.105 38.3702C132.141 38.3702 130.36 37.8118 128.778 36.7236V43.9932C128.778 44.726 128.53 45.3957 128.004 45.9213C127.478 46.4469 126.809 46.6952 126.076 46.6952C125.333 46.6952 124.679 46.4102 124.172 45.871C123.665 45.358 123.411 44.7109 123.411 43.9932V19.6102C123.411 18.8862 123.67 18.2342 124.185 17.7191C124.7 17.204 125.352 16.9452 126.076 16.9452C126.794 16.9452 127.441 17.1996 127.954 17.706C128.22 17.9565 128.424 18.2431 128.563 18.5586C130.199 17.3705 132.052 16.7602 134.105 16.7602C135.812 16.7602 137.425 17.2023 138.928 18.0746C140.48 18.9362 141.714 20.2076 142.632 21.8523C143.596 23.5072 144.059 25.4233 144.059 27.5652C144.059 29.71 143.594 31.6373 142.632 33.3146C141.712 34.9386 140.477 36.2071 138.93 37.0914ZM141.764 32.8192L142.634 33.3122C142.633 33.313 142.633 33.3138 142.632 33.3146C142.632 33.3154 142.632 33.3161 142.631 33.3168L141.764 32.8192ZM138.434 36.2232C137.077 36.9878 135.634 37.3702 134.105 37.3702C132.122 37.3702 130.346 36.7393 128.778 35.4775C128.435 35.2013 128.101 34.8949 127.778 34.5582V43.9932C127.778 44.4865 127.617 44.8935 127.297 45.2142C126.976 45.5348 126.569 45.6952 126.076 45.6952C125.607 45.6952 125.212 45.5225 124.892 45.1772C124.571 44.8565 124.411 44.4618 124.411 43.9932V19.6102C124.411 19.1415 124.571 18.7468 124.892 18.4262C125.212 18.1055 125.607 17.9452 126.076 17.9452C126.544 17.9452 126.939 18.1055 127.26 18.4262C127.506 18.655 127.665 18.9214 127.735 19.2256C127.764 19.3477 127.778 19.4759 127.778 19.6102V20.5722C128.101 20.2355 128.435 19.9291 128.778 19.6528C130.346 18.3911 132.122 17.7602 134.105 17.7602C135.634 17.7602 137.077 18.1548 138.434 18.9442C139.815 19.7088 140.925 20.8435 141.764 22.3482C142.627 23.8282 143.059 25.5672 143.059 27.5652C143.059 29.5632 142.627 31.3145 141.764 32.8192C140.925 34.2992 139.815 35.4338 138.434 36.2232ZM130.861 22.5722L130.852 22.5766C130.088 22.9587 129.397 23.4583 128.778 24.0799V31.051C129.397 31.6757 130.09 32.1886 130.856 32.5928C131.726 33.0147 132.645 33.2252 133.624 33.2252C135.217 33.2252 136.41 32.7291 137.305 31.7946C138.185 30.8751 138.692 29.5142 138.692 27.5652C138.692 25.6162 138.185 24.2553 137.305 23.3357C136.41 22.4012 135.217 21.9052 133.624 21.9052C132.648 21.9052 131.731 22.1264 130.861 22.5722ZM130.405 33.4852C129.418 32.9672 128.542 32.2888 127.778 31.4502V23.6802C128.542 22.8415 129.418 22.1755 130.405 21.6822C131.416 21.1642 132.489 20.9052 133.624 20.9052C135.449 20.9052 136.917 21.4848 138.027 22.6442C139.137 23.8035 139.692 25.4438 139.692 27.5652C139.692 29.6865 139.137 31.3268 138.027 32.4862C136.917 33.6455 135.449 34.2252 133.624 34.2252C132.489 34.2252 131.416 33.9785 130.405 33.4852ZM149.101 37.6079L149.091 37.6035C148.017 37.081 147.149 36.3178 146.506 35.3234L146.499 35.3124C145.847 34.2756 145.532 33.1012 145.532 31.8202C145.532 29.6881 146.389 27.9355 148.073 26.6575L148.08 26.6525C149.778 25.3859 152.147 24.8262 155.042 24.8262H158.487C158.388 23.7721 158.059 23.137 157.638 22.7663L157.626 22.7562C157.104 22.2826 156.155 21.9422 154.561 21.9422C153.675 21.9422 152.905 22.0121 152.244 22.1441C151.577 22.2823 150.815 22.4925 149.956 22.7789C149.932 22.787 149.907 22.7941 149.882 22.8003C149.65 22.8585 149.399 22.9042 149.159 22.9042C148.513 22.9042 147.941 22.6554 147.49 22.2043C147.025 21.7395 146.79 21.1496 146.79 20.4982C146.79 19.9993 146.912 19.5104 147.205 19.0825C147.495 18.6577 147.905 18.3645 148.362 18.1712C150.576 17.2337 152.842 16.7602 155.153 16.7602C156.987 16.7602 158.604 17.1323 159.952 17.9347C161.281 18.7108 162.288 19.7461 162.927 21.0453C163.568 22.2773 163.886 23.6175 163.886 25.0492V35.5202C163.886 36.2626 163.601 36.9177 163.061 37.4247C162.548 37.9309 161.901 38.1852 161.184 38.1852C160.46 38.1852 159.808 37.9264 159.293 37.4113C159.037 37.1553 158.844 36.8655 158.715 36.5499C156.966 37.7666 154.904 38.3702 152.563 38.3702C151.336 38.3702 150.178 38.1182 149.101 37.6079ZM158.519 35.4534C156.87 36.7313 154.884 37.3702 152.563 37.3702C151.477 37.3702 150.466 37.1482 149.529 36.7042C148.616 36.2602 147.888 35.6188 147.346 34.7802C146.803 33.9168 146.532 32.9302 146.532 31.8202C146.532 29.9948 147.247 28.5395 148.678 27.4542C150.133 26.3688 152.254 25.8262 155.042 25.8262H159.519V25.5302C159.519 25.2852 159.509 25.0505 159.491 24.8262C159.387 23.5599 158.989 22.6229 158.298 22.0152C157.508 21.2998 156.263 20.9422 154.561 20.9422C153.623 20.9422 152.785 21.0162 152.045 21.1642C151.329 21.3122 150.528 21.5342 149.64 21.8302C149.442 21.8795 149.282 21.9042 149.159 21.9042C148.789 21.9042 148.468 21.7685 148.197 21.4972C147.925 21.2258 147.79 20.8928 147.79 20.4982C147.79 19.8322 148.11 19.3635 148.752 19.0922C150.848 18.2042 152.982 17.7602 155.153 17.7602C156.855 17.7602 158.285 18.1055 159.445 18.7962C160.629 19.4868 161.492 20.3872 162.035 21.4972C162.602 22.5825 162.886 23.7665 162.886 25.0492V35.5202C162.886 35.9888 162.713 36.3835 162.368 36.7042C162.047 37.0248 161.652 37.1852 161.184 37.1852C160.715 37.1852 160.32 37.0248 160 36.7042C159.769 36.4732 159.621 36.2038 159.556 35.896C159.531 35.7765 159.519 35.6512 159.519 35.5202V34.5582C159.2 34.8851 158.867 35.1835 158.519 35.4534ZM156.501 32.7476C155.627 33.1938 154.737 33.4102 153.821 33.4102C152.508 33.4102 151.8 33.1504 151.454 32.8517C151.097 32.5205 150.899 32.0861 150.899 31.4502C150.899 31.129 150.973 30.8941 151.091 30.7087C151.212 30.5192 151.415 30.3237 151.759 30.144C152.476 29.7691 153.678 29.5272 155.486 29.5272H158.519V31.2454C157.962 31.8205 157.292 32.3222 156.501 32.7476ZM159.519 31.6352C158.828 32.4245 157.977 33.0905 156.966 33.6332C155.954 34.1512 154.906 34.4102 153.821 34.4102C152.415 34.4102 151.403 34.1388 150.787 33.5962C150.195 33.0535 149.899 32.3382 149.899 31.4502C149.899 29.5015 151.761 28.5272 155.486 28.5272H159.519V31.6352ZM170.568 45.9213C170.558 45.9119 170.549 45.9022 170.54 45.8925C170.07 45.3835 169.831 44.7577 169.831 44.0672C169.831 43.742 169.892 43.426 170.005 43.1241L170.01 43.1124L172.27 37.306L165.462 20.7216C165.325 20.3795 165.243 20.0188 165.243 19.6472C165.243 18.9293 165.497 18.2822 166.004 17.7691C166.511 17.2301 167.166 16.9452 167.908 16.9452C168.451 16.9452 168.96 17.1029 169.404 17.4201C169.838 17.7133 170.18 18.1048 170.385 18.5966L170.389 18.6072L175.171 30.4688L180.045 18.6733L180.051 18.6576C180.265 18.1648 180.575 17.7243 181.017 17.4089C181.466 17.088 181.984 16.9452 182.523 16.9452C183.265 16.9452 183.92 17.2302 184.427 17.7694C184.933 18.2824 185.188 18.9295 185.188 19.6472C185.188 19.9826 185.131 20.3118 185.013 20.6273C185.009 20.6384 185.005 20.6494 185 20.6604L174.899 44.9324C174.895 44.9416 174.891 44.9507 174.887 44.9598C174.665 45.4521 174.354 45.8939 173.922 46.213C173.478 46.5406 172.964 46.6952 172.422 46.6952C171.706 46.6952 171.071 46.425 170.568 45.9213ZM183.707 18.4632C183.386 18.1178 182.991 17.9452 182.523 17.9452C181.807 17.9452 181.289 18.3152 180.969 19.0552L175.16 33.1152L169.462 18.9812C169.338 18.6852 169.129 18.4385 168.833 18.2412C168.561 18.0438 168.253 17.9452 167.908 17.9452C167.439 17.9452 167.044 18.1178 166.724 18.4632C166.403 18.7838 166.243 19.1785 166.243 19.6472C166.243 19.8692 166.292 20.1035 166.391 20.3502L173.347 37.2962L170.942 43.4752C170.868 43.6725 170.831 43.8698 170.831 44.0672C170.831 44.5112 170.979 44.8935 171.275 45.2142C171.595 45.5348 171.978 45.6952 172.422 45.6952C173.112 45.6952 173.63 45.3128 173.976 44.5482L184.077 20.2762C184.151 20.0788 184.188 19.8692 184.188 19.6472C184.188 19.1785 184.027 18.7838 183.707 18.4632Z" fill="white"/>
<path d="M186.412 16.0551C186.273 16.0551 186.156 16.0074 186.06 15.9121C185.965 15.8168 185.917 15.6994 185.917 15.5601V8.77309C185.917 8.63376 185.965 8.51642 186.06 8.42109C186.156 8.31842 186.273 8.26709 186.412 8.26709C186.552 8.26709 186.669 8.31842 186.764 8.42109C186.867 8.51642 186.918 8.63376 186.918 8.77309V15.5601C186.918 15.6994 186.867 15.8168 186.764 15.9121C186.669 16.0074 186.552 16.0551 186.412 16.0551Z" fill="white"/>
<path d="M189.243 16.0551C189.104 16.0551 188.987 16.0074 188.891 15.9121C188.796 15.8168 188.748 15.6994 188.748 15.5601V10.8411C188.748 10.7018 188.796 10.5844 188.891 10.4891C188.987 10.3864 189.104 10.3351 189.243 10.3351C189.383 10.3351 189.5 10.3864 189.595 10.4891C189.698 10.5844 189.749 10.7018 189.749 10.8411V11.2921C190.028 10.9841 190.329 10.7384 190.651 10.5551C190.974 10.3718 191.355 10.2801 191.795 10.2801C192.199 10.2801 192.547 10.3754 192.84 10.5661C193.141 10.7568 193.368 11.0171 193.522 11.3471C193.684 11.6771 193.764 12.0401 193.764 12.4361V15.5601C193.764 15.6994 193.713 15.8168 193.61 15.9121C193.515 16.0074 193.398 16.0551 193.258 16.0551C193.119 16.0551 193.002 16.0074 192.906 15.9121C192.811 15.8168 192.763 15.6994 192.763 15.5601V12.5461C192.763 11.6514 192.36 11.2041 191.553 11.2041C191.187 11.2041 190.857 11.2994 190.563 11.4901C190.277 11.6808 190.006 11.9374 189.749 12.2601V15.5601C189.749 15.6994 189.698 15.8168 189.595 15.9121C189.5 16.0074 189.383 16.0551 189.243 16.0551Z" fill="white"/>
<path d="M198.048 16.1101C197.52 16.1101 197.032 15.9928 196.585 15.7581C196.137 15.5234 195.778 15.1861 195.507 14.7461C195.243 14.3061 195.111 13.7891 195.111 13.1951C195.111 12.6011 195.243 12.0841 195.507 11.6441C195.778 11.2041 196.137 10.8668 196.585 10.6321C197.032 10.3974 197.52 10.2801 198.048 10.2801C198.436 10.2801 198.77 10.3314 199.049 10.4341C199.335 10.5294 199.599 10.6541 199.841 10.8081C199.987 10.9034 200.061 11.0318 200.061 11.1931C200.061 11.3031 200.017 11.4058 199.929 11.5011C199.848 11.5891 199.753 11.6331 199.643 11.6331C199.562 11.6331 199.481 11.6111 199.401 11.5671C199.159 11.4424 198.95 11.3544 198.774 11.3031C198.605 11.2444 198.392 11.2151 198.136 11.2151C197.505 11.2151 197.01 11.3984 196.651 11.7651C196.291 12.1244 196.112 12.6011 196.112 13.1951C196.112 13.7891 196.291 14.2694 196.651 14.6361C197.01 14.9954 197.505 15.1751 198.136 15.1751C198.392 15.1751 198.605 15.1494 198.774 15.0981C198.95 15.0394 199.159 14.9478 199.401 14.8231C199.481 14.7791 199.562 14.7571 199.643 14.7571C199.753 14.7571 199.848 14.8048 199.929 14.9001C200.017 14.9881 200.061 15.0871 200.061 15.1971C200.061 15.3584 199.987 15.4868 199.841 15.5821C199.599 15.7361 199.335 15.8644 199.049 15.9671C198.77 16.0624 198.436 16.1101 198.048 16.1101Z" fill="white"/>
<g clip-path="url(#clip0)">
<path d="M56.3502 34C59.3786 34 61.8502 31.0788 61.8502 27.5C61.8502 23.9209 59.3784 21 56.3502 21C53.3217 21 50.8502 23.9212 50.8502 27.5C50.8502 31.0791 53.3219 34 56.3502 34ZM57.9818 32.9046C58.2935 32.434 58.5323 31.8726 58.7117 31.3083H59.9786C59.4418 32.0221 58.7571 32.5767 57.9818 32.9046ZM60.4628 30.5469H58.9201C59.1103 29.7296 59.2218 28.8235 59.2456 27.8809H61.1947C61.1404 28.8556 60.8793 29.7645 60.4628 30.5469ZM60.4628 24.4531C60.8793 25.2355 61.1404 26.1444 61.1947 27.1191H59.2456C59.2218 26.1765 59.1103 25.2704 58.9201 24.4531H60.4628ZM59.9786 23.6914H58.7117C58.5324 23.1276 58.2935 22.5662 57.9818 22.0954C58.7571 22.4233 59.4418 22.9779 59.9786 23.6914ZM56.6724 21.8269C57.3048 22.0802 57.7585 22.9691 58.018 23.6914H56.6724V21.8269ZM56.6724 24.4531H58.25C58.4549 25.2549 58.5754 26.1645 58.6008 27.1191H56.6724V24.4531ZM56.6724 27.8806H58.6008C58.5754 28.8355 58.4549 29.7451 58.25 30.5469H56.6724V27.8806ZM56.6724 31.3083H58.018C57.7581 32.0322 57.3043 32.92 56.6724 33.1731V31.3083ZM52.7217 31.3086H53.9886C54.1679 31.8724 54.4068 32.4338 54.7185 32.9046C53.9432 32.5767 53.2585 32.0221 52.7217 31.3086ZM56.0279 33.1731C55.396 32.92 54.9423 32.0323 54.6823 31.3086H56.0279V33.1731ZM56.0279 30.5469H54.4504C54.2454 29.7451 54.1249 28.8355 54.0995 27.8809H56.0279V30.5469ZM56.0279 27.1191H54.0995C54.1249 26.1645 54.2454 25.2549 54.4504 24.4531H56.0279V27.1191ZM56.0279 21.8269V23.6914H54.6823C54.9422 22.9678 55.396 22.08 56.0279 21.8269ZM54.7185 22.0954C54.4069 22.566 54.168 23.1274 53.9886 23.6914H52.7217C53.2585 22.9779 53.9432 22.4233 54.7185 22.0954ZM52.2376 24.4529H53.7802C53.59 25.2704 53.4785 26.1765 53.4548 27.1191H51.5056C51.56 26.1444 51.821 25.2355 52.2376 24.4529ZM51.5056 27.8809H53.4548C53.4785 28.8235 53.59 29.7296 53.7802 30.5469H52.2376C51.821 29.7645 51.56 28.8556 51.5056 27.8809Z" fill="white"/>
</g>
<defs>
<clipPath id="clip0">
<rect width="11" height="13" fill="white" transform="translate(50.8502 21)"/>
</clipPath>
</defs>
</svg>
