<svg width="512" height="512" viewBox="0 0 512 512" version="1.1" xmlns="http://www.w3.org/2000/svg" xmlns:xlink="http://www.w3.org/1999/xlink">
<g id="Canvas" fill="none">
<g id="litecoin">
<g id="Vector">
<path d="M 36 17.9999C 36 27.9411 27.9412 36 18.0001 36C 8.05887 36 -1.09487e-09 27.9411 -1.09487e-09 17.9999C -1.09487e-09 8.05882 8.05887 -1.40768e-09 18.0001 -1.40768e-09C 27.9411 -1.40768e-09 36 8.05882 36 17.9999Z" transform="scale(14.2222)" fill="#BEBEBE"/>
</g>
<g id="Vector_2">
<path d="M 28.3569 14.1785C 28.3569 22.0085 22.0091 28.3569 14.1786 28.3569C 6.34828 28.3569 -2.33571e-08 22.0085 -2.33571e-08 14.1785C -2.33571e-08 6.34791 6.34828 -9.67647e-08 14.1786 -9.67647e-08C 22.0092 -9.67647e-08 28.3569 6.3478 28.3569 14.1785Z" transform="translate(54.3472 54.3472) scale(14.2222)" fill="#BEBEBE"/>
</g>
<g id="Vector_3">
<path d="M 7.14623 14.4617L 8.31538 10.0594L 11.0834 9.04811L 11.7719 6.46086L 11.7484 6.39668L 9.02367 7.39208L 10.9868 -4.00406e-07L 5.41923 -4.00406e-07L 2.85187 9.64684L 0.708292 10.4299L 3.00306e-07 13.0972L 2.14193 12.3148L 0.628804 18.0001L 15.4464 18.0001L 16.3963 14.4617L 7.14623 14.4617Z" transform="translate(139.403 118.708) scale(14.2222)" fill="white"/>
</g>
</g>
</g>
</svg>

