<svg width="35" height="29" viewBox="0 0 35 29" fill="none" xmlns="http://www.w3.org/2000/svg">
<g clip-path="url(#clip0)">
<path d="M13.6448 9.89203C13.6332 9.95505 13.6254 10.0187 13.6215 10.0826C13.6215 11.1193 13.6215 12.156 13.6215 13.1953C13.6215 13.3655 13.6396 13.4494 13.8603 13.4494C16.0456 13.4494 18.2302 13.4494 20.4138 13.4494C20.6345 13.4494 20.6552 13.3655 20.6552 13.1953C20.6552 12.2297 20.6552 11.2667 20.6552 10.3037C20.6552 10.141 20.6916 10.0496 20.8629 10.0089C21.1224 9.93777 21.356 9.83867 21.5974 9.75482C21.7453 9.69638 21.7972 9.72941 21.7972 9.89203C21.7972 11.8105 21.7972 13.7289 21.7972 15.6473C21.8006 15.8699 21.7568 16.0907 21.6687 16.2958C21.5805 16.501 21.4499 16.686 21.285 16.8393C21.1202 16.9926 20.9247 17.1107 20.7109 17.1864C20.497 17.262 20.2695 17.2934 20.0427 17.2786C18.1013 17.2786 16.1495 17.2507 14.221 17.2786C13.7603 17.2793 13.3181 17.1009 12.9915 16.7827C12.665 16.4644 12.4808 16.0323 12.4795 15.5812C12.5054 13.7645 12.4795 11.9451 12.4795 10.1283C12.4795 9.99113 12.4795 9.85392 12.4613 9.71671L12.4224 8.14639C12.4632 8.02422 12.4834 7.89633 12.4821 7.76779C12.4821 5.75789 12.5054 3.74799 12.4821 1.73808C12.4824 1.50844 12.5291 1.28112 12.6196 1.06924C12.7101 0.857363 12.8425 0.665105 13.0092 0.503548C13.1759 0.341991 13.3736 0.214329 13.591 0.127918C13.8083 0.0415067 14.041 -0.00194496 14.2755 6.6792e-05C16.1858 0.050886 18.1013 0.0153126 20.0141 0.0153126C21.0523 0.0153126 21.7427 0.653094 21.7739 1.65423C21.7972 2.41652 21.7739 3.1966 21.7739 3.96651C21.7739 4.12151 21.7168 4.14438 21.5896 4.08593C21.3197 3.9538 21.0445 3.81151 20.7642 3.68954C20.6319 3.62856 20.6422 3.52184 20.6422 3.41004C20.6422 2.85103 20.6422 2.28947 20.6422 1.73046C20.6422 1.52973 20.5981 1.46112 20.3827 1.46112C18.2354 1.47128 16.0889 1.47128 13.9433 1.46112C13.6838 1.46112 13.6085 1.5221 13.6085 1.78128C13.6215 3.41258 13.6085 5.04896 13.6085 6.6828C13.5955 6.79215 13.6061 6.90296 13.6396 7.00804C13.6448 7.97022 13.6466 8.93155 13.6448 9.89203ZM16.422 15.1112C16.422 15.8379 16.422 15.8379 17.1721 15.8404C17.9222 15.843 17.9092 15.8404 17.8988 15.1061C17.8884 14.3717 17.8988 14.3972 17.1591 14.3946C16.4194 14.3921 16.4246 14.3946 16.422 15.1112V15.1112ZM19.7208 15.1112C19.726 14.7376 19.726 14.7376 19.3315 14.7376C18.937 14.7376 18.9188 14.7376 18.9162 15.0629C18.9162 15.5508 18.9162 15.5508 19.2511 15.5508C19.726 15.5381 19.726 15.538 19.726 15.1213L19.7208 15.1112ZM15.036 14.7376C14.6311 14.7376 14.6311 14.7376 14.6311 15.1366C14.6311 15.5355 14.6311 15.5482 15.1165 15.5482C15.4305 15.5482 15.4331 15.5482 15.4305 15.068C15.4305 14.7376 15.4305 14.7376 15.036 14.7376Z" fill="#FD0202"/>
<path d="M13.6445 9.89214C13.6445 8.93166 13.6445 7.97117 13.6445 7.01069C13.7873 6.82774 13.9352 6.64987 14.0676 6.46184C14.1662 6.32463 14.2207 6.38053 14.2882 6.48471C14.5611 6.90208 14.8942 7.27865 15.2771 7.60273C15.3815 7.69125 15.4925 7.77194 15.6093 7.84413C15.7023 7.91258 15.8174 7.94568 15.9334 7.93727C16.0494 7.92886 16.1584 7.87951 16.24 7.79839C17.0806 7.12447 17.8175 6.33543 18.428 5.45562C18.8054 4.93843 19.133 4.38807 19.4065 3.81162C19.5025 3.60326 19.6167 3.68711 19.7413 3.74809L24.0706 5.78086C24.4235 5.94857 24.7765 6.11881 25.1347 6.28906C25.2671 6.35004 25.2645 6.39832 25.184 6.51012C24.0394 8.06773 22.464 9.0028 20.6134 9.52878C18.7617 10.0167 16.8364 10.1793 14.9267 10.009C14.4972 9.99674 14.069 9.9577 13.6445 9.89214V9.89214Z" fill="#4CA700"/>
<path d="M0.000203698 24.2662C0.000203698 23.5039 0.000203698 22.7416 0.000203698 21.9793C-0.0101185 21.8927 0.00995842 21.8053 0.0571313 21.7314C0.104304 21.6576 0.175763 21.6016 0.259751 21.5727C0.824683 21.3096 1.43908 21.1636 2.06438 21.1439C2.68968 21.1242 3.31239 21.2313 3.89342 21.4584C3.97182 21.4959 4.05792 21.5154 4.14518 21.5154C4.23243 21.5154 4.31854 21.4959 4.39694 21.4584C5.25345 21.0493 7.22861 21.0874 8.03061 22.1292C8.31211 22.4773 8.47141 22.9051 8.48482 23.3489C8.50298 24.4516 8.48482 25.5519 8.50818 26.6521C8.50818 26.8325 8.4355 26.8681 8.27458 26.863C7.90862 26.863 7.54266 26.8452 7.1767 26.863C6.94829 26.863 6.886 26.802 6.886 26.5886C6.886 25.651 6.886 24.7159 6.886 23.7935C6.886 22.734 6.05285 22.2029 5.0536 22.6171C4.96016 22.6577 4.91344 22.6958 4.92901 22.7949C5.04581 23.5242 4.96535 24.2611 4.98092 24.9929C4.9939 25.5443 4.98092 26.0956 4.98092 26.6445C4.98092 26.8452 4.91085 26.8732 4.73954 26.8706C4.39435 26.8706 4.04655 26.8554 3.70135 26.8706C3.49112 26.8706 3.42623 26.8224 3.42883 26.6165C3.44181 25.6535 3.42883 24.6905 3.42883 23.7275C3.43461 23.5345 3.4029 23.3422 3.33539 23.1608C3.11478 22.6145 2.26346 22.2995 1.71062 22.5434C1.5523 22.6145 1.58864 22.734 1.58864 22.8458C1.58864 24.0832 1.58864 25.3232 1.58864 26.5606C1.58864 26.7868 1.53673 26.8681 1.29535 26.8529C0.949591 26.8326 0.602911 26.8326 0.257156 26.8529C0.0469223 26.8529 -0.00239178 26.7893 -0.00239178 26.5988C-0.00239178 25.8187 -0.00239178 25.0386 -0.00239178 24.2585L0.000203698 24.2662Z" fill="#FD0202"/>
<path d="M12.6637 25.1687C12.6637 23.9947 12.6637 22.8183 12.6637 21.6444C12.6637 21.4284 12.7389 21.3623 12.9414 21.3267C13.7441 21.1834 14.5606 21.1272 15.3759 21.159C16.248 21.1971 17.0344 21.4487 17.6314 22.1144C17.9641 22.5042 18.1685 22.9834 18.218 23.4891C18.3322 24.3556 18.218 25.1814 17.6548 25.8903C16.9877 26.7263 16.0741 26.9855 15.0307 26.8864C14.8347 26.8725 14.6412 26.8349 14.4545 26.7746C14.2677 26.7085 14.2235 26.7542 14.2261 26.9346C14.2261 27.5394 14.2261 28.1467 14.2261 28.7514C14.2261 28.9522 14.169 29.0055 13.9666 29.0055C13.611 29.0055 13.2528 28.9903 12.8972 29.0055C12.6948 29.0055 12.6377 28.9445 12.6377 28.7514C12.6662 27.5546 12.6637 26.3629 12.6637 25.1687ZM14.2209 23.9261C14.2209 24.3479 14.2209 24.7697 14.2209 25.1966C14.2209 25.283 14.208 25.372 14.3066 25.4507C14.779 25.7734 15.7419 25.7048 16.1494 25.3186C16.3912 25.0601 16.5414 24.7322 16.5776 24.3835C16.7749 23.2198 16.0585 22.4194 14.8672 22.4498C14.7452 22.4498 14.6232 22.4651 14.5012 22.4498C14.2936 22.4498 14.2028 22.5261 14.2131 22.7471C14.2339 23.1359 14.2209 23.5298 14.2209 23.9261Z" fill="#FD0202"/>
<path d="M34.9923 24.1801C34.9923 24.9424 34.9923 25.7225 34.9923 26.4924C34.9923 26.7211 34.9222 26.8024 34.6861 26.7846C34.406 26.7681 34.1252 26.7681 33.8451 26.7846C33.6349 26.7846 33.5233 26.7465 33.5311 26.5305C33.5311 26.3958 33.4947 26.3399 33.3494 26.4467C33.0575 26.6576 32.7213 26.8025 32.3653 26.8708C32.0092 26.9391 31.6421 26.9292 31.2904 26.8416C30.9388 26.7541 30.6114 26.5912 30.3319 26.3647C30.0524 26.1382 29.8277 25.8538 29.6742 25.5319C29.0435 24.2157 29.329 22.2337 31.1147 21.4333C31.9634 21.0547 32.8485 21.1106 33.7361 21.2453C34.0605 21.2936 34.372 21.4003 34.6912 21.4689C34.9508 21.5299 35.0027 21.6671 34.9975 21.8958C34.9975 22.6581 34.9975 23.4204 34.9975 24.1827L34.9923 24.1801ZM33.4117 23.8345C33.4117 23.4788 33.4117 23.1205 33.4117 22.7623C33.4117 22.6759 33.435 22.5641 33.3053 22.5387C32.7265 22.4269 32.1451 22.3608 31.6442 22.7673C31.3512 23.0154 31.1455 23.3475 31.0561 23.7164C30.9666 24.0854 30.998 24.4725 31.1458 24.823C31.2352 25.0868 31.4158 25.3119 31.6564 25.4594C31.8971 25.6069 32.1828 25.6676 32.4643 25.631C32.5942 25.6336 32.7233 25.6094 32.8431 25.5601C32.9629 25.5108 33.0708 25.4374 33.1598 25.3448C33.2488 25.2521 33.317 25.1422 33.36 25.0221C33.4029 24.902 33.4196 24.7745 33.4091 24.6477C33.4117 24.3682 33.4091 24.1014 33.4117 23.8345Z" fill="#FD0202"/>
<path d="M22.2151 24.5402C21.67 24.5402 21.1276 24.5402 20.5825 24.5402C20.3801 24.5402 20.323 24.6038 20.3853 24.7791C20.427 24.9687 20.519 25.1441 20.652 25.2878C20.7851 25.4314 20.9545 25.5382 21.1432 25.5973C21.9841 25.8514 22.8146 25.6913 23.6348 25.488C23.858 25.4346 23.9541 25.4448 23.9229 25.6913C23.9175 25.7759 23.9175 25.8608 23.9229 25.9454C23.9229 26.479 23.9229 26.4866 23.3856 26.6619C22.4513 26.9923 21.43 27.0022 20.4891 26.6899C20.0877 26.5665 19.7274 26.3403 19.4454 26.0347C19.1633 25.7291 18.9699 25.3553 18.8851 24.9519C18.6411 23.9355 18.7138 22.942 19.4042 22.078C20.0946 21.2141 21.4235 20.9067 22.5473 21.3386C23.0397 21.5502 23.4534 21.9052 23.7321 22.3554C24.0108 22.8056 24.1408 23.329 24.1046 23.8542C24.1046 23.8796 24.1046 23.9075 24.1046 23.9355C24.1046 24.5529 24.1046 24.5529 23.4661 24.5529H22.2151V24.5402ZM21.5429 23.4247C21.8699 23.4247 22.1969 23.4247 22.5239 23.4247C22.6667 23.4247 22.703 23.379 22.6745 23.2469C22.613 23.0095 22.4713 22.7995 22.2725 22.6509C22.0736 22.5024 21.8293 22.4241 21.5792 22.4287C20.9277 22.4287 20.5618 22.6625 20.4164 23.191C20.3619 23.3892 20.432 23.4298 20.6189 23.4222C20.9225 23.4171 21.2314 23.4273 21.5429 23.4247Z" fill="#FD0202"/>
<path d="M28.6956 22.0246C28.6956 22.6039 28.6956 22.5988 28.1454 22.4743C27.6793 22.367 27.2018 22.315 26.723 22.3193C26.3752 22.3193 26.1391 22.4819 26.0949 22.7183C26.0508 22.9546 26.2273 23.2036 26.5699 23.3078C27.0085 23.4399 27.4601 23.5314 27.8936 23.6686C28.2121 23.742 28.495 23.9205 28.695 24.174C28.8949 24.4276 28.9996 24.7408 28.9915 25.061C29.0181 25.4071 28.9286 25.7522 28.7365 26.0439C28.5444 26.3356 28.2603 26.5579 27.9273 26.6771C26.9956 27.0252 26.0768 26.9312 25.1502 26.639C24.8465 26.5424 24.7505 26.4026 24.7816 26.1155C24.7993 25.9466 24.7993 25.7763 24.7816 25.6073C24.7816 25.4422 24.8387 25.4091 24.9789 25.4599C25.3444 25.5755 25.7209 25.6547 26.1027 25.6963C26.4385 25.735 26.7784 25.7212 27.1098 25.6556C27.2236 25.6505 27.3323 25.6078 27.4181 25.5344C27.5039 25.461 27.5617 25.3613 27.5821 25.2516C27.6004 25.1357 27.5746 25.0173 27.5095 24.919C27.4444 24.8206 27.3446 24.749 27.2292 24.718C26.9857 24.6232 26.7348 24.5476 26.4791 24.4918C26.2195 24.4283 25.96 24.3419 25.7004 24.2581C24.8102 23.9709 24.5065 23.1045 24.8335 22.2253C25.0931 21.5519 25.6563 21.2445 26.3467 21.1505C27.0851 21.0704 27.8325 21.1396 28.5425 21.3538C28.5675 21.3565 28.5917 21.3642 28.6136 21.3765C28.6354 21.3888 28.6545 21.4053 28.6696 21.4251C28.6847 21.4448 28.6955 21.4674 28.7013 21.4914C28.7071 21.5154 28.7078 21.5404 28.7034 21.5647C28.6956 21.7324 28.6956 21.8772 28.6956 22.0246Z" fill="#FD0202"/>
<path d="M10.5869 23.1562C11.0203 23.1562 11.4511 23.1562 11.8846 23.1562C12.0299 23.1562 12.0896 23.1944 12.087 23.3392C12.087 23.7076 12.087 24.0735 12.087 24.442C12.087 24.5741 12.0325 24.6097 11.9002 24.6097C11.0281 24.6097 10.156 24.6097 9.28392 24.6097C9.11522 24.6097 9.07369 24.5487 9.07628 24.3988C9.07628 24.0507 9.07628 23.7026 9.07628 23.3519C9.07628 23.1867 9.14117 23.1537 9.2943 23.1588C9.72515 23.1588 10.156 23.1588 10.592 23.1588L10.5869 23.1562Z" fill="#FD0202"/>
<path d="M12.4298 8.14869L12.4583 9.719C11.4888 9.58571 10.5284 9.39478 9.58252 9.14729C9.70405 9.09462 9.83245 9.05871 9.96405 9.04057C10.7546 8.99361 11.5157 8.72941 12.1598 8.27828C12.2455 8.22492 12.313 8.1309 12.4298 8.14869Z" fill="#4CA700"/>
</g>
<defs>
<clipPath id="clip0">
<rect width="35" height="29" fill="white"/>
</clipPath>
</defs>
</svg>
