<svg width="512" height="512" viewBox="0 0 512 512" version="1.1" xmlns="http://www.w3.org/2000/svg" xmlns:xlink="http://www.w3.org/1999/xlink">
<g id="Canvas" fill="none">
<g id="Group">
<g id="149931032 2">
<path d="M 18 -2.98136e-06C 8.04877 -2.98136e-06 -2.97732e-06 8.0597 -2.97732e-06 18.0244C -2.97732e-06 20.0271 0.341457 21.9322 0.926823 23.7395L 6.29268 23.7395L 6.29268 8.59702L 18 20.3202L 29.7073 8.59702L 29.7073 23.7395L 35.0732 23.7395C 35.6585 21.9322 36 20.0271 36 18.0244C 36 8.0597 27.9512 -2.98136e-06 18 -2.98136e-06Z" transform="scale(14.2222)" fill="#F26722"/>
</g>
<g id="149931160 2">
<path d="M 12.6829 5.1289L 7.56097 -2.98136e-06L 7.56097 9.5251L 5.60975 9.5251L 3.65853 9.5251L -5.95465e-06 9.5251C 3.17073 14.7028 8.87804 18.171 15.3658 18.171C 21.9024 18.171 27.6097 14.7028 30.7317 9.5251L 27.0732 9.5251L 23.561 9.5251L 23.1707 9.5251L 23.1707 -2.98136e-06L 18.0488 5.1289L 15.3658 7.81547L 12.6829 5.1289Z" transform="translate(37.4653 253.569) scale(14.2222)" fill="#4D4D4D"/>
</g>
</g>
</g>
</svg>

