<svg width="51" height="8" viewBox="0 0 51 8" version="1.1" xmlns="http://www.w3.org/2000/svg" xmlns:xlink="http://www.w3.org/1999/xlink">
<title>neteller-logo</title>
<desc>Created using Figma</desc>
<g id="Canvas" transform="translate(-6978 -11590)">
<g id="neteller-logo">
<g id="Group">
<g id="Vector">
<use xlink:href="#path0_fill" transform="translate(6978.77 11590)" fill="#8DC640"/>
</g>
<g id="Vector">
<use xlink:href="#path1_fill" transform="translate(7026.63 11596.3)" fill="#8DC640"/>
</g>
<g id="Vector">
<use xlink:href="#path2_fill" transform="translate(7025.95 11595.7)" fill="#8DC640"/>
</g>
</g>
</g>
</g>
<defs>
<path id="path0_fill" d="M 43.7032 3.37235C 43.4374 3.54959 43.0517 3.63721 42.5239 3.63721L 42.2948 3.63721L 42.0004 3.63721L 42.4018 1.56322L 42.6052 1.56322L 42.7867 1.56322C 43.2248 1.56322 43.5449 1.63069 43.7654 1.76761C 43.9377 1.87499 44.1419 2.08756 44.1419 2.49094C 44.1419 2.97695 43.9043 3.23842 43.7032 3.37235ZM 12.4785 5.97527L 8.42767 5.97527L 8.68949 4.61962L 11.2303 4.61962L 11.519 3.09272L 9.00263 3.09272L 9.24588 1.75104L 13.2896 1.75104L 12.4785 5.97527ZM 45.8854 0.587407C 45.2898 0.1968 44.3885 3.59378e-07 43.2069 3.59378e-07L 40.1122 3.59378e-07L 38.9619 5.97546L 34.9079 5.97546L 35.1679 4.61982L 37.6102 4.61982L 37.9006 3.09711L 35.4597 3.1013L 35.7212 1.75144L 38.2363 1.75144L 38.5709 0.000199844L 33.4618 0.000199844L 32.3699 5.66889L 30.4964 5.66889L 31.5963 0.000199844L 28.9253 0.000199844L 27.8334 5.66889L 26.0067 5.66889L 27.1076 0.000199844L 24.4393 0.000199844L 23.2861 5.97566L 19.2034 5.97566L 19.4606 4.62002L 21.914 4.62002L 22.2029 3.10609L 19.7533 3.1039L 20.0134 1.75144L 22.5565 1.75144L 22.8895 0.000199844L 6.97233 0.000199844L 6.06629 4.73558L 4.2613 3.59378e-07L 1.49101 3.59378e-07L -2.86497e-08 7.72771L 2.64552 7.72771L 3.54781 2.86219L 5.2996 7.72771L 14.7818 7.72771L 15.9345 1.75124L 17.4182 1.75124L 16.2649 7.72771L 41.2156 7.72771L 41.9383 3.95477L 43.1097 7.72771L 45.7567 7.72771L 44.5439 4.64497L 44.8208 4.58768C 45.4308 4.46274 45.9083 4.19348 46.2396 3.7901C 46.5715 3.38293 46.7401 2.86019 46.7401 2.23227C 46.7403 1.50095 46.4612 0.963244 45.8854 0.587407Z"/>
<path id="path1_fill" d="M 0.198191 0.558362L 0.558687 0.5404C 0.635042 0.537007 0.695333 0.526028 0.737474 0.508663C 0.779616 0.491698 0.811535 0.465751 0.83198 0.430821C 0.852425 0.396092 0.862231 0.359566 0.859519 0.320445C 0.85639 0.262563 0.831981 0.216457 0.78671 0.181129C 0.741231 0.1462 0.671133 0.131829 0.577045 0.136021L 0.175869 0.155581L 0.198191 0.558362ZM 0.06488 1.24457L 1.09506e-06 0.0290374L 0.563694 0.00189222C 0.67635 -0.00369643 0.762511 0.00309079 0.822803 0.0222519C 0.883303 0.0410138 0.931912 0.0773396 0.970298 0.131031C 1.00848 0.184522 1.02975 0.244001 1.03246 0.311065C 1.03768 0.39729 1.01202 0.47114 0.956944 0.533413C 0.901868 0.595088 0.81404 0.637203 0.693249 0.659159C 0.738519 0.677921 0.773776 0.695884 0.797559 0.714447C 0.849089 0.755164 0.898323 0.807058 0.945471 0.869731L 1.18247 1.18988L 0.97301 1.20006L 0.791508 0.955356C 0.738518 0.8845 0.695126 0.83061 0.66133 0.793485C 0.627742 0.756361 0.59749 0.731012 0.571621 0.716641C 0.546378 0.70227 0.519258 0.69289 0.493598 0.6877C 0.473988 0.684906 0.442902 0.684506 0.399509 0.686701L 0.205493 0.696083L 0.233446 1.23639L 0.06488 1.24457Z"/>
<path id="path2_fill" d="M 0.203124 1.18428C 0.19019 0.932788 0.27948 0.691678 0.455764 0.505257C 0.632049 0.318436 0.87447 0.20806 1.13775 0.195286C 1.67975 0.168341 2.14351 0.568927 2.17147 1.08807C 2.1723 1.10404 2.17334 1.12101 2.17334 1.13637C 2.17334 1.63456 1.76319 2.05191 1.23768 2.07826C 0.694844 2.10461 0.231497 1.70362 0.203124 1.18428ZM 1.12648 0.00147926C 0.810423 0.0176464 0.518352 0.149778 0.306184 0.375121C 0.0938077 0.600264 -0.0146735 0.891671 0.00159895 1.19485C 0.0358128 1.81999 0.594707 2.30241 1.24853 2.27107C 1.90151 2.23874 2.40679 1.70362 2.37299 1.07849L 2.37299 1.07789C 2.34003 0.452563 1.78114 -0.0302563 1.12648 0.00147926Z"/>
</defs>
</svg>
