<svg width="512" height="501" viewBox="0 0 512 501" version="1.1" xmlns="http://www.w3.org/2000/svg" xmlns:xlink="http://www.w3.org/1999/xlink">
<g id="Canvas" fill="none">
<g id="Group">
<g id="Vector">
<path d="M 20.2637 25.2446C 20.3688 23.5361 20.654 21.8276 20.5189 20.1339C 20.0686 14.3309 17.1116 10.0596 11.843 7.36435C 11.5278 7.20234 11.1225 7.18761 10.7473 7.18761C 7.47507 7.17288 4.20285 7.18761 0.91562 7.18761C 0.630427 7.18761 0.330224 7.18761 4.58074e-07 7.18761C 1.42597 4.05046 6.28926 -0.029298 12.4134 0.000158715C 18.6727 0.0148871 24.3765 4.37449 25.9226 10.2953C 27.5587 16.4959 24.8418 22.0338 20.2637 25.2446Z" transform="translate(197.634 85.6628) scale(11.907)" fill="black"/>
</g>
<g id="Vector_2">
<path d="M 26.2647 18.2337C 23.728 22.8143 18.4294 25.7599 12.8156 25.2739C 6.9166 24.7584 1.73809 20.3694 0.417194 14.9493C -1.08382 8.83703 1.603 3.25497 6.27116 -1.12369e-07C 6.1811 0.662777 6.12106 1.22246 6.031 1.76741C 5.31051 6.14173 6.40626 10.0742 9.07807 13.6238C 10.2939 15.2291 11.6598 16.6873 13.416 17.733C 13.8663 17.9981 14.4367 18.1748 14.947 18.1748C 18.5195 18.219 22.0919 18.1895 25.6793 18.2043C 25.8444 18.1895 26.0095 18.219 26.2647 18.2337Z" transform="translate(0 113.035) scale(11.907)" fill="black"/>
</g>
<g id="Vector_3">
<path d="M -1.8323e-06 19.6329C 1.05071 19.7508 1.96633 19.9128 2.88195 19.9422C 9.51645 20.2368 14.4998 17.4826 17.9071 11.93C 18.1623 11.5176 18.2824 10.9579 18.2824 10.4719C 18.3124 7.26109 18.2974 4.0503 18.2974 0.82479C 18.2974 0.559679 18.2974 0.309296 18.2974 4.49475e-07C 22.8155 2.40073 25.7274 7.29055 25.3672 12.578C 24.9319 19.0733 20.3988 23.6391 14.9802 25.0382C 8.66087 26.6878 3.00203 23.8158 -1.8323e-06 19.6329Z" transform="translate(119.89 196.337) scale(11.907)" fill="#FE5B01"/>
</g>
<g id="Vector_4">
<path d="M 7.04988 25.694C 3.17725 23.6173 -0.620324 18.2414 0.0851545 12.3353C 0.835664 6.14941 5.17361 1.46579 11.3878 0.258058C 17.0467 -0.846571 22.4053 1.70144 25.3923 5.86957C 24.2215 5.75174 23.0958 5.58973 21.955 5.53082C 17.3168 5.33935 13.4292 7.06257 10.0669 10.0819C 9.75171 10.3617 9.45151 10.6563 9.1513 10.9509C 7.60526 12.409 6.82473 14.088 6.98984 16.312C 7.18497 19.0957 7.03487 21.9088 7.03487 24.6924C 7.04988 25.0017 7.04988 25.2816 7.04988 25.694Z" transform="translate(89.564 0) scale(11.907)" fill="#FE5B01"/>
</g>
</g>
</g>
</svg>

