<svg width="512" height="276" viewBox="0 0 512 276" version="1.1" xmlns="http://www.w3.org/2000/svg" xmlns:xlink="http://www.w3.org/1999/xlink">
<title>Group</title>
<desc>Created using Figma</desc>
<g id="Canvas" transform="matrix(13.1282 0 0 13.1282 -73176.6 -148467)">
<g id="Group">
<g id="Group">
<g id="Vector">
<use xlink:href="#path0_fill" transform="translate(5598.47 11310.6)" fill="#EB4701"/>
</g>
<g id="Vector">
<use xlink:href="#path1_fill" transform="translate(5577.82 11309)" fill="#EB4701"/>
</g>
<g id="Vector">
<use xlink:href="#path2_fill" transform="translate(5574.77 11316)" fill="#EB4701"/>
</g>
<g id="Vector">
<use xlink:href="#path3_fill" transform="translate(5574 11320.7)" fill="#EB4701"/>
</g>
</g>
</g>
</g>
<defs>
<path id="path0_fill" d="M 5.85958 9.10766L 10.5987 4.53844C 10.6139 4.52306 13.9449 1.30769 13.9449 1.30769C 14.5505 0.723074 13.8995 0.0153845 13.0818 0.0153845L 11.2801 0.0153845C 10.4624 0.0153845 10.0385 0.492306 9.448 1.07692L 5.93528 4.49229C 5.93528 4.49229 5.93528 4.49229 5.92014 4.50767L 3.66413 6.70766L 3.66413 4.1846L 3.64899 4.1846C 3.64899 4.15383 3.66413 4.12306 3.66413 4.09229L 3.66413 1.53846C 3.66413 0.692305 2.99792 5.86874e-08 2.16516 5.86874e-08L 1.49896 5.86874e-08C 0.681346 5.86874e-08 9.24135e-07 0.692305 9.24135e-07 1.53846L 9.24135e-07 4.07691C 9.24135e-07 4.10768 -4.62518e-07 4.13844 0.0151406 4.16921L 9.24135e-07 4.16921L 9.24135e-07 14.9538L 9.24135e-07 15.0615L 9.24135e-07 17.8769C 9.24135e-07 18.723 0.666205 19.4153 1.49896 19.4153L 2.16516 19.4153C 2.98278 19.4153 3.66413 18.723 3.66413 17.8769L 3.66413 15.0615L 3.66413 14.9538L 3.66413 11.7538L 6.88917 15.0769L 10.0536 18.3538C 10.629 18.9538 11.0378 19.4461 11.8554 19.4461L 13.6572 19.4461C 14.4748 19.4461 14.8231 18.4461 14.2477 17.8461L 5.85958 9.10766Z"/>
<path id="path1_fill" d="M 16.534 2.87691C 14.8079 0.969227 12.4459 0 9.58427 0C 6.70747 0 4.34547 0.969227 2.60426 2.87691C 1.31727 4.2769 0.514795 6.06151 0.181692 8.15381L 0.030282 9.81534L 0.030282 9.83073C 0.015141 10.0461 1.15517e-07 10.2615 1.15517e-07 10.4923C 1.15517e-07 10.8461 0.015141 11.1846 0.030282 11.5076L 0.030282 11.523L 0.242256 13.1846C 0.605641 15.123 1.39297 16.7845 2.58911 18.1076C 4.33033 20.0153 6.69233 20.9845 9.56913 20.9845C 12.4308 20.9845 14.7928 20.0153 16.5189 18.1076C 18.2449 16.1999 19.108 13.6307 19.108 10.5076C 19.1383 7.3692 18.2752 4.78459 16.534 2.87691ZM 13.7026 15.9076C 13.1878 16.5538 12.5973 17.0307 11.916 17.3384C 11.2346 17.6461 10.4624 17.8153 9.56913 17.8153C 8.67581 17.8153 7.90361 17.6615 7.22227 17.3384C 6.54092 17.0307 5.95042 16.5538 5.43563 15.9076C 4.82999 15.1538 4.3909 14.2153 4.1335 13.1076L 3.90638 11.4769C 3.90638 11.3846 3.89124 11.1692 3.89124 10.9538C 3.89124 10.723 3.89124 10.4615 3.89124 10.2615C 3.89124 10.0769 3.89124 9.93842 3.89124 9.87688L 4.07293 8.2615C 4.31519 6.99997 4.76942 5.93844 5.43563 5.10767C 5.95042 4.46152 6.54092 3.9846 7.22227 3.67691C 7.90361 3.36922 8.67581 3.19999 9.56913 3.19999C 10.4624 3.19999 11.2346 3.35383 11.916 3.67691C 12.5973 3.9846 13.1878 4.46152 13.7026 5.10767C 14.7322 6.39997 15.2621 8.21535 15.2621 10.523C 15.2773 12.7999 14.7322 14.6153 13.7026 15.9076Z"/>
<path id="path2_fill" d="M 12.5822 2.32307L -1.44396e-08 2.32307L 1.181 0L 13.7632 0L 12.5822 2.32307Z"/>
<path id="path3_fill" d="M 10.9924 2.32307L 0 2.32307L 1.24156 4.69499e-07L 12.2339 4.69499e-07L 10.9924 2.32307Z"/>
</defs>
</svg>
