<svg width="35" height="24" viewBox="0 0 35 24" fill="none" xmlns="http://www.w3.org/2000/svg">
<path d="M4.14 9.168C3.348 9.168 2.636 8.988 2.004 8.628C1.38 8.26 0.888 7.748 0.528 7.092C0.176 6.428 0 5.664 0 4.8C0 3.936 0.176 3.176 0.528 2.52C0.888 1.856 1.38 1.344 2.004 0.984C2.636 0.616 3.348 0.432 4.14 0.432C4.932 0.432 5.64 0.616 6.264 0.984C6.896 1.344 7.388 1.856 7.74 2.52C8.1 3.176 8.28 3.936 8.28 4.8C8.28 5.664 8.1 6.428 7.74 7.092C7.388 7.748 6.896 8.26 6.264 8.628C5.64 8.988 4.932 9.168 4.14 9.168ZM4.14 7.68C4.956 7.68 5.58 7.416 6.012 6.888C6.452 6.36 6.672 5.664 6.672 4.8C6.672 3.936 6.452 3.24 6.012 2.712C5.58 2.184 4.956 1.92 4.14 1.92C3.324 1.92 2.696 2.184 2.256 2.712C1.824 3.24 1.608 3.936 1.608 4.8C1.608 5.664 1.824 6.36 2.256 6.888C2.696 7.416 3.324 7.68 4.14 7.68Z" transform="translate(0.675781)" fill="#465735"/>
<path d="M12.3352 2.904C13.0792 2.904 13.6432 3.152 14.0272 3.648C14.4112 4.144 14.6032 4.812 14.6032 5.652V9H13.1152V5.772C13.1152 5.212 13.0192 4.8 12.8272 4.536C12.6432 4.264 12.3432 4.128 11.9272 4.128C11.4712 4.128 11.0952 4.3 10.7992 4.644V9H9.31116V3H10.7032L10.7272 3.42C11.2312 3.076 11.7672 2.904 12.3352 2.904Z" transform="translate(0.675781)" fill="#465735"/>
<path d="M17.4683 9.12C16.9563 9.12 16.5723 8.976 16.3162 8.688C16.0602 8.392 15.9322 8.012 15.9322 7.548V0H17.4202V6.936C17.4202 7.256 17.4363 7.484 17.4683 7.62C17.5083 7.748 17.5723 7.828 17.6602 7.86C17.7563 7.884 17.9162 7.896 18.1402 7.896L18.0082 9.12H17.4683Z" transform="translate(0.675781)" fill="#465735"/>
<path d="M19.0846 0.6H20.5726V2.088H19.0846V0.6ZM19.0846 3H20.5726V9H19.0846V3Z" transform="translate(0.675781)" fill="#465735"/>
<path d="M24.9914 2.904C25.7354 2.904 26.2994 3.152 26.6834 3.648C27.0674 4.144 27.2594 4.812 27.2594 5.652V9H25.7714V5.772C25.7714 5.212 25.6754 4.8 25.4834 4.536C25.2994 4.264 24.9994 4.128 24.5834 4.128C24.1274 4.128 23.7514 4.3 23.4554 4.644V9H21.9674V3H23.3594L23.3834 3.42C23.8874 3.076 24.4234 2.904 24.9914 2.904Z" transform="translate(0.675781)" fill="#465735"/>
<path d="M31.4805 9.12C30.7845 9.12 30.1885 8.98 29.6925 8.7C29.2045 8.412 28.8365 8.032 28.5885 7.56C28.3485 7.08 28.2285 6.548 28.2285 5.964C28.2285 5.404 28.3445 4.892 28.5765 4.428C28.8085 3.964 29.1445 3.596 29.5845 3.324C30.0245 3.044 30.5485 2.904 31.1565 2.904C31.7165 2.904 32.1885 3.02 32.5725 3.252C32.9645 3.484 33.2565 3.796 33.4485 4.188C33.6485 4.58 33.7485 5.02 33.7485 5.508C33.7485 5.748 33.7165 6.02 33.6525 6.324H29.7765C29.8565 6.852 30.0645 7.248 30.4005 7.512C30.7365 7.768 31.1405 7.896 31.6125 7.896C32.2605 7.896 32.8605 7.732 33.4125 7.404L33.4845 8.664C33.2285 8.8 32.9285 8.912 32.5845 9C32.2485 9.08 31.8805 9.12 31.4805 9.12ZM32.2365 5.316C32.2365 5.004 32.1485 4.728 31.9725 4.488C31.7965 4.248 31.5245 4.128 31.1565 4.128C30.7885 4.128 30.4925 4.236 30.2685 4.452C30.0445 4.668 29.8925 4.956 29.8125 5.316H32.2365Z" transform="translate(0.675781)" fill="#465735"/>
<path d="M4.20127 14.6H5.71327L9.30127 20.024V14.6H10.8373V23H9.57726L5.73727 17.24V23H4.20127V14.6Z" transform="translate(0.675781)" fill="#465735"/>
<path d="M13.6365 23.12C13.1405 23.12 12.7245 22.96 12.3885 22.64C12.0605 22.312 11.8965 21.872 11.8965 21.32C11.8965 20.8 12.0845 20.384 12.4605 20.072C12.8365 19.752 13.2805 19.528 13.7925 19.4C14.3045 19.264 14.7965 19.188 15.2685 19.172C15.2525 18.82 15.1605 18.568 14.9925 18.416C14.8325 18.264 14.5645 18.188 14.1885 18.188C13.9245 18.188 13.6645 18.224 13.4085 18.296C13.1605 18.368 12.8725 18.484 12.5445 18.644L12.4125 17.432C13.1405 17.08 13.8685 16.904 14.5965 16.904C15.3005 16.904 15.8365 17.096 16.2045 17.48C16.5805 17.864 16.7685 18.476 16.7685 19.316V20.936C16.7685 21.24 16.7805 21.46 16.8045 21.596C16.8365 21.724 16.8845 21.808 16.9485 21.848C17.0205 21.88 17.1365 21.896 17.2965 21.896H17.4885L17.3565 23.12H16.8165C16.4885 23.12 16.2125 23.06 15.9885 22.94C15.7645 22.812 15.5925 22.64 15.4725 22.424C15.2805 22.64 15.0165 22.812 14.6805 22.94C14.3525 23.06 14.0045 23.12 13.6365 23.12ZM14.2605 21.98C14.4125 21.98 14.5845 21.944 14.7765 21.872C14.9685 21.792 15.1365 21.684 15.2805 21.548V20.18C14.8005 20.204 14.3765 20.308 14.0085 20.492C13.6405 20.676 13.4565 20.932 13.4565 21.26C13.4565 21.508 13.5205 21.692 13.6485 21.812C13.7765 21.924 13.9805 21.98 14.2605 21.98Z" transform="translate(0.675781)" fill="#465735"/>
<path d="M18.317 14.6H19.805V16.088H18.317V14.6ZM18.317 17H19.805V23H18.317V17Z" transform="translate(0.675781)" fill="#465735"/>
<path d="M21.1998 17H22.5918L22.6278 17.636C22.8038 17.436 23.0278 17.26 23.2998 17.108C23.5798 16.956 23.8718 16.88 24.1758 16.88C24.2718 16.88 24.3598 16.888 24.4398 16.904L24.3318 18.368C24.1798 18.328 24.0078 18.308 23.8158 18.308C23.5678 18.308 23.3398 18.368 23.1318 18.488C22.9238 18.6 22.7758 18.74 22.6878 18.908V23H21.1998V17Z" transform="translate(0.675781)" fill="#465735"/>
<path d="M26.3865 23.12C25.8905 23.12 25.4745 22.96 25.1385 22.64C24.8105 22.312 24.6465 21.872 24.6465 21.32C24.6465 20.8 24.8345 20.384 25.2105 20.072C25.5865 19.752 26.0305 19.528 26.5425 19.4C27.0545 19.264 27.5465 19.188 28.0185 19.172C28.0025 18.82 27.9105 18.568 27.7425 18.416C27.5825 18.264 27.3145 18.188 26.9385 18.188C26.6745 18.188 26.4145 18.224 26.1585 18.296C25.9105 18.368 25.6225 18.484 25.2945 18.644L25.1625 17.432C25.8905 17.08 26.6185 16.904 27.3465 16.904C28.0505 16.904 28.5865 17.096 28.9545 17.48C29.3305 17.864 29.5185 18.476 29.5185 19.316V20.936C29.5185 21.24 29.5305 21.46 29.5545 21.596C29.5865 21.724 29.6345 21.808 29.6985 21.848C29.7705 21.88 29.8865 21.896 30.0465 21.896H30.2385L30.1065 23.12H29.5665C29.2385 23.12 28.9625 23.06 28.7385 22.94C28.5145 22.812 28.3425 22.64 28.2225 22.424C28.0305 22.64 27.7665 22.812 27.4305 22.94C27.1025 23.06 26.7545 23.12 26.3865 23.12ZM27.0105 21.98C27.1625 21.98 27.3345 21.944 27.5265 21.872C27.7185 21.792 27.8865 21.684 28.0305 21.548V20.18C27.5505 20.204 27.1265 20.308 26.7585 20.492C26.3905 20.676 26.2065 20.932 26.2065 21.26C26.2065 21.508 26.2705 21.692 26.3985 21.812C26.5265 21.924 26.7305 21.98 27.0105 21.98Z" transform="translate(0.675781)" fill="#465735"/>
</svg>
