<svg width="50" height="29" viewBox="0 0 50 29" fill="none" xmlns="http://www.w3.org/2000/svg">
<path d="M31.6908 6.75941H28.6074C29.1499 5.76015 30.8515 3.35051 33.3182 1.70602C36.4016 -0.349594 41.455 -0.435245 44.5384 0.849514C47.6219 2.13427 48.821 4.44684 49.3349 5.30335C49.746 5.98855 49.9059 7.75866 49.9344 8.55807L49.3349 11.7271L45.8232 16.0953L41.712 15.6671C41.9689 15.5243 42.774 15.136 43.9389 14.7249C45.3949 14.211 46.5084 12.1554 46.7654 11.7271C47.0223 11.2989 47.7075 8.12982 46.3371 5.81725C44.9667 3.50468 42.4828 2.47688 40.1703 2.39122C37.8577 2.30557 35.7164 3.07643 34.2604 3.93294C33.0955 4.61814 32.062 6.10275 31.6908 6.75941Z" fill="#4E8935"/>
<path d="M37.258 8.04459H34.1745L31.1768 17.1236H34.3458L35.288 13.8689C35.4022 14.0116 35.7717 14.7091 36.0588 15.068C37.0867 16.3528 37.8575 16.6954 38.714 17.1236C39.5705 17.5519 41.7974 17.8088 43.6817 17.3806C45.5661 16.9523 47.1934 15.7532 48.0499 14.8111C48.9064 13.8689 49.506 12.0702 49.8486 10.9568C50.1227 10.066 49.9628 8.1303 49.8486 7.2738C49.7344 8.18741 49.4203 10.203 49.0777 10.9568C48.6495 11.8989 47.6217 13.4406 46.2513 14.2972C44.8809 15.1537 42.0544 15.2393 41.0266 15.068C39.9988 14.8967 39.4849 14.2972 39.2279 14.0402C39.0224 13.8346 39.0281 13.5548 39.0566 13.4406C39.3707 13.1551 40.2729 12.3614 41.3692 11.4707C42.7396 10.3572 43.4248 9.32941 43.4248 7.6164C43.4248 5.90339 41.7974 5.04682 41.3692 4.78987C40.9409 4.53291 38.5427 4.27596 36.9154 4.78987C35.6135 5.20099 34.8312 6.38868 34.6028 6.93113H39.8275C40.3414 6.93113 40.684 7.10243 40.7696 7.78764C40.8381 8.3358 40.5127 8.75835 40.3414 8.9011L35.6306 12.9267H35.4593L37.258 8.04459Z" fill="#8BB63C"/>
<path fill-rule="evenodd" clip-rule="evenodd" d="M16.5307 17.2084H18.9289L20.7276 8.12942C20.2137 7.98667 18.8604 7.70117 17.5585 7.70117C15.1602 7.70117 13.3615 8.55768 11.9055 10.5276C10.5076 12.419 10.9634 15.3241 11.6486 16.1806C12.3338 17.0371 13.3616 17.3797 14.0468 17.3797C14.595 17.3797 16.0453 16.5803 16.702 16.1806L16.5307 17.2084ZM17.7298 9.92809L16.9589 14.2963C16.6734 14.6674 15.8626 15.3755 14.9033 15.2384C13.7042 15.0671 13.5329 13.868 13.6186 13.0972C13.7042 12.3263 14.6463 10.6133 15.6741 10.2707C16.4964 9.99661 17.3872 9.92809 17.7298 9.92809Z" fill="#0074BB"/>
<path fill-rule="evenodd" clip-rule="evenodd" d="M2.39822 4.78906L0 17.1228H3.16907L3.85428 13.4398H6.7664C8.05116 13.4398 9.76417 12.7546 10.4494 11.2985C11.1346 9.84245 11.3059 7.52988 10.8776 6.75903C10.4494 5.98817 9.33592 4.78906 7.79421 4.78906H2.39822ZM4.19688 11.2129L5.05339 7.01598H6.68075C7.53726 7.01598 8.47941 7.70118 8.39376 8.90029C8.30811 10.0994 7.62291 11.2129 6.2525 11.2129H4.19688Z" fill="#0074BB"/>
<path d="M24.4106 16.353L21.3271 8.04492H24.068L25.8666 12.927L28.2649 8.04492H31.177L24.9245 20.8925H22.0124L24.4106 16.353Z" fill="#0074BB"/>
<path d="M8.94805 27.4001L8.76738 28.4299H8.1792L8.68708 25.5071L9.71087 25.5091C10.0267 25.5091 10.275 25.5968 10.4556 25.7721C10.6363 25.9474 10.7153 26.1762 10.6925 26.4586C10.6711 26.745 10.5513 26.9739 10.3332 27.1452C10.1164 27.3165 9.83935 27.4021 9.5021 27.4021L8.94805 27.4001ZM9.03035 26.9123L9.52017 26.9163C9.67809 26.9163 9.80924 26.8755 9.91362 26.7939C10.018 26.7122 10.0802 26.6018 10.1003 26.4626C10.1204 26.3234 10.0976 26.2124 10.0321 26.1294C9.96783 26.0464 9.87214 26.0023 9.745 25.9969L9.19095 25.9949L9.03035 26.9123Z" fill="black"/>
<path d="M12.6683 27.8277H11.6485L11.3474 28.4299H10.699L12.2608 25.5071H12.8048L13.3609 28.4299H12.7607L12.6683 27.8277ZM11.8894 27.3399H12.594L12.4294 26.2518L11.8894 27.3399Z" fill="black"/>
<path d="M15.1319 26.82L15.9489 25.5071H16.6234L15.3467 27.4021L15.1701 28.4299H14.5718L14.7625 27.3359L14.1563 25.5091L14.7766 25.5071L15.1319 26.82Z" fill="black"/>
<path d="M18.1616 27.36H17.6838L17.4972 28.4299H16.909L17.4169 25.5071L18.3844 25.5091C18.7083 25.5091 18.9572 25.5854 19.1312 25.7379C19.3065 25.8905 19.3841 26.1026 19.3641 26.3743C19.336 26.7758 19.1218 27.0548 18.7217 27.2114L19.1332 28.3978V28.4299H18.5069L18.1616 27.36ZM17.7682 26.8721L18.2058 26.8762C18.361 26.8735 18.4888 26.832 18.5892 26.7517C18.6909 26.6701 18.7518 26.5597 18.7719 26.4205C18.7906 26.2907 18.7699 26.1889 18.7096 26.1153C18.6494 26.0417 18.5537 26.0023 18.4226 25.9969L17.9207 25.9949L17.7682 26.8721Z" fill="black"/>
<path d="M21.9381 27.1632H20.8179L20.6814 27.9461H21.9983L21.914 28.4299H20.0089L20.5168 25.5071H22.4179L22.3315 25.9949H21.0207L20.8982 26.6915H22.0224L21.9381 27.1632Z" fill="black"/>
<path d="M25.4074 25.9949H24.5402L24.1186 28.4299H23.5305L23.952 25.9949H23.0949L23.1812 25.5071H25.4937L25.4074 25.9949Z" fill="black"/>
<path d="M27.3491 27.8277H26.3293L26.0282 28.4299H25.3798L26.9416 25.5071H27.4856L28.0417 28.4299H27.4414L27.3491 27.8277ZM26.5702 27.3399H27.2748L27.1102 26.2518L26.5702 27.3399Z" fill="black"/>
<path d="M29.4975 28.4299H28.9094L29.4152 25.5071H30.0034L29.4975 28.4299Z" fill="black"/>
<path d="M31.2625 27.9461H32.5031L32.4188 28.4299H30.5901L31.0979 25.5071H31.6861L31.2625 27.9461Z" fill="black"/>
<path d="M35.2337 27.1632H34.1136L33.9771 27.9461H35.294L35.2097 28.4299H33.3046L33.8125 25.5071H35.7135L35.6272 25.9949H34.3163L34.1939 26.6915H35.3181L35.2337 27.1632Z" fill="black"/>
<path d="M37.3561 27.36H36.8783L36.6916 28.4299H36.1034L36.6113 25.5071L37.5789 25.5091C37.9028 25.5091 38.1517 25.5854 38.3257 25.7379C38.501 25.8905 38.5786 26.1026 38.5585 26.3743C38.5304 26.7758 38.3163 27.0548 37.9162 27.2114L38.3277 28.3978V28.4299H37.7014L37.3561 27.36ZM36.9626 26.8721L37.4002 26.8762C37.5555 26.8735 37.6833 26.832 37.7837 26.7517C37.8854 26.6701 37.9463 26.5597 37.9663 26.4205C37.9851 26.2907 37.9643 26.1889 37.9041 26.1153C37.8439 26.0417 37.7482 26.0023 37.6171 25.9969L37.1152 25.9949L36.9626 26.8721Z" fill="black"/>
<path d="M40.8114 27.649C40.8395 27.4898 40.7612 27.368 40.5765 27.2837L40.1891 27.1291C39.7394 26.9284 39.5259 26.652 39.5487 26.3C39.5581 26.1368 39.6116 25.9922 39.7093 25.8664C39.807 25.7406 39.9442 25.6423 40.1208 25.5713C40.2975 25.4991 40.4882 25.4643 40.6929 25.4669C40.9753 25.4723 41.2035 25.5566 41.3775 25.7199C41.5514 25.8818 41.6371 26.0993 41.6344 26.3723H41.0482C41.0549 26.2398 41.0255 26.1368 40.9599 26.0631C40.8957 25.9895 40.7953 25.9514 40.6588 25.9487C40.525 25.946 40.4085 25.9768 40.3095 26.0411C40.2105 26.104 40.1516 26.191 40.1329 26.302C40.1074 26.4479 40.2051 26.5637 40.4259 26.6493L40.6909 26.7497L40.8435 26.82C41.2383 27.0153 41.423 27.2897 41.3975 27.643C41.3855 27.8156 41.33 27.9649 41.2309 28.0907C41.1332 28.2151 40.9994 28.3108 40.8294 28.3777C40.6608 28.4446 40.4748 28.4761 40.2714 28.4721C40.0639 28.4681 39.8792 28.4246 39.7173 28.3416C39.5554 28.2586 39.4323 28.1415 39.3479 27.9903C39.269 27.8498 39.2322 27.6892 39.2375 27.5085L39.8257 27.5105C39.807 27.8277 39.9629 27.989 40.2934 27.9943C40.4366 27.9943 40.5544 27.9629 40.6468 27.9C40.7391 27.8371 40.794 27.7534 40.8114 27.649Z" fill="black"/>
</svg>
