<svg width="25" height="33" viewBox="0 0 25 33" fill="none" xmlns="http://www.w3.org/2000/svg">
    <path d="M4.73307 22.6132L0 27.4777L0.920319 28.398C1.31474 28.7925 3.28685 30.2387 3.81275 30.5016C4.23347 30.712 5.25896 31.1152 6.04781 31.2905L10.1235 31.6849C11.9203 30.7207 15.6191 28.7662 16.0398 28.661C16.4606 28.5558 16.4781 25.0235 16.4343 23.2705L13.9363 22.2188C13.9363 22.6132 13.8311 23.5598 13.4104 24.1909C12.8845 24.9797 12.49 24.9797 11.1753 24.9797C9.86056 24.9797 8.94024 24.7168 7.88845 24.3223C7.04701 24.0068 5.43426 23.0514 4.73307 22.6132Z" fill="#B02028"/>
    <path d="M12.0957 8.1513C10.3865 8.80867 10.6495 9.86046 10.518 9.86046C9.94829 9.15924 8.78255 7.7305 8.67737 7.62532C8.5459 7.49385 8.5459 5.78468 8.5459 5.65321C8.5459 5.54803 11.6136 3.3305 13.1475 2.23488L18.275 1.70898C19.1953 2.01576 20.8519 2.76078 21.6933 3.28667C22.5347 3.81257 23.8845 5.08349 24.4543 5.65321L19.5897 10.3863C18.9324 9.94806 17.4598 8.99273 16.8288 8.67719C16.0399 8.28277 13.8049 7.49393 12.0957 8.1513Z" fill="#B02028"/>
    <path d="M10.6494 15.6457L11.3067 22.6138L12.7529 22.2194C12.8406 22.2632 13.0159 22.2194 13.2788 22.6138C13.4439 22.8613 13.8047 23.6656 13.9362 24.1915C14.1156 24.9092 13.9888 25.6114 13.6733 26.558C13.2788 27.7413 12.227 29.056 10.2549 30.1078C8.67724 30.9493 6.17923 31.072 5.12744 31.0282C5.34656 31.1158 5.91629 31.3174 6.44218 31.4226C6.96808 31.5278 7.97605 31.5541 8.41429 31.5541L7.8884 33.0003H11.7011L12.49 31.5541C13.3227 31.4226 15.1984 31.0282 16.0398 30.5023C17.0916 29.8449 19.3266 28.2672 20.5099 25.7692C21.4565 23.7708 21.0796 21.0799 20.7729 19.9843L22.3505 19.1955C21.6494 18.2313 19.7211 15.8297 17.6175 13.9365C15.5139 12.0433 13.6733 10.7811 13.0159 10.3867L10.6494 15.6457Z" fill="#F50F1B"/>
    <path d="M11.5698 16.4343C11.149 18.643 11.2192 21.4741 11.3068 22.6135C10.1674 21.7809 7.52038 19.7737 6.04787 18.4064C4.57536 17.039 2.71719 14.7689 1.97217 13.8048L3.41838 13.2789C3.46221 11.5697 3.41838 8.80877 4.20723 6.83665C4.79722 5.36167 6.96818 3.28685 8.4144 2.49801C9.57137 1.86693 11.263 1.53386 11.9642 1.44622L12.2271 1.05179L13.016 0H16.5658L16.3028 1.31474C16.5658 1.31474 17.1969 1.34104 17.6176 1.44622C18.0383 1.55139 19.1076 2.01594 19.5897 2.23506C18.3626 2.27888 15.6981 2.41912 14.8566 2.62948C13.8048 2.89243 11.3068 4.20717 10.7809 6.44223C10.3602 8.23028 10.9562 10.0797 11.3068 10.7809L13.1475 10.3865C12.7969 11.4821 11.9905 14.2255 11.5698 16.4343Z" fill="#DF0915"/>
</svg>
