<svg width="512" height="512" viewBox="0 0 512 512" version="1.1" xmlns="http://www.w3.org/2000/svg" xmlns:xlink="http://www.w3.org/1999/xlink">
<g id="Canvas" fill="none">
<g id="perfect_money">
<g id="Page 1">
<g id="perfect money">
<g id="Oval 1">
<path d="M 18 36C 27.9411 36 36 27.9411 36 18C 36 8.05887 27.9411 0 18 0C 8.05887 0 0 8.05887 0 18C 0 27.9411 8.05887 36 18 36Z" transform="scale(14.2222)" fill="#E33E23"/>
</g>
<g id="Combined Shape">
<path fill-rule="evenodd" clip-rule="evenodd" d="M 1.95937e-08 6.95396C 1.95937e-08 6.95396 8.01327 8.68406 9.13929 4.96002C 10.2433 1.30866 6.582 0.5535 6.582 0.5535L 4.97357 0.5535L 4.97357 6.67616L 3.25009 6.67616L 3.25009 0.752527L 1.72399 0.752527L 1.72399 0.126578C 1.72399 0.126578 7.50596 0.103555 8.14442 0.178196C 11.3547 0.5535 12.9171 6.30462 7.77563 7.45059C 3.77663 8.34193 1.95937e-08 6.95396 1.95937e-08 6.95396ZM 3.24034 8.27299L 3.24034 11.9483C 3.24034 11.9483 3.23029 12.7303 2.52481 12.7303C 1.81933 12.7303 1.64645 12.7303 1.64645 12.7303L 1.64645 13.3438L 6.62012 13.3438L 6.62012 12.6688L 5.51989 12.6688C 5.51989 12.6688 4.95238 12.6045 4.95238 12.0274C 4.95238 11.4504 4.95238 8.23917 4.95238 8.23917L 3.25018 8.23917L 3.24034 8.27299ZM 9.59708 13.3742L 14.6065 13.3742L 14.6065 12.6061L 13.1665 12.6061C 13.1665 12.6061 12.6987 12.3419 12.6987 11.8069C 12.6987 11.2719 12.6987 2.55673 12.6987 2.55673L 18.2821 13.3626L 23.7439 2.76365L 23.6239 11.9072C 23.6239 11.9072 23.7609 12.6629 22.9881 12.6629C 22.2154 12.6629 22.0515 12.6863 22.0515 12.6863L 22.0421 13.2747L 27.0517 13.2747L 27.0517 12.5752L 25.8823 12.5752C 25.8823 12.5752 25.3949 12.623 25.3949 12.0878C 25.3949 11.5525 25.3949 0.989963 25.3949 0.989963C 25.3949 0.989963 25.4021 0.747516 25.8335 0.747516L 26.8487 0.747516L 26.8487 2.26488e-07L 23.7405 2.26488e-07L 18.6232 10.6054L 13.5378 0.0748986L 10.7565 0.0748986L 10.7565 0.708684L 11.6396 0.708684C 11.6396 0.708684 11.9458 0.674947 11.9458 1.14031C 11.9458 1.60568 11.8258 11.8561 11.8258 11.8561C 11.8258 11.8561 11.8662 12.6518 10.9928 12.6518C 10.1194 12.6518 9.59891 12.6518 9.59891 12.6518L 9.59891 13.4251L 9.59708 13.3742Z" transform="translate(58.8056 160.417) scale(14.2222)" fill="white"/>
</g>
</g>
</g>
</g>
</g>
</svg>

