<svg width="512" height="512" viewBox="0 0 512 512" version="1.1" xmlns="http://www.w3.org/2000/svg" xmlns:xlink="http://www.w3.org/1999/xlink">
<g id="Canvas" fill="none">
<g id="logo6">
<g id="Vector">
<path d="M 20.9932 -8.19497e-07C 21.1717 0.0147685 21.3509 0.0302094 21.5301 0.0443074C 22.4883 0.115937 23.4268 0.353065 24.3041 0.745178C 26.2989 1.63671 27.7698 3.06888 28.7168 5.0417C 29.0899 5.81278 29.339 6.63793 29.455 7.4867C 29.5126 7.89979 29.5427 8.31627 29.5449 8.73336C 29.5511 12.9305 29.5511 17.1277 29.5449 21.3249C 29.5409 22.6652 29.206 23.9839 28.5699 25.1635C 27.413 27.34 25.6562 28.7984 23.2996 29.5386C 23.2593 29.5514 23.2184 29.5608 23.1607 29.5755L 23.1607 29.4178C 23.1607 24.7883 23.1607 20.1588 23.1607 15.5293C 23.1607 14.9284 23.1399 14.3262 23.0936 13.7274C 23.0104 12.6318 22.8178 11.5556 22.4225 10.5245C 21.7068 8.67294 20.4012 7.45626 18.5057 6.87444C 17.9662 6.71179 17.414 6.59457 16.855 6.52401C 16.1007 6.42331 15.3425 6.40921 14.5835 6.40921L 3.93183e-06 6.40921C 0.0563706 6.22929 0.0999874 6.06347 0.159038 5.90369C 1.13472 3.25462 2.94516 1.44068 5.60245 0.482687C 6.27643 0.243068 6.97986 0.0962676 7.69339 0.0463213C 7.87255 0.0328946 8.05105 0.0167824 8.23021 0.00201309L 20.9932 -8.19497e-07Z" transform="translate(91.7361 0) scale(14.2222)" fill="#294694"/>
</g>
<g id="Vector_2">
<path d="M 29.5735 23.171C 29.4635 23.4832 29.3722 23.784 29.2528 24.076C 28.8233 25.1559 28.1801 26.1378 27.3618 26.9627C 26.441 27.9013 25.3192 28.6186 24.0811 29.0606C 23.1141 29.4044 22.0945 29.5766 21.0682 29.5695C 16.995 29.5664 12.9216 29.5664 8.84802 29.5695C 7.46223 29.584 6.09274 29.2695 4.85202 28.6518C 3.39811 27.9312 2.17493 26.8177 1.32105 25.4374C 0.761893 24.5466 0.371547 23.5603 0.169558 22.5279C 0.0607849 21.9916 0.00482236 21.4458 0.00247212 20.8986C 0.00247212 16.7007 -0.00490596 12.5029 0.00583055 8.30572C 0.00985675 6.67774 0.470181 5.17194 1.33581 3.7937C 2.2524 2.31342 3.59345 1.14372 5.18418 0.437037C 5.54654 0.273903 5.9297 0.157764 6.30414 0.0208123C 6.33438 0.0122228 6.36507 0.00527366 6.39607 -9.01447e-07L 6.39607 0.151721C 6.39607 4.85105 6.39607 9.55037 6.39607 14.2497C 6.39185 15.049 6.44161 15.8477 6.54504 16.6403C 6.6826 17.652 6.91746 18.6375 7.35967 19.5653C 8.03876 20.9919 9.11979 21.9821 10.5927 22.5433C 11.2968 22.8053 12.0303 22.98 12.7769 23.0636C 13.413 23.1382 14.053 23.1738 14.6934 23.1704C 19.5951 23.1704 24.4967 23.1704 29.3984 23.1704L 29.5735 23.171Z" transform="translate(0 91.4444) scale(14.2222)" fill="#E95F25"/>
</g>
<g id="Vector_3">
<path d="M 2.01578 17.9823C 1.96009 17.9823 1.92452 17.9883 1.88963 17.9883C 1.30248 17.9883 0.715323 17.9883 0.12884 17.9883C 0.0187912 17.9883 -6.55305e-07 17.9514 -6.55305e-07 17.8541C 0.00223612 15.5841 0.00223612 13.3143 -6.55305e-07 11.0448C -6.55305e-07 10.0378 -6.55305e-07 9.02741 -6.55305e-07 8.01839C -6.55305e-07 7.91501 0.0187882 7.87674 0.134206 7.87741C 1.09244 7.88278 2.05 7.87406 3.00823 7.88278C 3.75375 7.8895 4.48451 7.98751 5.16292 8.32855C 6.07754 8.78841 6.59759 9.53695 6.78615 10.5359C 6.93144 11.2731 6.81266 12.0379 6.45063 12.6962C 6.44057 12.715 6.43319 12.7352 6.41775 12.7701C 6.46338 12.7741 6.50096 12.7808 6.53787 12.7808C 7.1787 12.7808 7.82021 12.7849 8.46105 12.7808C 8.7929 12.788 9.12165 12.7157 9.41995 12.57C 10.2426 12.1451 10.348 11.1374 9.62998 10.556C 9.29984 10.2875 8.91131 10.1223 8.52949 9.94713C 7.9108 9.66316 7.30016 9.36508 6.75394 8.95356C 6.32112 8.62796 5.96682 8.23389 5.84133 7.69414C 5.58433 6.59181 5.80107 5.60697 6.64657 4.81278C 7.0398 4.44288 7.53166 4.25155 8.05574 4.1683C 8.3397 4.12605 8.62625 4.10362 8.91332 4.10117C 9.51121 4.0911 10.1091 4.10117 10.707 4.10117C 10.856 4.10117 10.8566 4.10117 10.8566 3.95616C 10.8566 2.68421 10.8566 1.41248 10.8566 0.140979L 10.8566 0.00671299C 10.8915 0.00671299 10.9157 -7.37548e-07 10.9398 -7.37548e-07C 12.035 -7.37548e-07 13.1308 4.09649e-07 14.2279 0.00537107C 14.8459 0.00872773 15.4545 0.0825737 16.031 0.321568C 16.7349 0.613597 17.2496 1.0889 17.422 1.85556C 17.5898 2.60276 17.5173 3.32377 17.0717 3.97227C 16.8033 4.36232 16.4215 4.60668 15.9806 4.76512C 15.9455 4.78044 15.9114 4.79816 15.8786 4.81815L 15.8847 4.84702C 15.9907 4.87186 16.0981 4.89401 16.2027 4.92288C 17.1704 5.19141 17.7871 5.80971 17.9474 6.80798C 18.132 7.96133 17.6844 9.04553 16.5094 9.61616C 16.0675 9.83256 15.5901 9.96721 15.1002 10.0136C 14.6533 10.0552 14.2037 10.072 13.7582 10.0807C 13.2039 10.0915 12.649 10.0807 12.0947 10.0807L 11.9497 10.0807C 11.9685 10.1311 11.9799 10.1633 11.9934 10.1949C 12.1724 10.6449 12.2488 11.1293 12.2168 11.6127C 12.1631 12.8808 11.3398 13.7657 10.1366 14.1544C 9.65743 14.3105 9.15693 14.3914 8.65296 14.394C 6.74812 14.4003 4.84306 14.4003 2.93778 14.394C 2.87944 14.3906 2.82414 14.3668 2.78142 14.3269C 2.55864 14.1121 2.34123 13.8905 2.12247 13.6717C 2.09496 13.6448 2.06678 13.6186 2.01846 13.5723L 2.01578 17.9823ZM 2.0084 11.1139C 2.0084 11.6288 2.0084 12.1437 2.0084 12.658C 2.0084 12.7607 2.04128 12.7862 2.13791 12.7835C 2.4902 12.7741 2.84316 12.7802 3.19478 12.7627C 3.52828 12.7513 3.84857 12.6295 4.10537 12.4163C 4.54624 12.0484 4.71534 11.561 4.70461 10.9998C 4.69454 10.4761 4.508 10.0391 4.06579 9.73566C 3.77187 9.53426 3.43636 9.45907 3.08742 9.449C 2.77136 9.4396 2.45396 9.449 2.13791 9.4443C 2.04128 9.4443 2.00907 9.46713 2.00974 9.56917C 2.01175 10.0848 2.0084 10.599 2.0084 11.1139ZM 10.856 8.94483L 10.856 8.81056C 10.856 8.07948 10.856 7.34773 10.856 6.61665C 10.8532 6.57626 10.8596 6.53579 10.8748 6.49824C 10.8899 6.46069 10.9133 6.42704 10.9432 6.39981C 11.1599 6.18901 11.37 5.97083 11.5813 5.75466C 11.6021 5.73318 11.6196 5.70834 11.6484 5.67477C 11.6129 5.67074 11.5954 5.66671 11.5813 5.66671C 10.7855 5.66671 9.98966 5.66269 9.19381 5.67074C 8.93055 5.67134 8.67045 5.7281 8.43085 5.83723C 8.22039 5.92796 8.04924 6.0909 7.94823 6.2967C 7.84723 6.5025 7.823 6.73762 7.87993 6.9597C 7.9154 7.12401 7.98367 7.27946 8.08065 7.41673C 8.17762 7.55401 8.3013 7.67028 8.44427 7.75859C 8.69453 7.91351 8.95378 8.05339 9.22066 8.1775C 9.74339 8.43193 10.2715 8.6763 10.7976 8.92469C 10.807 8.92738 10.8211 8.93409 10.856 8.94483ZM 12.8603 7.0792C 12.8603 7.51512 12.8603 7.95104 12.8603 8.38695C 12.8603 8.44267 12.8476 8.50846 12.9402 8.50578C 13.477 8.49101 14.0138 8.49705 14.5453 8.45543C 14.9018 8.4282 15.2351 8.26818 15.4794 8.00698C 15.7914 7.67937 15.8874 7.28395 15.8276 6.84155C 15.7753 6.45083 15.5961 6.14202 15.2552 5.93659C 14.9144 5.73116 14.5426 5.67544 14.1595 5.66806C 13.7763 5.66067 13.3817 5.66806 12.9932 5.66336C 12.8912 5.66336 12.859 5.6882 12.859 5.79763C 12.8637 6.22191 12.8603 6.65022 12.8603 7.0792ZM 12.8603 2.81691C 12.8603 3.20561 12.8603 3.59431 12.8603 3.98301C 12.8603 4.0676 12.8872 4.0958 12.9724 4.09446C 13.2925 4.09043 13.6132 4.09848 13.9326 4.09043C 14.2024 4.09164 14.47 4.04151 14.7211 3.94273C 15.162 3.75543 15.4109 3.4191 15.4539 2.94715C 15.4935 2.51347 15.3619 2.13618 14.9976 1.86765C 14.7502 1.69122 14.4563 1.59173 14.1527 1.58166C 13.7656 1.56018 13.3764 1.56756 12.9885 1.55548C 12.8885 1.55548 12.8583 1.58434 12.8597 1.68303C 12.8637 2.06099 12.8603 2.43895 12.8603 2.81825L 12.8603 2.81691Z" transform="translate(130.562 128.153) scale(14.2222)" fill="#294694"/>
</g>
</g>
</g>
</svg>

