<svg width="512" height="174" viewBox="0 0 512 174" version="1.1" xmlns="http://www.w3.org/2000/svg" xmlns:xlink="http://www.w3.org/1999/xlink">
<g id="Canvas" fill="none">
<g id="przelewy24.17e4ffe6196b">
<g id="g10">
<g id="g12">
<g id="path14">
<path fill-rule="evenodd" clip-rule="evenodd" d="M 8.04838 41.9498L 40.8742 41.995L 39.6742 34.4736L 12.2261 8.0828L 35.2566 8.12907L 33.9187 0.00568263L 0 -1.85688e-07L 1.41742 8.37732L 27.7287 33.7512L 6.7388 33.7523L 8.04838 41.9498Z" transform="translate(96.8915 154.283) scale(1.28805 -1.28805)" fill="#D32536"/>
</g>
<g id="path16">
<path fill-rule="evenodd" clip-rule="evenodd" d="M 40.4875 44.5557C 40.4789 44.4593 39.695 39.7814 38.6356 34.2486C 38.2302 32.1312 36.6244 30.9946 34.7714 30.6004C 31.713 29.9499 28.4212 30.0692 28.4212 30.0692L 13.9399 30.1064L 17.1194 49.4327L 30.2412 49.3961C 30.2412 49.3961 31.1291 49.4147 32.3692 49.3953C 33.7785 49.3733 35.6423 49.3021 37.1743 49.0989C 38.4862 48.925 39.5545 48.6541 39.8849 48.2341C 40.3209 47.68 40.5009 46.9726 40.5613 46.3261C 40.6475 45.4071 40.4921 44.6115 40.4875 44.5557ZM 47.3872 54.8209C 46.6678 55.5858 45.6528 56.1756 44.5058 56.6307C 43.3164 57.1025 41.985 57.4293 40.6945 57.6554C 39.0503 57.9435 37.4722 58.0682 36.3374 58.1216C 35.2934 58.1709 34.6246 58.1597 34.6246 58.1597L 20.2755 58.1616L 9.59732 58.163L 4.60988e-08 0.00931707L 8.93563 4.43587e-07L 12.4677 21.5563L 29.7924 21.4808C 29.7924 21.4808 36.538 21.2142 41.3275 23.7655C 46.1162 26.3189 47.3842 32.1241 47.3842 32.1241C 47.3842 32.1241 47.9111 34.2778 48.3411 36.9077C 48.8138 39.7955 49.2978 43.2633 49.5492 45.1096C 49.6593 45.9199 49.7248 46.418 49.7248 46.418C 49.7248 46.418 49.841 47.0168 49.8519 47.9451C 49.8672 49.2438 49.6765 51.1877 48.6726 53.0397C 48.3403 53.6524 47.9192 54.2552 47.3872 54.8209Z" transform="translate(0 154.292) scale(1.28805 -1.28805)" fill="#D32536"/>
</g>
<g id="path18">
<path fill-rule="evenodd" clip-rule="evenodd" d="M 9.65147 58.1759L 18.2458 58.1829L 8.6161 -1.85688e-07L 2.86837e-06 0.0139445L 9.65147 58.1759Z" transform="translate(194.41 154.302) scale(1.28805 -1.28805)" fill="#D32536"/>
</g>
<g id="path20">
<path fill-rule="evenodd" clip-rule="evenodd" d="M -5.73674e-06 41.9637L 8.24371 41.9707L 11.1557 12.45L 23.8361 42.0242L 34.0114 41.9963L 37.0179 12.3283L 49.7004 41.9684L 58.2518 41.9764L 40.0768 0.0299589L 29.9224 0.0288808L 26.9957 29.4013L 14.1664 0.0283109L 4.18407 -6.18959e-08L -5.73674e-06 41.9637Z" transform="translate(265.986 154.292) scale(1.28805 -1.28805)" fill="#D32536"/>
</g>
<g id="path22">
<path d="M 30.1157 26.8816L 10.9187 26.9026L 11.6824 29.9711C 11.6824 29.9711 12.3489 32.3703 13.6803 33.3954C 15.0125 34.4194 16.7147 34.5933 18.3175 34.7498C 19.9219 34.907 24.1666 35.2081 27.6316 34.4889C 28.7822 34.2512 29.8761 33.5997 30.1606 32.6348C 30.833 30.3571 30.1157 26.8816 30.1157 26.8816ZM 31.9823 42.1752C 29.5734 42.9662 25.3895 43.1227 21.8588 43.0786C 18.4363 43.0357 16.8668 42.8745 15.5897 42.5973C 15.5897 42.5973 9.50107 41.7184 6.04649 37.4078C 2.5917 33.0975 1.56095 23.6648 1.56095 23.6648C 1.56095 23.6648 -0.490062 13.2411 0.109969 9.76803C 0.70874 6.29494 1.78439 3.07558 5.69298 1.56457C 9.60241 0.0535746 12.9179 0.120907 12.9179 0.120907C 12.9179 0.120907 19.8839 -0.430046 25.1327 0.820258C 30.3817 2.06784 33.149 5.78915 33.149 5.78915C 33.149 5.78915 34.3799 7.38953 35.268 9.30133C 36.1569 11.2129 36.4171 12.5397 36.4563 12.703L 37.0068 14.9552L 28.0831 14.9435C 28.0831 14.9435 27.5914 9.01315 22.78 8.46575C 17.9699 7.91961 15.3881 8.12602 14.4576 8.16131C 13.5408 8.19511 8.37256 7.98067 8.79132 12.32C 8.79363 12.3785 8.7974 12.4643 8.80328 12.586C 9.04287 17.5354 9.58856 18.8181 9.58856 18.8181L 37.601 18.8975L 38.7962 25.8646C 40.1563 33.7909 39.1579 39.8189 31.9823 42.1752Z" transform="translate(145.189 155.019) scale(1.28805 -1.28805)" fill="#D32536"/>
</g>
<g id="path24">
<path d="M 0.0249559 0.30352C 0.0161443 0.236758 0.00880495 0.171054 0.00251093 0.106405C -0.00986733 -0.223813 0.0276833 0.321689 0.0249559 0.30352Z" transform="translate(156.509 139.283) scale(1.28805 -1.28805)" fill="#D32536"/>
</g>
<g id="path26">
<path d="M 0.024943 0.303381C 0.0161314 0.236619 0.00880227 0.170912 0.00250825 0.106263C -0.00987 -0.223743 0.0278802 0.321973 0.024943 0.303381Z" transform="translate(224.571 139.302) scale(1.28805 -1.28805)" fill="#D32536"/>
</g>
<g id="path28">
<path d="M 30.0406 26.9034L 10.8449 26.923L 11.6083 29.9928C 11.6083 29.9928 12.2753 32.3927 13.6065 33.4161C 14.9377 34.4399 16.6396 34.6152 18.2439 34.7716C 19.848 34.9271 24.0917 35.2296 27.5578 34.5096C 28.7071 34.2725 29.8012 33.6212 30.0868 32.6553C 30.7594 30.3778 30.0406 26.9034 30.0406 26.9034ZM 31.9833 42.176C 29.5732 42.967 25.3895 43.1236 21.8586 43.0788C 18.4361 43.0365 16.8666 42.8753 15.5895 42.5981C 15.5895 42.5981 9.50088 41.718 6.0463 37.4087C 2.59151 33.097 1.56075 23.6657 1.56075 23.6657C 1.56075 23.6657 -0.490049 13.2409 0.109981 9.76759C 0.709802 6.2945 1.78418 3.07705 5.69382 1.5643C 9.60241 0.0533076 12.9179 0.120471 12.9179 0.120471C 12.9179 0.120471 19.8848 -0.429236 25.1327 0.819822C 30.3815 2.06863 33.1488 5.78998 33.1488 5.78998C 33.1488 5.78998 34.3799 7.39057 35.2678 9.30153C 36.1567 11.2127 36.4169 12.5405 36.4573 12.7041L 37.0077 14.956L 28.0829 14.9444C 28.0829 14.9444 27.5912 9.01335 22.78 8.46721C 17.9697 7.92044 15.3879 8.12559 14.4585 8.16045C 13.5419 8.19467 8.37258 7.98087 8.79113 12.3202C 8.79344 12.3787 8.7972 12.4647 8.80307 12.5868C 9.04267 17.5363 9.58858 18.8189 9.58858 18.8189L 37.6008 18.8977L 38.7962 25.8644C 40.1574 33.7906 39.1577 39.8184 31.9833 42.176Z" transform="translate(213.25 155.028) scale(1.28805 -1.28805)" fill="#D32536"/>
</g>
<g id="path30">
<path fill-rule="evenodd" clip-rule="evenodd" d="M 12.2671 57.1736L 17.7785 26.5065L 33.3772 57.2055L 42.1511 57.1301L 19.6772 13.2818C 19.6772 13.2818 15.6113 5.34754 13.0874 3.33427C 10.5656 1.31901 9.02563 0.417898 6.96119 0.212563C 4.89884 0.0061718 4.07014 -0.13876 2.09171 0.212563L -4.09767e-06 0.582457L 1.30916 8.4118C 1.30916 8.4118 4.78347 7.75364 6.85211 8.57593C 8.92074 9.39989 10.5949 12.949 10.5949 12.949L 11.6377 14.7244L 3.51627 57.1857L 12.2671 57.1736Z" transform="translate(337.981 173.887) scale(1.28805 -1.28805)" fill="#D32536"/>
</g>
<g id="g32">
<g id="path34">
<path fill-rule="evenodd" clip-rule="evenodd" d="M 6.02759 36.4032L 14.7427 36.3912L 15.2588 39.7945C 15.2588 39.7945 16.1903 45.9345 18.2653 47.1208C 18.9303 47.5007 19.9982 47.8624 21.2298 48.0783C 23.5061 48.4757 26.4118 48.5219 28.7616 48.4366C 32.387 48.305 33.7444 48.2726 37.4306 47.8507C 41.1168 47.428 40.1769 43.8446 40.1769 43.8446L 39.4552 38.5009C 39.4552 38.5009 39.1405 36.1072 38.2908 34.6116C 37.5376 33.2891 35.4857 32.3998 34.2983 32.009C 31.4282 31.0663 21.6095 28.553 21.6095 28.553L 13.8804 26.3095C 13.8804 26.3095 9.14102 24.9253 6.47655 21.9651C 3.81418 19.004 2.76727 15.6369 2.40221 13.8785C 2.03926 12.1216 -8.19535e-06 0.0179789 -8.19535e-06 0.0179789L 41.6665 -5.98327e-07L 43.0574 8.38862L 10.0998 8.35059L 10.6935 11.7685C 10.6935 11.7685 11.0754 15.2928 12.4936 16.4421C 12.9384 16.8063 13.1608 17.2876 15.7917 18.2322C 17.3631 18.7963 22.7403 20.2382 22.7403 20.2382L 35.1752 23.6538C 35.1752 23.6538 41.9581 25.4131 44.631 29.1395C 47.3038 32.8646 48.3318 40.0067 48.3318 40.0067C 48.3318 40.0067 49.0494 46.9397 48.5018 49.1135C 47.9563 51.2871 45.9128 53.8975 43.4351 55.0101C 40.9573 56.1227 38.3621 56.7738 30.8575 56.6705C 23.355 56.5661 19.65 56.2133 15.8526 54.8069C 12.0552 53.4017 9.85854 50.836 8.46337 47.2203C 6.92133 43.8055 6.02759 36.4032 6.02759 36.4032Z" transform="translate(388.292 154.292) scale(1.33725 -1.33725)" fill="#B1AFAD"/>
</g>
</g>
<g id="g36">
<g id="path38">
<path fill-rule="evenodd" clip-rule="evenodd" d="M 26.2398 18.4565L 10.0767 18.4813L 29.7498 39.5854L 26.2398 18.4565ZM 33.8765 18.4625L 39.0544 49.7273L 29.8819 49.733L 1.29867 18.8197L -4.09767e-06 10.9917L 24.9978 10.9944L 23.1683 0.00986603L 30.8365 7.22119e-08L 32.6471 10.9934L 39.73 10.9786L 41.0098 18.4724L 33.8765 18.4625Z" transform="translate(450.193 154.283) scale(1.5072 -1.5072)" fill="#B1AFAD"/>
</g>
</g>
<g id="path40">
<path fill-rule="evenodd" clip-rule="evenodd" d="M 4.09767e-07 -1.85688e-06L 27.5412 -1.85688e-06C 27.5412 -1.85688e-06 33.7194 5.0272 38.0977 8.25099C 42.4761 11.4754 50.4462 16.5669 50.4462 16.5669L 34.8895 23.8971C 34.8895 23.8971 21.7429 15.6973 16.1612 11.8285C 10.7338 8.26367 4.09767e-07 -1.85688e-06 4.09767e-07 -1.85688e-06Z" transform="translate(85.4623 85.5189) scale(1.28805 -1.28805)" fill="#B1AFAD"/>
</g>
<g id="path42">
<path fill-rule="evenodd" clip-rule="evenodd" d="M 12.7758 -1.65056e-06L -2.04884e-06 8.6615C -2.04884e-06 8.6615 11.5632 15.2749 26.9311 21.4466C 42.299 27.6193 50.4947 30.1869 50.4947 30.1869L 53.0893 17.9177C 53.0893 17.9177 38.2937 12.9359 29.8146 8.9015C 21.0579 5.14066 12.7758 -1.65056e-06 12.7758 -1.65056e-06Z" transform="translate(145.269 57.5) scale(1.28805 -1.28805)" fill="#B1AFAD"/>
</g>
<g id="path44">
<path fill-rule="evenodd" clip-rule="evenodd" d="M 2.2155 4.53904e-06L -6.55628e-06 12.5728C -6.55628e-06 12.5728 15.7697 16.7952 30.2197 19.5031C 44.6691 22.211 63.8365 23.4904 63.8365 23.4904L 57.4942 4.06908C 57.4942 4.06908 40.6368 6.38611 24.8224 4.22332C 12.4922 2.74484 2.2155 4.53904e-06 2.2155 4.53904e-06Z" transform="translate(222.967 30.9528) scale(1.28805 -1.28805)" fill="#B1AFAD"/>
</g>
<g id="path46">
<path fill-rule="evenodd" clip-rule="evenodd" d="M 0 16.1576L 10.6684 37.7365C 10.6684 37.7365 34.0234 38.1932 54.1601 35.0634C 74.2968 31.9324 92.7173 27.1093 92.3166 26.8982L 41.2427 3.71376e-06C 41.2427 3.71376e-06 29.3155 7.60978 14.4952 12.2787C 6.10102 14.744 0 16.1576 0 16.1576Z" transform="translate(309.91 48.6321) scale(1.28805 -1.28805)" fill="#B1AFAD"/>
</g>
<g id="g48">
<g id="path50">
<path fill-rule="evenodd" clip-rule="evenodd" d="M 0 7.37908L 9.66973 -6.18959e-07L 89.1024 -6.18959e-07C 89.1024 -6.18959e-07 88.9409 2.58997 86.824 6.25765C 85.5002 8.55628 83.1021 10.9859 80.5887 13.5114C 79.674 14.429 76.0109 17.304 73.2772 19.089C 66.2635 23.666 62.3465 25.4358 55.0727 28.7737L 0 7.37908Z" transform="translate(374.825 67.2358) scale(1.49583 -1.49583)" fill="#B1AFAD"/>
</g>
</g>
<g id="path52">
<path d="M 25.5607 41.7735C 22.0981 41.7735 18.8277 40.3981 16.033 38.8571L 16.5231 41.7735L 7.34744 41.7735L -4.09767e-07 5.98327e-07L 9.18235 5.98327e-07L 13.2531 23.1429C 14.1011 27.8393 17.5715 33.6361 24.3816 33.6361L 29.1285 33.6554L 30.5565 41.7735L 25.5607 41.7735Z" transform="translate(60.2264 154) scale(1.28805 -1.28805)" fill="#D32536"/>
</g>
</g>
</g>
</g>
</g>
</svg>

