<svg width="512" height="232" viewBox="0 0 512 232" version="1.1" xmlns="http://www.w3.org/2000/svg" xmlns:xlink="http://www.w3.org/1999/xlink">
<g id="Canvas" fill="none">
<g id="Layer 2">
<g id="Layer 1">
<g id="Vector">
<path d="M -1.32412e-06 15.348C 0.636037 13.6447 1.25728 11.9763 1.88149 10.3099C 3.12004 6.9993 4.3645 3.69065 5.5922 0.375213C 5.69377 0.0990886 5.81013 -0.0113614 6.10596 0.00220267C 6.56582 0.0263189 7.02666 0.0263189 7.48651 0.00220267C 7.84052 -0.0162057 7.88095 0.0777737 7.76262 0.397497C 6.95993 2.51639 6.17499 4.64207 5.38512 6.76484C 4.37042 9.49024 3.35177 12.2147 2.3489 14.9439C 2.23846 15.2443 2.11026 15.3761 1.75724 15.3538C 1.19319 15.3208 0.618287 15.348 -1.32412e-06 15.348Z" transform="translate(279.193 0) scale(9.66038)" fill="#010101"/>
</g>
<g id="Vector_2">
<path d="M 3.61202 0.0387545C 3.61202 3.02542 3.61366 6.01209 3.61695 8.99876C 3.61695 9.26714 3.50848 9.32042 3.26688 9.31752C 2.28078 9.30783 1.29467 9.29717 0.308566 9.31752C -0.0809453 9.32721 -0.027695 9.18672 0.0719017 8.92997C 1.18291 6.06861 2.28932 3.20563 3.39113 0.341038C 3.43551 0.226713 3.48186 0.113357 3.52722 0L 3.61202 0.0387545Z" transform="translate(416.849 58.283) scale(9.66038)" fill="#66C190"/>
</g>
<g id="Vector_3">
<path d="M 0.0895579 4.04024C 0.665443 4.18751 1.18414 4.34446 1.73044 4.32024C 1.90979 4.31349 2.08763 4.28518 2.25998 4.23595C 2.48185 4.17007 2.63272 4.02571 2.60018 3.77284C 2.56764 3.51996 2.38127 3.48218 2.17419 3.4502C 1.78566 3.39692 1.39319 3.36592 1.02439 3.21187C 0.395252 2.9464 0.019545 2.50363 0.000808984 1.8138C -0.017927 1.12397 0.28875 0.579476 0.923802 0.289787C 1.9178 -0.164608 2.9394 -0.0163733 3.95016 0.26944C 4.25881 0.356637 4.12766 0.616293 4.13259 0.800376C 4.14935 1.52411 4.14146 1.52121 3.43541 1.35166C 3.02026 1.25477 2.60215 1.17436 2.17024 1.22377C 1.89512 1.25477 1.61506 1.30806 1.61901 1.64522C 1.61901 1.96107 1.89512 2.00564 2.15052 2.02404C 2.49448 2.04342 2.83418 2.10861 3.16029 2.21782C 3.89888 2.47553 4.32291 3.02681 4.33474 3.72439C 4.34658 4.42197 3.94523 5.00813 3.25003 5.30169C 2.49368 5.61948 1.70381 5.51872 0.918873 5.46543C 0.788707 5.45671 0.660513 5.40924 0.530347 5.40439C 0.175349 5.39083 0.0501137 5.22322 0.0895579 4.8783C 0.105012 4.59916 0.105012 4.31939 0.0895579 4.04024Z" transform="translate(284.825 168.113) scale(9.66038)" fill="#7F2672"/>
</g>
<g id="Vector_4">
<path d="M 1.5173 2.72496C 1.80037 2.42487 2.02528 2.0765 2.18095 1.69701C 2.2697 1.48676 2.39493 1.40635 2.62667 1.4141C 2.98801 1.43209 3.35004 1.43209 3.71138 1.4141C 4.02792 1.39666 4.02201 1.5197 3.92438 1.75223C 3.74425 2.21987 3.50293 2.66248 3.2065 3.06891C 3.03985 3.284 3.03097 3.4458 3.16705 3.67154C 3.4305 4.11771 3.65483 4.58509 3.8376 5.06863C 3.92931 5.3031 3.93622 5.42324 3.61968 5.40967C 3.17691 5.3903 2.69767 5.50656 2.2983 5.37382C 1.86835 5.23334 2.00246 4.64621 1.7589 4.30808C 1.7061 4.20461 1.62207 4.11968 1.51829 4.0649C 1.51829 4.40206 1.51829 4.7431 1.51829 5.07639C 1.51829 5.19749 1.55872 5.37673 1.37333 5.38545C 0.964095 5.40386 0.552888 5.39805 0.142668 5.38545C -0.0180672 5.38061 0.000668573 5.23528 0.000668573 5.12483C 0.000668573 3.57465 0.000668573 2.02448 0.000668573 0.474305C 0.000668573 0.329945 0.0282792 0.216589 0.206764 0.210776C 0.223094 0.210489 0.239327 0.208211 0.255085 0.203993C 1.52124 -0.152547 1.52124 -0.152548 1.52124 1.12247L 1.5173 2.72496Z" transform="translate(329.854 168.651) scale(9.66038)" fill="#802772"/>
</g>
<g id="Vector_5">
<path d="M 1.47127 2.67988C 1.47127 3.47046 1.46239 4.26202 1.4762 5.05261C 1.4762 5.30064 1.40816 5.37912 1.14684 5.38977C 0.00690261 5.43337 0.00690286 5.44306 0.00690286 4.34244C 0.00690286 3.08292 0.0167632 1.8234 -6.01871e-07 0.563886C -6.01871e-07 0.282917 0.0788882 0.176343 0.360914 0.116274C 1.47324 -0.102688 1.47127 -0.111408 1.47127 0.988247C 1.47127 1.55083 1.47127 2.11471 1.47127 2.67988Z" transform="translate(417.387 168.877) scale(9.66038)" fill="#802772"/>
</g>
<g id="Vector_6">
<path d="M 1.46353 2.66107C 1.46353 3.43615 1.45367 4.2064 1.46846 4.97858C 1.47339 5.25276 1.42606 5.37581 1.09966 5.38066C 0.00804222 5.39616 0.00804147 5.41069 0.00804147 4.33429C 0.00804147 3.07477 0.0198761 1.82397 0.000153953 0.568331C -0.00477657 0.259265 0.108626 0.152691 0.394596 0.100373C 1.46353 -0.0933988 1.46255 -0.103087 1.46255 0.972346C 1.4632 1.53428 1.46353 2.09719 1.46353 2.66107Z" transform="translate(437.637 168.991) scale(9.66038)" fill="#802872"/>
</g>
<g id="Vector_7">
<path d="M 0.0256373 2.69643C 0.0256373 2.30888 -0.00197185 1.92134 0.0305696 1.5338C 0.112416 0.564938 1.31251 -0.222745 2.24635 0.057255C 2.39624 0.101823 2.4061 0.191927 2.40511 0.309159C 2.39466 0.502795 2.39466 0.696839 2.40511 0.890474C 2.43173 1.14528 2.34496 1.27802 2.07575 1.30708C 1.65764 1.35649 1.49691 1.63068 1.49296 2.01629C 1.48705 2.5976 1.47521 3.17892 1.48606 3.76023C 1.48606 4.00245 1.42196 4.09352 1.15867 4.10805C -0.000985564 4.172 6.04713e-07 4.18072 6.04713e-07 3.03553L 6.04713e-07 2.69643L 0.0256373 2.69643Z" transform="translate(370.425 181.245) scale(9.66038)" fill="#802772"/>
</g>
<g id="Vector_8">
<path d="M 1.46674 1.99974C 1.46674 2.56265 1.45885 3.12653 1.46674 3.68943C 1.46674 3.91808 1.39081 3.9859 1.1571 4.00044C 0.00631927 4.06826 0.00730803 4.07601 0.00730803 2.96666C 0.00730803 2.11407 0.0201267 1.2605 0.000404569 0.408876C -0.00748427 0.0891523 0.0990141 0.000986022 0.418512 1.71625e-05C 1.4628 1.71625e-05 1.4628 -0.0164546 1.4628 0.987283C 1.46608 1.32445 1.4674 1.66193 1.46674 1.99974Z" transform="translate(397.599 182.283) scale(9.66038)" fill="#802872"/>
</g>
<g id="Vector_9">
<path d="M 1.37299 1.548C 1.5071 1.12074 1.60867 0.801014 1.70728 0.48226C 1.8197 0.115062 2.36797 -0.116496 2.69831 0.0608053C 2.83341 0.132501 2.76044 0.217761 2.72987 0.302052C 2.35712 1.34842 1.99029 2.39576 1.6067 3.43825C 1.55427 3.61054 1.44292 3.75977 1.29147 3.86074C 1.14001 3.96171 0.957731 4.00823 0.77541 3.99244C 0.608758 3.98565 0.336594 4.10386 0.335607 3.77832C 0.335607 3.57098 0.2084 3.31617 0.631439 3.27064C 0.932201 3.23769 0.971647 2.9451 0.864161 2.65347C 0.609089 1.95848 0.367163 1.25864 0.138386 0.553954C 0.0871089 0.396999 -0.168293 0.121844 0.179803 0.0763074C 0.45394 0.0404596 0.89177 -0.177533 1.02489 0.352433C 1.11759 0.716724 1.23494 1.07617 1.37299 1.548Z" transform="translate(241.693 193.132) scale(9.66038)" fill="#802772"/>
</g>
<g id="Vector_10">
<path d="M 1.06786 1.36627C 2.01748 1.36627 2.97401 1.36627 3.92757 1.36627C 4.05182 1.36627 4.27172 1.28101 4.25397 1.52225C 4.24016 1.71602 4.04787 1.62689 3.93842 1.62689C 2.74128 1.63399 1.54415 1.63399 0.347021 1.62689C 0.232633 1.62689 0.0600674 1.71021 0.0107621 1.53C -0.0503764 1.31298 0.163608 1.31007 0.284899 1.27035C 1.21381 0.970971 2.14765 0.683219 3.07853 0.390624C 3.13277 0.374153 3.2156 0.384811 3.21363 0.270486C 2.25119 0.270486 1.28777 0.270486 0.324343 0.270486C 0.214885 0.270486 0.0235794 0.357683 0.0117462 0.158098C -8.70972e-05 -0.0414865 0.184315 0.00695591 0.307578 0.00695591C 1.53758 0.00695591 2.76758 0.00695591 3.99759 0.00695591C 4.0962 0.00695591 4.24116 -0.0443935 4.26482 0.131939C 4.28849 0.308271 4.18297 0.3354 4.03999 0.378998C 3.12192 0.65803 2.2078 0.950624 1.29072 1.2345C 1.19803 1.26841 1.10632 1.28101 1.06786 1.36627Z" transform="translate(470.387 59.4811) scale(9.66038)" fill="#141313"/>
</g>
<g id="Vector_11">
<path d="M 1.04664 0.00223462L 1.34247 0.00223462C 1.45784 0.00223462 1.59096 -0.00745395 1.57223 0.165003C 1.55941 0.289017 1.45587 0.299674 1.35233 0.299674C 1.15511 0.299674 0.957887 0.309363 0.760666 0.299674C 0.451029 0.281266 0.297195 0.437252 0.278459 0.71919C 0.259723 1.00113 0.363264 1.23656 0.69065 1.27338C 1.22709 1.33345 1.75762 1.34604 2.04852 0.77054C 2.40844 0.0593973 3.02969 -0.0394266 3.74561 0.0283935C 4.06806 0.059397 4.2781 0.186318 4.31853 0.506041C 4.36291 0.857737 4.42996 1.24625 4.03651 1.45262C 3.74068 1.6057 3.39849 1.56985 3.07111 1.55919C 3.05071 1.56067 3.03022 1.55797 3.01093 1.55127C 2.99165 1.54456 2.97399 1.53401 2.95907 1.52026C 2.94415 1.50651 2.93229 1.48987 2.92425 1.47139C 2.91621 1.45291 2.91215 1.43299 2.91235 1.41289C 2.90643 1.28113 3.00307 1.26272 3.10957 1.26369C 3.27326 1.26369 3.43794 1.26369 3.60262 1.26369C 3.93198 1.26369 4.08384 1.08833 4.08384 0.779259C 4.08384 0.470193 3.96058 0.3113 3.61741 0.29483C 3.11253 0.265764 2.66977 0.321958 2.41141 0.818983C 2.05937 1.49718 1.46277 1.63379 0.75475 1.565C 0.240989 1.51559 0.0102378 1.30147 0.000376775 0.80445C -0.0104704 0.276422 0.211404 0.0390514 0.752776 0.00611014C 0.849414 -0.00551617 0.948025 0.00320348 1.04664 0.00223462Z" transform="translate(469.948 80.566) scale(9.66038)" fill="#131212"/>
</g>
<g id="Vector_12">
<path d="M 2.18307 0.00803482C 2.75698 0.00803482 3.33187 0.0245055 3.9048 0.00125283C 4.20063 -0.0113423 4.32587 0.0681045 4.28939 0.373295C 4.26473 0.579662 4.28938 0.791842 4.2815 1.00112C 4.2815 1.098 4.34165 1.25108 4.14541 1.24333C 4.00933 1.23752 4.01229 1.13191 4.00736 1.03406C 3.9975 0.796686 4.07737 0.452742 3.95213 0.346167C 3.74111 0.171773 3.39006 0.298693 3.09817 0.282222C 2.98354 0.288475 2.86865 0.288475 2.75402 0.282222C 2.38226 0.218277 2.24617 0.363607 2.3083 0.723053C 2.32062 0.835439 2.32062 0.948799 2.3083 1.06118C 2.3083 1.13482 2.32408 1.23267 2.20476 1.24042C 2.08544 1.24817 2.04008 1.16485 2.03515 1.05731C 2.03515 1.04084 2.03515 1.02534 2.03515 1.00887C 2.00261 0.77634 2.15644 0.449835 1.96021 0.330665C 1.76397 0.211495 1.45433 0.289972 1.194 0.28319C 1.07945 0.291926 0.964394 0.291926 0.84985 0.28319C 0.383422 0.197931 0.243392 0.409143 0.314392 0.828659C 0.319938 0.876624 0.319938 0.925053 0.314392 0.973019C 0.306503 1.09316 0.355809 1.26368 0.145769 1.24721C -0.0642716 1.23073 0.0175757 1.05925 0.0106729 0.947828C -0.00116034 0.754056 0.0215194 0.560284 0.00376946 0.366512C -0.0208832 0.0971696 0.0727964 -0.00359191 0.360739 0.00609668C 0.969166 0.0215984 1.57661 0.00803482 2.18307 0.00803482Z" transform="translate(470.25 116.575) scale(9.66038)" fill="#201E1E"/>
</g>
<g id="Vector_13">
<path d="M 4.28958 0.605673C 4.20083 0.815916 4.3882 1.20346 4.16928 1.20055C 3.83006 1.20055 4.01742 0.813009 4.00953 0.611486C 3.99967 0.355707 3.9267 0.270448 3.67229 0.295638C 3.47506 0.315016 3.27784 0.295638 3.08062 0.295638C 2.37753 0.295638 2.37753 0.295638 2.29765 0.97384C 2.28681 1.06297 2.32033 1.18505 2.17143 1.18214C 2.04422 1.18214 2.03042 1.08526 2.02154 0.976746C 2.00182 0.758753 2.13002 0.440967 1.95745 0.34505C 1.76023 0.232662 1.45157 0.296607 1.19124 0.292731C 0.862868 0.287887 0.535481 0.292731 0.205136 0.292731C 0.106525 0.292731 -0.00194487 0.306296 2.73424e-05 0.159998C 2.73424e-05 0.029202 0.0887768 0.00691808 0.197248 0.00691808C 1.49299 0.00691808 2.78972 -0.0163342 4.08546 0.0224202C 4.46609 0.0388908 4.16237 0.427403 4.28958 0.605673Z" transform="translate(470.392 100.462) scale(9.66038)" fill="#181616"/>
</g>
<g id="Vector_14">
<path d="M 0.740945 1.41816C 0.551385 1.41941 0.368629 1.34882 0.230697 1.22105C 0.0927637 1.09329 0.0102713 0.918204 0.000378621 0.732209C -0.00425804 0.591836 0.0336314 0.453271 0.109242 0.334079C 0.184853 0.214887 0.294782 0.120436 0.425092 0.0626991C 0.555402 0.00496225 0.700225 -0.0134606 0.841204 0.00976632C 0.982183 0.0329932 1.11297 0.0968234 1.21698 0.193166C 1.321 0.289508 1.39355 0.414024 1.42545 0.550929C 1.45735 0.687835 1.44717 0.830964 1.39618 0.962173C 1.34519 1.09338 1.2557 1.20676 1.13905 1.28794C 1.0224 1.36912 0.883842 1.41444 0.740945 1.41816Z" transform="translate(397.792 165.292) scale(9.66038)" fill="#802973"/>
</g>
<g id="Vector_15">
<path d="M 1.98862 0.664954C 2.51323 0.664954 3.03784 0.652359 3.56047 0.669798C 3.85631 0.680456 4.03973 0.632981 3.98352 0.282254C 3.96478 0.165022 3.9421 -0.00840331 4.14228 0.000316423C 4.31682 0.0080673 4.25174 0.168898 4.25371 0.265784C 4.26061 0.653327 4.25864 1.04087 4.25371 1.42841C 4.25371 1.51561 4.28034 1.64253 4.13143 1.63769C 4.10649 1.63722 4.082 1.63102 4.05993 1.61958C 4.03786 1.60814 4.01883 1.59179 4.00435 1.57182C 3.98988 1.55185 3.98036 1.52883 3.97657 1.5046C 3.97278 1.48037 3.97483 1.45561 3.98253 1.43229C 4.09495 0.904262 3.73403 0.968207 3.40566 0.969176C 2.38997 0.973051 1.37461 0.973051 0.359578 0.969176C 0.228426 0.969176 0.0124702 1.04475 0.000636926 0.836442C -0.0141547 0.567099 0.232371 0.677549 0.366481 0.674642C 0.906867 0.664954 1.44824 0.664954 1.98862 0.664954Z" transform="translate(470.528 0.141509) scale(9.66038)" fill="#242222"/>
</g>
<g id="Subtract">
<path fill-rule="evenodd" clip-rule="evenodd" d="M 0.155273 14.9377L 0 15.339L 0.572266 15.3351C 0.993164 15.3312 1.39062 15.3273 1.78955 15.3459C 2.10352 15.3615 2.23438 15.2599 2.34277 14.9689C 3.00293 13.2082 3.68701 11.4562 4.36768 9.70233C 4.42188 9.55096 4.40674 9.32537 4.66309 9.32537L 6.50049 9.32537L 4.20361 15.34L 4.77344 15.3361C 5.19482 15.3303 5.59424 15.3254 5.9917 15.3488C 6.17383 15.3596 6.29541 15.3293 6.38623 15.2531C 6.46484 15.1867 6.521 15.0851 6.57422 14.9445C 7.44971 12.6222 8.33447 10.3039 9.21924 7.98553L 10.3462 5.0324L 10.6899 4.1408C 11.0054 3.32928 11.3208 2.51776 11.5889 1.69061C 11.8848 0.768732 11.3677 0.079279 10.3984 0.0275212C 9.60938 -0.014471 8.8208 0.00408367 8.03174 0.00408367C 6.64746 0.00408367 5.66992 0.657404 5.17725 1.94158L 0.937012 12.9172C 0.680664 13.5851 0.422852 14.2482 0.155273 14.9377ZM 5.85498 5.83123L 5.18848 7.55975L 5.76318 7.55779C 6.14453 7.55584 6.50732 7.55389 6.86963 7.56072C 7.10352 7.57049 7.20996 7.49236 7.29297 7.27069C 7.94189 5.54022 8.60254 3.81365 9.27588 2.09002C 9.31836 1.98162 9.33643 1.90545 9.32422 1.85369C 9.30615 1.7785 9.22266 1.75604 9.05322 1.7619C 8.61035 1.77947 8.16455 1.78924 7.72266 1.7619C 7.44873 1.74432 7.36182 1.87518 7.28076 2.09002C 6.81055 3.33904 6.33252 4.58514 5.85498 5.83123Z" transform="translate(92.8585 0.0849057) scale(9.66038)" fill="#010101"/>
</g>
<g id="Subtract_2">
<path fill-rule="evenodd" clip-rule="evenodd" d="M 3.59619 6.17219L 0 15.346C 0.650879 15.346 1.24268 15.3304 1.83691 15.3538C 2.1123 15.3646 2.23633 15.2737 2.33008 15.0189C 2.5376 14.4534 2.75928 13.8929 2.98096 13.3323L 3.25391 12.638C 3.64844 11.6204 4.04297 10.6019 4.44238 9.57844C 4.53418 9.35578 5.13281 9.19172 5.42871 9.33527C 5.61279 9.42414 5.56055 9.56867 5.51123 9.70539C 5.49561 9.74836 5.48047 9.79035 5.47266 9.83039L 4.46826 15.0404C 4.43652 15.2044 4.40479 15.3519 4.67822 15.3441C 5.26953 15.3314 5.86133 15.3362 6.45312 15.3441C 6.64648 15.347 6.68799 15.264 6.71729 15.0892C 6.91602 13.93 7.12061 12.7728 7.32471 11.6136L 7.69775 9.48273C 7.74072 9.25031 7.80029 9.07258 8.03662 8.94758C 8.68359 8.60969 9.10547 8.07648 9.36523 7.39777C 9.81445 6.22297 10.27 5.05012 10.7256 3.87726L 11.436 2.04523C 11.9209 0.785468 11.3887 0.0178898 10.0288 0.0100773C 8.84521 0.00031169 7.66211 0.0237492 6.47852 0.00031169C 6.12842 -0.00652425 5.96484 0.0979679 5.83984 0.42414C 5.10596 2.34504 4.34668 4.25715 3.59619 6.17219ZM 7.19824 2.49641C 6.5752 4.20051 5.89258 5.88117 5.21631 7.61848C 5.6123 7.61848 5.98193 7.60871 6.3457 7.61359C 6.4751 7.61555 6.60352 7.61848 6.73193 7.62434C 7.01318 7.63898 7.12646 7.53937 7.2251 7.2884C 7.48926 6.58234 7.76514 5.88019 8.0415 5.17707L 8.4458 4.14289C 8.74658 3.36848 9.04346 2.59406 9.35693 1.77961C 9.22803 1.77961 9.10352 1.78449 8.98291 1.78937C 8.729 1.79914 8.49219 1.80793 8.26514 1.76984C 7.8877 1.70637 7.64941 1.78351 7.47656 1.9759C 7.3623 2.10187 7.27637 2.27766 7.19824 2.49641Z" transform="translate(0 0.0188679) scale(9.66038)" fill="#010101"/>
</g>
<g id="Subtract_3">
<path fill-rule="evenodd" clip-rule="evenodd" d="M 3.37549 6.216L 0 15.3459L 1.25977 15.3459C 2.28662 15.3469 3.29102 15.3469 4.29639 15.3449C 5.56348 15.343 6.56543 14.6496 6.99463 13.4806L 11.1914 2.03534C 11.647 0.792173 11.0967 0.0187356 9.74072 0.0099465C 8.54248 0.000180879 7.34375 0.0216653 6.14551 0.000180879C 5.80127 -0.00470193 5.63574 0.0880715 5.51416 0.424986C 5.01709 1.80096 4.50732 3.17108 3.99707 4.54315L 3.37549 6.216ZM 7.79736 5.34295C 8.22852 4.16717 8.66113 3.00409 9.11475 1.77459C 8.5625 1.77459 8.06982 1.7912 7.58545 1.76971C 7.29736 1.75702 7.16846 1.841 7.06494 2.12518C 5.90137 5.32245 4.71777 8.50897 3.53467 11.7062L 2.83643 13.6027C 3.36279 13.6027 3.82373 13.5764 4.28027 13.6105C 4.64209 13.6379 4.81055 13.5265 4.93799 13.1701C 5.42529 11.8098 5.92041 10.4523 6.41797 9.09588L 7.79736 5.34295Z" transform="translate(335.481 0.0188679) scale(9.66038)" fill="#010101"/>
</g>
<g id="Subtract_4">
<path fill-rule="evenodd" clip-rule="evenodd" d="M 1.16748 12.2542C 0.780762 13.2708 0.394531 14.2883 0 15.345C 0.652832 15.345 1.24365 15.3264 1.83398 15.3528C 2.11426 15.3655 2.23047 15.2659 2.32129 15.0208C 2.80859 13.6965 3.33203 12.3811 3.80029 11.0481C 3.93359 10.6692 4.11719 10.5569 4.50244 10.5852C 4.60547 10.593 4.7085 10.5979 4.81152 10.5999C 5.18311 10.6087 5.55762 10.593 5.93066 10.593C 6.51611 10.595 7.08789 10.4202 7.56934 10.093C 8.05078 9.7649 8.41895 9.30103 8.62354 8.76197C 9.46387 6.52174 10.2993 4.27857 11.1304 2.03443C 11.3936 1.3235 11.3486 0.77955 11.021 0.4358C 10.7593 0.161386 10.3174 0.013925 9.70801 0.0100187C 8.55566 0.000253122 7.40576 0.0217375 6.25684 0.000253122C 5.92725 -0.00560625 5.78369 0.0891203 5.66504 0.403573C 4.16748 4.35475 2.66846 8.30494 1.16748 12.2542ZM 5.11523 7.60182L 4.67773 8.75709C 5.11768 8.75709 5.5 8.71998 5.86816 8.76685C 6.3374 8.83326 6.50293 8.62037 6.64795 8.22584C 7.22217 6.66041 7.81104 5.10084 8.40674 3.52271L 9.06299 1.7815L 8.60205 1.78346C 8.22754 1.78541 7.86865 1.78736 7.51074 1.77564C 7.3208 1.76978 7.28223 1.87428 7.23584 1.9983L 7.22559 2.0276L 5.11523 7.60182Z" transform="translate(187.981 0.0188679) scale(9.66038)" fill="#010101"/>
</g>
<g id="Subtract_5">
<path fill-rule="evenodd" clip-rule="evenodd" d="M 1.95252 1.22707C 1.68739 1.14699 1.35047 1.1675 0.940805 1.28859C 0.926156 0.980977 0.927133 0.672384 0.944711 0.364767C 0.986215 -0.0170694 0.756723 0.00050871 0.493539 0.00050871L 0.448129 0.00050871C 0.191293 -0.00242098 -0.00987868 -0.00535066 0.000375228 0.380392C 0.0267424 1.41164 0.00916429 2.44289 0.00916429 3.47414C 0.00916429 3.9927 0.30018 4.21145 0.756723 3.98C 0.917367 3.89797 0.979379 3.8882 1.12928 3.96535C 1.25282 4.02981 1.38856 4.06789 1.52772 4.07766C 1.66737 4.08742 1.8075 4.06887 1.93885 4.02297C 2.0702 3.97609 2.1908 3.90383 2.29188 3.8091C 2.33973 3.76418 2.38319 3.71535 2.42079 3.66262C 2.46278 3.60305 2.49842 3.53957 2.52674 3.47317C 2.66102 3.15969 2.71571 2.81887 2.68543 2.48C 2.64295 1.78078 2.39979 1.36184 1.95252 1.22707ZM 1.69715 3.1343C 1.73719 2.98098 1.76209 2.82375 1.77088 2.66555C 1.76844 2.52004 1.75672 2.37453 1.73573 2.23C 1.68153 1.98488 1.54432 1.81887 1.25916 1.855C 0.991098 1.89016 0.930063 2.06789 0.939828 2.30617C 0.949594 2.54348 0.944711 2.78762 0.939828 3.02785C 0.934946 3.25149 1.0702 3.34231 1.26747 3.37258C 1.35633 3.39406 1.45057 3.38137 1.53065 3.33742C 1.61073 3.29348 1.6703 3.22024 1.69715 3.1343Z" transform="translate(214.698 182.057) scale(9.66038)" fill="#802872"/>
</g>
<g id="Subtract_6">
<path fill-rule="evenodd" clip-rule="evenodd" d="M 2.75002 0.00195312L 2.14357 0L 0.26564 0.00488281L 0.229996 0.00488281C 0.125015 0.00390625 0.00929278 0.00292969 0.000503719 0.142578C -0.0102385 0.327148 0.153336 0.271484 0.251969 0.271484C 0.468277 0.274414 0.683609 0.274414 0.897965 0.274414C 1.14308 0.273438 1.38771 0.273438 1.63234 0.277344C 1.73 0.277344 1.85353 0.213867 1.9175 0.374023C 1.959 0.46582 1.97658 0.566406 1.96877 0.666992C 1.96144 0.766602 1.92873 0.864258 1.87404 0.949219C 1.84132 1 1.80177 1.04492 1.75636 1.08398C 1.72511 1.11035 1.69142 1.13379 1.65529 1.1543C 1.56642 1.2041 1.46681 1.23145 1.36427 1.23438C 1.23537 1.23828 1.10646 1.23633 0.977066 1.23438C 0.794937 1.23242 0.612808 1.23047 0.431656 1.24414C 0.284683 1.25488 0.0141756 1.10645 0.0141756 1.38867C 0.0141756 1.58301 0.18898 1.55273 0.325699 1.52832C 0.355972 1.52246 0.384293 1.51758 0.408707 1.51562C 0.668472 1.49219 0.925797 1.49316 1.18605 1.48145C 1.44826 1.46973 1.71339 1.44336 1.98634 1.3623C 2.38087 1.24707 2.95314 1.54688 3.46584 1.50684C 3.51857 1.50781 3.57179 1.50586 3.62404 1.50195C 3.66994 1.49805 3.71584 1.49316 3.76173 1.48633C 4.0591 1.41211 4.25246 1.2373 4.26564 0.918945C 4.26906 0.831055 4.26759 0.743164 4.26613 0.655273C 4.26466 0.533203 4.26271 0.411133 4.27345 0.291016C 4.29494 0.0537109 4.18947 0 3.96193 0C 3.55812 0.00585938 3.15431 0.00390625 2.75002 0.00195312ZM 3.49025 0.274414C 3.35939 0.258789 3.22707 0.257812 3.09621 0.269531L 2.99806 0.269531C 2.80177 0.269531 2.60451 0.269531 2.40773 0.273438C 2.34914 0.274414 2.2964 0.272461 2.25539 0.301758C 2.23048 0.320312 2.20998 0.351562 2.19582 0.40332C 2.0674 0.860352 2.3091 1.21484 2.7925 1.23633C 3.02296 1.24414 3.25295 1.23633 3.48244 1.23633C 3.78127 1.24023 3.90578 1.125 3.95998 0.953125C 3.99611 0.836914 4.0005 0.696289 4.00441 0.547852C 4.01613 0.0898438 3.68166 0.31543 3.49025 0.274414Z" transform="translate(470.387 19.3208) scale(9.66038)" fill="#171515"/>
</g>
<g id="Subtract_7">
<path fill-rule="evenodd" clip-rule="evenodd" d="M 2.6379 0.0148306L 2.12618 0.0109243L 1.59249 0.0109243C 1.14767 0.0109243 0.702844 0.0109243 0.258508 0.0158071C 0.158899 0.0167837 -0.00321071 -0.0291148 0.00411351 0.14569C 0.00801976 0.243346 0.0592893 0.268737 0.120813 0.272643C 0.170129 0.275573 0.226281 0.263854 0.270227 0.263854C 0.472375 0.26776 0.674035 0.265807 0.876184 0.264831C 1.06857 0.264831 1.26095 0.264831 1.45333 0.27069C 1.65353 0.276549 1.94454 0.153502 1.92208 0.55487L 1.92062 0.572448C 1.90157 0.907409 1.88351 1.21307 1.4172 1.21307C 1.05294 1.20721 0.692102 1.20331 0.332238 1.21307C 0.206262 1.21698 -0.0139529 1.13006 0.000695541 1.36639C 0.0148557 1.58319 0.233606 1.50018 0.34884 1.48651C 0.749719 1.43866 1.14572 1.47479 1.55538 1.43182C 1.69405 1.41717 1.83419 1.39374 1.97628 1.35467C 2.38644 1.24335 2.97579 1.51483 3.50167 1.48749C 3.58321 1.49139 3.66476 1.48944 3.7463 1.47967C 4.02706 1.41815 4.21847 1.25409 4.24825 0.964049C 4.25802 0.827331 4.24581 0.687682 4.25118 0.549987C 4.25265 0.510924 4.25558 0.471862 4.26095 0.433776C 4.30636 0.107604 4.20773 -0.0183726 3.84591 0.00213524C 3.44405 0.0255727 3.04073 0.0197134 2.6379 0.0148306ZM 3.49337 0.262877L 3.09884 0.262877L 2.66085 0.269713C 2.50216 0.27069 2.38644 0.281432 2.30636 0.311706C 2.1423 0.374206 2.12618 0.518737 2.19259 0.826354C 2.20626 0.938659 2.26339 1.0412 2.35226 1.11346C 2.44113 1.18573 2.55489 1.22186 2.66964 1.21405C 2.93087 1.21405 3.19357 1.19549 3.45284 1.21405C 3.7048 1.23163 3.83761 1.16131 3.90988 1.03339C 3.96896 0.927916 3.98751 0.783385 3.99825 0.615416C 4.0212 0.243346 3.8215 0.251159 3.61056 0.259948C 3.5715 0.261901 3.53195 0.263854 3.49337 0.262877Z" transform="translate(470.509 133.83) scale(9.66038)" fill="#0C0B0B"/>
</g>
<g id="Subtract_8">
<path fill-rule="evenodd" clip-rule="evenodd" d="M 4.05275 0.706307L 0.249527 0.0275964C 0.206558 0.0305261 0.15773 0.00708856 0.114273 0.00122919C 0.0683742 -0.00463019 0.0288234 0.00806512 0.00782732 0.0920495C -0.0327 0.255135 0.0918117 0.27662 0.205093 0.30201C 0.269058 0.320565 0.335464 0.330331 0.402359 0.331307C 0.823257 0.313729 0.955581 0.4983 0.927749 0.912362C 0.907241 1.22682 0.884292 1.44654 0.490249 1.42017C 0.381362 1.41236 0.278823 1.47193 0.15773 1.49244C 0.088882 1.50318 0.0405422 1.52564 0.0180812 1.56568C 0.00147967 1.59596 -0.000473456 1.63502 0.0146633 1.6858C 0.0332179 1.74146 0.0634914 1.76197 0.101089 1.76588C 0.133804 1.76978 0.17189 1.76099 0.211929 1.75416L 1.9673 1.44068C 2.66603 1.31666 3.36427 1.19166 4.06251 1.06471C 4.16115 1.04615 4.30421 1.04517 4.29933 0.876229C 4.29542 0.734628 4.19923 0.723885 4.10744 0.713143L 4.05275 0.706307ZM 1.41261 1.27467C 2.11183 1.13307 2.81886 1.02857 3.52296 0.908456L 3.51808 0.854745C 2.81203 0.740487 2.10988 0.601815 1.39992 0.52369C 1.10451 0.48951 1.14406 0.646737 1.18263 0.80201C 1.20119 0.875253 1.21974 0.948495 1.20265 1.00123C 1.16896 1.10377 1.08449 1.34107 1.41261 1.27467Z" transform="translate(470.368 38.2358) scale(9.66038)" fill="#121111"/>
</g>
</g>
</g>
</g>
</svg>

