<svg width="512" height="512" viewBox="0 0 512 512" version="1.1" xmlns="http://www.w3.org/2000/svg" xmlns:xlink="http://www.w3.org/1999/xlink">
<g id="Canvas" fill="none">
<g id="Group">
<g id="Vector">
<path d="M 18 34.8634C 8.68481 34.8634 1.13688 27.3125 1.13688 18.0079C 1.13688 8.68936 8.68481 1.13846 18 1.13846C 27.3152 1.13846 34.8631 8.6894 34.8631 18.0079C 34.8631 27.3125 27.3152 34.8634 18 34.8634ZM 18 -1.28496e-08C 8.05467 -1.28496e-08 5.84298e-07 8.05771 5.84298e-07 18.007C 5.84298e-07 27.9421 8.05482 36 18 36C 27.9452 36 36 27.9423 36 18.007C 36 8.05789 27.9453 -1.28496e-08 18 -1.28496e-08Z" transform="scale(14.2222)" fill="#4C4134"/>
</g>
<g id="Vector_2">
<path d="M 23.3833 6.76544C 23.3285 7.10782 23.1642 7.13529 22.8902 6.99835C 22.6436 6.84744 22.5477 6.79287 22.4108 6.76544C 22.2601 6.738 22.1231 6.79287 22.2327 6.99835C 22.3559 7.20382 22.5477 7.77945 22.4656 8.17674C 22.4656 8.17674 21.8217 6.9434 21.0409 6.32672C 20.5751 5.94297 21.4655 6.05282 21.6573 6.06637C 22.2601 6.12132 22.3285 6.20336 22.5204 6.27222C 22.7121 6.32675 23.1368 6.42268 23.2874 5.28527L 23.3696 5.28527C 23.4245 5.8335 23.4381 6.46407 23.3833 6.76544L 23.3833 6.76544ZM 18.8765 1.21536C 18.5614 1.59917 18.1505 2.25684 18.0957 2.48975C 18.0409 2.72263 18.0683 2.77757 18.2189 2.83251C 18.3562 2.901 18.3562 3.03799 18.1505 3.06542C 17.9587 3.09286 17.4931 3.17493 17.041 3.32576C 16.6849 3.46275 16.63 3.24343 16.7123 3.09289C 17.4109 1.94156 18.4109 1.32483 18.6574 1.18796C 18.8767 1.03713 18.9588 1.10599 18.8767 1.21539L 18.8765 1.21536ZM 14.945 8.83441C 15.2053 8.73882 15.274 8.95774 15.2329 9.12223C 14.9726 9.8762 14.6165 10.9997 14.7535 11.4929C 14.8904 11.9865 16.1233 12.2879 16.1233 12.2879C 15.8904 12.3016 14.5479 12.3699 14.2192 12.4384C 13.9042 12.5208 13.3836 12.5757 13.4932 11.9452C 13.6165 11.178 14.0138 9.80726 14.0138 9.80726C 13.6439 9.91718 12.8905 10.2734 12.6302 10.4379C 12.3562 10.6023 12.2877 10.5748 12.3562 10.3829C 13.4247 7.90274 15.6713 5.25768 17.0411 4.14782L 17.0685 4.23016C 15.274 6.28555 14.1233 9.12227 14.1233 9.12227C 14.315 9.01275 14.6849 8.9443 14.9452 8.83445L 14.945 8.83441ZM 25.3015 8.09466C 24.9043 7.88881 24.233 7.65594 24.1645 6.09381C 24.1233 4.54518 23.5891 3.72317 21.6713 2.0239C 21.6713 2.0239 21.644 2.33922 21.6988 2.51719C 21.6988 2.51719 21.096 1.83201 19.6987 1.48925C 19.6987 1.48925 19.8631 0.872561 19.9042 0.502743C 19.9316 0.214928 19.7124 -0.0864738 19.2329 0.0230008C 18.7124 0.146361 16.9041 0.818029 16.2741 0.982447C 15.644 1.1329 11.4797 2.57209 8.97272 4.97039C 8.97272 4.97039 9.50698 3.47667 10.7262 1.94152C 9.79466 2.18835 8.97272 2.50368 8.12337 2.94195C 6.78088 4.75099 5.09594 8.31376 5.09594 11.3285C 5.09594 11.3285 4.28761 8.86192 4.95889 5.06583L 4.94523 5.07975C 4.08227 5.83339 3.32883 6.6694 2.67124 7.61485C 2.50689 9.75277 2.49324 12.5893 4.23293 16.536C 4.23293 16.536 2.47948 15.2753 0.876727 11.027L 0.863078 11.0407C 0.369912 12.4113 0.0685074 13.8362 -3.10408e-07 15.3438C 1.42475 17.961 3.56177 20.5649 7.86306 22.8943C 7.86306 22.8943 4.3287 22.3736 0.34254 19.3725C 0.712377 21.0032 1.35632 22.5108 2.2194 23.9086C 4.38382 24.8402 7.74003 26.0601 12.5619 25.7857C 12.5619 25.7857 9.95917 27.2657 4.63037 26.8269C 4.63037 26.8269 5.54831 27.9644 8.00041 29.1431C 10.2197 30.1981 13.0962 29.5404 14.0689 28.9102C 15.2195 28.1427 16.4798 26.2651 15.8771 23.9083C 15.8771 23.9083 15.3977 24.8264 14.2471 25.1827C 14.2471 25.1827 15.1649 24.4701 15.1649 23.1684C 15.1649 21.8665 14.0964 20.9894 12.7539 20.866C 11.6991 20.7837 9.91837 20.921 9.35658 20.921C 8.80863 20.921 8.06888 20.921 7.54834 20.2768C 7.54834 20.2768 8.28802 20.2629 9.08266 20.085C 9.72642 19.948 11.0689 19.4544 11.8497 19.4958C 11.8497 19.4958 11.5758 19.1256 10.9319 19.1395C 10.5484 19.1395 10.4662 19.2629 10.1922 19.3449C 9.82237 19.4274 9.15113 19.4545 8.7813 18.7283C 8.7813 18.7283 9.32913 19.1531 9.79496 19.0161C 10.1921 18.9066 10.2332 18.7422 10.3839 18.6324C 10.5483 18.509 10.8359 18.3995 11.1099 18.3995C 11.3838 18.3995 11.6442 18.468 11.8907 18.6735C 12.1237 18.8653 12.6031 18.8243 12.3154 18.5503C 12.0414 18.276 11.6441 18.0021 11.0688 17.9882C 10.0551 17.9745 8.26064 18.194 7.63046 18.5089C 7.17836 18.7282 6.84965 19.016 6.68512 19.208C 6.63033 19.2764 6.50704 19.29 6.52076 19.1671C 6.54817 18.5504 6.79472 16.8922 7.57557 16.1797C 8.37021 15.4396 10.4661 14.9188 11.3016 14.7545C 11.3016 14.7545 11.0962 14.2747 11.3291 13.9734C 11.6989 13.5211 12.8634 12.6851 19.8086 12.6851C 19.8086 12.6851 19.425 12.9729 19.2607 13.2197C 19.2607 13.2197 21.9729 13.3567 23.4935 14.1239C 23.7265 14.2338 24.2059 14.2883 24.3566 13.2198L 23.9183 12.9455C 23.9183 12.9455 23.9594 12.7811 24.0005 12.5891C 24.0415 12.3838 24.0005 12.3428 23.8498 12.4248C 23.6991 12.5071 23.6443 12.5892 23.6443 12.5892C 23.6443 12.5892 23.2606 12.74 23.2197 12.5072C 23.1785 12.2739 22.7402 11.6712 21.8772 11.5613C 21.8772 11.5613 22.3018 10.9586 23.3019 11.1095C 23.3019 11.1095 23.3841 11.397 23.5896 11.3009C 23.8087 11.219 24.0964 11.0406 24.1238 11.2873C 24.1512 11.5203 24.247 11.9041 24.8087 11.301C 24.8087 11.301 25.3567 11.6028 25.8635 11.4109C 26.3566 11.2191 26.7128 10.9038 26.836 10.0952C 26.8635 9.91718 26.8635 9.86224 26.9867 9.71137C 27.1237 9.54692 27.2196 9.31404 26.9867 9.12215C 26.6717 8.86181 25.6991 8.31358 25.3018 8.09463L 25.3015 8.09466Z" transform="translate(39.9514 31.0833) scale(14.2222)" fill="#4C4134"/>
</g>
<g id="Vector_3">
<path d="M 9.93999 8.08533C 9.55647 7.61954 8.98118 6.94791 8.98118 6.94791C 9.54278 7.27675 10.5839 7.42765 10.5839 7.42765C 10.3099 7.19437 9.63866 6.39972 9.37839 6.08439C 8.65233 5.2074 7.37835 4.22089 6.43327 3.79609C 4.58393 2.96004 2.63872 2.85057 2.37852 2.79566C 2.11825 2.74065 1.55658 2.85053 1.91276 2.32984C 2.24147 1.79516 4.24162 0.246833 4.24162 0.246833C 3.83064 0.246833 1.98135 0.39729 1.43325 0.479742C 0.885335 0.561708 0.748358 0.369931 0.720947 5.02563e-07C 0.720947 5.02563e-07 -0.388864 1.055 0.145437 1.58965C 0.227706 1.65821 0.460453 1.68561 0.748245 1.56221C 1.03581 1.4253 1.62486 1.23338 1.83046 1.21983C 1.83046 1.21983 1.35105 1.95954 1.25502 2.27483C 1.14546 2.59015 1.11801 2.74064 1.61117 2.9051C 2.11799 3.05593 4.63853 3.85096 6.2003 4.90588C 7.74815 5.94733 9.35091 7.30407 10.5289 9.77086C 11.7207 12.251 11.0769 14.1285 10.8851 14.4713C 11.7344 13.9231 12.5152 13.3065 13.2276 12.6074L 13.2138 12.6074C 12.5974 10.5383 10.8852 9.22285 9.93987 8.08544L 9.93999 8.08533Z" transform="translate(206.576 230.389) scale(14.2222)" fill="#4C4134"/>
</g>
</g>
</g>
</svg>

