<?xml version="1.0" encoding="utf-8"?>
<!-- Generator: Adobe Illustrator 21.1.0, SVG Export Plug-In . SVG Version: 6.00 Build 0)  -->
<svg version="1.1" id="Layer_1" xmlns="http://www.w3.org/2000/svg" xmlns:xlink="http://www.w3.org/1999/xlink" x="0px" y="0px"
	 viewBox="0 0 700.4 227" style="enable-background:new 0 0 700.4 227;" xml:space="preserve">
<style type="text/css">
	.st0{fill:#D2B673;}
	.st1{fill:#414141;}
</style>
<g>
	<g>
		<path class="st0" fill="#D2B673" d="M40,118.7v-13c0-5.9-2.9-8.9-8.7-8.9h-3.1c-5.6,0-8.5,3-8.5,8.9v24.6c0,2.8,0.5,4.6,1.7,5.6
			c1.1,1,2.9,2.2,5.4,3.7l18.8,10.1c4.1,2.3,7,4.2,8.8,5.5c1.7,1.3,3.1,2.9,4,4.7c1,1.9,1.4,5.4,1.4,10.6V202c0,16.6-8,25-23.9,25
			H23.7C7.9,227,0,217.9,0,199.8v-7.4h19.8v8c0,5.8,3,8.7,8.9,8.7h3.5c5.2,0,7.8-2.9,7.8-8.7v-25.2c0-2.8-0.6-4.6-1.7-5.6
			c-1.1-1-2.9-2.2-5.4-3.7l-18.8-10.5c-4.1-2.2-7.1-4.1-9-5.6c-1.9-1.5-3.2-3.5-4-5.9c-0.8-2.4-1.2-5.5-1.2-9.4v-30.3
			c0-16.9,7.9-25.4,23.7-25.4h12.4c15.8,0,23.7,8.5,23.7,25.4v14.4H40z"/>
		<path class="st0" fill="#D2B673" d="M95.1,227H75.3V104.2c0-16.9,7.9-25.4,23.7-25.4h14.9c15.8,0,23.7,8.5,23.7,25.4V227h-19.8v-54.3H95.1V227z
			 M117.8,154.8v-49.3c0-5.8-2.9-8.7-8.7-8.7h-5.4c-5.8,0-8.7,2.9-8.7,8.7v49.3H117.8z"/>
		<path class="st0" fill="#D2B673" d="M196.2,150.4V78.8h19.8V227h-19.8v-29.5L175,130v97h-19.8V78.8H175L196.2,150.4z"/>
		<path class="st0" fill="#D2B673" d="M266.2,96.8V227h-19.8V96.8h-19v-18h57.8v18H266.2z"/>
		<path class="st0" fill="#D2B673" d="M296.5,78.8h38.8c15.1,0,22.7,8.5,22.7,25.4v36.5c0,12.9-3.9,21.1-11.8,24.6l13.8,61.7h-18.8l-13-59.8h-12
			V227h-19.8V78.8z M316.3,150.2h13c5.9,0,8.9-3.6,8.9-10.7v-32c0-7.2-3-10.7-8.9-10.7h-13V150.2z"/>
		<path class="st0" fill="#D2B673" d="M393.3,227h-19.8V104.2c0-16.9,7.9-25.4,23.7-25.4h14.9c15.8,0,23.7,8.5,23.7,25.4V227H416v-54.3h-22.7V227z
			 M416,154.8v-49.3c0-5.8-2.9-8.7-8.7-8.7H402c-5.8,0-8.7,2.9-8.7,8.7v49.3H416z"/>
	</g>
	<g>
		<path class="st0" fill="#D2B673" d="M489.1,78.8h36.1c16,0,23.9,8.5,23.9,25.4v44c0,16.8-7.9,25.2-23.7,25.2h-16.5V227h-19.8V78.8z M508.9,155.4
			h12.6c5.2,0,7.8-2.9,7.8-8.7v-41.3c0-5.8-3-8.7-8.9-8.7h-11.6V155.4z"/>
		<path class="st0" fill="#D2B673" d="M583.6,227h-19.8V104.2c0-16.9,7.9-25.4,23.7-25.4h14.9c15.8,0,23.7,8.5,23.7,25.4V227h-19.8v-54.3h-22.7V227
			z M606.3,154.8v-49.3c0-5.8-2.9-8.7-8.7-8.7h-5.4c-5.8,0-8.7,2.9-8.7,8.7v49.3H606.3z"/>
		<path class="st0" fill="#D2B673" d="M676.5,227h-19.8v-54.5l-24.4-93.7h19.6l14.9,64.4h0.6l13.4-64.4h19.6l-23.9,93.7V227z"/>
	</g>
	<g id="palm">
		<path class="st1" fill="#414141" d="M549.3,77.5c-1.7-0.5-3.1-0.9-4.6-1.3c-11.8-3.4-23.5-7.1-35.4-10c-13.6-3.2-27.5-3.3-42.1-0.9
			c21.6,4.9,34.9,17.6,40.7,38c-0.2,0.2-0.4,0.4-0.6,0.6c-1.6-1.3-3.3-2.6-4.9-3.9c-8.1-6.4-16.2-12.8-25.3-17.8
			c-8.5-4.6-17.5-7.7-26.7-9.2c25.1,66.5,25.9,154,25.9,154s0.2,0-12.3,0c0-14.5,1-46.5-4-77.8c-5.3-33-14.9-65.4-20.2-78.7
			c-23.3,5.8-47.9,16.6-63.3,35.8c-0.2-0.1-0.5-0.3-0.7-0.4c0.3-2.3,0.4-4.7,1-6.9c4.1-15.4,14.5-24.8,29.1-30
			c3.4-1.2,7.1-1.8,10.9-2.7c-1.4-0.2-2.7-0.5-3.9-0.6c-13.3-1.7-26.3-0.8-38.5,5.6c-8.3,4.3-15.5,10.3-22.3,16.5
			c-3.1,2.9-6.2,5.8-9.4,8.8c0.1-10.6,7.5-28.7,21.9-39.3c14.6-10.7,36.8-14.5,59.2-1.7c-2.2-3.2-13.4-11.9-21.3-15.4
			c-8-3.6-16.4-6.4-24.4-9.4c4.5-3.5,16.1-4.7,24.5-2.9c8.7,1.9,16.1,6.1,22.6,12.2c-0.9-3.1-6.8-11.2-12.3-16.3
			c-5-4.7-10.3-9-15.4-13.4c14.8-3.2,32.1,8.8,42.1,29.9c3.8-12.8,10.5-23.3,21.1-30.9c10.7-7.8,22.6-11.1,36.6-8.4
			c-14.4,10.9-27.5,22.4-37.1,37.6c26.3-18.5,53.8-18.6,82.3-7.4c0,0.2,0.1,0.5,0.1,0.7c-2.2,0.2-4.5,0.3-6.7,0.5
			c-10.1,0.9-20.3,1.5-30.4,2.8c-15.2,2-29.7,6.6-42.6,15.2c-0.7,0.4-1.3,0.9-2,1.4c-0.1,0.1-0.1,0.2-0.2,0.5
			c20.5-10.1,40.9-10.2,61.3-0.4C533.6,57.6,546.1,69.4,549.3,77.5z"/>
	</g>
</g>
</svg>
