<svg width="512" height="486" viewBox="0 0 512 486" version="1.1" xmlns="http://www.w3.org/2000/svg" xmlns:xlink="http://www.w3.org/1999/xlink">
<g id="Canvas" fill="none">
<g id="Sberbank">
<g id="Vector">
<path fill-rule="evenodd" clip-rule="evenodd" d="M 30.2135 2.34477L 31.8454 3.81599L 11.2368 15.4939L 1.2589 9.79285L 2.19141 7.95382L 11.2368 13.0571L 30.2135 2.34477ZM 26.0638 0L 28.2552 1.10342L 11.2368 10.7583L 3.31043 6.29869L 4.66258 4.68954L 11.2368 8.41358L 26.0638 0ZM 33.2908 5.3332L 34.5031 6.94235L 11.2368 20.1374L -8.89316e-08 13.7928L 0.512883 11.7698L 11.2368 17.8386L 33.2908 5.3332Z" transform="translate(4.40132 0) scale(13.4737)" fill="#55B748"/>
</g>
<g id="Vector_2">
<path fill-rule="evenodd" clip-rule="evenodd" d="M 36.9742 2.57465C 37.6578 4.47529 38 6.46696 38 8.55151C 38 10.636 37.6578 12.659 36.9742 14.6203L 36.508 15.8626C 35.5447 18.0998 34.1925 20.0924 32.4515 21.8394C 30.6798 23.5553 28.6599 24.8738 26.3902 25.7934C 23.9973 26.8048 21.5262 27.3106 18.9767 27.3106C 16.3964 27.3106 13.9253 26.8039 11.5632 25.7934C 9.35593 24.8738 7.35102 23.5553 5.54847 21.8394C 3.77669 20.0924 2.42454 18.0998 1.49202 15.8626C 0.497031 13.5013 0 11.0645 0 8.55151L 0 7.31016L 11.5632 13.7928L 35.9485 -1.75384e-07L 36.9742 2.57465Z" transform="translate(0 117.079) scale(13.4737)" fill="#55B748"/>
</g>
</g>
</g>
</svg>

