<svg width="512" height="175" viewBox="0 0 512 175" version="1.1" xmlns="http://www.w3.org/2000/svg" xmlns:xlink="http://www.w3.org/1999/xlink">
<g id="Canvas" fill="none">
<g id="Vector">
<path d="M 32.594 1.39794L 36.0141 0.781205L 36.0141 13.8561L 32.594 13.8561L 32.594 1.39794ZM 37.5799 1.39794L 37.5799 13.8561L 41 13.8561L 41 0.781205L 37.5799 1.39794ZM 27.7523 13.8561L 31.1724 13.8561L 31.1724 4.29662L 27.7523 4.29662L 27.7523 13.8561ZM 5.19196 5.65345C 4.7593 5.63289 3.77035 5.57122 3.77035 4.66667C 3.77035 3.57709 5.21256 3.57709 5.74824 3.57709C 6.69598 3.57709 7.93216 3.8649 8.79749 4.1116C 8.79749 4.1116 9.29196 4.27606 9.70402 4.46109L 9.74523 4.48165L 9.74523 4.44053L 9.74523 1.52129L 9.68342 1.50073C 8.65327 1.13069 7.43769 0.801762 5.21256 0.801762C 1.3598 0.781204 0 3.02203 0 4.93392C 0 6.04405 0.47387 8.63436 4.88291 8.94273C 5.25377 8.96329 6.24271 9.02496 6.24271 9.95007C 6.24271 10.7107 5.4392 11.163 4.05879 11.163C 2.55477 11.163 1.11256 10.7724 0.226633 10.4229L 0.226633 13.4861C 1.54523 13.8355 3.02864 14 4.7799 14C 8.55025 14 10.2191 11.8825 10.2191 9.78561C 10.2397 7.40088 8.34422 5.85903 5.19196 5.65345ZM 25.8156 4.15272C 22.6633 4.25551 21.0563 5.67401 21.0563 8.4699L 21.0563 13.8561L 24.497 13.8561L 24.497 9.47724C 24.497 7.79148 24.7236 7.07195 26.7221 7.01028L 26.7221 4.21439C 26.3925 4.13216 25.8156 4.15272 25.8156 4.15272ZM 16.5648 4.27607C 16.4824 4.46109 15.9467 6.00294 14.6281 7.60646L 14.6281 0.781205L 11.105 1.48018L 11.105 13.8561L 14.6281 13.8561L 14.6281 10.0323C 15.6583 11.5536 16.1528 13.8561 16.1528 13.8561L 20.3764 13.8561C 19.9643 12.1292 18.1307 8.94273 18.1307 8.94273C 19.7789 6.86637 20.4794 4.66667 20.603 4.29662L 16.5648 4.29662L 16.5648 4.27607ZM 29.4417 3.37151C 30.3688 3.37151 31.1312 2.61087 31.1312 1.68576C 31.1312 0.760646 30.3688 0 29.4417 0C 28.5146 0 27.7523 0.760646 27.7523 1.68576C 27.7729 2.63142 28.5146 3.37151 29.4417 3.37151Z" transform="scale(12.4878)" fill="#862165"/>
</g>
</g>
</svg>

