<svg width="512" height="295" viewBox="0 0 512 295" version="1.1" xmlns="http://www.w3.org/2000/svg" xmlns:xlink="http://www.w3.org/1999/xlink">
<g id="Canvas" fill="none">
<g id="Liteforex-cabinet-icons_skril">
<g id="Vector">
<path d="M 31.799 1.36559L 35.1357 0.763121L 35.1357 13.5354L 31.799 13.5354L 31.799 1.36559ZM 36.6633 1.36559L 36.6633 13.5354L 40 13.5354L 40 0.763121L 36.6633 1.36559ZM 27.0754 13.5354L 30.4121 13.5354L 30.4121 4.19716L 27.0754 4.19716L 27.0754 13.5354ZM 5.06533 5.52258C 4.64322 5.5025 3.67839 5.44226 3.67839 4.55864C 3.67839 3.49429 5.08543 3.49429 5.60804 3.49429C 6.53266 3.49429 7.73869 3.77544 8.58291 4.01643C 8.58291 4.01643 9.06533 4.17708 9.46734 4.35782L 9.50754 4.3779L 9.50754 1.48608L 9.44724 1.466C 8.44221 1.10452 7.25628 0.783203 5.08543 0.783203C 1.32663 0.763121 0 2.95207 0 4.81971C 0 5.90415 0.462312 8.43449 4.76382 8.73573C 5.12563 8.75581 6.09045 8.81605 6.09045 9.71975C 6.09045 10.4628 5.30653 10.9046 3.9598 10.9046C 2.49246 10.9046 1.08543 10.523 0.221106 10.1816L 0.221106 13.1739C 1.50754 13.5153 2.95477 13.6759 4.66332 13.6759C 8.34171 13.6759 9.96985 11.6075 9.96985 9.55909C 9.98995 7.22957 8.1407 5.72341 5.06533 5.52258ZM 25.1859 4.05659C 22.1106 4.157 20.5427 5.54267 20.5427 8.27384L 20.5427 13.5354L 23.8995 13.5354L 23.8995 9.25786C 23.8995 7.61113 24.1206 6.90825 26.0704 6.84801L 26.0704 4.11684C 25.7487 4.03651 25.1859 4.05659 25.1859 4.05659ZM 16.1608 4.17708C 16.0804 4.35782 15.5578 5.86398 14.2714 7.43039L 14.2714 0.763121L 10.8342 1.44591L 10.8342 13.5354L 14.2714 13.5354L 14.2714 9.80008C 15.2764 11.2862 15.7588 13.5354 15.7588 13.5354L 19.8794 13.5354C 19.4774 11.8485 17.6884 8.73573 17.6884 8.73573C 19.2965 6.70743 19.9799 4.55864 20.1005 4.19716L 16.1608 4.19716L 16.1608 4.17708ZM 28.7236 3.29347C 29.6281 3.29347 30.3719 2.55043 30.3719 1.64673C 30.3719 0.743038 29.6281 0 28.7236 0C 27.8191 0 27.0754 0.743038 27.0754 1.64673C 27.0955 2.57051 27.8191 3.29347 28.7236 3.29347Z" transform="scale(12.8)" fill="#862165"/>
<path d="M 23.3485 21.4258L 22.4354 21.4258L 22.4354 17.0023L 21.0884 17.464L 21.0884 16.6882L 23.2315 15.8974L 23.3485 15.8974L 23.3485 21.4258Z" transform="scale(12.8)" fill="#862165"/>
<path d="M 27.0952 19.4544L 25.1143 19.4544L 25.1143 18.7127L 27.0952 18.7127L 27.0952 19.4544Z" transform="scale(12.8)" fill="#862165"/>
<path d="M 31.9096 16.6882L 30.1966 16.6882L 30.1966 21.4258L 29.2496 21.4258L 29.2496 16.6882L 27.5517 16.6882L 27.5517 15.9163L 31.9096 15.9163L 31.9096 16.6882Z" transform="scale(12.8)" fill="#862165"/>
<path d="M 34.3508 21.4258C 34.3106 21.3476 34.2753 21.2202 34.2452 21.0437C 33.9534 21.3489 33.5962 21.5015 33.1736 21.5015C 32.7636 21.5015 32.4291 21.3842 32.17 21.1496C 31.9109 20.915 31.7813 20.6249 31.7813 20.2793C 31.7813 19.8429 31.9423 19.5086 32.2643 19.2765C 32.5888 19.0419 33.0516 18.9246 33.6528 18.9246L 34.215 18.9246L 34.215 18.6559C 34.215 18.444 34.1559 18.275 34.0376 18.1489C 33.9194 18.0202 33.7396 17.9559 33.4981 17.9559C 33.2893 17.9559 33.1183 18.0089 32.985 18.1148C 32.8516 18.2182 32.785 18.3507 32.785 18.5121L 31.8681 18.5121C 31.8681 18.2876 31.9423 18.0782 32.0907 17.884C 32.2391 17.6872 32.4404 17.5333 32.6944 17.4223C 32.951 17.3113 33.2365 17.2558 33.5509 17.2558C 34.0288 17.2558 34.4099 17.3769 34.6942 17.6191C 34.9784 17.8588 35.1243 18.1968 35.1318 18.6332L 35.1318 20.4798C 35.1318 20.8481 35.1834 21.142 35.2865 21.3615L 35.2865 21.4258L 34.3508 21.4258ZM 33.3434 20.7636C 33.5245 20.7636 33.6943 20.7195 33.8528 20.6312C 34.0137 20.5429 34.1345 20.4243 34.215 20.2755L 34.215 19.5036L 33.7207 19.5036C 33.3811 19.5036 33.1258 19.5628 32.9548 19.6814C 32.7837 19.8 32.6982 19.9677 32.6982 20.1847C 32.6982 20.3613 32.7561 20.5025 32.8718 20.6085C 32.99 20.7119 33.1472 20.7636 33.3434 20.7636Z" transform="scale(12.8)" fill="#862165"/>
<path d="M 39.6671 19.4203C 39.6671 20.0535 39.5237 20.5593 39.237 20.9377C 38.9502 21.3136 38.5653 21.5015 38.0824 21.5015C 37.6346 21.5015 37.2762 21.3539 37.0071 21.0588L 37.0071 23L 36.0902 23L 36.0902 17.3315L 36.9354 17.3315L 36.9731 17.7478C 37.2422 17.4198 37.6082 17.2558 38.0711 17.2558C 38.5691 17.2558 38.959 17.4425 39.2407 17.8159C 39.525 18.1867 39.6671 18.7026 39.6671 19.3635L 39.6671 19.4203ZM 38.754 19.3408C 38.754 18.9322 38.6722 18.608 38.5087 18.3683C 38.3478 18.1287 38.1163 18.0089 37.8145 18.0089C 37.4397 18.0089 37.1706 18.164 37.0071 18.4743L 37.0071 20.2906C 37.1731 20.6085 37.4447 20.7674 37.822 20.7674C 38.1138 20.7674 38.3415 20.6501 38.505 20.4155C 38.671 20.1784 38.754 19.8202 38.754 19.3408Z" transform="scale(12.8)" fill="#862165"/>
</g>
</g>
</g>
</svg>

