<svg width="31" height="34" viewBox="0 0 31 34" fill="none" xmlns="http://www.w3.org/2000/svg">
<path fill-rule="evenodd" clip-rule="evenodd" d="M6.78226 5.99841L12.4584 12.0002L13.5577 6.50385L26.5007 27.3251C28.3811 24.8494 29.4972 21.7615 29.4972 18.4127C29.4972 10.2672 22.894 3.66406 14.7486 3.66406C11.8142 3.66406 9.07975 4.52108 6.78226 5.99841ZM25.4196 28.5935L16.2143 19.3287L14.2906 26.016L0.678458 13.9776C0.237604 15.3775 0 16.8673 0 18.4127C0 26.5581 6.60316 33.1613 14.7486 33.1613C18.946 33.1613 22.7339 31.4079 25.4196 28.5935Z" fill="#D9640E"/>
<path d="M1.09912 0L12.4583 12.0004L10.1681 5.40477L1.09912 0Z" fill="#D9640E"/>
<path d="M16.2144 19.3291L30.0469 33.2532L22.7184 30.047L16.2144 19.3291Z" fill="#D9640E"/>
</svg>
