<svg width="512" height="453" viewBox="0 0 512 453" version="1.1" xmlns="http://www.w3.org/2000/svg" xmlns:xlink="http://www.w3.org/1999/xlink">
<g id="Canvas" fill="none">
<g id="Tinkoff">
<g id="Group">
<g id="Vector">
<path fill-rule="evenodd" clip-rule="evenodd" d="M 8.3679 23.8001L 7.89765 24.595C 7.72993 24.0713 7.42583 23.5279 7.22989 23.1437C 6.85369 23.9172 6.25751 23.9329 5.6838 23.937C 5.81077 22.0833 3.47465 20.2192 4.50137 18.1046C 4.70619 17.6814 4.57348 17.164 4.13092 16.9422C 2.56341 16.1489 3.28916 19.4399 1.7227 19.5388C 2.02261 19.1655 2.136 18.3842 2.18093 18.3165C 1.84757 18.4029 1.04919 18.9079 0.690751 18.2608C 1.60618 17.7642 1.86952 17.0172 2.01321 16.2671C 2.19556 15.3181 2.27916 14.8787 2.46465 14.4883C 2.65746 14.0713 2.96678 13.7101 3.62827 12.8553C 3.47152 12.8792 1.70807 13.2488 1.31305 13.0646C 4.36082 11.1999 3.67373 8.82822 8.32297 6.71422C 7.10449 5.81261 5.85727 5.09371 6.75128 3.37012C 8.02462 4.89433 10.4443 4.367 11.7516 3.65852C 10.46 3.40084 8.79636 2.2681 8.4003 1.00625C 8.8878 0.931293 9.51793 1.45706 9.88108 1.70224C 10.0556 1.23686 10.1251 0.694959 10.6915 0.577312C 9.93646 2.18949 11.4293 3.0276 12.8531 3.03437C 13.0731 3.03437 13.9942 2.94326 13.9942 2.94326C 13.8479 2.64134 13.2523 1.81781 13.6854 1.48413C 14.0334 1.81 14.4483 2.06976 14.8271 2.35867C 17.5953 4.49298 13.5109 6.47216 11.8399 7.37013C 9.2175 8.78189 9.91922 10.4607 11.0149 10.8902C 11.0102 11.0812 10.8926 11.165 10.7108 11.2238C 9.94482 11.4789 9.22533 10.9344 8.61453 10.5851C 8.65162 11.6387 8.57952 12.6512 9.74784 13.2311L 8.94214 13.5247C 9.63498 14.0484 9.84554 14.3264 10.68 14.4347C 10.2902 14.6226 9.80688 14.6195 9.39306 14.658C 9.49756 14.95 9.58377 15.3446 9.8027 15.6065C 8.09516 15.8079 7.41224 14.8371 6.88451 14.8772C 5.75852 14.9604 5.82853 17.0724 8.5999 17.0755L 8.31252 17.5476C 8.31252 17.5476 8.83816 17.8532 9.31834 17.912C 9.13442 18.0604 8.95624 18.2608 8.80158 18.4139L 9.24414 18.7933C 8.11345 18.9958 7.79263 17.797 7.05903 18.3753C 5.94035 19.2587 8.40761 21.1239 10.7735 20.8454C 10.5744 21.0989 10.0195 21.4716 9.77866 21.6658C 11.7072 23.4805 10.7557 25.1884 11.5489 26.4399C 9.88735 26.33 8.6558 25.1145 8.3679 23.8001ZM 10.5353 21.7595C 11.0703 21.3358 11.5123 21.1244 11.4914 20.1026C 10.6883 20.5107 8.40918 20.4893 7.45718 19.1832C 7.18809 18.8126 7.47547 18.6257 7.7362 18.9178C 8.38724 19.6538 9.59422 19.3202 10.0347 19.1072C 9.9652 18.8553 9.76926 18.5253 9.60467 18.3842C 9.76926 18.2218 10.2348 17.9823 10.3315 17.5679C 10.0812 17.4331 9.11456 17.3368 9.11456 17.3368C 9.27027 17.189 9.4636 16.9802 9.34812 16.429C 8.36059 16.7314 7.14054 16.3212 6.86309 15.9563C 6.59034 15.5987 6.86936 15.2629 7.09717 15.4987C 7.58937 16.0146 10.0154 16.6044 10.9182 15.7085C 10.5828 15.6169 10.2134 15.3181 10.146 15.1338C 10.9809 15.0505 11.6477 14.5591 11.702 13.9469C 11.2401 13.9469 10.3675 13.9136 10.0713 13.6908C 10.472 13.5435 10.7239 13.3988 10.8503 12.9526C 9.32304 12.8605 9.20234 11.7304 9.19451 11.543C 10.1883 12.1145 11.9392 11.8615 11.4867 10.4534C 10.6612 10.4097 9.82621 9.07549 12.1017 7.84853C 14.1693 6.73452 16.5221 5.53202 16.3152 3.5518C 16.1793 2.28631 14.0851 1.42114 13.8197 0.779806C 12.9461 1.19417 12.769 1.67518 13.1634 2.48101C 13.1634 2.48101 11.2176 2.67414 11.064 1.48049C 10.9966 0.944828 11.3556 0.443527 11.7407 0.0614345C 11.5228 0.0614345 10.0556 -0.329512 9.61355 0.861014C 8.79009 0.30193 8.08784 0.322232 7.53346 0.912029C 8.41754 1.43571 8.96513 3.22801 10.4266 3.75742C 9.38679 4.31963 7.70589 4.0833 6.72463 2.35867C 5.79666 3.75222 5.26266 5.13171 7.25236 6.60438C 3.62984 8.2478 3.65596 11.3863 0.505261 12.8824C 0.825556 13.7371 1.49959 13.7371 2.35754 13.6039C 0.994848 15.368 2.15585 17.2129 1.79436e-07 17.9677C 0.201164 18.6866 0.606105 19.2598 1.4024 19.05C 1.17563 19.4019 1.02672 19.3941 0.674553 19.7809C 1.85332 20.5206 3.25154 19.9844 3.56818 17.6122C 3.62513 17.189 4.21086 17.4534 4.00761 17.8688C 2.66373 20.6377 6.06209 22.7199 4.85981 24.7512C 5.92102 24.7069 6.72724 24.6252 7.17085 24.2676C 7.38664 24.6939 7.5157 25.1161 7.46972 25.532C 8.05492 25.4139 8.26863 25.0672 8.30886 24.6736C 8.6929 25.7871 10.0645 26.9787 12.2606 26.9787C 11.0959 25.3269 12.1801 23.6491 10.5353 21.7595Z" transform="translate(19.4012 68.9884) scale(11.907)" fill="#D0D5D6"/>
</g>
<g id="Vector_2">
<path fill-rule="evenodd" clip-rule="evenodd" d="M 2.58431 13.2915C 2.98402 13.7074 3.46995 13.7501 4.3906 13.6918C 3.37903 13.5705 2.81159 13.3253 2.45943 12.6564C 2.40665 12.3118 2.37269 11.9427 2.35754 11.5476C 2.32671 10.4878 2.67679 9.22488 3.41247 7.84279C 3.40725 8.71004 4.098 10.0734 5.63677 10.3004C 4.25214 9.69755 3.43964 8.33993 3.88221 7.02707C 4.17063 6.56742 4.49615 6.0937 4.85929 5.6127C 5.04216 5.38001 5.21929 5.15617 5.39329 4.94742C 5.20675 5.61791 6.02081 6.31026 6.56526 6.42582C 6.26953 6.13899 5.63677 5.20666 7.09874 3.64862C 6.69014 3.84019 6.23922 4.11244 5.8975 4.37949C 8.55496 1.51848 10.738 1.43883 11.7417 5.34892e-07C 10.2881 0.989589 6.44091 1.52369 4.71246 1.05622C 5.66656 1.69183 7.9661 1.63352 8.52779 1.51536C 6.65252 3.3316 2.5587 5.20666 1.85019 6.87611C 2.84817 5.78605 3.49242 5.58615 4.35559 5.30505C 3.67582 6.31598 3.06344 7.20562 2.64126 8.23685C 1.55236 10.5934 0.0956181 10.6231 -9.82241e-08 12.5674C 0.496901 11.0609 1.50481 10.6793 2.20392 9.68974C 2.08009 10.3217 2.02314 11.0213 2.04508 11.8308C 2.06964 12.71 2.24625 13.4826 2.52683 14.1733C 2.45577 15.1348 2.54198 16.7756 3.6476 17.8589C 2.89624 16.911 2.73479 15.3712 2.80167 14.7704C 3.66693 16.4347 6.13577 18.7324 7.32864 20.2775C 6.13577 18.291 3.21079 15.9698 2.58431 13.2915ZM 29.9013 5.30505C 30.7614 5.58719 31.4093 5.78605 32.4057 6.87611C 31.6982 5.20666 27.6013 3.33108 25.726 1.51484C 26.2903 1.633 28.5888 1.69183 29.5429 1.05622C 27.816 1.52369 23.9673 0.989589 22.5131 5.34892e-07C 23.5179 1.43883 25.6999 1.519 28.3579 4.37949C 28.0172 4.11244 27.5652 3.84019 27.1561 3.64862C 28.617 5.20666 27.9858 6.13743 27.6896 6.42582C 28.2346 6.31026 29.0476 5.61895 28.8621 4.94742C 29.0366 5.15617 29.2153 5.38001 29.3961 5.6127C 29.7618 6.0937 30.0847 6.56742 30.3726 7.02707C 30.8157 8.33993 30.0006 9.69755 28.6202 10.3004C 30.1589 10.0739 30.8497 8.71004 30.8418 7.84279C 31.5775 9.22488 31.9302 10.4878 31.8968 11.5476C 31.8837 11.9427 31.8477 12.3118 31.7965 12.6564C 31.4427 13.3253 30.8753 13.5711 29.8674 13.6918C 30.7859 13.7501 31.2687 13.7074 31.6732 13.2915C 31.0446 15.9698 28.1201 18.2899 26.9267 20.2775C 28.1201 18.7324 30.5858 16.4347 31.4537 14.7704C 31.5211 15.3712 31.3591 16.911 30.6099 17.8589C 31.7134 16.7756 31.7996 15.1348 31.7291 14.1728C 32.0086 13.4815 32.1831 12.71 32.2098 11.8308C 32.2359 11.0213 32.1748 10.3217 32.0514 9.68974C 32.7506 10.6793 33.7585 11.0609 34.2559 12.5674C 34.1613 10.6231 32.7046 10.5934 31.6136 8.23685C 31.193 7.20562 30.5822 6.31598 29.9013 5.30505Z" transform="translate(52.0581 115.279) scale(11.907)" fill="#D0D5D6"/>
</g>
<g id="Vector_3">
<path fill-rule="evenodd" clip-rule="evenodd" d="M 22.5167 18.3168C 22.5585 18.3845 22.6693 19.1658 22.9697 19.5396C 21.4022 19.4402 22.1301 16.1492 20.562 16.9425C 20.1195 17.1643 19.9873 17.6817 20.1932 18.1049C 21.2188 20.2195 18.8817 22.0836 19.0128 23.9373C 18.4355 23.9332 17.8356 23.9175 17.4615 23.144C 17.2682 23.5282 16.9615 24.0716 16.7953 24.5953L 16.3261 23.8004C 16.0356 25.1148 14.8046 26.3309 13.1446 26.4402C 13.933 25.1887 12.9863 23.4808 14.9143 21.6661C 14.6729 21.4735 14.1196 21.0992 13.9194 20.8457C 16.2869 21.1242 18.7542 19.259 17.6329 18.3756C 16.9009 17.7973 16.578 18.9961 15.4499 18.7936L 15.8919 18.4142C 15.7378 18.2601 15.557 18.0612 15.3746 17.9123C 15.8564 17.8535 16.3804 17.5479 16.3804 17.5479L 16.0931 17.0758C 18.8655 17.0727 18.9313 14.9607 17.81 14.8774C 17.2828 14.8374 16.5968 15.8093 14.8908 15.6073C 15.1066 15.3449 15.1949 14.9493 15.301 14.6583C 14.8903 14.6198 14.4017 14.6229 14.014 14.435C 14.8485 14.3262 15.058 14.0487 15.7508 13.525L 14.9477 13.2314C 16.114 12.6515 16.0424 11.6385 16.0774 10.5854C 15.4692 10.9358 14.7466 11.4792 13.9837 11.2241C 13.8019 11.1653 13.6833 11.0815 13.6786 10.8905C 14.7743 10.461 15.4723 8.78219 12.8535 7.37043C 11.1836 6.47246 7.09711 4.49328 9.86639 2.35845C 10.2447 2.07006 10.6575 1.8103 11.006 1.48443C 11.4402 1.81811 10.8466 2.64163 10.6977 2.94356C 10.6977 2.94356 11.6183 3.0357 11.8367 3.0357C 13.2642 3.02789 14.7596 2.18875 14.0031 0.577608C 14.5694 0.695255 14.6363 1.23716 14.8093 1.70254C 15.1735 1.45736 15.8046 0.931589 16.2932 1.00655C 15.8966 2.26839 14.235 3.40113 12.9424 3.65881C 14.2476 4.3673 16.6683 4.89463 17.9412 3.37042C 18.8352 5.094 17.59 5.8129 16.3695 6.71556C 21.0182 8.82852 20.3327 11.1992 23.3815 13.0649C 22.9875 13.2491 21.2199 12.8785 21.0626 12.8556C 21.7278 13.7104 22.0376 14.0716 22.2304 14.4886C 22.4148 14.879 22.4964 15.3173 22.6787 16.2674C 22.8245 17.0175 23.0878 17.7645 24.0017 18.2601C 23.6438 18.9082 22.8459 18.4032 22.5167 18.3168ZM 22.3354 13.6042C 23.1929 13.7369 23.8674 13.7369 24.1877 12.8816C 21.0365 11.3866 21.0626 8.24809 17.4396 6.60468C 19.4308 5.13201 18.8942 3.75252 17.9699 2.35845C 16.9897 4.08359 15.303 4.31993 14.2685 3.75772C 15.7273 3.22831 16.277 1.43601 17.16 0.912326C 16.6077 0.322529 15.9008 0.302226 15.0805 0.86131C 14.6342 -0.330257 13.1712 0.0617309 12.9513 0.0617309C 13.3342 0.443303 13.6974 0.945124 13.6289 1.48078C 13.4774 2.67443 11.5306 2.48182 11.5306 2.48182C 11.9224 1.67547 11.7484 1.19447 10.8748 0.780103C 10.6068 1.42196 8.51519 2.28661 8.38091 3.55158C 8.17138 5.53232 10.5247 6.73482 12.5923 7.84882C 14.8678 9.07579 14.0323 10.41 13.2083 10.4537C 12.7511 11.8618 14.5036 12.1148 15.4985 11.5432C 15.4938 11.7307 15.3684 12.8608 13.8411 12.9529C 13.9696 13.3991 14.2209 13.5438 14.6222 13.6921C 14.3228 13.9139 13.4529 13.9472 12.9904 13.9472C 13.0463 14.5594 13.7125 15.0498 14.548 15.1325C 14.4811 15.3173 14.1107 15.6172 13.7758 15.7088C 14.6781 16.6047 17.1025 16.0149 17.5963 15.499C 17.822 15.2632 18.0995 15.5989 17.8309 15.9561C 17.5514 16.3215 16.3324 16.7317 15.3448 16.4292C 15.2315 16.9805 15.4227 17.1893 15.5768 17.3371C 15.5768 17.3371 14.6107 17.4334 14.361 17.5682C 14.4545 17.9826 14.9242 18.2221 15.0878 18.3845C 14.9242 18.5256 14.7288 18.8556 14.6588 19.1075C 15.1014 19.3204 16.3089 19.6536 16.9552 18.9181C 17.2191 18.626 17.5054 18.8124 17.2379 19.1835C 16.2838 20.4896 14.0062 20.5105 13.2015 20.1029C 13.1791 21.1247 13.6221 21.3361 14.1577 21.7603C 12.5123 23.6494 13.5986 25.3272 12.434 26.979C 14.6269 26.979 16.0001 25.7874 16.3851 24.6739C 16.4275 25.0675 16.638 25.4142 17.2232 25.5323C 17.1783 25.1164 17.3084 24.6942 17.5205 24.2679C 17.9657 24.6255 18.7751 24.7072 19.8321 24.7515C 18.6319 22.7202 22.0308 20.638 20.6838 17.8691C 20.4837 17.4527 21.0689 17.1893 21.1253 17.6125C 21.4404 19.9847 22.8402 20.5209 24.02 19.7811C 23.6642 19.3944 23.5184 19.4022 23.2921 19.0503C 24.0858 19.2601 24.4908 18.6869 24.6951 17.968C 22.5382 17.2132 23.6986 15.3678 22.3354 13.6042ZM 0.396522 22.2429L 1.04443 21.753C 1.15938 21.6656 1.23305 21.6104 1.36577 21.6276L 2.27858 21.7468C 2.32822 21.9654 2.474 22.1789 2.474 22.1789L 1.50319 21.9748C 1.36577 21.9587 1.32553 21.9654 1.19595 22.0576L 0.736671 22.4037C 0.645756 22.4756 0.643143 22.587 0.694348 22.6979L 0.769067 22.8577L 0.447204 23.0997L 0.324938 22.8691C 0.20006 22.6229 0.1917 22.3991 0.396522 22.2429ZM 1.87991 20.5334L 1.71062 20.6224C 1.59462 20.6895 1.53506 20.7197 1.43421 20.5932L 1.36054 20.5016C 1.32501 20.4584 1.31247 20.3496 1.38771 20.2684L 2.11034 19.4277L 1.44362 18.8832L 2.29269 19.195L 2.60306 18.8093C 2.69397 18.8873 2.6621 19.1101 2.6621 19.1101C 3.00591 19.1101 4.00441 19.6042 4.04255 20.8426C 4.04255 20.8426 4.26776 21.1752 4.55566 21.1929L 6.0265 21.2809C 6.26947 21.2809 6.87923 20.8186 7.66299 21.2564C 7.86102 21.1367 8.07315 21.0419 8.29104 21.018C 8.98074 20.967 9.48914 21.4464 9.86795 21.9285C 10.1444 22.2778 10.5232 22.8129 10.5232 22.8129C 10.3607 23.0055 10.1992 23.0706 10.0649 23.0216C 9.86012 22.9186 9.7948 22.7541 9.73054 22.5276C 9.6276 22.1679 9.22998 21.8603 9.22998 21.8603C 9.36426 22.1023 9.393 22.3761 9.45726 22.6271C 8.88303 22.0612 8.77383 21.3678 8.37255 21.2736C 8.19385 21.2293 7.98851 21.3043 7.79518 21.5271C 7.99843 21.9946 7.98851 22.5386 8.19542 22.9009C 8.35322 23.1731 8.38561 23.1971 8.45719 23.2569C 8.627 23.3782 8.52982 23.5953 8.50422 23.7546L 8.28633 25.1153L 7.92006 25.1153L 8.16145 23.7832C 8.23513 23.3782 7.09189 23.3782 6.50668 22.6047C 6.00769 23.1846 4.60895 23.0393 4.00441 22.9488C 3.7604 22.9134 3.52266 22.9279 3.38786 23.1679C 3.31 23.3033 3.17729 23.2627 3.09734 23.2429L 1.99434 23.0055C 1.80049 22.9607 1.71689 22.9993 1.63068 23.1763L 1.40913 23.6317C 1.36054 23.7385 1.36263 23.8155 1.45041 23.9009L 1.55596 24.0128C 1.49326 24.2325 1.29366 24.398 1.29366 24.398L 1.05226 24.1284C 0.935746 23.992 0.929998 23.7931 1.023 23.6L 1.37987 22.8587C 1.42167 22.7775 1.49691 22.6874 1.64844 22.6874L 3.01374 22.6651L 2.59522 21.9873C 2.28328 21.4777 2.80004 20.5714 2.72323 20.1429C 2.68457 20.7176 1.98807 20.4548 1.87991 20.5334ZM 7.56058 23.6687L 6.97171 25.1153L 6.60544 25.1153L 7.19378 23.7145C 7.25491 23.5344 7.13944 23.449 6.99261 23.2507C 7.2105 23.3741 7.36725 23.4532 7.63268 23.5557C 7.60865 23.5953 7.58148 23.6187 7.56058 23.6687ZM 0.377189 23.5047L 1.03972 22.9451L 0.93888 22.7431C 0.866774 22.601 0.90544 22.5901 0.98277 22.5344L 1.33076 22.2746C 1.41227 22.208 1.49691 22.2158 1.59776 22.2398L 2.64747 22.486L 1.53976 22.486C 1.28217 22.5026 1.20745 22.601 1.11653 22.789L 1.03972 22.9451L 0.754437 23.5282C 0.657251 23.7291 0.607613 23.9961 0.86155 24.2996L 1.06324 24.537L 0.655161 25.3616L 0.999492 25.3616L 1.28112 24.7884C 1.30359 24.7681 1.72159 24.3902 1.80885 23.9961C 1.68972 23.8998 1.60351 23.8311 1.66986 23.6937L 1.7984 23.4214C 1.83916 23.3303 1.85431 23.2929 1.97605 23.3178L 3.07958 23.5557C 3.217 23.5922 3.41869 23.6526 3.56551 23.4324C 3.71756 23.2018 3.73741 23.2273 4.08749 23.2627L 4.65023 23.3215C 5.41935 23.3944 6.18691 23.2018 6.48631 22.9659C 6.59081 23.2044 6.79877 23.3866 6.89647 23.5714C 6.932 23.6396 6.87296 23.7369 6.82489 23.8577L 6.19318 25.3616L 7.16713 25.3616L 7.7189 23.9873C 7.7701 23.8577 7.84377 23.7525 7.90229 23.7015L 7.58565 25.3616L 8.52982 25.3616L 8.78167 23.7166C 8.83653 23.3532 8.80413 23.234 8.62857 23.0852C 8.23356 22.7541 8.24297 22.0576 8.11547 21.6343C 8.18288 21.5963 8.25969 21.5766 8.35321 21.5875C 8.5596 21.6083 8.71374 22.1315 8.95671 22.4678C 9.4395 23.1455 10.1026 23.8936 10.8591 22.84C 10.7855 22.7202 10.7045 22.6094 10.6141 22.5058L 10.403 22.2601C 10.2802 22.1232 9.69344 21.4558 9.45047 21.2148C 8.89505 20.6593 8.04337 20.7431 7.70427 21.0128C 6.93514 20.6125 6.12421 21.0336 5.93245 21.018L 4.60843 20.9384C 4.54886 20.9347 4.45638 20.9139 4.39263 20.8119L 4.63769 20.7312C 4.40726 19.7765 3.82833 18.9764 2.81728 18.84C 2.81728 18.84 2.75824 18.538 2.60462 18.4797L 2.30262 18.8348C 2.21745 18.8462 2.12392 18.8717 2.04816 18.905L 0.757572 18.4272L 1.72682 19.4022C 1.72682 19.4022 1.22365 20.1112 1.081 20.2559C 0.986429 20.3881 0.995833 20.4922 1.10138 20.6198L 1.29 20.866C 1.38771 20.992 1.49326 20.9883 1.64844 20.9082L 1.8611 20.7988C 1.95202 20.7213 2.26447 20.8738 2.39667 20.7525C 2.31098 21.03 2.27022 21.2965 2.24932 21.5094L 1.37987 21.4048C 1.18916 21.3803 1.10347 21.4048 0.986429 21.4954L 0.244995 22.0643C 0.00255318 22.2502 -0.07321 22.5703 0.0777936 22.8811L 0.377189 23.5047ZM 3.20812 4.78948C 3.56237 5.0331 4.18833 5.29338 4.18833 5.29338L 4.18833 4.87797L 2.80997 4.3522C 2.80997 4.3522 2.80997 4.52034 3.20812 4.78948ZM 4.18833 4.28817L 4.18833 3.87693L 2.62396 3.31941C 2.62396 3.31941 2.80997 3.51722 3.20812 3.78895C 3.56237 4.03154 4.18833 4.28817 4.18833 4.28817ZM 4.18833 3.35012L 4.18833 2.93367L 2.47557 2.30587C 2.47557 2.30587 2.80997 2.57657 3.20812 2.84622C 3.56237 3.08984 4.18833 3.35012 4.18833 3.35012Z" transform="translate(198.57 68.9884) scale(11.907)" fill="#D0D5D6"/>
</g>
<g id="Vector_4">
<path fill-rule="evenodd" clip-rule="evenodd" d="M 10.1084 6.69807L 11.8608 6.69807C 11.7872 6.4456 11.5144 6.19 11.0039 6.19C 10.5196 6.19 10.2301 6.46798 10.1084 6.69807ZM 8.27594 -5.18042e-07L 6.56631 0.627799L 6.56631 1.04425C 6.56631 1.04425 7.19331 0.78449 7.54496 0.540347C 7.94363 0.270695 8.27594 -5.18042e-07 8.27594 -5.18042e-07ZM 7.94363 2.04633L 6.56631 2.5721L 6.56631 2.98751C 6.56631 2.98751 7.19175 2.72723 7.54548 2.4836C 7.94363 2.21447 7.94363 2.04633 7.94363 2.04633ZM 8.12912 1.01353L 6.56631 1.57106L 6.56631 1.9823C 6.56631 1.9823 7.19332 1.72566 7.54548 1.48308C 7.94363 1.21135 8.12912 1.01353 8.12912 1.01353ZM 0.854295 6.19C 0.344331 6.19 0.0710607 6.4456 5.73604e-08 6.69807L 1.75196 6.69807C 1.62812 6.46798 1.34075 6.19 0.854295 6.19Z" transform="translate(185.366 96.4419) scale(11.907)" fill="#D0D5D6"/>
</g>
<g id="Vector_5">
<path fill-rule="evenodd" clip-rule="evenodd" d="M 8.01156 2.77147L 5.19839 1.66424C 5.43666 1.10047 6.54018 0.61999 8.01156 0.61999C 9.48293 0.61999 10.5849 1.10047 10.8232 1.66424L 8.01156 2.77147ZM 10.1063 6.23165L 8.20854 7.22488L 8.20854 3.21135L 10.7855 2.33889L 10.1063 6.23165ZM 12.3233 7.90525C 11.6116 8.02863 11.0018 8.89589 10.5002 9.67517L 10.4438 9.76575L 9.90981 9.76575L 9.90929 9.85789C 9.85234 10.4602 9.27915 11.279 8.01051 11.279C 7.42478 11.279 6.98379 11.1005 6.68074 10.8568C 6.41687 10.6439 6.25281 10.3805 6.17234 10.1301C 6.14204 10.037 6.12323 9.9469 6.11487 9.85789L 6.11069 9.76575L 5.57982 9.76575L 5.52235 9.67517C 5.01865 8.89589 4.40837 8.02863 3.70037 7.90525L 5.63521 6.78709L 8.01156 8.07392L 10.3858 6.78709L 12.3233 7.90525ZM 14.9326 10.8568C 14.7299 11.3842 14.5658 11.9542 14.5658 12.5247L 14.5658 18.657L 13.85 18.657C 13.5255 18.3436 13.2507 17.2967 13.2507 17.2967C 13.0731 17.6752 13.2763 18.4357 13.4675 18.657L 12.5453 18.657C 12.3175 18.3498 12.1195 17.2603 12.1195 17.2603C 11.8441 17.5737 12.0186 18.4217 12.1895 18.657L 11.5776 18.657C 11.5379 18.2218 11.6628 17.747 11.6628 17.747C 11.3441 17.6882 11.0024 17.5195 11.0039 17.164C 11.1654 17.316 11.2307 17.3139 11.4559 17.3097L 11.7166 17.1052C 10.8519 17.1322 10.8132 16.189 11.4961 15.7465C 10.8132 15.7684 10.3012 15.3639 10.5514 14.6387C 10.0634 14.3878 9.89205 13.5674 10.2521 13.2072C 9.99132 12.925 9.94795 12.3738 10.1146 11.9958C 9.7703 11.9958 9.38208 11.8579 9.16577 11.6236C 9.14905 11.6314 9.12971 11.6372 9.11143 11.6429C 9.54249 11.4675 9.90668 11.1957 10.1543 10.8568L 14.9326 10.8568ZM 14.5674 23.038C 14.5674 24.3175 13.9744 25.2879 12.9884 25.8277L 13.3427 25.1109L 13.0004 25.1109L 12.5469 26.0281C 12.0777 26.2056 11.5437 26.3024 10.9538 26.3024C 9.15323 26.3024 8.67723 26.3758 8.01312 27.037C 7.34432 26.3758 6.86936 26.3024 5.07247 26.3024C 4.4857 26.3024 3.95483 26.2067 3.4851 26.0328L 3.49869 26.0328L 3.9517 25.1109L 3.60946 25.1109L 3.21131 25.9167C 3.11674 25.8719 3.0253 25.8241 2.93491 25.7715L 3.26356 25.1109L 2.92446 25.1109L 2.68045 25.6033C 1.90923 25.037 1.4557 24.1546 1.4557 23.038L 1.4557 19.0172L 14.5674 19.0172L 14.5674 23.038ZM 5.642 15.695L 6.19533 15.7626C 6.23661 16.0651 6.15719 16.5768 5.95968 16.8615L 5.42464 16.7069C 5.56676 16.368 5.60333 16.0552 5.642 15.695ZM 4.84675 15.291C 4.84675 15.291 5.35358 15.2665 5.49674 15.3207C 5.60333 15.3644 5.53123 15.5409 5.39538 15.5221C 5.25117 15.5044 4.84675 15.291 4.84675 15.291ZM 4.81226 13.2837L 4.35768 14.9407L 4.51287 12.2696L 5.21929 11.6679L 5.57825 12.4534L 4.67067 15.0468L 4.90945 13.3009C 4.93296 13.1786 4.83264 13.1655 4.81226 13.2837ZM 4.46271 16.0442C 4.2234 16.1411 3.97991 16.0109 4.05515 15.8563C 4.1654 15.9578 4.47473 15.9084 4.47473 15.9084L 4.46271 16.0442ZM 4.0144 16.2655C 4.12413 16.3722 4.458 16.3321 4.458 16.3321L 4.47107 16.3977C 4.32529 16.5908 3.92139 16.5044 4.0144 16.2655ZM 3.49085 15.1999C 3.36336 15.115 3.42083 14.9302 3.56243 14.9302C 3.71657 14.9339 3.92296 15.1088 4.12778 15.1963C 4.12778 15.1963 3.59326 15.267 3.49085 15.1999ZM 3.99768 16.6668C 3.99768 16.6668 4.1513 16.7324 4.34462 16.747C 4.32215 16.8522 4.24117 16.9552 4.10949 16.9256C 4.00081 16.9016 3.9517 16.7663 3.99768 16.6668ZM 4.35716 15.6668C 4.10009 15.7496 3.98671 15.5659 3.99925 15.4086C 4.50137 15.2244 4.72501 15.3431 4.87287 15.4373C 5.00873 15.5221 5.12002 15.7626 5.30289 15.9146C 5.27207 16.1192 5.20832 16.417 5.13465 16.6163C 4.6205 16.4841 4.59386 16.0333 4.78666 15.7574C 4.67798 15.632 4.56407 15.6002 4.35716 15.6668ZM 6.58669 15.8136L 7.13741 15.8787C 7.19122 16.1817 7.08881 16.8204 6.88086 17.1265L 6.31969 16.9651C 6.54384 16.6715 6.6264 16.1499 6.58669 15.8136ZM 7.53346 15.9292L 7.98804 15.9865C 8.05963 16.3613 8.01312 17.0115 7.77225 17.3826L 7.24295 17.2285C 7.47547 16.9157 7.5831 16.2702 7.53346 15.9292ZM 8.34753 16.0297L 8.35745 16.0297C 8.47554 16.0474 8.59989 16.0281 8.71328 15.9807C 8.95833 16.3321 9.15009 17.1265 8.85592 17.6242C 8.68924 17.6252 8.52518 17.5971 8.37261 17.5544L 8.25034 17.518C 8.49905 17.1322 8.46143 16.455 8.34753 16.0297ZM 9.04141 15.7626L 9.36275 15.4487C 9.69245 15.7335 10.1225 16.3722 9.98767 16.9776L 9.63654 17.2967C 9.56548 17.367 9.4892 17.4196 9.41396 17.4659C 9.63184 16.924 9.35282 16.0932 9.04141 15.7626ZM 10.9318 15.9427C 10.8613 16.0359 10.8033 16.1463 10.7667 16.2644L 10.3754 16.6236C 10.4537 16.0526 10.0697 15.3779 9.71805 15.1031L 10.1355 14.6965L 10.217 14.7793C 10.0781 15.1437 10.3498 15.8563 10.9318 15.9427ZM 9.89205 13.1832C 9.68618 13.5747 9.70708 14.026 9.94848 14.4352L 9.78807 14.5924C 9.08635 14.5065 8.80942 13.4633 8.80942 13.4633C 8.79636 13.5544 8.78695 13.6497 8.78852 13.7408C 8.3794 13.5898 8.11919 13.228 8.14061 12.7309C 8.2958 12.8178 8.47031 12.8782 8.6558 12.911L 8.70283 12.6049C 8.21272 12.52 7.92639 12.2145 7.81614 11.8542C 7.79419 11.8511 7.77225 11.8475 7.75083 11.8433C 7.83704 11.8511 7.92378 11.8579 8.01312 11.8579C 8.30311 11.8579 8.57952 11.8131 8.83868 11.7376C 9.04193 12.0265 9.40403 12.2332 9.76717 12.2738C 9.70969 12.5117 9.73739 12.8121 9.89205 13.1832ZM 5.86772 10.8568C 6.2063 11.3186 6.75598 11.6601 7.40597 11.7949C 7.46188 12.0385 7.59303 12.304 7.85219 12.52C 7.74508 13.2369 8.0544 13.9063 8.82875 14.0849C 8.90922 14.4492 9.13755 14.7257 9.51846 14.8574L 8.98028 15.4768C 8.77546 15.7147 8.50689 15.7913 8.28378 15.7626L 5.87869 15.4904C 5.98215 15.2238 5.70574 14.9151 4.94498 15.0474L 5.89019 12.4154L 5.31282 11.1926L 4.22027 12.1218L 4.1398 14.8844L 3.67634 14.6564C 3.06396 14.3951 2.88631 15.4935 3.46681 15.4982L 3.69672 15.5008C 3.68261 15.6153 3.71657 15.7382 3.80592 15.7767C 3.69672 15.823 3.66484 16.0281 3.80174 16.0999C 3.66171 16.1655 3.64499 16.3738 3.75628 16.4649C 3.63454 16.6668 3.61625 17.1083 4.03791 17.2186C 4.3812 17.3097 4.59804 16.9386 4.67067 16.7241L 8.41127 17.8782C 8.94214 18.0297 9.31834 17.9459 9.75829 17.5606L 10.7348 16.71C 10.6131 17.266 10.8132 17.7678 11.238 17.9334C 11.238 17.9334 11.1764 18.431 11.1967 18.657L 1.4557 18.657L 1.4557 12.5247C 1.4557 11.9542 1.29059 11.3842 1.09256 10.8568L 5.86772 10.8568ZM 5.23601 2.33889L 7.81039 3.21135L 7.81039 7.22488L 5.91475 6.23165L 5.23601 2.33889ZM 11.4909 1.86153C 11.4909 0.87923 9.83562 -4.61417e-07 8.01051 -4.61417e-07C 6.18384 -4.61417e-07 4.52854 0.87923 4.52854 1.86153L 4.56721 2.09995L 5.29349 6.26913L 1.84287 8.27329C 1.47503 8.48829 1.01523 9.08068 0.956705 9.67517L 1.58632 9.67517C 1.6903 9.08121 2.16264 8.42113 3.04463 8.4607C 3.84145 8.5039 4.3117 8.98698 4.78091 9.67517L 4.90161 9.85789L 5.0756 10.1301L -1.11321e-07 10.1301C 0.3715 10.8751 0.727848 11.6663 0.727848 12.5247L 0.727848 23.038C 0.727848 25.7428 2.81421 27.0302 5.07247 27.0302C 6.81554 27.0302 7.05067 26.9521 8.01312 27.9099C 8.97244 26.9521 9.206 27.0302 10.9538 27.0302C 13.2115 27.0302 15.2974 25.7428 15.2974 23.038L 15.2974 12.5247C 15.2974 11.6663 15.65 10.8751 16.0226 10.1301L 10.9444 10.1301L 11.1205 9.85789L 11.2417 9.67517C 11.7072 8.98698 12.1801 8.5039 12.9769 8.4607C 13.8547 8.42113 14.3297 9.08121 14.4331 9.67517L 15.0622 9.67517C 15.0058 9.08068 14.5434 8.48829 14.1776 8.27329L 10.727 6.26913L 11.4549 2.09995L 11.4909 1.86153Z" transform="translate(160.599 60.9884) scale(11.907)" fill="#D0D5D6"/>
</g>
<g id="Vector_6">
<path fill-rule="evenodd" clip-rule="evenodd" d="M 2.56016 3.93129L 2.56434 3.62363C 1.61861 3.60177 1.4002 2.48777 1.4002 2.48777C 1.12432 3.30713 1.84694 3.91723 2.56016 3.93129ZM 1.36415 5.81468L 1.26801 5.52317C 0.461786 5.72879 0.0458739 4.45445 0.0458739 4.45445C -0.214333 5.38105 0.687508 6.03644 1.36415 5.81468ZM 1.9248 4.633C 0.960778 4.78553 0.564195 3.66736 0.564195 3.66736C 0.457604 4.2759 0.853665 4.89277 1.4906 4.95888C 1.34743 5.75274 2.08834 6.16033 2.72945 5.87715L 2.63697 5.60125C 2.07998 5.78501 1.55748 5.23685 1.9248 4.633ZM 1.34743 1.44196L 1.35527 1.13535C 0.0824483 0.872462 0.190083 -9.79655e-07 0.190083 -9.79655e-07C -0.0852772 0.821967 0.636301 1.42895 1.34743 1.44196Z" transform="translate(300.017 190.651) scale(11.907)" fill="#D0D5D6"/>
</g>
<g id="Vector_7">
<path fill-rule="evenodd" clip-rule="evenodd" d="M 0.457179 -4.40845e-07L 7.49183e-07 0.922112L 0.343689 0.922112L 0.799258 -4.40845e-07L 0.457179 -4.40845e-07Z" transform="translate(214.564 359.988) scale(11.907)" fill="#D0D5D6"/>
</g>
<g id="Vector_8">
<path fill-rule="evenodd" clip-rule="evenodd" d="M 0.455167 -4.40845e-07L -6.14085e-08 0.922112L 0.345702 0.922112L 0.797648 -4.40845e-07L 0.455167 -4.40845e-07Z" transform="translate(222.773 359.988) scale(11.907)" fill="#D0D5D6"/>
</g>
<g id="Vector_9">
<path fill-rule="evenodd" clip-rule="evenodd" d="M 0.453557 -4.40845e-07L -2.45634e-08 0.922112L 0.340872 0.922112L 0.796442 -4.40845e-07L 0.453557 -4.40845e-07Z" transform="translate(255.616 359.988) scale(11.907)" fill="#D0D5D6"/>
</g>
<g id="Vector_10">
<path fill-rule="evenodd" clip-rule="evenodd" d="M 0.458387 -4.40845e-07L 2.70197e-07 0.922112L 0.344494 0.922112L 0.798051 -4.40845e-07L 0.458387 -4.40845e-07Z" transform="translate(263.791 359.988) scale(11.907)" fill="#D0D5D6"/>
</g>
<g id="Vector_11">
<path fill-rule="evenodd" clip-rule="evenodd" d="M 0.456374 -4.40845e-07L 3.56169e-07 0.922112L 0.34369 0.922112L 0.798857 -4.40845e-07L 0.456374 -4.40845e-07Z" transform="translate(247.384 359.988) scale(11.907)" fill="#D0D5D6"/>
</g>
<g id="Vector_12">
<path fill-rule="evenodd" clip-rule="evenodd" d="M -9.82535e-07 0.922112L 0.342081 0.922112L 0.797649 -4.40845e-07L 0.454363 -4.40845e-07L -9.82535e-07 0.922112Z" transform="translate(300.756 359.988) scale(11.907)" fill="#D0D5D6"/>
</g>
<g id="Vector_13">
<path fill-rule="evenodd" clip-rule="evenodd" d="M 0.45396 -4.40845e-07L -4.42141e-07 0.922112L 0.343287 0.922112L 0.79765 -4.40845e-07L 0.45396 -4.40845e-07Z" transform="translate(231 359.988) scale(11.907)" fill="#D0D5D6"/>
</g>
<g id="Vector_14">
<path fill-rule="evenodd" clip-rule="evenodd" d="M 0.454765 -4.40845e-07L -1.4738e-07 0.922112L 0.3453 0.922112L 0.799259 -4.40845e-07L 0.454765 -4.40845e-07Z" transform="translate(239.174 359.988) scale(11.907)" fill="#D0D5D6"/>
</g>
<g id="Vector_15">
<path fill-rule="evenodd" clip-rule="evenodd" d="M 1.47242 23.5518C 1.40972 23.5518 1.35538 23.6137 1.35538 23.6929C 1.35538 23.7683 1.40972 23.8303 1.47242 23.8303C 1.53825 23.8303 1.59259 23.7683 1.59259 23.6929C 1.59259 23.6137 1.53825 23.5518 1.47242 23.5518ZM 1.33343 2.26861L 1.87422 1.12285L 2.88109 1.65487L 3.98984 0.563768L 5.10069 1.65487L 6.10494 1.12285L 6.6426 2.26861L 7.30931 2.16554C 7.1395 2.48568 7.00992 2.76522 6.89026 3.15721C 6.16085 2.73243 5.07561 2.40552 3.98984 2.40552C 2.90199 2.40552 1.81988 2.73243 1.0889 3.15721C 0.967156 2.76522 0.840709 2.48568 0.66776 2.16554L 1.33343 2.26861ZM 3.99089 2.77043C 5.40322 2.77043 6.53496 3.23685 7.15988 3.73868C 7.15988 3.73868 7.34693 2.62051 7.97916 1.63925L 6.84167 1.76679L 6.24601 0.504946L 5.10069 1.09787L 3.99089 7.28275e-07L 2.88109 1.09787L 1.73315 0.504946L 1.13697 1.76679L -5.70283e-07 1.63925C 0.634319 2.62051 0.818765 3.73868 0.818765 3.73868C 1.44316 3.23685 2.57595 2.77043 3.99089 2.77043Z" transform="translate(208.494 20.6047) scale(11.907)" fill="#D0D5D6"/>
</g>
<g id="Vector_16">
<path fill-rule="evenodd" clip-rule="evenodd" d="M 4.63991 0.877667C 4.80607 0.891722 4.95185 0.76783 4.96596 0.603333C 4.98215 0.440396 4.74076 -3.00362e-07 4.74076 -3.00362e-07C 4.74076 -3.00362e-07 4.37918 0.387819 4.36769 0.553878C 4.35254 0.716814 4.47637 0.861529 4.63991 0.877667ZM 6.50473 1.55232C 6.65312 1.63092 6.83234 1.57158 6.91176 1.4253C 6.99066 1.28215 6.93945 0.784486 6.93945 0.784486C 6.93945 0.784486 6.45771 0.99948 6.37933 1.14628C 6.30409 1.29152 6.35895 1.47267 6.50473 1.55232ZM 2.31321 0.877667C 2.48093 0.861529 2.60319 0.716814 2.58804 0.553878C 2.57341 0.387819 2.2155 -3.00362e-07 2.2155 -3.00362e-07C 2.2155 -3.00362e-07 1.97462 0.440396 1.9903 0.603333C 2.00284 0.76783 2.15071 0.891722 2.31321 0.877667ZM 0.449955 1.55232C 0.597301 1.47267 0.653209 1.29152 0.573789 1.14628C 0.496458 0.99948 0.015231 0.784486 0.015231 0.784486C 0.015231 0.784486 -0.0344071 1.28215 0.045536 1.4253C 0.122344 1.57158 0.303132 1.63092 0.449955 1.55232ZM 21.0852 11.9896C 21.208 12.2618 21.4515 13.2082 20.8684 13.9297C 20.2058 12.608 19.2925 11.4768 18.5552 10.9885C 18.3933 10.885 18.6435 10.6991 19.0976 10.6398C 20.4744 10.3805 22.0863 10.9615 22.8528 11.164C 22.496 11.4315 22.2044 11.5497 21.8413 11.5955C 22.3988 12.0609 22.8037 12.455 23.0927 12.8938C 22.5508 13.0281 22.2483 12.6871 21.0852 11.9896ZM 22.8194 11.7652C 23.217 11.6247 23.5243 11.2457 23.6768 10.898C 22.6663 10.7517 19.9801 9.62884 17.7731 10.544C 18.5997 9.76106 19.3416 9.66059 19.4111 8.53566C 19.7554 8.78136 20.3349 8.91984 20.6604 8.33368C 20.4336 7.66268 19.8573 8.20614 19.7779 8.02135C 19.6645 7.76627 20.5031 8.10203 20.6829 7.23113C 20.0308 7.00781 19.8359 7.53826 19.7199 7.41541C 19.6123 7.29776 20.1343 7.07496 19.7497 6.37324C 19.0704 6.76835 19.4247 7.21447 19.2815 7.26288C 19.107 7.33264 19.2439 6.78761 18.4946 6.81312C 18.421 7.61478 19.2 7.64133 19.0704 7.76887C 18.9179 7.92504 18.7146 7.30713 18.1477 7.61999C 18.1581 8.26809 18.6833 8.62311 19.2282 8.47059C 19.1404 9.70224 18.0071 9.47267 17.1622 10.8594C 18.9497 11.7725 19.758 13.366 20.8584 14.4654C 21.2221 14.2103 21.8439 13.0666 21.8439 13.0666C 23.0342 13.9859 23.8722 13.0708 23.8722 13.0708C 23.4621 12.6528 23.4469 12.3352 22.8194 11.7652ZM 3.14608 33.6101L 2.37225 33.5809L 2.2829 33.8907L 2.38008 33.8948C 2.41196 33.8948 2.41196 33.835 2.43965 33.8022C 2.45585 33.7902 2.59588 33.7673 2.70717 33.7788L 3.03165 33.8032C 2.83989 34.1994 2.34037 34.5726 2.34664 34.835C 2.35448 34.975 2.4966 35.0042 2.58073 34.999C 2.73696 34.9943 2.78712 34.8839 2.82787 34.7158C 2.9214 34.3254 3.11159 34.0271 3.24849 33.5809L 3.15235 33.5846L 3.14608 33.6101ZM 3.67433 34.0703L 3.68739 33.8329L 4.36038 33.8329L 4.32537 33.5674C 4.14092 33.5731 3.87079 33.6335 3.62155 33.6351L 3.5761 34.1536C 3.88803 34.14 4.09129 34.2754 4.09129 34.6012C 4.09129 34.722 4.01134 34.9495 3.87079 34.9662C 3.83839 34.9708 3.79555 34.9594 3.77517 34.9433C 3.70724 34.8928 3.79607 34.8381 3.79607 34.7538C 3.79607 34.6471 3.6853 34.6085 3.61215 34.6216C 3.49615 34.6283 3.45383 34.7028 3.45383 34.7949C 3.45383 34.9865 3.73807 35.039 3.86138 35.039C 4.13674 35.039 4.45652 34.886 4.45652 34.5742C 4.45652 34.1645 3.99671 34.0786 3.67433 34.0703ZM 5.28782 34.2821C 5.04904 34.2821 5.01455 33.9099 5.01455 33.7298C 5.01455 33.6783 5.0621 33.607 5.11435 33.607C 5.33276 33.607 5.39337 34.113 5.41061 34.2556C 5.37508 34.2691 5.33276 34.2821 5.28782 34.2821ZM 5.13577 33.5362C 4.89594 33.5362 4.69739 33.7153 4.69739 33.9599C 4.69739 34.3462 5.1133 34.4732 5.4221 34.3264C 5.46025 34.6262 5.39911 34.8418 5.28469 34.849C 5.18698 34.849 5.20108 34.7762 5.18698 34.7153C 5.16137 34.5976 5.06994 34.5664 4.9738 34.5976C 4.87348 34.6262 4.8578 34.7158 4.87504 34.7814C 4.91998 34.9339 5.1086 34.9375 5.19847 34.9261C 5.5961 34.8808 5.76121 34.5882 5.76121 34.2629C 5.76121 33.8855 5.54489 33.5362 5.13577 33.5362ZM 1.82728 33.4571C 1.79174 33.5003 1.62611 33.7074 1.26872 33.9719L 1.29798 34.0255C 1.33769 34.0036 1.40039 33.9745 1.50855 33.9099L 1.29798 34.6419C 1.28701 34.6819 1.23841 34.6866 1.21438 34.6819L 1.08845 34.6632L 1.06546 34.7501L 1.7489 34.8719L 1.76928 34.7871L 1.65171 34.76C 1.61723 34.7501 1.59476 34.7262 1.60155 34.6866L 1.91244 33.4701L 1.82728 33.4571Z" transform="translate(214.587 16.2442) scale(11.907)" fill="#D0D5D6"/>
</g>
<g id="Vector_17">
<path fill-rule="evenodd" clip-rule="evenodd" d="M 23.9208 27.949L 23.3147 25.9833C 24.6052 25.7184 25.505 25.4446 26.191 25.1801L 26.191 26.4066L 27.2559 26.8339C 26.3562 27.2426 25.2401 27.6481 23.9208 27.949ZM 20.3959 29.0973C 19.19 29.0973 18.0154 28.9177 17.0091 28.672L 17.6491 26.6132C 18.0739 26.7106 19.1341 26.8402 20.3959 26.8402C 21.6578 26.8402 22.7143 26.7106 23.1417 26.6132L 23.7828 28.672C 22.7733 28.9177 21.5967 29.0973 20.3959 29.0973ZM 13.5308 26.8339L 14.5982 26.4066L 14.5982 25.1801C 15.2838 25.4446 16.184 25.7184 17.4746 25.9833L 16.8701 27.949C 15.5529 27.6481 14.4347 27.2426 13.5308 26.8339ZM 26.5207 26.1504L 26.5207 24.6481C 25.3545 25.1801 23.8711 25.6122 21.9629 25.784L 21.8757 26.3207C 22.0387 26.343 22.243 26.3634 22.5184 26.38C 21.8093 26.4779 20.897 26.5247 20.3959 26.5247C 19.8938 26.5247 18.9821 26.4779 18.273 26.38C 18.5463 26.3634 18.7506 26.343 18.9136 26.3207L 18.8274 25.784C 16.9182 25.6122 15.4322 25.1801 14.2685 24.6481L 14.2685 26.1504L 12.6869 26.798C 13.8579 27.4055 15.207 27.9006 16.764 28.3009L 16.5806 28.9302C 17.4741 29.19 18.8995 29.4555 20.3959 29.4555C 21.8908 29.4555 23.3173 29.19 24.2087 28.9302L 24.0242 28.3009C 25.5818 27.9006 26.932 27.4055 28.1034 26.798L 26.5207 26.1504ZM 0.778531 6.52056C 1.06748 6.08173 1.4698 5.68766 2.03202 5.22384C 1.6647 5.17647 1.3768 5.05831 1.01784 4.79074C 1.7854 4.58824 3.40098 4.00729 4.77569 4.26653C 5.22713 4.32587 5.48264 4.51171 5.317 4.6153C 4.57766 5.10359 3.66484 6.23477 3.00074 7.55544C 2.42076 6.83498 2.66425 5.8886 2.78704 5.61635C 1.62551 6.3139 1.32194 6.65487 0.778531 6.52056ZM 2.02784 6.69339C 2.02784 6.69339 2.64962 7.83706 3.01224 8.09214C 4.11368 6.99271 4.92303 5.39927 6.70948 4.48621C 5.86406 3.09943 4.72866 3.3316 4.64663 2.09839C 5.18742 2.24987 5.71463 1.89329 5.7256 1.24675C 5.15659 0.937015 4.95491 1.55336 4.80129 1.39563C 4.6738 1.26549 5.45233 1.24154 5.37761 0.440395C 4.6273 0.41749 4.76628 0.959396 4.58915 0.88964C 4.4486 0.839666 4.80129 0.394063 4.12047 -2.75988e-06C 3.73799 0.704838 4.26102 0.923999 4.15234 1.04217C 4.03739 1.16502 3.84041 0.634566 3.19041 0.857887C 3.36597 1.72879 4.2072 1.39303 4.0933 1.6481C 4.01388 1.8329 3.43912 1.29048 3.2134 1.96148C 3.53578 2.54659 4.11733 2.40812 4.45853 2.16346C 4.53011 3.29203 5.27154 3.38522 6.10024 4.17074C 3.89318 3.2556 1.20594 4.37793 0.192804 4.52524C 0.346943 4.87246 0.654175 5.25143 1.05076 5.38886C 0.426363 5.9646 0.411211 6.28059 2.55007e-08 6.69651C 2.55007e-08 6.69651 0.836529 7.6127 2.02784 6.69339ZM 19.4267 5.85633L 19.4267 6.51796C 19.6571 6.24362 20.0986 6.29672 20.0986 6.29672L 20.0986 7.24935C 20.0986 7.24935 20.084 7.71942 19.9168 7.92296L 20.8746 7.92296C 20.7079 7.71942 20.6922 7.24935 20.6922 7.24935L 20.6922 6.29672C 20.6922 6.29672 21.1337 6.24362 21.3631 6.51796L 21.3631 5.85633L 19.4267 5.85633Z" transform="translate(13.157 92.1279) scale(11.907)" fill="#D0D5D6"/>
</g>
<g id="Vector_18">
<path fill-rule="evenodd" clip-rule="evenodd" d="M 42.467 13.8782C 42.351 13.759 42.281 13.6512 42.1849 13.5008C 42.1353 13.4237 42.0809 13.3425 42.0193 13.2535C 42.1859 13.0604 42.3286 12.8376 42.4352 12.5934L 42.8631 11.6221L 41.8103 11.4711C 41.6321 11.4451 41.3458 11.3701 41.0119 11.2827C 40.3655 11.114 39.5379 10.8974 38.6329 10.8032C 38.9422 10.6679 39.2035 10.4253 39.3869 10.0963L 39.5598 9.78553C 39.5598 9.78553 39.5139 9.34982 39.3435 9.21291C 39.4093 9.07808 39.4579 8.9292 39.4924 8.76679L 39.6351 8.07132L 38.9621 7.84175C 38.8581 7.80531 38.7526 7.7798 38.6496 7.76314C 38.6115 7.6356 38.5551 7.50078 38.4782 7.35919L 38.0785 6.62936L 37.3575 7.04997C 37.1783 7.15512 37.0267 7.27434 36.9039 7.40864C 36.7963 7.38886 36.6814 7.37897 36.5601 7.37897C 36.5601 7.37897 36.15 7.33316 35.6943 7.49713L 35.1128 6.89693L 34.4252 6.16502C 33.7825 5.47892 32.911 5.27642 32.0217 5.61322C 31.6826 5.27642 31.1533 4.99636 30.3324 4.99636C 30.0544 4.99636 29.8104 5.02967 29.6657 5.04893C 29.6657 5.04893 28.535 5.25403 27.9002 5.85528L 27.1284 5.48985C 26.6117 6.29984 25.7276 6.55752 25.7276 6.55752C 25.668 6.32067 25.564 6.09891 25.4172 5.89745L 25.4679 5.61114C 25.4679 5.60281 25.6408 4.63508 26.1701 3.81572L 27.0897 2.38938L 25.7866 2.53514C 25.7898 2.40604 25.784 2.25456 25.7657 2.07392L 25.6492 0.963561L 24.6277 1.42269C 24.5143 1.47371 24.4198 1.52317 24.332 1.57054L 24.1303 1.14211L 23.6626 1.38418C 23.6156 1.26861 23.5555 1.13899 23.473 0.989069L 22.9338 0.00468402L 22.1683 0.826651C 22.0899 0.911503 22.0241 0.989067 21.9661 1.06403L 21.5016 0.603853L 21.0344 1.06611C 20.9764 0.991152 20.9122 0.913587 20.8338 0.829777L 20.0668 4.11455e-08L 19.526 0.989589C 19.4434 1.14055 19.3844 1.26861 19.3374 1.38418L 18.8708 1.14263L 18.668 1.57054C 18.5797 1.52317 18.4841 1.47371 18.3718 1.42165L 17.3466 0.96252L 17.2332 2.07652C 17.2144 2.25612 17.2097 2.40708 17.2129 2.53514L 15.9076 2.38938L 16.8304 3.81676C 17.3612 4.63509 17.5305 5.60125 17.5311 5.60854L 17.5797 5.89485C 17.4313 6.09891 17.3278 6.32067 17.2682 6.55752C 17.2682 6.55752 16.4338 6.20198 15.8752 5.48881L 15.0884 5.86257C 14.1902 5.25872 13.6337 5.02343 12.666 4.99636C 11.8446 4.97397 11.3153 5.27642 10.9773 5.6127C 10.0869 5.27694 9.21749 5.48048 8.5769 6.16502C 8.5769 6.16502 8.15524 6.62103 7.88824 6.89693C 7.62124 7.17387 7.22884 7.4024 7.22884 7.4024C 7.22884 7.4024 6.66976 7.27746 6.09553 7.40968C 5.97274 7.27486 5.82017 7.15512 5.63782 7.04841L 4.9152 6.62936L 4.51757 7.36335C 4.44181 7.50338 4.38642 7.63612 4.34932 7.76314C 4.24587 7.7798 4.14137 7.80531 4.03634 7.84175L 3.36806 8.07132L 3.50809 8.76262C 3.54153 8.9292 3.59013 9.07808 3.65701 9.21343C 3.61834 9.28683 3.58386 9.36595 3.55512 9.44924L 3.44226 9.78501L 3.61416 10.0958C 3.79599 10.4243 4.05672 10.6679 4.36657 10.8032C 3.46159 10.8974 2.63342 11.114 1.98552 11.2832C 1.6532 11.3706 1.3653 11.4456 1.18765 11.4722L 0.129581 11.6242L 0.370455 12.1666L 0.562737 12.5981C 0.67194 12.8397 0.814061 13.0625 0.981263 13.254C 0.919085 13.3425 0.65104 13.7585 0.533999 13.8777L -4.13697e-09 14.4201L 0.513099 14.9839C 0.576845 15.0531 1.1516 15.6533 2.08218 15.6543C 2.33612 15.6543 2.58901 15.6101 2.83929 15.5221C 3.08748 15.9089 3.3806 16.2998 3.65074 16.4924C 3.15645 17.0718 2.59319 17.5737 1.79219 17.9537L 1.12234 18.2717L 1.40919 19.0338C 1.5973 19.4935 1.96148 19.999 2.66738 20.1921C 2.51638 20.6413 2.44323 21.0692 2.37948 21.4482C 2.22848 22.3509 2.16473 22.7246 1.36687 23.0036L 0.650518 23.2535L 0.855339 23.9813C 1.0215 24.5742 1.26812 24.9667 1.53773 25.2244L 1.06173 25.7465C 1.06173 25.7465 2.1919 26.5898 3.29909 26.6929C 3.31477 26.695 4.25998 26.7548 4.68373 26.2166C 4.85354 26.8267 5.12211 27.3894 5.36507 27.9006C 5.86563 28.949 6.13211 29.5705 5.79666 30.1364L 5.0406 31.4149L 6.52869 31.3529C 7.17816 31.3259 7.78218 31.2874 8.30364 31.1583C 8.30364 31.1869 8.30207 31.2129 8.29893 31.2395L 8.17719 32.3373L 9.48084 32.0635C 9.61878 32.0224 9.74627 31.9693 9.86436 31.9058C 10.6721 32.8459 12.0427 33.5804 13.8913 33.5804L 13.9995 33.5804L 11.8744 34.4498L 13.421 35.2519C 14.4399 35.7803 15.5722 36.2233 16.8633 36.5981L 16.683 37.2145L 17.46 37.4409C 17.9083 37.5726 19.5281 38 21.501 38C 23.474 38 25.0922 37.5716 25.5416 37.4409L 26.3164 37.2145L 26.1367 36.5992C 27.4294 36.2233 28.5622 35.7803 29.581 35.2519L 31.1287 34.4498L 29.0021 33.5804L 29.1092 33.5804C 30.9563 33.5804 32.3273 32.8459 33.1346 31.9058C 33.2516 31.9677 33.3807 32.0224 33.5171 32.0635L 34.8202 32.3373L 34.7011 31.2405C 34.6985 31.2145 34.6969 31.1874 34.6969 31.1588C 35.2178 31.2874 35.8224 31.3259 36.4713 31.3529L 37.9573 31.4149L 37.2039 30.1374C 36.8679 29.5705 37.1349 28.9495 37.6344 27.9011C 37.8779 27.3909 38.1459 26.8272 38.3163 26.2166C 38.6031 26.4347 38.9104 26.5643 39.2181 26.6325C 39.2181 26.6325 39.4564 26.7038 39.6847 26.7095C 40.3431 26.7293 40.6702 26.5435 41.1226 26.2598L 41.943 25.7454L 41.4628 25.2228C 41.7319 24.9651 41.9785 24.5731 42.1452 23.9833L 42.3521 23.2535L 41.6336 23.0036C 40.8353 22.7246 40.7726 22.3509 40.6205 21.4487C 40.5557 21.0692 40.4852 20.6413 40.3326 20.1921C 41.038 19.9984 41.4017 19.4925 41.5898 19.0338L 41.8761 18.2707L 41.2068 17.9537C 40.4052 17.5737 39.8425 17.0718 39.3477 16.4924C 39.6189 16.2993 39.912 15.9079 40.1618 15.5221C 40.4105 15.6101 40.6623 15.6533 40.9173 15.6543C 41.8479 15.6543 42.4242 15.0536 42.4869 14.9849L 43 14.4217L 42.467 13.8782Z" transform="scale(11.907)" fill="#FFFFFE"/>
</g>
<g id="Vector_19">
<path fill-rule="evenodd" clip-rule="evenodd" d="M 6.919 16.1754C 6.25072 15.5138 5.77524 15.4409 3.97521 15.4409C 1.82563 15.4409 0.364185 14.1853 0.364185 12.177L 0.364185 8.15825L 13.4722 8.15825L 13.4722 12.177C 13.4722 14.1853 12.0139 15.4409 9.85965 15.4409C 8.0591 15.4409 7.5831 15.5138 6.919 16.1754ZM 0.364185 7.7975L 0.364185 1.66684C 0.364185 1.09578 0.198552 0.525767 1.44413e-07 -1.02472e-06L 4.77464 -1.02472e-06C 5.21302 0.599166 6.00775 1.00104 6.919 1.00104C 7.82711 1.00104 8.62184 0.599166 9.06074 -1.02472e-06L 13.8364 -1.02472e-06C 13.6337 0.525767 13.4707 1.09578 13.4707 1.66684L 13.4707 7.7975L 0.364185 7.7975Z" transform="translate(173.628 190.337) scale(11.907)" fill="#FFE52B"/>
</g>
<g id="Vector_20">
<path fill-rule="evenodd" clip-rule="evenodd" d="M 13.3787 26.5403L 13.3787 27.7652L 12.3128 28.1926C 13.2152 28.6013 14.3333 29.0068 15.6495 29.3071L 16.2551 27.3436C 14.9635 27.0776 14.0642 26.8032 13.3787 26.5403ZM 19.1749 28.1989C 17.9135 28.1989 16.8528 28.0692 16.4291 27.9708L 15.7896 30.0307C 16.7943 30.2764 17.9705 30.456 19.1749 30.456C 20.3756 30.456 21.5512 30.2764 22.5607 30.0307L 21.919 27.9708C 21.4932 28.0692 20.4367 28.1989 19.1749 28.1989ZM 24.9684 26.5403C 24.2829 26.8032 23.3841 27.0776 22.093 27.3436L 22.6997 29.3071C 24.0174 29.0068 25.1335 28.6013 26.0338 28.1926L 24.9684 27.7652L 24.9684 26.5403ZM 9.14853 6.95731C 7.68551 8.51536 8.31879 9.44716 8.61452 9.73451C 8.06955 9.61791 7.25706 8.9266 7.44203 8.25716C 7.26855 8.46434 7.09195 8.6887 6.90855 8.92035C 6.54541 9.40239 6.22041 9.87559 5.93251 10.3337C 5.48891 11.6476 6.30244 13.0047 7.68551 13.6059C 6.14726 13.3811 5.45756 12.0177 5.46226 11.1504C 4.72709 12.5331 4.37702 13.7949 4.40889 14.8548C 4.423 15.2483 4.45696 15.6174 4.50869 15.9636C 4.8619 16.6314 5.42934 16.8766 6.43934 16.9984C 5.52026 17.0562 5.03537 17.0135 4.63461 16.5971C 5.26109 19.2754 8.1845 21.595 9.37581 23.5815C 8.1845 22.0375 5.71672 19.7392 4.85197 18.076C 4.78509 18.6767 4.94602 20.2166 5.69738 21.1635C 4.59177 20.0812 4.50608 18.4394 4.57714 17.4794C 4.29707 16.7881 4.11994 16.0156 4.09591 15.1369C 4.07344 14.3285 4.13092 13.6283 4.25423 12.9974C 3.55616 13.9865 2.54773 14.368 2.05083 15.873C 2.14749 13.9308 3.60319 13.9006 4.69156 11.5445C 5.11375 10.5133 5.7256 9.62416 6.40486 8.61374C 5.54272 8.89485 4.89795 9.09526 3.90102 10.1838C 4.60901 8.51536 8.70126 6.64029 10.5755 4.82457C 10.0138 4.94326 7.71477 5.00104 6.7612 4.36648C 8.49017 4.83342 12.3368 4.29984 13.7894 3.31025C 12.7862 4.74753 10.6037 4.82874 7.94624 7.68714C 8.28848 7.42218 8.7394 7.14992 9.14853 6.95731ZM 11.1455 6.79178C 12.8165 5.89329 16.8993 3.91567 14.1316 1.7824C 13.7539 1.49297 13.3395 1.23269 12.99 0.907858C 12.5579 1.23998 13.1525 2.06351 13.3003 2.36544C 13.3003 2.36544 12.3792 2.45809 12.1581 2.45809C 10.7348 2.45185 9.24153 1.61218 9.99759 0.00156075C 9.4312 0.118166 9.36118 0.660075 9.18824 1.12598C 8.82457 0.880793 8.19391 0.355022 7.70746 0.428941C 8.10299 1.68922 9.76717 2.82457 11.0578 3.08225C 9.75149 3.79022 7.3323 4.31702 6.05896 2.79282C 5.16495 4.51484 6.4106 5.23529 7.62961 6.13743C 2.98402 8.24935 3.66902 10.6189 0.621258 12.4841C 1.01732 12.6689 2.77972 12.2978 2.93647 12.2754C 2.27446 13.1307 1.96566 13.4919 1.77233 13.9068C 1.58789 14.2972 1.50377 14.7371 1.32089 15.6861C 1.1772 16.4362 0.914905 17.1832 -4.77021e-08 17.6793C 0.358438 18.3259 1.15526 17.8209 1.48861 17.7345C 1.44316 17.8022 1.33134 18.5825 1.03195 18.9573C 2.59737 18.8568 1.87266 15.5685 3.43964 16.3602C 3.88116 16.582 4.01388 17.0994 3.80958 17.5232C 2.78129 19.6372 5.11897 21.5008 4.99148 23.3535C 5.56624 23.3488 6.16137 23.3337 6.53757 22.5601C 6.73247 22.9459 7.03656 23.4878 7.20533 24.0115L 7.67402 23.2171C 7.96192 24.531 9.19242 25.7465 10.855 25.8548C 10.0619 24.6049 11.0118 22.8969 9.08582 21.0822C 9.32513 20.8896 9.88055 20.5169 10.0791 20.2634C 7.71425 20.5403 5.24699 18.6767 6.36671 17.7923C 7.09979 17.2145 7.41956 18.4138 8.55026 18.2124L 8.10822 17.8319C 8.26393 17.6793 8.44053 17.4794 8.62445 17.33C 8.14479 17.2717 7.61968 16.9656 7.61968 16.9656L 7.90601 16.494C 5.13622 16.4909 5.06516 14.38 6.19063 14.2957C 6.71993 14.2572 7.40284 15.2275 9.10829 15.026C 8.88988 14.7637 8.80315 14.3691 8.69969 14.076C 9.11195 14.0385 9.59631 14.0422 9.98505 13.8537C 9.15218 13.746 8.94109 13.4685 8.24877 12.9448L 9.05447 12.6512C 7.88668 12.0713 7.95774 11.0593 7.92168 10.0052C 8.53197 10.3555 9.25094 10.8985 10.0169 10.6455C 10.1993 10.5846 10.3163 10.5008 10.3205 10.3113C 9.22533 9.88235 8.52465 8.20302 11.1455 6.79178ZM 34.0929 12.9974C 34.2157 13.6283 34.2778 14.329 34.2512 15.1369C 34.2251 16.0156 34.0495 16.7881 33.77 17.4794C 33.8415 18.4394 33.7553 20.0812 32.6508 21.1635C 33.4 20.2155 33.562 18.6767 33.4962 18.076C 32.6278 19.7392 30.1626 22.0375 28.9697 23.5815C 30.1626 21.595 33.0871 19.2743 33.7141 16.5971C 33.3107 17.0135 32.8284 17.0562 31.9088 16.999C 32.9178 16.8766 33.4836 16.6314 33.8374 15.9636C 33.8901 15.6174 33.9246 15.2483 33.9382 14.8542C 33.9716 13.7949 33.6195 12.5331 32.8843 11.1504C 32.8916 12.0177 32.2014 13.381 30.6616 13.607C 32.0426 13.0047 32.8572 11.6476 32.4141 10.3337C 32.1272 9.87559 31.8043 9.40239 31.4386 8.92035C 31.2572 8.6887 31.0791 8.46486 30.9046 8.25716C 31.0895 8.9266 30.277 9.61791 29.7321 9.73451C 30.0283 9.44716 30.6595 8.51536 29.1991 6.95731C 29.6087 7.14992 30.0602 7.42218 30.4009 7.68714C 27.7439 4.82874 25.5635 4.74805 24.5561 3.31025C 26.0113 4.29984 29.8585 4.83394 31.5854 4.36648C 30.6323 5.00104 28.3328 4.94326 27.77 4.82457C 29.6437 6.64029 33.7397 8.51536 34.4461 10.1832C 33.4502 9.09526 32.8023 8.89485 31.9438 8.61427C 32.6231 9.62468 33.2339 10.5133 33.6545 11.544C 34.7455 13.9006 36.2017 13.9302 36.2973 15.874C 35.7999 14.367 34.792 13.9865 34.0929 12.9974ZM 37.0252 15.6861C 36.8423 14.7366 36.7603 14.2972 36.5753 13.9079C 36.3841 13.4919 36.0742 13.1307 35.4085 12.2754C 35.5663 12.2978 37.3324 12.6689 37.7269 12.4841C 34.6786 10.6189 35.3641 8.24935 30.717 6.13743C 31.9375 5.23529 33.1816 4.51536 32.2892 2.79178C 31.0158 4.31702 28.5951 3.79022 27.2904 3.08225C 28.5836 2.82457 30.2452 1.69026 30.6407 0.428941C 30.1521 0.355022 29.5215 0.880794 29.1583 1.12494C 28.9854 0.660075 28.918 0.117646 28.3516 -5.73686e-07C 29.1082 1.61218 27.6133 2.45185 26.1858 2.45809C 25.9679 2.45809 25.0473 2.36544 25.0473 2.36544C 25.1951 2.06351 25.7887 1.23998 25.355 0.907858C 25.0065 1.23269 24.5943 1.49297 24.2155 1.7824C 21.4462 3.91567 25.5332 5.89433 27.2026 6.79178C 29.8198 8.20302 29.1228 9.88131 28.0276 10.3113C 28.0308 10.5008 28.1494 10.5846 28.3317 10.6455C 29.0941 10.8985 29.8157 10.3555 30.4244 10.0052C 30.3894 11.0583 30.4625 12.0713 29.2942 12.6512L 30.0978 12.9448C 29.4044 13.4685 29.196 13.746 28.3631 13.8537C 28.7497 14.0422 29.2378 14.0385 29.6485 14.077C 29.5429 14.3686 29.4536 14.7637 29.2383 15.026C 30.9453 15.2275 31.6303 14.2572 32.1565 14.2957C 33.2778 14.38 33.2119 16.4909 30.4406 16.494L 30.7279 16.9667C 30.7279 16.9667 30.2039 17.2717 29.7221 17.33C 29.905 17.4794 30.0853 17.6788 30.2394 17.8319L 29.7974 18.2124C 30.9255 18.4138 31.2484 17.2145 31.9804 17.7923C 33.1001 18.6767 30.6339 20.5403 28.2675 20.2634C 28.4671 20.5164 29.0209 20.8896 29.2623 21.0833C 27.3348 22.8969 28.2816 24.6049 27.4931 25.8563C 29.1516 25.7465 30.3826 24.531 30.6741 23.2171L 31.1423 24.0115C 31.31 23.4878 31.6172 22.9459 31.809 22.5601C 32.1831 23.3337 32.7819 23.3493 33.3588 23.3535C 33.2281 21.5008 35.5648 19.6372 34.5391 17.5232C 34.3343 17.1005 34.4665 16.582 34.908 16.3602C 36.4765 15.5685 35.7487 18.8568 37.3157 18.9573C 37.0158 18.5825 36.9039 17.8022 36.8616 17.7345C 37.1929 17.8209 37.9881 18.3274 38.3471 17.6788C 37.4338 17.1832 37.1709 16.4352 37.0252 15.6861Z" transform="translate(27.6977 75.9535) scale(11.907)" fill="#FFFFFE"/>
</g>
<g id="Vector_21">
<path fill-rule="evenodd" clip-rule="evenodd" d="M 7.04126 -1.02472e-06C 6.60288 0.599166 5.80711 1.00104 4.90004 1.00104C 4.68895 1.00104 4.48413 0.978138 4.29132 0.940137C 4.34514 1.1874 4.47315 1.44196 4.73754 1.66216C 4.62991 2.37897 4.94132 3.04997 5.71358 3.22644C 5.79614 3.59136 6.02238 3.8683 6.40485 3.99896L 5.8672 4.61843C 5.65976 4.85581 5.3891 4.93129 5.1707 4.90422L 2.76666 4.63144C 2.87064 4.36543 2.59266 4.05779 1.83137 4.19001L 2.77502 1.55648L 2.19974 0.334723L 1.10875 1.26393L 1.02828 4.02603L 0.558554 3.79802C -0.0470279 3.53566 -0.225202 4.63509 0.35112 4.63977L 0.583634 4.64238C 0.567958 4.75534 0.604535 4.88027 0.694405 4.92035C 0.585724 4.96408 0.552284 5.16866 0.688657 5.2405C 0.551761 5.30661 0.531906 5.51536 0.6432 5.60541C 0.524591 5.80895 0.502123 6.24831 0.922739 6.35971C 1.26916 6.44977 1.48652 6.07965 1.55758 5.86465L 5.29871 7.01926C 5.82487 7.17074 6.20526 7.08537 6.64468 6.70119L 7.62124 5.8506C 7.49845 6.40656 7.69857 6.90838 8.12337 7.07392C 8.12337 7.07392 8.05544 7.58355 8.08209 7.79542L 9.39044 7.7975L 11.4517 7.7975L 11.4517 1.66788C 11.4517 1.0963 11.6147 0.525767 11.8175 -1.02472e-06L 7.04126 -1.02472e-06ZM 1.43793 10.3144L 1.51056 10.4055C 1.61244 10.5304 1.67149 10.5008 1.78801 10.4342L 1.95782 10.3446C 2.06389 10.265 2.76039 10.5289 2.8001 9.95263C 2.87691 10.3831 2.36276 11.2889 2.67156 11.7954L 3.08956 12.4774L 1.72478 12.4966C 1.57535 12.4966 1.49749 12.5862 1.45622 12.6684L 1.09935 13.406C 1.00686 13.5997 1.01313 13.8027 1.1307 13.937L 1.37209 14.2077C 1.37209 14.2077 1.5696 14.0401 1.63335 13.822L 1.52623 13.7121C 1.43793 13.6268 1.43793 13.5482 1.48652 13.442L 1.7065 12.9875C 1.79166 12.809 1.87735 12.771 2.0712 12.8157L 3.17421 13.0531C 3.25572 13.0724 3.38582 13.1119 3.4642 12.9776C 3.59848 12.7387 3.83831 12.7231 4.08023 12.7595C 4.68581 12.8501 6.08351 12.9943 6.5825 12.4144C 7.16771 13.1884 8.31147 13.1884 8.23623 13.5934L 7.99483 14.9245L 8.35902 14.9245L 8.58004 13.5643C 8.60512 13.406 8.70283 13.1879 8.53144 13.0661C 8.46143 13.0115 8.42903 12.9844 8.26967 12.7116C 8.06171 12.3488 8.07269 11.8058 7.87152 11.3389C 8.06171 11.1156 8.26758 11.0396 8.44732 11.0807C 8.85017 11.1791 8.9599 11.8719 9.53256 12.4378C 9.46725 12.1864 9.44008 11.9105 9.30423 11.6715C 9.30423 11.6715 9.70185 11.9787 9.80426 12.3378C 9.86958 12.5638 9.93594 12.7277 10.1392 12.8319C 10.2745 12.8808 10.4349 12.8157 10.5964 12.6231C 10.5964 12.6231 10.2186 12.0885 9.94221 11.7387C 9.56339 11.2577 9.05656 10.7762 8.36581 10.8319C 8.14897 10.8501 7.9384 10.9485 7.73881 11.0666C 6.95505 10.6294 6.34581 11.0921 6.10285 11.0921L 4.63461 11.0052C 4.34514 10.987 4.11785 10.6533 4.11785 10.6533C 4.08023 9.41541 3.08225 8.92191 2.73792 8.92191C 2.73792 8.92191 2.77031 8.69859 2.6794 8.62103L 2.37217 9.00469L 1.52101 8.69547L 2.18824 9.23998L 1.46405 10.0786C 1.38986 10.1614 1.40135 10.2697 1.43793 10.3144Z" transform="translate(197.669 190.337) scale(11.907)" fill="#FFFFFE"/>
</g>
<g id="Vector_22">
<path fill-rule="evenodd" clip-rule="evenodd" d="M 0.160664 20.57C -0.0441581 20.7283 -0.0357983 20.9495 0.0885577 21.1962L 0.211869 21.4248L 0.532685 21.1817L 0.460057 21.0245C 0.40833 20.9141 0.409897 20.8017 0.500813 20.7309L 0.960094 20.3852C 1.08915 20.2915 1.12939 20.2816 1.26733 20.3014L 2.23814 20.5049C 2.23814 20.5049 2.09184 20.2915 2.04168 20.0744L 1.12782 19.9542C 0.998237 19.9375 0.920383 19.9932 0.807 20.0781L 0.160664 20.57ZM 6.36801 23.4409L 6.73429 23.4409L 7.32263 21.9948C 7.34353 21.9453 7.37122 21.9224 7.39369 21.8813C 7.1293 21.7777 6.97464 21.7033 6.75414 21.5773C 6.90201 21.7746 7.01748 21.8594 6.95635 22.0411L 6.36801 23.4409ZM 5.22007 3.21031L 6.59582 2.68454C 6.59582 2.68454 6.59582 2.85268 6.19924 3.12077C 5.84655 3.36439 5.22007 3.62415 5.22007 3.62415L 5.22007 3.21031ZM 5.22007 2.20823L 6.78288 1.65227C 6.78288 1.65227 6.59582 1.84955 6.19924 2.12077C 5.84655 2.36231 5.22007 2.62207 5.22007 2.62207L 5.22007 2.20823ZM 5.22007 1.26653L 6.92971 0.638727C 6.92971 0.638727 6.59582 0.908382 6.19924 1.17907C 5.84655 1.4227 5.22007 1.68194 5.22007 1.68194L 5.22007 1.26653ZM 6.6789 3.89224L 7.35816 -1.58665e-06L 4.78378 0.87142L 4.78378 4.886L 6.6789 3.89224Z" transform="translate(201.395 88.9302) scale(11.907)" fill="#FFFFFE"/>
</g>
<g id="Vector_23">
<path fill-rule="evenodd" clip-rule="evenodd" d="M 1.82145 2.88912L 1.87892 2.97866L 2.40874 2.97866L 2.41449 3.07079C 2.42128 3.15877 2.44062 3.24987 2.4704 3.34201C 2.55243 3.59396 2.71545 3.85684 2.9788 4.06975C 3.28289 4.3139 3.72284 4.49193 4.30857 4.49193C 5.57721 4.49193 6.1504 3.6736 6.20578 3.07079L 6.20892 2.97866L 6.74135 2.97866L 6.79778 2.88912C 7.29834 2.1088 7.90915 1.24206 8.62027 1.11921L 6.68387 -2.20814e-06L 4.30961 1.28683L 1.93379 -2.20814e-06L 1.86348e-07 1.11921C 0.707993 1.24206 1.31828 2.1088 1.82145 2.88912Z" transform="translate(204.68 141.884) scale(11.907)" fill="#FFFFFE"/>
</g>
<g id="Vector_24">
<path fill-rule="evenodd" clip-rule="evenodd" d="M 18.9747 7.37377L 18.9747 7.78761C 18.9747 7.78761 18.3493 7.52889 17.9971 7.28631C 17.5974 7.01457 17.4119 6.8178 17.4119 6.8178L 18.9747 7.37377ZM 18.9747 6.43207L 18.9747 6.84748C 18.9747 6.84748 18.3493 6.58824 17.9971 6.34461C 17.5974 6.0734 17.263 5.80427 17.263 5.80427L 18.9747 6.43207ZM 18.9747 8.79021C 18.9747 8.79021 18.3493 8.52993 17.9971 8.28735C 17.5974 8.01874 17.5974 7.85008 17.5974 7.85008L 18.9747 8.37585L 18.9747 8.79021ZM 19.4079 10.0515L 19.4079 6.03696L 16.8361 5.16502L 17.5128 9.05778L 19.4079 10.0515ZM 19.6096 3.4482C 18.1382 3.4482 17.0357 3.92868 16.7964 4.49141L 19.6096 5.59865L 22.4207 4.49141C 22.1819 3.92868 21.0804 3.4482 19.6096 3.4482ZM 19.6106 1.84175C 20.6948 1.84175 21.7795 2.16866 22.51 2.59344C 22.6286 2.20198 22.7566 1.92296 22.929 1.60281L 22.2623 1.70484L 21.7247 0.559083L 20.7189 1.09162L 19.6106 -1.39111e-07L 18.5008 1.09162L 17.4955 0.559083L 16.9532 1.70484L 16.288 1.60281C 16.462 1.92296 16.5879 2.20198 16.7097 2.59344C 17.4412 2.16866 18.5228 1.84175 19.6106 1.84175ZM 37.9672 10.6642C 38.3314 10.6174 38.623 10.4977 38.9793 10.2317C 38.2112 10.0281 36.6009 9.44872 35.2262 9.70849C 34.7716 9.76783 34.5203 9.95159 34.6823 10.0562C 35.4206 10.544 36.3328 11.6752 36.9959 12.9958C 37.5785 12.2754 37.334 11.328 37.2122 11.0567C 38.3748 11.7548 38.6784 12.0942 39.2186 11.9615C 38.9313 11.5221 38.5247 11.127 37.9672 10.6642ZM 2.22116 12.9958C 2.88475 11.6752 3.79756 10.544 4.53743 10.0562C 4.70201 9.95159 4.44703 9.76783 3.99559 9.70849C 2.61931 9.44872 1.00582 10.0281 0.23774 10.2317C 0.597745 10.4977 0.885645 10.6174 1.25192 10.6642C 0.692318 11.1281 0.287377 11.5221 7.13616e-08 11.9615C 0.542882 12.0942 0.845412 11.7548 2.00642 11.0562C 1.88624 11.329 1.64066 12.2754 2.22116 12.9958Z" transform="translate(22.5116 27.4302) scale(11.907)" fill="#FFFFFE"/>
</g>
<g id="Vector_25">
<path fill-rule="evenodd" clip-rule="evenodd" d="M 8.36581 23.7929L 7.89713 24.5872C 7.72836 24.0635 7.42426 23.5216 7.22937 23.1359C 6.85316 23.9095 6.25803 23.9251 5.68328 23.9292C 5.81077 22.0766 3.47308 20.2129 4.50137 18.0989C 4.70619 17.6762 4.57296 17.1578 4.13144 16.936C 2.56445 16.1442 3.28916 19.4326 1.72374 19.5331C 2.02314 19.1583 2.13495 18.378 2.18041 18.3103C 1.84705 18.3967 1.05023 18.9032 0.691795 18.2551C 1.6067 17.759 1.869 17.012 2.01321 16.2619C 2.19556 15.3129 2.27969 14.873 2.46413 14.4836C 2.65746 14.0677 2.96626 13.7064 3.62827 12.8512C 3.47152 12.8735 1.70911 13.2447 1.31253 13.0599C 4.36082 11.1947 3.67477 8.82513 8.3214 6.71321C 7.10292 5.81108 5.85727 5.09114 6.75075 3.3686C 8.0241 4.89281 10.4433 4.366 11.7496 3.65803C 10.459 3.40035 8.79479 2.26604 8.39978 1.00472C 8.88571 0.930803 9.51637 1.45657 9.87899 1.70176C 10.0535 1.23534 10.123 0.693948 10.6894 0.577342C 9.93333 2.18796 11.4266 3.02763 12.8499 3.03388C 13.071 3.03388 13.9921 2.94122 13.9921 2.94122C 13.8443 2.63929 13.2497 1.81576 13.6818 1.48364C 14.0313 1.80847 14.4457 2.06875 14.8234 2.35818C 17.5911 4.49145 13.5073 6.47011 11.8363 7.36756C 9.21645 8.7788 9.91713 10.4581 11.0123 10.8871C 11.0081 11.0766 10.8911 11.1604 10.7087 11.2213C 9.94273 11.4743 9.22377 10.9308 8.61348 10.581C 8.64953 11.6351 8.57743 12.6471 9.74627 13.227L 8.94057 13.519C 9.63289 14.0443 9.84398 14.3217 10.6768 14.4295C 10.2881 14.6179 9.80479 14.6143 9.39149 14.6528C 9.49547 14.9449 9.58168 15.3394 9.80009 15.6018C 8.09464 15.8033 7.41172 14.8329 6.88243 14.8715C 5.75695 14.9558 5.82801 17.0667 8.59781 17.0698L 8.31043 17.5425C 8.31043 17.5425 8.83502 17.8475 9.31625 17.9058C 9.13233 18.0542 8.95572 18.2551 8.80002 18.4076L 9.24258 18.7882C 8.11135 18.9896 7.79158 17.7903 7.05851 18.3681C 5.93878 19.2525 8.40605 21.1161 10.7709 20.8392C 10.5723 21.0927 10.0169 21.4654 9.77762 21.6591C 11.7036 23.4727 10.7537 25.1807 11.5463 26.4321C 9.88421 26.3212 8.65424 25.1068 8.36581 23.7929ZM 10.5326 21.7522C 11.0682 21.3296 11.5113 21.1182 11.4888 20.0953C 10.6852 20.5045 8.40761 20.4826 7.45613 19.1775C 7.18652 18.8059 7.47495 18.6195 7.73411 18.9115C 8.38515 19.6476 9.59265 19.3145 10.0326 19.1021C 9.96311 18.848 9.76717 18.519 9.60258 18.378C 9.76717 18.2166 10.2338 17.9761 10.3283 17.5622C 10.0791 17.4279 9.113 17.3311 9.113 17.3311C 9.26818 17.1817 9.46151 16.9745 9.34603 16.4233C 8.3585 16.7257 7.1395 16.315 6.86153 15.9511C 6.5893 15.593 6.86727 15.2577 7.09665 15.4951C 7.58781 16.0089 10.0133 16.5992 10.9151 15.7038C 10.5807 15.6117 10.2103 15.3129 10.1444 15.1281C 10.9789 15.0448 11.6445 14.5539 11.6999 13.9423C 11.238 13.9423 10.3654 13.9089 10.0687 13.6861C 10.4689 13.5388 10.7218 13.3946 10.8482 12.948C 9.322 12.8558 9.20078 11.7262 9.19242 11.5393C 10.1862 12.1104 11.9371 11.8558 11.4846 10.4498C 10.6575 10.4056 9.82412 9.0724 12.0986 7.84804C 14.1672 6.73195 16.5179 5.52945 16.31 3.5508C 16.1746 2.28375 14.0815 1.42013 13.8161 0.779322C 12.9424 1.19369 12.7669 1.67469 13.1614 2.48C 13.1614 2.48 11.2145 2.6726 11.0609 1.47948C 10.9945 0.944338 11.353 0.443557 11.7386 0.0614648C 11.5196 0.0614648 10.0535 -0.329475 9.61146 0.86053C 8.78957 0.301446 8.0868 0.322269 7.53294 0.912066C 8.41597 1.43419 8.96304 3.227 10.424 3.75589C 9.3847 4.31706 7.70432 4.08228 6.72411 2.35818C 5.79614 3.75069 5.26214 5.13018 7.25184 6.60233C 3.62984 8.2447 3.65648 11.3827 0.506307 12.8782C 0.826079 13.7325 1.49959 13.7325 2.35806 13.5987C 0.995893 15.3618 2.1569 17.2072 -1.55211e-07 17.9615C 0.202731 18.6804 0.607672 19.2551 1.4024 19.0448C 1.17668 19.3957 1.02777 19.3889 0.675598 19.7746C 1.85437 20.5144 3.25207 19.9787 3.5687 17.606C 3.62461 17.1817 4.21034 17.4472 4.00813 17.8631C 2.66425 20.6304 6.06209 22.7127 4.85981 24.7434C 5.91997 24.6992 6.72724 24.6164 7.16876 24.2608C 7.3856 24.6861 7.51518 25.1083 7.46867 25.5242C 8.0544 25.4061 8.26706 25.0609 8.30729 24.6643C 8.69186 25.7798 10.0629 26.9709 12.2569 26.9709C 11.0928 25.3186 12.177 23.6408 10.5326 21.7522Z" transform="translate(19.4593 69.093) scale(11.907)" fill="#1A1919"/>
</g>
<g id="Vector_26">
<path fill-rule="evenodd" clip-rule="evenodd" d="M 2.58378 13.2868C 2.98454 13.7033 3.46943 13.746 4.38851 13.6887C 3.37851 13.5664 2.81107 13.3212 2.45734 12.6533C 2.40613 12.3071 2.37217 11.9381 2.35806 11.5445C 2.32619 10.4846 2.67627 9.2228 3.41143 7.84019C 3.40673 8.70693 4.09591 10.0703 5.63468 10.2967C 4.25162 9.69443 3.43808 8.33733 3.88168 7.02343C 4.16958 6.56533 4.49458 6.09214 4.85772 5.6101C 5.04007 5.37845 5.21773 5.15461 5.3912 4.9469C 5.20623 5.61582 6.01872 6.30765 6.56213 6.42374C 6.26796 6.13691 5.63468 5.2051 7.09665 3.64706C 6.68858 3.83967 6.23765 4.11192 5.89541 4.37689C 8.5513 1.51848 10.7354 1.43779 11.7386 -1.08781e-06C 10.286 0.989587 6.43934 1.52368 4.71037 1.05622C 5.66394 1.69079 7.96296 1.633 8.52465 1.51431C 6.65043 3.33003 2.55818 5.2051 1.84966 6.8735C 2.84608 5.78397 3.4919 5.58459 4.35403 5.30401C 3.67477 6.31442 3.06292 7.20302 2.64074 8.23425C 1.55236 10.5903 0.0966632 10.6205 -4.90678e-08 12.5638C 0.496901 11.0578 1.50429 10.6757 2.2034 9.68714C 2.08009 10.3181 2.02261 11.0187 2.04456 11.8267C 2.06912 12.7054 2.24625 13.4779 2.52631 14.1692C 2.45525 15.1291 2.54094 16.771 3.64656 17.8532C 2.8952 16.9063 2.73426 15.3665 2.80115 14.7657C 3.66589 16.4289 6.13368 18.7272 7.32603 20.2712C 6.13368 18.2847 3.21027 15.9651 2.58378 13.2868ZM 29.894 5.30401C 30.752 5.58459 31.3994 5.78397 32.3958 6.8735C 31.6899 5.2051 27.5929 3.33003 25.7192 1.51431C 26.282 1.63196 28.5815 1.69079 29.5345 1.05622C 27.8077 1.52368 23.9605 0.989587 22.5063 -1.08781e-06C 23.5111 1.43779 25.6931 1.51848 28.35 4.37689C 28.0094 4.11192 27.5579 3.83967 27.1483 3.64706C 28.6087 5.2051 27.9775 6.13691 27.6812 6.42426C 28.2262 6.30765 29.0387 5.61582 28.8537 4.9469C 29.0282 5.15461 29.2064 5.37845 29.3877 5.6101C 29.7535 6.09214 30.0764 6.56533 30.3632 7.02343C 30.8063 8.33733 29.9917 9.69443 28.6118 10.2967C 30.1506 10.0708 30.8408 8.70693 30.833 7.84019C 31.5687 9.2228 31.9208 10.4846 31.8874 11.5445C 31.8738 11.9381 31.8393 12.3071 31.7876 12.6533C 31.4328 13.3212 30.8654 13.5664 29.8575 13.6887C 30.7776 13.746 31.2599 13.7033 31.6632 13.2868C 31.0362 15.9651 28.1128 18.2847 26.9189 20.2712C 28.1128 18.7272 30.5769 16.4289 31.4453 14.7657C 31.5122 15.3665 31.3497 16.9063 30.5999 17.8532C 31.705 16.771 31.7907 15.1291 31.7191 14.1681C 31.9987 13.4779 32.1742 12.7054 32.2004 11.8267C 32.227 11.0187 32.1648 10.3181 32.042 9.68714C 32.7412 10.6762 33.7485 11.0578 34.2465 12.5638C 34.1509 10.6205 32.6946 10.5903 31.6037 8.23425C 31.183 7.20302 30.5728 6.31442 29.894 5.30401Z" transform="translate(52.1163 115.372) scale(11.907)" fill="#1A1919"/>
</g>
<g id="Vector_27">
<path fill-rule="evenodd" clip-rule="evenodd" d="M 22.5091 18.3104C 22.5514 18.378 22.6633 19.1584 22.9632 19.5332C 21.3962 19.4327 22.123 16.1443 20.5555 16.9361C 20.114 17.1578 19.9818 17.6763 20.1866 18.099C 21.2112 20.213 18.8756 22.0766 19.0068 23.9293C 18.4294 23.9251 17.8306 23.9095 17.457 23.136C 17.2647 23.5217 16.9575 24.0636 16.7898 24.5863L 16.3211 23.7929C 16.0301 25.1068 14.799 26.3223 13.1406 26.4322C 13.9291 25.1807 12.9813 23.4728 14.9109 21.6591C 14.6679 21.4655 14.1146 21.0922 13.915 20.8393C 16.2814 21.1162 18.7476 19.2526 17.6279 18.3681C 16.8953 17.7903 16.573 18.9897 15.4449 18.7882L 15.8869 18.4077C 15.7328 18.2552 15.5525 18.0553 15.3696 17.9059C 15.8514 17.8476 16.3754 17.5425 16.3754 17.5425L 16.0881 17.0699C 18.8589 17.0667 18.9253 14.9559 17.804 14.8715C 17.2778 14.833 16.5928 15.8033 14.8858 15.6019C 15.1011 15.3395 15.1904 14.9449 15.2959 14.6529C 14.8853 14.6144 14.3972 14.618 14.0095 14.4296C 14.8435 14.3218 15.0519 14.0443 15.7453 13.5207L 14.9427 13.2271C 16.11 12.6472 16.0369 11.6352 16.0724 10.581C 15.4632 10.9314 14.7416 11.4743 13.9792 11.2213C 13.7969 11.1604 13.6783 11.0766 13.6746 10.8871C 14.7703 10.4582 15.4679 8.77887 12.8501 7.36762C 11.1807 6.47017 7.09368 4.49151 9.86295 2.35825C 10.2418 2.06882 10.653 1.80854 11.0015 1.4837C 11.4362 1.81582 10.8426 2.63936 10.6948 2.94128C 10.6948 2.94128 11.6154 3.03394 11.8333 3.03394C 13.2608 3.02769 14.7557 2.18803 13.9991 0.575846C 14.5655 0.693493 14.6329 1.23592 14.8058 1.70078C 15.169 1.45664 15.7996 0.930868 16.2882 1.00479C 15.8916 2.26611 14.23 3.40042 12.9379 3.6581C 14.2426 4.36606 16.6639 4.89287 17.9367 3.36866C 18.8291 5.0912 17.585 5.81114 16.3645 6.71327C 21.0116 8.82415 20.3256 11.1948 23.3744 13.06C 22.9799 13.2448 21.2138 12.8736 21.056 12.8512C 21.7217 13.7065 22.0315 14.0678 22.2228 14.4837C 22.4078 14.8731 22.4898 15.3124 22.6727 16.2619C 22.8184 17.0121 23.0813 17.7591 23.9946 18.2552C 23.6356 18.9033 22.8404 18.3968 22.5091 18.3104ZM 22.3283 13.5982C 23.1858 13.732 23.8603 13.732 24.1801 12.8783C 21.0289 11.3827 21.056 8.24477 17.4346 6.6024C 19.4253 5.13025 18.8882 3.75075 17.9639 2.35825C 16.9847 4.08235 15.2991 4.31712 14.2645 3.75596C 15.7218 3.22707 16.272 1.43425 17.155 0.91161C 16.6027 0.321292 15.8974 0.301511 15.0744 0.859554C 14.6298 -0.32941 13.1662 0.0615297 12.9462 0.0615297C 13.3308 0.443622 13.694 0.943882 13.625 1.47954C 13.4735 2.67267 11.5261 2.48006 11.5261 2.48006C 11.919 1.67475 11.7445 1.19375 10.8703 0.779387C 10.6033 1.4202 8.51333 2.28381 8.37747 3.55034C 8.16795 5.52952 10.5213 6.73202 12.5878 7.8481C 14.8617 9.07246 14.0278 10.4056 13.2044 10.4499C 12.7472 11.8569 14.4981 12.1105 15.4945 11.5394C 15.4898 11.7263 15.3634 12.8559 13.8366 12.9486C 13.9657 13.3947 14.2175 13.5389 14.6172 13.6862C 14.3189 13.909 13.4479 13.9423 12.987 13.9423C 13.0413 14.554 13.7086 15.0449 14.5435 15.1282C 14.4772 15.3124 14.1062 15.6118 13.7723 15.7039C 14.6742 16.5993 17.0986 16.009 17.5924 15.4952C 17.8181 15.2578 18.0934 15.593 17.8249 15.9501C 17.5459 16.315 16.3279 16.7258 15.3398 16.4233C 15.2265 16.9741 15.4166 17.1828 15.5729 17.3312C 15.5729 17.3312 14.6068 17.427 14.3565 17.5623C 14.4505 17.9762 14.9192 18.2167 15.0838 18.378C 14.9192 18.5191 14.7238 18.8481 14.6533 19.1021C 15.0964 19.3145 16.3028 19.6472 16.9512 18.9116C 17.2135 18.6196 17.4999 18.8059 17.2318 19.1771C 16.2798 20.4827 14.0012 20.504 13.1971 20.0954C 13.1746 21.1183 13.6187 21.3286 14.1532 21.7523C 12.5063 23.6409 13.5947 25.3187 12.4305 26.971C 14.623 26.971 15.994 25.7783 16.3791 24.6643C 16.4225 25.061 16.633 25.4061 17.2172 25.5243C 17.1723 25.1073 17.3029 24.6862 17.5155 24.2609C 17.9592 24.6164 18.7685 24.6992 19.8266 24.7435C 18.6269 22.7128 22.0237 20.6305 20.6762 17.8632C 20.4771 17.4473 21.0623 17.1828 21.1187 17.606C 21.4338 19.9788 22.8331 20.5144 24.0129 19.7747C 23.6581 19.389 23.5113 19.3957 23.2845 19.0449C 24.0787 19.2552 24.4831 18.6805 24.6869 17.9616C 22.5316 17.2073 23.6926 15.3619 22.3283 13.5982ZM 0.396223 22.2359L 1.04256 21.7461C 1.15856 21.6591 1.2338 21.6034 1.36495 21.6201L 2.27724 21.7403C 2.3274 21.9574 2.4737 22.1708 2.4737 22.1708L 1.50289 21.9673C 1.36495 21.9512 1.32471 21.9574 1.19565 22.0501L 0.736372 22.3968C 0.644412 22.4676 0.642322 22.58 0.69405 22.6904L 0.768245 22.8497L 0.447429 23.0917L 0.324118 22.8622C 0.199762 22.6154 0.191402 22.3926 0.396223 22.2359ZM 1.87857 20.5269L 1.71032 20.6159C 1.5938 20.6831 1.53476 20.7128 1.43287 20.5873L 1.36024 20.4952C 1.32367 20.452 1.31217 20.3437 1.38637 20.2609L 2.10899 19.4223L 1.44332 18.8778L 2.29135 19.1891L 2.60171 18.8033C 2.69263 18.8809 2.66076 19.1037 2.66076 19.1037C 3.00456 19.1037 4.00255 19.5977 4.04069 20.8361C 4.04069 20.8361 4.26746 21.1688 4.55431 21.1859L 6.02464 21.2744C 6.26812 21.2744 6.87736 20.8117 7.66112 21.2489C 7.85863 21.1308 8.07129 21.0355 8.28813 21.011C 8.97888 20.96 9.48571 21.44 9.86452 21.922C 10.1409 22.2708 10.5197 22.8054 10.5197 22.8054C 10.3567 22.998 10.1968 23.0631 10.0615 23.0142C 9.85825 22.91 9.79189 22.7461 9.72658 22.5201C 9.62312 22.161 9.22654 21.8538 9.22654 21.8538C 9.36187 22.0948 9.38956 22.3687 9.45488 22.6201C 8.8796 22.0542 8.77196 21.3614 8.36964 21.2661C 8.19146 21.2219 7.98403 21.2979 7.79227 21.5196C 7.995 21.9881 7.98403 22.5311 8.19198 22.8939C 8.3503 23.1651 8.38322 23.1901 8.45376 23.2484C 8.62357 23.3702 8.52743 23.5883 8.50183 23.7466L 8.28395 25.1073L 7.91715 25.1073L 8.15854 23.7757C 8.23274 23.3702 7.09002 23.3702 6.50482 22.5967C 6.00583 23.1776 4.60813 23.0324 4.00255 22.9418C 3.75906 22.9054 3.5208 22.921 3.38651 23.1604C 3.30814 23.2942 3.17647 23.2541 3.09652 23.2354L 1.99352 22.998C 1.79967 22.9533 1.71555 22.9913 1.62933 23.1688L 1.40884 23.6237C 1.36024 23.7305 1.36338 23.8085 1.45116 23.8944L 1.55514 24.0058C 1.49191 24.2239 1.29336 24.39 1.29336 24.39L 1.05301 24.1198C 0.935447 23.984 0.929178 23.7862 1.02166 23.5935L 1.37853 22.8507C 1.42138 22.7685 1.49766 22.6789 1.6471 22.6789L 3.01188 22.6581L 2.59388 21.9798C 2.28299 21.4712 2.79922 20.5649 2.72241 20.1365C 2.68322 20.7112 1.9862 20.4488 1.87857 20.5269ZM 7.55819 23.6607L 6.9688 25.1073L 6.60357 25.1073L 7.19191 23.7065C 7.25304 23.5253 7.13757 23.441 6.9897 23.2432C 7.20863 23.3661 7.36486 23.4467 7.62925 23.5472C 7.60678 23.5883 7.57909 23.6112 7.55819 23.6607ZM 0.37689 23.4967L 1.03942 22.9371L 0.938581 22.7367C 0.866476 22.593 0.905142 22.5847 0.981428 22.5274L 1.33151 22.2677C 1.41197 22.2016 1.49766 22.2094 1.59589 22.2328L 2.64665 22.4785L 1.53842 22.4785C 1.28239 22.4957 1.20819 22.593 1.11571 22.7825L 1.03942 22.9371L 0.75466 23.5207C 0.657997 23.7211 0.607314 23.9892 0.861773 24.2911L 1.06294 24.53L 0.654862 25.3525L 0.99867 25.3525L 1.28082 24.782C 1.30329 24.7612 1.72025 24.3822 1.80855 23.9892C 1.68838 23.8913 1.60216 23.8231 1.66904 23.6862L 1.79706 23.4134C 1.83886 23.3229 1.85349 23.2859 1.97575 23.3098L 3.07771 23.5472C 3.21513 23.5852 3.41682 23.6451 3.56416 23.4244C 3.71465 23.1948 3.73555 23.2193 4.08562 23.2541L 4.64836 23.3135C 5.41749 23.3864 6.18505 23.1948 6.48444 22.9585C 6.58894 23.1969 6.7969 23.378 6.89461 23.5634C 6.93014 23.6321 6.87057 23.7289 6.82302 23.8497L 6.19132 25.3525L 7.16527 25.3525L 7.7165 23.9808C 7.76771 23.8497 7.84191 23.745 7.89886 23.6925L 7.58274 25.3525L 8.52796 25.3525L 8.77876 23.7101C 8.83414 23.3452 8.80122 23.2271 8.62514 23.0772C 8.23117 22.7461 8.24006 22.0501 8.11309 21.6279C 8.17997 21.5894 8.2573 21.5701 8.3503 21.5811C 8.55669 21.5993 8.71135 22.1235 8.95432 22.4608C 9.43763 23.1381 10.0981 23.8856 10.8541 22.8325C 10.781 22.7128 10.7021 22.6029 10.6107 22.4988L 10.3996 22.2521C 10.2768 22.1157 9.69157 21.4488 9.44704 21.2083C 8.89318 20.6513 8.04098 20.7367 7.70135 21.0063C 6.93327 20.605 6.12234 21.0267 5.93059 21.011L 4.60708 20.9314C 4.547 20.9272 4.45504 20.9074 4.39077 20.8044L 4.63687 20.7242C 4.40644 19.77 3.82803 18.9704 2.81699 18.8335C 2.81699 18.8335 2.75794 18.5321 2.60328 18.4738L 2.3018 18.8283C 2.2161 18.8398 2.12362 18.8663 2.04786 18.8991L 0.757273 18.4207L 1.72652 19.3957C 1.72652 19.3957 1.22335 20.1047 1.0807 20.25C 0.985085 20.3822 0.99449 20.4858 1.10108 20.6128L 1.28866 20.8585C 1.38637 20.9861 1.49191 20.9808 1.6471 20.9022L 1.85976 20.7924C 1.95224 20.7148 2.26261 20.8674 2.39637 20.7455C 2.31068 21.0235 2.26836 21.2901 2.24902 21.5019L 1.37853 21.3983C 1.18886 21.3728 1.10265 21.3983 0.986652 21.4879L 0.244696 22.0574C 0.00277698 22.2427 -0.0724626 22.5618 0.076451 22.8731L 0.37689 23.4967ZM 3.20886 4.78771C 3.56103 5.0303 4.18647 5.29058 4.18647 5.29058L 4.18647 4.87621L 2.80915 4.35044C 2.80915 4.35044 2.80915 4.5191 3.20886 4.78771ZM 4.18647 4.28797L 4.18647 3.87413L 2.62366 3.31817C 2.62366 3.31817 2.80915 3.51546 3.20886 3.78667C 3.56103 4.02821 4.18647 4.28797 4.18647 4.28797ZM 4.18647 3.34784L 4.18647 2.93243L 2.47475 2.30463C 2.47475 2.30463 2.80915 2.57429 3.20886 2.84498C 3.56103 3.0886 4.18647 3.34784 4.18647 3.34784Z" transform="translate(198.593 69.093) scale(11.907)" fill="#1A1919"/>
</g>
<g id="Vector_28">
<path fill-rule="evenodd" clip-rule="evenodd" d="M 10.1068 6.69704L 11.8572 6.69704C 11.7851 6.44352 11.5129 6.18792 11.0013 6.18792C 10.5185 6.18792 10.2275 6.46695 10.1068 6.69704ZM 8.2749 -2.54318e-06L 6.56526 0.627797L 6.56526 1.04321C 6.56526 1.04321 7.19175 0.783968 7.54444 0.540345C 7.94259 0.269652 8.2749 -2.54318e-06 8.2749 -2.54318e-06ZM 7.94206 2.04581L 6.56526 2.57158L 6.56526 2.98594C 6.56526 2.98594 7.19175 2.72566 7.54444 2.48308C 7.94206 2.21447 7.94206 2.04581 7.94206 2.04581ZM 8.12807 1.01354L 6.56526 1.5695L 6.56526 1.98334C 6.56526 1.98334 7.19227 1.72462 7.54444 1.48204C 7.94206 1.21082 8.12807 1.01354 8.12807 1.01354ZM 0.855339 6.18792C 0.344853 6.18792 0.0731511 6.44352 5.03608e-07 6.69704L 1.75248 6.69704C 1.6276 6.46643 1.34127 6.18792 0.855339 6.18792Z" transform="translate(185.378 96.5349) scale(11.907)" fill="#1A1919"/>
</g>
<g id="Vector_29">
<path fill-rule="evenodd" clip-rule="evenodd" d="M 8.00894 2.77043L 5.19578 1.6632C 5.43509 1.10047 6.53757 0.619991 8.00894 0.619991C 9.47979 0.619991 10.5812 1.10047 10.82 1.6632L 8.00894 2.77043ZM 10.1021 6.22957L 8.20697 7.22332L 8.20697 3.20874L 10.7824 2.33732L 10.1021 6.22957ZM 12.3191 7.90318C 11.608 8.02603 10.9971 8.89277 10.4966 9.67309L 10.4407 9.76262L 9.90668 9.76262L 9.90459 9.85476C 9.8492 10.4576 9.27602 11.2759 8.00738 11.2759C 7.42217 11.2759 6.9817 11.0973 6.6776 10.8537C 6.41426 10.6408 6.25072 10.3779 6.16921 10.126C 6.13942 10.0349 6.12009 9.94273 6.11225 9.85476L 6.10755 9.76262L 5.57773 9.76262L 5.52026 9.67309C 5.01708 8.89277 4.4068 8.02603 3.69881 7.90318L 5.6326 6.78396L 8.00894 8.0708L 10.3827 6.78396L 12.3191 7.90318ZM 14.9279 10.8537C 14.7247 11.3795 14.5617 11.95 14.5617 12.5216L 14.5617 18.6512L 13.8464 18.6512C 13.5208 18.3373 13.2465 17.2931 13.2465 17.2931C 13.0684 17.6694 13.2727 18.4305 13.4628 18.6512L 12.5417 18.6512C 12.3128 18.3436 12.1153 17.2551 12.1153 17.2551C 11.8399 17.5679 12.0145 18.4154 12.1853 18.6512L 11.5729 18.6512C 11.5348 18.216 11.6597 17.7413 11.6597 17.7413C 11.3394 17.6825 10.9987 17.5148 10.9992 17.1598C 11.1617 17.3108 11.2276 17.3082 11.4517 17.3035L 11.7119 17.0994C 10.8488 17.1275 10.8085 16.1832 11.493 15.7418C 10.8085 15.7637 10.298 15.3581 10.5467 14.6346C 10.0603 14.3842 9.88891 13.5638 10.2484 13.2025C 9.98819 12.9214 9.94482 12.3691 10.1115 11.9917C 9.76717 11.9917 9.37895 11.8548 9.16263 11.6205C 9.14591 11.6283 9.12606 11.6335 9.10829 11.6398C 9.53936 11.4643 9.90459 11.1921 10.1512 10.8537L 14.9279 10.8537ZM 14.5632 23.0307C 14.5632 24.3092 13.9702 25.2811 12.9837 25.8188L 13.338 25.1031L 12.9957 25.1031L 12.5422 26.0203C 12.073 26.1978 11.539 26.2946 10.9506 26.2946C 9.15009 26.2946 8.67409 26.3675 8.00999 27.0286C 7.34171 26.3675 6.86675 26.2946 5.06933 26.2946C 4.48413 26.2946 3.9517 26.1994 3.48458 26.0239L 3.49607 26.0239L 3.95013 25.1031L 3.60894 25.1031L 3.21079 25.9089C 3.11517 25.8641 3.02373 25.8162 2.93491 25.7631L 3.26199 25.1031L 2.92184 25.1031L 2.67888 25.595C 1.90766 25.0297 1.45517 24.1468 1.45517 23.0307L 1.45517 19.0109L 14.5632 19.0109L 14.5632 23.0307ZM 5.64043 15.6892L 6.1922 15.7579C 6.234 16.0588 6.1551 16.5705 5.95812 16.8558L 5.42255 16.7022C 5.56519 16.3644 5.60072 16.0489 5.64043 15.6892ZM 4.84414 15.2863C 4.84414 15.2863 5.35201 15.2624 5.49518 15.316C 5.60072 15.3597 5.52862 15.5367 5.39224 15.5169C 5.2496 15.4997 4.84414 15.2863 4.84414 15.2863ZM 4.8107 13.2806L 4.35507 14.9354L 4.51078 12.2655L 5.21668 11.6637L 5.57616 12.4492L 4.66805 15.0422L 4.90788 13.2967C 4.93035 13.1754 4.83107 13.1614 4.8107 13.2806ZM 4.46062 16.0401C 4.22236 16.1348 3.97835 16.0057 4.05359 15.8522C 4.16384 15.9521 4.47264 15.9032 4.47264 15.9032L 4.46062 16.0401ZM 4.01231 16.2608C 4.12308 16.3665 4.45644 16.3264 4.45644 16.3264L 4.46845 16.393C 4.32268 16.5862 3.91983 16.4987 4.01231 16.2608ZM 3.48928 15.1942C 3.36179 15.1093 3.41927 14.9256 3.56087 14.9256C 3.715 14.9292 3.92244 15.1041 4.12621 15.191C 4.12621 15.191 3.59169 15.2634 3.48928 15.1942ZM 3.99611 16.6627C 3.99611 16.6627 4.14868 16.7262 4.34305 16.7418C 4.32059 16.8475 4.23803 16.9495 4.10793 16.9203C 3.99925 16.8964 3.95013 16.7616 3.99611 16.6627ZM 4.35507 15.6622C 4.09852 15.7449 3.98566 15.5601 3.99663 15.4029C 4.4998 15.2207 4.72396 15.3384 4.87078 15.4315C 5.00559 15.5169 5.11845 15.7579 5.29976 15.9089C 5.2705 16.1145 5.20675 16.4112 5.13308 16.6101C 4.61894 16.4789 4.59229 16.0271 4.78352 15.7527C 4.67641 15.6273 4.56251 15.5955 4.35507 15.6622ZM 6.58408 15.8089L 7.13427 15.874C 7.18861 16.1754 7.08568 16.8157 6.87824 17.1213L 6.31708 16.9594C 6.54175 16.6663 6.62379 16.1452 6.58408 15.8089ZM 7.53085 15.9245L 7.98491 15.9807C 8.05754 16.3566 8.00999 17.0068 7.76911 17.3764L 7.24139 17.2238C 7.47233 16.9099 7.58154 16.2644 7.53085 15.9245ZM 8.34439 16.025L 8.35432 16.025C 8.4724 16.0427 8.59676 16.0224 8.71014 15.9761C 8.9552 16.3264 9.14748 17.1213 8.85279 17.6174C 8.68611 17.6205 8.52204 17.5914 8.36947 17.5481L 8.24721 17.5117C 8.49592 17.1275 8.45987 16.4492 8.34439 16.025ZM 9.03828 15.7579L 9.36118 15.4435C 9.68879 15.7288 10.1193 16.3665 9.98506 16.9719L 9.63341 17.2931C 9.5613 17.3623 9.48606 17.4144 9.40978 17.4607C 9.62871 16.9204 9.34969 16.0875 9.03828 15.7579ZM 10.9271 15.9375C 10.8576 16.0312 10.8002 16.1405 10.7636 16.2592L 10.3722 16.6169C 10.4506 16.0474 10.066 15.3722 9.71492 15.0979L 10.1308 14.6913L 10.2139 14.7746C 10.0749 15.1379 10.3466 15.8522 10.9271 15.9375ZM 9.88892 13.1796C 9.68305 13.5705 9.70395 14.0213 9.94639 14.4305L 9.78493 14.5882C 9.08321 14.5008 8.80628 13.4586 8.80628 13.4586C 8.79218 13.5523 8.78382 13.6439 8.78539 13.7371C 8.37626 13.5862 8.1171 13.2233 8.138 12.7272C 8.29266 12.8131 8.46718 12.874 8.65162 12.9058L 8.69969 12.6012C 8.20959 12.5159 7.92325 12.2108 7.81457 11.8501C 7.79106 11.848 7.77016 11.8423 7.74769 11.8407C 7.83547 11.848 7.92064 11.8548 8.00999 11.8548C 8.30102 11.8548 8.57638 11.81 8.83555 11.734C 9.0388 12.0229 9.4009 12.2301 9.76299 12.2702C 9.70656 12.5065 9.73425 12.8074 9.88892 13.1796ZM 5.86563 10.8537C 6.20421 11.3149 6.75337 11.657 7.40388 11.7907C 7.45875 12.0344 7.59094 12.3009 7.84906 12.5159C 7.74194 13.2327 8.05127 13.9021 8.82562 14.0802C 8.90608 14.4451 9.13442 14.722 9.5148 14.8527L 8.97714 15.4721C 8.77232 15.7095 8.50375 15.785 8.28065 15.7579L 5.8766 15.4852C 5.98058 15.2192 5.70365 14.9115 4.94289 15.0437L 5.8881 12.4102L 5.31126 11.1884L 4.21818 12.1176L 4.13823 14.8797L 3.67373 14.6517C 3.06292 14.3894 2.88527 15.4888 3.46525 15.4935L 3.69567 15.4961C 3.68104 15.6091 3.715 15.734 3.80435 15.772C 3.69567 15.8178 3.66223 16.0224 3.80017 16.0953C 3.66171 16.1603 3.6429 16.3691 3.75471 16.4591C 3.63297 16.6627 3.61468 17.102 4.03634 17.2134C 4.38067 17.3035 4.59647 16.9334 4.66805 16.7184L 8.40866 17.873C 8.939 18.0245 9.3152 17.9391 9.75463 17.5549L 10.7312 16.7043C 10.6084 17.2603 10.8096 17.7621 11.2349 17.9276C 11.2349 17.9276 11.1732 18.4274 11.1926 18.6512L 1.45517 18.6512L 1.45517 12.5216C 1.45517 11.95 1.28954 11.3795 1.09256 10.8537L 5.86563 10.8537ZM 5.23392 2.33732L 7.80726 3.20874L 7.80726 7.22332L 5.91161 6.22957L 5.23392 2.33732ZM 11.4867 1.85945C 11.4867 0.878187 9.83248 5.7251e-07 8.00738 5.7251e-07C 6.18122 5.7251e-07 4.52698 0.878187 4.52698 1.85945L 4.5646 2.09995L 5.2914 6.26757L 1.84131 8.27122C 1.47451 8.48517 1.01523 9.07757 0.956705 9.67309L 1.58632 9.67309C 1.6903 9.07809 2.16212 8.41801 3.04202 8.45914C 3.83832 8.50078 4.31014 8.98334 4.77882 9.67309L 4.89952 9.85476L 5.07299 10.126L -2.273e-07 10.126C 0.372545 10.8719 0.727326 11.6632 0.727326 12.5216L 0.727326 23.0307C 0.727326 25.735 2.81159 27.0224 5.06933 27.0224C 6.81241 27.0224 7.04754 26.9433 8.00999 27.9021C 8.96931 26.9433 9.20339 27.0224 10.9506 27.0224C 13.2058 27.0224 15.2921 25.735 15.2921 23.0307L 15.2921 12.5216C 15.2921 11.6632 15.6453 10.8719 16.0179 10.126L 10.9412 10.126L 11.1158 9.85476L 11.237 9.67309C 11.7036 8.98334 12.177 8.50078 12.9738 8.45914C 13.8511 8.41801 14.325 9.07809 14.429 9.67309L 15.057 9.67309C 15.0011 9.07757 14.5392 8.48517 14.1729 8.27122L 10.7234 6.26757L 11.4512 2.09995L 11.4867 1.85945Z" transform="translate(160.64 61.1047) scale(11.907)" fill="#1A1919"/>
</g>
<g id="Vector_30">
<path fill-rule="evenodd" clip-rule="evenodd" d="M 2.56006 3.9292L 2.56529 3.62207C 1.61851 3.59969 1.40219 2.48776 1.40219 2.48776C 1.12474 3.30661 1.84736 3.91671 2.56006 3.9292ZM 1.36457 5.8126L 1.27 5.52212C 0.462728 5.72775 0.0452481 4.45341 0.0452481 4.45341C -0.212869 5.37897 0.687926 6.03488 1.36457 5.8126ZM 1.92574 4.63144C 0.961195 4.78344 0.565138 3.6658 0.565138 3.6658C 0.458547 4.27434 0.854084 4.89172 1.49258 4.95679C 1.34837 5.75169 2.08876 6.15825 2.72987 5.87558L 2.63739 5.59865C 2.0804 5.78501 1.5579 5.23581 1.92574 4.63144ZM 1.34837 1.44196L 1.35726 1.1343C 0.0844353 0.872981 0.190504 -2.19639e-06 0.190504 -2.19639e-06C -0.0843335 0.821966 0.63829 1.42894 1.34837 1.44196Z" transform="translate(299.994 190.721) scale(11.907)" fill="#1A1919"/>
</g>
<g id="Vector_31">
<path fill-rule="evenodd" clip-rule="evenodd" d="M 0.455973 -1.32253e-06L -5.7724e-07 0.920905L 0.342482 0.920905L 0.796843 -1.32253e-06L 0.455973 -1.32253e-06Z" transform="translate(214.593 360.012) scale(11.907)" fill="#1A1919"/>
</g>
<g id="Vector_32">
<path fill-rule="evenodd" clip-rule="evenodd" d="M 0.45396 -1.32253e-06L 5.89521e-07 0.920905L 0.345299 0.920905L 0.796442 -1.32253e-06L 0.45396 -1.32253e-06Z" transform="translate(222.791 360.012) scale(11.907)" fill="#1A1919"/>
</g>
<g id="Vector_33">
<path fill-rule="evenodd" clip-rule="evenodd" d="M 0.453557 -1.32253e-06L -2.45634e-08 0.920905L 0.341677 0.920905L 0.796442 -1.32253e-06L 0.453557 -1.32253e-06Z" transform="translate(255.616 360.012) scale(11.907)" fill="#1A1919"/>
</g>
<g id="Vector_34">
<path fill-rule="evenodd" clip-rule="evenodd" d="M 0.456776 -1.32253e-06L 2.70197e-07 0.920905L 0.344494 0.920905L 0.796844 -1.32253e-06L 0.456776 -1.32253e-06Z" transform="translate(263.791 360.012) scale(11.907)" fill="#1A1919"/>
</g>
<g id="Vector_35">
<path fill-rule="evenodd" clip-rule="evenodd" d="M 0.455167 -1.32253e-06L -3.07042e-07 0.920905L 0.342482 0.920905L 0.79765 -1.32253e-06L 0.455167 -1.32253e-06Z" transform="translate(247.401 360.012) scale(11.907)" fill="#1A1919"/>
</g>
<g id="Vector_36">
<path fill-rule="evenodd" clip-rule="evenodd" d="M -3.19324e-07 0.920905L 0.343288 0.920905L 0.798052 -1.32253e-06L 0.455168 -1.32253e-06L -3.19324e-07 0.920905Z" transform="translate(300.744 360.012) scale(11.907)" fill="#1A1919"/>
</g>
<g id="Vector_37">
<path fill-rule="evenodd" clip-rule="evenodd" d="M 0.454362 -1.32253e-06L 6.5093e-07 0.920905L 0.342884 0.920905L 0.798051 -1.32253e-06L 0.454362 -1.32253e-06Z" transform="translate(231.006 360.012) scale(11.907)" fill="#1A1919"/>
</g>
<g id="Vector_38">
<path fill-rule="evenodd" clip-rule="evenodd" d="M 0.454765 -1.32253e-06L -1.4738e-07 0.920905L 0.3453 0.920905L 0.799259 -1.32253e-06L 0.454765 -1.32253e-06Z" transform="translate(239.174 360.012) scale(11.907)" fill="#1A1919"/>
</g>
<g id="Vector_39">
<path fill-rule="evenodd" clip-rule="evenodd" d="M 1.47189 23.5461C 1.41024 23.5461 1.35485 23.607 1.35485 23.6851C 1.35485 23.7611 1.41024 23.8235 1.47189 23.8235C 1.53721 23.8235 1.59259 23.7611 1.59259 23.6851C 1.59259 23.607 1.53721 23.5461 1.47189 23.5461ZM 1.33239 2.26809L 1.87475 1.12285L 2.88004 1.65487L 3.98984 0.563248L 5.09964 1.65487L 6.10389 1.12285L 6.63998 2.26809L 7.30826 2.16606C 7.13688 2.4862 7.00782 2.76418 6.88922 3.15669C 6.15876 2.73191 5.07404 2.405 3.98984 2.405C 2.90199 2.405 1.81988 2.73191 1.0889 3.15669C 0.967154 2.76418 0.840187 2.4862 0.667238 2.16606L 1.33239 2.26809ZM 3.98984 2.76991C 5.40217 2.76991 6.53287 3.23581 7.15778 3.73712C 7.15778 3.73712 7.34484 2.61999 7.97759 1.63925L 6.83906 1.76627L 6.24445 0.504426L 5.09964 1.09734L 3.98984 1.35976e-06L 2.88004 1.09734L 1.73315 0.504426L 1.13749 1.76627L -8.37906e-08 1.63925C 0.633797 2.61999 0.818764 3.73712 0.818764 3.73712C 1.44211 3.23581 2.57595 2.76991 3.98984 2.76991Z" transform="translate(208.506 20.7209) scale(11.907)" fill="#1A1919"/>
</g>
<g id="Vector_40">
<path fill-rule="evenodd" clip-rule="evenodd" d="M 4.63917 0.877147C 4.80429 0.890681 4.95111 0.766269 4.96522 0.603854C 4.98141 0.439876 4.74002 3.28772e-07 4.74002 3.28772e-07C 4.74002 3.28772e-07 4.37844 0.387299 4.36695 0.552838C 4.35127 0.715254 4.47563 0.860489 4.63917 0.877147ZM 6.50399 1.55023C 6.65082 1.62936 6.83004 1.57106 6.90946 1.42426C 6.9894 1.28006 6.93715 0.782405 6.93715 0.782405C 6.93715 0.782405 6.45697 0.998437 6.37755 1.14524C 6.3023 1.28995 6.35717 1.47059 6.50399 1.55023ZM 2.31246 0.877147C 2.48071 0.860489 2.60245 0.715254 2.58782 0.552838C 2.57267 0.387299 2.21476 3.28772e-07 2.21476 3.28772e-07C 2.21476 3.28772e-07 1.97388 0.439876 1.98956 0.603854C 2.00262 0.766269 2.14997 0.890681 2.31246 0.877147ZM 0.450782 1.55023C 0.597083 1.47059 0.652991 1.28995 0.574615 1.14524C 0.497285 0.998437 0.0160578 0.782405 0.0160578 0.782405C 0.0160578 0.782405 -0.0351467 1.28006 0.0453189 1.42426C 0.122127 1.57106 0.303959 1.62936 0.450782 1.55023ZM 21.0792 11.9849C 21.2015 12.2572 21.4455 13.2025 20.8635 13.924C 20.2004 12.6033 19.2881 11.4721 18.5498 10.9844C 18.3883 10.8797 18.6392 10.696 19.0937 10.6366C 20.4684 10.3769 22.0788 10.9563 22.8469 11.1598C 22.4895 11.4258 22.1995 11.5455 21.8348 11.5903C 22.3923 12.0562 22.7988 12.4503 23.0862 12.8896C 22.5459 13.0224 22.2423 12.6825 21.0792 11.9849ZM 22.8134 11.7605C 23.2105 11.62 23.5178 11.2426 23.6709 10.8933C 22.6598 10.7486 19.9752 9.62519 17.7676 10.5398C 18.5942 9.75794 19.3367 9.65695 19.4072 8.53253C 19.75 8.77824 20.3295 8.91671 20.6555 8.33056C 20.4277 7.66111 19.8534 8.20302 19.7725 8.01926C 19.6601 7.76262 20.4977 8.09786 20.6764 7.228C 20.0254 7.0052 19.8305 7.53514 19.7145 7.41228C 19.6068 7.29516 20.1278 7.07184 19.7442 6.37064C 19.0666 6.76575 19.4192 7.21135 19.2761 7.26132C 19.1026 7.32951 19.239 6.78605 18.4902 6.81051C 18.4166 7.61322 19.194 7.63769 19.0666 7.76574C 18.9124 7.92087 18.7092 7.30453 18.1433 7.61687C 18.1532 8.26497 18.6794 8.62051 19.2233 8.46746C 19.1345 9.69859 18.0022 9.46902 17.1573 10.8553C 18.9448 11.7683 19.7537 13.3602 20.8535 14.4612C 21.2167 14.2046 21.8374 13.063 21.8374 13.063C 23.0277 13.9813 23.8647 13.0666 23.8647 13.0666C 23.4551 12.6486 23.4404 12.3306 22.8134 11.7605ZM 3.14533 33.5992L 2.37046 33.5705L 2.28216 33.8792L 2.37934 33.8844C 2.41174 33.8844 2.41174 33.824 2.43995 33.7913C 2.45511 33.7793 2.59566 33.7564 2.70643 33.7678L 3.03091 33.7923C 2.84019 34.1884 2.34016 34.5612 2.34643 34.824C 2.35374 34.9641 2.49638 34.9917 2.58155 34.988C 2.73778 34.9823 2.78637 34.873 2.82713 34.7043C 2.9217 34.3144 3.11085 34.0177 3.24775 33.5705L 3.1516 33.5737L 3.14533 33.5992ZM 3.67516 34.0599L 3.68665 33.822L 4.35964 33.822L 4.3241 33.5565C 4.14018 33.5627 3.87005 33.6226 3.62238 33.6242L 3.57536 34.1426C 3.88729 34.1291 4.09055 34.2644 4.09055 34.5898C 4.09055 34.7111 4.0106 34.9375 3.87005 34.9547C 3.83765 34.9594 3.79481 34.9485 3.77443 34.9323C 3.70703 34.8818 3.79533 34.8261 3.79533 34.7428C 3.79533 34.6346 3.68456 34.5966 3.61089 34.6101C 3.49541 34.6174 3.45414 34.6923 3.45414 34.784C 3.45414 34.975 3.7389 35.0281 3.86064 35.0281C 4.13705 35.0281 4.45578 34.8751 4.45578 34.5632C 4.45578 34.153 3.99493 34.0687 3.67516 34.0599ZM 5.28813 34.2712C 5.0483 34.2712 5.01381 33.899 5.01381 33.7184C 5.01381 33.6674 5.05979 33.5955 5.11361 33.5955C 5.33202 33.5955 5.3921 34.102 5.40987 34.2447C 5.37434 34.2582 5.33202 34.2712 5.28813 34.2712ZM 5.13503 33.5252C 4.89363 33.5252 4.6956 33.7043 4.6956 33.949C 4.6956 34.3352 5.11204 34.4623 5.42084 34.316C 5.45846 34.6158 5.39733 34.8308 5.28342 34.8381C 5.18624 34.8381 5.20034 34.7652 5.18624 34.7033C 5.16063 34.5867 5.06815 34.5554 4.97306 34.5867C 4.87221 34.6158 4.85706 34.7043 4.8743 34.7715C 4.91924 34.923 5.10734 34.9261 5.19773 34.9151C 5.59379 34.8704 5.75994 34.5773 5.75994 34.252C 5.75994 33.8751 5.54311 33.5252 5.13503 33.5252ZM 1.82758 33.4461C 1.79153 33.4904 1.62537 33.6965 1.2685 33.962L 1.29828 34.0135C 1.33747 33.9927 1.40069 33.9636 1.50833 33.899L 1.29828 34.6314C 1.28627 34.671 1.23767 34.6746 1.21416 34.671L 1.08928 34.6533L 1.06577 34.7392L 1.7492 34.861L 1.7701 34.7746L 1.65202 34.7491C 1.61701 34.7392 1.59559 34.7142 1.60134 34.6747L 1.91275 33.4591L 1.82758 33.4461Z" transform="translate(214.599 16.3721) scale(11.907)" fill="#1A1919"/>
</g>
<g id="Vector_41">
<path fill-rule="evenodd" clip-rule="evenodd" d="M 23.9119 27.9401L 23.3058 25.9766C 24.5974 25.7106 25.4961 25.4373 26.1822 25.1733L 26.1822 26.3982L 27.247 26.8256C 26.3473 27.2343 25.2312 27.6398 23.9119 27.9401ZM 20.3886 29.089C 19.1843 29.089 18.0081 28.9094 17.0033 28.6637L 17.6429 26.6038C 18.0666 26.7022 19.1273 26.8319 20.3886 26.8319C 21.6505 26.8319 22.707 26.7022 23.1328 26.6038L 23.7745 28.6637C 22.765 28.9094 21.5893 29.089 20.3886 29.089ZM 13.5266 26.8256L 14.5925 26.3982L 14.5925 25.1733C 15.2785 25.4373 16.1772 25.7106 17.4689 25.9766L 16.8633 27.9401C 15.5471 27.6398 14.4279 27.2343 13.5266 26.8256ZM 26.5119 26.1437L 26.5119 24.6408C 25.3461 25.1733 23.8622 25.6049 21.9546 25.7756L 21.8678 26.3129C 22.0298 26.3358 22.2357 26.3555 22.5095 26.3732C 21.8025 26.4695 20.8892 26.5164 20.3886 26.5164C 19.887 26.5164 18.9747 26.4695 18.2667 26.3732C 18.54 26.3555 18.7443 26.3358 18.9063 26.3129L 18.8201 25.7756C 16.9119 25.6049 15.4264 25.1733 14.2638 24.6408L 14.2638 26.1437L 12.6822 26.7902C 13.8532 27.3972 15.2012 27.8922 16.7593 28.292L 16.5749 28.9214C 17.4673 29.1817 18.8932 29.4487 20.3886 29.4487C 21.8835 29.4487 23.3084 29.1817 24.2008 28.9214L 24.0169 28.292C 25.5729 27.8922 26.9241 27.3972 28.095 26.7902L 26.5119 26.1437ZM 0.776441 6.519C 1.06539 6.07965 1.4698 5.68558 2.03097 5.22176C 1.66365 5.17491 1.37575 5.05518 1.01575 4.78917C 1.78383 4.58563 3.39889 4.00625 4.7736 4.26601C 5.22504 4.32535 5.48002 4.50911 5.31439 4.6127C 4.57557 5.10151 3.66275 6.23269 2.99917 7.55284C 2.41867 6.83186 2.66425 5.88652 2.78442 5.61426C 1.62342 6.31234 1.32089 6.65174 0.776441 6.519ZM 2.02679 6.69235C 2.02679 6.69235 2.64857 7.83394 3.00962 8.09006C 4.11159 6.98959 4.92094 5.39771 6.70686 4.48464C 5.86145 3.09838 4.7271 3.33108 4.64297 2.09682C 5.18585 2.24987 5.71097 1.89276 5.72194 1.24623C 5.15398 0.935451 4.95125 1.55335 4.79816 1.3951C 4.67119 1.26496 5.44867 1.24258 5.375 0.440913C 4.62521 0.417488 4.76263 0.958873 4.58654 0.890679C 4.44599 0.839664 4.79816 0.394587 4.11786 1.33782e-06C 3.7359 0.704322 4.25841 0.923997 4.15025 1.04164C 4.03478 1.1645 3.83832 0.634564 3.1878 0.857365C 3.3644 1.72722 4.20564 1.39198 4.09121 1.64862C 4.01126 1.83238 3.43703 1.29047 3.21131 1.95992C 3.53474 2.54607 4.11524 2.4076 4.45539 2.16294C 4.52854 3.291 5.26893 3.38521 6.09762 4.16918C 3.89057 3.25455 1.20489 4.37689 0.190714 4.52421C 0.346943 4.87194 0.65313 5.24935 1.05076 5.38678C 0.424274 5.962 0.409643 6.2785 -1.31938e-07 6.69599C -1.31938e-07 6.69599 0.834962 7.61062 2.02679 6.69235ZM 19.421 5.85372L 19.421 6.51588C 19.6498 6.24154 20.0919 6.29568 20.0919 6.29568L 20.0919 7.24779C 20.0919 7.24779 20.0767 7.71838 19.9095 7.91983L 20.8672 7.91983C 20.7006 7.71838 20.6849 7.24779 20.6849 7.24779L 20.6849 6.29568C 20.6849 6.29568 21.1264 6.24154 21.3558 6.51588L 21.3558 5.85372L 19.421 5.85372Z" transform="translate(13.2442 92.2326) scale(11.907)" fill="#1A1919"/>
</g>
</g>
</g>
</g>
</svg>

