<svg width="28" height="28" viewBox="0 0 28 28" fill="none" xmlns="http://www.w3.org/2000/svg">
<g clip-path="url(#clip0)">
<path d="M13.8994 19.6591C12.9641 19.6583 12.0434 19.4236 11.219 18.9756C10.3947 18.5277 9.69213 17.8804 9.17376 17.0913C8.65539 16.3021 8.3372 15.3955 8.24743 14.4518C8.15766 13.5081 8.29907 12.5565 8.65914 11.6815C9.0192 10.8065 9.58677 10.0351 10.3115 9.4357C11.0362 8.83636 11.8957 8.4276 12.8136 8.24569C13.7316 8.06379 14.6797 8.11436 15.5737 8.39293C16.4678 8.67149 17.2802 9.16943 17.9388 9.84258L16.9603 10.809C16.3599 10.1956 15.5936 9.7764 14.7582 9.60445C13.9228 9.43249 13.0558 9.51548 12.2669 9.84293C11.4781 10.1704 10.8027 10.7276 10.3262 11.444C9.84974 12.1605 9.59354 13.0041 9.59004 13.8682C9.58653 14.7323 9.83586 15.578 10.3065 16.2984C10.7772 17.0188 11.448 17.5816 12.2342 17.9157C13.0204 18.2497 13.8866 18.3399 14.7234 18.1749C15.5602 18.0099 16.3299 17.5972 16.9352 16.9888L17.0105 16.9125L18.0141 17.8789C17.4881 18.4494 16.8505 18.9024 16.142 19.209C15.4335 19.5155 14.6697 19.6688 13.8994 19.6591V19.6591Z" fill="#EA0061"/>
<path d="M14.1005 22.5581C12.9405 22.5622 11.7921 22.3251 10.7262 21.8614C9.66023 21.3978 8.69948 20.7174 7.90332 19.8623L9.05744 18.7434C10.0077 19.757 11.2332 20.4623 12.579 20.7699C13.9247 21.0776 15.3302 20.9738 16.6178 20.4718C17.9054 19.9698 19.0171 19.092 19.8125 17.9494C20.6079 16.8069 21.0512 15.451 21.0863 14.0531C21.1214 12.6552 20.7467 11.2782 20.0097 10.0961C19.2726 8.91406 18.2064 7.9801 16.9456 7.41233C15.6849 6.84455 14.2864 6.66848 12.927 6.90637C11.5676 7.14426 10.3083 7.78544 9.30834 8.7488L9.1578 8.90139L8.02877 7.78241C9.0201 6.76107 10.2453 6.00421 11.5952 5.57926C12.9451 5.15431 14.3778 5.07449 15.7655 5.3469C17.1532 5.61931 18.4529 6.23549 19.5487 7.14053C20.6445 8.04557 21.5024 9.21135 22.0459 10.534C22.5894 11.8566 22.8016 13.295 22.6637 14.7209C22.5257 16.1468 22.0419 17.516 21.2553 18.7064C20.4686 19.8968 19.4037 20.8715 18.1553 21.5435C16.907 22.2155 15.5139 22.5641 14.1005 22.5581Z" fill="#878787"/>
<path d="M13.7492 25.2281C12.2284 25.2293 10.7233 24.9165 9.32567 24.3088C7.92807 23.701 6.66726 22.811 5.62012 21.6932L6.77424 20.5996C8.53542 22.4692 10.9565 23.5541 13.5061 23.6161C16.0556 23.6781 18.5252 22.7121 20.3728 20.9302L20.699 20.5996L21.828 21.7186C20.7845 22.8256 19.5308 23.7071 18.1424 24.3102C16.754 24.9134 15.2597 25.2256 13.7492 25.2281V25.2281Z" fill="#878787"/>
<path d="M20.6486 7.09557C18.8743 5.23919 16.4457 4.17243 13.8961 4.12951C11.3465 4.0866 8.88424 5.07105 7.05008 6.86669L6.89954 6.99385L5.77051 5.9003C6.80259 4.83845 8.03117 3.99338 9.3859 3.41346C10.7406 2.83355 12.1949 2.53018 13.6655 2.52074C15.136 2.51129 16.594 2.79594 17.9558 3.3584C19.3177 3.92086 20.5568 4.75007 21.602 5.79857V5.79857L21.7777 5.97659L20.6486 7.09557Z" fill="#878787"/>
<path d="M28 14.1653H26.6201C26.6393 12.5069 26.3358 10.8609 25.7269 9.32139C25.118 7.78192 24.2157 6.37922 23.0715 5.19352C21.9274 4.00781 20.5639 3.06235 19.059 2.41121C17.5541 1.76008 15.9373 1.41604 14.3011 1.39877H14.0502L14 4.43558e-05C17.6658 -0.0447651 21.1992 1.38708 23.8242 3.98107C26.4492 6.57507 27.9511 10.1191 28 13.8347V14.1653Z" fill="#EA0061"/>
<path d="M13.8244 28.0004C12.0087 28.0011 10.2108 27.6391 8.53324 26.9351C6.85569 26.2312 5.33144 25.199 4.0476 23.8977C2.76375 22.5964 1.74548 21.0513 1.05098 19.3509C0.35647 17.6505 -0.000658478 15.8281 9.11439e-07 13.9877V13.9877V13.7334L1.37993 13.7588C1.32489 17.1072 2.58357 20.3407 4.8794 22.7489C7.17522 25.1571 10.3203 26.5428 13.6237 26.6017H13.8746V28.0004H13.8244Z" fill="#EA0061"/>
<path d="M14.7025 17.1924L11.8423 14.2423L13.3978 12.691L14.7276 14.0643L18.3907 10.5039L19.9211 12.1315L14.7025 17.1924Z" fill="#EA0061"/>
</g>
<defs>
<clipPath id="clip0">
<rect width="28" height="28" fill="white"/>
</clipPath>
</defs>
</svg>
