<svg width="512" height="322" viewBox="0 0 512 322" version="1.1" xmlns="http://www.w3.org/2000/svg" xmlns:xlink="http://www.w3.org/1999/xlink">
<g id="Canvas" fill="none">
<g id="UnionPay_logo">
<g id="Group">
<g id="Vector">
<path d="M 8.42094 0L 19.1536 0C 20.6517 0 21.5835 1.22579 21.2341 2.73466L 16.2373 24.2695C 15.8846 25.7732 14.3846 27 12.8854 27L 2.15381 27C 0.657727 27 -0.276181 25.7732 0.0733149 24.2695L 5.07221 2.73466C 5.4217 1.22579 6.92093 0 8.42094 0Z" transform="scale(11.907)" fill="#E21836"/>
</g>
<g id="Vector_2">
<path d="M 8.42026 0L 20.7625 0C 22.2604 0 21.585 1.22579 21.2326 2.73466L 16.2366 24.2695C 15.886 25.7732 15.9954 27 14.4943 27L 2.15209 27C 0.651037 27 -0.2779 25.7732 0.074735 24.2695L 5.07049 2.73466C 5.42522 1.22579 6.9213 0 8.42026 0Z" transform="translate(117.169 0) scale(11.907)" fill="#00447C"/>
</g>
<g id="Vector_3">
<path d="M 8.41976 0L 19.1524 0C 20.6526 0 21.5845 1.22579 21.2321 2.73466L 16.2361 24.2695C 15.8834 25.7732 14.3824 27 12.8824 27L 2.15473 27C 0.653673 27 -0.277357 25.7732 0.0742319 24.2695L 5.07103 2.73466C 5.42053 1.22579 6.9187 0 8.41976 0Z" transform="translate(258.302 0) scale(11.907)" fill="#007B84"/>
</g>
<g id="Vector_4">
<path d="M 6.39269 0.0380238C 5.28901 0.0493154 4.96305 0.0380235 4.85894 0.0133396C 4.81891 0.204246 4.07414 3.6529 4.07205 3.65579C 3.91169 4.35351 3.79502 4.85086 3.39869 5.17202C 3.17372 5.35872 2.91107 5.44879 2.60657 5.44879C 2.11712 5.44879 1.83198 5.20484 1.7841 4.74215L 1.77495 4.58328C 1.77495 4.58328 1.92406 3.6487 1.92406 3.64345C 1.92406 3.64345 2.70572 0.500716 2.84567 0.0852909C 2.853 0.0616574 2.85509 0.0493154 2.85692 0.0380238C 1.33546 0.0514162 1.06575 0.0380235 1.04718 0.0133396C 1.03698 0.0472143 0.999308 0.24206 0.999308 0.24206L 0.20117 3.7842L 0.132631 4.08461L 8.21101e-08 5.06724C 8.21101e-08 5.35872 0.0570286 5.59663 0.170562 5.79778C 0.534185 6.43562 1.57142 6.53121 2.15819 6.53121C 2.91421 6.53121 3.62341 6.36997 4.10266 6.0756C 4.93454 5.58219 5.15219 4.81095 5.3463 4.12558L 5.43629 3.77396C 5.43629 3.77396 6.24149 0.509907 6.3783 0.0852909C 6.38354 0.0616574 6.38563 0.0493154 6.39269 0.0380238ZM 9.13234 2.67117C 8.93823 2.67117 8.58351 2.71843 8.26488 2.8752C 8.14925 2.93481 8.0399 3.00361 7.92454 3.07215L 8.02865 2.6948L 7.97163 2.63125C 7.29592 2.76859 7.14471 2.78697 6.52054 2.8752L 6.46822 2.91013C 6.39575 3.51331 6.3314 3.96681 6.06274 5.15243C 5.96045 5.58938 5.85424 6.03054 5.74777 6.46645L 5.77655 6.52186C 6.41616 6.48798 6.61026 6.48798 7.16616 6.49717L 7.21116 6.44807C 7.28179 6.0849 7.29094 5.99982 7.44738 5.26429C 7.52089 4.91557 7.67419 4.14931 7.74979 3.87648C 7.8887 3.81188 8.02578 3.74833 8.15658 3.74833C 8.46814 3.74833 8.43021 4.02117 8.41817 4.12988C 8.40483 4.31239 8.2913 4.90847 8.17489 5.42027L 8.09719 5.75062C 8.04304 5.99457 7.98366 6.23169 7.92951 6.47354L 7.95305 6.52186C 8.58351 6.48798 8.77578 6.48798 9.31415 6.49717L 9.37746 6.44807C 9.47477 5.88086 9.50329 5.72908 9.67594 4.90322L 9.76279 4.52377C 9.93152 3.78116 10.0163 3.40459 9.88862 3.09788C 9.75364 2.75415 9.42978 2.67117 9.13234 2.67117ZM 12.1928 3.44868C 11.8577 3.51328 11.644 3.55635 11.4316 3.58418C 11.221 3.61806 11.0156 3.64878 10.6918 3.69395L 10.6661 3.71732L 10.6426 3.73596C 10.6089 3.97808 10.5853 4.18736 10.5406 4.43342C 10.5026 4.68787 10.4443 4.97699 10.3493 5.39241C 10.2758 5.71041 10.2379 5.82123 10.1961 5.93309C 10.1552 6.04496 10.1102 6.15367 10.0276 6.46642L 10.0469 6.49531L 10.0632 6.52183C 10.3658 6.50739 10.5639 6.49715 10.7674 6.49531C 10.9706 6.48796 11.1812 6.49531 11.5072 6.49715L 11.5357 6.47378L 11.5663 6.44804C 11.6134 6.16602 11.6205 6.09013 11.6492 5.95253C 11.6778 5.80495 11.7269 5.60065 11.8475 5.05498C 11.9046 4.79868 11.9681 4.54318 12.0272 4.28163C 12.0887 4.02114 12.1531 3.76459 12.2143 3.50829L 12.2051 3.47731L 12.1928 3.44868ZM 12.2 2.40035C 11.8955 2.21995 11.361 2.2772 11.0013 2.5264C 10.6427 2.77061 10.6019 3.11724 10.9053 3.3C 11.2046 3.47542 11.7411 3.42316 12.0977 3.17186C 12.4556 2.92239 12.5003 2.57892 12.2 2.40035ZM 14.0415 6.57837C 14.6576 6.57837 15.2891 6.40794 15.7644 5.90219C 16.1301 5.49201 16.2978 4.88174 16.3559 4.63044C 16.545 3.79749 16.3977 3.40859 16.2128 3.17173C 15.9318 2.81066 15.4353 2.69485 14.9202 2.69485C 14.6105 2.69485 13.8728 2.72558 13.2965 3.25891C 12.8826 3.64361 12.6914 4.16565 12.576 4.66615C 12.4596 5.17611 12.3257 6.09414 13.1667 6.43578C 13.4262 6.54764 13.8003 6.57837 14.0415 6.57837ZM 13.9934 4.70423C 14.1354 4.07348 14.3031 3.54409 14.7311 3.54409C 15.0665 3.54409 15.0908 3.93798 14.9417 4.57083C 14.915 4.71132 14.7926 5.23362 14.627 5.45604C 14.5113 5.62016 14.3745 5.71968 14.2233 5.71968C 14.1783 5.71968 13.9107 5.71968 13.9065 5.3208C 13.9044 5.12386 13.9445 4.92271 13.9934 4.70423ZM 17.8959 6.49725L 17.944 6.44815C 18.0123 6.08498 18.0236 5.99964 18.1748 5.26437C 18.2504 4.91564 18.4068 4.14939 18.4803 3.87656C 18.6195 3.8117 18.7542 3.74815 18.8892 3.74815C 19.1987 3.74815 19.161 4.02098 19.1487 4.1297C 19.1375 4.31246 19.0239 4.90829 18.9054 5.42009L 18.8319 5.75043C 18.7757 5.99465 18.7144 6.23151 18.6603 6.47362L 18.6838 6.52194C 19.3164 6.48806 19.5013 6.48806 20.0428 6.49725L 20.1082 6.44815C 20.2032 5.88068 20.2288 5.7289 20.4067 4.9033L 20.4915 4.52359C 20.661 3.78097 20.7468 3.40467 20.6212 3.09796C 20.4823 2.75423 20.1564 2.67125 19.8631 2.67125C 19.6688 2.67125 19.3122 2.71825 18.9954 2.87528C 18.8821 2.93489 18.7686 3.00343 18.6572 3.07223L 18.7542 2.69488L 18.7022 2.63107C 18.0267 2.76867 17.8724 2.78705 17.249 2.87528L 17.2011 2.91021C 17.1255 3.51339 17.064 3.96663 16.7954 5.1525C 16.6931 5.58946 16.5869 6.03062 16.4807 6.46653L 16.5092 6.52194C 17.1498 6.48806 17.3411 6.48806 17.8959 6.49725ZM 22.5433 6.52181C 22.5831 6.32696 22.8193 5.17207 22.8214 5.17207C 22.8214 5.17207 23.0226 4.32467 23.0349 4.29395C 23.0349 4.29395 23.0982 4.20572 23.1615 4.17079L 23.2546 4.17079C 24.1333 4.17079 25.1256 4.17079 25.9033 3.5965C 26.4325 3.20261 26.7943 2.62096 26.9557 1.91405C 26.9976 1.74074 27.0285 1.5346 27.0285 1.32847C 27.0285 1.05773 26.9743 0.789885 26.8179 0.580597C 26.4213 0.0236335 25.6315 0.0133926 24.7198 0.00919109C 24.717 0.00919109 24.2704 0.0133924 24.2704 0.0133924C 23.1034 0.0278352 22.6354 0.0236339 22.4431 3.20131e-07C 22.4269 0.0853436 22.3963 0.237123 22.3963 0.237123C 22.3963 0.237123 21.9783 2.1819 21.9783 2.18505C 21.9783 2.18505 20.9779 6.31987 20.9308 6.51471C 21.9498 6.50237 22.3675 6.50237 22.5433 6.52181ZM 23.3179 3.06711C 23.3179 3.06711 23.7624 1.12627 23.7603 1.13362L 23.7747 1.0341L 23.781 0.958209L 23.9586 0.97659C 23.9586 0.97659 24.8752 1.05563 24.8967 1.05773C 25.2585 1.19822 25.4076 1.56034 25.3035 2.03301C 25.2085 2.46498 24.9294 2.82815 24.5707 3.00356C 24.2754 3.15219 23.9136 3.16453 23.5408 3.16453L 23.2996 3.16453L 23.3179 3.06711ZM 26.0852 4.74018C 25.9678 5.24278 25.8328 6.16082 26.6696 6.48801C 26.9365 6.60197 27.1756 6.63585 27.4186 6.62351C 27.6752 6.60959 27.913 6.48039 28.1333 6.29448C 28.1134 6.37089 28.0935 6.44731 28.0736 6.52398L 28.1116 6.57309C 28.7135 6.54762 28.9003 6.54762 29.5525 6.55261L 29.6116 6.50744C 29.7068 5.94549 29.7965 5.39982 30.044 4.32475C 30.1646 3.8098 30.2849 3.29985 30.4087 2.787L 30.3893 2.73054C 29.716 2.8558 29.536 2.88258 28.8883 2.97475L 28.8391 3.01493C 28.8325 3.06719 28.8257 3.11734 28.8195 3.1675C 28.7187 3.00416 28.5728 2.86473 28.3475 2.77781C 28.0595 2.6641 27.383 2.81063 26.8015 3.34212C 26.3929 3.72157 26.1967 4.24151 26.0852 4.74018ZM 27.4994 4.7709C 27.6436 4.15144 27.8092 3.6273 28.2382 3.6273C 28.5095 3.6273 28.6523 3.8786 28.6233 4.30716C 28.6002 4.41404 28.5754 4.52669 28.5458 4.65405C 28.5029 4.83813 28.4564 5.02063 28.4111 5.20339C 28.3651 5.32839 28.3114 5.44629 28.2526 5.52481C 28.1422 5.68184 27.8795 5.77927 27.7283 5.77927C 27.6854 5.77927 27.4207 5.77927 27.4115 5.38747C 27.4094 5.19237 27.4495 4.99148 27.4994 4.7709ZM 34.8845 2.72552L 34.8324 2.66592C 34.1662 2.80141 34.0456 2.82295 33.4334 2.90593L 33.3884 2.95109C 33.3863 2.95845 33.3845 2.96974 33.3814 2.97998L 33.3793 2.96974C 32.9236 4.02511 32.9369 3.79744 32.566 4.62829C 32.5639 4.59047 32.5639 4.56684 32.5618 4.52666L 32.4689 2.72552L 32.4106 2.66592C 31.7126 2.80141 31.6961 2.82295 31.0516 2.90593L 31.0013 2.95109C 30.9943 2.97263 30.9943 2.99626 30.9901 3.02199L 30.9943 3.03118C 31.0748 3.44451 31.0555 3.35234 31.1363 4.00462C 31.174 4.32473 31.2242 4.64667 31.2619 4.96283C 31.3255 5.49196 31.361 5.75246 31.4387 6.55993C 31.0034 7.28102 30.9004 7.55385 30.4813 8.18671L 30.4841 8.19301L 30.1891 8.66148C 30.1553 8.71085 30.1247 8.74472 30.0818 8.75917C 30.0347 8.78254 29.9735 8.78674 29.8885 8.78674L 29.725 8.78674L 29.482 9.59816L 30.3157 9.6126C 30.8051 9.6105 31.1128 9.38073 31.2784 9.07192L 31.8026 8.17017L 31.7942 8.17017L 31.8494 8.10662C 32.2021 7.34457 34.8845 2.72552 34.8845 2.72552ZM 26.0852 13.3823L 25.7315 13.3823L 27.0406 9.03607L 27.4748 9.03607L 27.6127 8.58835L 27.626 9.08623C 27.6098 9.39399 27.851 9.66682 28.4846 9.62166L 29.2173 9.62166L 29.4695 8.78477L 29.1938 8.78477C 29.0353 8.78477 28.9617 8.74459 28.9709 8.65846L 28.9576 8.15191L 27.6006 8.15191L 27.6006 8.15454C 27.1619 8.16373 25.8519 8.19682 25.5866 8.26772C 25.2656 8.3507 24.9274 8.59491 24.9274 8.59491L 25.0603 8.14666L 23.791 8.14666L 23.5265 9.03607L 22.1999 13.4487L 21.9425 13.4487L 21.6901 14.2796L 24.2182 14.2796L 24.1334 14.5566L 25.3792 14.5566L 25.4618 14.2796L 25.8113 14.2796L 26.0852 13.3823ZM 25.048 9.91918C 24.8447 9.97564 24.4664 10.1468 24.4664 10.1468L 24.8028 9.03607L 25.8113 9.03607L 25.568 9.84539C 25.568 9.84539 25.2565 9.86377 25.048 9.91918ZM 25.0673 11.506C 25.0673 11.506 24.7505 11.546 24.542 11.5932C 24.3367 11.6557 23.9516 11.8527 23.9516 11.8527L 24.299 10.6967L 25.3127 10.6967L 25.0673 11.506ZM 24.5023 13.3925L 23.4907 13.3925L 23.7839 12.417L 24.7924 12.417L 24.5023 13.3925ZM 26.9384 10.6967L 28.3966 10.6967L 28.187 11.3779L 26.7095 11.3779L 26.4877 12.1226L 27.7805 12.1226L 26.8016 13.5062C 26.7331 13.6078 26.6716 13.6438 26.6033 13.6724C 26.5348 13.7074 26.4448 13.7483 26.3407 13.7483L 25.982 13.7483L 25.7356 14.564L 26.6737 14.564C 27.1613 14.564 27.4493 14.3413 27.662 14.049L 28.3333 13.1268L 28.4774 14.0632C 28.508 14.2386 28.6336 14.3413 28.7186 14.3812C 28.8125 14.4285 28.9096 14.5096 29.0467 14.5217C 29.1937 14.528 29.2999 14.533 29.3705 14.533L 29.8315 14.533L 30.1082 13.6202L 29.9264 13.6202C 29.822 13.6202 29.6423 13.6026 29.6117 13.5698C 29.5811 13.5299 29.5811 13.4684 29.5646 13.3749L 29.4184 12.4364L 28.8196 12.4364L 29.0822 12.1226L 30.5569 12.1226L 30.7837 11.3779L 29.4184 11.3779L 29.6311 10.6967L 30.9922 10.6967L 31.2446 9.85668L 27.1867 9.85668L 26.9384 10.6967ZM 14.6228 13.5822L 14.9632 12.4457L 16.3619 12.4457L 16.6175 11.6004L 15.2174 11.6004L 15.4312 10.9008L 16.7993 10.9008L 17.0528 10.0823L 13.6295 10.0823L 13.3813 10.9008L 14.159 10.9008L 13.9516 11.6004L 13.1717 11.6004L 12.9133 12.4601L 13.6908 12.4601L 13.2371 13.9637C 13.1759 14.1628 13.2659 14.2387 13.3229 14.3311C 13.3813 14.4212 13.4404 14.4808 13.5733 14.5147C 13.7104 14.5454 13.8043 14.5638 13.9319 14.5638L 15.5089 14.5638L 15.7898 13.6274L 15.0908 13.7237C 14.9558 13.7237 14.582 13.7075 14.6228 13.5822ZM 14.7833 8.14154L 14.4288 8.78464C 14.3529 8.92513 14.2847 9.01231 14.2232 9.05248C 14.169 9.08636 14.0618 9.10054 13.9064 9.10054L 13.7214 9.10054L 13.4742 9.92325L 14.0885 9.92325C 14.3838 9.92325 14.6106 9.81453 14.7189 9.76018C 14.8353 9.69768 14.8659 9.73339 14.9559 9.64621L 15.1634 9.46581L 17.0814 9.46581L 17.336 8.60922L 15.932 8.60922L 16.1771 8.14154L 14.7833 8.14154ZM 17.6149 13.5987C 17.5822 13.5514 17.6058 13.4682 17.6557 13.2949L 18.18 11.5531L 20.0449 11.5531C 20.3167 11.5492 20.5129 11.546 20.6406 11.5368C 20.7777 11.5224 20.9268 11.4733 21.0892 11.385C 21.2569 11.2926 21.3427 11.1952 21.4152 11.0833C 21.496 10.9717 21.6258 10.7275 21.7372 10.3509L 22.3962 8.14672L 20.4609 8.15801C 20.4609 8.15801 19.8649 8.24624 19.6025 8.34366C 19.3378 8.45238 18.9595 8.75594 18.9595 8.75594L 19.1343 8.1517L 17.9388 8.1517L 16.2651 13.7237C 16.2057 13.9401 16.1659 14.0971 16.1568 14.1914C 16.1536 14.293 16.2844 14.3936 16.3692 14.4695C 16.4694 14.5454 16.6174 14.533 16.7595 14.5454C 16.9089 14.5567 17.1213 14.5637 17.4145 14.5637L 18.3333 14.5637L 18.6153 13.6079L 17.7928 13.6859C 17.7049 13.6859 17.6413 13.6386 17.6149 13.5987ZM 18.5182 10.3767L 20.4771 10.3767L 20.3526 10.7685C 20.335 10.7777 20.2932 10.749 20.0938 10.7727L 18.3976 10.7727L 18.5182 10.3767ZM 18.9106 9.06265L 20.886 9.06265L 20.7439 9.53453C 20.7439 9.53453 19.8129 9.52534 19.6638 9.55291C 19.0077 9.66688 18.6244 10.0188 18.6244 10.0188L 18.9106 9.06265ZM 20.3964 12.0805C 20.3802 12.139 20.3545 12.1747 20.3187 12.2015C 20.2789 12.2273 20.2146 12.2364 20.1186 12.2364L 19.8395 12.2364L 19.8559 11.7593L 18.695 11.7593L 18.6479 14.0919C 18.646 14.2603 18.6623 14.3577 18.7849 14.4357C 18.9076 14.5331 19.2856 14.5454 19.7945 14.5454L 20.522 14.5454L 20.7846 13.6723L 20.1513 13.7072L 19.9407 13.7196C 19.9119 13.7072 19.8844 13.6959 19.8538 13.6652C 19.8272 13.6387 19.7822 13.655 19.7895 13.4867L 19.7945 12.8887L 20.4587 12.8612C 20.8173 12.8612 20.9706 12.744 21.1014 12.6324C 21.2262 12.5256 21.267 12.4027 21.3141 12.2364L 21.4255 11.7071L 20.5128 11.7071L 20.3964 12.0805Z" transform="translate(57.5291 81.7209) scale(11.907)" fill="#FEFEFE"/>
</g>
</g>
</g>
</g>
</svg>

