<svg width="512" height="407" viewBox="0 0 512 407" version="1.1" xmlns="http://www.w3.org/2000/svg" xmlns:xlink="http://www.w3.org/1999/xlink">
<g id="Canvas" fill="none">
<g id="VTB24_Logo">
<g id="Vector">
<path d="M 29.4667 15.5L 5.29123 15.5C 5.29123 15.5 6.02105 17.7716 6.8421 18.9296C 7.07018 18.9296 28.3263 18.9296 28.3263 18.9296C 28.3263 18.9296 32.4316 22.0474 34.393 27.5704L 11.814 27.5704C 7.93684 24.4526 5.01754 20.2658 3.46667 15.5C 3.64912 14.921 3.87719 14.342 4.10526 13.7629L 29.4211 13.7629C 31.3825 12.4267 33.3439 10.3333 33.3439 10.3333L 5.88421 10.3333C 6.24912 9.75431 6.61404 9.17529 7.07018 8.59626L 34.8035 8.59626C 35.5333 7.75 36.993 5.16666 36.993 5.16666L 10.0807 5.16666C 10.7193 4.5431 11.4035 3.96408 12.1333 3.42959L 37.814 3.42959C 38.4982 1.78161 39 5.43704e-06 39 5.43704e-06L 11.1754 5.43704e-06C 5.8386 3.69684 1.82456 9.13075 0 15.5C 1.77895 21.8247 5.79298 27.2586 11.1754 31L 39 31C 39 31 38.4982 22.7601 29.4667 15.5Z" transform="scale(13.1282)" fill="#004B8D"/>
</g>
</g>
</g>
</svg>

