<svg width="512" height="332" viewBox="0 0 512 332" version="1.1" xmlns="http://www.w3.org/2000/svg" xmlns:xlink="http://www.w3.org/1999/xlink">
<g id="Canvas" fill="none">
<g id="logo-w1">
<g id="Group">
<g id="Vector">
<path fill-rule="evenodd" clip-rule="evenodd" d="M 27.5166 7.15518C 26.4996 6.06644 24.7751 6.1314 23.6855 7.29498L 19.728 11.5243L 19.728 2.99509C 19.728 1.34716 18.5518 3.05112e-10 17.11 3.05112e-10C 16.4963 3.05112e-10 15.9367 0.257005 15.4878 0.666518C 15.3258 0.78222 15.1759 0.91373 15.0403 1.05909L 5.23741 11.5398L 5.23741 2.9965C 5.23741 1.34857 4.05697 0.00141211 2.61799 0.00141211C 1.17476 0.00141211 0 1.34857 0 2.9965L 0 17.972C 0 18.5975 0.171881 19.1779 0.464506 19.6609C 0.565362 19.8529 0.686105 20.0351 0.838099 20.1989C 1.15913 20.5406 1.55261 20.7552 1.96882 20.8724L 1.97877 20.8753C 2.88789 21.1238 3.9277 20.8555 4.66921 20.0591L 14.4963 9.56001L 14.4963 17.972C 14.4963 18.4182 14.5872 18.839 14.7406 19.2203C 14.8628 19.579 15.0531 19.9164 15.3173 20.1989C 16.3344 21.2876 18.0603 21.2241 19.1484 20.0591L 27.3931 11.2489C 28.4826 10.0867 28.5394 8.24392 27.5209 7.15235" transform="scale(15.0588)" fill="#0B0B0A"/>
</g>
<g id="Vector_2">
<path fill-rule="evenodd" clip-rule="evenodd" d="M 10.7054 2.83373C 10.7381 2.07967 10.4994 1.33125 9.98234 0.776285C 9.72775 0.502989 9.41318 0.291754 9.06308 0.15901C 8.71299 0.026265 8.33681 -0.0244119 7.9638 0.01092C 7.65454 0.028761 7.35209 0.108491 7.07457 0.245331C 6.72422 0.405763 6.40941 0.633756 6.1484 0.916085L 0.859849 6.56454C -0.232521 7.73236 -0.290762 9.57375 0.72348 10.6611C 1.7434 11.7498 3.46506 11.6863 4.55601 10.5227L 5.47224 9.5441L 5.47224 17.9716C 5.47224 19.6195 6.65268 20.9667 8.08881 20.9667C 9.52778 20.9667 10.7025 19.6195 10.7025 17.9716L 10.7025 2.82809" transform="translate(350.75 2.52941) scale(15.0588)" fill="#A52437"/>
</g>
</g>
</g>
</g>
</svg>

