<svg width="32" height="27" viewBox="0 0 32 27" version="1.1" xmlns="http://www.w3.org/2000/svg" xmlns:xlink="http://www.w3.org/1999/xlink">
<g id="Canvas" fill="none">
<g id="Group">
<g id="Vector">
<path d="M 2.78571 0C 1.25849 0 0 1.26373 0 2.7973L 0 24.5135C 0 25.8749 1.12045 27 2.47619 27L 29.5238 27C 30.8796 27 32 25.8749 32 24.5135L 32 6.21622C 32 4.85483 30.8796 3.72973 29.5238 3.72973L 28.2857 3.72973L 28.2857 0.932432C 28.2857 0.444211 27.8433 6.21622e-05 27.3571 0L 2.78571 0ZM 2.78571 1.86486L 26.4286 1.86486L 26.4286 3.72973L 2.78571 3.72973C 2.25522 3.72973 1.85714 3.33 1.85714 2.7973C 1.85714 2.2646 2.25522 1.86486 2.78571 1.86486ZM 1.85714 5.42948C 2.14837 5.53444 2.46056 5.59459 2.78571 5.59459L 29.5238 5.59459C 29.8828 5.59459 30.1429 5.85571 30.1429 6.21622L 30.1429 11.0135L 22.0952 11.0135C 21.0824 11.0135 20.2381 11.8614 20.2381 12.8784L 20.2381 17.8513C 20.2381 18.8684 21.0824 19.7162 22.0952 19.7162L 30.1429 19.7162L 30.1429 24.5135C 30.1429 24.874 29.8828 25.1351 29.5238 25.1351L 2.47619 25.1351C 2.11717 25.1351 1.85714 24.874 1.85714 24.5135L 1.85714 5.42948ZM 22.0952 12.8784L 30.1429 12.8784L 30.1429 17.8513L 22.0952 17.8513L 22.0952 12.8784ZM 24.5714 14.1216C 23.8877 14.1216 23.3333 14.6783 23.3333 15.3649C 23.3333 16.0515 23.8877 16.6081 24.5714 16.6081C 25.2552 16.6081 25.8095 16.0515 25.8095 15.3649C 25.8095 14.6783 25.2552 14.1216 24.5714 14.1216Z" fill="#47BF6F"/>
</g>
</g>
</g>
</svg>

