<svg width="512" height="512" viewBox="0 0 512 512" version="1.1" xmlns="http://www.w3.org/2000/svg" xmlns:xlink="http://www.w3.org/1999/xlink">
<g id="Canvas" fill="none">
<g id="webmoney">
<g id="g4473">
<g id="Combined Shape">
<path d="M 17.9144 -3.24594e-07C 20.723 -3.24594e-07 23.3951 0.653408 25.793 1.82224C 26.1691 1.99453 26.5476 2.20072 26.9224 2.4071L 25.2783 3.88602L 22.8134 1.307L 18.5661 5.08913L 16.065 2.37229L 8.25488 9.42164L 13.2552 14.9578L 11.3031 16.6767L 16.2364 22.2128L 14.2842 23.931L 21.3409 31.8055L 25.5175 27.9541L 29.1501 32.0815C 28.4302 32.6317 27.6424 33.183 26.787 33.6636C 24.1833 35.142 21.1684 36 17.949 36C 8.04861 36 0.00011356 27.9211 0.00011356 17.9845C -0.0348504 8.11517 8.01507 -3.24594e-07 17.9144 -3.24594e-07ZM 14.6254 16.8834L 18.9073 13.032L 22.7446 17.3301L 18.4618 21.1811L 14.6254 16.8834ZM 17.6749 24.3109L 21.922 20.4254L 25.793 24.7231L 21.5109 28.5747L 17.6749 24.3109ZM 11.5786 9.55965L 15.8593 5.70826L 19.6957 10.0063L 15.4136 13.8575L 11.5786 9.55965ZM 19.4212 7.49586L 22.6071 4.60763L 25.4852 7.80561L 22.2993 10.728L 19.4212 7.49586ZM 25.1081 20.7342L 28.2929 17.8458L 31.1708 21.0772L 27.9847 23.9674L 25.1081 20.7342ZM 27.9165 27.2338L 31.1026 24.3448L 33.9782 27.5426L 30.7933 30.4646L 27.9165 27.2338ZM 29.2184 12.3786L 31.3419 10.4528L 33.2594 12.5855L 31.1363 14.5106L 29.2184 12.3786ZM 26.478 6.01728L 28.6016 4.05775L 30.5206 6.22366L 28.3954 8.14927L 26.478 6.01728ZM 31.9242 18.7405L 34.0476 16.8149L 36 18.9468L 33.8428 20.8719L 31.9242 18.7405ZM 22.3675 13.9607L 25.5536 11.0723L 28.4302 14.2696L 25.2455 17.1585L 22.3675 13.9607Z" transform="scale(14.2222)" fill="#036CB5"/>
</g>
</g>
</g>
</g>
</svg>

