<svg width="512" height="207" viewBox="0 0 512 207" version="1.1" xmlns="http://www.w3.org/2000/svg" xmlns:xlink="http://www.w3.org/1999/xlink">
<g id="Canvas" fill="none">
<g id="Group 2">
<g id="g304">
<g id="g306">
<g id="g312">
<g id="path314">
<path d="M 37.6 1.22386C 37.6 0.547882 37.3406 1.20261e-08 37.0208 1.20261e-08L 0.57931 1.20261e-08C 0.259269 1.20261e-08 -9.00969e-07 0.547882 -9.00969e-07 1.22386L -9.00969e-07 13.9758C -9.00969e-07 14.6521 0.259269 15.2 0.57931 15.2L 37.0208 15.2C 37.3406 15.2 37.6 14.6521 37.6 13.9758L 37.6 1.22386Z" transform="translate(0 206.979) scale(13.617 -13.617)" fill="#0D0D0D"/>
</g>
</g>
</g>
</g>
<g id="g394">
<g id="g396">
<g id="g402">
<g id="path404">
<path d="M 13.6077 11.3353L 12.75 11.3353L 11.7897 4.20233L 11.7587 4.20233L 10.707 11.3353L 6.06033 11.3353L 5.006 4.20233L 4.97567 4.20233L 4.018 11.3353L -6.20524e-07 11.3353L 2.44933 -1.72933e-07L 7.31833 -1.72933e-07L 8.369 7.34333L 8.401 7.34333L 9.45133 -1.72933e-07L 14.3203 -1.72933e-07L 14.5643 1.13367C 13.9417 1.795 13.6077 2.68133 13.6077 3.80033L 13.6077 11.3353Z" transform="translate(110.154 179.436) scale(13.617 -13.617)" fill="#FDDF12"/>
</g>
</g>
<g id="g406">
<g id="path408">
<path d="M 0 10.2017L 0 2.66667C 0 1.54767 0.334 0.661334 0.956667 1.52588e-07L 3.15933 10.2017L 0 10.2017Z" transform="translate(295.452 164) scale(13.617 -13.617)" fill="white"/>
</g>
</g>
<g id="g410">
<g id="path412">
<path d="M 5.01067 11.6363L 5.01067 4.28867C 5.01067 3.39433 4.58633 3.046 4.11567 3.046C 3.645 3.046 3.22067 3.39433 3.22067 4.28867L 3.22067 11.6363L 2.26267 11.6363L 1.37329e-07 1.15267C 0.918 0.389 2.308 -1.32243e-07 4.11567 -1.32243e-07C 7.53767 -1.32243e-07 9.50067 1.368 9.50067 4.10133L 9.50067 11.6363L 5.01067 11.6363Z" transform="translate(312.723 183.532) scale(13.617 -13.617)" fill="#FDDF12"/>
</g>
</g>
</g>
</g>
<g id="g414">
<g id="path416">
<path d="M 0.668667 11.3353L -1.39872e-08 11.3353L 2.40633 -1.72933e-07L 3.07567 -1.72933e-07L 0.668667 11.3353Z" transform="translate(60.9415 179.426) scale(13.617 -13.617)" fill="#FDDF12"/>
</g>
</g>
<g id="g418">
<g id="path420">
<path d="M 2.406 0L 3.075 0L 0.668333 11.3353L 2.16166e-08 11.3353L 2.406 0Z" transform="translate(85.8404 179.426) scale(13.617 -13.617)" fill="#FDDF12"/>
</g>
</g>
<g id="g422">
<g id="g424">
<g id="g430">
<g id="path432">
<path d="M 0.436149 0.552C 0.430149 0.628 0.389149 0.665667 0.311482 0.665667C 0.251815 0.665667 0.191482 0.634333 0.191482 0.568667C 0.191482 0.487667 0.264482 0.478 0.328815 0.462667C 0.443482 0.433333 0.611815 0.401 0.611815 0.250667C 0.611815 0.0643333 0.449482 -6.03994e-09 0.288149 -6.03994e-09C 0.116815 -6.03994e-09 -0.00485137 0.0663333 0.000148634 0.255667L 0.164482 0.255667C 0.158482 0.172667 0.206482 0.116333 0.290482 0.116333C 0.354815 0.116333 0.440482 0.136 0.440482 0.216C 0.440482 0.304667 0.333149 0.311 0.268482 0.327333C 0.163815 0.353333 0.0198153 0.401 0.0198153 0.534333C 0.0198153 0.705667 0.178149 0.782 0.332149 0.782C 0.477815 0.782 0.591149 0.703 0.591149 0.552L 0.436149 0.552Z" transform="translate(454.612 39.9681) scale(13.617 -13.617)" fill="#FDDF12"/>
</g>
</g>
</g>
</g>
<g id="g434">
<g id="path436">
<path d="M 0.486 0L 0.351667 0L 0.153333 0.644333L 0.151 0.642333L 0.151 0L 1.84377e-08 0L 1.84377e-08 0.750667L 0.264333 0.750667L 0.421333 0.204667L 0.423333 0.204667L 0.594 0.750667L 0.848667 0.750667L 0.848667 0L 0.698 0L 0.698 0.642333L 0.696333 0.644333L 0.486 0Z" transform="translate(464.41 39.7553) scale(13.617 -13.617)" fill="#FDDF12"/>
</g>
</g>
</g>
</g>
</svg>

