<svg width="512" height="679" viewBox="0 0 512 679" version="1.1" xmlns="http://www.w3.org/2000/svg" xmlns:xlink="http://www.w3.org/1999/xlink">
<g id="Canvas" fill="none">
<g id="logo4">
<g id="Group">
<g id="Vector">
<path d="M 2.1345e-06 24.315C 2.1345e-06 21.5663 0.227314 19.822 5.89272 15.5581C 10.5789 12.0342 25.5818 0 25.5818 0L 25.5818 20.0863L 37 20.0863L 37 49L 3.56711 49C 1.6087 49 2.1345e-06 47.379 2.1345e-06 45.4056L 2.1345e-06 24.315Z" transform="scale(13.8378)" fill="#FFCF01"/>
</g>
<g id="Group_2">
<g id="Group_3">
<g id="Vector_2">
<path d="M 20.9655 1.07541e-06L 20.9655 11.6465L 0 26.0417L 26.5085 17.3376L 26.5085 1.07541e-06L 20.9655 1.07541e-06Z" transform="translate(63.6419 278.176) scale(13.8378)" fill="#D3AB07"/>
</g>
<g id="Vector_3">
<path d="M 1.06159 1.55869C 2.2856 0.0786515 4.08664 -0.432317 5.06584 0.395802C 6.04505 1.22392 5.8527 3.09159 4.6287 4.57164C 3.40469 6.05168 1.60365 6.56265 0.624444 5.73453C -0.354762 4.88879 -0.162418 3.02112 1.06159 1.55869Z" transform="translate(206.466 248.324) scale(13.8378)" fill="black"/>
</g>
</g>
</g>
</g>
</g>
</g>
</svg>

