<?xml version="1.0" encoding="UTF-8"?>
<svg width="512px" height="512px" viewBox="0 0 512 512" version="1.1" xmlns="http://www.w3.org/2000/svg" xmlns:xlink="http://www.w3.org/1999/xlink">
    <!-- Generator: Sketch 49 (51002) - http://www.bohemiancoding.com/sketch -->
    <title>AICoin</title>
    <desc>Created with Sketch.</desc>
    <defs>
        <path d="M503.171017,334.819338 L8.82798276,334.819338 C3.95299228,334.819338 0,330.873758 0,326.007909 L0,8.81142922 C0,3.94557994 3.95299228,0 8.82798276,0 L503.172017,0 C508.047008,0 512,3.94557994 512,8.81142922 L512,326.007909 C511.999,330.874757 508.046008,334.819338 503.171017,334.819338 Z" id="path-1"></path>
    </defs>
    <g id="AICoin" stroke="none" stroke-width="1" fill="none" fill-rule="evenodd">
        <g id="Group" transform="translate(0.000000, 89.000000)">
            <g id="Shape-Copy" fill-rule="nonzero">
                <use fill="#F6F5F3" fill-rule="evenodd" xlink:href="#path-1"></use>
                <path stroke="#A9A9A9" stroke-width="1.5" d="M503.171017,334.069338 C507.632352,334.069338 511.249085,330.459952 511.25,326.007909 L511.25,8.81142922 C511.25,4.36010894 507.633109,0.75 503.172017,0.75 L8.82798276,0.75 C4.36689105,0.75 0.75,4.36010894 0.75,8.81142922 L0.75,326.007909 C0.75,330.459229 4.36689105,334.069338 8.82798276,334.069338 L503.171017,334.069338 Z"></path>
            </g>
            <path d="M255.964326,48.2035623 L359.501171,107.806616 L359.501171,227.012723 L255.964326,286.615776 L152.427481,227.012723 L152.427481,107.806616 L255.964326,48.2035623 Z M256.134261,77.624644 L178.297742,122.461358 L178.297742,212.134785 L256.134261,256.971499 L333.97078,212.134785 L333.97078,122.461358 L256.134261,77.624644 Z" id="Combined-Shape" fill="#02BF56"></path>
        </g>
    </g>
</svg>