<?xml version="1.0" encoding="UTF-8"?>
<svg width="512px" height="512px" viewBox="0 0 512 512" version="1.1" xmlns="http://www.w3.org/2000/svg" xmlns:xlink="http://www.w3.org/1999/xlink">
    <!-- Generator: Sketch 49 (51002) - http://www.bohemiancoding.com/sketch -->
    <title>DashCoin</title>
    <desc>Created with Sketch.</desc>
    <defs>
        <path d="M502.830113,334.819338 L8.8220017,334.819338 C3.95031408,334.819338 0,330.873758 0,326.007909 L0,8.81142922 C0,3.94557994 3.95031408,0 8.8220017,0 L502.831113,0 C507.7028,0 511.653114,3.94557994 511.653114,8.81142922 L511.653114,326.007909 C511.652115,330.874757 507.701801,334.819338 502.830113,334.819338 Z" id="path-1"></path>
    </defs>
    <g id="DashCoin" stroke="none" stroke-width="1" fill="none" fill-rule="evenodd">
        <g id="Group-2-Copy" transform="translate(0.000000, 89.000000)" fill-rule="nonzero">
            <g id="Shape">
                <use fill="#F6F5F3" fill-rule="evenodd" xlink:href="#path-1"></use>
                <path stroke="#A9A9A9" stroke-width="1" d="M502.830113,334.319338 C507.426018,334.319338 511.152172,330.598232 511.153114,326.007909 L511.153114,8.81142922 C511.153114,4.22185662 507.426792,0.5 502.831113,0.5 L8.8220017,0.5 C4.22632233,0.5 0.5,4.22185662 0.5,8.81142922 L0.5,326.007909 C0.5,330.597482 4.22632233,334.319338 8.8220017,334.319338 L502.830113,334.319338 Z"></path>
            </g>
            <g id="dash-3" transform="translate(137.846154, 45.955595)">
                <ellipse id="Oval" fill="#2573C2" cx="118.153846" cy="118.171531" rx="118.153846" ry="118.171531"></ellipse>
                <g id="Group" transform="translate(41.282669, 72.611423)" fill="#FFFFFF">
                    <path d="M154.881621,14.4942521 C154.722609,11.8492847 153.943719,9.27826909 152.607434,6.98745704 C151.422961,4.62682966 149.3146,2.78554031 146.850898,1.84128936 C144.338437,0.593551589 141.55498,-0.0147123343 138.749106,0.0708188214 L33.6153289,0.0708188214 L26.0820839,22.5675977 L121.33736,22.5675977 L106.29456,68.5526191 L11.0629729,68.5526191 L3.52972798,91.049398 L109.160983,91.049398 C112.308463,90.9586141 115.420442,90.3607247 118.376179,89.2789275 C121.33736,87.602882 124.724952,85.9032303 127.591375,83.5426029 C130.389844,81.3441142 132.918385,78.8244508 135.12462,76.0358079 C136.948356,73.3035087 138.503271,70.4022314 139.767752,67.3723054 L153.720838,23.6534863 C154.990203,20.7769821 155.393478,17.5949148 154.881621,14.4942521 Z" id="Shape"></path>
                    <polygon id="Shape" points="63.6298614 35.1261354 7.58062385 35.1261354 0.047378899 55.9232626 56.6651632 55.9232626"></polygon>
                </g>
            </g>
        </g>
    </g>
</svg>