<svg width="392" height="256" viewBox="0 0 392 256" fill="none" xmlns="http://www.w3.org/2000/svg">
<g id="Edo" clip-path="url(#clip0)">
<path id="Vector" d="M384.517 255H6.74623C3.57184 255 1 252.429 1 249.263V6.73714C1 3.57031 3.57184 1 6.74623 1H384.518C387.692 1 390.264 3.57031 390.264 6.73714V249.263C390.263 252.43 387.691 255 384.517 255Z" fill="#F6F5F3" stroke="#A9A9A9" stroke-width="2"/>
<path id="Vector_2" fill-rule="evenodd" clip-rule="evenodd" d="M92.5 185C41.4137 185 0 143.586 0 92.5C0 41.4137 41.4137 0 92.5 0C143.586 0 185 41.4137 185 92.5C185 143.586 143.586 185 92.5 185ZM75.4987 138.023L85.3812 147.975C86.8745 149.471 88.9018 150.312 91.0159 150.312C93.1301 150.312 95.1574 149.471 96.6507 147.975L106.586 138.023L91.0162 122.427L75.4987 138.023ZM115.687 84.5891L131.252 68.9982L115.687 53.4073L100.122 68.9982L115.687 84.5891ZM111.818 132.941L147.979 96.7205C151.09 93.601 151.09 88.5515 147.979 85.432L138.043 75.4796L96.2448 117.345L111.818 132.941ZM69.0179 131.332L110.748 89.5321L95.1834 73.9412L53.4529 115.741L69.0179 131.332ZM46.9206 109.362L62.5613 93.7663L46.9912 78.1696L37.0572 88.122C33.9258 91.2218 33.8937 96.2712 36.9855 99.4105L46.9206 109.362ZM109.167 46.9948L99.2314 37.025C97.7381 35.5285 95.7108 34.6875 93.5967 34.6875C91.4826 34.6875 89.4553 35.5285 87.962 37.025L51.7995 73.2486L67.3714 88.8429L109.167 46.9948Z" transform="translate(103 35)" fill="black"/>
</g>
<defs>
<clipPath id="clip0">
<rect width="391.264" height="256" fill="white"/>
</clipPath>
</defs>
</svg>
