<svg width="392" height="256" viewBox="0 0 392 256" fill="none" xmlns="http://www.w3.org/2000/svg">
<g id="Etp" clip-path="url(#clip0)">
<path id="Vector" d="M384.517 255H6.74623C3.57184 255 1 252.429 1 249.263V6.73714C1 3.57031 3.57184 1 6.74623 1H384.518C387.692 1 390.264 3.57031 390.264 6.73714V249.263C390.263 252.43 387.691 255 384.517 255Z" fill="#F6F5F3" stroke="#A9A9A9" stroke-width="2"/>
<path id="Vector_2" d="M28.8665 14.3962C28.8665 22.3471 22.4047 28.7924 14.4324 28.7924C6.46018 28.7924 0 22.3471 0 14.3962C0 6.44535 6.46256 0 14.4324 0C22.4023 0 28.8665 6.44535 28.8665 14.3962Z" transform="translate(137.898 67.7676)" fill="#016DA4"/>
<path id="Vector_3" d="M28.2217 14.0767C28.2217 21.846 21.907 28.1511 14.1136 28.1511C6.32025 28.1511 0 21.8468 0 14.0767C0 6.30662 6.31787 0 14.1136 0C21.9094 0 28.2217 6.30345 28.2217 14.0767Z" transform="translate(184.066 51)" fill="#09A1D3"/>
<path id="Vector_4" d="M28.0524 13.9887C28.0524 21.7136 21.7719 27.979 14.0238 27.979C6.27573 27.979 0 21.716 0 13.9887C0 6.26143 6.2805 2.2467e-08 14.0238 2.2467e-08C15.866 -0.000104092 17.6902 0.361648 19.3923 1.0646C21.0943 1.76755 22.6408 2.79794 23.9435 4.09692C25.2461 5.39591 26.2795 6.93804 26.9845 8.63528C27.6895 10.3325 28.0524 12.1516 28.0524 13.9887" transform="translate(224.641 67.5156)" fill="#09A8FF"/>
<path id="Vector_5" d="M27.8267 13.825C27.8267 21.4603 21.6217 27.6504 13.969 27.6504C12.1396 27.6642 10.3255 27.3168 8.63132 26.6283C6.93715 25.9397 5.39639 24.9235 4.09786 23.6384C2.79933 22.3532 1.76871 20.8245 1.0654 19.1403C0.362089 17.4561 0 15.6498 0 13.8254C0 12.001 0.362089 10.1947 1.0654 8.51048C1.76871 6.82629 2.79933 5.29757 4.09786 4.01242C5.39639 2.72728 6.93715 1.71113 8.63132 1.02256C10.3255 0.333977 12.1396 -0.0134186 13.969 0.000396425C21.6217 0.00118921 27.8267 6.19047 27.8267 13.825Z" transform="translate(247.172 96.5605)" fill="#02D5FF"/>
<path id="Vector_6" d="M27.1572 13.5408C27.1572 21.0199 21.0794 27.0871 13.5818 27.0871C6.08414 27.0871 0 21.0199 0 13.5408C-7.51549e-08 11.7626 0.351219 10.0018 1.03361 8.35896C1.716 6.71612 2.71619 5.22339 3.97708 3.96601C5.23797 2.70863 6.73486 1.71122 8.3823 1.03073C10.0297 0.35024 11.7954 0 13.5786 0C15.3618 0 17.1275 0.35024 18.7749 1.03073C20.4224 1.71122 21.9192 2.70863 23.1801 3.96601C24.441 5.22339 25.4412 6.71612 26.1236 8.35896C26.806 10.0018 27.1572 11.7626 27.1572 13.5408" transform="translate(247.844 135.648)" fill="#FFCB00"/>
<path id="Vector_7" d="M23.055 11.5041C23.0533 13.7773 22.3757 15.999 21.108 17.8883C19.8403 19.7775 18.0394 21.2496 15.9328 22.1183C13.8263 22.987 11.5088 23.2134 9.27325 22.7689C7.03771 22.3243 4.98452 21.2288 3.37325 19.6208C1.76197 18.0128 0.664947 15.9645 0.220864 13.7348C-0.223219 11.5052 0.00557499 9.1943 0.878321 7.0943C1.75107 4.99429 3.22858 3.19947 5.12408 1.93672C7.01958 0.673978 9.24796 6.54121e-07 11.5275 0C13.0421 -4.34602e-07 14.5418 0.297635 15.9409 0.875878C17.3401 1.45412 18.6112 2.30164 19.6818 3.37001C20.7523 4.43838 21.6013 5.70666 22.1801 7.10235C22.7589 8.49804 23.0562 9.9938 23.055 11.5041Z" transform="translate(232.73 167.881)" fill="#FF9700"/>
<path id="Vector_8" d="M21.5238 10.7367C21.5229 12.8591 20.8909 14.9336 19.7078 16.6978C18.5246 18.4621 16.8435 19.8369 14.8768 20.6484C12.9102 21.4599 10.7465 21.6718 8.65917 21.2571C6.57185 20.8424 4.6547 19.8198 3.15013 18.3186C1.64556 16.8175 0.621122 14.9051 0.206347 12.8234C-0.208428 10.7417 0.0050846 8.58408 0.819891 6.62336C1.6347 4.66264 3.01421 2.98688 4.784 1.80794C6.55379 0.629008 8.63438 -0.000156548 10.7627 2.9218e-08C12.1764 -1.59283e-07 13.5762 0.277749 14.8821 0.817387C16.1881 1.35703 17.3746 2.14798 18.374 3.14505C19.3733 4.14211 20.1658 5.32576 20.7063 6.62836C21.2468 7.93097 21.5246 9.327 21.5238 10.7367V10.7367Z" transform="translate(200.027 182.537)" fill="#FC6D0B"/>
<path id="Vector_9" d="M21.4221 10.6836C21.4216 12.7961 20.793 14.861 19.6157 16.6173C18.4384 18.3735 16.7653 19.7422 14.808 20.5502C12.8506 21.3582 10.697 21.5693 8.61938 21.1568C6.54176 20.7443 4.63345 19.7266 3.13579 18.2326C1.63812 16.7385 0.618362 14.8352 0.205447 12.7632C-0.207468 10.6912 0.00500939 8.54361 0.816017 6.59204C1.62702 4.64047 3.00014 2.97255 4.76172 1.79918C6.5233 0.625806 8.59423 -0.000313422 10.7126 1.177e-07C13.5533 0.00126124 16.2771 1.12739 18.2854 3.13079C20.2936 5.13419 21.4219 7.85088 21.4221 10.6836V10.6836Z" transform="translate(168.398 182.312)" fill="#FC0000"/>
<path id="Vector_10" d="M17.8446 8.9022C17.8436 10.6617 17.3196 12.3815 16.3386 13.8441C15.3576 15.3066 13.9638 16.4463 12.3334 17.119C10.703 17.7917 8.90916 17.9672 7.17872 17.6234C5.44828 17.2795 3.85892 16.4317 2.6116 15.1872C1.36427 13.9427 0.514977 12.3573 0.171094 10.6315C-0.172788 8.90569 0.00418283 7.11696 0.67963 5.49144C1.35508 3.86592 2.49867 2.47662 3.96583 1.49916C5.43299 0.521709 7.15784 2.51452e-07 8.9223 0C10.0943 0.000312289 11.2548 0.230822 12.3374 0.678369C13.4201 1.12592 14.4038 1.78173 15.2323 2.60838C16.0608 3.43502 16.7179 4.41631 17.1662 5.4962C17.6144 6.5761 17.8449 7.73346 17.8446 8.9022" transform="translate(144.125 169.205)" fill="#FF220A"/>
<path id="Vector_11" d="M7.6495 0L22.3316 23.7836L34.4537 0H42.135V44.7924H36.2107V27.3511L36.7672 8.52325L24.5822 32.027H20.0507L5.33525 8.616L5.92116 27.3519V44.7932H0V0.000793561L7.6495 0Z" transform="translate(116 112.609)" fill="#0F70A0"/>
<path id="Vector_12" d="M17.0035 45.8175L0 0H7.54694L19.9529 35.8974L32.4177 0H39.9957L22.9604 45.8175H17.0035" transform="translate(166.062 109.721)" fill="#0F70A0"/>
<path id="Vector_13" d="M4.38045 41.853C7.45074 42.5134 10.9893 42.9177 13.4037 42.9177C14.6882 42.9168 15.9684 42.7702 17.2197 42.4809C18.3425 42.2322 19.4157 41.7981 20.3949 41.1966C21.2507 40.6655 21.9726 39.9453 22.5049 39.0918C23.0145 38.2815 23.2625 37.3088 23.2625 36.1164C23.2625 34.2462 22.8221 32.8153 21.911 31.7379C20.8982 30.54 19.6055 29.4879 18.0632 28.6151C16.3481 27.6498 14.5668 26.8063 12.7327 26.0909C10.7278 25.3067 8.79686 24.3463 6.96261 23.221C5.12955 22.1019 3.53282 20.6373 2.26177 18.909C0.936507 17.0935 0.264732 14.731 0.264732 11.8849C0.264732 9.87598 0.667002 8.08904 1.45723 6.57323C2.23702 5.07698 3.35477 3.78187 4.72231 2.79006C6.05711 1.81731 7.62485 1.09667 9.37782 0.649534C11.142 0.209815 12.9543 -0.00830654 14.7727 0.000241822C16.5709 0.00387436 18.3677 0.101787 20.1557 0.293574C21.9835 0.479906 23.7878 0.850172 25.541 1.39872L25.921 1.51764L26.9243 1.88073L26.266 6.91572C26.266 6.91572 21.6431 6.09756 19.8186 5.91918C19.1993 5.85814 18.5466 5.64171 17.8136 5.5442C17.0806 5.44669 16.0884 5.4007 14.8427 5.4007C13.6404 5.39533 12.4416 5.52834 11.2699 5.7971C10.2229 6.04445 9.3174 6.43846 8.57249 6.97121C7.85359 7.48316 7.26115 8.15176 6.84018 8.92623C6.4228 9.6873 6.20895 10.6386 6.20895 11.7596C6.20895 13.5918 6.64859 15.0037 7.5541 16.0732C8.56375 17.2687 9.85403 18.3089 11.3916 19.1595C13.107 20.107 14.8884 20.9304 16.722 21.6235C18.7331 22.391 20.6689 23.3419 22.5049 24.4641C24.3461 25.5919 25.9454 27.0719 27.2105 28.8188C28.5334 30.6565 29.2028 33.0491 29.2028 35.9285C29.2028 38.1277 28.7448 40.051 27.8449 41.6366C26.9614 43.1989 25.7221 44.5323 24.2268 45.5292C22.7569 46.5114 21.0596 47.2329 19.1818 47.6697C17.3112 48.1028 15.3964 48.3177 13.4761 48.3103C11.4667 48.3065 9.45914 48.1874 7.46347 47.9535C5.44454 47.7242 3.45455 47.2888 1.52481 46.6541L1.21238 46.5495L0 45.9985V40.8113" transform="translate(209.004 110.602)" fill="#0F70A0"/>
</g>
<defs>
<clipPath id="clip0">
<rect width="391.264" height="256" fill="white"/>
</clipPath>
</defs>
</svg>
