<svg width="392" height="256" viewBox="0 0 392 256" fill="none" xmlns="http://www.w3.org/2000/svg">
<g id="Iota" clip-path="url(#clip0)">
<path id="Vector" d="M384.517 255H6.74623C3.57184 255 1 252.429 1 249.263V6.73714C1 3.57031 3.57184 1 6.74623 1H384.518C387.692 1 390.264 3.57031 390.264 6.73714V249.263C390.263 252.43 387.691 255 384.517 255Z" fill="#F6F5F3" stroke="#A9A9A9" stroke-width="2"/>
<path id="Vector_2" d="M127.997 19.7219C133.372 19.7219 137.732 15.2981 137.732 9.86096C137.732 4.42384 133.372 0 127.997 0C122.621 0.0247142 118.262 4.44855 118.262 9.88567C118.262 15.3228 122.621 19.7219 127.997 19.7219ZM130.867 45.3508C135.425 45.3508 139.116 41.6189 139.116 36.9974C139.116 32.4005 135.425 28.644 130.867 28.644C126.309 28.644 122.619 32.3758 122.619 36.9974C122.619 41.6189 126.309 45.3508 130.867 45.3508V45.3508ZM153.509 48.6126C158.042 48.6126 161.733 44.8807 161.733 40.2839C161.733 35.687 158.042 31.9552 153.509 31.9552C148.976 31.9552 145.285 35.687 145.285 40.2839C145.285 44.8807 148.976 48.6126 153.509 48.6126ZM150.79 70.539C154.679 70.539 157.825 67.3509 157.825 63.4213C157.825 59.4917 154.679 56.3036 150.79 56.3036C146.901 56.3036 143.755 59.4917 143.755 63.4213C143.755 67.3509 146.901 70.539 150.79 70.539ZM168.916 77.6498C172.829 77.6498 176 74.4369 176 70.4826C176 66.5284 172.829 63.3155 168.916 63.3155C165.002 63.3155 161.831 66.5284 161.831 70.4826C161.831 74.4369 165.002 77.6498 168.916 77.6498ZM128.011 67.572C131.999 67.572 135.219 64.3098 135.219 60.2814C135.219 56.253 131.999 52.9907 128.011 52.9907C124.023 52.9907 120.802 56.253 120.802 60.2814C120.802 64.2851 124.023 67.572 128.011 67.572ZM121.478 85.0195C124.822 85.0195 127.522 82.2762 127.522 78.9151C127.522 75.5293 124.822 72.8107 121.478 72.8107C118.134 72.8107 115.434 75.554 115.434 78.9151C115.434 82.2762 118.134 85.0195 121.478 85.0195ZM144.147 88.1034C147.466 88.1034 150.142 85.3848 150.142 82.0237C150.142 78.6625 147.466 75.944 144.147 75.944C140.828 75.944 138.153 78.6625 138.153 82.0237C138.128 85.3848 140.828 88.1034 144.147 88.1034ZM162.222 95.1872C165.566 95.1872 168.266 92.4439 168.266 89.0581C168.266 85.6722 165.566 82.9289 162.222 82.9289C158.878 82.9289 156.178 85.6722 156.178 89.0581C156.178 92.4439 158.878 95.1872 162.222 95.1872ZM153.293 108.422C156.117 108.422 158.396 106.099 158.396 103.257C158.396 100.414 156.117 98.0914 153.293 98.0914C150.469 98.0914 148.19 100.414 148.19 103.257C148.19 106.099 150.469 108.422 153.293 108.422ZM135.133 101.451C138.006 101.451 140.36 99.0784 140.36 96.1622C140.36 93.2459 138.031 90.8733 135.133 90.8733C132.235 90.8733 129.906 93.2459 129.906 96.1622C129.906 99.0784 132.26 101.451 135.133 101.451ZM112.494 98.2213C115.343 98.2213 117.671 95.8735 117.671 92.9819C117.671 90.0904 115.368 87.7425 112.494 87.7425C109.646 87.7425 107.317 90.0904 107.317 92.9819C107.317 95.8735 109.621 98.2213 112.494 98.2213ZM125.078 110.653C127.58 110.653 129.586 108.602 129.586 106.106C129.586 103.585 127.58 101.558 125.078 101.558C122.576 101.558 120.57 103.61 120.57 106.106C120.57 108.627 122.576 110.653 125.078 110.653ZM143.231 117.739C145.733 117.739 147.788 115.688 147.788 113.143C147.788 110.597 145.757 108.546 143.231 108.546C140.729 108.546 138.673 110.597 138.673 113.143C138.698 115.688 140.729 117.739 143.231 117.739ZM133.006 123.057C134.988 123.057 136.598 121.426 136.598 119.424C136.598 117.422 134.988 115.791 133.006 115.791C131.024 115.791 129.414 117.422 129.414 119.424C129.439 121.426 131.024 123.057 133.006 123.057ZM123.321 125.909C125.129 125.909 126.566 124.426 126.566 122.622C126.566 120.793 125.105 119.335 123.321 119.335C121.513 119.335 120.076 120.818 120.076 122.622C120.051 124.451 121.513 125.909 123.321 125.909ZM114.838 116.458C116.968 116.458 118.702 114.703 118.702 112.553C118.702 110.403 116.968 108.648 114.838 108.648C112.708 108.648 110.974 110.403 110.974 112.553C110.974 114.703 112.708 116.458 114.838 116.458ZM102.386 107.498C104.863 107.498 106.894 105.471 106.894 102.95C106.894 100.429 104.888 98.4027 102.386 98.4027C99.909 98.4027 97.8777 100.429 97.8777 102.95C97.9025 105.471 99.909 107.498 102.386 107.498ZM139.306 164.446C144.657 164.446 148.992 160.047 148.992 154.635C148.992 149.223 144.657 144.823 139.306 144.823C133.956 144.823 129.621 149.223 129.621 154.635C129.621 160.047 133.956 164.446 139.306 164.446ZM114.692 152.024C119.151 152.024 122.767 148.366 122.767 143.843C122.767 139.321 119.151 135.663 114.692 135.663C110.233 135.663 106.617 139.321 106.617 143.843C106.617 148.366 110.233 152.024 114.692 152.024ZM100.632 170C105.141 170 108.782 166.318 108.782 161.745C108.782 157.198 105.141 153.491 100.632 153.491C96.124 153.491 92.4827 157.173 92.4827 161.745C92.4827 166.293 96.124 170 100.632 170ZM96.4046 136.88C100.294 136.88 103.464 133.692 103.464 129.738C103.464 125.784 100.294 122.595 96.4046 122.595C92.5156 122.595 89.3449 125.784 89.3449 129.738C89.3449 133.667 92.5156 136.88 96.4046 136.88ZM82.3739 155.098C86.2629 155.098 89.4088 151.91 89.4088 147.98C89.4088 144.051 86.2629 140.863 82.3739 140.863C78.4849 140.863 75.339 144.051 75.339 147.98C75.3142 151.91 78.4849 155.098 82.3739 155.098ZM67.2563 167.469C71.1453 167.469 74.2664 164.281 74.2664 160.376C74.2664 156.446 71.1205 153.283 67.2563 153.283C63.3673 153.283 60.2461 156.471 60.2461 160.376C60.2461 164.281 63.392 167.469 67.2563 167.469ZM54.6742 151.369C57.9687 151.369 60.6687 148.651 60.6687 145.314C60.6687 141.978 57.9935 139.259 54.6742 139.259C51.3797 139.259 48.6796 141.978 48.6796 145.314C48.7044 148.651 51.3797 151.369 54.6742 151.369ZM69.8196 138.948C73.1389 138.948 75.8141 136.23 75.8141 132.893C75.8141 129.532 73.1389 126.838 69.8196 126.838C66.5003 126.838 63.825 129.557 63.825 132.893C63.825 136.23 66.5003 138.948 69.8196 138.948ZM83.9533 120.732C87.2726 120.732 89.9479 118.013 89.9479 114.652C89.9479 111.291 87.2726 108.572 83.9533 108.572C80.634 108.572 77.9588 111.291 77.9588 114.652C77.9588 118.013 80.634 120.732 83.9533 120.732ZM62.3361 123.241C65.2095 123.241 67.5379 120.893 67.5379 117.976C67.5379 115.06 65.2095 112.712 62.3361 112.712C59.4626 112.712 57.1342 115.06 57.1342 117.976C57.1342 120.893 59.4626 123.241 62.3361 123.241ZM47.2702 135.613C50.1188 135.613 52.4225 133.29 52.4225 130.398C52.4225 127.507 50.1188 125.184 47.2702 125.184C44.4215 125.184 42.1178 127.507 42.1178 130.398C42.1178 133.29 44.4215 135.613 47.2702 135.613ZM43.8023 121.112C46.2546 121.112 48.261 119.085 48.261 116.614C48.261 114.118 46.2546 112.116 43.8023 112.116C41.35 112.116 39.3435 114.142 39.3435 116.614C39.3435 119.11 41.35 121.112 43.8023 121.112ZM43.6757 108.389C45.7812 108.389 47.4904 106.659 47.4904 104.509C47.4904 102.384 45.7812 100.629 43.6757 100.629C41.5702 100.629 39.861 102.359 39.861 104.509C39.861 106.659 41.5702 108.389 43.6757 108.389ZM45.7767 97.8084C47.585 97.8084 49.0217 96.3255 49.0217 94.5214C49.0217 92.7173 47.5602 91.2344 45.7767 91.2344C43.9685 91.2344 42.5318 92.7173 42.5318 94.5214C42.5318 96.3255 43.9685 97.8084 45.7767 97.8084ZM58.7681 96.0425C60.8984 96.0425 62.6323 94.2878 62.6323 92.1377C62.6323 89.9876 60.8984 88.2329 58.7681 88.2329C56.6378 88.2329 54.9038 89.9876 54.9038 92.1377C54.9038 94.2878 56.6378 96.0425 58.7681 96.0425ZM73.0269 90.4967C75.504 90.4967 77.5352 88.4454 77.5352 85.9493C77.5352 83.4284 75.5288 81.4019 73.0269 81.4019C70.5498 81.4019 68.5186 83.4531 68.5186 85.9493C68.5186 88.4701 70.525 90.4967 73.0269 90.4967ZM76.4212 104.927C79.2451 104.927 81.5488 102.604 81.5488 99.7368C81.5488 96.87 79.2451 94.5468 76.4212 94.5468C73.5974 94.5468 71.2937 96.87 71.2937 99.7368C71.2937 102.604 73.5726 104.927 76.4212 104.927ZM58.9464 108.768C61.4235 108.768 63.4052 106.741 63.4052 104.245C63.4052 101.749 61.3987 99.7222 58.9464 99.7222C56.4693 99.7222 54.4877 101.749 54.4877 104.245C54.4629 106.741 56.4693 108.768 58.9464 108.768ZM9.66063 102.064C14.9864 102.064 19.3213 97.6897 19.3213 92.3021C19.3213 86.9144 14.9864 82.5399 9.66063 82.5399C4.3349 82.5399 0 86.9144 0 92.3021C0 97.6897 4.3349 102.064 9.66063 102.064ZM31.589 84.6268C36.1716 84.6268 39.8625 80.8703 39.8625 76.2487C39.8625 71.6272 36.1468 67.8706 31.589 67.8706C27.0064 67.8706 23.3155 71.6272 23.3155 76.2487C23.3155 80.895 27.0312 84.6268 31.589 84.6268ZM23.0319 63.1282C27.5898 63.1282 31.2558 59.3963 31.2558 54.7995C31.2558 50.2027 27.565 46.4708 23.0319 46.4708C18.4741 46.4708 14.808 50.2027 14.808 54.7995C14.7832 59.3963 18.4741 63.1282 23.0319 63.1282ZM44.1721 52.9417C48.0611 52.9417 51.2318 49.7536 51.2318 45.7993C51.2318 41.8451 48.0611 38.6569 44.1721 38.6569C40.2831 38.6569 37.1124 41.8451 37.1124 45.7993C37.1124 49.7536 40.2831 52.9417 44.1721 52.9417ZM52.807 74.3895C56.7208 74.3895 59.8914 71.1766 59.8914 67.2223C59.8914 63.2681 56.7208 60.0552 52.807 60.0552C48.8932 60.0552 45.7225 63.2681 45.7225 67.2223C45.7225 71.1766 48.8932 74.3895 52.807 74.3895ZM72.0477 69.9357C75.367 69.9357 78.067 67.2172 78.067 63.8313C78.067 60.4702 75.367 57.7269 72.0477 57.7269C68.7284 57.7269 66.0284 60.4455 66.0284 63.8313C66.0036 67.1924 68.7036 69.9357 72.0477 69.9357ZM88.6603 69.9901C91.5337 69.9901 93.8621 67.6422 93.8621 64.7507C93.8621 61.8591 91.5337 59.5113 88.6603 59.5113C85.7868 59.5113 83.4584 61.8591 83.4584 64.7507C83.4832 67.6422 85.8116 69.9901 88.6603 69.9901ZM102.392 73.1461C104.795 73.1461 106.776 71.1689 106.776 68.7222C106.776 66.2755 104.82 64.2984 102.392 64.2984C99.9892 64.2984 98.0075 66.2755 98.0075 68.7222C98.0323 71.1442 99.9892 73.1461 102.392 73.1461ZM104.181 57.0013C106.287 57.0013 107.996 55.2713 107.996 53.1459C107.996 51.0205 106.287 49.2905 104.181 49.2905C102.076 49.2905 100.367 51.0205 100.367 53.1459C100.367 55.2713 102.076 57.0013 104.181 57.0013ZM93.6236 51.7176C96.0511 51.7176 98.0328 49.7158 98.0328 47.2444C98.0328 44.773 96.0511 42.7711 93.6236 42.7711C91.1961 42.7711 89.2144 44.773 89.2144 47.2444C89.2144 49.7158 91.1713 51.7176 93.6236 51.7176ZM80.0512 48.5162C82.8998 48.5162 85.2035 46.1683 85.2035 43.3015C85.2035 40.4099 82.8998 38.0868 80.0512 38.0868C77.2025 38.0868 74.8988 40.4346 74.8988 43.3015C74.8988 46.193 77.2025 48.5162 80.0512 48.5162ZM63.4641 48.5369C66.8082 48.5369 69.5082 45.7937 69.5082 42.4325C69.5082 39.0714 66.8082 36.3281 63.4641 36.3281C60.1201 36.3281 57.42 39.0714 57.42 42.4325C57.4448 45.8184 60.1448 48.5369 63.4641 48.5369ZM41.1221 33.2712C44.912 33.2712 47.9588 30.182 47.9588 26.3513C47.9588 22.5206 44.8872 19.4313 41.1221 19.4313C37.3321 19.4313 34.2853 22.5206 34.2853 26.3513C34.2853 30.182 37.3569 33.2712 41.1221 33.2712ZM60.3509 29.0775C63.695 29.0775 66.395 26.3342 66.395 22.9731C66.395 19.6119 63.695 16.8687 60.3509 16.8687C57.0069 16.8687 54.3068 19.6119 54.3068 22.9731C54.3068 26.3342 57.0069 29.0775 60.3509 29.0775V29.0775ZM76.963 29.1566C79.8364 29.1566 82.1649 26.8087 82.1649 23.8924C82.1649 20.9762 79.8364 18.6283 76.963 18.6283C74.0896 18.6283 71.7611 20.9762 71.7611 23.8924C71.7611 26.784 74.0896 29.1566 76.963 29.1566ZM90.5914 32.2883C93.0189 32.2883 94.9758 30.3112 94.9758 27.8645C94.9758 25.4178 93.0189 23.4407 90.5914 23.4407C88.1639 23.4407 86.207 25.4178 86.207 27.8645C86.207 30.2865 88.1886 32.2883 90.5914 32.2883ZM101.065 37.7143C103.22 37.7143 104.979 35.9349 104.979 33.7601C104.979 31.5605 103.22 29.8058 101.065 29.8058C98.9097 29.8058 97.151 31.5852 97.151 33.7601C97.151 35.9349 98.9097 37.7143 101.065 37.7143ZM108.747 43.9386C110.531 43.9386 111.967 42.4805 111.967 40.6763C111.967 38.8722 110.531 37.4141 108.747 37.4141C106.964 37.4141 105.527 38.8722 105.527 40.6763C105.502 42.4805 106.964 43.9386 108.747 43.9386Z" transform="translate(108 43)" fill="black"/>
</g>
<defs>
<clipPath id="clip0">
<rect width="391.264" height="256" fill="white"/>
</clipPath>
</defs>
</svg>
