<svg width="512" height="512" xmlns="http://www.w3.org/2000/svg" viewBox="0 0 512 512">
  <path fill="#f6f5f3" d="m503.3,423.4l-494.3,0c-4.9,0 -8.8,-3.9 -8.8,-8.8l0,-316.2c0,-4.9 4,-8.8 8.8,-8.8l494.3,0c4.9,0 8.8,3.9 8.8,8.8l0,316.3c0.1,4.8 -3.9,8.7 -8.8,8.7z" />
  <path fill="#00a3da" d="m298.3,186.3l22.9,24.2l37.2,-39c7,-7.3 9.9,-15.7 0.6,-23.9c-10,-8.9 -15.4,-5.6 -23.2,2l-37.5,36.7z" />
  <path fill="#009949" d="m168.636364,215.221204l68.6,-68.8c9.1,-7.7 13.2,-8.6 22.3,-0.8l95.3,97.4c7,7.2 12.9,15.9 4.3,25.5c-8.7,9.6 -18.5,4.8 -25.7,-2.4l-34.8,-34.6l-35.3,36.2c-6.9,7.1 -16.7,10.2 -24.8,1.4c-8.4,-9.2 -5,-17.3 2.1,-24.6l34.4,-35.4l-28.3,-27.1l-55.5,55.5c-7.8,7.8 -19.3,16.4 -28.7,3.5c-8.2,-11.2 -1.5,-18.1 6.1,-25.8" />
  <path fill="#efc33d" d="m139.9,270.137871c33.1,33.3 66.1,66.6 99.2,99.9c6.5,5.8 13,5.8 19.4,0c24.8,-24.8 49.7,-49.6 74.5,-74.4c6.6,-6.6 6.7,-15.2 -0.9,-22.3c-9.1,-8.5 -15.3,-5.1 -22.4,2l-60.3,59.8c-28.6,-28.3 -57.1,-56.5 -85.7,-84.8c-7.5,-7.4 -16.2,-13 -25.7,-2.7c-7.2,8.2 -4.6,16 1.9,22.5"/>
</svg>