<svg width="392" height="256" viewBox="0 0 392 256" fill="none" xmlns="http://www.w3.org/2000/svg">
<g id="San" clip-path="url(#clip0)">
<path id="Vector" d="M384.517 255H6.74623C3.57184 255 1 252.429 1 249.263V6.73714C1 3.57031 3.57184 1 6.74623 1H384.518C387.692 1 390.264 3.57031 390.264 6.73714V249.263C390.263 252.43 387.691 255 384.517 255Z" fill="#F6F5F3" stroke="#A9A9A9" stroke-width="2"/>
<g id="santiment-logo-svg-vector">
<g id="Group">
<path id="Vector_2" d="M178.997 89.8174C178.615 139.515 138.339 179.369 88.8737 178.997C39.3665 178.62 -0.396179 138.161 0.00297908 88.5698C0.403032 39.4651 40.7922 -0.326438 89.9011 0.00201889C139.382 0.337635 179.37 40.6474 178.997 89.8174ZM6.47989 89.531C6.56939 135.256 43.5595 172.177 89.374 172.272C135.244 172.366 172.665 135.194 172.503 89.4183C172.335 41.7446 132.845 5.77462 87.3818 6.55504C43.4306 7.3104 6.38771 44.6712 6.47721 89.5302L6.47989 89.531Z" transform="translate(106 38)" fill="#2B77B3"/>
<path id="Vector_3" d="M86.4024 5.12843C85.1343 9.17552 83.9511 12.9505 83.0839 15.7169C76.9211 14.7056 71.2031 13.4929 65.4234 12.9228C61.9921 12.5836 58.4328 13.4813 57.1001 17.3484C55.7326 21.3114 55.5697 25.5339 58.8525 28.5885C62.2158 31.7209 66.1769 34.2036 69.866 36.9851C73.2598 39.5439 76.9918 41.7733 79.9541 44.7616C87.9847 52.862 89.4122 62.6907 86.1116 73.2836C84.1543 79.5637 79.5085 83.5311 73.5551 85.944C64.4416 89.6366 48.9201 87.8234 40.212 81.9595C41.5205 78.1532 42.8719 74.2216 44.0273 70.8618C49.5833 72.3242 54.6596 74.0837 59.8853 74.9125C64.8658 75.6983 70.0808 74.9357 72.6342 69.8523C75.2054 64.7312 74.3937 59.3273 70.3654 55.2158C67.2554 52.0422 63.3569 49.6222 59.7215 46.982C57.2935 45.2207 54.5826 43.838 52.2234 41.997C42.7484 34.6081 39.6536 22.2601 44.4551 11.251C46.7641 5.96076 50.9356 2.533 56.4164 1.22722C66.6253 -1.19727 76.5309 -0.0964447 86.4024 5.12843V5.12843ZM20.6649 42.4758C20.6354 48.1697 16.0675 52.7779 10.4291 52.803C4.7398 52.8298 -0.131535 47.869 0.00271046 42.1921C0.135166 36.6263 4.95996 31.9894 10.5276 32.0726C16.2223 32.1585 20.6954 36.7489 20.6649 42.4758V42.4758ZM119.054 32.3554C124.732 32.3492 128.959 36.5394 129.034 42.2503C129.11 48.1249 124.427 52.8889 118.653 52.8057C112.996 52.7242 108.466 48.0981 108.469 42.4042C108.472 36.4517 112.78 32.3608 119.054 32.3554" transform="translate(130.914 83.5469)" fill="#2B77B3"/>
</g>
</g>
</g>
<defs>
<clipPath id="clip0">
<rect width="391.264" height="256" fill="white"/>
</clipPath>
</defs>
</svg>
