<svg width="512" height="342" viewBox="0 0 512 342" version="1.1" xmlns="http://www.w3.org/2000/svg" xmlns:xlink="http://www.w3.org/1999/xlink">
<g id="Canvas" fill="none">
<g id="LiteCoin Copy 2">
<g id="Shape Copy">
<g id="Vector">
<path d="M 37.5786 25.0304L 0.659306 25.0304C 0.295224 25.0304 0 24.7354 0 24.3717L 0 0.658724C 0 0.294963 0.295224 0 0.659306 0L 37.5787 0C 37.9428 0 38.238 0.294963 38.238 0.658724L 38.238 24.3717C 38.2379 24.7355 37.9427 25.0304 37.5786 25.0304Z" transform="scale(13.1282)" fill="#F6F5F3"/>
</g>
</g>
<g id="Yin_yang">
<g id="Vector_2">
<path d="M 8.88257 17.7734C 13.7883 17.7734 17.7651 13.7947 17.7651 8.88671C 17.7651 3.97872 13.7883 0 8.88257 0C 3.97686 0 0 3.97872 0 8.88671C 0 13.7947 3.97686 17.7734 8.88257 17.7734Z" transform="translate(131.987 47.4359) scale(13.1282)" fill="white"/>
</g>
<g id="Vector (Stroke)">
<path fill-rule="evenodd" clip-rule="evenodd" d="M 8.88257 17.436C 13.602 17.436 17.4278 13.6083 17.4278 8.88671C 17.4278 4.1651 13.602 0.33747 8.88257 0.33747C 4.16316 0.33747 0.337313 4.1651 0.337313 8.88671C 0.337313 13.6083 4.16316 17.436 8.88257 17.436ZM 17.7651 8.88671C 17.7651 13.7947 13.7883 17.7734 8.88257 17.7734C 3.97686 17.7734 0 13.7947 0 8.88671C 0 3.97872 3.97686 0 8.88257 0C 13.7883 0 17.7651 3.97872 17.7651 8.88671Z" transform="translate(131.987 47.4359) scale(13.1282)" fill="black"/>
</g>
<g id="Vector_3">
<path d="M 8.65481 17.3177C 6.35941 17.3177 4.15803 16.4054 2.53494 14.7816C 0.911844 13.1577 0 10.9553 0 8.65885C 0 6.36238 0.911844 4.15997 2.53494 2.53612C 4.15803 0.912269 6.35941 0 8.65481 0C 9.80251 0 10.9032 0.456135 11.7148 1.26806C 12.5263 2.07998 12.9822 3.18119 12.9822 4.32942C 12.9822 5.47766 12.5263 6.57886 11.7148 7.39079C 10.9032 8.20271 9.80251 8.65885 8.65481 8.65885C 7.50711 8.65885 6.40642 9.11498 5.59488 9.92691C 4.78333 10.7388 4.32741 11.84 4.32741 12.9883C 4.32741 14.1365 4.78333 15.2377 5.59488 16.0496C 6.40642 16.8616 7.50711 17.3177 8.65481 17.3177Z" transform="translate(134.987 50.4231) scale(13.1282)" fill="black"/>
</g>
<g id="Vector_4">
<path d="M 1.13879 2.27864C 1.76773 2.27864 2.27758 1.76855 2.27758 1.13932C 2.27758 0.510092 1.76773 0 1.13879 0C 0.509854 0 0 0.510092 0 1.13932C 0 1.76855 0.509854 2.27864 1.13879 2.27864Z" transform="translate(233.654 205.987) scale(13.1282)" fill="black"/>
</g>
<g id="Vector_5">
<path d="M 1.13879 2.27864C 1.76773 2.27864 2.27758 1.76855 2.27758 1.13932C 2.27758 0.510092 1.76773 0 1.13879 0C 0.509854 0 0 0.510092 0 1.13932C 0 1.76855 0.509854 2.27864 1.13879 2.27864Z" transform="translate(233.654 92.3077) scale(13.1282)" fill="white"/>
</g>
</g>
</g>
</g>
</svg>

