<svg width="20" height="6" viewBox="0 0 20 6" fill="none" xmlns="http://www.w3.org/2000/svg">
<path d="M2.85715 0C1.27918 0 0 1.34314 0 2.99996C0 4.65677 1.27918 5.99996 2.85715 5.99996C4.43513 5.99996 5.71431 4.65682 5.71431 2.99996C5.71431 1.34309 4.43508 0 2.85715 0ZM2.85715 4.49998C2.06819 4.49998 1.4286 3.82841 1.4286 3C1.4286 2.17159 2.06819 1.50002 2.85715 1.50002C3.64612 1.50002 4.28571 2.17159 4.28571 3C4.28571 3.82841 3.64612 4.49998 2.85715 4.49998Z" fill="#8E9AAC"/>
<path d="M10.0017 0C8.42372 0 7.14453 1.34314 7.14453 3C7.14453 4.65686 8.42372 6 10.0017 6C11.5797 6 12.8588 4.65686 12.8588 3C12.8588 1.34314 11.5797 0 10.0017 0ZM10.0017 4.49998C9.21272 4.49998 8.57313 3.82841 8.57313 3C8.57313 2.17159 9.21272 1.50002 10.0017 1.50002C10.7907 1.50002 11.4302 2.17159 11.4302 3C11.4303 3.82841 10.7907 4.49998 10.0017 4.49998Z" fill="#8E9AAC"/>
<path d="M17.1423 0C15.5643 0 14.2852 1.34314 14.2852 3C14.2852 4.65686 15.5643 5.99996 17.1423 5.99996C18.7203 5.99996 19.9995 4.65682 19.9995 2.99996C19.9995 1.34309 18.7203 0 17.1423 0ZM17.1423 4.49998C16.3533 4.49998 15.7138 3.82841 15.7138 3C15.7138 2.17159 16.3533 1.50002 17.1423 1.50002C17.9313 1.50002 18.5709 2.17159 18.5709 3C18.5709 3.82841 17.9313 4.49998 17.1423 4.49998Z" fill="#8E9AAC"/>
</svg>
