<svg width="72" height="68" viewBox="0 0 72 68" fill="none" xmlns="http://www.w3.org/2000/svg">
<path d="M68.4027 30.2233C69.9239 28.835 70.3586 26.699 69.7066 24.7767C69.0547 22.8544 67.4248 21.466 65.3603 21.1456L49.2788 18.9029C48.1922 18.7961 47.3229 18.1553 46.8883 17.1942L39.7168 2.88349C38.8476 1.06796 37.0004 4.07395e-07 34.9358 4.07395e-07C32.8713 4.07395e-07 31.0241 1.17476 30.1549 2.88349L23.092 17.1942C22.6574 18.1553 21.6795 18.7961 20.7016 18.9029L4.62007 21.2524C2.55555 21.5728 0.925671 22.9612 0.273719 24.8835C-0.378233 26.8058 0.165061 28.835 1.57762 30.3301L13.2041 41.4369C13.9647 42.1845 14.2907 43.1456 14.0734 44.2136L11.3569 59.9126C11.0309 61.9417 11.7915 63.8641 13.5301 65.0388C14.508 65.6796 15.5946 66 16.6812 66C17.5505 66 18.4197 65.7864 19.1803 65.3592L33.5233 57.9903C34.5012 57.4563 35.5878 57.4563 36.4571 57.9903L50.8 65.3592C52.6472 66.3204 54.8204 66.1068 56.4503 64.932C58.0801 63.7573 58.9494 61.7282 58.6234 59.8058L55.907 44.1068C55.6897 43.0388 56.1243 42.0777 56.7762 41.3301L68.4027 30.2233ZM53.7338 44.534L56.4503 60.233C56.6676 61.4078 56.2329 62.5825 55.1464 63.3301C54.1684 64.0777 52.8645 64.1845 51.7779 63.5437L37.435 56.1748C35.9138 55.3204 33.9579 55.3204 32.4367 56.1748L18.0937 63.5437C17.0072 64.0777 15.7033 63.9709 14.7253 63.3301C13.7474 62.5825 13.2041 61.5146 13.4214 60.233L16.1379 44.534C16.4639 42.8252 15.8119 41.1165 14.6167 39.835L3.2075 28.7282C2.33824 27.8738 2.01226 26.699 2.44689 25.5243C2.88153 24.3495 3.7508 23.6019 5.0547 23.3883L21.1362 21.1456C22.8747 20.932 24.396 19.8641 25.1566 18.2621L32.328 3.95146C32.8713 2.88349 33.9579 2.24272 35.1532 2.24272C36.3484 2.24272 37.435 2.88349 37.9783 3.95146L45.1498 18.2621C45.9104 19.8641 47.4316 20.932 49.1701 21.1456L65.143 23.3883C66.3382 23.6019 67.3161 24.3495 67.7508 25.5243C68.1854 26.699 67.8594 27.8738 66.9902 28.7282L55.3637 39.835C54.0598 41.0097 53.5165 42.7184 53.7338 44.534Z" transform="translate(1 1)" fill="#8E9AAC" stroke="#8E9AAC"/>
<path d="M2.98035 5.90291C4.62636 5.90291 5.9607 4.5815 5.9607 2.95146C5.9607 1.32141 4.62636 0 2.98035 0C1.33435 0 0 1.32141 0 2.95146C0 4.5815 1.33435 5.90291 2.98035 5.90291Z" transform="translate(26.1133 27.8516)" fill="#8E9AAC"/>
<path d="M2.98035 5.90291C4.62635 5.90291 5.96071 4.5815 5.96071 2.95146C5.96071 1.32141 4.62635 0 2.98035 0C1.33435 0 0 1.32141 0 2.95146C0 4.5815 1.33435 5.90291 2.98035 5.90291Z" transform="translate(40.0273 27.8516)" fill="#8E9AAC"/>
<path d="M0.389734 4.13137C-0.106992 4.62328 -0.10699 5.36115 0.265554 5.85306C0.513917 6.09901 0.886462 6.22199 1.13482 6.22199C1.38319 6.22199 1.75573 6.09901 2.0041 5.85306C10.5726 -1.89452 19.1411 5.48412 19.5137 5.85306C20.0104 6.34497 20.7555 6.22199 21.2522 5.73008C21.7489 5.23817 21.6247 4.50031 21.128 4.0084C21.128 4.0084 10.6968 -5.09193 0.389734 4.13137Z" transform="translate(25.2305 40.0762)" fill="#8E9AAC"/>
</svg>
