<svg width="40" height="22" viewBox="0 0 40 22" fill="none" xmlns="http://www.w3.org/2000/svg">

	<path d="M18.4998 2.674C18.4998 2.282 18.5651 1.92267 18.6958 1.596C18.8265 1.26933 19.0225 0.989333 19.2838 0.756C19.5451 0.513333 19.8718 0.326667 20.2638 0.196C20.6651 0.0653334 21.1318 0 21.6638 0C21.9158 0 22.1771 0.0140001 22.4478 0.0420001C22.7185 0.0700001 22.9891 0.107333 23.2598 0.154C23.5305 0.200667 23.7918 0.261333 24.0438 0.336C24.2958 0.410667 24.5291 0.494667 24.7438 0.588C24.8185 0.634667 24.8651 0.676667 24.8838 0.714C24.9025 0.751333 24.8931 0.816667 24.8558 0.91L24.5198 1.862C24.4825 1.96467 24.4451 2.02067 24.4078 2.03C24.3798 2.03933 24.3285 2.03467 24.2538 2.016C23.7871 1.85733 23.3298 1.74067 22.8818 1.666C22.4338 1.582 22.0185 1.54 21.6358 1.54C21.1505 1.54 20.7958 1.64267 20.5718 1.848C20.3571 2.044 20.2498 2.27733 20.2498 2.548C20.2498 2.716 20.2871 2.87 20.3618 3.01C20.4458 3.14067 20.5765 3.27133 20.7538 3.402C20.9311 3.52333 21.1505 3.64933 21.4118 3.78C21.6825 3.90133 22.0091 4.03667 22.3918 4.186C22.7931 4.354 23.1758 4.52667 23.5398 4.704C23.9038 4.872 24.2258 5.07267 24.5058 5.306C24.7858 5.53933 25.0051 5.81467 25.1638 6.132C25.3318 6.44 25.4158 6.818 25.4158 7.266C25.4158 7.75133 25.3225 8.176 25.1358 8.54C24.9585 8.89467 24.7111 9.18867 24.3938 9.422C24.0858 9.65533 23.7171 9.83267 23.2878 9.954C22.8585 10.066 22.3965 10.122 21.9018 10.122C21.3138 10.122 20.6978 10.066 20.0538 9.954C19.4098 9.842 18.8125 9.63667 18.2618 9.338C18.1311 9.282 18.1031 9.17 18.1778 9.002L18.5978 8.05C18.6631 7.91 18.7658 7.868 18.9058 7.924C19.3538 8.11067 19.8158 8.26933 20.2918 8.4C20.7771 8.52133 21.2438 8.582 21.6918 8.582C22.4011 8.582 22.9005 8.46067 23.1898 8.218C23.4885 7.97533 23.6378 7.672 23.6378 7.308C23.6378 7.112 23.6005 6.93933 23.5258 6.79C23.4511 6.64067 23.3345 6.50533 23.1758 6.384C23.0171 6.25333 22.8165 6.132 22.5738 6.02C22.3311 5.89867 22.0418 5.77267 21.7058 5.642C21.2018 5.446 20.7491 5.25 20.3478 5.054C19.9465 4.858 19.6105 4.648 19.3398 4.424C19.0691 4.19067 18.8591 3.934 18.7098 3.654C18.5698 3.36467 18.4998 3.038 18.4998 2.674ZM11.5558 9.926C11.6025 9.88867 11.6258 9.80467 11.6258 9.674V6.23H13.9078C14.6078 6.23 15.1725 6.118 15.6018 5.894C16.0311 5.66067 16.3625 5.38067 16.5958 5.054C16.8385 4.72733 16.9971 4.39133 17.0718 4.046C17.1558 3.69133 17.1978 3.388 17.1978 3.136C17.1978 2.69733 17.1185 2.296 16.9598 1.932C16.8105 1.55867 16.5958 1.24133 16.3158 0.98C16.0451 0.709333 15.7138 0.504 15.3218 0.364C14.9391 0.214667 14.5145 0.14 14.0478 0.14H10.7158C10.4171 0.14 10.2118 0.21 10.0998 0.35C9.9878 0.480667 9.9318 0.676667 9.9318 0.938V9.674C9.9318 9.79533 9.9598 9.87467 10.0158 9.912C10.0718 9.94933 10.1511 9.968 10.2538 9.968H11.3038C11.4345 9.968 11.5185 9.954 11.5558 9.926ZM15.3498 2.73C15.4058 2.91667 15.4338 3.08933 15.4338 3.248C15.4338 3.696 15.2985 4.06467 15.0278 4.354C14.7571 4.64333 14.3278 4.788 13.7398 4.788H11.6398V1.68H13.7118C14.0571 1.68 14.3418 1.73133 14.5658 1.834C14.7898 1.93667 14.9625 2.06733 15.0838 2.226C15.2145 2.37533 15.3031 2.54333 15.3498 2.73ZM4.382 8.148H4.298L3.598 5.922L1.806 0.364C1.78733 0.289333 1.75467 0.238 1.708 0.21C1.67067 0.172667 1.60067 0.154 1.498 0.154H0.154C0.0793333 0.154 0.0326667 0.177333 0.014 0.224C-0.00466667 0.261333 -0.00466667 0.308 0.014 0.364L3.094 9.324C3.19667 9.59467 3.30867 9.772 3.43 9.856C3.56067 9.93067 3.74733 9.968 3.99 9.968H4.746C4.97 9.95867 5.138 9.912 5.25 9.828C5.37133 9.744 5.474 9.576 5.558 9.324L8.652 0.364C8.67067 0.308 8.67067 0.261333 8.652 0.224C8.64267 0.177333 8.60067 0.154 8.526 0.154H7.196C7.10267 0.154 7.028 0.163333 6.972 0.182C6.92533 0.200667 6.888 0.256667 6.86 0.35L5.026 5.95L4.382 8.148Z" transform="translate(7 6)" />
</svg>
