<svg width="17" height="17" viewBox="0 0 17 17" fill="none" xmlns="http://www.w3.org/2000/svg">
<path d="M15.7098 11.0264C16.0392 10.1548 16.206 9.23965 16.206 8.3015C16.206 6.24258 15.4046 4.30729 13.9493 2.85206C12.4941 1.39689 10.5588 0.59547 8.5 0.59547C7.56659 0.59547 6.65901 0.7599 5.79801 1.08464C5.16673 0.392085 4.28494 0 3.33909 0C1.49792 0 0 1.49795 0 3.33913C0 4.32346 0.439721 5.25806 1.18848 5.89017C0.926609 6.67449 0.793972 7.48441 0.793972 8.3015C0.793972 10.3603 1.59536 12.2956 3.05052 13.7508C4.50569 15.2061 6.44105 16.0075 8.5 16.0075C9.32656 16.0075 10.1489 15.8712 10.9488 15.6021C11.5707 16.4712 12.5842 17 13.6609 17C15.5021 17 17 15.502 17 13.6609C17 12.6243 16.5228 11.6599 15.7098 11.0264ZM13.6609 16.2766C12.7389 16.2766 11.8758 15.7808 11.4085 14.9827C11.342 14.8692 11.2216 14.8037 11.0963 14.8037C11.0537 14.8037 11.0105 14.8113 10.9687 14.8271C10.1647 15.1304 9.33412 15.2841 8.50004 15.2841C6.63431 15.2841 4.88066 14.5579 3.56208 13.2393C2.24353 11.9207 1.51741 10.1671 1.51741 8.3015C1.51741 7.48307 1.66473 6.67199 1.95533 5.89079C2.01233 5.73743 1.95934 5.5649 1.82605 5.47002C1.1356 4.97854 0.723404 4.18193 0.723404 3.33913C0.723404 1.8968 1.8968 0.723404 3.33909 0.723404C4.15158 0.723404 4.90392 1.09335 5.40318 1.73841C5.50333 1.86772 5.67771 1.9138 5.82861 1.85079C6.67384 1.49784 7.57263 1.31891 8.49996 1.31891C10.3656 1.31891 12.1192 2.04506 13.4378 3.36365C14.7564 4.68223 15.4826 6.43587 15.4826 8.30153C15.4826 9.24012 15.2984 10.1533 14.9353 11.0157C14.8672 11.1773 14.9249 11.3645 15.0721 11.4597C15.8263 11.9478 16.2766 12.7707 16.2766 13.6609C16.2766 15.1032 15.1032 16.2766 13.6609 16.2766Z" fill="#8E9AAC"/>
<path d="M9.03545 7.16636C6.53294 6.67997 6.3709 5.91548 6.97299 5.3824C7.5758 4.84976 9.36615 4.60977 9.86935 5.54466C10.3563 6.44794 10.7041 6.8188 11.3755 6.65654C12.0171 6.50184 12.1094 5.61404 11.8392 5.08118C11.6213 4.65086 10.6342 3.55176 8.68767 3.55176C6.74146 3.55176 4.7023 4.27013 4.7023 6.05427C4.7023 7.8384 6.55616 8.62615 8.3403 8.88126C10.124 9.13597 10.5412 9.90086 10.3102 10.4572C10.0787 11.0128 9.31335 11.5454 8.155 11.4299C6.99621 11.3144 6.46158 10.344 6.30106 9.85398C6.14675 9.38334 5.60633 9.32127 5.35123 9.34416C5.09612 9.36782 4.28511 9.6927 4.65571 10.8274C5.02671 11.963 6.23201 12.8666 8.64148 12.8666C11.051 12.8666 12.4644 11.3834 12.4645 9.97031C12.4645 8.55659 11.5383 7.65328 9.03545 7.16636Z" fill="#8E9AAC"/>
</svg>
