<svg width="39" height="39" viewBox="0 0 39 39" fill="none" xmlns="http://www.w3.org/2000/svg">

<path d="M13 12H14V26H13V12Z" fill="#8E9AAC"/>
<path d="M17 12H18V26H17V12Z" fill="#8E9AAC"/>
<path d="M21 15H22V23H21V15Z" fill="#8E9AAC"/>
<path d="M25 15H26V23H25V15Z" fill="#8E9AAC"/>
<path d="M14 12H17V13H14V12Z" fill="#8E9AAC"/>
<path d="M15 9H16V12H15V9Z" fill="#8E9AAC"/>
<path d="M22 15H25V16H22V15Z" fill="#8E9AAC"/>
<path d="M23 12H24V15H23V12Z" fill="#8E9AAC"/>
<path d="M15 26H16V29H15V26Z" fill="#8E9AAC"/>
<path d="M22 22H25V23H22V22Z" fill="#8E9AAC"/>
<path d="M23 23H24V26H23V23Z" fill="#8E9AAC"/>
<path d="M14 25H17V26H14V25Z" fill="#8E9AAC"/>
<path d="M16 13H17V14H16V13Z" fill="#8E9AAC"/>
<path d="M15 14H16V15H15V14Z" fill="#8E9AAC"/>
<path d="M16 15H17V16H16V15Z" fill="#8E9AAC"/>
<path d="M16 17H17V18H16V17Z" fill="#8E9AAC"/>
<path d="M15 16H16V17H15V16Z" fill="#8E9AAC"/>
<path d="M14 17H15V18H14V17Z" fill="#8E9AAC"/>
<path d="M15 18H16V19H15V18Z" fill="#8E9AAC"/>
<path d="M14 19H15V20H14V19Z" fill="#8E9AAC"/>
<path d="M16 19H17V20H16V19Z" fill="#8E9AAC"/>
<path d="M15 20H16V21H15V20Z" fill="#8E9AAC"/>
<path d="M16 21H17V22H16V21Z" fill="#8E9AAC"/>
<path d="M14 21H15V22H14V21Z" fill="#8E9AAC"/>
<path d="M15 22H16V23H15V22Z" fill="#8E9AAC"/>
<path d="M14 23H15V24H14V23Z" fill="#8E9AAC"/>
<path d="M16 23H17V24H16V23Z" fill="#8E9AAC"/>
<path d="M15 24H16V25H15V24Z" fill="#8E9AAC"/>
<path d="M14 15H15V16H14V15Z" fill="#8E9AAC"/>
<path d="M14 13H15V14H14V13Z" fill="#8E9AAC"/>
</svg>
