<svg width="39" height="39" viewBox="0 0 39 39" fill="none" xmlns="http://www.w3.org/2000/svg">
    <path fill-rule="evenodd" clip-rule="evenodd" d="M27.5 13C28.3284 13 29 12.3284 29 11.5C29 10.6716 28.3284 10 27.5 10C26.6716 10 26 10.6716 26 11.5C26 12.3284 26.6716 13 27.5 13ZM27.5 14C28.8807 14 30 12.8807 30 11.5C30 10.1193 28.8807 9 27.5 9C26.1193 9 25 10.1193 25 11.5C25 12.8807 26.1193 14 27.5 14Z" fill="#8E9AAC"/>
    <path fill-rule="evenodd" clip-rule="evenodd" d="M10.5 18C11.3284 18 12 17.3284 12 16.5C12 15.6716 11.3284 15 10.5 15C9.67157 15 9 15.6716 9 16.5C9 17.3284 9.67157 18 10.5 18ZM10.5 19C11.8807 19 13 17.8807 13 16.5C13 15.1193 11.8807 14 10.5 14C9.11929 14 8 15.1193 8 16.5C8 17.8807 9.11929 19 10.5 19Z" fill="#8E9AAC"/>
    <path fill-rule="evenodd" clip-rule="evenodd" d="M25.6421 12.4794L12.1421 16.4794L11.858 15.5206L25.358 11.5206L25.6421 12.4794Z" fill="#8E9AAC"/>
    <path fill-rule="evenodd" clip-rule="evenodd" d="M27.5 30C28.3284 30 29 29.3284 29 28.5C29 27.6716 28.3284 27 27.5 27C26.6716 27 26 27.6716 26 28.5C26 29.3284 26.6716 30 27.5 30ZM27.5 31C28.8807 31 30 29.8807 30 28.5C30 27.1193 28.8807 26 27.5 26C26.1193 26 25 27.1193 25 28.5C25 29.8807 26.1193 31 27.5 31Z" fill="#8E9AAC"/>
    <path fill-rule="evenodd" clip-rule="evenodd" d="M10.5 25C11.3284 25 12 24.3284 12 23.5C12 22.6716 11.3284 22 10.5 22C9.67157 22 9 22.6716 9 23.5C9 24.3284 9.67157 25 10.5 25ZM10.5 26C11.8807 26 13 24.8807 13 23.5C13 22.1193 11.8807 21 10.5 21C9.11929 21 8 22.1193 8 23.5C8 24.8807 9.11929 26 10.5 26Z" fill="#8E9AAC"/>
    <path fill-rule="evenodd" clip-rule="evenodd" d="M25.353 28.4779L12.353 24.4779L12.6471 23.5221L25.6471 27.5221L25.353 28.4779Z" fill="#8E9AAC"/>
</svg>
