<svg width="39" height="39" viewBox="0 0 39 39" fill="none" xmlns="http://www.w3.org/2000/svg">
    <path fill-rule="evenodd" clip-rule="evenodd" d="M19.5 21C20.3284 21 21 20.3284 21 19.5C21 18.6716 20.3284 18 19.5 18C18.6716 18 18 18.6716 18 19.5C18 20.3284 18.6716 21 19.5 21ZM19.5 22C20.8807 22 22 20.8807 22 19.5C22 18.1193 20.8807 17 19.5 17C18.1193 17 17 18.1193 17 19.5C17 20.8807 18.1193 22 19.5 22Z" fill="#8E9AAC"/>
    <path d="M19.5 18C19.2239 18 19 17.7761 19 17.5V9.5C19 9.22386 19.2239 9 19.5 9C19.7761 9 20 9.22386 20 9.5V17.5C20 17.7761 19.7761 18 19.5 18Z" fill="#8E9AAC"/>
    <path d="M19.5 30C19.2239 30 19 29.7761 19 29.5V21.5C19 21.2239 19.2239 21 19.5 21C19.7761 21 20 21.2239 20 21.5V29.5C20 29.7761 19.7761 30 19.5 30Z" fill="#8E9AAC"/>
</svg>
