<svg width="16" height="24" viewBox="0 0 16 24" fill="none" xmlns="http://www.w3.org/2000/svg">
<path fill-rule="evenodd" clip-rule="evenodd" d="M13.6455 24H2.35485C1.05419 24 0 22.9255 0 21.5998V2.40024C0 1.07451 1.05419 0 2.35485 0H13.6452C14.9458 0 16 1.07451 16 2.40024V21.5998C16.0004 22.9255 14.9458 24 13.6455 24ZM13.1879 3.85158C13.1879 3.32153 12.7664 2.89149 12.246 2.89149H3.75676C3.23634 2.89149 2.81482 3.32153 2.81482 3.85158V20.1648C2.81482 20.6953 3.23634 21.1249 3.75676 21.1249H12.246C12.7664 21.1249 13.1879 20.6953 13.1879 20.1648V3.85158ZM7.9896 20.1952C7.19837 20.1952 6.55707 19.5416 6.55707 18.7351C6.55707 17.9286 7.19837 17.2749 7.9896 17.2749C8.78083 17.2749 9.42213 17.9286 9.42213 18.7351C9.42252 19.5416 8.78083 20.1952 7.9896 20.1952Z" fill="#3498DB"/>
</svg>
