<svg width="39" height="39" viewBox="0 0 39 39" fill="none" xmlns="http://www.w3.org/2000/svg">
    <path fill-rule="evenodd" clip-rule="evenodd" d="M29.5 18C30.3284 18 31 17.3284 31 16.5C31 15.6716 30.3284 15 29.5 15C28.6716 15 28 15.6716 28 16.5C28 17.3284 28.6716 18 29.5 18ZM29.5 19C30.8807 19 32 17.8807 32 16.5C32 15.1193 30.8807 14 29.5 14C28.1193 14 27 15.1193 27 16.5C27 17.8807 28.1193 19 29.5 19Z" fill="#8E9AAC"/>
    <path fill-rule="evenodd" clip-rule="evenodd" d="M8.5 28C9.32843 28 10 27.3284 10 26.5C10 25.6716 9.32843 25 8.5 25C7.67157 25 7 25.6716 7 26.5C7 27.3284 7.67157 28 8.5 28ZM8.5 29C9.88071 29 11 27.8807 11 26.5C11 25.1193 9.88071 24 8.5 24C7.11929 24 6 25.1193 6 26.5C6 27.8807 7.11929 29 8.5 29Z" fill="#8E9AAC"/>
    <path d="M10 26.5C10 26.2239 10.2239 26 10.5 26H31.5C31.7761 26 32 26.2239 32 26.5C32 26.7761 31.7761 27 31.5 27H10.5C10.2239 27 10 26.7761 10 26.5Z" fill="#8E9AAC"/>
    <path d="M6 21.5C6 21.2239 6.22386 21 6.5 21H31.5C31.7761 21 32 21.2239 32 21.5C32 21.7761 31.7761 22 31.5 22H6.5C6.22386 22 6 21.7761 6 21.5Z" fill="#8E9AAC"/>
    <path d="M6 11.5C6 11.2239 6.22386 11 6.5 11H31.5C31.7761 11 32 11.2239 32 11.5C32 11.7761 31.7761 12 31.5 12H6.5C6.22386 12 6 11.7761 6 11.5Z" fill="#8E9AAC"/>
    <path d="M6 16.5C6 16.2239 6.22386 16 6.5 16H27.5C27.7761 16 28 16.2239 28 16.5C28 16.7761 27.7761 17 27.5 17H6.5C6.22386 17 6 16.7761 6 16.5Z" fill="#8E9AAC"/>
</svg>
