<svg width="30" height="30" viewBox="0 0 30 30" version="1.1" xmlns="http://www.w3.org/2000/svg" xmlns:xlink="http://www.w3.org/1999/xlink">
	<g transform="translate(-1651 4335)">
		<use xlink:href="#icon-settings-fill" transform="translate(1657 -4329)" />
	</g>
	<defs>
		<path id="icon-settings-fill" d="M 17.3414 7.68934L 15.5583 7.39188C 15.4287 6.86205 15.2398 6.35557 14.9937 5.88319L 16.1351 4.46786C 16.3779 4.16875 16.3669 3.73838 16.1109 3.4497L 15.4018 2.65157C 15.1447 2.36319 14.7185 2.30219 14.3933 2.50763L 12.8684 3.46621C 12.1978 2.99761 11.438 2.65157 10.6185 2.45078L 10.3202 0.658106C 10.2576 0.278518 9.92912 0 9.54354 0L 8.47486 0C 8.09006 0 7.76049 0.278518 7.69928 0.658106L 7.39933 2.45134C 6.72176 2.61724 6.08648 2.88503 5.50672 3.23771L 4.05655 2.20275C 3.74401 1.97946 3.31474 2.01437 3.04199 2.28654L 2.287 3.0421C 2.01484 3.31486 1.97992 3.74414 2.20379 4.05669L 3.24113 5.50967C 2.89177 6.08507 2.62674 6.71676 2.46087 7.38832L 0.658046 7.68936C 0.279052 7.75196 0 8.08046 0 8.46608L 0 9.53394C 0 9.91952 0.279052 10.2481 0.658046 10.3107L 2.46087 10.6117C 2.59709 11.1643 2.79484 11.6922 3.05768 12.1816L 1.92142 13.589C 1.67948 13.8878 1.68964 14.3184 1.94559 14.6069L 2.6542 15.405C 2.91127 15.6939 3.33778 15.7538 3.66297 15.5489L 5.2098 14.5772C 5.86431 15.0249 6.60476 15.3539 7.39933 15.5489L 7.69928 17.3419C 7.76051 17.7215 8.09006 18 8.47486 18L 9.54354 18C 9.92912 18 10.2576 17.7215 10.3202 17.3419L 10.619 15.5489C 11.2881 15.3853 11.9154 15.1221 12.49 14.7755L 14.0005 15.8544C 14.3125 16.0785 14.7421 16.0433 15.0146 15.7703L 15.7699 15.015C 16.0417 14.7431 16.0785 14.314 15.8528 14.0009L 14.7773 12.493C 15.1277 11.9157 15.3941 11.2829 15.5589 10.6083L 17.342 10.3106C 17.7221 10.248 18 9.91948 18 9.53388L 18 8.46602C 17.9994 8.08046 17.7215 7.75196 17.3414 7.68934ZM 9.02826 12.375C 7.16476 12.375 5.65336 10.8633 5.65336 9.00001C 5.65336 7.13645 7.16476 5.62501 9.02826 5.62501C 10.8915 5.62501 12.4031 7.13645 12.4031 9.00001C 12.4031 10.8633 10.8915 12.375 9.02826 12.375Z"/>
	</defs>
</svg>
