<svg width="30" height="30" viewBox="0 0 30 30" fill="none" xmlns="http://www.w3.org/2000/svg">
<path d="M0 2C0 0.89543 0.895431 0 2 0H3C4.10457 0 5 0.895431 5 2V5H2C0.89543 5 0 4.10457 0 3V2Z" fill="#D9DCE1"/>
<path d="M5 5H10V10H5V5Z" fill="#D9DCE1"/>
<path d="M0 12C0 10.8954 0.895431 10 2 10H5V15H2C0.89543 15 0 14.1046 0 13V12Z" fill="#D9DCE1"/>
<path d="M5 15H10V20H5V15Z" fill="#D9DCE1"/>
<path d="M0 22C0 20.8954 0.895431 20 2 20H5V25H2C0.89543 25 0 24.1046 0 23V22Z" fill="#D9DCE1"/>
<path d="M5 25H10V28C10 29.1046 9.10457 30 8 30H7C5.89543 30 5 29.1046 5 28V25Z" fill="#D9DCE1"/>
<path d="M10 2C10 0.89543 10.8954 0 12 0H13C14.1046 0 15 0.895431 15 2V5H10V2Z" fill="#D9DCE1"/>
<path d="M15 5H20V10H15V5Z" fill="#D9DCE1"/>
<path d="M10 10H15V15H10V10Z" fill="#D9DCE1"/>
<path d="M15 15H20V20H15V15Z" fill="#D9DCE1"/>
<path d="M10 20H15V25H10V20Z" fill="#D9DCE1"/>
<path d="M15 25H20V28C20 29.1046 19.1046 30 18 30H17C15.8954 30 15 29.1046 15 28V25Z" fill="#D9DCE1"/>
<path d="M20 2C20 0.89543 20.8954 0 22 0H23C24.1046 0 25 0.895431 25 2V5H20V2Z" fill="#D9DCE1"/>
<path d="M25 5H28C29.1046 5 30 5.89543 30 7V8C30 9.10457 29.1046 10 28 10H25V5Z" fill="#D9DCE1"/>
<path d="M20 10H25V15H20V10Z" fill="#D9DCE1"/>
<path d="M25 15H28C29.1046 15 30 15.8954 30 17V18C30 19.1046 29.1046 20 28 20H25V15Z" fill="#D9DCE1"/>
<path d="M20 20H25V25H20V20Z" fill="#D9DCE1"/>
<path d="M25 25H28C29.1046 25 30 25.8954 30 27V28C30 29.1046 29.1046 30 28 30H27C25.8954 30 25 29.1046 25 28V25Z" fill="#D9DCE1"/>
<rect width="30" height="30" rx="2" fill="black" fill-opacity="0.5"/>
</svg>
