<svg width="39" height="39" viewBox="0 0 39 39" fill="none" xmlns="http://www.w3.org/2000/svg">
<path fill-rule="evenodd" clip-rule="evenodd" d="M19.5 28C20.3284 28 21 27.3284 21 26.5C21 25.6716 20.3284 25 19.5 25C18.6716 25 18 25.6716 18 26.5C18 27.3284 18.6716 28 19.5 28ZM19.5 29C20.8807 29 22 27.8807 22 26.5C22 25.1193 20.8807 24 19.5 24C18.1193 24 17 25.1193 17 26.5C17 27.8807 18.1193 29 19.5 29Z" fill="#8E9AAC"/>
<path fill-rule="evenodd" clip-rule="evenodd" d="M19.5 14C20.3284 14 21 13.3284 21 12.5C21 11.6716 20.3284 11 19.5 11C18.6716 11 18 11.6716 18 12.5C18 13.3284 18.6716 14 19.5 14ZM19.5 15C20.8807 15 22 13.8807 22 12.5C22 11.1193 20.8807 10 19.5 10C18.1193 10 17 11.1193 17 12.5C17 13.8807 18.1193 15 19.5 15Z" fill="#8E9AAC"/>
<path fill-rule="evenodd" clip-rule="evenodd" d="M11.5 21C12.3284 21 13 20.3284 13 19.5C13 18.6716 12.3284 18 11.5 18C10.6716 18 10 18.6716 10 19.5C10 20.3284 10.6716 21 11.5 21ZM11.5 22C12.8807 22 14 20.8807 14 19.5C14 18.1193 12.8807 17 11.5 17C10.1193 17 9 18.1193 9 19.5C9 20.8807 10.1193 22 11.5 22Z" fill="#8E9AAC"/>
<path fill-rule="evenodd" clip-rule="evenodd" d="M27.5 21C28.3284 21 29 20.3284 29 19.5C29 18.6716 28.3284 18 27.5 18C26.6716 18 26 18.6716 26 19.5C26 20.3284 26.6716 21 27.5 21ZM27.5 22C28.8807 22 30 20.8807 30 19.5C30 18.1193 28.8807 17 27.5 17C26.1193 17 25 18.1193 25 19.5C25 20.8807 26.1193 22 27.5 22Z" fill="#8E9AAC"/>
<path fill-rule="evenodd" clip-rule="evenodd" d="M21.8604 13.3259C21.9508 13.0674 22 12.7895 22 12.5001C22 12.4423 21.998 12.3849 21.9942 12.3281C24.5687 13.0244 26.6231 14.7702 27.5163 17.0001C27.5109 17.0001 27.5055 17.0001 27.5 17.0001C27.1492 17.0001 26.8153 17.0723 26.5124 17.2027C25.7231 15.4027 24.0326 13.9476 21.8604 13.3259ZM17.1396 13.3259C17.0492 13.0674 17 12.7895 17 12.5001C17 12.4423 17.002 12.3849 17.0058 12.3281C14.4313 13.0243 12.3769 14.7702 11.4836 17.0001C11.4891 17.0001 11.4945 17.0001 11.5 17.0001C11.8508 17.0001 12.1847 17.0723 12.4876 17.2027C13.2769 15.4027 14.9674 13.9476 17.1396 13.3259ZM12.4876 21.7974C12.1847 21.9278 11.8508 22.0001 11.5 22.0001C11.4945 22.0001 11.4891 22 11.4836 22C12.3769 24.2299 14.4313 25.9758 17.0058 26.672C17.002 26.6152 17 26.5578 17 26.5001C17 26.2107 17.0492 25.9327 17.1396 25.6742C14.9674 25.0526 13.2769 23.5974 12.4876 21.7974ZM21.8604 25.6742C21.9508 25.9327 22 26.2107 22 26.5001C22 26.5578 21.998 26.6152 21.9942 26.672C24.5687 25.9758 26.6231 24.2299 27.5163 22C27.5109 22 27.5055 22.0001 27.5 22.0001C27.1492 22.0001 26.8153 21.9278 26.5124 21.7974C25.7231 23.5974 24.0326 25.0526 21.8604 25.6742Z" fill="#8E9AAC"/>
</svg>
