<svg width="39" height="39" viewBox="0 0 39 39" fill="none" xmlns="http://www.w3.org/2000/svg">
    <path fill-rule="evenodd" clip-rule="evenodd" d="M7.5 32.6384C8.32843 32.6384 9 31.9669 9 31.1384C9 30.31 8.32843 29.6384 7.5 29.6384C6.67157 29.6384 6 30.31 6 31.1384C6 31.9669 6.67157 32.6384 7.5 32.6384ZM7.5 33.6384C8.88071 33.6384 10 32.5191 10 31.1384C10 29.7577 8.88071 28.6384 7.5 28.6384C6.11929 28.6384 5 29.7577 5 31.1384C5 32.5191 6.11929 33.6384 7.5 33.6384Z" fill="#8E9AAC"/>
    <path fill-rule="evenodd" clip-rule="evenodd" d="M15.5 20.6384C16.3284 20.6384 17 19.9669 17 19.1384C17 18.31 16.3284 17.6384 15.5 17.6384C14.6716 17.6384 14 18.31 14 19.1384C14 19.9669 14.6716 20.6384 15.5 20.6384ZM15.5 21.6384C16.8807 21.6384 18 20.5191 18 19.1384C18 17.7577 16.8807 16.6384 15.5 16.6384C14.1193 16.6384 13 17.7577 13 19.1384C13 20.5191 14.1193 21.6384 15.5 21.6384Z" fill="#8E9AAC"/>
    <path fill-rule="evenodd" clip-rule="evenodd" d="M22.5 27.6384C23.3284 27.6384 24 26.9669 24 26.1384C24 25.31 23.3284 24.6384 22.5 24.6384C21.6716 24.6384 21 25.31 21 26.1384C21 26.9669 21.6716 27.6384 22.5 27.6384ZM22.5 28.6384C23.8807 28.6384 25 27.5191 25 26.1384C25 24.7577 23.8807 23.6384 22.5 23.6384C21.1193 23.6384 20 24.7577 20 26.1384C20 27.5191 21.1193 28.6384 22.5 28.6384Z" fill="#8E9AAC"/>
    <path fill-rule="evenodd" clip-rule="evenodd" d="M30.5 15.6384C31.3284 15.6384 32 14.9669 32 14.1384C32 13.31 31.3284 12.6384 30.5 12.6384C29.6716 12.6384 29 13.31 29 14.1384C29 14.9669 29.6716 15.6384 30.5 15.6384ZM30.5 16.6384C31.8807 16.6384 33 15.5191 33 14.1384C33 12.7577 31.8807 11.6384 30.5 11.6384C29.1193 11.6384 28 12.7577 28 14.1384C28 15.5191 29.1193 16.6384 30.5 16.6384Z" fill="#8E9AAC"/>
    <path fill-rule="evenodd" clip-rule="evenodd" d="M14.916 20.9158L8.916 29.9158L8.08395 29.3611L14.084 20.3611L14.916 20.9158ZM29.916 15.9158L23.916 24.9158L23.084 24.3611L29.084 15.3611L29.916 15.9158Z" fill="#8E9AAC"/>
    <path fill-rule="evenodd" clip-rule="evenodd" d="M20.6465 24.992L16.6465 20.992L17.3536 20.2849L21.3536 24.2849L20.6465 24.992Z" fill="#8E9AAC"/>
    <path d="M33.4854 7.5293L33.7725 5H36.5615V5.82373H34.5825L34.4595 6.89355C34.6942 6.76823 34.9437 6.70557 35.208 6.70557C35.682 6.70557 36.0534 6.85254 36.3223 7.14648C36.5911 7.44043 36.7256 7.85173 36.7256 8.38037C36.7256 8.70166 36.6572 8.98991 36.5205 9.24512C36.3861 9.49805 36.1924 9.69515 35.9395 9.83643C35.6865 9.97542 35.388 10.0449 35.0439 10.0449C34.7432 10.0449 34.464 9.98454 34.2065 9.86377C33.9491 9.74072 33.7451 9.56869 33.5947 9.34766C33.4466 9.12663 33.368 8.87484 33.3589 8.59229H34.3364C34.3569 8.79964 34.4287 8.96143 34.5518 9.07764C34.6771 9.19157 34.84 9.24854 35.0405 9.24854C35.2638 9.24854 35.4359 9.16878 35.5566 9.00928C35.6774 8.84749 35.7378 8.61963 35.7378 8.32568C35.7378 8.04313 35.6683 7.82666 35.5293 7.67627C35.3903 7.52588 35.1932 7.45068 34.938 7.45068C34.7033 7.45068 34.513 7.51221 34.3672 7.63525L34.2715 7.72412L33.4854 7.5293Z" fill="#8E9AAC"/>
    <path d="M4.73779 26.9766H3.75V23.1689L2.5708 23.5347V22.7314L4.63184 21.9932H4.73779V26.9766Z" fill="#8E9AAC"/>
</svg>
