<svg width="20" height="20" viewBox="0 0 20 20" version="1.1" xmlns="http://www.w3.org/2000/svg" xmlns:xlink="http://www.w3.org/1999/xlink">
<title>&#208;&#186;&#208;&#189;&#208;&#190;&#208;&#191;&#208;&#186;&#208;&#176; &#208;&#191;&#208;&#190;&#208;&#187;&#208;&#189;&#208;&#190;&#209;&#141;&#208;&#186;&#209;&#128;&#208;&#176;&#208;&#189;&#208;&#189;&#208;&#190;&#208;&#179;&#208;&#190; &#209;&#128;&#208;&#181;&#208;&#182;&#208;&#184;&#208;&#188;&#208;&#176;</title>
<desc>Created using Figma</desc>
<g id="Canvas" transform="translate(-6919 5499)">
<clipPath id="clip-0" clip-rule="evenodd">
<path d="M 6919 -5499L 6939 -5499L 6939 -5479L 6919 -5479L 6919 -5499Z" fill="#FFFFFF"/>
</clipPath>
<g id="&#208;&#186;&#208;&#189;&#208;&#190;&#208;&#191;&#208;&#186;&#208;&#176; &#208;&#191;&#208;&#190;&#208;&#187;&#208;&#189;&#208;&#190;&#209;&#141;&#208;&#186;&#209;&#128;&#208;&#176;&#208;&#189;&#208;&#189;&#208;&#190;&#208;&#179;&#208;&#190; &#209;&#128;&#208;&#181;&#208;&#182;&#208;&#184;&#208;&#188;&#208;&#176;" clip-path="url(#clip-0)">
<g id="icon_expand_screen">
<use xlink:href="#path0_fill" transform="translate(6919 -5499)" fill="#8E9AAC"/>
<use xlink:href="#path1_fill" transform="translate(6919 -5499)" fill="#8E9AAC"/>
<use xlink:href="#path2_fill" transform="translate(6919 -5499)" fill="#8E9AAC"/>
<use xlink:href="#path3_fill" transform="translate(6919 -5499)" fill="#8E9AAC"/>
<use xlink:href="#path4_fill" transform="translate(6919 -5499)" fill="#8E9AAC"/>
<use xlink:href="#path5_fill" transform="translate(6919 -5499)" fill="#8E9AAC"/>
<use xlink:href="#path6_fill" transform="translate(6919 -5499)" fill="#8E9AAC"/>
<use xlink:href="#path7_fill" transform="translate(6919 -5499)" fill="#8E9AAC"/>
<use xlink:href="#path8_fill" transform="translate(6919 -5499)" fill="#8E9AAC"/>
<use xlink:href="#path9_fill" transform="translate(6919 -5499)" fill="#8E9AAC"/>
<use xlink:href="#path10_fill" transform="translate(6919 -5499)" fill="#8E9AAC"/>
<use xlink:href="#path11_fill" transform="translate(6919 -5499)" fill="#8E9AAC"/>
<use xlink:href="#path12_fill" transform="translate(6919 -5499)" fill="#8E9AAC"/>
<use xlink:href="#path13_fill" transform="translate(6919 -5499)" fill="#8E9AAC"/>
<use xlink:href="#path14_fill" transform="translate(6919 -5499)" fill="#8E9AAC"/>
<use xlink:href="#path15_fill" transform="translate(6919 -5499)" fill="#8E9AAC"/>
<use xlink:href="#path16_fill" transform="translate(6919 -5499)" fill="#8E9AAC"/>
<use xlink:href="#path17_fill" transform="translate(6919 -5499)" fill="#8E9AAC"/>
<use xlink:href="#path18_fill" transform="translate(6919 -5499)" fill="#8E9AAC"/>
<use xlink:href="#path19_fill" transform="translate(6919 -5499)" fill="#8E9AAC"/>
<use xlink:href="#path20_fill" transform="translate(6919 -5499)" fill="#8E9AAC"/>
</g>
</g>
</g>
<defs>
<path id="path0_fill" d="M 7.27271 10.9091L 9.09089 10.9091L 9.09089 18.1818L 7.27271 18.1818L 7.27271 10.9091Z"/>
<path id="path1_fill" d="M 0 10.9091L 7.27271 10.9091L 7.27273 12.7272L 0 12.7272L 0 10.9091Z"/>
<path id="path2_fill" d="M 9.62354 9.09094L 14.7661 3.94835L 16.0518 5.234L 10.9092 10.3766L 9.62354 9.09094Z"/>
<path id="path3_fill" d="M 16.3636 8.18181L 16.3636 3.63635L 11.8181 3.63635L 16.3636 8.18181Z"/>
<path id="path4_fill" d="M 0 12.7272L 1.81818 12.7273L 1.81818 20L 0 20L 0 12.7272Z"/>
<path id="path5_fill" d="M 1.81812 18.1819L 9.09089 18.1818L 9.09084 20.0001L 1.81818 20L 1.81812 18.1819Z"/>
<path id="path6_fill" d="M 10.9092 18.1819L 12.7274 18.1819L 12.7274 20.0001L 10.9092 20.0001L 10.9092 18.1819Z"/>
<path id="path7_fill" d="M 14.5454 18.1819L 16.3636 18.1819L 16.3636 20.0001L 14.5454 20.0001L 14.5454 18.1819Z"/>
<path id="path8_fill" d="M 18.1819 18.1819L 20.0001 18.1819L 20.0001 20.0001L 18.1819 20.0001L 18.1819 18.1819Z"/>
<path id="path9_fill" d="M 18.1819 14.5454L 20.0001 14.5454L 20.0001 16.3636L 18.1819 16.3636L 18.1819 14.5454Z"/>
<path id="path10_fill" d="M 18.1819 10.9091L 20.0001 10.9091L 20.0001 12.7272L 18.1819 12.7272L 18.1819 10.9091Z"/>
<path id="path11_fill" d="M 18.1819 7.27271L 20.0001 7.27271L 20.0001 9.09089L 18.1819 9.09089L 18.1819 7.27271Z"/>
<path id="path12_fill" d="M 18.1819 3.63635L 20.0001 3.63635L 20.0001 5.45453L 18.1819 5.45453L 18.1819 3.63635Z"/>
<path id="path13_fill" d="M 18.1819 0L 20.0001 0L 20.0001 1.81818L 18.1819 1.81818L 18.1819 0Z"/>
<path id="path14_fill" d="M 14.5454 0L 16.3636 0L 16.3636 1.81818L 14.5454 1.81818L 14.5454 0Z"/>
<path id="path15_fill" d="M 10.9092 0L 12.7274 0L 12.7274 1.81818L 10.9092 1.81818L 10.9092 0Z"/>
<path id="path16_fill" d="M 7.27271 0L 9.09089 0L 9.09089 1.81818L 7.27271 1.81818L 7.27271 0Z"/>
<path id="path17_fill" d="M 3.63647 0L 5.45466 0L 5.45466 1.81818L 3.63647 1.81818L 3.63647 0Z"/>
<path id="path18_fill" d="M 0 0L 1.81818 0L 1.81818 1.81818L 0 1.81818L 0 0Z"/>
<path id="path19_fill" d="M 0 3.63635L 1.81818 3.63635L 1.81818 5.45453L 0 5.45453L 0 3.63635Z"/>
<path id="path20_fill" d="M 0 7.27271L 1.81818 7.27271L 1.81818 9.09089L 0 9.09089L 0 7.27271Z"/>
</defs>
</svg>
