<svg width="39" height="39" viewBox="0 0 39 39" fill="none" xmlns="http://www.w3.org/2000/svg">
    <path fill-rule="evenodd" clip-rule="evenodd" d="M11.5 17C12.3284 17 13 16.3284 13 15.5C13 14.6716 12.3284 14 11.5 14C10.6716 14 10 14.6716 10 15.5C10 16.3284 10.6716 17 11.5 17ZM11.5 18C12.8807 18 14 16.8807 14 15.5C14 14.1193 12.8807 13 11.5 13C10.1193 13 9 14.1193 9 15.5C9 16.8807 10.1193 18 11.5 18Z" fill="#8E9AAC"/>
    <path fill-rule="evenodd" clip-rule="evenodd" d="M8.5 30C9.32843 30 10 29.3284 10 28.5C10 27.6716 9.32843 27 8.5 27C7.67157 27 7 27.6716 7 28.5C7 29.3284 7.67157 30 8.5 30ZM8.5 31C9.88071 31 11 29.8807 11 28.5C11 27.1193 9.88071 26 8.5 26C7.11929 26 6 27.1193 6 28.5C6 29.8807 7.11929 31 8.5 31Z" fill="#8E9AAC"/>
    <path fill-rule="evenodd" clip-rule="evenodd" d="M30.5 30C31.3284 30 32 29.3284 32 28.5C32 27.6716 31.3284 27 30.5 27C29.6716 27 29 27.6716 29 28.5C29 29.3284 29.6716 30 30.5 30ZM30.5 31C31.8807 31 33 29.8807 33 28.5C33 27.1193 31.8807 26 30.5 26C29.1193 26 28 27.1193 28 28.5C28 29.8807 29.1193 31 30.5 31Z" fill="#8E9AAC"/>
    <path fill-rule="evenodd" clip-rule="evenodd" d="M15.5 25C16.3284 25 17 24.3284 17 23.5C17 22.6716 16.3284 22 15.5 22C14.6716 22 14 22.6716 14 23.5C14 24.3284 14.6716 25 15.5 25ZM15.5 26C16.8807 26 18 24.8807 18 23.5C18 22.1193 16.8807 21 15.5 21C14.1193 21 13 22.1193 13 23.5C13 24.8807 14.1193 26 15.5 26Z" fill="#8E9AAC"/>
    <path fill-rule="evenodd" clip-rule="evenodd" d="M23.5 25C24.3284 25 25 24.3284 25 23.5C25 22.6716 24.3284 22 23.5 22C22.6716 22 22 22.6716 22 23.5C22 24.3284 22.6716 25 23.5 25ZM23.5 26C24.8807 26 26 24.8807 26 23.5C26 22.1193 24.8807 21 23.5 21C22.1193 21 21 22.1193 21 23.5C21 24.8807 22.1193 26 23.5 26Z" fill="#8E9AAC"/>
    <path fill-rule="evenodd" clip-rule="evenodd" d="M19.5 9C20.3284 9 21 8.32843 21 7.5C21 6.67157 20.3284 6 19.5 6C18.6716 6 18 6.67157 18 7.5C18 8.32843 18.6716 9 19.5 9ZM19.5 10C20.8807 10 22 8.88071 22 7.5C22 6.11929 20.8807 5 19.5 5C18.1193 5 17 6.11929 17 7.5C17 8.88071 18.1193 10 19.5 10Z" fill="#8E9AAC"/>
    <path fill-rule="evenodd" clip-rule="evenodd" d="M27.5 17C28.3284 17 29 16.3284 29 15.5C29 14.6716 28.3284 14 27.5 14C26.6716 14 26 14.6716 26 15.5C26 16.3284 26.6716 17 27.5 17ZM27.5 18C28.8807 18 30 16.8807 30 15.5C30 14.1193 28.8807 13 27.5 13C26.1193 13 25 14.1193 25 15.5C25 16.8807 26.1193 18 27.5 18Z" fill="#8E9AAC"/>
    <path fill-rule="evenodd" clip-rule="evenodd" d="M19.4851 9.6212L16.4851 21.6212L15.5149 21.3787L18.5149 9.37866L19.4851 9.6212Z" fill="#8E9AAC"/>
    <path fill-rule="evenodd" clip-rule="evenodd" d="M20.4851 9.3788L23.4851 21.3788L22.5149 21.6213L19.5149 9.62134L20.4851 9.3788Z" fill="#8E9AAC"/>
    <path fill-rule="evenodd" clip-rule="evenodd" d="M14.0431 21.703L12.0431 17.203L12.9569 16.7969L14.9569 21.2969L14.0431 21.703Z" fill="#8E9AAC"/>
    <path fill-rule="evenodd" clip-rule="evenodd" d="M24.0431 21.2969L26.0431 16.7969L26.9569 17.203L24.9569 21.703L24.0431 21.2969Z" fill="#8E9AAC"/>
    <path fill-rule="evenodd" clip-rule="evenodd" d="M11.4881 17.6085L9.48809 26.6085L8.5119 26.3916L10.5119 17.3916L11.4881 17.6085Z" fill="#8E9AAC"/>
    <path fill-rule="evenodd" clip-rule="evenodd" d="M29.5119 26.6085L27.5119 17.6085L28.4881 17.3916L30.4881 26.3916L29.5119 26.6085Z" fill="#8E9AAC"/>
    <path d="M4 23H14V24H4V23Z" fill="#8E9AAC"/>
    <path d="M25 23H35V24H25V23Z" fill="#8E9AAC"/>
    <path d="M17 23H22V24H17V23Z" fill="#8E9AAC"/>
</svg>
