<svg width="30" height="30" viewBox="0 0 30 30" fill="none" xmlns="http://www.w3.org/2000/svg">
    <path d="M9.55078 19.1016C9.8744 19.1016 10.1367 18.8392 10.1367 18.5156V13.4849L11.7229 11.8988C11.9517 11.6699 11.9517 11.2989 11.7229 11.0701C11.4941 10.8412 11.1231 10.8413 10.8942 11.0701L9.30803 12.6563H4.27734C3.95373 12.6563 3.69141 12.9186 3.69141 13.2422C3.69141 13.5658 3.95373 13.8281 4.27734 13.8281H8.13615L5.7924 16.1719H4.27734C3.95373 16.1719 3.69141 16.4342 3.69141 16.7578C3.69141 17.0814 3.95373 17.3438 4.27734 17.3438H5.44922V18.5156C5.44922 18.8392 5.71154 19.1016 6.03516 19.1016C6.35877 19.1016 6.62109 18.8392 6.62109 18.5156V17.0006L8.96484 14.6568V18.5156C8.96484 18.8392 9.22717 19.1016 9.55078 19.1016Z" fill="#3B4B68"/>
    <path d="M15 12.0703H20.2734C20.597 12.0703 20.8594 11.808 20.8594 11.4844C20.8594 11.1608 20.597 10.8984 20.2734 10.8984H15C14.6764 10.8984 14.4141 11.1608 14.4141 11.4844C14.4141 11.808 14.6764 12.0703 15 12.0703Z" fill="#3B4B68"/>
    <path d="M20.8594 18.5156C20.8594 18.192 20.597 17.9297 20.2734 17.9297H15C14.6764 17.9297 14.4141 18.192 14.4141 18.5156C14.4141 18.8392 14.6764 19.1016 15 19.1016H20.2734C20.597 19.1016 20.8594 18.8392 20.8594 18.5156Z" fill="#3B4B68"/>
    <path d="M15 15.5859H20.2734C20.597 15.5859 20.8594 15.3236 20.8594 15C20.8594 14.6764 20.597 14.4141 20.2734 14.4141H15C14.6764 14.4141 14.4141 14.6764 14.4141 15C14.4141 15.3236 14.6764 15.5859 15 15.5859Z" fill="#3B4B68"/>
    <path d="M15 22.6172C15.3236 22.6172 15.5859 22.3549 15.5859 22.0312C15.5859 21.7076 15.3236 21.4453 15 21.4453C14.6764 21.4453 14.4141 21.7076 14.4141 22.0312C14.4141 22.3549 14.6764 22.6172 15 22.6172Z" fill="#3B4B68"/>
    <path d="M0.585938 22.6172H12.3633C12.6869 22.6172 12.9492 22.3549 12.9492 22.0312C12.9492 21.7076 12.6869 21.4453 12.3633 21.4453H1.17188V8.55469H23.2031V9.72656C23.2031 10.0502 23.4655 10.3125 23.7891 10.3125C24.1126 10.3125 24.375 10.0502 24.375 9.72656V8.55469H28.8281V12.7304C27.8184 12.9912 27.0703 13.9099 27.0703 15C27.0703 16.0901 27.8184 17.0088 28.8281 17.2696V21.4453H24.375V20.2734C24.375 19.9498 24.1126 19.6875 23.7891 19.6875C23.4655 19.6875 23.2031 19.9498 23.2031 20.2734V21.4453H17.6367C17.3132 21.4453 17.0508 21.7076 17.0508 22.0312C17.0508 22.3549 17.3132 22.6172 17.6367 22.6172H29.4141C29.7376 22.6172 30 22.3549 30 22.0312V16.7578C30 16.4342 29.7376 16.1719 29.4141 16.1719C28.7679 16.1719 28.2422 15.6462 28.2422 15C28.2422 14.3538 28.7679 13.8281 29.4141 13.8281C29.7376 13.8281 30 13.5658 30 13.2422V7.96875C30 7.64514 29.7376 7.38281 29.4141 7.38281H0.585938C0.262324 7.38281 0 7.64514 0 7.96875V22.0312C0 22.3549 0.262324 22.6172 0.585938 22.6172Z" fill="#3B4B68"/>
    <path d="M23.7891 17.3438C24.1126 17.3438 24.375 17.0814 24.375 16.7578V13.2422C24.375 12.9186 24.1126 12.6562 23.7891 12.6562C23.4655 12.6562 23.2031 12.9186 23.2031 13.2422V16.7578C23.2031 17.0814 23.4655 17.3438 23.7891 17.3438Z" fill="#3B4B68"/>
</svg>
