<svg width="39" height="39" viewBox="0 0 39 39" fill="none" xmlns="http://www.w3.org/2000/svg">

<path fill-rule="evenodd" clip-rule="evenodd" d="M27 15H16C15.4477 15 15 15.4477 15 16V27C15 27.5523 15.4477 28 16 28H27C27.5523 28 28 27.5523 28 27V16C28 15.4477 27.5523 15 27 15ZM16 14C14.8954 14 14 14.8954 14 16V27C14 28.1046 14.8954 29 16 29H27C28.1046 29 29 28.1046 29 27V16C29 14.8954 28.1046 14 27 14H16Z" fill="#8E9AAC"/>
<path d="M13 12H24C24.5523 12 25 12.4477 25 13V14H26V13C26 11.8954 25.1046 11 24 11H13C11.8954 11 11 11.8954 11 13V24C11 25.1046 11.8954 26 13 26H14V25H13C12.4477 25 12 24.5523 12 24V13C12 12.4477 12.4477 12 13 12Z" fill="#8E9AAC"/>
</svg>
