<svg width="39" height="39" viewBox="0 0 39 39" fill="none" xmlns="http://www.w3.org/2000/svg">
    <path fill-rule="evenodd" clip-rule="evenodd" d="M27.5 14C28.3284 14 29 13.3284 29 12.5C29 11.6716 28.3284 11 27.5 11C26.6716 11 26 11.6716 26 12.5C26 13.3284 26.6716 14 27.5 14ZM27.5 15C28.8807 15 30 13.8807 30 12.5C30 11.1193 28.8807 10 27.5 10C26.1193 10 25 11.1193 25 12.5C25 13.8807 26.1193 15 27.5 15Z" fill="#8E9AAC"/>
    <path fill-rule="evenodd" clip-rule="evenodd" d="M10.5 19C11.3284 19 12 18.3284 12 17.5C12 16.6716 11.3284 16 10.5 16C9.67157 16 9 16.6716 9 17.5C9 18.3284 9.67157 19 10.5 19ZM10.5 20C11.8807 20 13 18.8807 13 17.5C13 16.1193 11.8807 15 10.5 15C9.11929 15 8 16.1193 8 17.5C8 18.8807 9.11929 20 10.5 20Z" fill="#8E9AAC"/>
    <path fill-rule="evenodd" clip-rule="evenodd" d="M25.6421 13.4794L12.1421 17.4794L11.858 16.5206L25.358 12.5206L25.6421 13.4794Z" fill="#8E9AAC"/>
    <path fill-rule="evenodd" clip-rule="evenodd" d="M27.5 28C28.3284 28 29 27.3284 29 26.5C29 25.6716 28.3284 25 27.5 25C26.6716 25 26 25.6716 26 26.5C26 27.3284 26.6716 28 27.5 28ZM27.5 29C28.8807 29 30 27.8807 30 26.5C30 25.1193 28.8807 24 27.5 24C26.1193 24 25 25.1193 25 26.5C25 27.8807 26.1193 29 27.5 29Z" fill="#8E9AAC"/>
    <path fill-rule="evenodd" clip-rule="evenodd" d="M10.5 28C11.3284 28 12 27.3284 12 26.5C12 25.6716 11.3284 25 10.5 25C9.67157 25 9 25.6716 9 26.5C9 27.3284 9.67157 28 10.5 28ZM10.5 29C11.8807 29 13 27.8807 13 26.5C13 25.1193 11.8807 24 10.5 24C9.11929 24 8 25.1193 8 26.5C8 27.8807 9.11929 29 10.5 29Z" fill="#8E9AAC"/>
    <path fill-rule="evenodd" clip-rule="evenodd" d="M25.5 27H12.5V26H25.5V27Z" fill="#8E9AAC"/>
</svg>
