<svg width="39" height="39" viewBox="0 0 39 39" fill="none" xmlns="http://www.w3.org/2000/svg">
    <path fill-rule="evenodd" clip-rule="evenodd" d="M8.5 21C9.32843 21 10 20.3284 10 19.5C10 18.6716 9.32843 18 8.5 18C7.67157 18 7 18.6716 7 19.5C7 20.3284 7.67157 21 8.5 21ZM8.5 22C9.88071 22 11 20.8807 11 19.5C11 18.1193 9.88071 17 8.5 17C7.11929 17 6 18.1193 6 19.5C6 20.8807 7.11929 22 8.5 22Z" fill="#8E9AAC"/>
    <path d="M10 19.5C10 19.2239 10.2239 19 10.5 19H31.5C31.7761 19 32 19.2239 32 19.5C32 19.7761 31.7761 20 31.5 20H10.5C10.2239 20 10 19.7761 10 19.5Z" fill="#8E9AAC"/>
</svg>