<svg width="39" height="39" viewBox="0 0 39 39" fill="none" xmlns="http://www.w3.org/2000/svg">
    <path d="M17.5 28C17.1451 28 16.8571 27.7317 16.8571 27.4012V12.5988C16.8571 12.2683 17.1451 12 17.5 12C17.8549 12 18.1429 12.2683 18.1429 12.5988V27.4012C18.1429 27.7317 17.8549 28 17.5 28Z" fill="#8E9AAC"/>
    <path d="M24.375 15.2137C24.03 15.2137 23.75 14.9441 23.75 14.6119V13.2036H11.25V14.6119C11.25 14.9441 10.97 15.2137 10.625 15.2137C10.28 15.2137 10 14.9441 10 14.6119V12.6018C10 12.2696 10.28 12 10.625 12H24.375C24.72 12 25 12.2696 25 12.6018V14.6119C25 14.9441 24.72 15.2137 24.375 15.2137Z" fill="#8E9AAC"/>
    <path d="M19.375 28H15.625C15.28 28 15 27.7243 15 27.3846C15 27.0449 15.28 26.7692 15.625 26.7692H19.375C19.72 26.7692 20 27.0449 20 27.3846C20 27.7243 19.72 28 19.375 28Z" fill="#8E9AAC"/>
    <path d="M22.2696 21.7778C21.9237 21.7778 21.6429 21.5095 21.6429 21.1789V19.7784C21.6429 19.4478 21.9237 19.1795 22.2696 19.1795H29.3732C29.7192 19.1795 30 19.4478 30 19.7784V20.9784C30 21.309 29.7192 21.5773 29.3732 21.5773C29.0272 21.5773 28.7464 21.309 28.7464 20.9784V20.3772H22.8964V21.1789C22.8964 21.5095 22.6156 21.7778 22.2696 21.7778Z" fill="#8E9AAC"/>
    <path d="M25.8571 28C25.5023 28 25.2143 27.7311 25.2143 27.3997V19.7797C25.2143 19.4484 25.5023 19.1795 25.8571 19.1795C26.212 19.1795 26.5 19.4484 26.5 19.7797V27.3997C26.5 27.7311 26.212 28 25.8571 28Z" fill="#8E9AAC"/>
    <path d="M26.8839 28H24.8304C24.4903 28 24.2143 27.7243 24.2143 27.3846C24.2143 27.0449 24.4903 26.7692 24.8304 26.7692H26.8839C27.224 26.7692 27.5 27.0449 27.5 27.3846C27.5 27.7243 27.224 28 26.8839 28Z" fill="#8E9AAC"/>
</svg>
