<svg width="18" height="18" viewBox="0 0 18 18" fill="none" xmlns="http://www.w3.org/2000/svg">
<path d="M9 0C4.05 0 0 4.05 0 9C0 13.95 4.05 18 9 18C13.95 18 18 13.95 18 9C18 4.05 13.95 0 9 0ZM10.0125 14.625H7.7625V12.375H10.0125V14.625ZM12.375 9.1125C11.925 9.5625 11.475 9.7875 11.025 9.9C10.35 10.35 10.125 10.125 10.125 11.25H7.875C7.875 9 9.225 8.325 10.125 7.875C10.4625 7.7625 10.6875 7.65 10.9125 7.425C11.025 7.3125 11.25 7.0875 11.025 6.6375C10.8 6.075 10.125 5.5125 9.1125 5.5125C7.5375 5.5125 7.3125 6.8625 7.2 7.2L4.95 6.8625C5.0625 5.625 6.075 3.2625 9 3.2625C10.8 3.2625 12.375 4.275 13.05 5.7375C13.5 6.975 13.275 8.2125 12.375 9.1125Z" fill="#51A2D9"/>
</svg>
