<svg width="39" height="39" viewBox="0 0 39 39" fill="none" xmlns="http://www.w3.org/2000/svg">
    <path fill-rule="evenodd" clip-rule="evenodd" d="M14.4727 9C15.3011 9 15.9727 8.32843 15.9727 7.5C15.9727 6.67157 15.3011 6 14.4727 6C13.6442 6 12.9727 6.67157 12.9727 7.5C12.9727 8.32843 13.6442 9 14.4727 9ZM14.4727 10C15.8534 10 16.9727 8.88071 16.9727 7.5C16.9727 6.11929 15.8534 5 14.4727 5C13.0919 5 11.9727 6.11929 11.9727 7.5C11.9727 8.88071 13.0919 10 14.4727 10Z" fill="#8E9AAC"/>
    <path fill-rule="evenodd" clip-rule="evenodd" d="M20.4727 28C21.3011 28 21.9727 27.3284 21.9727 26.5C21.9727 25.6716 21.3011 25 20.4727 25C19.6442 25 18.9727 25.6716 18.9727 26.5C18.9727 27.3284 19.6442 28 20.4727 28ZM20.4727 29C21.8534 29 22.9727 27.8807 22.9727 26.5C22.9727 25.1193 21.8534 24 20.4727 24C19.0919 24 17.9727 25.1193 17.9727 26.5C17.9727 27.8807 19.0919 29 20.4727 29Z" fill="#8E9AAC"/>
    <path fill-rule="evenodd" clip-rule="evenodd" d="M26.4727 14C27.3011 14 27.9727 13.3284 27.9727 12.5C27.9727 11.6716 27.3011 11 26.4727 11C25.6442 11 24.9727 11.6716 24.9727 12.5C24.9727 13.3284 25.6442 14 26.4727 14ZM26.4727 15C27.8534 15 28.9727 13.8807 28.9727 12.5C28.9727 11.1193 27.8534 10 26.4727 10C25.0919 10 23.9727 11.1193 23.9727 12.5C23.9727 13.8807 25.0919 15 26.4727 15Z" fill="#8E9AAC"/>
    <path fill-rule="evenodd" clip-rule="evenodd" d="M31.4727 23C32.3011 23 32.9727 22.3284 32.9727 21.5C32.9727 20.6716 32.3011 20 31.4727 20C30.6442 20 29.9727 20.6716 29.9727 21.5C29.9727 22.3284 30.6442 23 31.4727 23ZM31.4727 24C32.8534 24 33.9727 22.8807 33.9727 21.5C33.9727 20.1193 32.8534 19 31.4727 19C30.0919 19 28.9727 20.1193 28.9727 21.5C28.9727 22.8807 30.0919 24 31.4727 24Z" fill="#8E9AAC"/>
    <path fill-rule="evenodd" clip-rule="evenodd" d="M8.47266 33C9.30108 33 9.97266 32.3284 9.97266 31.5C9.97266 30.6716 9.30108 30 8.47266 30C7.64423 30 6.97266 30.6716 6.97266 31.5C6.97266 32.3284 7.64423 33 8.47266 33ZM8.47266 34C9.85337 34 10.9727 32.8807 10.9727 31.5C10.9727 30.1193 9.85337 29 8.47266 29C7.09194 29 5.97266 30.1193 5.97266 31.5C5.97266 32.8807 7.09194 34 8.47266 34Z" fill="#8E9AAC"/>
    <path fill-rule="evenodd" clip-rule="evenodd" d="M14.4577 9.62125L9.4577 29.6213L8.48756 29.3787L13.4876 9.37872L14.4577 9.62125Z" fill="#8E9AAC"/>
    <path fill-rule="evenodd" clip-rule="evenodd" d="M19.4954 25.1491L14.4954 9.14911L15.4499 8.85083L20.4499 24.8508L19.4954 25.1491Z" fill="#8E9AAC"/>
    <path fill-rule="evenodd" clip-rule="evenodd" d="M26.4286 14.7051L21.9286 24.7051L21.0167 24.2947L25.5167 14.2947L26.4286 14.7051Z" fill="#8E9AAC"/>
    <path fill-rule="evenodd" clip-rule="evenodd" d="M30.0254 20.2236L27.0254 14.2236L27.9199 13.7764L30.9199 19.7764L30.0254 20.2236Z" fill="#8E9AAC"/>
    <path d="M6.69141 26.8281H4.63672L4.24609 28H3L5.11719 22.3125H6.20312L8.33203 28H7.08594L6.69141 26.8281ZM4.95312 25.8789H6.375L5.66016 23.75L4.95312 25.8789Z" fill="#8E9AAC"/>
    <path d="M34.9023 15.5352H32.6523V17.0586H35.293V18H31.4805V12.3125H35.2852V13.2617H32.6523V14.6172H34.9023V15.5352Z" fill="#8E9AAC"/>
</svg>
