<svg width="24" height="24" viewBox="0 0 24 24" fill="none" xmlns="http://www.w3.org/2000/svg">
<path d="M12 0C5.3723 0 0 5.3723 0 12C0 18.6277 5.3723 24 12 24C18.6277 24 24 18.6277 24 12C24 5.3723 18.6277 0 12 0ZM12 22.125C6.40795 22.125 1.875 17.592 1.875 12C1.875 6.40795 6.40795 1.875 12 1.875C17.592 1.875 22.125 6.40795 22.125 12C22.125 17.592 17.592 22.125 12 22.125Z" transform="translate(24 24) rotate(-180)" fill="#8E9AAC"/>
<path d="M5.78027 0.219727C5.48731 -0.073242 5.0127 -0.073242 4.71973 0.219727L0.219726 4.71973C-0.0732423 5.0127 -0.0732423 5.4873 0.219726 5.78027L4.71973 10.2803C4.86621 10.4268 5.05812 10.5 5.25002 10.5C5.44193 10.5 5.63384 10.4268 5.78027 10.2802C6.07324 9.98726 6.07324 9.51265 5.78027 9.21968L1.81057 5.24998L5.78032 1.28023C6.07324 0.987258 6.07324 0.512695 5.78027 0.219727Z" transform="translate(15.4688 17.25) rotate(-180)" fill="#8E9AAC"/>
</svg>
