<svg width="12" height="12" viewBox="0 0 12 12" fill="none" xmlns="http://www.w3.org/2000/svg">
<path d="M5.29688 1.42969C2.38898 1.42969 0 3.79523 0 6.70312C0 9.61102 2.38898 12 5.29688 12C8.20477 12 10.5703 9.61102 10.5703 6.70312V6.35156H5.64844V1.42969H5.29688Z" fill="#8E9AAC"/>
<path d="M11.1464 2.46487C11.0028 2.2402 10.8429 2.02789 10.668 1.82812L6.84961 5.64651H7.96472L11.1464 2.46487Z" fill="#8E9AAC"/>
<path d="M6.35156 5.15222L10.1699 1.33383C9.97009 1.15897 9.75787 0.999023 9.5332 0.855469L6.35156 4.03711V5.15222Z" fill="#8E9AAC"/>
<path d="M6.35156 0V3.04193L8.88959 0.503906C8.22253 0.198395 7.48361 0 6.70312 0H6.35156Z" fill="#8E9AAC"/>
<path d="M8.95898 5.6474H12.0009V5.29584C12.0009 4.51535 11.8025 3.77643 11.497 3.10938L8.95898 5.6474Z" fill="#8E9AAC"/>
</svg>
