<svg width="15" height="15" viewBox="0 0 15 15" version="1.1" xmlns="http://www.w3.org/2000/svg" xmlns:xlink="http://www.w3.org/1999/xlink">
<g id="Canvas" fill="none">
<g id="cancel">
<path id="Vector" d="M 7.08219 5.6758C 6.98174 5.57534 6.98174 5.42466 7.08219 5.3242L 10.8493 1.55708C 10.9498 1.45662 11 1.30594 11 1.20548C 11 1.10502 10.9498 0.954338 10.8493 0.853881L 10.1461 0.150685C 10.0457 0.0502283 9.89498 0 9.79452 0C 9.64384 0 9.54338 0.0502283 9.44292 0.150685L 5.6758 3.91781C 5.57534 4.01826 5.42466 4.01826 5.3242 3.91781L 1.55708 0.150685C 1.45662 0.0502283 1.30594 0 1.20548 0C 1.10502 0 0.954338 0.0502283 0.853881 0.150685L 0.150685 0.853881C 0.0502283 0.954338 0 1.10502 0 1.20548C 0 1.30594 0.0502283 1.45662 0.150685 1.55708L 3.91781 5.3242C 4.01826 5.42466 4.01826 5.57534 3.91781 5.6758L 0.150685 9.44292C 0.0502283 9.54338 0 9.69406 0 9.79452C 0 9.89498 0.0502283 10.0457 0.150685 10.1461L 0.853881 10.8493C 0.954338 10.9498 1.10502 11 1.20548 11C 1.30594 11 1.45662 10.9498 1.55708 10.8493L 5.3242 7.08219C 5.42466 6.98174 5.57534 6.98174 5.6758 7.08219L 9.44292 10.8493C 9.54338 10.9498 9.69406 11 9.79452 11C 9.89498 11 10.0457 10.9498 10.1461 10.8493L 10.8493 10.1461C 10.9498 10.0457 11 9.89498 11 9.79452C 11 9.69406 10.9498 9.54338 10.8493 9.44292L 7.08219 5.6758Z" transform="matrix(0.707107 0.707107 -0.707107 0.707107 7.77832 0)" fill="#8E9AAC"/>
</g>
</g>
</svg>
