<svg width="18" height="19" viewBox="0 0 18 19" fill="none" xmlns="http://www.w3.org/2000/svg">
<path d="M17.384 5.14176L12.7982 0.111996C12.7329 0.0404492 12.6429 0 12.5488 0H5.71406C4.94917 0 4.32687 0.656613 4.32687 1.46367V6.57693H1.55701C0.984739 6.57693 0.519165 7.06822 0.519165 7.67214V13.1548C0.519165 13.7587 0.984739 14.25 1.55701 14.25H4.32687V17.5389C4.32687 18.3445 4.94917 19 5.71406 19H16.0935C16.8584 19 17.4807 18.3449 17.4807 17.5397V5.39515C17.4807 5.30067 17.446 5.20986 17.384 5.14176ZM12.6346 0.986404L16.3991 5.11538H12.6346V0.986404ZM1.55701 13.5192C1.36647 13.5192 1.2115 13.3558 1.2115 13.1548V7.67214C1.2115 7.47119 1.3665 7.30769 1.55701 7.30769H10.9044C11.095 7.30769 11.2499 7.47119 11.2499 7.67214V13.1548C11.2499 13.3558 11.0949 13.5192 10.9044 13.5192H1.55701ZM16.7884 17.5397C16.7884 17.942 16.4767 18.2692 16.0935 18.2692H5.71406C5.3309 18.2692 5.01916 17.9416 5.01916 17.5389V14.25H10.9044C11.4767 14.25 11.9423 13.7587 11.9423 13.1548V7.67214C11.9423 7.06822 11.4767 6.57693 10.9044 6.57693H5.01916V1.46367C5.01916 1.05951 5.3309 0.730758 5.71406 0.730758H11.9422V5.48076C11.9422 5.68256 12.0972 5.84614 12.2884 5.84614H16.7884V17.5397Z" fill="#3B4B68"/>
<path d="M4.65757 9.27326C4.54265 9.11555 4.39998 9.01313 4.22962 8.96604C4.11874 8.93464 3.88076 8.91895 3.51567 8.91895H2.55225V12.0575H3.15261V10.8736H3.54407C3.81586 10.8736 4.02343 10.8586 4.16676 10.8286C4.27223 10.8044 4.37601 10.7548 4.4781 10.6798C4.5802 10.6049 4.66436 10.5018 4.73063 10.3705C4.7969 10.2392 4.83002 10.0772 4.83002 9.88449C4.82998 9.63471 4.7725 9.43098 4.65757 9.27326ZM4.14341 10.1371C4.09813 10.2071 4.03559 10.2584 3.95579 10.2913C3.87598 10.3241 3.71781 10.3405 3.48118 10.3405H3.15261V9.44991H3.44265C3.659 9.44991 3.803 9.45703 3.87465 9.47132C3.97199 9.48987 4.05247 9.53626 4.11599 9.61048C4.17956 9.68469 4.21134 9.77892 4.21134 9.89306C4.21137 9.98584 4.1887 10.0672 4.14341 10.1371Z" fill="#3B4B68"/>
<path d="M7.71617 9.77639C7.65127 9.57585 7.5566 9.40638 7.43222 9.26792C7.30783 9.12947 7.15838 9.03313 6.98397 8.97888C6.85418 8.93891 6.66553 8.91895 6.4181 8.91895H5.3208V12.0575H6.45055C6.67231 12.0575 6.84943 12.0354 6.98193 11.9911C7.15909 11.9312 7.29971 11.8477 7.40381 11.7407C7.54173 11.5993 7.64786 11.4145 7.72225 11.1862C7.78311 10.9992 7.81352 10.7765 7.81352 10.5182C7.81352 10.2242 7.78107 9.97693 7.71617 9.77639ZM7.13202 11.0652C7.09145 11.2058 7.03906 11.3068 6.97483 11.3682C6.9106 11.4295 6.82981 11.4731 6.73247 11.4987C6.65811 11.5187 6.53707 11.5287 6.36941 11.5287H5.92116V9.44991H6.19092C6.43564 9.44991 6.59996 9.45989 6.68377 9.47989C6.79599 9.50557 6.88863 9.55481 6.96165 9.62762C7.03467 9.70043 7.09145 9.80174 7.13202 9.93162C7.17259 10.0615 7.19287 10.2478 7.19287 10.4904C7.19287 10.733 7.17259 10.9246 7.13202 11.0652Z" fill="#3B4B68"/>
<path d="M10.365 9.44991V8.91895H8.32666V12.0575H8.92702V10.7238H10.1683V10.1928H8.92702V9.44991H10.365Z" fill="#3B4B68"/>
</svg>
