<svg width="39" height="39" viewBox="0 0 39 39" fill="none" xmlns="http://www.w3.org/2000/svg">
    <path d="M19.7875 10C16.0449 10 12.9999 13.0449 12.9999 16.7876C12.9999 18.2916 13.8854 20.5789 15.7865 23.9858C17.0839 26.3105 18.3752 28.274 18.4297 28.3567L19.363 29.7715C19.4571 29.9142 19.6166 30 19.7875 30C19.9585 30 20.1179 29.9142 20.2121 29.7715L21.1454 28.3568C21.1993 28.275 22.4813 26.3285 23.7885 23.9858C25.6897 20.5791 26.5752 18.2918 26.5752 16.7876C26.5752 13.0449 23.5302 10 19.7875 10ZM22.9004 23.4902C21.6113 25.8 20.3496 27.7161 20.2964 27.7966L19.7875 28.5679L19.2788 27.7968C19.2254 27.7156 17.954 25.7824 16.6747 23.4902C14.9112 20.3299 14.017 18.0748 14.017 16.7876C14.017 13.6057 16.6057 11.0171 19.7875 11.0171C22.9694 11.0171 25.5581 13.6057 25.5581 16.7876C25.5581 18.075 24.6639 20.33 22.9004 23.4902Z" fill="#8E9AAC"/>
    <path d="M19.7874 12.9818C17.7123 12.9818 16.0241 14.6701 16.0241 16.7452C16.0241 18.8203 17.7123 20.5085 19.7874 20.5085C21.8626 20.5085 23.5508 18.8203 23.5508 16.7452C23.5508 14.6701 21.8626 12.9818 19.7874 12.9818ZM19.7874 19.4914C18.2731 19.4914 17.0412 18.2595 17.0412 16.7452C17.0412 15.2309 18.2731 13.9989 19.7874 13.9989C21.3018 13.9989 22.5337 15.2309 22.5337 16.7452C22.5337 18.2595 21.3018 19.4914 19.7874 19.4914Z" fill="#8E9AAC"/>
</svg>
