<svg width="20" height="20" viewBox="0 0 20 20" version="1.1" xmlns="http://www.w3.org/2000/svg" xmlns:xlink="http://www.w3.org/1999/xlink">
	<g transform="translate(-25 -1131)">
		<use xlink:href="#icon-logout-fill" transform="translate(25 1131)" fill="#8E9AAC"/>
	</g>
	<defs>
		<path id="icon-logout-fill" d="M 15.6819 2.35438C 15.5174 2.24373 15.3297 2.19001 15.1432 2.18814C 14.8323 2.18437 14.5252 2.32563 14.3355 2.59125C 14.031 3.0175 14.1407 3.60125 14.58 3.89624C 16.7619 5.36 18.0645 7.75874 18.0645 10.3125C 18.0645 14.6206 14.4471 18.125 10 18.125C 5.55291 18.125 1.93549 14.6206 1.93549 10.3125C 1.93549 7.75874 3.23807 5.36 5.42 3.89564C 5.86 3.60125 5.96902 3.0169 5.66451 2.59065C 5.47098 2.32003 5.15611 2.17877 4.83935 2.18877C 4.65869 2.19378 4.47739 2.24753 4.31804 2.35441C 1.61422 4.16876 9.47441e-09 7.14374 9.47441e-09 10.3125C 9.47441e-09 15.6544 4.48582 20 10 20C 15.5142 20 20 15.6544 20 10.3125C 20 7.14374 18.3858 4.16876 15.6819 2.35438ZM 10 7.49999C 10.5348 7.49999 10.9677 7.07998 10.9677 6.56249L 10.9677 0.937503C 10.9677 0.420013 10.5348 0 10 0C 9.46516 0 9.03226 0.420013 9.03226 0.937503L 9.03226 6.56249C 9.03226 7.08001 9.46516 7.49999 10 7.49999Z"/>
	</defs>
</svg>