<svg width="18" height="19" viewBox="0 0 18 19" fill="none" xmlns="http://www.w3.org/2000/svg">
<path d="M17.384 5.14176L12.7982 0.111996C12.733 0.0404492 12.643 0 12.5489 0H5.71411C4.94922 0 4.32695 0.656613 4.32695 1.46367V6.57693H1.55706C0.984861 6.57693 0.519287 7.06822 0.519287 7.67214V13.1548C0.519287 13.7587 0.984861 14.25 1.55706 14.25H4.32695V17.5389C4.32695 18.3445 4.94918 19 5.71411 19H16.0936C16.8585 19 17.4808 18.3449 17.4808 17.5397V5.39515C17.4808 5.30067 17.4461 5.20986 17.384 5.14176ZM12.6347 0.986404L16.3992 5.11538H12.6347V0.986404ZM1.55706 13.5192C1.36659 13.5192 1.21158 13.3558 1.21158 13.1548V7.67214C1.21158 7.47119 1.36659 7.30769 1.55706 7.30769H10.9045C11.0951 7.30769 11.25 7.47119 11.25 7.67214V13.1548C11.25 13.3558 11.095 13.5192 10.9045 13.5192H1.55706ZM16.7885 17.5397C16.7885 17.942 16.4768 18.2692 16.0936 18.2692H5.71411C5.33095 18.2692 5.01929 17.9416 5.01929 17.5389V14.25H10.9045C11.4768 14.25 11.9424 13.7587 11.9424 13.1548V7.67214C11.9424 7.06822 11.4768 6.57693 10.9045 6.57693H5.01925V1.46367C5.01925 1.05951 5.33091 0.730758 5.71408 0.730758H11.9423V5.48076C11.9423 5.68256 12.0973 5.84614 12.2885 5.84614H16.7885V17.5397Z" fill="#3B4B68"/>
<path d="M7.88037 8.91895V9.44983H8.76273V12.0575H9.36302V9.44983H10.2433V8.91895H7.88037Z" fill="#3B4B68"/>
<path d="M7.42809 9.27327C7.31316 9.11551 7.17046 9.01313 7.00016 8.96596C6.88921 8.93453 6.65124 8.91895 6.28621 8.91895H5.32275V12.0575H5.92308V10.8736H6.31458C6.5863 10.8736 6.79394 10.8586 6.93723 10.8286C7.04274 10.8043 7.14648 10.7547 7.24858 10.6798C7.3506 10.6049 7.4348 10.5018 7.5011 10.3704C7.5673 10.2392 7.60046 10.0771 7.60046 9.88446C7.60046 9.63475 7.54301 9.43094 7.42809 9.27327ZM6.91396 10.1371C6.86861 10.207 6.80603 10.2584 6.72633 10.2913C6.64653 10.324 6.48836 10.3405 6.25165 10.3405H5.92308V9.44983H6.21316C6.42951 9.44983 6.57347 9.45696 6.64516 9.47121C6.7425 9.48984 6.82298 9.53615 6.8865 9.61041C6.95014 9.68459 6.98188 9.77885 6.98188 9.89303C6.98188 9.98577 6.95921 10.0671 6.91396 10.1371Z" fill="#3B4B68"/>
<path d="M4.65758 9.27327C4.54265 9.11551 4.40002 9.01313 4.22962 8.96596C4.11877 8.93453 3.8808 8.91895 3.51567 8.91895H2.55225V12.0575H3.15264V10.8736H3.54404C3.81587 10.8736 4.02339 10.8586 4.16669 10.8286C4.27219 10.8043 4.37594 10.7547 4.47807 10.6798C4.58016 10.6049 4.66429 10.5018 4.7306 10.3704C4.79687 10.2392 4.82995 10.0771 4.82995 9.88446C4.82995 9.63475 4.7725 9.43094 4.65758 9.27327ZM4.14345 10.1371C4.0981 10.207 4.03563 10.2584 3.95582 10.2913C3.87605 10.324 3.71785 10.3405 3.48125 10.3405H3.15264V9.44983H3.44265C3.659 9.44983 3.803 9.45696 3.87465 9.47121C3.972 9.48984 4.05247 9.53615 4.116 9.61041C4.17963 9.68459 4.21137 9.77885 4.21137 9.89303C4.21141 9.98581 4.18873 10.0671 4.14345 10.1371Z" fill="#3B4B68"/>
</svg>
