<svg width="39" height="39" viewBox="0 0 39 39" fill="none" xmlns="http://www.w3.org/2000/svg">
    <path fill-rule="evenodd" clip-rule="evenodd" d="M7.5 14C8.32843 14 9 14.6716 9 15.5C9 16.3284 8.32843 17 7.5 17C6.67157 17 6 16.3284 6 15.5C6 14.6716 6.67157 14 7.5 14ZM7.5 13C8.88071 13 10 14.1193 10 15.5C10 16.8807 8.88071 18 7.5 18C6.11929 18 5 16.8807 5 15.5C5 14.1193 6.11929 13 7.5 13Z" fill="#8E9AAC"/>
    <path fill-rule="evenodd" clip-rule="evenodd" d="M15.5 22C16.3284 22 17 22.6716 17 23.5C17 24.3284 16.3284 25 15.5 25C14.6716 25 14 24.3284 14 23.5C14 22.6716 14.6716 22 15.5 22ZM15.5 21C16.8807 21 18 22.1193 18 23.5C18 24.8807 16.8807 26 15.5 26C14.1193 26 13 24.8807 13 23.5C13 22.1193 14.1193 21 15.5 21Z" fill="#8E9AAC"/>
    <path fill-rule="evenodd" clip-rule="evenodd" d="M23.5 14C24.3284 14 25 14.6716 25 15.5C25 16.3284 24.3284 17 23.5 17C22.6716 17 22 16.3284 22 15.5C22 14.6716 22.6716 14 23.5 14ZM23.5 13C24.8807 13 26 14.1193 26 15.5C26 16.8807 24.8807 18 23.5 18C22.1193 18 21 16.8807 21 15.5C21 14.1193 22.1193 13 23.5 13Z" fill="#8E9AAC"/>
    <path fill-rule="evenodd" clip-rule="evenodd" d="M31.5 22C32.3284 22 33 22.6716 33 23.5C33 24.3284 32.3284 25 31.5 25C30.6716 25 30 24.3284 30 23.5C30 22.6716 30.6716 22 31.5 22ZM31.5 21C32.8807 21 34 22.1193 34 23.5C34 24.8807 32.8807 26 31.5 26C30.1193 26 29 24.8807 29 23.5C29 22.1193 30.1193 21 31.5 21Z" fill="#8E9AAC"/>
    <path fill-rule="evenodd" clip-rule="evenodd" d="M14.3535 21.6464L9.35353 16.6464L8.64642 17.3535L13.6464 22.3535L14.3535 21.6464ZM21.6464 16.6464L16.6464 21.6464L17.3535 22.3535L22.3535 17.3535L21.6464 16.6464ZM30.3535 21.6464L25.3535 16.6464L24.6464 17.3535L29.6464 22.3535L30.3535 21.6464Z" fill="#8E9AAC"/>
    <path d="M8.62305 10.2729L9.24707 7.24512H10.4731L9.26025 12H8.19678L7.2959 9.00732L6.39502 12H5.33594L4.12305 7.24512H5.34912L5.96875 10.2686L6.83887 7.24512H7.75732L8.62305 10.2729Z" fill="#8E9AAC"/>
    <path d="M32.4214 9.05566L33.4717 6.88037H34.8516L33.0454 10.2158V12H31.771V10.1631L30 6.88037H31.3711L32.4214 9.05566Z" fill="#8E9AAC"/>
</svg>
