<svg width="34" height="35" viewBox="0 0 34 35" version="1.1" xmlns="http://www.w3.org/2000/svg" xmlns:xlink="http://www.w3.org/1999/xlink">
<title>Liteforex-cabinet-icons_Qiwi</title>
<desc>Created using Figma</desc>
<g id="Canvas" transform="translate(-6983 -10906)">
<g id="Liteforex-cabinet-icons_Qiwi">
<g id="Vector">
<use xlink:href="#path0_fill" transform="translate(6983 10906)" fill="#FF8C00"/>
</g>
</g>
</g>
<defs>
<path id="path0_fill" d="M 33.9001 34.3001C 34.2113 34.6946 33.7272 35.089 33.3815 34.7632C 29.7858 31.6076 26.7605 30.6986 23.7698 30.5786C 22.1794 30.51 20.6063 30.6643 18.9467 30.8015C 18.6183 30.8358 18.2898 30.853 17.9441 30.8873C 17.8058 30.9044 17.6502 30.9044 17.4946 30.9216C 16.9068 30.9902 16.3191 31.0245 15.7313 31.0245C 12.9135 31.0245 10.2513 30.3385 7.83108 28.9836C 5.39359 27.6288 3.45743 25.7423 2.07446 23.3584C 0.691486 20.9917 0 18.3677 0 15.5723C 0 12.7768 0.691486 10.1357 2.07446 7.75183C 3.45743 5.35082 5.35902 3.44716 7.76193 2.07516C 10.1476 0.686003 12.7579 0 15.5066 0C 18.3935 0 21.073 0.686003 23.5105 2.04086C 25.948 3.39571 27.8842 5.29937 29.2844 7.68323C 30.6847 10.0671 31.3762 12.691 31.3762 15.5037C 31.3762 16.5841 31.2725 17.6303 31.065 18.6593C 31.0304 18.8136 30.9959 18.9851 30.944 19.1909C 30.9094 19.3624 30.8576 19.5339 30.8057 19.6883L 30.7884 19.6883C 30.5118 20.5801 29.9932 21.832 29.0251 23.4441C 28.9214 23.6156 28.8695 23.4784 28.8523 23.3927C 28.5065 21.026 27.4693 19.2252 25.6196 18.059C 25.585 18.0419 25.5504 18.0247 25.5331 18.0076C 25.2392 17.8189 24.9108 17.6474 24.565 17.5102C 24.1329 17.3216 23.6488 17.1501 23.1475 17.0129C 22.8363 16.9271 22.1448 16.9614 22.3869 16.7213C 22.4906 16.6184 23.9946 16.6013 25.7406 16.7042C 25.7751 16.7042 25.8097 16.7042 25.8443 16.7042C 25.8789 16.344 25.8962 15.9667 25.8962 15.5894C 25.8962 12.6396 24.9108 10.2214 22.8882 8.23203C 20.8656 6.22547 18.48 5.26507 15.6276 5.26507C 12.7061 5.26507 10.3377 6.24262 8.38427 8.24918C 6.41353 10.2386 5.46274 12.6396 5.46274 15.538C 5.46274 18.4363 6.44811 20.803 8.45342 22.8096C 10.476 24.8161 12.8098 25.7766 15.6103 25.7766C 15.7486 25.7766 15.8696 25.7766 16.0079 25.7766C 16.0079 25.7423 16.0079 25.7079 16.0079 25.6736C 15.8523 23.6328 15.8177 21.9349 16.2326 22.6209C 16.3882 22.861 16.5265 23.084 16.6821 23.3069C 17.2353 24.1301 17.7885 24.799 18.3244 25.3649C 18.359 25.3992 18.3762 25.4164 18.4108 25.4507C 20.3988 27.4573 22.3523 27.9546 24.444 28.452C 24.4959 28.4691 24.5305 28.4691 24.5823 28.4863C 24.9281 28.572 25.2738 28.6578 25.6196 28.7435C 28.0916 29.3952 30.7711 30.4414 33.9001 34.3001ZM 27.0198 21.9692C 26.7086 21.8835 26.4839 21.9521 26.3629 22.1579C 26.19 22.4666 26.311 23.084 26.6568 23.6156C 27.0025 24.1644 27.3137 24.4388 27.5384 24.4388C 27.6249 24.4388 27.694 24.4045 27.7459 24.3359C 27.8842 24.1816 27.9187 23.8729 27.8669 23.4784C 27.8323 23.0668 27.5903 22.2265 27.0198 21.9692ZM 23.5624 24.5074C 23.2512 24.5074 22.9919 24.6103 22.819 24.8161C 22.4041 25.3135 22.5943 26.2053 23.2166 26.7541C 23.4932 26.9942 23.8908 27.1314 24.2884 27.1314C 24.6861 27.1314 25.0145 26.9771 25.222 26.7198C 25.585 26.2225 25.3775 25.5364 24.6861 24.9533C 24.3403 24.6618 23.9427 24.5074 23.5624 24.5074Z"/>
</defs>
</svg>
