<svg width="19" height="18" viewBox="0 0 19 18" fill="none" xmlns="http://www.w3.org/2000/svg">
<path d="M18.6495 0.618562C18.34 0.225373 17.8602 -9.75461e-09 17.3326 -9.75461e-09C16.9918 -9.75461e-09 16.6389 0.0922295 16.2831 0.273915L1.13572 7.99831C0.0591084 8.54821 -0.015755 9.3762 0.00206959 9.70628C0.0191812 10.0384 0.183881 10.8533 1.31325 11.2894L3.249 12.0342C3.61619 12.1757 4.02687 12.2485 4.46892 12.2485C4.53879 12.2485 4.60581 12.2395 4.67497 12.236C4.64859 12.2693 4.61651 12.2949 4.59227 12.3296C4.23149 12.8546 4.21367 13.5661 4.54022 14.3323C4.54521 14.3455 4.5502 14.3566 4.55519 14.3677C5.12772 15.6013 5.76441 16.9938 5.84141 17.1873C6.03107 17.6685 6.51447 18 7.04493 18C7.86201 18 8.10443 17.6172 9.44127 15.5008C9.54537 15.3455 9.77709 14.9849 9.8163 14.5258C9.97245 14.5875 10.1193 14.6444 10.2448 14.6936L12.3895 15.5438C12.8194 15.7144 13.1959 15.8649 13.3941 15.9446C13.4554 15.9814 13.5203 16.0126 13.588 16.0396C13.7391 16.0979 13.9003 16.1277 14.0621 16.1277C15.0375 16.1277 15.2713 15.3059 15.3968 14.8656C15.4589 14.6478 15.5444 14.3462 15.6364 14.0133L18.9076 2.32307C19.1543 1.44031 18.8512 0.876527 18.6495 0.618562ZM8.3611 14.8351C8.3611 14.8351 7.1476 16.7566 7.04422 16.7566C7.04137 16.7566 7.03994 16.7552 7.03852 16.7525C6.91945 16.4411 5.72021 13.8566 5.72021 13.8566C5.49918 13.3386 5.53911 12.8948 5.91913 12.8948C6.00255 12.8948 6.10237 12.9163 6.2193 12.9634L7.15045 13.4343C7.30589 13.5376 7.47558 13.6271 7.66238 13.6985L7.70943 13.7158L7.79713 13.7588C8.51653 14.1291 8.7454 14.263 8.3611 14.8351ZM17.6741 1.99576L14.4044 13.686C14.2197 14.3448 14.0657 14.8836 14.0628 14.8836C14.06 14.8822 14.0564 14.8697 14.0564 14.8677C14.0564 14.8635 13.5231 14.6513 12.8714 14.392L10.7254 13.5418C10.0737 13.2852 9.00493 12.8698 8.3497 12.6243L8.24132 12.582L7.84062 12.3795C7.44349 12.0834 7.40856 11.5953 7.80783 11.1813L14.4471 4.26683C14.7138 3.99014 14.8143 3.84729 14.7566 3.84729C14.7109 3.84729 14.5634 3.93952 14.3167 4.12744L5.91628 10.5724C5.5498 10.8505 4.99296 11.0058 4.46963 11.0058C4.20155 11.0058 3.94131 10.9642 3.71957 10.8789L1.78524 10.1348C1.13144 9.88311 1.10648 9.4185 1.72892 9.09951L16.8777 1.37373C17.0524 1.28497 17.2057 1.24336 17.3326 1.24336C17.6584 1.24336 17.8067 1.52075 17.6741 1.99576Z" fill="#8E9AAC"/>
</svg>
