<svg width="12" height="20" viewBox="0 0 12 20" fill="none" xmlns="http://www.w3.org/2000/svg">
<path d="M10.1983 0H1.80159C0.992252 0 0.333252 0.659 0.333252 1.46833V18.5313C0.333252 19.341 0.992252 20 1.80159 20H10.1979C11.0076 20 11.6666 19.341 11.6666 18.5317V1.46833C11.6666 0.659 11.0076 0 10.1983 0ZM0.999919 2.66667H10.9999V15.3333H0.999919V2.66667ZM1.80159 0.666667H10.1979C10.6403 0.666667 10.9999 1.02633 10.9999 1.46833V2H0.999919V1.46833C0.999919 1.02633 1.35959 0.666667 1.80159 0.666667ZM10.1983 19.3333H1.80159C1.35959 19.3333 0.999919 18.9737 0.999919 18.5317V16H10.9999V18.5317C10.9999 18.9737 10.6403 19.3333 10.1983 19.3333Z" fill="#8E9AAC"/>
<path d="M5.99984 16.3335C5.2645 16.3335 4.6665 16.9315 4.6665 17.6668C4.6665 18.4022 5.2645 19.0002 5.99984 19.0002C6.73517 19.0002 7.33317 18.4022 7.33317 17.6668C7.33317 16.9315 6.73517 16.3335 5.99984 16.3335ZM5.99984 18.3335C5.63217 18.3335 5.33317 18.0345 5.33317 17.6668C5.33317 17.2992 5.63217 17.0002 5.99984 17.0002C6.3675 17.0002 6.6665 17.2992 6.6665 17.6668C6.6665 18.0345 6.3675 18.3335 5.99984 18.3335Z" fill="#8E9AAC"/>
<path d="M4.66659 1.66667H5.99992C6.18425 1.66667 6.33325 1.51767 6.33325 1.33333C6.33325 1.149 6.18425 1 5.99992 1H4.66659C4.48225 1 4.33325 1.149 4.33325 1.33333C4.33325 1.51767 4.48225 1.66667 4.66659 1.66667Z" fill="#8E9AAC"/>
<path d="M6.99984 1.66667H7.33317C7.5175 1.66667 7.6665 1.51767 7.6665 1.33333C7.6665 1.149 7.5175 1 7.33317 1H6.99984C6.8155 1 6.6665 1.149 6.6665 1.33333C6.6665 1.51767 6.8155 1.66667 6.99984 1.66667Z" fill="#8E9AAC"/>
</svg>
