<svg width="16" height="16" viewBox="0 0 16 16" fill="none" xmlns="http://www.w3.org/2000/svg">
<g clip-path="url(#clip0)">
<path fill-rule="evenodd" clip-rule="evenodd" d="M9.08361 7.99784L15.7743 1.30713C16.074 1.00743 16.074 0.521556 15.7743 0.22185C15.4746 -0.0778562 14.9887 -0.0778562 14.689 0.22185L7.99833 6.91255L1.30762 0.222873C1.00792 -0.0768333 0.522044 -0.0768333 0.222338 0.222873C-0.0773679 0.522579 -0.0773679 1.00845 0.222338 1.30816L6.91304 7.99886L0.223361 14.6885C-0.076345 14.9882 -0.076345 15.4741 0.223361 15.7738C0.373725 15.9232 0.569097 15.9989 0.765491 15.9989C0.961886 15.9989 1.15828 15.9242 1.30762 15.7738L7.99833 9.08312L14.689 15.7738C14.8394 15.9232 15.0348 15.9989 15.2312 15.9989C15.4276 15.9989 15.624 15.9242 15.7733 15.7738C16.073 15.4741 16.073 14.9882 15.7733 14.6885L9.08361 7.99784Z" fill="#8E9AAC"/>
</g>
<defs>
<clipPath id="clip0">
<rect width="16" height="16" fill="white"/>
</clipPath>
</defs>
</svg>
