<svg width="22" height="22" viewBox="0 0 22 22" version="1.1" xmlns="http://www.w3.org/2000/svg" xmlns:xlink="http://www.w3.org/1999/xlink">
<g id="Canvas" transform="translate(2708 -373)">
<g id="calendar">
<g id="Group">
<g id="Group">
<g id="Vector">
<use xlink:href="#path0_fill" transform="translate(-2708 373)" fill="#8E9AAC"/>
</g>
</g>
</g>
<g id="Group">
<g id="Group">
<g id="Vector">
<use xlink:href="#path1_fill" transform="translate(-2693.5 385.427)" fill="#8E9AAC"/>
</g>
</g>
</g>
</g>
</g>
<defs>
<path id="path0_fill" d="M 19.9289 10.2364L 19.9289 2.02529C 19.9289 1.66934 19.6403 1.38076 19.2844 1.38076L 16.1319 1.38076L 16.1319 0.644531C 16.1319 0.288578 15.8433 0 15.4874 0C 15.1314 0 14.8428 0.288578 14.8428 0.644531L 14.8428 1.38076L 10.609 1.38076L 10.609 0.644531C 10.609 0.288578 10.3204 0 9.96445 0C 9.6085 0 9.31992 0.288578 9.31992 0.644531L 9.31992 1.38076L 5.08608 1.38076L 5.08608 0.644531C 5.08608 0.288578 4.7975 0 4.44155 0C 4.0856 0 3.79702 0.288578 3.79702 0.644531L 3.79702 1.38076L 0.644531 1.38076C 0.288578 1.38076 0 1.66934 0 2.02529L 0 19.2844C 0 19.6404 0.288578 19.9289 0.644531 19.9289L 10.2364 19.9289C 11.4827 21.2058 13.2213 22 15.1421 22C 18.9236 22 22 18.9236 22 15.1422C 22 13.2213 21.2058 11.4827 19.9289 10.2364ZM 1.28906 2.66982L 18.6398 2.66982L 18.6398 5.52295L 1.28906 5.52295L 1.28906 2.66982ZM 1.28906 18.6398L 1.28906 6.81201L 18.6398 6.81201L 18.6398 9.24567C 17.6151 8.63552 16.419 8.28438 15.1422 8.28438C 11.3608 8.28438 8.28438 11.3608 8.28438 15.1422C 8.28438 16.419 8.63552 17.6151 9.24567 18.6398L 1.28906 18.6398ZM 15.1421 20.7109C 12.0716 20.7109 9.57339 18.2128 9.57339 15.1422C 9.57339 12.0716 12.0715 9.57344 15.1421 9.57344C 18.2128 9.57344 20.7109 12.0716 20.7109 15.1422C 20.7109 18.2128 18.2128 20.7109 15.1421 20.7109Z"/>
<path id="path1_fill" d="M 2.71563 2.07109L 1.28906 2.07109L 1.28906 0.644532C 1.28906 0.288579 1.00048 5.24521e-07 0.644531 5.24521e-07C 0.288578 5.24521e-07 -2.6226e-07 0.288579 -2.6226e-07 0.644532L -2.6226e-07 2.71563C -2.6226e-07 3.07158 0.288578 3.36016 0.644531 3.36016L 2.71563 3.36016C 3.07158 3.36016 3.36016 3.07158 3.36016 2.71563C 3.36016 2.35967 3.07158 2.07109 2.71563 2.07109Z"/>
</defs>
</svg>
