<svg width="39" height="35" viewBox="0 0 39 35" fill="none" xmlns="http://www.w3.org/2000/svg">
<path d="M4.70483 35C3.96415 35 3.24579 34.8783 2.56807 34.6383L1.02475 34.092L2.21062 32.9431C3.78022 31.4224 4.17634 29.6683 4.20212 28.3546C1.48928 25.2771 2.10715e-08 21.4378 2.10715e-08 17.5C-0.000495746 7.85065 8.74731 9.28796e-08 19.4995 9.28796e-08C30.2517 9.28796e-08 39 7.85065 39 17.5C39 27.1488 30.2517 34.999 19.4995 34.999C16.2983 34.999 13.1403 34.2893 10.3258 32.9411C9.26539 33.7096 7.12318 35 4.70483 35ZM10.0933 30.5591L10.6625 30.8538C13.3381 32.238 16.394 32.9705 19.499 32.9705C29.158 32.9705 37.0164 26.0304 37.0164 17.5005C37.0164 8.96964 29.158 2.02949 19.499 2.02949C9.83998 2.02949 1.98208 8.96964 1.98208 17.5C1.98208 21.0451 3.37716 24.5112 5.91103 27.2589L6.16883 27.5384L6.18073 27.9224C6.22435 29.3016 5.98242 31.1718 4.78415 32.97C7.08054 32.9325 9.19152 31.2971 9.59507 30.9669L10.0933 30.5591Z" fill="white"/>
<path d="M2.76941 9.4221C2.04212 9.4221 1.45166 9.36377 0.995559 9.24659C0.540445 9.13043 0.225632 9.01072 0.0526097 8.88898C0.00898222 8.84435 -0.00737827 8.74239 0.00303283 8.58109C0.0134439 8.4213 0.0382322 8.25391 0.0764062 8.08246C0.114085 7.91101 0.163165 7.75681 0.222658 7.62544C0.28215 7.49254 0.338667 7.43065 0.393697 7.44232C0.675789 7.54225 0.982173 7.63964 1.31285 7.73348C1.64353 7.82732 2.06394 7.87449 2.57358 7.87449C3.09464 7.87449 3.53587 7.7979 3.90026 7.64167C4.26316 7.48594 4.4456 7.20848 4.4456 6.80928C4.4456 6.46384 4.32563 6.18435 4.08716 5.96826C3.8487 5.75217 3.41986 5.52138 2.80164 5.27841C2.46501 5.14398 2.14822 4.99739 1.84976 4.83609C1.55082 4.6758 1.28856 4.48659 1.0605 4.27C0.832451 4.05391 0.653975 3.79573 0.523588 3.49645C0.393202 3.19718 0.327761 2.84159 0.327761 2.43072C0.327761 2.09797 0.390723 1.78145 0.51516 1.48167C0.639598 1.18188 0.832451 0.923696 1.09273 0.707609C1.35301 0.491522 1.68666 0.319058 2.09368 0.191739C2.50071 0.0639133 2.98606 1.23839e-07 3.55025 1.23839e-07C3.9186 1.23839e-07 4.22548 0.0086232 4.4694 0.0248551C4.71332 0.0415942 4.9136 0.063913 5.07175 0.0918116C5.22842 0.11971 5.35632 0.150145 5.45399 0.183623C5.55166 0.217101 5.64387 0.244492 5.73063 0.266811C5.80648 0.299782 5.84466 0.397174 5.84466 0.557971C5.84466 0.718768 5.82235 0.890725 5.77921 1.07435C5.73608 1.25696 5.67609 1.41826 5.60074 1.55674C5.52439 1.69572 5.44854 1.75406 5.37268 1.73174C5.18826 1.67645 4.93591 1.61558 4.61614 1.54913C4.29588 1.48217 3.98454 1.4492 3.68063 1.4492C3.06191 1.4492 2.63655 1.53848 2.40354 1.71551C2.17003 1.89304 2.05352 2.13145 2.05352 2.43123C2.05352 2.75333 2.18391 3.01152 2.44419 3.20529C2.70447 3.39906 3.11149 3.59638 3.66427 3.79623C4.54277 4.15131 5.19123 4.55913 5.60867 5.01971C6.02611 5.48029 6.23532 6.06007 6.23532 6.75957C6.23532 7.28152 6.13765 7.71471 5.94282 8.05913C5.74699 8.40304 5.48671 8.67544 5.16149 8.87377C4.83627 9.07464 4.46444 9.21565 4.047 9.29884C3.62907 9.38051 3.20321 9.4221 2.76941 9.4221Z" transform="translate(7.27344 12.8643)" fill="white"/>
<path d="M6.83415 9.10609C6.60659 9.10609 6.45736 9.06754 6.38746 8.98942C6.31607 8.91232 6.28186 8.76268 6.28186 8.53949V2.71275C5.84807 3.43406 5.51342 3.99152 5.27992 4.38565C5.04592 4.78029 4.87686 5.06891 4.76779 5.25203C4.65922 5.43413 4.59378 5.54319 4.57147 5.57616C4.55015 5.60964 4.54023 5.63246 4.54023 5.64362C4.44306 5.81 4.37465 5.91804 4.33697 5.96826C4.2983 6.01949 4.21947 6.04283 4.10049 6.04283H3.84021C3.69941 6.04283 3.6067 6.01797 3.56357 5.96826C3.52044 5.91804 3.455 5.81 3.36824 5.64362L1.70841 2.74725V8.64094C1.70841 8.78551 1.68412 8.89964 1.63504 8.98283C1.58645 9.06601 1.45904 9.10761 1.2528 9.10761H0.570132C0.417931 9.10761 0.285561 9.08275 0.171039 9.03254C0.0575086 8.98283 -1.51296e-08 8.81949 -1.51296e-08 8.54102V0.549348C-1.51296e-08 0.327174 0.040653 0.180072 0.121959 0.108043C0.203265 0.0360141 0.319769 -6.19197e-08 0.47197 -6.19197e-08H1.28552C1.40451 -6.19197e-08 1.50515 0.0162316 1.58645 0.0497099C1.66776 0.0831881 1.75154 0.166377 1.8388 0.299275L4.00233 3.8287L6.16635 0.332754C6.23179 0.210507 6.30963 0.124782 6.40333 0.0745648C6.49603 0.0243474 6.58428 -6.19197e-08 6.67154 -6.19197e-08H7.56689C7.77313 -6.19197e-08 7.89162 0.0441309 7.92533 0.132899C7.95805 0.222174 7.97391 0.366231 7.97391 0.566087V8.62268C7.97391 8.78906 7.9526 8.91181 7.90897 8.98993C7.86534 9.06804 7.74041 9.10609 7.53516 9.10609H6.83415Z" transform="translate(14.9375 13.0977)" fill="white"/>
<path d="M2.76941 9.4221C2.04163 9.4221 1.45166 9.36377 0.995559 9.24659C0.540444 9.13043 0.225137 9.01072 0.0526096 8.88898C0.00898215 8.84435 -0.0073774 8.74239 0.00303371 8.58109C0.0134448 8.4213 0.0372413 8.25391 0.0759111 8.08246C0.113589 7.91101 0.162174 7.75681 0.222161 7.62544C0.281158 7.49203 0.337676 7.43065 0.393202 7.44232C0.675293 7.54225 0.982173 7.63964 1.31235 7.73348C1.64253 7.82783 2.06294 7.87449 2.57309 7.87449C3.09414 7.87449 3.53488 7.7979 3.89976 7.64167C4.26217 7.48594 4.4456 7.20848 4.4456 6.80928C4.4456 6.46384 4.32562 6.18435 4.08667 5.96826C3.84771 5.75217 3.41936 5.52138 2.80065 5.27841C2.46402 5.14398 2.14772 4.99739 1.84877 4.83609C1.54983 4.6758 1.28756 4.48659 1.05902 4.27C0.831459 4.05391 0.652984 3.79573 0.522598 3.49645C0.391715 3.19667 0.326769 2.84159 0.326769 2.43072C0.326769 2.09797 0.389731 1.78145 0.513673 1.48167C0.638606 1.18188 0.83146 0.923696 1.09174 0.707609C1.35202 0.491522 1.68517 0.319058 2.09219 0.191739C2.49971 0.0639133 2.98557 1.23839e-07 3.54876 1.23839e-07C3.91761 1.23839e-07 4.22449 0.0086232 4.46791 0.0248551C4.71183 0.0415942 4.91212 0.063913 5.07076 0.0918116C5.22693 0.11971 5.35484 0.150145 5.453 0.183623C5.55017 0.216594 5.64288 0.244492 5.73013 0.266811C5.80549 0.299782 5.84366 0.397174 5.84366 0.557971C5.84366 0.718768 5.82135 0.890725 5.77773 1.07435C5.73509 1.25696 5.6751 1.41826 5.60024 1.55674C5.52389 1.69572 5.44755 1.75406 5.37169 1.73174C5.18776 1.67645 4.93443 1.61558 4.61565 1.54913C4.29538 1.48217 3.98355 1.4492 3.68014 1.4492C3.06142 1.4492 2.63556 1.53848 2.40304 1.71551C2.16953 1.89304 2.05253 2.13145 2.05253 2.43123C2.05253 2.75333 2.18342 3.01152 2.44369 3.20529C2.70348 3.39906 3.111 3.59638 3.66378 3.79623C4.54178 4.15131 5.19074 4.55913 5.60817 5.01971C6.02561 5.48029 6.23482 6.06007 6.23482 6.75957C6.23482 7.28152 6.13716 7.71471 5.94232 8.05913C5.74649 8.40304 5.48622 8.67544 5.16099 8.87377C4.83577 9.07464 4.46394 9.21565 4.04651 9.29884C3.62758 9.38051 3.20321 9.4221 2.76941 9.4221Z" transform="translate(24.4219 12.8643)" fill="white"/>
</svg>
