<svg width="39" height="39" viewBox="0 0 39 39" fill="none" xmlns="http://www.w3.org/2000/svg">
    <path fill-rule="evenodd" clip-rule="evenodd" d="M7.5 26C8.32843 26 9 25.3284 9 24.5C9 23.6716 8.32843 23 7.5 23C6.67157 23 6 23.6716 6 24.5C6 25.3284 6.67157 26 7.5 26ZM7.5 27C8.88071 27 10 25.8807 10 24.5C10 23.1193 8.88071 22 7.5 22C6.11929 22 5 23.1193 5 24.5C5 25.8807 6.11929 27 7.5 27Z" fill="#8E9AAC"/>
    <path fill-rule="evenodd" clip-rule="evenodd" d="M15.5 18C16.3284 18 17 17.3284 17 16.5C17 15.6716 16.3284 15 15.5 15C14.6716 15 14 15.6716 14 16.5C14 17.3284 14.6716 18 15.5 18ZM15.5 19C16.8807 19 18 17.8807 18 16.5C18 15.1193 16.8807 14 15.5 14C14.1193 14 13 15.1193 13 16.5C13 17.8807 14.1193 19 15.5 19Z" fill="#8E9AAC"/>
    <path fill-rule="evenodd" clip-rule="evenodd" d="M23.5 26C24.3284 26 25 25.3284 25 24.5C25 23.6716 24.3284 23 23.5 23C22.6716 23 22 23.6716 22 24.5C22 25.3284 22.6716 26 23.5 26ZM23.5 27C24.8807 27 26 25.8807 26 24.5C26 23.1193 24.8807 22 23.5 22C22.1193 22 21 23.1193 21 24.5C21 25.8807 22.1193 27 23.5 27Z" fill="#8E9AAC"/>
    <path fill-rule="evenodd" clip-rule="evenodd" d="M31.5 18C32.3284 18 33 17.3284 33 16.5C33 15.6716 32.3284 15 31.5 15C30.6716 15 30 15.6716 30 16.5C30 17.3284 30.6716 18 31.5 18ZM31.5 19C32.8807 19 34 17.8807 34 16.5C34 15.1193 32.8807 14 31.5 14C30.1193 14 29 15.1193 29 16.5C29 17.8807 30.1193 19 31.5 19Z" fill="#8E9AAC"/>
    <path fill-rule="evenodd" clip-rule="evenodd" d="M14.3535 18.3536L9.35353 23.3536L8.64642 22.6465L13.6464 17.6465L14.3535 18.3536ZM21.6464 23.3536L16.6464 18.3536L17.3535 17.6465L22.3535 22.6465L21.6464 23.3536ZM30.3535 18.3536L25.3535 23.3536L24.6464 22.6465L29.6464 17.6465L30.3535 18.3536Z" fill="#8E9AAC"/>
    <path d="M8.69141 11.5156H6.63672L6.24609 12.6875H5L7.11719 7H8.20312L10.332 12.6875H9.08594L8.69141 11.5156ZM6.95312 10.5664H8.375L7.66016 8.4375L6.95312 10.5664Z" fill="#8E9AAC"/>
    <path d="M33.6367 10.8711C33.5924 11.4831 33.3659 11.9648 32.957 12.3164C32.5508 12.668 32.0143 12.8438 31.3477 12.8438C30.6185 12.8438 30.0443 12.599 29.625 12.1094C29.2083 11.6172 29 10.9427 29 10.0859V9.73828C29 9.19141 29.0964 8.70964 29.2891 8.29297C29.4818 7.8763 29.7565 7.55729 30.1133 7.33594C30.4727 7.11198 30.8893 7 31.3633 7C32.0195 7 32.5482 7.17578 32.9492 7.52734C33.3503 7.87891 33.582 8.3724 33.6445 9.00781H32.4727C32.444 8.64062 32.3411 8.375 32.1641 8.21094C31.9896 8.04427 31.7227 7.96094 31.3633 7.96094C30.9727 7.96094 30.6797 8.10156 30.4844 8.38281C30.2917 8.66146 30.1927 9.09505 30.1875 9.68359V10.1133C30.1875 10.7279 30.2799 11.1771 30.4648 11.4609C30.6523 11.7448 30.9466 11.8867 31.3477 11.8867C31.7096 11.8867 31.9792 11.8047 32.1562 11.6406C32.3359 11.474 32.4388 11.2174 32.4648 10.8711H33.6367Z" fill="#8E9AAC"/>
</svg>
