<svg width="39" height="39" viewBox="0 0 39 39" fill="none" xmlns="http://www.w3.org/2000/svg">
    <path fill-rule="evenodd" clip-rule="evenodd" d="M8.50681 21.4178L9.50681 15.4178L10.4932 15.5822L9.4932 21.5822L8.50681 21.4178Z" fill="#8E9AAC"/>
    <path fill-rule="evenodd" clip-rule="evenodd" d="M11.7427 12.0713L16.7427 9.07129L17.2572 9.92878L12.2572 12.9288L11.7427 12.0713Z" fill="#8E9AAC"/>
    <path fill-rule="evenodd" clip-rule="evenodd" d="M20.7572 9.07129L25.7572 12.0713L25.2427 12.9288L20.2427 9.92878L20.7572 9.07129Z" fill="#8E9AAC"/>
    <path fill-rule="evenodd" clip-rule="evenodd" d="M27 19.5V15.5H28V19.5H27Z" fill="#8E9AAC"/>
    <path fill-rule="evenodd" clip-rule="evenodd" d="M29.5257 29.1581L27.5257 23.1581L28.4743 22.8419L30.4743 28.8419L29.5257 29.1581Z" fill="#8E9AAC"/>
    <path fill-rule="evenodd" clip-rule="evenodd" d="M28.733 29.9228L19.233 23.9228L19.767 23.0773L29.267 29.0773L28.733 29.9228Z" fill="#8E9AAC"/>
    <path fill-rule="evenodd" clip-rule="evenodd" d="M16.0453 23.498L10.5453 23.998L10.4547 23.0021L15.9547 22.5021L16.0453 23.498Z" fill="#8E9AAC"/>
    <path fill-rule="evenodd" clip-rule="evenodd" d="M10.5 15C11.3284 15 12 14.3284 12 13.5C12 12.6716 11.3284 12 10.5 12C9.67157 12 9 12.6716 9 13.5C9 14.3284 9.67157 15 10.5 15ZM10.5 16C11.8807 16 13 14.8807 13 13.5C13 12.1193 11.8807 11 10.5 11C9.11929 11 8 12.1193 8 13.5C8 14.8807 9.11929 16 10.5 16Z" fill="#8E9AAC"/>
    <path fill-rule="evenodd" clip-rule="evenodd" d="M27.5 15C28.3284 15 29 14.3284 29 13.5C29 12.6716 28.3284 12 27.5 12C26.6716 12 26 12.6716 26 13.5C26 14.3284 26.6716 15 27.5 15ZM27.5 16C28.8807 16 30 14.8807 30 13.5C30 12.1193 28.8807 11 27.5 11C26.1193 11 25 12.1193 25 13.5C25 14.8807 26.1193 16 27.5 16Z" fill="#8E9AAC"/>
    <path fill-rule="evenodd" clip-rule="evenodd" d="M27.5 23C28.3284 23 29 22.3284 29 21.5C29 20.6716 28.3284 20 27.5 20C26.6716 20 26 20.6716 26 21.5C26 22.3284 26.6716 23 27.5 23ZM27.5 24C28.8807 24 30 22.8807 30 21.5C30 20.1193 28.8807 19 27.5 19C26.1193 19 25 20.1193 25 21.5C25 22.8807 26.1193 24 27.5 24Z" fill="#8E9AAC"/>
    <path fill-rule="evenodd" clip-rule="evenodd" d="M30.5 32C31.3284 32 32 31.3284 32 30.5C32 29.6716 31.3284 29 30.5 29C29.6716 29 29 29.6716 29 30.5C29 31.3284 29.6716 32 30.5 32ZM30.5 33C31.8807 33 33 31.8807 33 30.5C33 29.1193 31.8807 28 30.5 28C29.1193 28 28 29.1193 28 30.5C28 31.8807 29.1193 33 30.5 33Z" fill="#8E9AAC"/>
    <path fill-rule="evenodd" clip-rule="evenodd" d="M17.5 24C18.3284 24 19 23.3284 19 22.5C19 21.6716 18.3284 21 17.5 21C16.6716 21 16 21.6716 16 22.5C16 23.3284 16.6716 24 17.5 24ZM17.5 25C18.8807 25 20 23.8807 20 22.5C20 21.1193 18.8807 20 17.5 20C16.1193 20 15 21.1193 15 22.5C15 23.8807 16.1193 25 17.5 25Z" fill="#8E9AAC"/>
    <path fill-rule="evenodd" clip-rule="evenodd" d="M8.5 25C9.32843 25 10 24.3284 10 23.5C10 22.6716 9.32843 22 8.5 22C7.67157 22 7 22.6716 7 23.5C7 24.3284 7.67157 25 8.5 25ZM8.5 26C9.88071 26 11 24.8807 11 23.5C11 22.1193 9.88071 21 8.5 21C7.11929 21 6 22.1193 6 23.5C6 24.8807 7.11929 26 8.5 26Z" fill="#8E9AAC"/>
    <path fill-rule="evenodd" clip-rule="evenodd" d="M18.5 10C19.3284 10 20 9.32843 20 8.5C20 7.67157 19.3284 7 18.5 7C17.6716 7 17 7.67157 17 8.5C17 9.32843 17.6716 10 18.5 10ZM18.5 11C19.8807 11 21 9.88071 21 8.5C21 7.11929 19.8807 6 18.5 6C17.1193 6 16 7.11929 16 8.5C16 9.88071 17.1193 11 18.5 11Z" fill="#8E9AAC"/>
</svg>
