<svg width="39" height="39" viewBox="0 0 39 39" fill="none" xmlns="http://www.w3.org/2000/svg">
    <path fill-rule="evenodd" clip-rule="evenodd" d="M24.5 25C25.3284 25 26 24.3284 26 23.5C26 22.6716 25.3284 22 24.5 22C23.6716 22 23 22.6716 23 23.5C23 24.3284 23.6716 25 24.5 25ZM24.5 26C25.8807 26 27 24.8807 27 23.5C27 22.1193 25.8807 21 24.5 21C23.1193 21 22 22.1193 22 23.5C22 24.8807 23.1193 26 24.5 26Z" fill="#8E9AAC"/>
    <path fill-rule="evenodd" clip-rule="evenodd" d="M26.5 11C27.3284 11 28 10.3284 28 9.5C28 8.67157 27.3284 8 26.5 8C25.6716 8 25 8.67157 25 9.5C25 10.3284 25.6716 11 26.5 11ZM26.5 12C27.8807 12 29 10.8807 29 9.5C29 8.11929 27.8807 7 26.5 7C25.1193 7 24 8.11929 24 9.5C24 10.8807 25.1193 12 26.5 12Z" fill="#8E9AAC"/>
    <path fill-rule="evenodd" clip-rule="evenodd" d="M9.5 28C10.3284 28 11 27.3284 11 26.5C11 25.6716 10.3284 25 9.5 25C8.67157 25 8 25.6716 8 26.5C8 27.3284 8.67157 28 9.5 28ZM9.5 29C10.8807 29 12 27.8807 12 26.5C12 25.1193 10.8807 24 9.5 24C8.11929 24 7 25.1193 7 26.5C7 27.8807 8.11929 29 9.5 29Z" fill="#8E9AAC"/>
    <path fill-rule="evenodd" clip-rule="evenodd" d="M25.8536 10.8536L10.8536 25.8536L10.1465 25.1465L25.1465 10.1465L25.8536 10.8536Z" fill="#8E9AAC"/>
    <path fill-rule="evenodd" clip-rule="evenodd" d="M32.8536 15.1464C33.0488 15.3417 33.0488 15.6583 32.8536 15.8536L26.3536 22.3536C26.1583 22.5488 25.8417 22.5488 25.6464 22.3536C25.4512 22.1583 25.4512 21.8417 25.6464 21.6464L32.1464 15.1464C32.3417 14.9512 32.6583 14.9512 32.8536 15.1464ZM23.3536 24.6464C23.5488 24.8417 23.5488 25.1583 23.3536 25.3536L16.8536 31.8536C16.6583 32.0488 16.3417 32.0488 16.1464 31.8536C15.9512 31.6583 15.9512 31.3417 16.1464 31.1464L22.6464 24.6464C22.8417 24.4512 23.1583 24.4512 23.3536 24.6464Z" fill="#8E9AAC"/>
</svg>
