<svg width="39" height="39" viewBox="0 0 39 39" fill="none" xmlns="http://www.w3.org/2000/svg">
    <path fill-rule="evenodd" clip-rule="evenodd" d="M8.5 18C9.32843 18 10 17.3284 10 16.5C10 15.6716 9.32843 15 8.5 15C7.67157 15 7 15.6716 7 16.5C7 17.3284 7.67157 18 8.5 18ZM8.5 19C9.88071 19 11 17.8807 11 16.5C11 15.1193 9.88071 14 8.5 14C7.11929 14 6 15.1193 6 16.5C6 17.8807 7.11929 19 8.5 19Z" fill="#8E9AAC"/>
    <path fill-rule="evenodd" clip-rule="evenodd" d="M30.5 12C31.3284 12 32 11.3284 32 10.5C32 9.67157 31.3284 9 30.5 9C29.6716 9 29 9.67157 29 10.5C29 11.3284 29.6716 12 30.5 12ZM30.5 13C31.8807 13 33 11.8807 33 10.5C33 9.11929 31.8807 8 30.5 8C29.1193 8 28 9.11929 28 10.5C28 11.8807 29.1193 13 30.5 13Z" fill="#8E9AAC"/>
    <path fill-rule="evenodd" clip-rule="evenodd" d="M28.6338 11.4817L10.6338 16.4817L10.3662 15.5182L28.3662 10.5182L28.6338 11.4817Z" fill="#8E9AAC"/>
    <path fill-rule="evenodd" clip-rule="evenodd" d="M8.5 25C9.32843 25 10 24.3284 10 23.5C10 22.6716 9.32843 22 8.5 22C7.67157 22 7 22.6716 7 23.5C7 24.3284 7.67157 25 8.5 25ZM8.5 26C9.88071 26 11 24.8807 11 23.5C11 22.1193 9.88071 21 8.5 21C7.11929 21 6 22.1193 6 23.5C6 24.8807 7.11929 26 8.5 26Z" fill="#8E9AAC"/>
    <path fill-rule="evenodd" clip-rule="evenodd" d="M32.4816 16.8656C32.5558 17.1316 32.4004 17.4074 32.1344 17.4816L10.6344 23.4816L10.3656 22.5184L31.8656 16.5184C32.1316 16.4442 32.4074 16.5996 32.4816 16.8656Z" fill="#8E9AAC"/>
    <path fill-rule="evenodd" clip-rule="evenodd" d="M32.4815 23.3652C32.5559 23.6311 32.4007 23.907 32.1348 23.9815L7.13482 30.9815C6.86891 31.0559 6.59298 30.9007 6.51852 30.6348C6.44407 30.3689 6.59928 30.093 6.86519 30.0185L31.8652 23.0185C32.1311 22.9441 32.407 23.0993 32.4815 23.3652Z" fill="#8E9AAC"/>
</svg>
