<svg width="17" height="17" viewBox="0 0 17 17" version="1.1" xmlns="http://www.w3.org/2000/svg" xmlns:xlink="http://www.w3.org/1999/xlink">
<g id="Canvas" fill="none">
<g id="draw">
<g id="Group">
<g id="Group_2">
<g id="Vector">
<path d="M 15.4066 4.40323L 14.2825 5.52739L 11.4721 2.71353L 12.5962 1.58937C 12.8252 1.36037 13.2242 1.36037 13.4532 1.58937L 15.4066 3.54624C 15.6425 3.78217 15.6425 4.1673 15.4066 4.40323ZM 6.01446 13.8059L 3.2041 10.9921L 10.4694 3.71625L 13.2797 6.53012L 6.01446 13.8059ZM 2.55529 12.3487L 4.65785 14.4547L 1.72953 15.2805L 2.55529 12.3487ZM 16.4093 2.54351L 14.4559 0.586644C 14.0743 0.204984 12.6969 -0.516698 11.597 0.586644L 1.69831 10.4924C 1.61157 10.5792 1.54911 10.6833 1.51789 10.8012L 0.02597 16.1132C -0.0434215 16.3596 0.0294396 16.6233 0.206388 16.8072C 0.386806 16.991 0.747642 17.0223 0.900303 16.9876L 6.20875 15.4922C 6.32672 15.4609 6.43081 15.3985 6.51755 15.3117L 16.4093 5.40596C 17.1969 4.61835 17.1969 3.33459 16.4093 2.54351Z" fill="#00A1DF"/>
</g>
</g>
</g>
</g>
</g>
</svg>

