<svg width="39" height="39" viewBox="0 0 39 39" fill="none" xmlns="http://www.w3.org/2000/svg">
    <path fill-rule="evenodd" clip-rule="evenodd" d="M9.76367 19.9248C10.5921 19.9248 11.2637 19.2532 11.2637 18.4248C11.2637 17.5964 10.5921 16.9248 9.76367 16.9248C8.93524 16.9248 8.26367 17.5964 8.26367 18.4248C8.26367 19.2532 8.93524 19.9248 9.76367 19.9248ZM9.76367 20.9248C11.1444 20.9248 12.2637 19.8055 12.2637 18.4248C12.2637 17.0441 11.1444 15.9248 9.76367 15.9248C8.38296 15.9248 7.26367 17.0441 7.26367 18.4248C7.26367 19.8055 8.38296 20.9248 9.76367 20.9248Z" fill="#8E9AAC"/>
    <path fill-rule="evenodd" clip-rule="evenodd" d="M13.7637 29.9248C14.5921 29.9248 15.2637 29.2532 15.2637 28.4248C15.2637 27.5964 14.5921 26.9248 13.7637 26.9248C12.9352 26.9248 12.2637 27.5964 12.2637 28.4248C12.2637 29.2532 12.9352 29.9248 13.7637 29.9248ZM13.7637 30.9248C15.1444 30.9248 16.2637 29.8055 16.2637 28.4248C16.2637 27.0441 15.1444 25.9248 13.7637 25.9248C12.383 25.9248 11.2637 27.0441 11.2637 28.4248C11.2637 29.8055 12.383 30.9248 13.7637 30.9248Z" fill="#8E9AAC"/>
    <path fill-rule="evenodd" clip-rule="evenodd" d="M17.7637 14.9248C18.5921 14.9248 19.2637 14.2532 19.2637 13.4248C19.2637 12.5964 18.5921 11.9248 17.7637 11.9248C16.9352 11.9248 16.2637 12.5964 16.2637 13.4248C16.2637 14.2532 16.9352 14.9248 17.7637 14.9248ZM17.7637 15.9248C19.1444 15.9248 20.2637 14.8055 20.2637 13.4248C20.2637 12.0441 19.1444 10.9248 17.7637 10.9248C16.383 10.9248 15.2637 12.0441 15.2637 13.4248C15.2637 14.8055 16.383 15.9248 17.7637 15.9248Z" fill="#8E9AAC"/>
    <path fill-rule="evenodd" clip-rule="evenodd" d="M21.7637 24.9248C22.5921 24.9248 23.2637 24.2532 23.2637 23.4248C23.2637 22.5964 22.5921 21.9248 21.7637 21.9248C20.9352 21.9248 20.2637 22.5964 20.2637 23.4248C20.2637 24.2532 20.9352 24.9248 21.7637 24.9248ZM21.7637 25.9248C23.1444 25.9248 24.2637 24.8055 24.2637 23.4248C24.2637 22.0441 23.1444 20.9248 21.7637 20.9248C20.383 20.9248 19.2637 22.0441 19.2637 23.4248C19.2637 24.8055 20.383 25.9248 21.7637 25.9248Z" fill="#8E9AAC"/>
    <path fill-rule="evenodd" clip-rule="evenodd" d="M25.7637 9.9248C26.5921 9.9248 27.2637 9.25323 27.2637 8.4248C27.2637 7.59638 26.5921 6.9248 25.7637 6.9248C24.9352 6.9248 24.2637 7.59638 24.2637 8.4248C24.2637 9.25323 24.9352 9.9248 25.7637 9.9248ZM25.7637 10.9248C27.1444 10.9248 28.2637 9.80552 28.2637 8.4248C28.2637 7.04409 27.1444 5.9248 25.7637 5.9248C24.383 5.9248 23.2637 7.04409 23.2637 8.4248C23.2637 9.80552 24.383 10.9248 25.7637 10.9248Z" fill="#8E9AAC"/>
    <path fill-rule="evenodd" clip-rule="evenodd" d="M5.76367 34.9248C6.5921 34.9248 7.26367 34.2532 7.26367 33.4248C7.26367 32.5964 6.5921 31.9248 5.76367 31.9248C4.93524 31.9248 4.26367 32.5964 4.26367 33.4248C4.26367 34.2532 4.93524 34.9248 5.76367 34.9248ZM5.76367 35.9248C7.14438 35.9248 8.26367 34.8055 8.26367 33.4248C8.26367 32.0441 7.14438 30.9248 5.76367 30.9248C4.38296 30.9248 3.26367 32.0441 3.26367 33.4248C3.26367 34.8055 4.38296 35.9248 5.76367 35.9248Z" fill="#8E9AAC"/>
    <path fill-rule="evenodd" clip-rule="evenodd" d="M9.74874 20.046L6.74874 32.046L5.77859 31.8035L8.77859 19.8035L9.74874 20.046Z" fill="#8E9AAC"/>
    <path fill-rule="evenodd" clip-rule="evenodd" d="M17.7487 15.046L14.7487 27.046L13.7786 26.8035L16.7786 14.8035L17.7487 15.046Z" fill="#8E9AAC"/>
    <path fill-rule="evenodd" clip-rule="evenodd" d="M25.7487 10.046L22.7487 22.046L21.7786 21.8035L24.7786 9.80347L25.7487 10.046Z" fill="#8E9AAC"/>
    <path fill-rule="evenodd" clip-rule="evenodd" d="M12.8041 27.1217L9.80411 20.1217L10.7233 19.7278L13.7233 26.7278L12.8041 27.1217Z" fill="#8E9AAC"/>
    <path fill-rule="evenodd" clip-rule="evenodd" d="M20.8041 22.1217L17.8041 15.1217L18.7233 14.7278L21.7233 21.7278L20.8041 22.1217Z" fill="#8E9AAC"/>
    <path fill-rule="evenodd" clip-rule="evenodd" d="M34.3035 30.1204L25.8035 10.1204L26.7238 9.72925L35.2238 29.7292L34.3035 30.1204Z" fill="#8E9AAC"/>
    <path fill-rule="evenodd" clip-rule="evenodd" d="M12.0986 17.5296L15.9462 15.1414C15.7172 14.899 15.5361 14.6109 15.4182 14.2921L11.5605 16.6866C11.7925 16.9263 11.9769 17.2124 12.0986 17.5296ZM23.9669 10.1631L20.1091 12.5575C19.9912 12.2387 19.8102 11.9506 19.5812 11.7082L23.4288 9.32008C23.5504 9.63724 23.7349 9.92329 23.9669 10.1631ZM28.1194 7.58565L32.5274 4.84964L32 4L27.6016 6.73006C27.8276 6.97502 28.0052 7.26527 28.1194 7.58565ZM7.92579 20.1196C7.69979 19.8746 7.52215 19.5844 7.40801 19.264L3 22L3.52736 22.8496L7.92579 20.1196Z" fill="#8E9AAC"/>
</svg>
