<svg width="33" height="34" viewBox="0 0 33 34" version="1.1" xmlns="http://www.w3.org/2000/svg" xmlns:xlink="http://www.w3.org/1999/xlink">
<title>Lite logo</title>
<desc>Created using Figma</desc>
<g id="Canvas" transform="translate(-6981 -11031)">
<g id="Lite logo">
<g id="Group">
<g id="Vector">
<use xlink:href="#path0_fill" transform="translate(7004.41 11031.2)" fill="#00ADEE"/>
</g>
<g id="Vector">
<use xlink:href="#path1_fill" transform="translate(6984.54 11031)" fill="#00A551"/>
</g>
<g id="Vector">
<use xlink:href="#path2_fill" transform="translate(6981 11045.6)" fill="#F4C733"/>
</g>
</g>
</g>
</g>
<defs>
<path id="path0_fill" fill-rule="evenodd" d="M -4.85837e-07 6.42507L 3.31134 9.95727L 8.66043 4.28053C 9.67931 3.27133 10.0614 2.00983 8.78779 0.748331C 7.38684 -0.513167 6.62269 -0.00856796 5.47645 1.00063L -4.85837e-07 6.42507Z"/>
<path id="path1_fill" fill-rule="evenodd" d="M 1.39788 10.883L 11.2046 0.917209C 12.4781 -0.218139 13.1149 -0.344289 14.3885 0.791059L 28.016 15.046C 29.0349 16.0552 29.799 17.3167 28.6528 18.7043C 27.3792 20.092 25.9782 19.4612 24.9594 18.3259L 19.9923 13.2799L 14.898 18.5782C 13.8791 19.5874 12.4781 20.092 11.3319 18.8305C 10.1857 17.4428 10.5678 16.3075 11.5866 15.2983L 16.5536 10L 12.4781 6.08935L 4.58187 14.1629C 3.43563 15.2983 1.77996 16.5598 0.506369 14.6675C -0.639865 13.0276 0.37901 12.0184 1.39788 10.883Z"/>
<path id="path2_fill" fill-rule="evenodd" d="M 0.863167 4.25377C 5.57546 9.04747 10.2878 13.9673 15.0001 18.761C 15.8916 19.6441 16.7831 19.6441 17.802 18.761C 21.368 15.1027 24.9341 11.5705 28.3728 7.91212C 29.2643 6.90292 29.3917 5.64142 28.2454 4.63222C 26.9718 3.37072 26.0803 3.87532 25.0614 4.88452L 16.5284 13.5889C 12.4529 9.42591 8.37737 5.38912 4.30187 1.22618C 3.28299 0.0908284 2.0094 -0.666071 0.608449 0.847727C -0.410426 2.23538 -0.0283478 3.37072 0.863167 4.25377Z"/>
</defs>
</svg>
