<svg width="18" height="19" viewBox="0 0 18 19" fill="none" xmlns="http://www.w3.org/2000/svg">
<path d="M17.384 5.14176L12.7982 0.111996C12.7329 0.0404492 12.6429 0 12.5488 0H5.71406C4.94917 0 4.32687 0.656613 4.32687 1.46367V6.57693H1.55701C0.984739 6.57693 0.519165 7.06822 0.519165 7.67214V13.1548C0.519165 13.7587 0.984739 14.25 1.55701 14.25H4.32687V17.5389C4.32687 18.3445 4.94917 19 5.71406 19H16.0935C16.8584 19 17.4807 18.3449 17.4807 17.5397V5.39515C17.4807 5.30067 17.446 5.20986 17.384 5.14176ZM12.6346 0.986404L16.3991 5.11538H12.6346V0.986404ZM1.55701 13.5192C1.36647 13.5192 1.2115 13.3558 1.2115 13.1548V7.67214C1.2115 7.47119 1.3665 7.30769 1.55701 7.30769H10.9044C11.095 7.30769 11.2499 7.47119 11.2499 7.67214V13.1548C11.2499 13.3558 11.0949 13.5192 10.9044 13.5192H1.55701ZM16.7884 17.5397C16.7884 17.942 16.4767 18.2692 16.0935 18.2692H5.71406C5.3309 18.2692 5.01916 17.9416 5.01916 17.5389V14.25H10.9044C11.4767 14.25 11.9423 13.7587 11.9423 13.1548V7.67214C11.9423 7.06822 11.4767 6.57693 10.9044 6.57693H5.01916V1.46367C5.01916 1.05951 5.3309 0.730758 5.71406 0.730758H11.9422V5.48076C11.9422 5.68256 12.0972 5.84614 12.2884 5.84614H16.7884V17.5397Z" fill="#3B4B68"/>
<path d="M8.67 10.3751V10.9039H9.35759V11.3022C9.26699 11.3764 9.15846 11.4395 9.03204 11.4916C8.90562 11.5437 8.77951 11.5697 8.65376 11.5697C8.39954 11.5697 8.19402 11.4767 8.03719 11.2904C7.88032 11.1041 7.80192 10.8247 7.80192 10.4522C7.80192 10.1068 7.87934 9.84627 8.03417 9.6707C8.18899 9.49514 8.39754 9.40734 8.65988 9.40734C8.83295 9.40734 8.9773 9.45202 9.0929 9.54115C9.20849 9.6304 9.28724 9.75208 9.32922 9.9062L9.92547 9.78845C9.86602 9.50015 9.73249 9.27426 9.5249 9.11083C9.31737 8.9474 9.02902 8.86572 8.65988 8.86572C8.37592 8.86572 8.13861 8.91779 7.94796 9.02203C7.69783 9.15759 7.50784 9.35241 7.37804 9.60647C7.24825 9.86052 7.18335 10.151 7.18335 10.4778C7.18335 10.779 7.2415 11.0577 7.35776 11.3138C7.47406 11.57 7.6478 11.767 7.87902 11.9047C8.11024 12.0425 8.38133 12.1114 8.69236 12.1114C8.93712 12.1114 9.17878 12.0625 9.41746 11.9647C9.65613 11.8669 9.83828 11.7538 9.96414 11.6254V10.375H8.67V10.3751Z" fill="#3B4B68"/>
<path d="M6.62157 9.27327C6.50664 9.11551 6.36398 9.01313 6.19361 8.96596C6.08273 8.93453 5.84476 8.91895 5.47966 8.91895H4.51624V12.0575H5.1166V10.8736H5.50806C5.77986 10.8736 5.98742 10.8586 6.13072 10.8286C6.23618 10.8043 6.33997 10.7547 6.44206 10.6798C6.54415 10.6049 6.62832 10.5018 6.69459 10.3704C6.76086 10.2392 6.79397 10.0771 6.79397 9.88446C6.79397 9.63475 6.73649 9.43094 6.62157 9.27327ZM6.10741 10.1371C6.06213 10.207 5.99958 10.2584 5.91978 10.2913C5.84001 10.324 5.68181 10.3405 5.44517 10.3405H5.1166V9.44983H5.40664C5.62299 9.44983 5.76699 9.45696 5.83864 9.47121C5.93599 9.48984 6.01646 9.53615 6.07999 9.61041C6.14355 9.68459 6.17533 9.77885 6.17533 9.89303C6.17536 9.98577 6.15272 10.0671 6.10741 10.1371Z" fill="#3B4B68"/>
<path d="M3.27889 8.91895V10.9463C3.27889 11.2004 3.25118 11.3677 3.19574 11.4484C3.1403 11.5291 3.04566 11.5693 2.91179 11.5693C2.77928 11.5693 2.68056 11.513 2.61566 11.4002C2.57239 11.326 2.54739 11.199 2.54061 11.0191L1.97473 11.0876C1.97607 11.4231 2.05587 11.6775 2.21407 11.8508C2.37228 12.0243 2.59809 12.111 2.8915 12.111C3.14164 12.111 3.34312 12.0556 3.49591 11.9451C3.64869 11.8345 3.75416 11.6878 3.81231 11.5051C3.85559 11.3653 3.87721 11.1654 3.87721 10.9057V8.91895H3.27889Z" fill="#3B4B68"/>
</svg>
