<svg width="80" height="79" viewBox="0 0 80 79" fill="none" xmlns="http://www.w3.org/2000/svg">
<path d="M59.0915 21.2481C58.6073 19.7679 57.3431 18.7091 55.7923 18.4852L40.259 16.2434L33.3123 2.26275H33.3121C32.6185 0.867078 31.2143 -4.64147e-07 29.6473 -4.64147e-07C28.0803 -4.64147e-07 26.6759 0.867078 25.9823 2.26291L19.0356 16.2436L3.50226 18.4854C1.95149 18.7091 0.687274 19.7679 0.203058 21.2483C-0.281159 22.7287 0.11509 24.323 1.23727 25.4094L12.4774 36.2917L9.82395 51.6581C9.55911 53.1922 10.1821 54.7136 11.4499 55.6283C12.1663 56.1453 13.0042 56.408 13.8482 56.408C14.4977 56.408 15.1505 56.2524 15.7539 55.9373L29.6473 48.6824L43.5407 55.9373C44.9274 56.6616 46.5769 56.5435 47.8447 55.6285C49.1125 54.7136 49.7356 53.1922 49.4706 51.6581L46.8175 36.2917L58.0578 25.4094C59.1797 24.3227 59.5757 22.7284 59.0915 21.2481ZM43.3154 33.1756C42.3524 34.108 41.913 35.451 42.1404 36.7683L44.6405 51.2473L31.549 44.4111C30.9535 44.1004 30.3006 43.945 29.6474 43.945C28.9943 43.945 28.341 44.1004 27.7454 44.4113L14.6542 51.2473L17.1544 36.7682C17.3816 35.4512 16.9424 34.1083 15.9789 33.1754L5.38788 22.9213L20.0247 20.8088C21.3561 20.6165 22.5064 19.7864 23.1017 18.5882L29.6473 5.41462L36.1927 18.5881C36.788 19.7865 37.9383 20.6165 39.2699 20.8088L53.9066 22.9213L43.3154 33.1756Z" transform="translate(11.4648 14.0576)" fill="#F2B540"/>
<path d="M11.3323 4.46312H9.18433V2.32964C9.18433 1.04307 8.13418 -2.13129e-07 6.83887 -2.13129e-07C5.54357 -2.13129e-07 4.49342 1.04307 4.49342 2.32964V4.46312H2.34546C1.05015 4.46312 -2.38417e-08 5.50619 -2.38417e-08 6.79276C-2.38417e-08 8.07933 1.05015 9.1224 2.34546 9.1224H4.49342V11.2559C4.49342 12.5424 5.54357 13.5855 6.83887 13.5855C8.13418 13.5855 9.18433 12.5424 9.18433 11.2559V9.1224H11.3323C12.6276 9.1224 13.6777 8.07933 13.6777 6.79276C13.6777 5.50619 12.6276 4.46312 11.3323 4.46312Z" transform="translate(9.96875 8.56836)" fill="#F2B540"/>
<path d="M4.68013 2.10057C4.67232 2.02453 4.65982 1.94833 4.64576 1.87383C4.62998 1.80089 4.61123 1.72624 4.58951 1.6533C4.56607 1.58036 4.54092 1.50881 4.51138 1.43897C4.4817 1.36914 4.44888 1.29914 4.41295 1.23241C4.37701 1.16567 4.33795 1.09879 4.2956 1.03671C4.25326 0.973077 4.20795 0.910843 4.15951 0.851869C4.10951 0.792894 4.05779 0.735317 4.00467 0.68255C3.94998 0.628232 3.89201 0.577018 3.83264 0.528752C3.77326 0.480641 3.71061 0.434082 3.64795 0.392024C3.58405 0.350121 3.51655 0.311323 3.44936 0.275472C3.38217 0.239777 3.31327 0.207186 3.24295 0.177699C3.17264 0.149764 3.09905 0.123381 3.02561 0.101653C2.95374 0.0799257 2.87858 0.0597502 2.80358 0.0457826C2.72858 0.030263 2.65186 0.0193994 2.5753 0.0116397C2.42358 -0.00387991 2.26733 -0.00387991 2.11405 0.0116397C2.03905 0.0193994 1.96233 0.030263 1.88733 0.0457826C1.81249 0.0597502 1.73718 0.0799257 1.66374 0.101653C1.59187 0.123381 1.51827 0.149764 1.44796 0.177699C1.37765 0.207186 1.30859 0.239777 1.24156 0.275472C1.17296 0.311167 1.10703 0.349966 1.04296 0.392024C0.980465 0.433927 0.917651 0.480486 0.858277 0.528752C0.798902 0.576862 0.740934 0.628232 0.686246 0.68255C0.633122 0.735317 0.579997 0.792894 0.531404 0.851869C0.482967 0.910843 0.437654 0.973077 0.39531 1.03671C0.353123 1.09879 0.314062 1.16567 0.277969 1.23241C0.242187 1.29914 0.209374 1.36914 0.179531 1.43897C0.15 1.50881 0.124844 1.58036 0.101406 1.6533C0.0795313 1.72624 0.0607813 1.80089 0.0451563 1.87383C0.0310939 1.94833 0.0185938 2.02453 0.0107813 2.10057C0.00453134 2.17662 7.62936e-08 2.25437 7.62936e-08 2.33042C7.62936e-08 2.40491 0.00453134 2.48266 0.0107813 2.55871C0.0185938 2.63491 0.0310939 2.71096 0.0451563 2.78545C0.0609375 2.85839 0.0796875 2.93304 0.101406 3.00598C0.124844 3.07893 0.15 3.15047 0.179531 3.22031C0.209218 3.29015 0.242031 3.36014 0.277969 3.42688C0.313906 3.49361 0.352967 3.5605 0.39531 3.62258C0.437654 3.68621 0.482967 3.74844 0.531404 3.80742C0.579997 3.86639 0.633122 3.92381 0.686246 3.97673C0.740934 4.03105 0.798902 4.08227 0.858277 4.13053C0.917651 4.17864 0.980308 4.2252 1.04296 4.26726C1.10687 4.30916 1.17281 4.34796 1.24156 4.38381C1.30874 4.41951 1.37765 4.4521 1.44796 4.48159C1.51827 4.50952 1.59187 4.5359 1.66374 4.55763C1.73718 4.57936 1.81233 4.59798 1.88733 4.6135C1.96233 4.62902 2.03905 4.63988 2.11405 4.64764C2.19061 4.6554 2.2689 4.66006 2.34546 4.66006C2.42186 4.66006 2.50014 4.6554 2.5753 4.64764C2.65186 4.63988 2.72842 4.62902 2.80358 4.6135C2.87842 4.59798 2.95374 4.57936 3.02561 4.55763C3.09905 4.5359 3.17249 4.50952 3.24295 4.48159C3.31327 4.4521 3.38233 4.41951 3.44936 4.38381C3.51639 4.34812 3.58389 4.30932 3.64795 4.26726C3.71045 4.22536 3.77326 4.1788 3.83264 4.13053C3.89201 4.08242 3.94998 4.03121 4.00467 3.97673C4.05779 3.92397 4.10936 3.86639 4.15951 3.80742C4.20795 3.74844 4.25326 3.68621 4.2956 3.62258C4.33779 3.5605 4.37685 3.49361 4.41295 3.42688C4.44873 3.36014 4.48154 3.29015 4.51138 3.22031C4.54092 3.15047 4.56607 3.07893 4.58951 3.00598C4.61138 2.93304 4.63013 2.85839 4.64576 2.78545C4.65982 2.71096 4.67232 2.63476 4.68013 2.55871C4.68795 2.48266 4.69107 2.40491 4.69107 2.33042C4.69107 2.25422 4.68779 2.17662 4.68013 2.10057Z" transform="translate(22.2656 2.45996)" fill="#F2B540"/>
<path d="M4.67998 2.10057C4.67216 2.02608 4.65967 1.94988 4.6456 1.87538C4.62982 1.80089 4.61107 1.72624 4.58935 1.6533C4.56592 1.58191 4.54092 1.50881 4.51123 1.43897C4.4817 1.36914 4.44873 1.29914 4.41279 1.23241C4.37685 1.16568 4.33779 1.10034 4.29545 1.03671C4.2531 0.973077 4.20795 0.910843 4.15936 0.853421C4.11092 0.794447 4.05779 0.737025 4.00451 0.682551C3.94982 0.628233 3.89186 0.577017 3.83248 0.528751C3.77311 0.480641 3.71045 0.435634 3.64795 0.393576C3.58389 0.351673 3.51811 0.311323 3.45076 0.275473C3.38217 0.239778 3.31311 0.207186 3.2428 0.179251C3.17264 0.149764 3.09889 0.123381 3.02702 0.101653C2.95358 0.0799257 2.87858 0.0613022 2.80342 0.0457826C2.72842 0.030263 2.65171 0.0193992 2.57671 0.0116394C2.42358 -0.00388018 2.26733 -0.00388018 2.11546 0.0116394C2.03905 0.0193992 1.96233 0.030263 1.88718 0.0457826C1.81234 0.0613022 1.73702 0.0799257 1.66515 0.101653C1.59171 0.123381 1.51827 0.149764 1.44781 0.179251C1.37749 0.207186 1.30859 0.239778 1.2414 0.275473C1.17281 0.311323 1.10703 0.351518 1.04296 0.393576C0.980464 0.435478 0.917808 0.480486 0.858277 0.528751C0.798902 0.576862 0.740934 0.628077 0.686247 0.682551C0.633122 0.73687 0.579841 0.794447 0.531404 0.853421C0.482966 0.910843 0.437654 0.973077 0.395311 1.03671C0.353123 1.10034 0.314061 1.16568 0.277967 1.23241C0.242186 1.29914 0.209374 1.36914 0.17953 1.43897C0.149999 1.50881 0.124843 1.58191 0.101406 1.6533C0.0795309 1.72624 0.060781 1.80089 0.0453123 1.87538C0.0310936 1.94988 0.0187499 2.02608 0.0107812 2.10057C0.00453123 2.17662 0 2.25437 0 2.33057C0 2.40662 0.00453123 2.48282 0.0107812 2.55887C0.0187499 2.63491 0.0310936 2.71111 0.0453123 2.78561C0.0609372 2.8601 0.0796871 2.93475 0.101406 3.00614C0.124843 3.07908 0.149999 3.15063 0.17953 3.22202C0.209218 3.29186 0.24203 3.3603 0.277967 3.42703C0.313905 3.49376 0.352967 3.56065 0.395311 3.62273C0.437654 3.68636 0.482966 3.7486 0.531404 3.80757C0.579997 3.86654 0.632966 3.92412 0.686247 3.97844C0.740934 4.03121 0.798902 4.08242 0.858277 4.13224C0.917808 4.1788 0.980308 4.22536 1.04296 4.26742C1.10703 4.30932 1.17281 4.34812 1.24156 4.38381C1.3089 4.41951 1.37765 4.4521 1.44796 4.48159C1.51827 4.51107 1.59187 4.5359 1.6653 4.55763C1.73718 4.58091 1.81234 4.59953 1.88733 4.6135C1.96233 4.62902 2.03921 4.64144 2.11561 4.64764C2.19218 4.6554 2.2689 4.66006 2.34561 4.66006C2.42202 4.66006 2.5003 4.6554 2.57686 4.64764C2.65186 4.64144 2.72858 4.62902 2.80358 4.6135C2.87858 4.59953 2.95374 4.58091 3.02717 4.55763C3.09905 4.5359 3.1728 4.51107 3.24295 4.48159C3.31311 4.45194 3.38217 4.41935 3.45076 4.38366C3.51811 4.34796 3.58389 4.30916 3.64795 4.2671C3.71029 4.2252 3.77311 4.17864 3.83248 4.13193C3.89186 4.08227 3.94982 4.0309 4.00451 3.97813C4.05764 3.92381 4.11092 3.86623 4.15936 3.80726C4.20795 3.74829 4.2531 3.68605 4.29545 3.62242C4.33764 3.56034 4.3767 3.49345 4.41279 3.42672C4.44857 3.35999 4.48154 3.29154 4.51123 3.22171C4.54092 3.15032 4.56592 3.07877 4.58935 3.00583C4.61123 2.93444 4.62998 2.85979 4.6456 2.7853C4.65967 2.7108 4.67216 2.6346 4.67998 2.55856C4.68779 2.48251 4.69091 2.40631 4.69091 2.33026C4.69091 2.25422 4.68763 2.17662 4.67998 2.10057Z" transform="translate(0 10.2432)" fill="#F2B540"/>
<path d="M4.67998 2.09941C4.67216 2.02492 4.65966 1.94871 4.6456 1.87422C4.62998 1.79972 4.61123 1.72508 4.58935 1.65213C4.56748 1.58074 4.54092 1.50765 4.51123 1.43781C4.4831 1.36797 4.44888 1.29953 4.41279 1.2328C4.37842 1.16451 4.33795 1.09917 4.2956 1.03554C4.25342 0.973464 4.2081 0.911231 4.15951 0.852256C4.11107 0.793282 4.05811 0.735707 4.00483 0.681388C3.94998 0.628622 3.89201 0.577403 3.83264 0.527585C3.77326 0.481027 3.7106 0.434472 3.64811 0.392414C3.58404 0.350511 3.51827 0.311711 3.44936 0.275861C3.38217 0.240166 3.31342 0.207574 3.24311 0.178087C3.1728 0.1486 3.0992 0.123769 3.02733 0.100489C2.95373 0.078762 2.87873 0.0601361 2.80358 0.0446165C2.72873 0.0306489 2.65186 0.0182378 2.57686 0.0104781C2.42374 -0.00348955 2.26749 -0.00348955 2.11577 0.0104781C2.03921 0.0182378 1.96249 0.0306489 1.88749 0.0446165C1.81249 0.0601361 1.73734 0.078762 1.66374 0.100489C1.59187 0.123769 1.51827 0.1486 1.44796 0.178087C1.37765 0.207574 1.30874 0.240166 1.24171 0.275861C1.17296 0.311556 1.10718 0.350356 1.04297 0.392414C0.980466 0.434317 0.91781 0.480871 0.858435 0.527585C0.799061 0.577248 0.741089 0.628622 0.686245 0.681388C0.633121 0.735707 0.579997 0.793282 0.53156 0.852256C0.482967 0.911231 0.437654 0.973464 0.395467 1.03554C0.353123 1.09917 0.31406 1.16451 0.278123 1.2328C0.242185 1.29953 0.209372 1.36797 0.179685 1.43781C0.149997 1.50765 0.124841 1.58074 0.10156 1.65213C0.079529 1.72508 0.0607813 1.79972 0.0453127 1.87422C0.0312502 1.94871 0.0187516 2.02492 0.0125017 2.09941C0.00468919 2.17546 -9.5367e-07 2.25321 -9.5367e-07 2.32925C-9.5367e-07 2.4053 0.00468919 2.48305 0.0125017 2.5591C0.0187516 2.63359 0.0312502 2.70979 0.0453127 2.78429C0.0609376 2.85878 0.0796852 2.93343 0.10156 3.00637C0.124841 3.07776 0.149997 3.15086 0.179685 3.2207C0.209216 3.29054 0.242029 3.35898 0.278123 3.42571C0.313904 3.494 0.352967 3.55933 0.395467 3.62296C0.437654 3.68504 0.482967 3.74727 0.53156 3.80625C0.579997 3.86522 0.632964 3.9228 0.686245 3.97712C0.741089 4.02989 0.799061 4.08265 0.858435 4.13092C0.91781 4.17903 0.98031 4.22404 1.04297 4.2661C1.10718 4.308 1.17296 4.3485 1.24171 4.38249C1.3089 4.41819 1.37765 4.45078 1.44796 4.48027C1.51827 4.50975 1.59187 4.53458 1.66374 4.55786C1.73734 4.57959 1.81234 4.59821 1.88749 4.61373C1.96234 4.6277 2.03921 4.64012 2.11577 4.64788C2.19218 4.65564 2.26889 4.65874 2.34561 4.65874C2.42233 4.65874 2.50046 4.65564 2.57686 4.64788C2.65186 4.64012 2.72873 4.6277 2.80358 4.61373C2.87858 4.59821 2.95373 4.57959 3.02733 4.55786C3.0992 4.53458 3.1728 4.50975 3.24311 4.48027C3.31342 4.45078 3.38233 4.41819 3.44936 4.38249C3.51811 4.34835 3.58389 4.308 3.64811 4.2661C3.71045 4.22419 3.77326 4.17919 3.83264 4.13092C3.89201 4.08281 3.94998 4.03004 4.00483 3.97712C4.05795 3.9228 4.11107 3.86522 4.15951 3.80625C4.2081 3.74727 4.25342 3.68504 4.2956 3.62296C4.33795 3.55933 4.37842 3.494 4.41279 3.42571C4.44873 3.35898 4.4831 3.29054 4.51123 3.2207C4.54092 3.15086 4.56748 3.07776 4.58935 3.00637C4.61138 2.93343 4.63013 2.85878 4.6456 2.78429C4.65966 2.70979 4.67216 2.63359 4.67998 2.5591C4.68779 2.48305 4.69091 2.4053 4.69091 2.32925C4.69091 2.25321 4.68763 2.17546 4.67998 2.09941Z" transform="translate(65.9844 47.6221)" fill="#F2B540"/>
<path d="M4.67982 2.09941C4.67216 2.02476 4.65966 1.94872 4.6456 1.87422C4.62982 1.79973 4.61123 1.72508 4.58935 1.65214C4.56607 1.58075 4.54092 1.50765 4.51123 1.43781C4.4817 1.36797 4.44888 1.29798 4.41279 1.23125C4.37701 1.16451 4.33795 1.09917 4.2956 1.03554C4.25342 0.97191 4.2081 0.911229 4.15951 0.852255C4.11107 0.79328 4.05811 0.735705 4.00467 0.681387C3.94998 0.62862 3.89201 0.575854 3.83264 0.527588C3.77326 0.479478 3.71061 0.434471 3.64811 0.392413C3.58404 0.35051 3.51826 0.310158 3.44936 0.27586C3.38217 0.240165 3.31327 0.207573 3.24311 0.178086C3.1728 0.148599 3.09921 0.123767 3.02561 0.100488C2.95374 0.0787605 2.87873 0.0601393 2.80358 0.0446198C2.72874 0.0306522 2.65186 0.0182363 2.57686 0.0104765C2.42374 -0.00349107 2.26749 -0.00349107 2.11405 0.0104765C2.03921 0.0182363 1.96233 0.0306522 1.88749 0.0446198C1.81249 0.0601393 1.73718 0.0787605 1.6653 0.100488C1.59187 0.123767 1.51843 0.148599 1.44796 0.178086C1.37765 0.207573 1.30875 0.240165 1.24156 0.27586C1.17297 0.310003 1.10718 0.350355 1.04296 0.392413C0.980462 0.434316 0.917806 0.479323 0.858431 0.527588C0.7989 0.575699 0.74109 0.628465 0.686246 0.681387C0.633121 0.735705 0.579997 0.79328 0.531404 0.852255C0.482966 0.911229 0.437655 0.97191 0.395468 1.03554C0.353124 1.09917 0.312657 1.16451 0.276407 1.23125C0.242032 1.29798 0.207809 1.36797 0.179528 1.43781C0.149997 1.50765 0.123435 1.58075 0.101404 1.65214C0.0795287 1.72508 0.0607822 1.79973 0.0453135 1.87422C0.0312511 1.94872 0.0187509 2.02491 0.0109385 2.09941C0.00296977 2.17545 -1.1444e-07 2.25321 -1.1444e-07 2.32926C-1.1444e-07 2.4053 0.00312601 2.4815 0.0109385 2.55755C0.0187509 2.63359 0.0312511 2.70979 0.0453135 2.78429C0.0609384 2.85878 0.0796849 2.93343 0.101404 3.00482C0.123435 3.07776 0.149997 3.15086 0.179528 3.2207C0.207809 3.29054 0.242032 3.35897 0.276407 3.42571C0.312344 3.49244 0.352968 3.55933 0.395468 3.62141C0.437655 3.68504 0.482966 3.74728 0.531404 3.80625C0.579997 3.86523 0.632965 3.9228 0.686246 3.97557C0.74109 4.02989 0.7989 4.0811 0.858431 4.13092C0.917806 4.17748 0.980306 4.22404 1.04296 4.26609C1.10702 4.308 1.17281 4.3468 1.24156 4.38265C1.3089 4.41834 1.37765 4.45093 1.44796 4.48042C1.51827 4.50991 1.59187 4.53474 1.6653 4.55802C1.73718 4.57975 1.81233 4.59837 1.88749 4.61389C1.96233 4.62785 2.03921 4.64027 2.11405 4.64648C2.19061 4.65424 2.26889 4.6589 2.34545 4.6589C2.42202 4.6589 2.5003 4.65424 2.57671 4.64648C2.65171 4.64027 2.72858 4.62785 2.80342 4.61389C2.87842 4.59837 2.95358 4.57975 3.02545 4.55802C3.09905 4.53474 3.17249 4.50991 3.24295 4.48042C3.31311 4.45093 3.38217 4.41834 3.4492 4.38265C3.51795 4.34695 3.58373 4.30815 3.64795 4.26609C3.7103 4.22419 3.77311 4.17763 3.83248 4.13092C3.89186 4.08126 3.94982 4.03004 4.00451 3.97557C4.05779 3.9228 4.11092 3.86523 4.15935 3.80625C4.20795 3.74728 4.25326 3.68504 4.29545 3.62141C4.33779 3.55933 4.37685 3.49244 4.41263 3.42571C4.44857 3.35897 4.48138 3.29054 4.51107 3.2207C4.54076 3.15086 4.56592 3.07776 4.5892 3.00482C4.61123 2.93343 4.62982 2.85878 4.64544 2.78429C4.65951 2.70979 4.67201 2.63359 4.67982 2.55755C4.68763 2.4815 4.69076 2.4053 4.69076 2.32926C4.69076 2.25321 4.68748 2.17545 4.67982 2.09941Z" transform="translate(71.043 56.001)" fill="#F2B540"/>
<path d="M6.45991 5.78391L4.48899 1.38334C3.96243 0.207578 2.57572 -0.321171 1.39275 0.201683C0.20932 0.724537 -0.323492 2.10158 0.203068 3.27704L2.174 7.67761C2.56275 8.54547 3.41993 9.06087 4.31821 9.06087C4.63664 9.06087 4.96055 8.99615 5.27023 8.85912C6.45382 8.33642 6.98663 6.95952 6.45991 5.78391Z" transform="translate(66.8516 69.9385)" fill="#F2B540"/>
<path d="M20.5952 9.06358H13.8159V2.32964C13.8159 1.04307 12.7657 -1.03604e-09 11.4704 -1.03604e-09C10.1751 -1.03604e-09 9.12495 1.04307 9.12495 2.32964V9.06343H2.34546C1.05015 9.06343 -1.18255e-06 10.1065 -1.18255e-06 11.3931C-1.18255e-06 12.6796 1.05015 13.7227 2.34546 13.7227H9.12495V20.4565C9.12495 21.7431 10.1751 22.7861 11.4704 22.7861C12.7657 22.7861 13.8159 21.7431 13.8159 20.4565V13.7227H20.5952C21.8905 13.7227 22.9407 12.6796 22.9407 11.3931C22.9407 10.1065 21.8905 9.06358 20.5952 9.06358Z" transform="translate(56.2266)" fill="#F2B540"/>
<path d="M4.68013 2.10057C4.67216 2.02453 4.66139 1.94833 4.6456 1.87383C4.62998 1.79934 4.61123 1.72624 4.58951 1.6533C4.56748 1.58036 4.54092 1.50881 4.51138 1.43897C4.4831 1.36914 4.45029 1.29914 4.41451 1.23241C4.37857 1.16567 4.33795 1.09879 4.29545 1.03671C4.25326 0.973077 4.20795 0.910843 4.15951 0.851869C4.11092 0.792894 4.05935 0.735317 4.00467 0.682551C3.94982 0.628232 3.89201 0.577017 3.83248 0.528751C3.77311 0.48064 3.71201 0.434082 3.64795 0.392024C3.58389 0.349966 3.51811 0.311323 3.45092 0.275472C3.38374 0.239777 3.31326 0.207187 3.24295 0.1777C3.17264 0.149764 3.09905 0.12338 3.02717 0.101653C2.95374 0.0799255 2.87858 0.0597499 2.80358 0.0457823C2.72858 0.0302628 2.6517 0.0193989 2.57686 0.0116391C2.42358 -0.00388048 2.26874 -0.00388048 2.11561 0.0116391C2.03905 0.0193989 1.96233 0.0302628 1.88733 0.0457823C1.81233 0.0597499 1.73718 0.0799255 1.66531 0.101653C1.59187 0.12338 1.51968 0.149764 1.44781 0.1777C1.37765 0.207187 1.30859 0.239777 1.24156 0.275472C1.17421 0.311167 1.10703 0.349966 1.04453 0.392024C0.980466 0.433927 0.917652 0.480485 0.858434 0.528751C0.799215 0.577017 0.74109 0.628077 0.687965 0.682551C0.633122 0.735317 0.581558 0.792894 0.531559 0.851869C0.484684 0.910843 0.437652 0.973077 0.395465 1.03671C0.353122 1.09879 0.314063 1.16567 0.278126 1.23241C0.242188 1.29914 0.209375 1.36914 0.179688 1.43897C0.150001 1.50881 0.124841 1.58036 0.103123 1.6533C0.0796852 1.72624 0.0609375 1.79934 0.0468751 1.87383C0.0312502 1.94833 0.0203126 2.02453 0.0125001 2.10057C0.00468763 2.17662 2.25066e-06 2.25282 2.25066e-06 2.32887C2.25066e-06 2.40491 0.00468763 2.48266 0.0125001 2.55871C0.0203126 2.63336 0.0314064 2.70941 0.0468751 2.7839C0.0610938 2.85839 0.0796852 2.93304 0.103123 3.00599C0.124997 3.07737 0.150001 3.15047 0.179688 3.22031C0.209219 3.29015 0.242032 3.36014 0.278126 3.42688C0.313907 3.49361 0.352965 3.55895 0.395465 3.62258C0.437652 3.68621 0.484528 3.74844 0.531559 3.80586C0.581402 3.86484 0.632966 3.92242 0.687965 3.97673C0.74109 4.03105 0.799059 4.08227 0.858434 4.13053C0.917808 4.17864 0.980466 4.22365 1.04453 4.26571C1.10687 4.30761 1.17421 4.34796 1.24156 4.38381C1.30874 4.41951 1.37765 4.4521 1.44781 4.48003C1.51968 4.50952 1.59187 4.5359 1.66531 4.55763C1.73718 4.57936 1.81218 4.59798 1.88733 4.6135C1.96218 4.62902 2.03905 4.63988 2.11561 4.64764C2.19218 4.6554 2.26874 4.65851 2.34546 4.65851C2.42218 4.65851 2.5003 4.6554 2.57686 4.64764C2.6517 4.63988 2.72858 4.62902 2.80358 4.6135C2.87842 4.59798 2.95374 4.57936 3.02717 4.55763C3.09905 4.5359 3.17264 4.50952 3.24295 4.48003C3.31326 4.4521 3.38374 4.41951 3.45092 4.38381C3.51811 4.34812 3.58389 4.30777 3.64795 4.26571C3.71201 4.22365 3.77311 4.1788 3.83248 4.13053C3.89201 4.08242 3.94982 4.03105 4.00467 3.97673C4.05935 3.92242 4.11092 3.86484 4.15951 3.80586C4.20795 3.74844 4.25326 3.68621 4.29545 3.62258C4.33779 3.55895 4.37826 3.49361 4.41451 3.42688C4.45029 3.36014 4.4831 3.29015 4.51138 3.22031C4.54092 3.15047 4.56748 3.07737 4.58951 3.00599C4.61138 2.93304 4.63014 2.85839 4.6456 2.7839C4.66139 2.70941 4.67216 2.6332 4.68013 2.55871C4.68794 2.48266 4.69091 2.40491 4.69091 2.32887C4.69091 2.25282 4.68779 2.17677 4.68013 2.10057Z" transform="translate(47.0625 12.2314)" fill="#F2B540"/>
<path d="M4.00295 0.68255C3.94983 0.628232 3.89186 0.577017 3.83248 0.528752C3.77311 0.480641 3.71045 0.434082 3.64639 0.392024C3.58404 0.350121 3.5167 0.311322 3.44936 0.275472C3.38217 0.239777 3.3117 0.207186 3.24139 0.177699C3.17108 0.149764 3.09905 0.123381 3.02561 0.101653C2.95217 0.0799258 2.87874 0.0597503 2.80358 0.0457827C2.72874 0.0302631 2.65186 0.0193995 2.5753 0.0116397C2.42218 -0.00387988 2.26734 -0.00387988 2.11405 0.0116397C2.03921 0.0193995 1.96233 0.0302631 1.88733 0.0457827C1.81249 0.0597503 1.73718 0.0799258 1.66374 0.101653C1.59187 0.123381 1.51828 0.149764 1.44796 0.177699C1.37765 0.207186 1.30718 0.239777 1.23999 0.275472C1.17281 0.311167 1.10703 0.349966 1.04296 0.392024C0.978902 0.433927 0.91609 0.480486 0.858434 0.528752C0.798903 0.576862 0.741092 0.628077 0.686249 0.68255C0.631562 0.735317 0.579995 0.792895 0.531402 0.851869C0.482808 0.910843 0.437655 0.973077 0.393749 1.03671C0.353124 1.09879 0.312498 1.16567 0.276405 1.23241C0.240624 1.29914 0.207812 1.36914 0.179531 1.43897C0.15 1.50881 0.123437 1.58036 0.101406 1.6533C0.0795313 1.72624 0.06078 1.79934 0.0453114 1.87383C0.0295302 1.94833 0.0187477 2.02453 0.010779 2.10057C0.00296652 2.17662 -2.25066e-06 2.25282 -2.25066e-06 2.32887C-2.25066e-06 2.40491 0.00312277 2.48266 0.010779 2.55871C0.0187477 2.63336 0.0295302 2.70941 0.0453114 2.7839C0.0609363 2.85839 0.0796876 2.93304 0.101406 3.00598C0.123437 3.07893 0.15 3.15047 0.179531 3.22031C0.207812 3.29015 0.240624 3.36014 0.276405 3.42688C0.312342 3.49361 0.352968 3.55895 0.393749 3.62258C0.437499 3.68621 0.482808 3.74844 0.531402 3.80741C0.579995 3.86639 0.631562 3.92397 0.686249 3.97673C0.741092 4.03105 0.798903 4.08242 0.858434 4.13053C0.91609 4.17864 0.978902 4.22365 1.04296 4.26571C1.10703 4.30761 1.17281 4.34796 1.23999 4.38381C1.30718 4.41951 1.37765 4.4521 1.44796 4.48003C1.51828 4.50952 1.59187 4.5359 1.66374 4.55763C1.73718 4.57936 1.81233 4.59798 1.88733 4.6135C1.96233 4.62902 2.03921 4.63988 2.11405 4.64764C2.19062 4.6554 2.2689 4.65851 2.34546 4.65851C2.42202 4.65851 2.49858 4.6554 2.5753 4.64764C2.65186 4.63988 2.72858 4.62902 2.80358 4.6135C2.87858 4.59798 2.95217 4.57936 3.02561 4.55763C3.09905 4.5359 3.17108 4.50952 3.24139 4.48003C3.3117 4.4521 3.38217 4.41951 3.44936 4.38381C3.5167 4.34812 3.58389 4.30777 3.64639 4.26571C3.71045 4.2238 3.77326 4.1788 3.83248 4.13053C3.89186 4.08242 3.94967 4.03121 4.00295 3.97673C4.05779 3.92397 4.1092 3.86639 4.15779 3.80741C4.20623 3.74844 4.25311 3.68621 4.29545 3.62258C4.33779 3.55895 4.37685 3.49361 4.41279 3.42688C4.44873 3.36014 4.48154 3.29015 4.51123 3.22031C4.53935 3.15047 4.56607 3.07737 4.58779 3.00598C4.61123 2.93304 4.62998 2.85839 4.64404 2.7839C4.65967 2.70941 4.6706 2.6332 4.67841 2.55871C4.68623 2.48266 4.69091 2.40491 4.69091 2.32887C4.69091 1.71677 4.4406 1.11586 4.00295 0.68255Z" transform="translate(56.0039 0.835938)" fill="#F2B540"/>
<path d="M4.67826 2.10057C4.67045 2.02608 4.65951 1.94988 4.64389 1.87538C4.62967 1.80089 4.60935 1.72624 4.58763 1.6533C4.56576 1.58036 4.5392 1.50881 4.51107 1.43897C4.48154 1.36914 4.44873 1.29914 4.41263 1.23241C4.37685 1.16568 4.33779 1.10034 4.29529 1.03671C4.25154 0.973077 4.20623 0.910844 4.15764 0.853422C4.1092 0.792895 4.05748 0.73687 4.00279 0.682552C3.94967 0.628233 3.8917 0.577016 3.83233 0.528751C3.77295 0.48064 3.71029 0.435634 3.64623 0.392024C3.58233 0.350121 3.51654 0.311323 3.4492 0.275473C3.38201 0.239778 3.31155 0.207185 3.24123 0.17925C3.17108 0.149763 3.09889 0.12338 3.02546 0.101652C2.95202 0.079925 2.87686 0.0613014 2.80342 0.0457818C2.72686 0.0302623 2.6517 0.0193984 2.57514 0.0116386C2.42202 -0.00388095 2.26718 -0.00388095 2.1139 0.0116386C2.03749 0.0193984 1.96077 0.0302623 1.88562 0.0457818C1.81218 0.0613014 1.73702 0.079925 1.66359 0.101652C1.59015 0.12338 1.51812 0.149763 1.4478 0.17925C1.37749 0.207185 1.30703 0.239778 1.23984 0.275473C1.17265 0.311168 1.10531 0.349966 1.04281 0.392024C0.978748 0.435479 0.915934 0.480485 0.856715 0.528751C0.797497 0.576861 0.739372 0.628078 0.686247 0.682552C0.63156 0.73687 0.579998 0.792895 0.531404 0.853422C0.482967 0.910844 0.436247 0.973077 0.393747 1.03671C0.35156 1.10034 0.312496 1.16568 0.276403 1.23241C0.240622 1.29914 0.207813 1.36914 0.17797 1.43897C0.149845 1.50881 0.123279 1.58036 0.101404 1.6533C0.0795294 1.72624 0.0607829 1.80089 0.0453142 1.87538C0.0295331 1.94988 0.0187506 2.02608 0.0107818 2.10057C0.00296938 2.17662 6.10349e-07 2.25437 6.10349e-07 2.33042C6.10349e-07 2.94235 0.250156 3.54343 0.686404 3.97673C0.739529 4.03105 0.797498 4.08227 0.856873 4.13053C0.916248 4.17864 0.9789 4.2252 1.04296 4.26726C1.10531 4.30916 1.17281 4.34796 1.24 4.38381C1.30718 4.41951 1.37765 4.4521 1.44796 4.48158C1.51827 4.50952 1.59031 4.5359 1.66374 4.55763C1.73718 4.57936 1.81234 4.59953 1.88577 4.6135C1.96077 4.62902 2.03765 4.63988 2.11405 4.64764C2.19061 4.6554 2.26889 4.66006 2.34405 4.66006C2.42045 4.66006 2.49874 4.6554 2.5753 4.64764C2.65186 4.63988 2.72702 4.62902 2.80358 4.6135C2.87702 4.59953 2.95217 4.57936 3.02561 4.55763C3.09905 4.5359 3.17123 4.50952 3.24139 4.48158C3.3117 4.4521 3.38217 4.41951 3.44936 4.38381C3.5167 4.34812 3.58248 4.30932 3.64639 4.26726C3.71045 4.22536 3.77326 4.1788 3.83248 4.13053C3.8917 4.08242 3.94982 4.03105 4.00295 3.97673C4.4392 3.54343 4.69091 2.94235 4.69091 2.33042C4.69075 2.25406 4.68607 2.17646 4.67826 2.10057Z" transform="translate(75.3086 20.4873)" fill="#F2B540"/>
<path d="M11.3324 4.46312H9.18433V2.32964C9.18433 1.04307 8.13418 -1.74292e-06 6.83887 -1.74292e-06C5.54357 -1.74292e-06 4.49342 1.04307 4.49342 2.32964V4.46312H2.34546C1.05015 4.46312 -9.5367e-08 5.50619 -9.5367e-08 6.79276C-9.5367e-08 8.07933 1.05015 9.1224 2.34546 9.1224H4.49342V11.2559C4.49342 12.5424 5.54357 13.5855 6.83887 13.5855C8.13418 13.5855 9.18433 12.5424 9.18433 11.2559V9.1224H11.3323C12.6276 9.1224 13.6777 8.07933 13.6777 6.79276C13.6777 5.50619 12.6278 4.46312 11.3324 4.46312Z" transform="translate(3.125 58.6016)" fill="#F2B540"/>
<path d="M4.68013 2.10057C4.67216 2.02437 4.66138 1.94832 4.6456 1.87383C4.62998 1.79934 4.61123 1.72624 4.58951 1.6533C4.56748 1.58036 4.54092 1.50881 4.51138 1.43897C4.4831 1.36913 4.45029 1.29914 4.41451 1.23241C4.37857 1.16567 4.33795 1.09879 4.29545 1.03671C4.25326 0.973078 4.20795 0.910843 4.15951 0.851869C4.11092 0.792895 4.05795 0.735317 4.00467 0.68255C3.94982 0.628232 3.89201 0.577016 3.83248 0.527198C3.77311 0.480639 3.71201 0.43408 3.64795 0.392022C3.58389 0.35012 3.51811 0.311324 3.45092 0.275474C3.38373 0.239779 3.31327 0.207187 3.24295 0.1777C3.17264 0.149765 3.09905 0.123378 3.02717 0.101651C2.95374 0.0783716 2.87858 0.0597504 2.80358 0.0457828C2.72858 0.0302632 2.65171 0.0193993 2.57686 0.0116396C2.42358 -0.00388001 2.26874 -0.00388001 2.11562 0.0116396C2.03905 0.0193993 1.96233 0.0302632 1.88733 0.0457828C1.81233 0.0597504 1.73718 0.0783716 1.6653 0.101651C1.59187 0.123378 1.51968 0.149765 1.44781 0.1777C1.37765 0.207187 1.30859 0.239779 1.24156 0.275474C1.17421 0.311169 1.10703 0.349964 1.04453 0.392022C0.980464 0.433925 0.917651 0.480484 0.858433 0.527198C0.799058 0.576861 0.74109 0.628076 0.687966 0.68255C0.633122 0.735317 0.581559 0.792895 0.533122 0.851869C0.484841 0.910843 0.43781 0.973078 0.395467 1.03671C0.353123 1.09879 0.314061 1.16567 0.278124 1.23241C0.242186 1.29914 0.209375 1.36913 0.179687 1.43897C0.151406 1.50881 0.124843 1.58036 0.103124 1.6533C0.0796868 1.72624 0.0609368 1.79934 0.0468744 1.87383C0.0312494 1.94832 0.0203118 2.02453 0.0124993 2.10057C0.00468689 2.17662 3.14711e-07 2.25282 3.14711e-07 2.32887C3.14711e-07 2.40491 0.00468689 2.48266 0.0124993 2.55871C0.0203118 2.6332 0.0312494 2.70941 0.0468744 2.7839C0.0610931 2.85839 0.0796868 2.93304 0.103124 3.00599C0.124999 3.07738 0.151562 3.15047 0.179687 3.22031C0.209218 3.29015 0.24203 3.36014 0.278124 3.42688C0.313905 3.49361 0.352967 3.55895 0.395467 3.62258C0.437654 3.68621 0.484528 3.74844 0.533122 3.80586C0.581559 3.86639 0.633278 3.92242 0.687966 3.97673C0.74109 4.03105 0.799058 4.08227 0.858433 4.13053C0.917808 4.17864 0.980464 4.22365 1.04453 4.26571C1.10687 4.30761 1.17421 4.34796 1.24156 4.38381C1.30874 4.41951 1.37765 4.4521 1.44781 4.48003C1.51968 4.50952 1.59187 4.5359 1.6653 4.55763C1.73718 4.57936 1.81218 4.59798 1.88733 4.6135C1.96218 4.62902 2.03905 4.63989 2.11562 4.64765C2.19218 4.65541 2.26874 4.65851 2.34546 4.65851C2.42218 4.65851 2.5003 4.65541 2.57686 4.64765C2.65171 4.63989 2.72858 4.62902 2.80358 4.6135C2.87842 4.59798 2.95374 4.57936 3.02717 4.55763C3.09905 4.5359 3.17264 4.50952 3.24295 4.48003C3.31327 4.4521 3.38373 4.41951 3.45092 4.38381C3.51811 4.34812 3.58389 4.30777 3.64795 4.26571C3.71201 4.22381 3.77311 4.1788 3.83248 4.13053C3.89201 4.08242 3.94982 4.03121 4.00467 3.97673C4.05779 3.92242 4.11092 3.86639 4.15951 3.80586C4.20795 3.74844 4.25326 3.68621 4.29545 3.62258C4.33779 3.55895 4.37826 3.49361 4.41451 3.42688C4.45029 3.36014 4.4831 3.29015 4.51138 3.22031C4.54092 3.15047 4.56748 3.07738 4.58951 3.00599C4.61138 2.93304 4.63013 2.85839 4.6456 2.7839C4.66138 2.70941 4.67216 2.6332 4.68013 2.55871C4.68795 2.48266 4.69091 2.40491 4.69091 2.32887C4.69091 2.25282 4.68779 2.17662 4.68013 2.10057Z" transform="translate(12.8203 49.5049)" fill="#F2B540"/>
</svg>
