<svg width="16" height="16" viewBox="0 0 16 16" fill="none" xmlns="http://www.w3.org/2000/svg">
<path d="M14.8945 1.10611C13.4194 -0.368995 11.019 -0.368412 9.54362 1.10611L6.86817 3.78156C6.64085 4.00888 6.64085 4.37736 6.86817 4.60468C7.09549 4.832 7.46398 4.832 7.6913 4.60468L10.3667 1.92924C10.8589 1.43734 11.5167 1.16607 12.2188 1.16607C12.9211 1.16607 13.5789 1.43734 14.0711 1.92953C14.5633 2.42171 14.8346 3.07951 14.8346 3.78185C14.8346 4.48389 14.5633 5.14169 14.0711 5.63388L10.5728 9.13303C9.55119 10.1541 7.88951 10.1541 6.86788 9.13303C6.64056 8.90571 6.27208 8.90571 6.04476 9.13303C5.81744 9.36035 5.81744 9.72913 6.04476 9.95616C6.78231 10.6937 7.75126 11.0625 8.7202 11.0625C9.68915 11.0625 10.6581 10.6937 11.3957 9.95616L14.8945 6.4573C15.6067 5.74536 15.9991 4.79504 15.9991 3.78185C15.9991 2.76837 15.6067 1.81834 14.8945 1.10611Z" fill="#3B4B68"/>
<path d="M7.89709 11.8082L5.63321 14.0721C5.14102 14.5643 4.48322 14.8355 3.78088 14.8355C3.07884 14.8355 2.42075 14.5643 1.92856 14.0721C0.907223 13.0508 0.907223 11.3888 1.92856 10.3674L5.22164 7.07436C5.71383 6.58247 6.37163 6.3112 7.07397 6.3112C7.77601 6.3112 8.43381 6.58247 8.926 7.07436C9.15332 7.30168 9.5218 7.30168 9.74912 7.07436C9.97644 6.84704 9.97644 6.47856 9.74912 6.25124C8.27431 4.77643 5.87391 4.77613 4.39823 6.25124L1.10515 9.54461C0.393207 10.2566 0.000854492 11.2069 0.000854492 12.2201C0.000854492 13.233 0.393207 14.1833 1.10544 14.8952C1.81738 15.6074 2.7677 15.9998 3.78059 15.9998C4.79378 15.9998 5.7441 15.6074 6.45604 14.8952L8.71992 12.6313C8.94724 12.404 8.94724 12.0355 8.71992 11.8082C8.4926 11.5809 8.12441 11.5809 7.89709 11.8082Z" fill="#3B4B68"/>
</svg>
