<svg width="39" height="39" viewBox="0 0 39 39" fill="none" xmlns="http://www.w3.org/2000/svg">

<path fill-rule="evenodd" clip-rule="evenodd" d="M28.8536 12.1464C29.0488 12.3417 29.0488 12.6583 28.8536 12.8536L24.8536 16.8536C24.7598 16.9473 24.6326 17 24.5 17H21.4571L16.8536 21.6036C16.6583 21.7988 16.3417 21.7988 16.1464 21.6036L13.5 18.9571L9.85355 22.6036C9.65829 22.7988 9.34171 22.7988 9.14645 22.6036C8.95118 22.4083 8.95118 22.0917 9.14645 21.8964L13.1464 17.8964C13.3417 17.7012 13.6583 17.7012 13.8536 17.8964L16.5 20.5429L20.8964 16.1464C20.9902 16.0527 21.1174 16 21.25 16H24.2929L28.1464 12.1464C28.3417 11.9512 28.6583 11.9512 28.8536 12.1464Z" fill="#8E9AAC"/>
<path d="M9.5 23.5H10.5V24.5H9.5V23.5Z" fill="#8E9AAC"/>
<path d="M9.5 25.5H10.5V26.5H9.5V25.5Z" fill="#8E9AAC"/>
<path d="M10.5 24.5H11.5V25.5H10.5V24.5Z" fill="#8E9AAC"/>
<path d="M11.5 23.5H12.5V24.5H11.5V23.5Z" fill="#8E9AAC"/>
<path d="M11.5 21.5H12.5V22.5H11.5V21.5Z" fill="#8E9AAC"/>
<path d="M13.5 20.5H12.5V21.5H13.5V20.5Z" fill="#8E9AAC"/>
<path d="M14.5 21.5H13.5V22.5H14.5V21.5Z" fill="#8E9AAC"/>
<path d="M15.5 22.5H14.5V23.5H15.5V22.5Z" fill="#8E9AAC"/>
<path d="M16.5 23.5H15.5V24.5H16.5V23.5Z" fill="#8E9AAC"/>
<path d="M17.5 22.5H16.5V23.5H17.5V22.5Z" fill="#8E9AAC"/>
<path d="M18.5 21.5H17.5V22.5H18.5V21.5Z" fill="#8E9AAC"/>
<path d="M19.5 20.5H18.5V21.5H19.5V20.5Z" fill="#8E9AAC"/>
<path d="M20.5 19.5H19.5V20.5H20.5V19.5Z" fill="#8E9AAC"/>
<path d="M21.5 18.5H20.5V19.5H21.5V18.5Z" fill="#8E9AAC"/>
<path d="M22.5 17.5H21.5V18.5H22.5V17.5Z" fill="#8E9AAC"/>
<path d="M23.5 18.5H22.5V19.5H23.5V18.5Z" fill="#8E9AAC"/>
<path d="M22.5 19.5H21.5V20.5H22.5V19.5Z" fill="#8E9AAC"/>
<path d="M21.5 20.5H20.5V21.5H21.5V20.5Z" fill="#8E9AAC"/>
<path d="M20.5 21.5H19.5V22.5H20.5V21.5Z" fill="#8E9AAC"/>
<path d="M19.5 22.5H18.5V23.5H19.5V22.5Z" fill="#8E9AAC"/>
<path d="M18.5 23.5H17.5V24.5H18.5V23.5Z" fill="#8E9AAC"/>
<path d="M17.5 24.5H16.5V25.5H17.5V24.5Z" fill="#8E9AAC"/>
<path d="M18.5 25.5H17.5V26.5H18.5V25.5Z" fill="#8E9AAC"/>
<path d="M19.5 24.5H18.5V25.5H19.5V24.5Z" fill="#8E9AAC"/>
<path d="M20.5 25.5H19.5V26.5H20.5V25.5Z" fill="#8E9AAC"/>
<path d="M20.5 23.5H19.5V24.5H20.5V23.5Z" fill="#8E9AAC"/>
<path d="M21.5 22.5H20.5V23.5H21.5V22.5Z" fill="#8E9AAC"/>
<path d="M21.5 24.5H20.5V25.5H21.5V24.5Z" fill="#8E9AAC"/>
<path d="M22.5 25.5H21.5V26.5H22.5V25.5Z" fill="#8E9AAC"/>
<path d="M22.5 23.5H21.5V24.5H22.5V23.5Z" fill="#8E9AAC"/>
<path d="M22.5 21.5H21.5V22.5H22.5V21.5Z" fill="#8E9AAC"/>
<path d="M23.5 20.5H22.5V21.5H23.5V20.5Z" fill="#8E9AAC"/>
<path d="M23.5 22.5H22.5V23.5H23.5V22.5Z" fill="#8E9AAC"/>
<path d="M23.5 24.5H22.5V25.5H23.5V24.5Z" fill="#8E9AAC"/>
<path d="M24.5 25.5H23.5V26.5H24.5V25.5Z" fill="#8E9AAC"/>
<path d="M25.5 24.5H24.5V25.5H25.5V24.5Z" fill="#8E9AAC"/>
<path d="M24.5 23.5H23.5V24.5H24.5V23.5Z" fill="#8E9AAC"/>
<path d="M24.5 21.5H23.5V22.5H24.5V21.5Z" fill="#8E9AAC"/>
<path d="M24.5 19.5H23.5V20.5H24.5V19.5Z" fill="#8E9AAC"/>
<path d="M24.5 17.5H23.5V18.5H24.5V17.5Z" fill="#8E9AAC"/>
<path d="M25.5 18.5H24.5V19.5H25.5V18.5Z" fill="#8E9AAC"/>
<path d="M26.5 17.5H25.5V18.5H26.5V17.5Z" fill="#8E9AAC"/>
<path d="M27.5 16.5H26.5V17.5H27.5V16.5Z" fill="#8E9AAC"/>
<path d="M28.5 15.5H27.5V16.5H28.5V15.5Z" fill="#8E9AAC"/>
<path d="M29.5 14.5H28.5V15.5H29.5V14.5Z" fill="#8E9AAC"/>
<path d="M29.5 16.5H28.5V17.5H29.5V16.5Z" fill="#8E9AAC"/>
<path d="M28.5 17.5H27.5V18.5H28.5V17.5Z" fill="#8E9AAC"/>
<path d="M29.5 18.5H28.5V19.5H29.5V18.5Z" fill="#8E9AAC"/>
<path d="M27.5 18.5H26.5V19.5H27.5V18.5Z" fill="#8E9AAC"/>
<path d="M26.5 19.5H25.5V20.5H26.5V19.5Z" fill="#8E9AAC"/>
<path d="M28.5 19.5H27.5V20.5H28.5V19.5Z" fill="#8E9AAC"/>
<path d="M29.5 20.5H28.5V21.5H29.5V20.5Z" fill="#8E9AAC"/>
<path d="M27.5 20.5H26.5V21.5H27.5V20.5Z" fill="#8E9AAC"/>
<path d="M26.5 21.5H25.5V22.5H26.5V21.5Z" fill="#8E9AAC"/>
<path d="M28.5 21.5H27.5V22.5H28.5V21.5Z" fill="#8E9AAC"/>
<path d="M29.5 22.5H28.5V23.5H29.5V22.5Z" fill="#8E9AAC"/>
<path d="M27.5 22.5H26.5V23.5H27.5V22.5Z" fill="#8E9AAC"/>
<path d="M26.5 23.5H25.5V24.5H26.5V23.5Z" fill="#8E9AAC"/>
<path d="M28.5 23.5H27.5V24.5H28.5V23.5Z" fill="#8E9AAC"/>
<path d="M29.5 24.5H28.5V25.5H29.5V24.5Z" fill="#8E9AAC"/>
<path d="M27.5 24.5H26.5V25.5H27.5V24.5Z" fill="#8E9AAC"/>
<path d="M28.5 25.5H27.5V26.5H28.5V25.5Z" fill="#8E9AAC"/>
<path d="M25.5 20.5H24.5V21.5H25.5V20.5Z" fill="#8E9AAC"/>
<path d="M25.5 22.5H24.5V23.5H25.5V22.5Z" fill="#8E9AAC"/>
<path d="M26.5 25.5H25.5V26.5H26.5V25.5Z" fill="#8E9AAC"/>
<path d="M14.5 23.5H13.5V24.5H14.5V23.5Z" fill="#8E9AAC"/>
<path d="M13.5 22.5H12.5V23.5H13.5V22.5Z" fill="#8E9AAC"/>
<path d="M13.5 24.5H12.5V25.5H13.5V24.5Z" fill="#8E9AAC"/>
<path d="M12.5 25.5H11.5V26.5H12.5V25.5Z" fill="#8E9AAC"/>
<path d="M13.5 25.5H14.5V26.5H13.5V25.5Z" fill="#8E9AAC"/>
<path d="M14.5 24.5H15.5V25.5H14.5V24.5Z" fill="#8E9AAC"/>
<path d="M15.5 25.5H16.5V26.5H15.5V25.5Z" fill="#8E9AAC"/>
<path d="M10.5 22.5H11.5V23.5H10.5V22.5Z" fill="#8E9AAC"/>
</svg>
