<svg width="39" height="39" viewBox="0 0 39 39" fill="none" xmlns="http://www.w3.org/2000/svg">
    <path fill-rule="evenodd" clip-rule="evenodd" d="M11 30.5C11 29.6716 10.3284 29 9.5 29C8.67157 29 8 29.6716 8 30.5C8 31.3284 8.67157 32 9.5 32C10.3284 32 11 31.3284 11 30.5ZM12 30.5C12 29.1193 10.8807 28 9.5 28C8.11929 28 7 29.1193 7 30.5C7 31.8807 8.11929 33 9.5 33C10.8807 33 12 31.8807 12 30.5Z" fill="#8E9AAC"/>
    <path d="M9.5 29C9.22386 29 9 28.7761 9 28.5L9 7.5C9 7.22386 9.22386 7 9.5 7C9.77614 7 10 7.22386 10 7.5L10 28.5C10 28.7761 9.77614 29 9.5 29Z" fill="#8E9AAC"/>
    <path fill-rule="evenodd" clip-rule="evenodd" d="M30 9.5C30 8.67157 29.3284 8 28.5 8C27.6716 8 27 8.67157 27 9.5C27 10.3284 27.6716 11 28.5 11C29.3284 11 30 10.3284 30 9.5ZM31 9.5C31 8.11929 29.8807 7 28.5 7C27.1193 7 26 8.11929 26 9.5C26 10.8807 27.1193 12 28.5 12C29.8807 12 31 10.8807 31 9.5Z" fill="#8E9AAC"/>
    <path d="M28.5 33C28.2239 33 28 32.7761 28 32.5V11.5C28 11.2239 28.2239 11 28.5 11C28.7761 11 29 11.2239 29 11.5V32.5C29 32.7761 28.7761 33 28.5 33Z" fill="#8E9AAC"/>
    <path fill-rule="evenodd" clip-rule="evenodd" d="M10.5 20C10.5 19.7239 10.7239 19.5 11 19.5H27C27.2761 19.5 27.5 19.7239 27.5 20C27.5 20.2761 27.2761 20.5 27 20.5H11C10.7239 20.5 10.5 20.2761 10.5 20Z" fill="#8E9AAC"/>
    <path fill-rule="evenodd" clip-rule="evenodd" d="M24.6464 22.3536C24.4512 22.1583 24.4512 21.8417 24.6464 21.6464L26.6464 19.6464C26.8417 19.4512 27.1583 19.4512 27.3536 19.6464C27.5488 19.8417 27.5488 20.1583 27.3536 20.3536L25.3536 22.3536C25.1583 22.5488 24.8417 22.5488 24.6464 22.3536Z" fill="#8E9AAC"/>
    <path fill-rule="evenodd" clip-rule="evenodd" d="M24.6464 17.6464C24.8417 17.4512 25.1583 17.4512 25.3536 17.6464L27.3536 19.6464C27.5488 19.8417 27.5488 20.1583 27.3536 20.3536C27.1583 20.5488 26.8417 20.5488 26.6464 20.3536L24.6464 18.3536C24.4512 18.1583 24.4512 17.8417 24.6464 17.6464Z" fill="#8E9AAC"/>
</svg>