<svg width="39" height="39" viewBox="0 0 39 39" fill="none" xmlns="http://www.w3.org/2000/svg">
    <path fill-rule="evenodd" clip-rule="evenodd" d="M8.5 31C9.32843 31 10 30.3284 10 29.5C10 28.6716 9.32843 28 8.5 28C7.67157 28 7 28.6716 7 29.5C7 30.3284 7.67157 31 8.5 31ZM8.5 32C9.88071 32 11 30.8807 11 29.5C11 28.1193 9.88071 27 8.5 27C7.11929 27 6 28.1193 6 29.5C6 30.8807 7.11929 32 8.5 32Z" fill="#8E9AAC"/>
    <path d="M10 29.5C10 29.2239 10.2239 29 10.5 29H31.5C31.7761 29 32 29.2239 32 29.5C32 29.7761 31.7761 30 31.5 30H10.5C10.2239 30 10 29.7761 10 29.5Z" fill="#8E9AAC"/>
    <path fill-rule="evenodd" clip-rule="evenodd" d="M29.5 12C30.3284 12 31 11.3284 31 10.5C31 9.67157 30.3284 9 29.5 9C28.6716 9 28 9.67157 28 10.5C28 11.3284 28.6716 12 29.5 12ZM29.5 13C30.8807 13 32 11.8807 32 10.5C32 9.11929 30.8807 8 29.5 8C28.1193 8 27 9.11929 27 10.5C27 11.8807 28.1193 13 29.5 13Z" fill="#8E9AAC"/>
    <path d="M6 10.5C6 10.2239 6.22386 10 6.5 10H27.5C27.7761 10 28 10.2239 28 10.5C28 10.7761 27.7761 11 27.5 11H6.5C6.22386 11 6 10.7761 6 10.5Z" fill="#8E9AAC"/>
    <path fill-rule="evenodd" clip-rule="evenodd" d="M19 11.5C19.2761 11.5 19.5 11.7239 19.5 12V28C19.5 28.2761 19.2761 28.5 19 28.5C18.7239 28.5 18.5 28.2761 18.5 28V12C18.5 11.7239 18.7239 11.5 19 11.5Z" fill="#8E9AAC"/>
    <path fill-rule="evenodd" clip-rule="evenodd" d="M16.6464 25.6464C16.8417 25.4512 17.1583 25.4512 17.3536 25.6464L19.3536 27.6464C19.5488 27.8417 19.5488 28.1583 19.3536 28.3536C19.1583 28.5488 18.8417 28.5488 18.6464 28.3536L16.6464 26.3536C16.4512 26.1583 16.4512 25.8417 16.6464 25.6464Z" fill="#8E9AAC"/>
    <path fill-rule="evenodd" clip-rule="evenodd" d="M21.3536 25.6464C21.5488 25.8417 21.5488 26.1583 21.3536 26.3536L19.3536 28.3536C19.1583 28.5488 18.8417 28.5488 18.6464 28.3536C18.4512 28.1583 18.4512 27.8417 18.6464 27.6464L20.6464 25.6464C20.8417 25.4512 21.1583 25.4512 21.3536 25.6464Z" fill="#8E9AAC"/>
</svg>