<svg width="39" height="39" viewBox="0 0 39 39" fill="none" xmlns="http://www.w3.org/2000/svg">
    <path fill-rule="evenodd" clip-rule="evenodd" d="M8.5 24C9.32843 24 10 23.3284 10 22.5C10 21.6716 9.32843 21 8.5 21C7.67157 21 7 21.6716 7 22.5C7 23.3284 7.67157 24 8.5 24ZM8.5 25C9.88071 25 11 23.8807 11 22.5C11 21.1193 9.88071 20 8.5 20C7.11929 20 6 21.1193 6 22.5C6 23.8807 7.11929 25 8.5 25Z" fill="#8E9AAC"/>
    <path fill-rule="evenodd" clip-rule="evenodd" d="M8.5 16C9.32843 16 10 15.3284 10 14.5C10 13.6716 9.32843 13 8.5 13C7.67157 13 7 13.6716 7 14.5C7 15.3284 7.67157 16 8.5 16ZM8.5 17C9.88071 17 11 15.8807 11 14.5C11 13.1193 9.88071 12 8.5 12C7.11929 12 6 13.1193 6 14.5C6 15.8807 7.11929 17 8.5 17Z" fill="#8E9AAC"/>
    <path fill-rule="evenodd" clip-rule="evenodd" d="M20.5 10C21.3284 10 22 9.32843 22 8.5C22 7.67157 21.3284 7 20.5 7C19.6716 7 19 7.67157 19 8.5C19 9.32843 19.6716 10 20.5 10ZM20.5 11C21.8807 11 23 9.88071 23 8.5C23 7.11929 21.8807 6 20.5 6C19.1193 6 18 7.11929 18 8.5C18 9.88071 19.1193 11 20.5 11Z" fill="#8E9AAC"/>
    <path d="M6 32.5C6 32.2239 6.22386 32 6.5 32H31.5C31.7761 32 32 32.2239 32 32.5C32 32.7761 31.7761 33 31.5 33H6.5C6.22386 33 6 32.7761 6 32.5Z" fill="#8E9AAC"/>
    <path d="M6 27.5C6 27.2239 6.22386 27 6.5 27H31.5C31.7761 27 32 27.2239 32 27.5C32 27.7761 31.7761 28 31.5 28H6.5C6.22386 28 6 27.7761 6 27.5Z" fill="#8E9AAC"/>
    <path d="M10 22.5C10 22.2239 10.2239 22 10.5 22H31.5C31.7761 22 32 22.2239 32 22.5C32 22.7761 31.7761 23 31.5 23H10.5C10.2239 23 10 22.7761 10 22.5Z" fill="#8E9AAC"/>
    <path d="M8 16.5C8 16.2239 8.22386 16 8.5 16C8.77614 16 9 16.2239 9 16.5V20.5C9 20.7761 8.77614 21 8.5 21C8.22386 21 8 20.7761 8 20.5V16.5Z" fill="#8E9AAC"/>
    <path fill-rule="evenodd" clip-rule="evenodd" d="M19.2129 9.95243L10.7129 13.9524L10.2871 13.0476L18.7871 9.04761L19.2129 9.95243Z" fill="#8E9AAC"/>
</svg>
