<svg width="18" height="20" viewBox="0 0 18 20" version="1.1" xmlns="http://www.w3.org/2000/svg" xmlns:xlink="http://www.w3.org/1999/xlink">
<g id="Canvas" fill="none">
<g id="&#208;&#159;&#208;&#190;&#208;&#178;&#209;&#130;&#208;&#190;&#209;&#128;&#208;&#184;&#209;&#130;&#209;&#140;">
<g id="Vector">
<path d="M 9.98935 19.9439C 14.1396 19.4945 17.4658 16.2874 17.9391 12.2754C 18.5604 7.02959 14.3425 2.5641 9.05532 2.5069L 9.05532 0.153637C 9.05532 0.0229002 8.88627 -0.0465538 8.77215 0.0351568L 3.75968 3.59365C 3.67516 3.65494 3.67516 3.77342 3.75968 3.8347L 8.77215 7.3932C 8.88627 7.47491 9.05532 7.40137 9.05532 7.27472L 9.05532 4.92554C 12.7703 4.98273 15.7457 8.03871 15.4921 11.6912C 15.2765 14.8329 12.6266 17.3823 9.37652 17.5825C 5.93204 17.795 3.00316 15.4172 2.4791 12.2713C 2.38189 11.6871 1.85359 11.2622 1.245 11.2622C 0.488477 11.2622 -0.103214 11.9118 0.0151239 12.6349C 0.750512 17.1168 5.03182 20.4792 9.98935 19.9439Z" fill="#3498DB"/>
</g>
</g>
</g>
</svg>

