<svg width="22" height="20" viewBox="0 0 22 20" version="1.1" xmlns="http://www.w3.org/2000/svg" xmlns:xlink="http://www.w3.org/1999/xlink">
	<g transform="translate(-175 2946)">
		<use xlink:href="#path0_fill" transform="translate(175 -2946)" fill="#8E9AAC"/>		
	</g>
	<defs>
		<path id="path0_fill" d="M 22 18.5714C 22 19.36 21.384 20 20.625 20C 19.8653 20 19.25 19.36 19.25 18.5714C 19.25 17.7829 19.8653 15.7143 20.625 15.7143C 21.384 15.7143 22 17.7829 22 18.5714ZM 19.9375 7.85714L 19.9375 14.2857C 19.9375 14.6807 20.2448 15 20.625 15C 21.0045 15 21.3125 14.6807 21.3125 14.2857L 21.3125 7.85714C 21.3125 7.46214 21.0045 7.14286 20.625 7.14286C 20.2448 7.14286 19.9375 7.46214 19.9375 7.85714ZM 20.4009 6.37429L 18.5625 6.815L 18.5625 12.8571C 18.5625 14.7529 16.4739 16.4286 11 16.4286C 5.52612 16.4286 3.4375 14.7529 3.4375 12.8571L 3.4375 6.815L 1.59844 6.37429C 0.657938 6.14857 0 5.29 0 4.28571C 0 3.28143 0.65725 2.42286 1.59913 2.19714L 10.5359 0.0542857C 10.6954 0.0171428 10.8481 0 11 0C 11.1519 0 11.3046 0.0171428 11.4544 0.0521428L 20.4009 2.19714C 21.3421 2.42286 22 3.28143 22 4.28571C 22 5.29 21.3421 6.14857 20.4009 6.37429ZM 17.1875 7.145L 11.4634 8.51714C 11.3053 8.55429 11.1519 8.57143 11 8.57143C 10.8481 8.57143 10.6947 8.55429 10.5449 8.51929L 4.8125 7.145L 4.8125 12.8571C 4.8125 13.6464 6.875 15 11 15C 15.125 15 17.1875 13.6464 17.1875 12.8571L 17.1875 7.145ZM 20.0922 4.98214C 20.4036 4.90714 20.625 4.61857 20.625 4.28571C 20.625 3.95286 20.4036 3.66429 20.0922 3.58929L 11.1547 1.44643L 11 1.42857L 10.8453 1.44643L 1.90781 3.58929C 1.59569 3.66429 1.375 3.95286 1.375 4.28571C 1.375 4.61857 1.59569 4.90714 1.90781 4.98214L 10.8453 7.125L 11 7.14286L 11.1547 7.125L 20.0922 4.98214Z"/>
	</defs>
</svg>