<svg width="39" height="39" viewBox="0 0 39 39" fill="none" xmlns="http://www.w3.org/2000/svg">
    <path fill-rule="evenodd" clip-rule="evenodd" d="M16.5 19C17.3284 19 18 18.3284 18 17.5C18 16.6716 17.3284 16 16.5 16C15.6716 16 15 16.6716 15 17.5C15 18.3284 15.6716 19 16.5 19ZM16.5 20C17.8807 20 19 18.8807 19 17.5C19 16.1193 17.8807 15 16.5 15C15.1193 15 14 16.1193 14 17.5C14 18.8807 15.1193 20 16.5 20Z" fill="#8E9AAC"/>
    <path fill-rule="evenodd" clip-rule="evenodd" d="M27.5 13C28.3284 13 29 12.3284 29 11.5C29 10.6716 28.3284 10 27.5 10C26.6716 10 26 10.6716 26 11.5C26 12.3284 26.6716 13 27.5 13ZM27.5 14C28.8807 14 30 12.8807 30 11.5C30 10.1193 28.8807 9 27.5 9C26.1193 9 25 10.1193 25 11.5C25 12.8807 26.1193 14 27.5 14Z" fill="#8E9AAC"/>
    <path fill-rule="evenodd" clip-rule="evenodd" d="M10.5 30C11.3284 30 12 29.3284 12 28.5C12 27.6716 11.3284 27 10.5 27C9.67157 27 9 27.6716 9 28.5C9 29.3284 9.67157 30 10.5 30ZM10.5 31C11.8807 31 13 29.8807 13 28.5C13 27.1193 11.8807 26 10.5 26C9.11929 26 8 27.1193 8 28.5C8 29.8807 9.11929 31 10.5 31Z" fill="#8E9AAC"/>
    <path fill-rule="evenodd" clip-rule="evenodd" d="M25.9682 11.8245C26.0651 12.083 25.9341 12.3712 25.6756 12.4682L21.7987 13.922C21.7578 13.9373 21.7191 13.9579 21.6836 13.9833L18.2906 16.4069C18.0659 16.5674 17.7537 16.5153 17.5931 16.2906C17.4326 16.0659 17.4847 15.7537 17.7094 15.5931L21.1024 13.1696C21.2089 13.0935 21.325 13.0317 21.4476 12.9857L25.3245 11.5318C25.583 11.4349 25.8712 11.5659 25.9682 11.8245ZM15.2906 18.5931C15.5153 18.7537 15.5674 19.0659 15.4069 19.2906L12.9833 22.6836C12.9579 22.7191 12.9373 22.7578 12.922 22.7987L11.4682 26.6756C11.3712 26.9341 11.083 27.0651 10.8245 26.9682C10.5659 26.8712 10.4349 26.583 10.5318 26.3245L11.9857 22.4476C12.0317 22.325 12.0935 22.2089 12.1696 22.1024L14.5931 18.7094C14.7537 18.4847 15.0659 18.4326 15.2906 18.5931Z" fill="#8E9AAC"/>
</svg>
