<svg width="19" height="19" viewBox="0 0 19 19" version="1.1" xmlns="http://www.w3.org/2000/svg" xmlns:xlink="http://www.w3.org/1999/xlink">
<g id="Canvas" fill="none">
<g id="icon / done">
<g id="Vector">
<path d="M 10.8728 1.63732L 4.56987 7.87509C 4.40094 8.04164 4.12744 8.04164 3.95919 7.87509L 0.126189 4.05664C -0.0420629 3.88942 -0.0420629 3.61768 0.126189 3.45147L 1.04204 2.54558C 1.21097 2.37869 1.48446 2.37869 1.65271 2.54558L 4.26777 5.15133L 9.34529 0.12491C 9.51354 -0.0416369 9.78703 -0.0416369 9.95665 0.12491L 10.8725 1.03215C 11.0424 1.19904 11.0424 1.47077 10.8728 1.63732Z" transform="translate(4 6)" fill="#82BD22"/>
</g>
<g id="003-clock-circular-outline">
<g id="Group">
<g id="Group_2">
<g id="Vector_2">
<path d="M 9.5 0C 4.2617 0 0 4.2617 0 9.5C 0 14.7383 4.2617 19 9.5 19C 14.7383 19 19 14.7383 19 9.5C 19 4.2617 14.7383 0 9.5 0ZM 9.5 16.9786C 5.37636 16.9786 2.02124 13.6238 2.02124 9.5C 2.02124 5.37616 5.37636 2.02144 9.5 2.02144C 13.6236 2.02144 16.9788 5.37616 16.9788 9.5C 16.9788 13.6238 13.6236 16.9786 9.5 16.9786Z" fill="#82BD22"/>
</g>
</g>
</g>
</g>
</g>
</g>
</svg>

