<svg width="21" height="17" viewBox="0 0 21 17" version="1.1" xmlns="http://www.w3.org/2000/svg" xmlns:xlink="http://www.w3.org/1999/xlink">
	<g transform="translate(-6020 5562)">
		<use xlink:href="#path0_fill" transform="translate(6020.26 -5561.42)" />
		<use xlink:href="#path1_fill" transform="translate(6022.64 -5559.23)" />
	</g>
	<defs>
	<path id="path0_fill" d="M 18.1254 0L 2.52466 0C 1.13204 0 0 1.13204 0 2.52466L 0 13.1872C 0 14.5798 1.13204 15.7118 2.52466 15.7118L 18.1212 15.7118C 19.5138 15.7118 20.6458 14.5798 20.6458 13.1872L 20.6458 2.52893C 20.6501 1.13631 19.5181 0 18.1254 0ZM 19.4967 13.1872C 19.4967 13.9433 18.8815 14.5584 18.1254 14.5584L 2.52466 14.5584C 1.76854 14.5584 1.1534 13.9433 1.1534 13.1872L 1.1534 2.52893C 1.1534 1.77282 1.76854 1.15767 2.52466 1.15767L 18.1212 1.15767C 18.8773 1.15767 19.4924 1.77282 19.4924 2.52893L 19.4924 13.1872L 19.4967 13.1872Z"/>
	<path id="path1_fill" d="M 10.6389 5.53834L 15.6882 1.01019C 15.9232 0.796597 15.9446 0.43349 15.731 0.194267C 15.5174 -0.0406842 15.1543 -0.0620434 14.915 0.151549L 7.95194 6.40126L 6.59349 5.18805C 6.58922 5.18378 6.58495 5.17951 6.58495 5.17524C 6.55504 5.14533 6.52514 5.1197 6.49097 5.09407L 0.963199 0.147277C 0.723976 -0.0663152 0.360869 -0.0449561 0.147277 0.194267C -0.0663152 0.43349 -0.0449561 0.796597 0.194267 1.01019L 5.30339 5.57679L 0.215626 10.3399C -0.0150532 10.5578 -0.0278686 10.9209 0.189995 11.1558C 0.305335 11.2754 0.459121 11.3395 0.612908 11.3395C 0.753879 11.3395 0.89485 11.2882 1.00592 11.1857L 6.17058 6.35427L 7.57174 7.60592C 7.68281 7.70417 7.81951 7.75116 7.95621 7.75116C 8.09291 7.75116 8.23388 7.6999 8.34067 7.60164L 9.78029 6.31155L 14.915 11.19C 15.0261 11.2968 15.1714 11.3481 15.3123 11.3481C 15.4661 11.3481 15.6156 11.2882 15.731 11.1686C 15.9488 10.938 15.9403 10.5706 15.7096 10.3527L 10.6389 5.53834Z"/>
	</defs>
</svg>
