<svg width="30" height="26" viewBox="0 0 30 26" version="1.1" xmlns="http://www.w3.org/2000/svg" xmlns:xlink="http://www.w3.org/1999/xlink">
	<g transform="translate(-1751 4433)">
		<use xlink:href="#icon-chat-fill-1" transform="translate(1751 -4432.5)" />
		<use xlink:href="#icon-chat-fill-2" transform="translate(1751 -4432.5)" />
		<use xlink:href="#icon-chat-fill-3" transform="translate(1751 -4432.5)" />
		<use xlink:href="#icon-chat-fill-4" transform="translate(1751 -4432.5)" />
		<use xlink:href="#icon-chat-fill-5" transform="translate(1751 -4432.5)" />
		<use xlink:href="#icon-chat-fill-6" transform="translate(1751 -4432.5)" />
		<use xlink:href="#icon-chat-fill-7" transform="translate(1751 -4432.5)" />			
	</g>
	<defs>
		<path id="icon-chat-fill-1" d="M 21.8139 0L 1.68932 0C 0.757794 0 0 0.787668 0 1.75585L 0 14.3054C 0 15.2736 0.757794 16.0613 1.68932 16.0613L 2.99426 16.0613L 2.99426 20.7333C 2.99426 21.0307 3.16665 21.299 3.43114 21.4129C 3.51868 21.4507 3.61067 21.4689 3.70184 21.4689C 3.88606 21.4689 4.067 21.3941 4.20241 21.2534L 9.1976 16.0614L 10.1998 16.0614C 10.5907 16.0614 10.9075 15.7321 10.9075 15.3258C 10.9075 14.9195 10.5905 14.5902 10.1998 14.5902C 10.1998 14.5902 8.87029 14.5911 8.8564 14.5926C 8.69164 14.6042 8.52992 14.6747 8.40394 14.8056L 4.40966 18.9574C 4.40966 18.9574 4.40843 15.2793 4.40614 15.2602C 4.37421 14.8847 4.07116 14.5902 3.70161 14.5902L 1.68932 14.5902C 1.53826 14.5902 1.41545 14.4624 1.41545 14.3055L 1.41545 1.75585C 1.41545 1.59884 1.53832 1.47119 1.68932 1.47119L 21.8139 1.47119C 21.965 1.47119 22.0878 1.59891 22.0878 1.75585L 22.0878 6.5706C 22.0878 6.97689 22.4047 7.30619 22.7955 7.30619C 23.1862 7.30619 23.5032 6.97689 23.5032 6.5706L 23.5032 1.75585C 23.5032 0.787668 22.7454 0 21.8139 0Z"/>
		<path id="icon-chat-fill-2" d="M 28.3107 8.99755L 14.2239 8.99755C 13.2924 8.99755 12.5346 9.78522 12.5346 10.7535L 12.5346 19.3147C 12.5346 20.2829 13.2924 21.0706 14.2239 21.0706L 23.0431 21.0706L 26.6161 24.7845C 26.7516 24.9253 26.9326 25 27.1167 25C 27.2079 25 27.2999 24.9817 27.3874 24.944C 27.6518 24.8301 27.8243 24.5619 27.8243 24.2643L 27.8243 21.0706L 28.3107 21.0706C 29.2421 21.0706 30 20.2829 30 19.3146L 30 10.7534C 30.0001 9.78522 29.2423 8.99755 28.3107 8.99755ZM 28.5847 19.3147C 28.5847 19.4716 28.4618 19.5994 28.3108 19.5994L 27.1169 19.5994C 26.7445 19.5994 26.4399 19.8985 26.4119 20.2783C 26.4101 20.2943 26.409 22.4885 26.409 22.4885L 23.8394 19.8175C 23.8367 19.8147 23.8339 19.8121 23.8312 19.8093C 23.8211 19.7991 23.8116 19.7902 23.8025 19.7822C 23.678 19.6687 23.5152 19.5993 23.3366 19.5993L 14.2239 19.5993C 14.0728 19.5993 13.95 19.4716 13.95 19.3146L 13.95 10.7534C 13.95 10.5964 14.0729 10.4687 14.2239 10.4687L 28.3108 10.4687C 28.4618 10.4687 28.5847 10.5965 28.5847 10.7534L 28.5847 19.3147Z"/>
		<path id="icon-chat-fill-3" d="M 21.2675 14.2985C 20.8768 14.2985 20.5598 14.628 20.5598 15.0341C 20.5598 15.4401 20.8768 15.7697 21.2675 15.7697C 21.6582 15.7697 21.9752 15.4401 21.9752 15.0341C 21.9752 14.628 21.6581 14.2985 21.2675 14.2985Z"/>
		<path id="icon-chat-fill-4" d="M 18.1918 4.86334L 5.31154 4.86334C 4.92071 4.86334 4.60384 5.19265 4.60384 5.59894C 4.60384 6.00523 4.92077 6.33453 5.31154 6.33453L 18.1918 6.33453C 18.5826 6.33453 18.8995 6.00523 18.8995 5.59894C 18.8995 5.19265 18.5826 4.86334 18.1918 4.86334Z"/>
		<path id="icon-chat-fill-5" d="M 10.1997 9.72675L 5.31154 9.72675C 4.92071 9.72675 4.60384 10.0561 4.60384 10.4623C 4.60384 10.8686 4.92077 11.1979 5.31154 11.1979L 10.1997 11.1979C 10.5906 11.1979 10.9074 10.8686 10.9074 10.4623C 10.9074 10.0561 10.5905 9.72675 10.1997 9.72675Z"/>
		<path id="icon-chat-fill-6" d="M 17.9788 14.2985C 17.5882 14.2985 17.2711 14.628 17.2711 15.0341C 17.2711 15.4401 17.5882 15.7697 17.9788 15.7697C 18.3695 15.7697 18.6865 15.4401 18.6865 15.0341C 18.6865 14.628 18.3695 14.2985 17.9788 14.2985Z"/>
		<path id="icon-chat-fill-7" d="M 24.5555 14.2985C 24.1648 14.2985 23.8478 14.628 23.8478 15.0341C 23.8478 15.4401 24.1648 15.7697 24.5555 15.7697C 24.9462 15.7697 25.2632 15.4401 25.2632 15.0341C 25.2632 14.628 24.9461 14.2985 24.5555 14.2985Z"/>
	</defs>
</svg>