<svg width="19" height="19" viewBox="0 0 19 19" fill="none" xmlns="http://www.w3.org/2000/svg">
<path d="M18.3498 5.14176L13.5093 0.111996C13.4404 0.0404492 13.3453 0 13.246 0H6.0316C5.22421 0 4.56734 0.656613 4.56734 1.46367V6.57693H1.6436C1.03954 6.57693 0.548096 7.06822 0.548096 7.67214V13.1548C0.548096 13.7587 1.03954 14.25 1.6436 14.25H4.56734V17.5389C4.56734 18.3445 5.22421 19 6.0316 19H16.9877C17.7951 19 18.452 18.3449 18.452 17.5397V5.39515C18.452 5.30067 18.4153 5.20986 18.3498 5.14176ZM13.3366 0.986404L17.3102 5.11538H13.3366V0.986404ZM1.6436 13.5192C1.44247 13.5192 1.27889 13.3558 1.27889 13.1548V7.67214C1.27889 7.47119 1.44251 7.30769 1.6436 7.30769H11.5103C11.7114 7.30769 11.875 7.47119 11.875 7.67214V13.1548C11.875 13.3558 11.7114 13.5192 11.5103 13.5192H1.6436ZM17.7212 17.5397C17.7212 17.942 17.3921 18.2692 16.9877 18.2692H6.0316C5.62715 18.2692 5.2981 17.9416 5.2981 17.5389V14.25H11.5102C12.1143 14.25 12.6058 13.7587 12.6058 13.1548V7.67214C12.6058 7.06822 12.1143 6.57693 11.5102 6.57693H5.2981V1.46367C5.2981 1.05951 5.62715 0.730758 6.0316 0.730758H12.6058V5.48076C12.6058 5.68256 12.7694 5.84614 12.9712 5.84614H17.7212V17.5397Z" fill="#3B4B68"/>
<path d="M10.563 10.6438C10.4795 10.5089 10.3638 10.4025 10.2161 10.3247C10.0684 10.247 9.84044 10.1717 9.53214 10.0989C9.22383 10.0261 9.02975 9.95614 8.94982 9.88909C8.88695 9.83628 8.85556 9.77268 8.85556 9.69853C8.85556 9.61715 8.88907 9.55217 8.95624 9.50367C9.06044 9.42804 9.20461 9.39023 9.38867 9.39023C9.56706 9.39023 9.70091 9.42559 9.79012 9.49617C9.87929 9.56679 9.93744 9.6828 9.96457 9.84411L10.5983 9.81624C10.5883 9.52794 10.4838 9.29742 10.2847 9.12478C10.0855 8.95204 9.78904 8.86572 9.39517 8.86572C9.15392 8.86572 8.94804 8.90205 8.77748 8.9749C8.60693 9.04771 8.4763 9.15365 8.38568 9.29278C8.29506 9.43197 8.24967 9.58153 8.24967 9.74139C8.24967 9.98966 8.34605 10.2002 8.53879 10.373C8.6758 10.4956 8.91412 10.5991 9.25385 10.6833C9.51785 10.749 9.68703 10.7947 9.76118 10.8203C9.86972 10.8589 9.94568 10.9042 9.98918 10.9563C10.0327 11.0085 10.0545 11.0715 10.0545 11.1458C10.0545 11.2614 10.0028 11.3624 9.8993 11.4487C9.7958 11.535 9.64205 11.5782 9.43792 11.5782C9.24524 11.5782 9.09217 11.5297 8.97872 11.4326C8.86528 11.3356 8.79002 11.1836 8.75284 10.9766L8.13623 11.0365C8.17761 11.3877 8.30467 11.655 8.51734 11.8384C8.73002 12.0217 9.03472 12.1134 9.43153 12.1134C9.7041 12.1134 9.93184 12.0752 10.1145 11.9989C10.2972 11.9226 10.4384 11.8059 10.5384 11.6488C10.6383 11.4919 10.6883 11.3234 10.6883 11.1436C10.6882 10.9452 10.6465 10.7786 10.563 10.6438Z" fill="#3B4B68"/>
<path d="M6.26941 11.5289V8.94482H5.63562V12.0577H7.84515V11.5289H6.26941Z" fill="#3B4B68"/>
<path d="M4.22045 10.4433L5.19676 8.91895H4.46244L3.84587 9.92732L3.21638 8.91895H2.47568L3.44757 10.4197L2.375 12.0575H3.135L3.83299 10.972L4.52875 12.0575H5.29306L4.22045 10.4433Z" fill="#3B4B68"/>
</svg>
