<svg width="39" height="39" viewBox="0 0 39 39" fill="none" xmlns="http://www.w3.org/2000/svg">
    <path fill-rule="evenodd" clip-rule="evenodd" d="M27.5 13C28.3284 13 29 12.3284 29 11.5C29 10.6716 28.3284 10 27.5 10C26.6716 10 26 10.6716 26 11.5C26 12.3284 26.6716 13 27.5 13ZM27.5 14C28.8807 14 30 12.8807 30 11.5C30 10.1193 28.8807 9 27.5 9C26.1193 9 25 10.1193 25 11.5C25 12.8807 26.1193 14 27.5 14Z" fill="#8E9AAC"/>
    <path fill-rule="evenodd" clip-rule="evenodd" d="M10.5 30C11.3284 30 12 29.3284 12 28.5C12 27.6716 11.3284 27 10.5 27C9.67157 27 9 27.6716 9 28.5C9 29.3284 9.67157 30 10.5 30ZM10.5 31C11.8807 31 13 29.8807 13 28.5C13 27.1193 11.8807 26 10.5 26C9.11929 26 8 27.1193 8 28.5C8 29.8807 9.11929 31 10.5 31Z" fill="#8E9AAC"/>
    <path fill-rule="evenodd" clip-rule="evenodd" d="M21 13L25.5 13C25.7761 13 26 13.2239 26 13.5L26 18C26 18.2762 25.7761 18.5 25.5 18.5C25.2239 18.5 25 18.2762 25 18L25 14.7071L12.3536 27.3536L11.6465 26.6465L24.2929 14L21 14C20.7239 14 20.5 13.7762 20.5 13.5C20.5 13.2239 20.7239 13 21 13Z" fill="#8E9AAC"/>
</svg>
