<svg width="24" height="19" viewBox="0 0 24 19" fill="none" xmlns="http://www.w3.org/2000/svg">
<path fill-rule="evenodd" clip-rule="evenodd" d="M21.6915 19H2.30891C1.03362 19 0 17.9367 0 16.6247V2.3753C0 1.06334 1.03362 0 2.30891 0H21.6911C22.9664 0 24 1.06334 24 2.3753V16.6247C24.0004 17.9367 22.9664 19 21.6915 19ZM2.75915 15.2047C2.75915 15.7296 3.17283 16.1548 3.68272 16.1548H20.3188C20.8291 16.1548 21.2424 15.7292 21.2424 15.2047V6.78464L12.6182 12.1611C12.4354 12.2676 12.2361 12.3135 12.0387 12.3143C12.0214 12.3159 12.004 12.3151 11.9867 12.3155C11.9694 12.3147 11.9521 12.3155 11.9348 12.3143C11.7377 12.3131 11.5384 12.2672 11.3556 12.1611L2.75915 6.80206V15.2047ZM20.3192 2.86144H3.6831C3.27673 2.86144 2.9354 3.13341 2.81187 3.50871C2.83919 3.52177 2.86767 3.53048 2.89422 3.54592L11.9871 9.21457L21.08 3.54592C21.1146 3.52573 21.1512 3.51346 21.187 3.49723C21.0604 3.12787 20.7213 2.86144 20.3192 2.86144Z" fill="#3498DB"/>
</svg>
