<svg width="39" height="39" viewBox="0 0 39 39" fill="none" xmlns="http://www.w3.org/2000/svg">

<g clip-path="url(#clip0)">
<path d="M25.0598 13.0017H22.79V11.5268C22.79 11.2299 22.5505 11 22.2537 11C22.2248 11 22.2056 11.0096 22.1963 11.0192C22.1866 11.0096 22.1674 11 22.1578 11H16.8232H16.785H16.7466C16.4497 11 16.2198 11.2299 16.2198 11.5268V13.0018H13.9404C13.289 13.0018 12.7815 13.5093 12.7815 14.1607V15.0035V16.057H13.7872V26.8507C13.7872 27.5021 14.2851 28 14.9365 28H24.0638C24.7151 28 25.2227 27.5021 25.2227 26.8507V16.057H26.2187V15.0035V14.1607C26.2187 13.5093 25.711 13.0017 25.0598 13.0017ZM17.2733 12.0535H21.7269V13.0017H17.2733V12.0535ZM24.1596 26.8507C24.1596 26.9179 24.1308 26.9465 24.0638 26.9465H14.9365C14.8695 26.9465 14.8407 26.9179 14.8407 26.8507V16.057H24.1596V26.8507ZM25.1557 15.0035H13.8446V14.1607C13.8446 14.0936 13.8734 14.0552 13.9404 14.0552H25.0598C25.1269 14.0552 25.1557 14.0936 25.1557 14.1607V15.0035Z" fill="#8E9AAC"/>
<path d="M22.493 17.2925H21.4299V26.0079H22.493V17.2925Z" fill="#8E9AAC"/>
<path d="M20.0414 17.2925H18.9783V26.0079H20.0414V17.2925Z" fill="#8E9AAC"/>
<path d="M17.5894 17.2925H16.5264V26.0079H17.5894V17.2925Z" fill="#8E9AAC"/>
</g>
<defs>
<clipPath id="clip0">
<rect width="17" height="17" fill="white" transform="translate(11 11)"/>
</clipPath>
</defs>
</svg>
