<svg width="39" height="39" viewBox="0 0 39 39" fill="none" xmlns="http://www.w3.org/2000/svg">
    <path fill-rule="evenodd" clip-rule="evenodd" d="M19.5 21C20.3284 21 21 20.3284 21 19.5C21 18.6716 20.3284 18 19.5 18C18.6716 18 18 18.6716 18 19.5C18 20.3284 18.6716 21 19.5 21ZM19.5 22C20.8807 22 22 20.8807 22 19.5C22 18.1193 20.8807 17 19.5 17C18.1193 17 17 18.1193 17 19.5C17 20.8807 18.1193 22 19.5 22Z" fill="#8E9AAC"/>
    <path d="M21 19.5C21 19.2239 21.2239 19 21.5 19H29.5C29.7761 19 30 19.2239 30 19.5C30 19.7761 29.7761 20 29.5 20H21.5C21.2239 20 21 19.7761 21 19.5Z" fill="#8E9AAC"/>
    <path d="M9 19.5C9 19.2239 9.22386 19 9.5 19H17.5C17.7761 19 18 19.2239 18 19.5C18 19.7761 17.7761 20 17.5 20H9.5C9.22386 20 9 19.7761 9 19.5Z" fill="#8E9AAC"/>
</svg>
