<svg width="84" height="93" viewBox="0 0 84 93" version="1.1" xmlns="http://www.w3.org/2000/svg" xmlns:xlink="http://www.w3.org/1999/xlink">
<title>reload</title>
<desc>Created using Figma</desc>
<g id="Canvas" transform="translate(-4748 -35936)">
<g id="reload">
<g id="Group">
<g id="Vector">
<use xlink:href="#path0_fill" transform="translate(4748 35936)" fill="#FFFFFF"/>
</g>
</g>
</g>
</g>
<defs>
<path id="path0_fill" d="M 66.2021 16.7524C 64.4801 15.5124 62.0891 15.9004 60.8531 17.6184C 59.6111 19.3344 60.0001 21.7314 61.7181 22.9684C 75.3311 32.7864 79.7391 50.8254 72.2001 65.8584C 68.1181 73.9964 61.1121 80.0604 52.4741 82.9244C 43.8381 85.7954 34.5971 85.1244 26.4611 81.0454C 18.3271 76.9624 12.2641 69.9574 9.39507 61.3234C 6.52907 52.6814 7.19807 43.4464 11.2811 35.3094C 16.2391 25.4194 25.7391 18.5304 36.6941 16.8804C 36.7681 16.8724 36.8311 16.8444 36.9051 16.8274L 37.0621 24.3984C 37.0831 25.2374 37.6041 25.9834 38.3831 26.2874C 39.1651 26.5924 40.0551 26.3974 40.6331 25.7914L 51.5371 14.4124C 52.3311 13.5844 52.3011 12.2704 51.4751 11.4794L 40.0961 0.576441C 39.4901 -0.00555915 38.5971 -0.162559 37.8291 0.177441C 37.5781 0.285441 37.3531 0.446441 37.1671 0.639441C 36.7951 1.02844 36.5821 1.55844 36.5881 2.11844L 36.7391 9.33044C 36.3541 9.26744 35.9591 9.24344 35.5511 9.30344C 22.1331 11.3244 10.4991 19.7634 4.42607 31.8744C -5.89493 52.4504 2.45407 77.5834 23.0281 87.9004C 29.0171 90.9054 35.3901 92.3294 41.6741 92.3294C 56.9801 92.3294 71.7391 83.8904 79.0561 69.3014C 88.2921 50.8834 82.8881 28.7814 66.2021 16.7524Z"/>
</defs>
</svg>
