<svg width="18" height="19" viewBox="0 0 18 19" fill="none" xmlns="http://www.w3.org/2000/svg">
<path d="M17.384 5.14176L12.7982 0.111996C12.7329 0.0404492 12.6429 0 12.5488 0H5.71406C4.94917 0 4.32687 0.656613 4.32687 1.46367V6.57693H1.55701C0.984739 6.57693 0.519165 7.06822 0.519165 7.67214V13.1548C0.519165 13.7587 0.984739 14.25 1.55701 14.25H4.32687V17.5389C4.32687 18.3445 4.94917 19 5.71406 19H16.0935C16.8584 19 17.4807 18.3449 17.4807 17.5397V5.39515C17.4807 5.30067 17.446 5.20986 17.384 5.14176ZM12.6346 0.986404L16.3991 5.11538H12.6346V0.986404ZM1.55701 13.5192C1.36647 13.5192 1.2115 13.3558 1.2115 13.1548V7.67214C1.2115 7.47119 1.3665 7.30769 1.55701 7.30769H10.9044C11.0949 7.30769 11.2499 7.47119 11.2499 7.67214V13.1548C11.2499 13.3558 11.0949 13.5192 10.9044 13.5192H1.55701ZM16.7884 17.5397C16.7884 17.942 16.4767 18.2692 16.0935 18.2692H5.71406C5.3309 18.2692 5.01916 17.9416 5.01916 17.5389V14.25H10.9044C11.4767 14.25 11.9422 13.7587 11.9422 13.1548V7.67214C11.9422 7.06822 11.4767 6.57693 10.9044 6.57693H5.01916V1.46367C5.01916 1.05951 5.3309 0.730758 5.71406 0.730758H11.9422V5.48076C11.9422 5.68256 12.0972 5.84614 12.2884 5.84614H16.7884V17.5397Z" fill="#3B4B68"/>
<path d="M4.59937 9.77632C4.53447 9.57582 4.4399 9.40638 4.31545 9.26789C4.1911 9.12943 4.04165 9.03313 3.8672 8.97888C3.73741 8.93884 3.54883 8.91895 3.30133 8.91895H2.2041V12.0575H3.33378C3.55558 12.0575 3.73273 12.0354 3.8652 11.9911C4.04235 11.9312 4.18298 11.8477 4.28707 11.7406C4.42503 11.5993 4.53113 11.4145 4.60555 11.1861C4.66638 10.9992 4.69675 10.7766 4.69675 10.5181C4.69671 10.2242 4.66427 9.9769 4.59937 9.77632ZM4.01521 11.0652C3.97471 11.2058 3.92226 11.3067 3.85806 11.3681C3.79383 11.4295 3.71301 11.4731 3.61566 11.4987C3.54134 11.5187 3.42026 11.5287 3.25264 11.5287H2.80439V9.4498H3.07411C3.31894 9.4498 3.48319 9.45978 3.56704 9.47978C3.67929 9.50554 3.77189 9.55478 3.84491 9.62748C3.91786 9.70029 3.97471 9.80167 4.01521 9.93159C4.05578 10.0614 4.07614 10.2476 4.07614 10.4903C4.07617 10.733 4.05582 10.9246 4.01521 11.0652Z" fill="#3B4B68"/>
<path d="M10.3394 10.9038C10.2893 11.1337 10.2068 11.3021 10.0919 11.4091C9.97698 11.5161 9.83973 11.5697 9.68016 11.5697C9.46381 11.5697 9.28806 11.4855 9.15288 11.3171C9.01764 11.1487 8.95003 10.866 8.95003 10.4693C8.95003 10.0954 9.01866 9.82489 9.15591 9.65793C9.29316 9.49087 9.47196 9.40733 9.69236 9.40733C9.85193 9.40733 9.98746 9.45446 10.099 9.54864C10.2106 9.6429 10.284 9.77134 10.3191 9.93402L10.9134 9.7841C10.8458 9.53291 10.7444 9.34028 10.6092 9.20609C10.382 8.9792 10.0866 8.86572 9.72287 8.86572C9.30634 8.86572 8.97032 9.01023 8.7148 9.29927C8.45925 9.58831 8.33142 9.99396 8.33142 10.5163C8.33142 11.0102 8.45855 11.3995 8.7128 11.6842C8.96694 11.9689 9.29147 12.1113 9.68635 12.1113C10.0054 12.1113 10.2687 12.0282 10.4763 11.8619C10.6839 11.6956 10.8323 11.4413 10.9215 11.0987L10.3394 10.9038Z" fill="#3B4B68"/>
<path d="M7.57392 9.29608C7.31085 9.00915 6.96038 8.86572 6.52222 8.86572C6.28017 8.86572 6.0666 8.9071 5.88133 8.98985C5.74207 9.05123 5.61393 9.14542 5.497 9.27248C5.38 9.39943 5.28775 9.54293 5.22007 9.7028C5.12947 9.91974 5.08423 10.188 5.08423 10.5077C5.08423 11.0073 5.21473 11.3995 5.47562 11.6842C5.73662 11.9689 6.08826 12.1113 6.53038 12.1113C6.96713 12.1113 7.31598 11.9683 7.57698 11.6821C7.83788 11.3959 7.96838 10.9994 7.96838 10.4927C7.96838 9.98178 7.83689 9.5829 7.57392 9.29608ZM7.11753 11.2968C6.9641 11.4787 6.76765 11.5697 6.52827 11.5697C6.289 11.5697 6.0916 11.478 5.9361 11.2946C5.7806 11.1112 5.7028 10.8418 5.7028 10.4864C5.7028 10.1253 5.77853 9.8552 5.92995 9.67608C6.0814 9.49695 6.28088 9.40733 6.52827 9.40733C6.77577 9.40733 6.97419 9.49584 7.12357 9.67289C7.27302 9.84982 7.34769 10.1182 7.34769 10.4778C7.34769 10.8418 7.27102 11.1148 7.11753 11.2968Z" fill="#3B4B68"/>
</svg>
