<svg width="17" height="17" viewBox="0 0 17 17" fill="none" xmlns="http://www.w3.org/2000/svg">
<path d="M14.5135 2.48736C11.1975 -0.828986 5.8023 -0.828985 2.48689 2.48656C-0.829175 5.8021 -0.828855 11.1974 2.48721 14.5135C5.8023 17.8289 11.1975 17.8289 14.5132 14.5129C17.829 11.1974 17.8288 5.80242 14.5135 2.48736ZM13.5856 13.5856C10.7815 16.3897 6.21874 16.39 3.41448 13.586C0.60974 10.7814 0.61006 6.2182 3.41448 3.41414C6.21858 0.610233 10.7812 0.609913 13.5859 3.41446C16.39 6.21852 16.3897 10.7817 13.5856 13.5856ZM5.32801 6.19849C5.32801 5.64966 5.77313 5.20455 6.32196 5.20455C6.87063 5.20455 7.31575 5.6495 7.31575 6.19849C7.31575 6.74763 6.87063 7.19259 6.32196 7.19259C5.77313 7.19259 5.32801 6.74763 5.32801 6.19849ZM9.83486 6.19849C9.83486 5.64966 10.2803 5.20455 10.8291 5.20455C11.3778 5.20455 11.8229 5.6495 11.8229 6.19849C11.8229 6.74763 11.378 7.19259 10.8291 7.19259C10.2803 7.19259 9.83486 6.74763 9.83486 6.19849ZM12.1847 10.2693C11.5687 11.6938 10.1261 12.6141 8.50975 12.6141C6.85861 12.6141 5.40751 11.6891 4.81284 10.2574C4.7109 10.0124 4.82711 9.7309 5.07251 9.62895C5.13278 9.60411 5.19529 9.59225 5.25684 9.59225C5.44534 9.59225 5.62422 9.70365 5.701 9.88878C6.14613 10.9605 7.24859 11.6526 8.50975 11.6526C9.74237 11.6526 10.8384 10.96 11.302 9.88766C11.4075 9.64386 11.6905 9.5315 11.9342 9.63713C12.1778 9.74276 12.2902 10.0257 12.1847 10.2693Z" fill="#8E9AAC"/>
</svg>
