<svg width="14" height="10" viewBox="0 0 14 10" version="1.1" xmlns="http://www.w3.org/2000/svg" xmlns:xlink="http://www.w3.org/1999/xlink">
<title>icon_check</title>
<desc>Created using Figma</desc>
<g id="Canvas" transform="translate(-764 6789)">
<g id="icon_check">
<use xlink:href="#path0_fill" transform="translate(764 -6789)" fill="#3B4B68"/>
</g>
</g>
<defs>
<path id="path0_fill" d="M 0.161538 5.5C 0.0538462 5.4 0 5.25 0 5.15C 0 5.05 0.0538462 4.9 0.161538 4.8L 0.915385 4.1C 1.13077 3.9 1.45385 3.9 1.66923 4.1L 1.72308 4.15L 4.68462 7.1C 4.79231 7.2 4.95385 7.2 5.06154 7.1L 12.2769 0.15L 12.3308 0.15C 12.5462 -0.05 12.8692 -0.05 13.0846 0.15L 13.8385 0.85C 14.0538 1.05 14.0538 1.35 13.8385 1.55L 5.22308 9.85C 5.11538 9.95 5.00769 10 4.84615 10C 4.68462 10 4.57692 9.95 4.46923 9.85L 0.269231 5.65L 0.161538 5.5Z"/>
</defs>
</svg>
