<svg width="39" height="39" viewBox="0 0 39 39" fill="none" xmlns="http://www.w3.org/2000/svg">
    <path fill-rule="evenodd" clip-rule="evenodd" d="M5.5 28C6.32843 28 7 27.3284 7 26.5C7 25.6716 6.32843 25 5.5 25C4.67157 25 4 25.6716 4 26.5C4 27.3284 4.67157 28 5.5 28ZM5.5 29C6.88071 29 8 27.8807 8 26.5C8 25.1193 6.88071 24 5.5 24C4.11929 24 3 25.1193 3 26.5C3 27.8807 4.11929 29 5.5 29Z" fill="#8E9AAC"/>
    <path fill-rule="evenodd" clip-rule="evenodd" d="M10.5 17C11.3284 17 12 16.3284 12 15.5C12 14.6716 11.3284 14 10.5 14C9.67157 14 9 14.6716 9 15.5C9 16.3284 9.67157 17 10.5 17ZM10.5 18C11.8807 18 13 16.8807 13 15.5C13 14.1193 11.8807 13 10.5 13C9.11929 13 8 14.1193 8 15.5C8 16.8807 9.11929 18 10.5 18Z" fill="#8E9AAC"/>
    <path fill-rule="evenodd" clip-rule="evenodd" d="M15.5 28C16.3284 28 17 27.3284 17 26.5C17 25.6716 16.3284 25 15.5 25C14.6716 25 14 25.6716 14 26.5C14 27.3284 14.6716 28 15.5 28ZM15.5 29C16.8807 29 18 27.8807 18 26.5C18 25.1193 16.8807 24 15.5 24C14.1193 24 13 25.1193 13 26.5C13 27.8807 14.1193 29 15.5 29Z" fill="#8E9AAC"/>
    <path fill-rule="evenodd" clip-rule="evenodd" d="M20.5 17C21.3284 17 22 16.3284 22 15.5C22 14.6716 21.3284 14 20.5 14C19.6716 14 19 14.6716 19 15.5C19 16.3284 19.6716 17 20.5 17ZM20.5 18C21.8807 18 23 16.8807 23 15.5C23 14.1193 21.8807 13 20.5 13C19.1193 13 18 14.1193 18 15.5C18 16.8807 19.1193 18 20.5 18Z" fill="#8E9AAC"/>
    <path fill-rule="evenodd" clip-rule="evenodd" d="M25.5 28C26.3284 28 27 27.3284 27 26.5C27 25.6716 26.3284 25 25.5 25C24.6716 25 24 25.6716 24 26.5C24 27.3284 24.6716 28 25.5 28ZM25.5 29C26.8807 29 28 27.8807 28 26.5C28 25.1193 26.8807 24 25.5 24C24.1193 24 23 25.1193 23 26.5C23 27.8807 24.1193 29 25.5 29Z" fill="#8E9AAC"/>
    <path fill-rule="evenodd" clip-rule="evenodd" d="M30.5 17C31.3284 17 32 16.3284 32 15.5C32 14.6716 31.3284 14 30.5 14C29.6716 14 29 14.6716 29 15.5C29 16.3284 29.6716 17 30.5 17ZM30.5 18C31.8807 18 33 16.8807 33 15.5C33 14.1193 31.8807 13 30.5 13C29.1193 13 28 14.1193 28 15.5C28 16.8807 29.1193 18 30.5 18Z" fill="#8E9AAC"/>
    <path d="M6.5 24.5L9.5 17.5M16.5 24.5L19.5 17.5M26.5 24.5L29.5 17.5" stroke="#8E9AAC"/>
    <path d="M11.5 17.5001L14.5 24.5001M21.5 17.5L24.5 24.5" stroke="#8E9AAC"/>
    <path d="M7.5 10.0278L8.12402 7H9.3501L8.13721 11.7549H7.07373L6.17285 8.76221L5.27197 11.7549H4.21289L3 7H4.22607L4.8457 10.0234L5.71582 7H6.63428L7.5 10.0278Z" fill="#8E9AAC"/>
    <path d="M33.6216 10.731H35.9463V11.7549H32V10.9814L34.2368 8.02832H32.0659V7H35.876V7.75146L33.6216 10.731Z" fill="#8E9AAC"/>
</svg>
