<svg width="39" height="39" viewBox="0 0 39 39" fill="none" xmlns="http://www.w3.org/2000/svg">
    <path d="M28.0787 18.1105L26.8152 17.8962C26.6836 17.4713 26.5144 17.0614 26.3076 16.6704L27.0521 15.6288C27.368 15.1851 27.3191 14.5797 26.9318 14.1962L25.8113 13.0756C25.6007 12.8651 25.3225 12.7485 25.0254 12.7485C24.7923 12.7485 24.5704 12.8199 24.3824 12.9553L23.3371 13.6998C22.931 13.4855 22.5061 13.3088 22.0662 13.1771L21.8556 11.9288C21.7653 11.3911 21.3028 11 20.7576 11H19.1746C18.6294 11 18.1669 11.3911 18.0766 11.9288L17.8585 13.2072C17.4374 13.3388 17.0275 13.5118 16.6365 13.7224L15.6024 12.9779C15.4144 12.8425 15.1888 12.771 14.9557 12.771C14.6586 12.771 14.3766 12.8876 14.1698 13.0982L13.0455 14.2187C12.662 14.6023 12.6093 15.2076 12.9252 15.6513L13.6772 16.708C13.4704 17.1028 13.305 17.5126 13.1771 17.9375L11.9288 18.1481C11.3911 18.2384 11 18.7009 11 19.2461V20.8291C11 21.3743 11.3911 21.8369 11.9288 21.9271L13.2072 22.1452C13.3388 22.5663 13.5118 22.9762 13.7224 23.3672L12.9816 24.3975C12.6658 24.8412 12.7146 25.4466 13.1019 25.8302L14.2225 26.9507C14.433 27.1613 14.7113 27.2778 15.0083 27.2778C15.2415 27.2778 15.4633 27.2064 15.6513 27.071L16.7079 26.319C17.0877 26.5183 17.4863 26.68 17.8961 26.8078L18.1067 28.0712C18.1969 28.6089 18.6594 29 19.2047 29H20.7915C21.3367 29 21.7992 28.6089 21.8894 28.0712L22.1038 26.8078C22.5287 26.6762 22.9385 26.507 23.3296 26.3002L24.3711 27.0447C24.5591 27.1801 24.7848 27.2515 25.0179 27.2515C25.3149 27.2515 25.5932 27.1349 25.8038 26.9244L26.9243 25.8038C27.3078 25.4203 27.3605 24.8149 27.0446 24.3712L26.3001 23.3259C26.5069 22.9311 26.6799 22.5212 26.8077 22.1001L28.0711 21.8895C28.6088 21.7992 28.9999 21.3367 28.9999 20.7915V19.2085C29.0074 18.6633 28.6164 18.2008 28.0787 18.1105ZM27.9922 20.7915C27.9922 20.8404 27.9583 20.8818 27.9094 20.8893L26.3302 21.1525C26.1309 21.1863 25.973 21.333 25.9241 21.5248C25.7812 22.0775 25.5631 22.6077 25.2698 23.1003C25.1683 23.2732 25.1758 23.4876 25.2924 23.653L26.2211 24.9616C26.2475 24.9992 26.2437 25.0556 26.2099 25.0894L25.0893 26.2099C25.063 26.2363 25.0367 26.24 25.0179 26.24C24.9953 26.24 24.9765 26.2325 24.9615 26.2212L23.6567 25.2925C23.495 25.1759 23.2769 25.1684 23.104 25.2699C22.6114 25.5632 22.0812 25.7813 21.5285 25.9242C21.3329 25.9731 21.1863 26.1347 21.1562 26.3303L20.8892 27.9095C20.8817 27.9584 20.8403 27.9923 20.7915 27.9923H19.2084C19.1596 27.9923 19.1182 27.9584 19.1107 27.9095L18.8475 26.3303C18.8136 26.131 18.667 25.9731 18.4752 25.9242C17.9375 25.785 17.4186 25.5707 16.9335 25.2925C16.8546 25.2473 16.7643 25.2248 16.6778 25.2248C16.5763 25.2248 16.471 25.2549 16.3846 25.3188L15.0685 26.2551C15.0497 26.2663 15.0309 26.2739 15.0121 26.2739C14.9971 26.2739 14.967 26.2701 14.9406 26.2438L13.8201 25.1233C13.7863 25.0894 13.7825 25.0368 13.8088 24.9954L14.7338 23.6981C14.8504 23.5327 14.8579 23.3146 14.7564 23.1416C14.4631 22.6528 14.2375 22.1226 14.0946 21.5699C14.042 21.3781 13.884 21.2315 13.6885 21.1976L12.098 20.9269C12.0491 20.9194 12.0152 20.878 12.0152 20.8291V19.2461C12.0152 19.1972 12.0491 19.1558 12.098 19.1483L13.666 18.8851C13.8652 18.8513 14.0269 18.7046 14.0758 18.5091C14.2149 17.9563 14.4293 17.4224 14.7188 16.9298C14.8203 16.7568 14.809 16.5425 14.6925 16.3808L13.7562 15.0648C13.7299 15.0272 13.7336 14.9708 13.7675 14.9369L14.888 13.8164C14.9143 13.7901 14.9406 13.7863 14.9595 13.7863C14.982 13.7863 15.0008 13.7938 15.0159 13.8051L16.3131 14.7301C16.4786 14.8467 16.6966 14.8542 16.8696 14.7527C17.3584 14.4594 17.8886 14.2338 18.4414 14.0909C18.6331 14.0382 18.7798 13.8803 18.8136 13.6848L19.0843 12.0942C19.0919 12.0453 19.1332 12.0115 19.1821 12.0115H20.7651C20.814 12.0115 20.8554 12.0453 20.8629 12.0942L21.1261 13.6622C21.16 13.8615 21.3066 14.0232 21.5021 14.0721C22.0699 14.215 22.6114 14.4368 23.1152 14.7339C23.2882 14.8354 23.5025 14.8279 23.668 14.7113L24.9652 13.7788C24.984 13.7675 25.0028 13.76 25.0216 13.76C25.0367 13.76 25.0668 13.7637 25.0931 13.7901L26.2136 14.9106C26.2475 14.9444 26.2512 14.9971 26.2249 15.0384L25.2961 16.3432C25.1796 16.5049 25.172 16.723 25.2736 16.896C25.5669 17.3886 25.785 17.9187 25.9278 18.4715C25.9767 18.667 26.1384 18.8137 26.3339 18.8437L27.9132 19.1107C27.9621 19.1182 27.9959 19.1596 27.9959 19.2085V20.7915H27.9922Z" fill="#8E9AAC"/>
    <path d="M20.0018 16.1139C17.8585 16.1139 16.1176 17.8548 16.1176 19.9981C16.1176 22.1414 17.8585 23.8824 20.0018 23.8824C22.1451 23.8824 23.8861 22.1414 23.8861 19.9981C23.8861 17.8548 22.1451 16.1139 20.0018 16.1139ZM20.0018 22.8671C18.4188 22.8671 17.1328 21.5812 17.1328 19.9981C17.1328 18.4151 18.4188 17.1291 20.0018 17.1291C21.5849 17.1291 22.8708 18.4151 22.8708 19.9981C22.8708 21.5812 21.5849 22.8671 20.0018 22.8671Z" fill="#8E9AAC"/>
</svg>
