<svg width="39" height="39" viewBox="0 0 39 39" fill="none" xmlns="http://www.w3.org/2000/svg">
    <path d="M11 14.5C11 14.2239 11.2239 14 11.5 14C11.7761 14 12 14.2239 12 14.5V18.5C12 18.7761 11.7761 19 11.5 19C11.2239 19 11 18.7761 11 18.5V14.5Z" fill="#8E9AAC"/>
    <path d="M11 26.5C11 26.2239 11.2239 26 11.5 26C11.7761 26 12 26.2239 12 26.5V28.5C12 28.7761 11.7761 29 11.5 29C11.2239 29 11 28.7761 11 28.5V26.5Z" fill="#8E9AAC"/>
    <path fill-rule="evenodd" clip-rule="evenodd" d="M12 19H11L11 26H12V19ZM11 18C10.4477 18 10 18.4477 10 19V26C10 26.5523 10.4477 27 11 27H12C12.5523 27 13 26.5523 13 26V19C13 18.4477 12.5523 18 12 18H11Z" fill="#8E9AAC"/>
    <path d="M16 11.5C16 11.2239 16.2239 11 16.5 11C16.7761 11 17 11.2239 17 11.5V14.5C17 14.7761 16.7761 15 16.5 15C16.2239 15 16 14.7761 16 14.5V11.5Z" fill="#8E9AAC"/>
    <path d="M16 25.5C16 25.2239 16.2239 25 16.5 25C16.7761 25 17 25.2239 17 25.5V27.5C17 27.7761 16.7761 28 16.5 28C16.2239 28 16 27.7761 16 27.5V25.5Z" fill="#8E9AAC"/>
    <path fill-rule="evenodd" clip-rule="evenodd" d="M17 15H16L16 25H17V15ZM16 14C15.4477 14 15 14.4477 15 15V25C15 25.5523 15.4477 26 16 26H17C17.5523 26 18 25.5523 18 25V15C18 14.4477 17.5523 14 17 14H16Z" fill="#8E9AAC"/>
    <path fill-rule="evenodd" clip-rule="evenodd" d="M26 10.5C26.2761 10.5 26.5 10.7239 26.5 11V19.5C26.5 19.7761 26.2761 20 26 20C25.7239 20 25.5 19.7761 25.5 19.5V11C25.5 10.7239 25.7239 10.5 26 10.5Z" fill="#8E9AAC"/>
    <path fill-rule="evenodd" clip-rule="evenodd" d="M23.6464 17.1464C23.8417 16.9512 24.1583 16.9512 24.3536 17.1464L26.3536 19.1464C26.5488 19.3417 26.5488 19.6583 26.3536 19.8536C26.1583 20.0488 25.8417 20.0488 25.6464 19.8536L23.6464 17.8536C23.4512 17.6583 23.4512 17.3417 23.6464 17.1464Z" fill="#8E9AAC"/>
    <path fill-rule="evenodd" clip-rule="evenodd" d="M28.3536 17.1464C28.5488 17.3417 28.5488 17.6583 28.3536 17.8536L26.3536 19.8536C26.1583 20.0488 25.8417 20.0488 25.6464 19.8536C25.4512 19.6583 25.4512 19.3417 25.6464 19.1464L27.6464 17.1464C27.8417 16.9512 28.1583 16.9512 28.3536 17.1464Z" fill="#8E9AAC"/>
    <path d="M27.5 23C27.5 23.8284 26.8284 24.5 26 24.5C25.1716 24.5 24.5 23.8284 24.5 23C24.5 22.1716 25.1716 21.5 26 21.5C26.8284 21.5 27.5 22.1716 27.5 23Z" fill="#8E9AAC"/>
</svg>
