<svg width="39" height="39" viewBox="0 0 39 39" fill="none" xmlns="http://www.w3.org/2000/svg">
    <path fill-rule="evenodd" clip-rule="evenodd" d="M24.6707 25.3762L12.6707 14.8762L13.3293 14.1237L25.3293 24.6237L24.6707 25.3762Z" fill="#8E9AAC"/>
    <path fill-rule="evenodd" clip-rule="evenodd" d="M11.5 15C12.3284 15 13 14.3284 13 13.5C13 12.6716 12.3284 12 11.5 12C10.6716 12 10 12.6716 10 13.5C10 14.3284 10.6716 15 11.5 15ZM11.5 16C12.8807 16 14 14.8807 14 13.5C14 12.1193 12.8807 11 11.5 11C10.1193 11 9 12.1193 9 13.5C9 14.8807 10.1193 16 11.5 16Z" fill="#8E9AAC"/>
    <path fill-rule="evenodd" clip-rule="evenodd" d="M11.5 28C12.3284 28 13 27.3284 13 26.5C13 25.6716 12.3284 25 11.5 25C10.6716 25 10 25.6716 10 26.5C10 27.3284 10.6716 28 11.5 28ZM11.5 29C12.8807 29 14 27.8807 14 26.5C14 25.1193 12.8807 24 11.5 24C10.1193 24 9 25.1193 9 26.5C9 27.8807 10.1193 29 11.5 29Z" fill="#8E9AAC"/>
    <path fill-rule="evenodd" clip-rule="evenodd" d="M26.5 28C27.3284 28 28 27.3284 28 26.5C28 25.6716 27.3284 25 26.5 25C25.6716 25 25 25.6716 25 26.5C25 27.3284 25.6716 28 26.5 28ZM26.5 29C27.8807 29 29 27.8807 29 26.5C29 25.1193 27.8807 24 26.5 24C25.1193 24 24 25.1193 24 26.5C24 27.8807 25.1193 29 26.5 29Z" fill="#8E9AAC"/>
    <path d="M13 26.5C13 26.2239 13.2239 26 13.5 26H24.5C24.7761 26 25 26.2239 25 26.5C25 26.7761 24.7761 27 24.5 27H13.5C13.2239 27 13 26.7761 13 26.5Z" fill="#8E9AAC"/>
    <path d="M11 15.5C11 15.2239 11.2239 15 11.5 15C11.7761 15 12 15.2239 12 15.5V24.5C12 24.7761 11.7761 25 11.5 25C11.2239 25 11 24.7761 11 24.5V15.5Z" fill="#8E9AAC"/>
</svg>
