<svg width="20" height="20" viewBox="0 0 20 20" fill="none" xmlns="http://www.w3.org/2000/svg">
<path d="M10 15.7627C10.5393 15.7627 10.9766 15.3255 10.9766 14.7861C10.9766 14.2468 10.5393 13.8096 10 13.8096C9.46066 13.8096 9.02344 14.2468 9.02344 14.7861C9.02344 15.3255 9.46066 15.7627 10 15.7627Z" fill="#3498DB"/>
<path d="M10 0C4.47328 0 0 4.47254 0 10C0 15.5267 4.47254 20 10 20C15.5267 20 20 15.5275 20 10C20 4.47328 15.5275 0 10 0ZM10 18.4375C5.33684 18.4375 1.5625 14.6638 1.5625 10C1.5625 5.33684 5.33621 1.5625 10 1.5625C14.6632 1.5625 18.4375 5.33621 18.4375 10C18.4375 14.6632 14.6638 18.4375 10 18.4375Z" fill="#3498DB"/>
<path d="M10 5.01855C8.27688 5.01855 6.875 6.42043 6.875 8.14355C6.875 8.57504 7.22477 8.9248 7.65625 8.9248C8.08773 8.9248 8.4375 8.57504 8.4375 8.14355C8.4375 7.28199 9.13844 6.58105 10 6.58105C10.8616 6.58105 11.5625 7.28199 11.5625 8.14355C11.5625 9.00511 10.8616 9.70605 10 9.70605C9.56852 9.70605 9.21875 10.0558 9.21875 10.4873V12.4404C9.21875 12.8719 9.56852 13.2217 10 13.2217C10.4315 13.2217 10.7812 12.8719 10.7812 12.4404V11.1697C12.1276 10.8219 13.125 9.59703 13.125 8.14355C13.125 6.42043 11.7231 5.01855 10 5.01855Z" fill="#3498DB"/>
</svg>
