<svg width="39" height="39" viewBox="0 0 39 39" fill="none" xmlns="http://www.w3.org/2000/svg">
    <path fill-rule="evenodd" clip-rule="evenodd" d="M8.5 28C9.32843 28 10 27.3284 10 26.5C10 25.6716 9.32843 25 8.5 25C7.67157 25 7 25.6716 7 26.5C7 27.3284 7.67157 28 8.5 28ZM8.5 29C9.88071 29 11 27.8807 11 26.5C11 25.1193 9.88071 24 8.5 24C7.11929 24 6 25.1193 6 26.5C6 27.8807 7.11929 29 8.5 29Z" fill="#8E9AAC"/>
    <path fill-rule="evenodd" clip-rule="evenodd" d="M8.5 13C9.32843 13 10 12.3284 10 11.5C10 10.6716 9.32843 10 8.5 10C7.67157 10 7 10.6716 7 11.5C7 12.3284 7.67157 13 8.5 13ZM8.5 14C9.88071 14 11 12.8807 11 11.5C11 10.1193 9.88071 9 8.5 9C7.11929 9 6 10.1193 6 11.5C6 12.8807 7.11929 14 8.5 14Z" fill="#8E9AAC"/>
    <path d="M10 26.5C10 26.2239 10.2239 26 10.5 26H31.5C31.7761 26 32 26.2239 32 26.5C32 26.7761 31.7761 27 31.5 27H10.5C10.2239 27 10 26.7761 10 26.5Z" fill="#8E9AAC"/>
    <path fill-rule="evenodd" clip-rule="evenodd" d="M8.5 22C9.32843 22 10 21.3284 10 20.5C10 19.6716 9.32843 19 8.5 19C7.67157 19 7 19.6716 7 20.5C7 21.3284 7.67157 22 8.5 22ZM8.5 23C9.88071 23 11 21.8807 11 20.5C11 19.1193 9.88071 18 8.5 18C7.11929 18 6 19.1193 6 20.5C6 21.8807 7.11929 23 8.5 23Z" fill="#8E9AAC"/>
    <path fill-rule="evenodd" clip-rule="evenodd" d="M29.5 22C30.3284 22 31 21.3284 31 20.5C31 19.6716 30.3284 19 29.5 19C28.6716 19 28 19.6716 28 20.5C28 21.3284 28.6716 22 29.5 22ZM29.5 23C30.8807 23 32 21.8807 32 20.5C32 19.1193 30.8807 18 29.5 18C28.1193 18 27 19.1193 27 20.5C27 21.8807 28.1193 23 29.5 23Z" fill="#8E9AAC"/>
    <path d="M10 20.5C10 20.2239 10.2239 20 10.5 20H27.5C27.7761 20 28 20.2239 28 20.5C28 20.7761 27.7761 21 27.5 21H10.5C10.2239 21 10 20.7761 10 20.5Z" fill="#8E9AAC"/>
    <path d="M10 11.5C10 11.2239 10.2239 11 10.5 11H31.5C31.7761 11 32 11.2239 32 11.5C32 11.7761 31.7761 12 31.5 12H10.5C10.2239 12 10 11.7761 10 11.5Z" fill="#8E9AAC"/>
    <path fill-rule="evenodd" clip-rule="evenodd" d="M20.5 12.5C20.7761 12.5 21 12.7239 21 13V25C21 25.2761 20.7761 25.5 20.5 25.5C20.2239 25.5 20 25.2761 20 25V13C20 12.7239 20.2239 12.5 20.5 12.5Z" fill="#8E9AAC"/>
    <path fill-rule="evenodd" clip-rule="evenodd" d="M20.1464 12.6464C20.3417 12.4512 20.6583 12.4512 20.8536 12.6464L22.8536 14.6464C23.0488 14.8417 23.0488 15.1583 22.8536 15.3536C22.6583 15.5488 22.3417 15.5488 22.1464 15.3536L20.1464 13.3536C19.9512 13.1583 19.9512 12.8417 20.1464 12.6464Z" fill="#8E9AAC"/>
    <path fill-rule="evenodd" clip-rule="evenodd" d="M20.8536 12.6464C21.0488 12.8417 21.0488 13.1583 20.8536 13.3536L18.8536 15.3536C18.6583 15.5488 18.3417 15.5488 18.1464 15.3536C17.9512 15.1583 17.9512 14.8417 18.1464 14.6464L20.1464 12.6464C20.3417 12.4512 20.6583 12.4512 20.8536 12.6464Z" fill="#8E9AAC"/>
    <path fill-rule="evenodd" clip-rule="evenodd" d="M18.1464 22.6464C18.3417 22.4512 18.6583 22.4512 18.8536 22.6464L20.8536 24.6464C21.0488 24.8417 21.0488 25.1583 20.8536 25.3536C20.6583 25.5488 20.3417 25.5488 20.1464 25.3536L18.1464 23.3536C17.9512 23.1583 17.9512 22.8417 18.1464 22.6464Z" fill="#8E9AAC"/>
    <path fill-rule="evenodd" clip-rule="evenodd" d="M22.8536 22.6464C23.0488 22.8417 23.0488 23.1583 22.8536 23.3536L20.8536 25.3536C20.6583 25.5488 20.3417 25.5488 20.1464 25.3536C19.9512 25.1583 19.9512 24.8417 20.1464 24.6464L22.1464 22.6464C22.3417 22.4512 22.6583 22.4512 22.8536 22.6464Z" fill="#8E9AAC"/>
</svg>
