<svg width="39" height="39" viewBox="0 0 39 39" fill="none" xmlns="http://www.w3.org/2000/svg">
    <path fill-rule="evenodd" clip-rule="evenodd" d="M8.5 13C8.5 12.7239 8.72386 12.5 9 12.5H30C30.2761 12.5 30.5 12.7239 30.5 13V23C30.5 23.2761 30.2761 23.5 30 23.5H13.3L9.44118 30.7353C9.33321 30.9377 9.10132 31.0407 8.87873 30.9851C8.65615 30.9294 8.5 30.7294 8.5 30.5V13ZM9.5 13.5V28.5L12.5588 22.7647C12.6457 22.6018 12.8153 22.5 13 22.5H29.5V13.5H9.5Z" fill="#8E9AAC"/>
    <path d="M12 16.5C12 16.2239 12.2239 16 12.5 16H26.5C26.7761 16 27 16.2239 27 16.5C27 16.7761 26.7761 17 26.5 17H12.5C12.2239 17 12 16.7761 12 16.5Z" fill="#8E9AAC"/>
    <path d="M12 19.5C12 19.2239 12.2239 19 12.5 19H26.5C26.7761 19 27 19.2239 27 19.5C27 19.7761 26.7761 20 26.5 20H12.5C12.2239 20 12 19.7761 12 19.5Z" fill="#8E9AAC"/>
</svg>
