<svg width="16" height="18" viewBox="0 0 16 18" fill="none" xmlns="http://www.w3.org/2000/svg">
<path d="M3.643 18C2.66946 18 1.75418 17.6134 1.0658 16.9116C-0.355266 15.4626 -0.355266 13.1051 1.0658 11.6561L9.24345 3.31822C10.2083 2.33442 11.7784 2.33442 12.7432 3.31822C13.7081 4.30203 13.7081 5.90283 12.7432 6.88664L6.72811 13.0197C6.48913 13.2634 6.10159 13.2634 5.86257 13.0197C5.62355 12.7759 5.62355 12.3809 5.86257 12.1371L11.8777 6.00409C12.3653 5.50691 12.3653 4.69791 11.8777 4.20073C11.6414 3.95985 11.3274 3.82722 10.9933 3.82722C10.6593 3.82722 10.3452 3.95985 10.109 4.20073L1.93134 12.5386C0.98754 13.5009 0.98754 15.0668 1.93134 16.0291C2.38857 16.4952 2.99645 16.7519 3.643 16.7519C4.28955 16.7519 4.89747 16.4952 5.35466 16.0291L13.7242 7.49544C14.4024 6.80397 14.7759 5.88465 14.7759 4.90675C14.7759 3.92886 14.4024 3.00953 13.7242 2.31807C12.3242 0.890617 10.0463 0.890658 8.64635 2.31807L2.43929 8.64674C2.20031 8.89044 1.81277 8.89044 1.57375 8.64674C1.33473 8.40303 1.33473 8.00794 1.57375 7.76423L7.78081 1.43552C9.65805 -0.478507 12.7126 -0.478507 14.5898 1.43552C15.4992 2.36271 16 3.5955 16 4.90675C16 6.21801 15.4992 7.45076 14.5898 8.37799L6.2202 16.9116C5.53182 17.6135 4.61654 18 3.643 18Z" fill="#8E9AAC"/>
</svg>
