<svg width="22" height="22" viewBox="0 0 22 22" fill="none" xmlns="http://www.w3.org/2000/svg">
<path d="M11.4243 10.5443C11.1725 10.2925 10.7645 10.2925 10.5127 10.5443L7.75133 13.3057C7.49956 13.5575 7.49956 13.9655 7.75133 14.2173C8.00293 14.4689 8.41113 14.4689 8.66273 14.2173L10.3239 12.5561V17.2133C10.3239 17.5692 10.6126 17.8579 10.9684 17.8579C11.3244 17.8579 11.613 17.5692 11.613 17.2133V12.5561L13.2742 14.2171C13.5261 14.4691 13.934 14.4689 14.1857 14.2171C14.4375 13.9655 14.4375 13.5575 14.1857 13.3057L11.4243 10.5443Z" fill="#8E9AAC"/>
<path d="M13.73 7.59375H8.20703C7.8512 7.59375 7.5625 7.88228 7.5625 8.23828C7.5625 8.59412 7.8512 8.88281 8.20703 8.88281H13.73C14.0859 8.88281 14.3746 8.59412 14.3746 8.23828C14.3746 7.88228 14.086 7.59375 13.73 7.59375Z" fill="#8E9AAC"/>
<path d="M17.1822 0H7.51712C7.34625 0 7.18227 0.0679779 7.06142 0.188827L2.9193 4.33095C2.79845 4.4518 2.73047 4.61578 2.73047 4.78665V19.9748C2.73047 21.0914 3.63902 22 4.75571 22H17.1822C18.2957 22 19.2075 21.0997 19.2075 19.9748V2.02524C19.2075 0.911743 18.3073 0 17.1822 0ZM7.56294 1.51012V4.0963C7.56294 4.50232 7.23279 4.83247 6.82677 4.83247H4.24059L7.56294 1.51012ZM17.9184 19.9748C17.9184 20.3757 17.5943 20.7109 17.1822 20.7109H4.75571C4.34985 20.7109 4.01953 20.3806 4.01953 19.9748V6.1217H6.82677C7.94345 6.1217 8.85201 5.21315 8.85201 4.09647V1.28906H17.1822C17.5834 1.28906 17.9184 1.61334 17.9184 2.02524V19.9748Z" fill="#8E9AAC"/>
</svg>
