<svg width="39" height="39" viewBox="0 0 39 39" fill="none" xmlns="http://www.w3.org/2000/svg">

<path fill-rule="evenodd" clip-rule="evenodd" d="M24.5 15.5V18.875C25.4304 18.875 26.1875 19.6321 26.1875 20.5625V27.3125C26.1875 28.2429 25.4304 29 24.5 29H15.5C14.5696 29 13.8125 28.2429 13.8125 27.3125V20.5625C13.8125 19.6321 14.5696 18.875 15.5 18.875V15.5C15.5 13.0188 17.5188 11 20 11C22.4812 11 24.5 13.0188 24.5 15.5ZM20 12.125C18.1387 12.125 16.625 13.6387 16.625 15.5V18.875H23.375V15.5C23.375 13.6387 21.8613 12.125 20 12.125ZM24.5 27.875C24.8099 27.875 25.0625 27.623 25.0625 27.3125V20.5625C25.0625 20.252 24.8099 20 24.5 20H15.5C15.1901 20 14.9375 20.252 14.9375 20.5625V27.3125C14.9375 27.623 15.1901 27.875 15.5 27.875H24.5Z" fill="white"/>
</svg>
