<svg width="39" height="39" viewBox="0 0 39 39" fill="none" xmlns="http://www.w3.org/2000/svg">
<path fill-rule="evenodd" clip-rule="evenodd" d="M27.5 13C28.3284 13 29 12.3284 29 11.5C29 10.6716 28.3284 10 27.5 10C26.6716 10 26 10.6716 26 11.5C26 12.3284 26.6716 13 27.5 13ZM27.5 14C28.8807 14 30 12.8807 30 11.5C30 10.1193 28.8807 9 27.5 9C26.1193 9 25 10.1193 25 11.5C25 12.8807 26.1193 14 27.5 14Z" fill="#8E9AAC"/>
<path fill-rule="evenodd" clip-rule="evenodd" d="M10.5 30C11.3284 30 12 29.3284 12 28.5C12 27.6716 11.3284 27 10.5 27C9.67157 27 9 27.6716 9 28.5C9 29.3284 9.67157 30 10.5 30ZM10.5 31C11.8807 31 13 29.8807 13 28.5C13 27.1193 11.8807 26 10.5 26C9.11929 26 8 27.1193 8 28.5C8 29.8807 9.11929 31 10.5 31Z" fill="#8E9AAC"/>
<path fill-rule="evenodd" clip-rule="evenodd" d="M11.6434 26.8995L25.8934 12.3995L26.6066 13.1005L12.3566 27.6005L11.6434 26.8995Z" fill="#8E9AAC"/>
</svg>
