<svg width="19" height="19" viewBox="0 0 19 19" version="1.1" xmlns="http://www.w3.org/2000/svg" xmlns:xlink="http://www.w3.org/1999/xlink">
<title>Group</title>
<desc>Created using Figma</desc>
<g id="Canvas" transform="translate(-3226 2654)">
<g id="Group">
<g id="Group">
<g id="Group">
<g id="Vector">
<use xlink:href="#path0_fill" transform="translate(3226 -2654)" fill="#FBBC05"/>
</g>
<g id="Vector">
<use xlink:href="#path1_fill" transform="translate(3234.55 -2641.65)" fill="#FBBC05"/>
</g>
<g id="Vector">
<use xlink:href="#path2_fill" transform="translate(3234.55 -2649.25)" fill="#FBBC05"/>
</g>
</g>
</g>
</g>
</g>
<defs>
<path id="path0_fill" d="M 9.49526 0C 4.2465 0 0 4.25127 0 9.5C 0 14.7487 4.2465 19 9.49526 19C 14.744 19 19 14.7487 19 9.5C 19 4.25127 14.744 0 9.49526 0ZM 9.49998 17.1C 5.301 17.1 1.89997 13.699 1.89997 9.5C 1.89997 5.30096 5.301 1.90002 9.49998 1.90002C 13.699 1.90002 17.1 5.30101 17.1 9.5C 17.1 13.699 13.699 17.1 9.49998 17.1Z"/>
<path id="path1_fill" d="M 1.90001 0L 0 0L 0 1.90002L 1.90001 1.90002L 1.90001 0Z"/>
<path id="path2_fill" d="M 1.90001 0L 0 0L 0 5.70001L 1.90001 5.70001L 1.90001 0Z"/>
</defs>
</svg>
