<svg width="33" height="30" viewBox="0 0 33 30" version="1.1" xmlns="http://www.w3.org/2000/svg" xmlns:xlink="http://www.w3.org/1999/xlink">

	<g>

		<use xlink:href="#path0_fill" />  

	</g>
<defs>
	<path id="path0_fill" d="M 4.30435 4.28571L 4.30435 0L 7.17391 0L 7.17391 4.28571L 11.4783 4.28571L 11.4783 7.14286L 7.17391 7.14286L 7.17391 11.4286L 4.30435 11.4286L 4.30435 7.14286L 0 7.14286L 0 4.28571L 4.30435 4.28571ZM 8.6087 12.8571L 8.6087 8.57143L 12.913 8.57143L 12.913 4.28571L 22.9565 4.28571L 25.5822 7.14286L 30.1304 7.14286C 31.7087 7.14286 33 8.42857 33 10L 33 27.1429C 33 28.7143 31.7087 30 30.1304 30L 7.17391 30C 5.59565 30 4.30435 28.7143 4.30435 27.1429L 4.30435 12.8571L 8.6087 12.8571ZM 18.6522 25.7143C 22.6122 25.7143 25.8261 22.5143 25.8261 18.5714C 25.8261 14.6286 22.6122 11.4286 18.6522 11.4286C 14.6922 11.4286 11.4783 14.6286 11.4783 18.5714C 11.4783 22.5143 14.6922 25.7143 18.6522 25.7143ZM 14.0609 18.5714C 14.0609 21.1 16.1126 23.1429 18.6522 23.1429C 21.1917 23.1429 23.2435 21.1 23.2435 18.5714C 23.2435 16.0429 21.1917 14 18.6522 14C 16.1126 14 14.0609 16.0429 14.0609 18.5714Z"/>
</defs>
</svg>
