<svg width="39" height="39" viewBox="0 0 39 39" fill="none" xmlns="http://www.w3.org/2000/svg">
    <path d="M27.3333 11H10.6667C9.75 11 9 11.75 9 12.6667V26C9 26.9167 9.75 27.6667 10.6667 27.6667H27.3333C28.25 27.6667 29 26.9167 29 26V12.6667C29 11.75 28.25 11 27.3333 11ZM28.1667 26C28.1667 26.5 27.8333 26.8333 27.3333 26.8333H10.6667C10.1667 26.8333 9.83333 26.5 9.83333 26V16H28.1667V26ZM28.1667 15.1667H9.83333V12.6667C9.83333 12.1667 10.1667 11.8333 10.6667 11.8333H27.3333C27.8333 11.8333 28.1667 12.1667 28.1667 12.6667V15.1667Z" fill="#8E9AAC"/>
    <path d="M16.8333 14.3332C17.2936 14.3332 17.6667 13.9601 17.6667 13.4998C17.6667 13.0396 17.2936 12.6665 16.8333 12.6665C16.3731 12.6665 16 13.0396 16 13.4998C16 13.9601 16.3731 14.3332 16.8333 14.3332Z" fill="#8E9AAC"/>
    <path d="M14.3333 14.3332C14.7936 14.3332 15.1667 13.9601 15.1667 13.4998C15.1667 13.0396 14.7936 12.6665 14.3333 12.6665C13.8731 12.6665 13.5 13.0396 13.5 13.4998C13.5 13.9601 13.8731 14.3332 14.3333 14.3332Z" fill="#8E9AAC"/>
    <path d="M11.8333 14.3332C12.2936 14.3332 12.6667 13.9601 12.6667 13.4998C12.6667 13.0396 12.2936 12.6665 11.8333 12.6665C11.3731 12.6665 11 13.0396 11 13.4998C11 13.9601 11.3731 14.3332 11.8333 14.3332Z" fill="#8E9AAC"/>
    <path d="M24.8333 17.6665C23.9129 17.6665 23.1667 18.4126 23.1667 19.3332C23.1667 19.5763 23.2215 19.8057 23.3151 20.014L21.6618 21.3366C21.3834 21.1279 21.0414 20.9998 20.6667 20.9998C20.292 20.9998 19.95 21.1279 19.6716 21.3366L18.0183 20.014C18.1119 19.8057 18.1667 19.5763 18.1667 19.3332C18.1667 18.4126 17.4205 17.6665 16.5 17.6665C15.5795 17.6665 14.8333 18.4126 14.8333 19.3332C14.8333 19.7079 14.9614 20.0499 15.1701 20.3282L13.8475 21.9816C13.6392 21.888 13.4098 21.8332 13.1667 21.8332C12.2462 21.8332 11.5 22.5793 11.5 23.4998C11.5 24.4203 12.2462 25.1665 13.1667 25.1665C14.0872 25.1665 14.8333 24.4203 14.8333 23.4998C14.8333 23.1251 14.7053 22.7831 14.4966 22.5047L15.8192 20.8515C16.0275 20.945 16.2569 20.9998 16.5 20.9998C16.8747 20.9998 17.2167 20.8718 17.4951 20.6631L19.1484 21.9857C19.0548 22.194 19 22.4233 19 22.6665C19 23.587 19.7462 24.3332 20.6667 24.3332C21.5872 24.3332 22.3333 23.587 22.3333 22.6665C22.3333 22.4233 22.2785 22.194 22.1849 21.9857L23.8383 20.6631C24.1166 20.8718 24.4586 20.9998 24.8333 20.9998C25.7539 20.9998 26.5 20.2536 26.5 19.3332C26.5 18.4126 25.7539 17.6665 24.8333 17.6665ZM13.1667 24.3332C12.7072 24.3332 12.3333 23.9593 12.3333 23.4998C12.3333 23.0404 12.7072 22.6665 13.1667 22.6665C13.6261 22.6665 14 23.0404 14 23.4998C14 23.9593 13.6261 24.3332 13.1667 24.3332ZM16.5 20.1665C16.0405 20.1665 15.6667 19.7926 15.6667 19.3332C15.6667 18.8737 16.0405 18.4998 16.5 18.4998C16.9595 18.4998 17.3333 18.8737 17.3333 19.3332C17.3333 19.7926 16.9595 20.1665 16.5 20.1665ZM20.6667 23.4998C20.2072 23.4998 19.8333 23.126 19.8333 22.6665C19.8333 22.207 20.2072 21.8332 20.6667 21.8332C21.1261 21.8332 21.5 22.207 21.5 22.6665C21.5 23.126 21.1261 23.4998 20.6667 23.4998ZM24.8333 20.1665C24.3739 20.1665 24 19.7926 24 19.3332C24 18.8737 24.3739 18.4998 24.8333 18.4998C25.2928 18.4998 25.6667 18.8737 25.6667 19.3332C25.6667 19.7926 25.2928 20.1665 24.8333 20.1665Z" fill="#8E9AAC"/>
</svg>