<svg width="19" height="19" viewBox="0 0 19 19" version="1.1" xmlns="http://www.w3.org/2000/svg" xmlns:xlink="http://www.w3.org/1999/xlink">
<title>copy-document-with-circular-button</title>
<desc>Created using Figma</desc>
<g id="Canvas" transform="translate(-9800 5473)">
<g id="copy-document-with-circular-button">
<g id="Group">
<g id="Group">
<g id="Vector">
<use xlink:href="#path0_fill" transform="translate(9800 -5473)" fill="#8E9AAC"/>
</g>
<g id="Vector">
<use xlink:href="#path1_fill" transform="translate(9805.34 -5465.88)" fill="#8E9AAC"/>
</g>
<g id="Group">
<g id="Vector">
<use xlink:href="#path2_fill" transform="translate(9807.72 -5468.25)" fill="#8E9AAC"/>
</g>
</g>
</g>
</g>
</g>
</g>
<defs>
<path id="path0_fill" d="M 9.5 0C 4.25307 0 0 4.25307 0 9.5C 0 14.7469 4.25307 19 9.5 19C 14.7469 19 19 14.7469 19 9.5C 19 4.25307 14.7469 0 9.5 0ZM 9.5 17.5156C 5.07296 17.5156 1.48438 13.927 1.48438 9.5C 1.48438 5.07296 5.07296 1.48438 9.5 1.48438C 13.927 1.48438 17.5156 5.07296 17.5156 9.5C 17.5156 13.927 13.927 17.5156 9.5 17.5156Z"/>
<path id="path1_fill" d="M 5.9375 0L 0 0L 0 7.125L 5.9375 7.125L 5.9375 0Z"/>
<path id="path2_fill" d="M 5.9375 0L 0 0L 0 1.78125L 4.15625 1.78125L 4.15625 7.125L 5.9375 7.125L 5.9375 0Z"/>
</defs>
</svg>
