<svg width="39" height="39" viewBox="0 0 39 39" fill="none" xmlns="http://www.w3.org/2000/svg">

<rect x="10" y="13" width="19" height="1" fill="#8E9AAC"/>
<rect x="10" y="25" width="3" height="1" fill="#8E9AAC"/>
<rect x="14" y="25" width="3" height="1" fill="#8E9AAC"/>
<rect x="18" y="25" width="3" height="1" fill="#8E9AAC"/>
<rect x="22" y="25" width="3" height="1" fill="#8E9AAC"/>
<rect x="26" y="25" width="3" height="1" fill="#8E9AAC"/>
<rect x="10" y="19" width="1" height="1" fill="#8E9AAC"/>
<rect x="12" y="19" width="1" height="1" fill="#8E9AAC"/>
<rect x="14" y="19" width="1" height="1" fill="#8E9AAC"/>
<rect x="16" y="19" width="1" height="1" fill="#8E9AAC"/>
<rect x="18" y="19" width="1" height="1" fill="#8E9AAC"/>
<rect x="20" y="19" width="1" height="1" fill="#8E9AAC"/>
<rect x="22" y="19" width="1" height="1" fill="#8E9AAC"/>
<rect x="24" y="19" width="1" height="1" fill="#8E9AAC"/>
<rect x="26" y="19" width="1" height="1" fill="#8E9AAC"/>
<rect x="28" y="19" width="1" height="1" fill="#8E9AAC"/>
</svg>
