<svg width="39" height="39" viewBox="0 0 39 39" fill="none" xmlns="http://www.w3.org/2000/svg">

<path fill-rule="evenodd" clip-rule="evenodd" d="M24.7954 15.5454V18.9545C25.7352 18.9545 26.5 19.7193 26.5 20.6591V27.4772C26.5 28.417 25.7352 29.1818 24.7954 29.1818H15.7045C14.7648 29.1818 14 28.417 14 27.4772V20.6591C14 19.7193 14.7648 18.9545 15.7045 18.9545V18.9454H16.8409V18.9545H23.6591V15.5454C23.6591 13.6653 22.1301 12.1364 20.25 12.1364C18.3699 12.1364 16.8409 13.6653 16.8409 15.5454V16.5555H15.7045V15.5454C15.7045 13.0392 17.7437 11 20.25 11C22.7562 11 24.7954 13.0392 24.7954 15.5454ZM24.7954 28.0454C25.1085 28.0454 25.3636 27.7909 25.3636 27.4772V20.6591C25.3636 20.3454 25.1085 20.0909 24.7954 20.0909H15.7045C15.3915 20.0909 15.1364 20.3454 15.1364 20.6591V27.4772C15.1364 27.7909 15.3915 28.0454 15.7045 28.0454H24.7954Z" fill="#8E9AAC"/>
</svg>
