<svg width="19" height="19" viewBox="0 0 19 19" version="1.1" xmlns="http://www.w3.org/2000/svg" xmlns:xlink="http://www.w3.org/1999/xlink">
	<g transform="translate(-788 -462)">
		<use xlink:href="#icon-cross-fill" transform="translate(788 462)" fill="#8E9AAC"/>
	</g>
	<defs>
		<path id="icon-cross-fill" d="M 12.2329 9.80365C 12.0594 9.63014 12.0594 9.36986 12.2329 9.19635L 18.7397 2.6895C 18.9132 2.51598 19 2.25571 19 2.08219C 19 1.90868 18.9132 1.6484 18.7397 1.47489L 17.5251 0.260274C 17.3516 0.086758 17.0913 0 16.9178 0C 16.6575 0 16.484 0.086758 16.3105 0.260274L 9.80365 6.76712C 9.63014 6.94064 9.36986 6.94064 9.19635 6.76712L 2.6895 0.260274C 2.51598 0.086758 2.25571 0 2.08219 0C 1.90868 0 1.6484 0.086758 1.47489 0.260274L 0.260274 1.47489C 0.086758 1.6484 0 1.90868 0 2.08219C 0 2.25571 0.086758 2.51598 0.260274 2.6895L 6.76712 9.19635C 6.94064 9.36986 6.94064 9.63014 6.76712 9.80365L 0.260274 16.3105C 0.086758 16.484 0 16.7443 0 16.9178C 0 17.0913 0.086758 17.3516 0.260274 17.5251L 1.47489 18.7397C 1.6484 18.9132 1.90868 19 2.08219 19C 2.25571 19 2.51598 18.9132 2.6895 18.7397L 9.19635 12.2329C 9.36986 12.0594 9.63014 12.0594 9.80365 12.2329L 16.3105 18.7397C 16.484 18.9132 16.7443 19 16.9178 19C 17.0913 19 17.3516 18.9132 17.5251 18.7397L 18.7397 17.5251C 18.9132 17.3516 19 17.0913 19 16.9178C 19 16.7443 18.9132 16.484 18.7397 16.3105L 12.2329 9.80365Z"/>
	</defs>
</svg>