<svg width="24" height="20" viewBox="0 0 24 20" version="1.1" xmlns="http://www.w3.org/2000/svg" xmlns:xlink="http://www.w3.org/1999/xlink">
	<g id="Canvas" transform="translate(-473 356)">
		<use xlink:href="#icon-menu-fill" transform="translate(473.126 -355.999)" fill="#8E9AAC"/>		
	</g>
	<defs>
		<path id="icon-menu-fill" d="M 1.37682 2.80719L 22.3712 2.80719C 23.132 2.80719 23.748 2.1798 23.748 1.40376C 23.748 0.629662 23.132 0 22.3712 0L 1.37682 0C 0.61603 -2.88274e-16 0 0.629662 0 1.40376C 0 2.18012 0.61603 2.80719 1.37682 2.80719ZM 22.3712 8.59554L 1.37682 8.59554C 0.61603 8.59554 0 9.22552 0 9.99929C 0 10.776 0.61603 11.403 1.37682 11.403L 22.3712 11.403C 23.132 11.403 23.748 10.7757 23.748 9.99929C 23.748 9.22552 23.132 8.59554 22.3712 8.59554ZM 22.3712 17.1911L 1.37682 17.1911C 0.61603 17.1911 0 17.8211 0 18.5948C 0 19.3715 0.61603 19.9986 1.37682 19.9986L 22.3712 19.9986C 23.132 19.9986 23.748 19.3705 23.748 18.5948C 23.748 17.8211 23.132 17.1911 22.3712 17.1911Z"/>
	</defs>
</svg>