<svg width="39" height="39" viewBox="0 0 39 39" fill="none" xmlns="http://www.w3.org/2000/svg">
    <path fill-rule="evenodd" clip-rule="evenodd" d="M25.5 11C26.3284 11 27 10.3284 27 9.5C27 8.67157 26.3284 8 25.5 8C24.6716 8 24 8.67157 24 9.5C24 10.3284 24.6716 11 25.5 11ZM25.5 12C26.8807 12 28 10.8807 28 9.5C28 8.11929 26.8807 7 25.5 7C24.1193 7 23 8.11929 23 9.5C23 10.8807 24.1193 12 25.5 12Z" fill="#8E9AAC"/>
    <path fill-rule="evenodd" clip-rule="evenodd" d="M8.5 28C9.32843 28 10 27.3284 10 26.5C10 25.6716 9.32843 25 8.5 25C7.67157 25 7 25.6716 7 26.5C7 27.3284 7.67157 28 8.5 28ZM8.5 29C9.88071 29 11 27.8807 11 26.5C11 25.1193 9.88071 24 8.5 24C7.11929 24 6 25.1193 6 26.5C6 27.8807 7.11929 29 8.5 29Z" fill="#8E9AAC"/>
    <path fill-rule="evenodd" clip-rule="evenodd" d="M9.64341 24.8995L23.8934 10.3995L24.6066 11.1005L10.3566 25.6005L9.64341 24.8995Z" fill="#8E9AAC"/>
    <path d="M10 26.5C10 26.2239 10.2239 26 10.5 26H18.5C18.7761 26 19 26.2239 19 26.5C19 26.7761 18.7761 27 18.5 27H10.5C10.2239 27 10 26.7761 10 26.5Z" fill="#8E9AAC"/>
    <path d="M24.1821 27.2261H24.8008V27.8926H24.1821V29H23.3516V27.8926H21.2017L21.1777 27.3867L23.3242 24.0234H24.1821V27.2261ZM22.0493 27.2261H23.3516V25.1479L23.29 25.2573L22.0493 27.2261Z" fill="#8E9AAC"/>
    <path d="M25.5732 26.5322L25.8433 24.0234H28.5161V24.7412H26.5337L26.397 25.9307C26.6271 25.7985 26.8869 25.7324 27.1763 25.7324C27.6502 25.7324 28.0182 25.884 28.2803 26.187C28.5446 26.4901 28.6768 26.8979 28.6768 27.4106C28.6768 27.9165 28.5309 28.3198 28.2393 28.6206C27.9476 28.9191 27.5477 29.0684 27.0396 29.0684C26.5838 29.0684 26.2056 28.9396 25.9048 28.6821C25.6063 28.4224 25.4445 28.0806 25.4194 27.6567H26.2227C26.2546 27.8983 26.3411 28.084 26.4824 28.2139C26.6237 28.3415 26.8083 28.4053 27.0361 28.4053C27.2913 28.4053 27.4896 28.3141 27.6309 28.1318C27.7744 27.9495 27.8462 27.7012 27.8462 27.3867C27.8462 27.0837 27.7676 26.8444 27.6104 26.6689C27.4531 26.4912 27.2367 26.4023 26.9609 26.4023C26.8105 26.4023 26.6829 26.4229 26.5781 26.4639C26.4733 26.5026 26.3594 26.5801 26.2363 26.6963L25.5732 26.5322Z" fill="#8E9AAC"/>
    <path d="M30.2935 23.9551C30.535 23.9551 30.7435 24.0451 30.9189 24.2251C31.0944 24.4051 31.1821 24.6204 31.1821 24.8711C31.1821 25.1217 31.0955 25.3359 30.9224 25.5137C30.7492 25.6891 30.5396 25.7769 30.2935 25.7769C30.0451 25.7769 29.832 25.6891 29.6543 25.5137C29.4788 25.3359 29.3911 25.1217 29.3911 24.8711C29.3911 24.6204 29.48 24.4051 29.6577 24.2251C29.8377 24.0451 30.0496 23.9551 30.2935 23.9551ZM30.2935 25.2949C30.4142 25.2949 30.5133 25.255 30.5908 25.1753C30.6706 25.0933 30.7104 24.9919 30.7104 24.8711C30.7104 24.7526 30.6706 24.6501 30.5908 24.5635C30.5133 24.4769 30.4142 24.4336 30.2935 24.4336C30.1727 24.4336 30.0713 24.4769 29.9893 24.5635C29.9072 24.6501 29.8662 24.7526 29.8662 24.8711C29.8662 24.9896 29.9072 25.0898 29.9893 25.1719C30.0736 25.2539 30.175 25.2949 30.2935 25.2949Z" fill="#8E9AAC"/>
</svg>
