<svg width="60" height="60" viewBox="0 0 60 60" fill="none" xmlns="http://www.w3.org/2000/svg">
    <g clip-path="url(#clip0)">
        <path d="M36.9148 25.761L35.1837 25.5052C34.3968 25.3872 33.9345 25.0823 33.9345 24.5905C33.9345 24.0987 34.623 23.6069 35.5476 23.656H36.2558C37.1804 23.656 37.8689 24.1478 37.8689 24.5905V24.856H39.8361V24.5905C39.8361 22.9183 38.2624 21.6396 36.2558 21.6396H35.5476C33.5411 21.6396 31.9673 22.9183 31.9673 24.5905C32.1287 26.1245 33.378 27.3157 34.9181 27.4036L36.6197 27.6593C37.4066 27.7774 37.8689 28.1315 37.8689 28.5741C37.8689 29.0167 37.1804 29.5085 36.2558 29.5085H35.5476C34.623 29.5085 33.9345 29.0167 33.9345 28.5741V28.3085H31.9673V28.5741C31.9673 30.197 33.5804 31.4757 35.5476 31.4757H36.2558C38.2624 31.4757 39.8361 30.197 39.8656 28.6233C39.727 27.0699 38.4718 25.8523 36.9148 25.761Z" fill="#3498DB"/>
        <path d="M36.8852 30.4922H34.918V32.4594H36.8852V30.4922Z" fill="#3498DB"/>
        <path d="M35.9015 16.7217C30.4692 16.7217 26.0654 21.1254 26.0654 26.5577C26.0654 31.9901 30.4692 36.3938 35.9015 36.3938C41.3338 36.3938 45.7376 31.9901 45.7376 26.5577C45.7376 21.1254 41.3338 16.7217 35.9015 16.7217ZM35.9015 34.4266C31.5557 34.4266 28.0326 30.9036 28.0326 26.5577C28.0326 22.2119 31.5557 18.6889 35.9015 18.6889C40.2473 18.6889 43.7703 22.2119 43.7703 26.5577C43.7703 30.9036 40.2473 34.4266 35.9015 34.4266Z" fill="#3498DB"/>
        <path d="M36.8852 20.6553H34.918V22.6225H36.8852V20.6553Z" fill="#3498DB"/>
        <path d="M22.1311 12.7873V12.266C22.0465 10.8482 20.8347 9.76368 19.4164 9.83647H18.9442C17.5259 9.7638 16.3141 10.8482 16.2295 12.266C16.2878 13.493 17.2231 14.4989 18.4426 14.6463L19.5934 14.8332C19.9475 14.8922 20.1639 15.0594 20.1639 15.2758C20.1639 15.4922 19.8492 15.7381 19.4164 15.7381H18.9442C18.5115 15.7381 18.1967 15.4922 18.1967 15.2758V14.7545H16.2295V15.2758C16.3141 16.6936 17.5259 17.7781 18.9442 17.7053H19.4164C20.8347 17.778 22.0465 16.6936 22.1311 15.2758C22.0729 14.0488 21.1376 13.0429 19.918 12.8955L18.7672 12.7086C18.4131 12.6496 18.1967 12.4824 18.1967 12.266C18.1967 12.0496 18.5115 11.8037 18.9442 11.8037H19.4164C19.8492 11.8037 20.1639 12.0496 20.1639 12.266V12.7873H22.1311Z" fill="#3498DB"/>
        <path d="M20.164 16.7217H18.1968V18.6889H20.164V16.7217Z" fill="#3498DB"/>
        <path d="M19.1804 5.90137C14.8346 5.90137 11.3115 9.4244 11.3115 13.7702C11.3115 18.116 14.8346 21.6391 19.1804 21.6391C23.5262 21.6391 27.0492 18.116 27.0492 13.7702C27.0492 9.4244 23.5262 5.90137 19.1804 5.90137ZM19.1804 19.6719C15.9209 19.6719 13.2787 17.0296 13.2787 13.7702C13.2787 10.5108 15.9209 7.86858 19.1804 7.86858C22.4398 7.86858 25.082 10.5108 25.082 13.7702C25.082 17.0296 22.4398 19.6719 19.1804 19.6719Z" fill="#3498DB"/>
        <path d="M20.164 8.85254H18.1968V10.8198H20.164V8.85254Z" fill="#3498DB"/>
        <path d="M47.7049 6.88494V6.36363C47.6203 4.94589 46.4085 3.86134 44.9901 3.93412H44.518C43.0996 3.86146 41.8878 4.94589 41.8032 6.36363C41.8615 7.59068 42.7968 8.59654 44.0163 8.74396L45.1672 8.93084C45.5213 8.98986 45.7376 9.15707 45.7376 9.37347C45.7376 9.58986 45.4229 9.83576 44.9901 9.83576H44.518C44.0852 9.83576 43.7704 9.58986 43.7704 9.37347V8.85216H41.8032V9.37347C41.8878 10.7912 43.0996 11.8758 44.518 11.803H44.9901C46.4085 11.8756 47.6203 10.7912 47.7049 9.37347C47.6466 8.14642 46.7113 7.14056 45.4917 6.99314L44.3409 6.80625C43.9868 6.74724 43.7704 6.58002 43.7704 6.36363C43.7704 6.14724 44.0852 5.90134 44.518 5.90134H44.9901C45.4229 5.90134 45.7376 6.14724 45.7376 6.36363V6.88494H47.7049Z" fill="#3498DB"/>
        <path d="M45.7377 10.8193H43.7705V12.7865H45.7377V10.8193Z" fill="#3498DB"/>
        <path d="M44.7541 0C40.4083 0 36.8853 3.52303 36.8853 7.86886C36.8853 12.2147 40.4083 15.7377 44.7541 15.7377C49.0999 15.7377 52.623 12.2147 52.623 7.86886C52.623 3.52303 49.0999 0 44.7541 0ZM44.7541 13.7705C41.4947 13.7705 38.8525 11.1283 38.8525 7.86886C38.8525 4.60943 41.4947 1.96721 44.7541 1.96721C48.0135 1.96721 50.6557 4.60943 50.6557 7.86886C50.6557 11.1283 48.0135 13.7705 44.7541 13.7705Z" fill="#3498DB"/>
        <path d="M45.7377 2.95117H43.7705V4.91838H45.7377V2.95117Z" fill="#3498DB"/>
        <path d="M53.6064 20.6553H51.6392V27.5405H53.6064V20.6553Z" fill="#3498DB"/>
        <path d="M53.6064 16.7217H51.6392V18.6889H53.6064V16.7217Z" fill="#3498DB"/>
        <path d="M19.1801 28.5244H17.2129V35.4097H19.1801V28.5244Z" fill="#3498DB"/>
        <path d="M19.1801 24.5898H17.2129V26.5571H19.1801V24.5898Z" fill="#3498DB"/>
        <path d="M49.6723 30.4922H47.7051V35.4102H49.6723V30.4922Z" fill="#3498DB"/>
        <path d="M32.9506 3.93457H30.9834V12.787H32.9506V3.93457Z" fill="#3498DB"/>
        <path d="M17.2133 0H15.2461V2.95082H17.2133V0Z" fill="#3498DB"/>
        <path d="M59.2228 40.6132L55.2884 36.6788C54.9451 36.3344 54.4017 36.2926 54.0097 36.5805L36.7769 49.0329L28.5737 45.246H35.9015C36.4447 45.246 36.8851 44.8056 36.8851 44.2624V39.3444C36.8851 38.8012 36.4447 38.3608 35.9015 38.3608H30.0983L20.2622 37.3772C20.0974 37.3624 19.9317 37.3896 19.7802 37.4559L13.072 40.328H0.491699V42.2952H13.2786C13.4117 42.2888 13.5423 42.2553 13.6622 42.1969L20.3212 39.3444L29.9999 40.328H34.9179V43.2788H24.0983C23.7145 43.2805 23.3668 43.5054 23.2077 43.8546C22.9825 44.349 23.2007 44.9323 23.695 45.1575L36.4819 51.0591C36.8036 51.2055 37.1791 51.168 37.4655 50.9608L54.4917 38.6657L57.0786 41.2526L37.5048 58.0329H32.1442L13.6228 51.2067C13.5126 51.1666 13.396 51.1467 13.2786 51.1477H0.491699V53.1149H13.1015L31.6228 59.9411C31.7331 59.9812 31.8498 60.0011 31.9671 60.0001H37.8687C38.1083 59.9893 38.3357 59.8914 38.5081 59.7247L59.1638 42.0198C59.3722 41.842 59.4969 41.5853 59.5081 41.3116C59.5096 41.0502 59.407 40.7989 59.2228 40.6132Z" fill="#3498DB"/>
    </g>
    <defs>
        <clipPath id="clip0">
            <rect width="60" height="60" fill="white"/>
        </clipPath>
    </defs>
</svg>
