<svg width="28" height="18" viewBox="0 0 28 18" version="1.1" xmlns="http://www.w3.org/2000/svg" xmlns:xlink="http://www.w3.org/1999/xlink">
	<g id="Canvas" transform="translate(-172 2826)">
		<use xlink:href="#icon-menu-7-fill-1" transform="translate(172 -2826)" fill="#8E9AAC"/>
		<use xlink:href="#icon-menu-7-fill-2" transform="translate(172 -2826)" fill="#8E9AAC"/>
		<use xlink:href="#icon-menu-7-fill-3" transform="translate(172 -2826)" fill="#8E9AAC"/>
		<use xlink:href="#icon-menu-7-fill-4" transform="translate(172 -2826)" fill="#8E9AAC"/>
		<use xlink:href="#icon-menu-7-fill-5" transform="translate(172 -2826)" fill="#8E9AAC"/>
		<use xlink:href="#icon-menu-7-fill-6" transform="translate(172 -2826)" fill="#8E9AAC"/>
		<use xlink:href="#icon-menu-7-fill-7" transform="translate(172 -2826)" fill="#8E9AAC"/>
		<use xlink:href="#icon-menu-7-fill-8" transform="translate(172 -2826)" fill="#8E9AAC"/>
	</g>
	<defs>
		<path id="icon-menu-7-fill-1" d="M 22.1084 12.3419C 21.5589 11.1635 19.593 9.52785 17.6937 7.94741C 16.6344 7.06657 15.6334 6.23376 14.9952 5.57736C 14.8354 5.41176 14.5962 5.35894 14.3851 5.43696C 13.9919 5.58338 13.7492 5.69617 13.5579 5.78375C 13.2663 5.91814 13.1683 5.96376 12.7751 6.00454C 12.6012 6.02254 12.4449 6.11856 12.3481 6.26734C 11.5232 7.53576 10.6692 7.42776 10.0987 7.23099C 9.91673 7.16861 9.88408 7.08817 9.86658 7.01138C 9.74408 6.48459 10.3589 5.25814 11.1557 4.4385C 13.0516 2.48724 14.0292 1.99881 16.0942 2.94806C 18.4369 4.02567 20.7842 4.86933 20.8076 4.87771C 21.1144 4.98689 21.4446 4.82129 21.5507 4.50808C 21.6557 4.19487 21.4959 3.85286 21.1914 3.74368C 21.168 3.7353 18.8674 2.90846 16.5714 1.85121C 13.8962 0.621157 12.4285 1.43118 10.332 3.58887C 9.53403 4.4097 8.45018 6.07052 8.73018 7.28859C 8.85033 7.807 9.20503 8.19103 9.73233 8.3698C 11.0542 8.81863 12.2605 8.38898 13.1588 7.16259C 13.5298 7.10381 13.7317 7.0174 14.035 6.877C 14.1446 6.8266 14.273 6.76781 14.4433 6.69699C 15.1107 7.34141 16.0113 8.09141 16.9598 8.87983C 18.6748 10.3067 20.6197 11.9243 21.0572 12.8604C 21.273 13.3224 21.0408 13.6236 20.8833 13.7616C 20.6523 13.9656 20.3362 14.0304 20.1647 13.9067C 19.9757 13.7735 19.7295 13.7652 19.5347 13.8851C 19.3387 14.0051 19.229 14.2319 19.2535 14.4648C 19.2932 14.8464 18.9537 15.0648 18.8067 15.1404C 18.4333 15.3348 18.0437 15.3012 17.8978 15.162C 17.7345 15.006 17.5 14.9604 17.2923 15.0396C 17.0847 15.12 16.94 15.3168 16.919 15.5448C 16.884 15.9384 16.6005 16.3164 16.2306 16.464C 16.0521 16.5336 15.7931 16.5756 15.561 16.3572C 15.4163 16.2228 15.2156 16.1712 15.0278 16.218C 14.8377 16.2659 14.6848 16.4076 14.6183 16.596C 14.5962 16.656 14.546 16.8 14 16.8C 13.6115 16.8 12.9126 16.53 12.5708 16.2972C 12.1613 16.0199 9.59348 14.0495 7.37568 12.139C 7.06418 11.869 6.52518 11.2906 6.04918 10.7794C 5.62683 10.3258 5.24068 9.91418 5.04233 9.74138C 4.79383 9.52537 4.42633 9.55778 4.21983 9.8122C 4.01218 10.0654 4.04248 10.4446 4.28868 10.6582C 4.46953 10.8154 4.81953 11.1958 5.20568 11.6098C 5.72603 12.169 6.26383 12.7475 6.62553 13.0595C 8.79788 14.9304 11.4089 16.95 11.9292 17.3016C 12.3585 17.592 13.2837 18 14 18C 14.5752 18 15.0174 17.8644 15.3242 17.5992C 15.7348 17.7636 16.2015 17.7648 16.6507 17.5848C 17.1815 17.3736 17.6178 16.9476 17.8652 16.4316C 18.3248 16.5324 18.851 16.4616 19.3293 16.2144C 19.7972 15.972 20.1355 15.6012 20.3035 15.168C 20.7678 15.1932 21.2461 15.024 21.6416 14.6747C 22.3114 14.0856 22.4957 13.1688 22.1084 12.3419Z"/>
		<path id="icon-menu-7-fill-2" d="M 11.6667 2.39966L 6.41666 2.39966C 6.09466 2.39966 5.83331 2.66849 5.83331 2.9997C 5.83331 3.3309 6.09466 3.59973 6.41666 3.59973L 11.6667 3.59973C 11.9887 3.59973 12.25 3.3309 12.25 2.9997C 12.25 2.66849 11.9887 2.39966 11.6667 2.39966Z"/>
		<path id="icon-menu-7-fill-3" d="M 23.8175 11.0651C 23.6366 10.7903 23.275 10.7147 23.0078 10.9019L 21.3022 12.0803C 21.035 12.2651 20.9638 12.6383 21.1435 12.9131C 21.2567 13.0847 21.441 13.1783 21.6289 13.1783C 21.7397 13.1783 21.8529 13.1459 21.9532 13.0764L 23.6589 11.898C 23.926 11.7131 23.9971 11.3399 23.8175 11.0651Z"/>
		<path id="icon-menu-7-fill-4" d="M 20.1962 13.9284C 19.7785 13.59 17.9107 11.6232 16.7557 10.3847C 16.5328 10.1447 16.163 10.1363 15.9308 10.3667C 15.6975 10.596 15.6905 10.9763 15.9133 11.2152C 16.2132 11.5368 18.858 14.3725 19.4728 14.8717C 19.579 14.9581 19.7073 15.0001 19.8333 15.0001C 20.0048 15.0001 20.1763 14.9209 20.293 14.7709C 20.4925 14.5116 20.4494 14.1336 20.1962 13.9284Z"/>
		<path id="icon-menu-7-fill-5" d="M 17.8652 15.132C 17.1663 14.5572 15.4105 12.6383 15.0138 12.1943C 14.7945 11.9495 14.427 11.9351 14.189 12.1583C 13.9521 12.3827 13.9358 12.7632 14.154 13.0068C 14.175 13.0296 16.2703 15.3565 17.136 16.0693C 17.2433 16.1569 17.3728 16.2001 17.5 16.2001C 17.6703 16.2001 17.8406 16.122 17.9561 15.9757C 18.1569 15.7164 18.116 15.3384 17.8652 15.132Z"/>
		<path id="icon-menu-7-fill-6" d="M 15.5435 16.3405C 14.7116 15.6193 13.0095 13.7556 12.677 13.3896C 12.4565 13.1472 12.0866 13.134 11.8521 13.3608C 11.6165 13.5876 11.6048 13.9668 11.8241 14.2092C 12.3025 14.736 13.9311 16.5121 14.791 17.2585C 14.9006 17.3533 15.0336 17.4001 15.1666 17.4001C 15.3323 17.4001 15.498 17.3269 15.6135 17.1865C 15.8211 16.9321 15.7896 16.5541 15.5435 16.3405Z"/>
		<path id="icon-menu-7-fill-7" d="M 6.818 1.36407C 5.81815 0.389626 1.82 0.0739989 0.618352 0.000815682C 0.452703 -0.00756579 0.299852 0.0487985 0.183203 0.16282C 0.0665 0.275604 0 0.434009 0 0.599613L 0 11.3999C 0 11.7311 0.261352 11.9999 0.583352 11.9999L 4.08335 11.9999C 4.33535 11.9999 4.55935 11.8331 4.6375 11.5859C 4.72265 11.3171 6.73285 4.97137 6.99765 1.85127C 7.01285 1.66884 6.9475 1.48884 6.818 1.36407ZM 3.6575 10.7999L 1.16665 10.7999L 1.16665 1.24285C 3.0415 1.39523 5.0645 1.72644 5.7995 2.09365C 5.49035 4.72172 4.0915 9.39105 3.6575 10.7999Z"/>
		<path id="icon-menu-7-fill-8" d="M 27.4167 1.19965C 22.8363 1.19965 20.2953 2.40568 20.1892 2.45608C 20.0375 2.52926 19.9243 2.66489 19.8777 2.82931C 19.831 2.99373 19.8543 3.17014 19.9418 3.3165C 20.6628 4.51055 22.9203 11.1419 23.3543 12.7596C 23.4243 13.0199 23.6542 13.1999 23.9167 13.1999L 27.4167 13.1999C 27.7387 13.1999 28 12.9311 28 12.5999L 28 1.79963C 28 1.46724 27.7387 1.19965 27.4167 1.19965ZM 26.8334 11.9999L 24.353 11.9999C 23.8 10.1471 22.1667 5.31574 21.2555 3.31892C 22.1457 3.00813 24.0579 2.47408 26.8334 2.40692L 26.8334 11.9999Z"/>
	</defs>
</svg>