<svg width="24" height="24" viewBox="0 0 24 24" fill="none" xmlns="http://www.w3.org/2000/svg">
<g clip-path="url(#clip0)">
<path d="M6.28055 0.00146484C2.81742 0.00146484 0 2.81898 0 6.28201C0 9.74504 2.81742 12.5626 6.28055 12.5626C9.74367 12.5626 12.5611 9.74514 12.5611 6.28201C12.5611 2.81889 9.74362 0.00146484 6.28055 0.00146484ZM6.2805 11.6252C4.99284 11.6252 3.81009 11.1672 2.88652 10.4057C2.901 9.75165 3.37233 9.19478 4.01845 9.07529L4.9237 8.9079C4.92581 8.90753 4.92783 8.90687 4.92998 8.90645L5.88281 10.4301C5.9685 10.5671 6.11864 10.6503 6.28022 10.6503C6.4418 10.6503 6.59194 10.567 6.67762 10.4301L7.62994 8.90664C7.63191 8.90701 7.63373 8.90762 7.6357 8.908L8.54138 9.07543C9.18783 9.19501 9.65934 9.75222 9.67341 10.4067C8.74992 11.1677 7.56764 11.6252 6.2805 11.6252ZM5.25764 5.28325C5.91291 5.28325 6.53672 5.04456 7.02033 4.6179L7.81167 5.08281V5.66425C7.81167 6.50889 7.12458 7.19598 6.27998 7.19598C5.43534 7.19598 4.74825 6.50889 4.74825 5.66425V5.28329H4.7483H5.25764V5.28325ZM4.74825 4.34589V4.33304C4.74825 3.48845 5.43534 2.80136 6.27998 2.80136C6.99956 2.80136 7.60486 3.3002 7.76822 3.97014L7.17956 3.62434C6.98217 3.50837 6.72994 3.55196 6.58294 3.72742C6.2535 4.12051 5.77045 4.34589 5.25759 4.34589H4.74825ZM6.8445 8.39453L6.28003 9.29748L5.71509 8.39411C5.77777 8.30317 5.82788 8.20342 5.86439 8.09767C5.99963 8.12068 6.13828 8.13334 6.27994 8.13334C6.42145 8.13334 6.55997 8.12073 6.69502 8.09776C6.73162 8.2036 6.78178 8.30345 6.8445 8.39453ZM10.4586 9.60859C10.1764 8.8704 9.52706 8.30429 8.71177 8.15364L7.80609 7.9862C7.69683 7.96595 7.60064 7.87482 7.57388 7.76607C8.27841 7.33075 8.74903 6.55154 8.74903 5.66425V4.333C8.74903 2.97151 7.64142 1.8639 6.27994 1.8639C4.91845 1.8639 3.8108 2.97151 3.8108 4.333V5.6642C3.8108 6.55131 4.28128 7.33037 4.98558 7.76575C4.95872 7.87511 4.86277 7.96595 4.75327 7.98615L3.84797 8.15354C3.03305 8.30425 2.38397 8.86984 2.10164 9.60756C1.37334 8.69434 0.937359 7.53821 0.937359 6.28201C0.937359 3.33582 3.33431 0.938871 6.2805 0.938871C9.22669 0.938871 11.6236 3.33582 11.6236 6.28201C11.6236 7.53868 11.1873 8.69518 10.4586 9.60859Z" fill="#8E9AAC"/>
<path d="M17.7195 11.4375C14.2564 11.4375 11.439 14.2549 11.439 17.718C11.439 21.1812 14.2564 23.9986 17.7195 23.9986C21.1825 23.9986 24 21.1811 24 17.718C24 14.255 21.1825 11.4375 17.7195 11.4375ZM17.7195 23.0611C16.4321 23.0612 15.2497 22.6035 14.3263 21.8424C14.3457 21.1931 14.8155 20.6418 15.458 20.523L16.3633 20.3557C16.3654 20.3553 16.3674 20.3546 16.3695 20.3542L17.3223 21.8778C17.4079 22.0148 17.5581 22.098 17.7197 22.098C17.8813 22.098 18.0314 22.0147 18.1171 21.8778L19.0695 20.3543C19.0714 20.3547 19.0733 20.3553 19.0752 20.3556L19.9809 20.5231C20.6234 20.6419 21.0932 21.1931 21.1127 21.8424C20.1892 22.6035 19.0068 23.0611 17.7195 23.0611ZM16.6972 16.731C17.3525 16.731 17.9763 16.4923 18.4598 16.0656L19.2512 16.5306V17.112C19.2512 17.9566 18.5641 18.6437 17.7195 18.6437C16.8749 18.6437 16.1878 17.9566 16.1878 17.112V16.731H16.1878H16.6972V16.731ZM16.1878 15.7936V15.7808C16.1878 14.9362 16.8749 14.2491 17.7195 14.2491C18.439 14.2491 19.0444 14.7479 19.2077 15.4179L18.619 15.072C18.4217 14.956 18.1694 14.9996 18.0224 15.1751C17.693 15.5682 17.21 15.7936 16.6971 15.7936H16.1878ZM18.2841 19.8423L17.7196 20.7452L17.1547 19.8418C17.2172 19.7509 17.2674 19.6511 17.3039 19.5454C17.4392 19.5684 17.5778 19.581 17.7195 19.581C17.861 19.581 17.9995 19.5684 18.1345 19.5455C18.1712 19.6514 18.2213 19.7512 18.2841 19.8423ZM21.8948 21.048C21.611 20.3138 20.9635 19.7515 20.1513 19.6014L19.2456 19.4339C19.1364 19.4137 19.0402 19.3224 19.0134 19.2138C19.7179 18.7785 20.1886 17.9993 20.1886 17.112V15.7808C20.1886 14.4193 19.0809 13.3117 17.7194 13.3117C16.3579 13.3117 15.2503 14.4193 15.2503 15.7808V17.112C15.2503 17.9991 15.7208 18.7781 16.4251 19.2135C16.3982 19.3228 16.3023 19.4137 16.1928 19.434L15.2875 19.6013C14.4753 19.7515 13.8279 20.3139 13.544 21.048C12.8137 20.134 12.3762 18.9763 12.3762 17.7181C12.3762 14.7719 14.7732 12.375 17.7194 12.375C20.6656 12.375 23.0625 14.7719 23.0625 17.7181C23.0625 18.9763 22.6251 20.134 21.8948 21.048Z" fill="#8E9AAC"/>
<path d="M21.3289 10.1745C21.2418 10.0873 21.1209 10.0376 20.9976 10.0376C20.8744 10.0376 20.7535 10.0873 20.6663 10.1745C20.5791 10.2621 20.5289 10.383 20.5289 10.5063C20.5289 10.6296 20.579 10.75 20.6663 10.8377C20.7535 10.9248 20.8744 10.975 20.9976 10.975C21.1209 10.975 21.2418 10.9248 21.3289 10.8377C21.4161 10.75 21.4663 10.6295 21.4663 10.5063C21.4663 10.3831 21.4161 10.2621 21.3289 10.1745Z" fill="#8E9AAC"/>
<path d="M20.9976 2.53219H14.6855L14.6891 2.52862C14.8721 2.34558 14.8721 2.04881 14.6891 1.86577C14.506 1.68277 14.2093 1.68277 14.0262 1.86577L13.2225 2.66944C13.0394 2.85248 13.0394 3.14925 13.2225 3.3323L14.0262 4.13602C14.1178 4.22752 14.2377 4.27331 14.3576 4.27331C14.4776 4.27331 14.5975 4.22752 14.689 4.13602C14.8721 3.95297 14.8721 3.6562 14.689 3.47316L14.6855 3.46959H20.5288V8.76586C20.5288 9.02466 20.7387 9.23456 20.9976 9.23456C21.2564 9.23456 21.4663 9.0247 21.4663 8.76586V3.00089C21.4663 2.74209 21.2564 2.53219 20.9976 2.53219Z" fill="#8E9AAC"/>
<path d="M19.5633 8.43471C19.4762 8.34752 19.3553 8.29736 19.232 8.29736C19.1087 8.29736 18.9878 8.34747 18.9006 8.43471C18.8135 8.52194 18.7633 8.64279 18.7633 8.76607C18.7633 8.88935 18.8134 9.01024 18.9006 9.09738C18.9878 9.18457 19.1088 9.23477 19.232 9.23477C19.3558 9.23477 19.4762 9.18461 19.5633 9.09738C19.6505 9.01024 19.7007 8.88935 19.7007 8.76607C19.7007 8.64279 19.6506 8.52189 19.5633 8.43471Z" fill="#8E9AAC"/>
<path d="M19.5633 6.55971C19.4762 6.47252 19.3557 6.42236 19.232 6.42236C19.1087 6.42236 18.9883 6.47247 18.9006 6.55971C18.8135 6.64689 18.7633 6.76783 18.7633 6.89107C18.7633 7.0143 18.8134 7.13524 18.9006 7.22238C18.9883 7.30957 19.1092 7.35977 19.232 7.35977C19.3553 7.35977 19.4762 7.30961 19.5633 7.22238C19.651 7.13524 19.7007 7.01435 19.7007 6.89107C19.7007 6.76779 19.651 6.64689 19.5633 6.55971Z" fill="#8E9AAC"/>
<path d="M19.5633 4.6852C19.4762 4.59801 19.3553 4.54785 19.232 4.54785C19.1087 4.54785 18.9878 4.59796 18.9006 4.6852C18.8135 4.77243 18.7633 4.89332 18.7633 5.01655C18.7633 5.13979 18.8134 5.26073 18.9006 5.34787C18.9878 5.43505 19.1088 5.48526 19.232 5.48526C19.3552 5.48526 19.4762 5.4351 19.5633 5.34787C19.651 5.26073 19.7007 5.13984 19.7007 5.01655C19.7007 4.89327 19.651 4.77238 19.5633 4.6852Z" fill="#8E9AAC"/>
<path d="M3.33102 13.0744C3.24388 12.9872 3.12294 12.937 2.99971 12.937C2.87643 12.937 2.75554 12.9872 2.66835 13.0744C2.58116 13.1615 2.53101 13.2825 2.53101 13.4057C2.53101 13.5289 2.58112 13.6499 2.66835 13.737C2.75554 13.8242 2.87647 13.8744 2.99971 13.8744C3.12299 13.8744 3.24388 13.8243 3.33102 13.737C3.41821 13.6499 3.46841 13.529 3.46841 13.4057C3.46841 13.2824 3.41826 13.1615 3.33102 13.0744Z" fill="#8E9AAC"/>
<path d="M10.7746 20.6674L9.97098 19.8637C9.78788 19.6807 9.49121 19.6807 9.30812 19.8637C9.12507 20.0467 9.12507 20.3435 9.30812 20.5265L9.31168 20.5301H3.46829V15.2338C3.46829 14.975 3.25843 14.7651 2.99959 14.7651C2.74079 14.7651 2.53088 14.975 2.53088 15.2338V20.9988C2.53088 21.2576 2.74074 21.4675 2.99959 21.4675H9.31168L9.30812 21.4711C9.12507 21.6541 9.12507 21.9509 9.30812 22.1339C9.39966 22.2254 9.51957 22.2712 9.63952 22.2712C9.75948 22.2712 9.87938 22.2254 9.97093 22.1339L10.7746 21.3303C10.9576 21.1472 10.9576 20.8504 10.7746 20.6674Z" fill="#8E9AAC"/>
<path d="M5.09657 14.9025C5.00938 14.8153 4.88849 14.7651 4.76521 14.7651C4.64146 14.7651 4.52104 14.8152 4.43385 14.9025C4.3462 14.9897 4.29651 15.1106 4.29651 15.2338C4.29651 15.3571 4.3462 15.478 4.43385 15.5652C4.52104 15.6523 4.64198 15.7025 4.76521 15.7025C4.88845 15.7025 5.00891 15.6524 5.09657 15.5652C5.18371 15.478 5.23391 15.3571 5.23391 15.2338C5.23391 15.1106 5.18376 14.9897 5.09657 14.9025Z" fill="#8E9AAC"/>
<path d="M5.09657 16.7775C5.00891 16.6903 4.88849 16.6401 4.76521 16.6401C4.64193 16.6401 4.52104 16.6902 4.43385 16.7775C4.3462 16.8647 4.29651 16.9856 4.29651 17.1088C4.29651 17.2321 4.3462 17.353 4.43385 17.4402C4.52104 17.5273 4.64151 17.5775 4.76521 17.5775C4.88849 17.5775 5.00891 17.5274 5.09657 17.4402C5.18371 17.353 5.23391 17.2321 5.23391 17.1088C5.23391 16.9856 5.18376 16.8647 5.09657 16.7775Z" fill="#8E9AAC"/>
<path d="M5.09657 18.652C5.00938 18.5648 4.88849 18.5146 4.76521 18.5146C4.64146 18.5146 4.52104 18.5648 4.43385 18.652C4.3462 18.7392 4.29651 18.8601 4.29651 18.9834C4.29651 19.1066 4.3462 19.2275 4.43385 19.3147C4.52104 19.4018 4.64151 19.4521 4.76521 19.4521C4.88849 19.4521 5.00938 19.4019 5.09657 19.3147C5.18371 19.2275 5.23391 19.1066 5.23391 18.9834C5.23391 18.8601 5.18376 18.7391 5.09657 18.652Z" fill="#8E9AAC"/>
</g>
<defs>
<clipPath id="clip0">
<rect width="24" height="24" fill="white"/>
</clipPath>
</defs>
</svg>
