<svg width="25" height="22" viewBox="0 0 25 22" fill="none" xmlns="http://www.w3.org/2000/svg">
<path d="M10.0022 17.1078C10.6248 17.4759 11.3176 17.6999 12.0287 17.7692V19.1774C12.0287 19.4374 12.2396 19.6484 12.4996 19.6484C12.7596 19.6484 12.9706 19.4374 12.9706 19.1774V17.7696C13.682 17.7003 14.3745 17.4759 14.9973 17.1086L14.9976 17.1085C15.2211 16.9758 15.2955 16.6877 15.1637 16.4632L15.1634 16.4627C15.0307 16.2397 14.7424 16.1654 14.5185 16.2962L14.518 16.2965C13.2903 17.0221 11.7093 17.0221 10.4812 16.2965L10.4811 16.2964C10.2565 16.1641 9.96871 16.2386 9.83608 16.463C9.70373 16.6867 9.77805 16.9758 10.0022 17.1078ZM10.0022 17.1078L10.053 17.0218L10.0024 17.1079C10.0023 17.1079 10.0023 17.1078 10.0022 17.1078ZM9.8364 9.27853L9.83653 9.27874C9.96928 9.50235 10.2569 9.57645 10.4818 9.44543L10.4823 9.44511C11.71 8.71989 13.2906 8.71985 14.519 9.44506C14.7399 9.57617 15.0303 9.50488 15.1639 9.27899L15.164 9.27877C15.2959 9.0547 15.2215 8.76611 14.9978 8.63377L14.9977 8.63371C14.3745 8.2661 13.6782 8.05872 12.971 7.99316V6.56452C12.971 6.30451 12.76 6.09355 12.5 6.09355C12.24 6.09355 12.029 6.30451 12.029 6.56452V7.99283C11.3216 8.05868 10.6256 8.2657 10.0026 8.63335L10.0025 8.63343C9.77861 8.76607 9.70402 9.05428 9.8364 9.27853ZM9.07379 10.8526L9.07379 10.8525L8.34887 10.4241L8.26277 10.3732C8.26277 10.3732 8.26276 10.3732 8.26276 10.3732C7.89505 10.9958 7.67106 11.6886 7.60178 12.3996H6.19355C5.93355 12.3996 5.72258 12.6106 5.72258 12.8706C5.72258 13.1306 5.93355 13.3416 6.19355 13.3416H7.60178C7.67108 14.053 7.89542 14.7455 8.26273 15.3683L8.26283 15.3685C8.39414 15.5901 8.68053 15.6674 8.90723 15.5348L8.9077 15.5345C9.1316 15.4018 9.20613 15.114 9.07384 14.8895L9.07379 14.8894C8.71107 14.2751 8.51935 13.577 8.51935 12.871C8.51935 12.1649 8.71107 11.4668 9.07379 10.8526ZM16.092 15.5349L16.092 15.5349C16.3144 15.6663 16.604 15.5939 16.7369 15.3687C17.1049 14.7458 17.3289 14.053 17.3982 13.3419H18.8065C19.0665 13.3419 19.2774 13.131 19.2774 12.871C19.2774 12.611 19.0665 12.4 18.8065 12.4H17.399C17.3297 11.6886 17.1053 10.9961 16.738 10.3736L16.7379 10.3735C16.6051 10.1494 16.317 10.0756 16.0927 10.2072L16.0922 10.2075C15.8688 10.3402 15.7943 10.6283 15.9261 10.8524L15.9262 10.8526C16.2893 11.4668 16.4806 12.1649 16.4806 12.871C16.4806 13.577 16.2893 14.2751 15.9259 14.8897L15.9258 14.8899C15.794 15.114 15.8683 15.4026 16.092 15.5349ZM22.8871 0.9H2.1129C1.44409 0.9 0.9 1.44409 0.9 2.1129V20.6613C0.9 21.3301 1.44409 21.8742 2.1129 21.8742H22.8871C23.5559 21.8742 24.1 21.3301 24.1 20.6613V2.1129C24.1 1.44409 23.5559 0.9 22.8871 0.9ZM22.8871 20.9323H2.1129C1.96342 20.9323 1.84194 20.8105 1.84194 20.6613V5.18064H23.1581V20.6613C23.1581 20.8105 23.0366 20.9323 22.8871 20.9323ZM12.5 9.80322C10.8084 9.80322 9.43226 11.1794 9.43226 12.871C9.43226 14.5625 10.8084 15.9387 12.5 15.9387C14.1916 15.9387 15.5677 14.5625 15.5677 12.871C15.5677 11.1794 14.1916 9.80322 12.5 9.80322Z" fill="#8E9AAC" />
<path d="M3.41094 2.38437C3.04855 2.38437 2.75449 2.67844 2.75449 3.04083C2.75449 3.40322 3.04855 3.69728 3.41094 3.69728C3.77333 3.69728 4.0674 3.40322 4.0674 3.04083C4.0674 2.67844 3.77333 2.38437 3.41094 2.38437ZM5.26578 2.38437C4.90339 2.38437 4.60933 2.67844 4.60933 3.04083C4.60933 3.40322 4.90339 3.69728 5.26578 3.69728C5.62817 3.69728 5.92223 3.40322 5.92223 3.04083C5.92223 2.67844 5.62817 2.38437 5.26578 2.38437ZM7.12062 2.38437C6.75823 2.38437 6.46417 2.67844 6.46417 3.04083C6.46417 3.40322 6.75823 3.69728 7.12062 3.69728C7.48301 3.69728 7.77707 3.40322 7.77707 3.04083C7.77707 2.67844 7.48301 2.38437 7.12062 2.38437Z" fill="white" />
</svg>
