<svg width="22" height="19" viewBox="0 0 22 19" fill="none" xmlns="http://www.w3.org/2000/svg">
<path d="M22 6.14218V0.83689H16.9134V2.33134H19.5554L17.5183 4.45724C16.241 1.81635 13.6186 0 10.5959 0C6.32214 0 2.84523 3.62882 2.84523 8.08924C2.84523 8.99199 2.98985 9.85956 3.25248 10.671L0 14.0654L1.0125 15.1221L3.8835 12.1257C5.22468 14.5453 7.73015 16.1779 10.5958 16.1779C12.4754 16.1779 14.2005 15.4756 15.544 14.3097L20.0384 19L21.0509 17.9433L16.5565 13.2531C17.6736 11.8511 18.3467 10.0508 18.3467 8.08914C18.3467 7.36135 18.2526 6.65647 18.0791 5.98506L20.5678 3.38791V6.14208L22 6.14218ZM4.2771 8.08924C4.2771 4.45285 7.11163 1.49445 10.5958 1.49445C13.2302 1.49445 15.4922 3.18616 16.4394 5.58306L12.9731 9.20041L8.81701 4.86323L4.41485 9.45776C4.32512 9.0161 4.2771 8.5585 4.2771 8.08924ZM16.9148 8.08924C16.9148 11.7253 14.0802 14.6835 10.5959 14.6835C8.12155 14.6835 5.97608 13.1909 4.93962 11.0237L8.8172 6.97678L12.9733 11.3138L16.8626 7.25504C16.8957 7.52843 16.9148 7.80649 16.9148 8.08924Z" fill="#3498DB"/>
</svg>
