<svg width="26" height="26" viewBox="0 0 26 26" version="1.1" xmlns="http://www.w3.org/2000/svg" xmlns:xlink="http://www.w3.org/1999/xlink">
	<g transform="translate(-173 4234)">
		<use xlink:href="#icon-menu-3-fill-1" transform="translate(179 -4233)"/>	
		<use xlink:href="#icon-menu-3-fill-2" transform="translate(179.169 -4230)"/>		
		<use xlink:href="#icon-menu-3-fill-5" transform="translate(183 -4224)"/>	
		<use xlink:href="#icon-menu-3-fill-7" transform="translate(187 -4224)"/>
		<use xlink:href="#icon-menu-3-fill-9" transform="translate(174 -4217)"/>
	</g>
	<defs>
		<path id="icon-menu-3-fill-1" d="M 13.9991 6.99991C 13.9991 3.13994 10.8583 -3.63212e-11 6.99955 -3.63212e-11C 3.14083 -3.63212e-11 -8.86857e-08 3.13994 -8.86857e-08 6.99991C -8.86857e-08 7.42689 0.0489811 7.8639 0.152005 8.3679C 0.0530121 8.71589 -8.86857e-08 9.10388 -8.86857e-08 9.49987C -8.86857e-08 10.8928 0.614958 11.9508 1.44089 11.9988C 2.34982 15.0098 4.53667 16.9998 6.99951 16.9998C 9.46234 16.9998 11.6492 15.0098 12.5581 11.9988C 13.3841 11.9508 13.999 10.8928 13.999 9.49987C 13.999 9.10388 13.946 8.71589 13.847 8.3679C 13.9501 7.8639 13.9991 7.42689 13.9991 6.99991ZM 12.8561 8.54888C 12.9501 8.82886 12.9991 9.15788 12.9991 9.49987C 12.9991 10.4709 12.6352 11.0119 12.4682 10.9779C 12.3332 10.8929 12.1652 10.8779 12.0162 10.9379C 11.8672 10.9979 11.7562 11.1249 11.7182 11.2809C 11.0193 14.1038 9.12243 15.9998 6.99955 15.9998C 4.87668 15.9998 2.97983 14.1038 2.28088 11.2809C 2.24286 11.1249 2.11589 11.0099 1.96791 10.9489C 1.91293 10.9269 1.85392 10.9168 1.79294 10.9168C 1.68996 10.9168 1.58595 10.9459 1.49994 10.9999C 1.37597 10.9999 0.999963 10.4679 0.999963 9.49987C 0.999963 9.15788 1.04894 8.82886 1.14194 8.54888C 1.17095 8.46287 1.17592 8.37188 1.15595 8.2839C 1.04997 7.79692 0.999963 7.38892 0.999963 6.99991C 0.999963 3.69095 3.69078 0.999974 6.99955 0.999974C 10.3083 0.999974 12.9991 3.69095 12.9991 6.99991C 12.9991 7.38892 12.9491 7.79692 12.8422 8.2839C 12.8231 8.37188 12.8282 8.4639 12.8561 8.54888Z"/>
		<path id="icon-menu-3-fill-2" d="M 13.6611 5.35101C 13.6391 5.07501 13.3951 4.87101 13.1221 4.893L 12.1592 4.97198C 12.0232 4.60397 11.8312 3.99399 11.8312 3.49998C 11.8312 3.22398 11.6072 2.99997 11.3313 2.99997C 8.39647 2.99997 5.88963 1.00199 5.83165 0.50001C 5.83165 0.224013 5.60765 -5.43589e-08 5.33167 -5.43589e-08C 5.05569 -5.43589e-08 4.83169 0.224013 4.83169 0.50001C 4.83169 0.929006 4.71868 1.25099 4.48469 1.48302C 3.99774 1.96901 3.07179 2 2.46982 2C 2.18985 2.00098 1.94987 2.05699 1.76688 2.25499C 1.31893 2.73597 1.2729 4.02896 1.30191 4.93298C 1.05893 4.911 0.770947 4.89098 0.499981 4.89098C 0.224 4.89098 -8.01032e-08 5.11499 -8.01032e-08 5.39099C -8.01032e-08 5.66699 0.224 5.891 0.499981 5.891C 1.06694 5.891 1.74991 5.993 1.7569 5.99399C 1.9059 6.01597 2.05889 5.97097 2.17185 5.867C 2.28284 5.76402 2.34186 5.61501 2.33084 5.46402C 2.25486 4.42303 2.31683 3.33503 2.46283 3.00006C 3.1128 2.99908 4.3887 2.99106 5.18965 2.19209C 5.32164 2.06107 5.43361 1.91609 5.52464 1.75709C 6.60157 2.82208 8.7714 3.84905 10.8683 3.98508C 10.9873 4.82508 11.3552 5.66108 11.3742 5.70308C 11.4552 5.8851 11.6352 6.00008 11.8312 6.00008C 11.8452 6.00008 11.8582 6.00008 11.8722 5.9991L 13.2041 5.89011C 13.4791 5.86803 13.6831 5.62602 13.6611 5.35101Z"/>
		<path id="icon-menu-3-fill-5" d="M 1.4999 2.51767e-07L 0.499982 2.51767e-07C 0.224001 2.51767e-07 -8.01032e-08 0.224013 -8.01032e-08 0.50001C -8.01032e-08 0.776008 0.224001 1.00002 0.499982 1.00002L 1.4999 1.00002C 1.77588 1.00002 1.99988 0.776008 1.99988 0.50001C 1.99988 0.224013 1.77588 2.51767e-07 1.4999 2.51767e-07Z"/>
		<path id="icon-menu-3-fill-7" d="M 1.4999 2.51767e-07L 0.499982 2.51767e-07C 0.224001 2.51767e-07 6.17939e-07 0.224013 6.17939e-07 0.50001C 6.17939e-07 0.776008 0.224001 1.00002 0.499982 1.00002L 1.4999 1.00002C 1.77588 1.00002 1.99988 0.776008 1.99988 0.50001C 1.99988 0.224013 1.77588 2.51767e-07 1.4999 2.51767e-07Z"/>
		<path id="icon-menu-3-fill-9" d="M 23.9852 7.3768L 23.2082 4.26982C 23.0303 3.56084 22.5533 2.96685 21.9003 2.63985L 16.7237 0.0518599C 16.6007 -0.00912382 16.4577 -0.0161547 16.3277 0.0298761C 16.1977 0.0768912 16.0947 0.17589 16.0397 0.302873L 13.4649 6.31181L 13.0859 5.55484C 13.4199 5.09682 13.9999 4.19787 13.9999 3.49986C 13.9999 2.57488 13.2329 1.99987 12 1.99987C 10.7671 1.99987 10.0001 2.57488 10.0001 3.49986C 10.0001 4.19787 10.5801 5.09682 10.9141 5.55685L 10.5351 6.31383L 7.96033 0.304889C 7.90535 0.177906 7.80233 0.0789068 7.67235 0.0318916C 7.54237 -0.0151235 7.39937 -0.00710825 7.27638 0.0538755L 2.09967 2.64186C 1.44571 2.96886 0.969728 3.56286 0.791756 4.27183L 0.0148091 7.37882C -0.0221728 7.52783 0.010825 7.68683 0.105787 7.80781C 0.200796 7.92879 0.346755 7.99981 0.500776 7.99981L 23.4992 7.99981C 23.6532 7.99981 23.7992 7.92879 23.8942 7.8058C 23.9892 7.68481 24.0222 7.52581 23.9852 7.3768ZM 1.14175 6.99979L 1.76472 4.5138C 1.8707 4.08879 2.15568 3.73179 2.54865 3.53581L 7.25032 1.18482L 9.74315 6.99974L 1.14175 6.99974L 1.14175 6.99979ZM 12.053 5.72382L 12.6919 6.99979L 11.309 6.99979L 11.948 5.72382C 12.035 5.54982 12.013 5.33982 11.891 5.18781C 11.531 4.7388 11.0001 3.89182 11.0001 3.49981C 11.0001 3.04883 11.699 2.9998 12 2.9998C 12.3009 2.9998 12.9999 3.04878 12.9999 3.49981C 12.9999 3.89482 12.4789 4.72478 12.1099 5.18781C 11.989 5.34081 11.966 5.54982 12.053 5.72382ZM 14.2578 6.99979L 16.7517 1.18383L 21.4533 3.53482C 21.8453 3.73081 22.1313 4.0878 22.2372 4.5138L 22.8592 6.99979L 14.2578 6.99979Z"/>
	</defs>
</svg>