<svg width="22" height="22" viewBox="0 0 22 22" fill="none" xmlns="http://www.w3.org/2000/svg">
<path d="M11 0C4.93443 0 0 4.93443 0 11C0 17.0656 4.93443 22 11 22C17.0656 22 22 17.0656 22 11C22 4.93443 17.0656 0 11 0ZM11 20.6462C5.68108 20.6462 1.35385 16.3189 1.35385 11C1.35385 5.68108 5.68108 1.35385 11 1.35385C16.3189 1.35385 20.6462 5.68108 20.6462 11C20.6462 16.3189 16.3189 20.6462 11 20.6462Z" fill="#8E9AAC"/>
<path d="M11.1751 17.901C11.8004 17.901 12.3073 17.3941 12.3073 16.7689C12.3073 16.1436 11.8004 15.6367 11.1751 15.6367C10.5499 15.6367 10.043 16.1436 10.043 16.7689C10.043 17.3941 10.5499 17.901 11.1751 17.901Z" fill="#8E9AAC"/>
<path d="M10.9612 4.32812C9.92311 4.32812 8.92296 4.76812 8.14518 5.56689C7.88422 5.83496 7.88998 6.26345 8.1577 6.52406C8.42542 6.78502 8.85459 6.77926 9.11487 6.51154C9.63576 5.97643 10.2917 5.68197 10.9612 5.68197C12.4254 5.68197 13.6167 6.84662 13.6167 8.27831C13.6167 9.66092 12.3279 10.8736 10.9558 10.8736C10.5821 10.8736 10.1942 11.1769 10.1942 11.5506V13.9922C10.1942 14.3659 10.4975 14.6691 10.8711 14.6691C11.2448 14.6691 11.5481 14.3659 11.5481 13.9922V12.1659C13.5788 11.8328 14.886 10.1876 14.886 8.27831C14.8856 6.09997 13.172 4.32812 10.9612 4.32812Z" fill="#8E9AAC"/>
</svg>
