<svg width="19" height="20" viewBox="0 0 19 20" version="1.1" xmlns="http://www.w3.org/2000/svg" xmlns:xlink="http://www.w3.org/1999/xlink">
	<g id="Canvas" transform="translate(-176 4292)">
		<use xlink:href="#path0_fill" transform="translate(176 -4292)" fill="#8E9AAC"/>
		<use xlink:href="#path1_fill" transform="translate(177.113 -4287.32)" fill="#8E9AAC"/>
	</g>
	<defs>
		<path id="path0_fill" d="M 17.3301 0C 16.4093 0 15.6602 0.78703 15.6602 1.75437C 15.6602 1.94695 15.6903 2.13218 15.7451 2.3057L 8.87858 9.44748C 8.71222 9.38897 8.53446 9.35674 8.34959 9.35674C 8.1655 9.35674 7.98844 9.38865 7.82272 9.44678L 6.59404 8.15596C 6.64933 7.98182 6.67967 7.79584 6.67967 7.60245C 6.67967 6.63507 5.93053 5.84807 5.00975 5.84807C 4.08894 5.84807 3.33984 6.6351 3.33984 7.60245C 3.33984 7.79584 3.37021 7.98182 3.42547 8.15596L 2.19679 9.44678C 2.03107 9.38869 1.85401 9.35674 1.66992 9.35674C 0.749106 9.35674 -4.78703e-10 10.1438 -4.78703e-10 11.1111C -4.78703e-10 12.0785 0.749143 12.8655 1.66992 12.8655C 2.59069 12.8655 3.33984 12.0785 3.33984 11.1111C 3.33984 10.7662 3.2442 10.4445 3.07993 10.1729L 4.11679 9.08369C 4.37524 9.25627 4.68147 9.3567 5.00979 9.3567C 5.33811 9.3567 5.6443 9.25623 5.90279 9.08369L 6.93965 10.1729C 6.77538 10.4445 6.67975 10.7662 6.67975 11.1111C 6.67975 12.0785 7.42889 12.8655 8.34966 12.8655C 9.27044 12.8655 10.0196 12.0785 10.0196 11.1111C 10.0196 10.7672 9.92454 10.4464 9.76117 10.1754L 16.4348 3.23417C 16.6937 3.40769 17.0008 3.50874 17.3301 3.50874C 18.2509 3.50874 19 2.72171 19 1.75437C 19 0.78703 18.2509 0 17.3301 0ZM 1.66984 11.6959C 1.36291 11.6959 1.11319 11.4335 1.11319 11.1111C 1.11319 10.7886 1.36291 10.5263 1.66984 10.5263C 1.97678 10.5263 2.2265 10.7886 2.2265 11.1111C 2.2265 11.4335 1.97678 11.6959 1.66984 11.6959ZM 5.00972 8.18713C 4.70278 8.18713 4.45306 7.92479 4.45306 7.60233C 4.45306 7.27987 4.70278 7.01753 5.00972 7.01753C 5.31665 7.01753 5.56637 7.27987 5.56637 7.60233C 5.56637 7.92479 5.31665 8.18713 5.00972 8.18713ZM 8.34955 11.6959C 8.04261 11.6959 7.7929 11.4335 7.7929 11.1111C 7.7929 10.7886 8.04261 10.5263 8.34955 10.5263C 8.65649 10.5263 8.9062 10.7886 8.9062 11.1111C 8.9062 11.4335 8.65649 11.6959 8.34955 11.6959ZM 17.3301 2.33918C 17.0231 2.33918 16.7734 2.07683 16.7734 1.75437C 16.7734 1.43191 17.0231 1.16957 17.3301 1.16957C 17.637 1.16957 17.8867 1.43191 17.8867 1.75437C 17.8867 2.07683 17.637 2.33918 17.3301 2.33918Z"/>
		<path id="path1_fill" d="M 16.938 0.17032C 16.4212 0.709265 7.55263 9.9578 7.23781 10.2861C 7.19617 10.2423 4.32482 7.22574 4.28824 7.18757C 4.0728 6.9632 3.72095 6.96042 3.5028 7.18945L 0.163043 10.6982C 0.0586732 10.8079 -5.67351e-10 10.9565 -5.67351e-10 11.1117L -5.67351e-10 14.7374C -5.67351e-10 15.0604 0.249231 15.3222 0.556652 15.3222L 17.3301 15.3222C 17.6375 15.3222 17.8868 15.0604 17.8868 14.7374L 17.8868 0.585359C 17.8868 0.0666097 17.2884 -0.195187 16.938 0.17032ZM 3.33984 14.1526L 1.11327 14.1526L 1.11327 11.3539L 3.33984 9.01468L 3.33984 14.1526ZM 6.67971 14.1526L 4.45314 14.1526L 4.45314 9.01468L 6.67971 11.3538L 6.67971 14.1526ZM 10.0595 14.1526L 7.79297 14.1526L 7.79297 11.3551L 10.0595 9.01077L 10.0595 14.1526ZM 13.3253 14.1526L 11.1654 14.1526L 11.1654 7.8498L 13.3253 5.61672L 13.3253 14.1526ZM 16.7735 14.1526L 14.4311 14.1526L 14.4311 4.45574L 16.7735 1.98981L 16.7735 14.1526Z"/>
	</defs>
</svg>