<svg width="15" height="22" viewBox="0 0 15 22" fill="none" xmlns="http://www.w3.org/2000/svg">
<path d="M15 21.4211V4.63158C14.9994 4.47828 14.9426 4.3315 14.842 4.22342L11.092 0.170789C10.992 0.0620667 10.8561 0.000646334 10.7143 0L0.484827 0C0.351743 0.0137239 0.228216 0.0807274 0.13851 0.18785C0.0488037 0.294972 -0.000599023 0.434472 5.48276e-06 0.578947V21.4211C5.48276e-06 21.5746 0.0564466 21.7219 0.156913 21.8304C0.257378 21.939 0.393639 22 0.53572 22H14.4643C14.6033 21.9898 14.7341 21.9256 14.8326 21.8191C14.9311 21.7127 14.9906 21.5713 15 21.4211ZM1.07143 20.8421V1.15789H10.1786V4.63158C10.1786 4.78513 10.235 4.93238 10.3355 5.04096C10.4359 5.14953 10.5722 5.21053 10.7143 5.21053H13.9286V20.8421H1.07143ZM11.25 1.97132L13.1759 4.05263H11.25V1.97132ZM2.89554 2.89474C2.75346 2.90203 2.61988 2.97002 2.52419 3.08375C2.42849 3.19748 2.37852 3.34764 2.38527 3.50118C2.39202 3.65473 2.45493 3.79909 2.56017 3.90251C2.66541 4.00592 2.80435 4.05993 2.94643 4.05263H6.16072C6.3028 4.05493 6.43991 3.99615 6.54188 3.8892C6.64385 3.78226 6.70234 3.63591 6.70447 3.48237C6.7066 3.32882 6.6522 3.18065 6.55324 3.07045C6.45428 2.96024 6.31887 2.89704 6.17679 2.89474H2.89554ZM2.89554 6.36842C2.82519 6.37203 2.75619 6.39058 2.69247 6.42301C2.62875 6.45545 2.57157 6.50112 2.52419 6.55744C2.42849 6.67117 2.37852 6.82132 2.38527 6.97487C2.38861 7.0509 2.40578 7.12547 2.43579 7.19433C2.4658 7.26319 2.50806 7.32498 2.56017 7.37619C2.66541 7.47961 2.80435 7.53361 2.94643 7.52632H12.0536C12.1957 7.52862 12.3328 7.46983 12.4347 7.36289C12.5367 7.25594 12.5952 7.1096 12.5973 6.95605C12.5995 6.80251 12.5451 6.65433 12.4461 6.54413C12.3471 6.43393 12.2117 6.37072 12.0696 6.36842H2.89554ZM2.89554 8.68421C2.82519 8.68782 2.75619 8.70637 2.69247 8.7388C2.62875 8.77124 2.57157 8.81691 2.52419 8.87323C2.42849 8.98696 2.37852 9.13711 2.38527 9.29066C2.38861 9.36669 2.40578 9.44126 2.43579 9.51012C2.4658 9.57898 2.50806 9.64077 2.56017 9.69198C2.66541 9.7954 2.80435 9.8494 2.94643 9.8421L12.0536 9.85947C12.1239 9.86061 12.1938 9.84677 12.2592 9.81873C12.3246 9.79069 12.3842 9.749 12.4347 9.69604C12.4852 9.64309 12.5256 9.57991 12.5535 9.5101C12.5814 9.4403 12.5963 9.36524 12.5973 9.28921C12.5984 9.21318 12.5856 9.13767 12.5596 9.067C12.5337 8.99632 12.4951 8.93186 12.4461 8.87729C12.3971 8.82272 12.3386 8.77912 12.274 8.74897C12.2094 8.71882 12.14 8.70272 12.0696 8.70158H12.0536L2.94643 8.68421H2.89554ZM2.89554 11C2.82519 11.0036 2.75619 11.0222 2.69247 11.0546C2.62875 11.087 2.57157 11.1327 2.52419 11.189C2.4768 11.2453 2.44015 11.3112 2.41631 11.3828C2.39248 11.4544 2.38193 11.5304 2.38527 11.6064C2.38861 11.6825 2.40578 11.757 2.43579 11.8259C2.4658 11.8948 2.50806 11.9566 2.56017 12.0078C2.61228 12.059 2.67321 12.0986 2.73949 12.1243C2.80576 12.1501 2.87608 12.1615 2.94643 12.1579L12.0536 12.1753C12.1957 12.1776 12.3328 12.1188 12.4347 12.0118C12.5367 11.9049 12.5952 11.7585 12.5973 11.605C12.5995 11.4515 12.5451 11.3033 12.4461 11.1931C12.3471 11.0829 12.2117 11.0197 12.0696 11.0174H12.0536L2.94643 11H2.89554ZM2.89554 13.3158C2.82519 13.3194 2.75619 13.338 2.69247 13.3704C2.62875 13.4028 2.57157 13.4485 2.52419 13.5048C2.42849 13.6185 2.37852 13.7687 2.38527 13.9222C2.38861 13.9983 2.40578 14.0728 2.43579 14.1417C2.4658 14.2106 2.50806 14.2724 2.56017 14.3236C2.66541 14.427 2.80435 14.481 2.94643 14.4737H7.76786C7.90994 14.476 8.04705 14.4172 8.14902 14.3103C8.25099 14.2033 8.30948 14.057 8.31161 13.9034C8.31374 13.7499 8.25934 13.6017 8.16039 13.4915C8.06143 13.3813 7.92601 13.3181 7.78393 13.3158H2.89554ZM2.89554 17.9474C2.82519 17.951 2.75619 17.9695 2.69247 18.002C2.62875 18.0344 2.57157 18.0801 2.52419 18.1364C2.42849 18.2501 2.37852 18.4003 2.38527 18.5538C2.38861 18.6298 2.40578 18.7044 2.43579 18.7733C2.4658 18.8421 2.50806 18.9039 2.56017 18.9551C2.66541 19.0586 2.80435 19.1126 2.94643 19.1053H6.16072C6.23107 19.1064 6.30094 19.0926 6.36634 19.0645C6.43174 19.0365 6.49139 18.9948 6.54188 18.9418C6.59237 18.8889 6.63272 18.8257 6.66061 18.7559C6.68851 18.6861 6.70341 18.611 6.70447 18.535C6.70552 18.459 6.69271 18.3835 6.66676 18.3128C6.64082 18.2421 6.60224 18.1776 6.55324 18.1231C6.50424 18.0685 6.44578 18.0249 6.38119 17.9948C6.31659 17.9646 6.24714 17.9485 6.17679 17.9474H2.89554Z" fill="#8E9AAC"/>
</svg>
