<svg width="28" height="18" viewBox="0 0 28 18" fill="none" xmlns="http://www.w3.org/2000/svg">
<path d="M26.2165 0H1.78347C0.800078 0 0 0.789057 0 1.7589V16.2411C0 17.2109 0.800078 18 1.78347 18H26.2165C27.1999 18 28 17.2109 28 16.2411V1.7589C28 0.789057 27.1999 0 26.2165 0ZM26.811 16.241C26.811 16.5643 26.5443 16.8274 26.2165 16.8274H1.78347C1.45567 16.8274 1.18896 16.5643 1.18896 16.241V1.75885C1.18896 1.43557 1.45567 1.17253 1.78347 1.17253H26.2165C26.5443 1.17253 26.811 1.43557 26.811 1.75885V16.241Z" fill="#8E9AAC"/>
<path d="M23.084 5.1439H16.7038C16.3755 5.1439 16.1093 5.40646 16.1093 5.73022C16.1093 6.05404 16.3755 6.31654 16.7038 6.31654H23.084C23.4123 6.31654 23.6785 6.05404 23.6785 5.73022C23.6785 5.40646 23.4123 5.1439 23.084 5.1439Z" fill="#8E9AAC"/>
<path d="M23.084 8.41367H16.7038C16.3755 8.41367 16.1093 8.67617 16.1093 8.99999C16.1093 9.32375 16.3755 9.58631 16.7038 9.58631H23.084C23.4123 9.58631 23.6785 9.32375 23.6785 8.99999C23.6785 8.67617 23.4123 8.41367 23.084 8.41367Z" fill="#8E9AAC"/>
<path d="M23.084 11.6833H16.7038C16.3755 11.6833 16.1093 11.9459 16.1093 12.2696C16.1093 12.5934 16.3755 12.8559 16.7038 12.8559H23.084C23.4123 12.8559 23.6785 12.5934 23.6785 12.2696C23.6785 11.9459 23.4123 11.6833 23.084 11.6833Z" fill="#8E9AAC"/>
<path d="M10.9784 10.8468C10.9663 10.846 9.87827 10.8907 9.58438 9.72982C9.98147 9.42159 10.3147 8.9933 10.5528 8.48179C10.5704 8.48351 10.588 8.48567 10.6055 8.48567C10.7676 8.48561 10.9246 8.4128 11.0277 8.28212C11.5269 7.64974 11.7865 6.82865 11.7588 5.97007C11.701 4.19002 10.4453 2.78676 8.89794 2.77026C8.85561 2.76859 8.81793 2.76966 8.78747 2.77074L8.78529 2.7708C8.40986 2.61034 8.01436 2.53516 7.60677 2.54837C6.73549 2.57582 5.93607 3.00147 5.35594 3.74695C4.80004 4.4612 4.51124 5.3906 4.54279 6.36422C4.54815 6.52893 4.56139 6.68081 4.58261 6.82471C4.64019 7.23925 4.75613 7.63664 4.92719 8.00571C5.00939 8.1831 5.18417 8.30138 5.3817 8.31303C5.43546 8.31642 5.48823 8.31098 5.53898 8.29895C5.78108 8.89077 6.14689 9.38324 6.58931 9.72707C6.30127 10.886 5.20681 10.8462 5.19483 10.8469C4.02512 10.8847 3.08521 11.8342 3.08521 12.9967V15.1333C3.08521 15.4247 3.32474 15.661 3.62027 15.661H12.5529C12.8484 15.661 13.0879 15.4247 13.0879 15.1333V12.9967C13.088 11.8341 12.148 10.8846 10.9784 10.8468ZM5.6494 6.72542C5.64694 6.70929 5.64458 6.69306 5.64229 6.67682C5.62632 6.56831 5.61653 6.45488 5.61248 6.33024C5.58875 5.59986 5.79913 4.91064 6.20491 4.38942C6.58619 3.89943 7.09637 3.62021 7.64112 3.603C7.65911 3.60241 8.08671 3.56902 8.44639 3.77867C8.52169 3.82257 8.61395 3.83567 8.70096 3.83357C8.71195 3.8333 8.8723 3.82532 8.88039 3.82537C9.83906 3.83158 10.6506 4.80876 10.6893 6.00367C10.6938 6.14055 10.6882 6.27582 10.6732 6.40812C10.3191 5.8087 9.79307 5.34454 9.16712 5.08495C9.03258 5.02924 8.88077 5.03005 8.7469 5.08727C8.61297 5.14455 8.50862 5.25334 8.45798 5.38833C8.41669 5.49847 8.36649 5.6058 8.3089 5.70746C8.16841 5.95524 7.88097 6.10134 7.55881 6.09137C7.49472 6.08921 7.42997 6.0891 7.36626 6.0911C7.05273 6.10102 6.74697 6.15997 6.45533 6.26714C6.16401 6.37565 5.89325 6.52969 5.6494 6.72542ZM6.39506 7.49134C6.53063 7.39253 6.6796 7.31945 6.83125 7.25537C7.10775 7.13845 7.48137 7.14481 7.52179 7.14621C8.21101 7.1693 8.84019 6.85125 9.1903 6.30942C9.4633 6.51572 9.68878 6.79359 9.84606 7.12286C9.68036 8.30709 8.93305 9.20801 8.08507 9.20801C7.32852 9.20801 6.64952 8.50228 6.39506 7.49134ZM7.57079 10.2039C7.73824 10.2428 7.91012 10.2633 8.08507 10.2633C8.26165 10.2633 8.43458 10.2427 8.60258 10.2041C8.77501 10.7471 9.1372 11.2079 9.61178 11.5117C9.38351 12.1311 8.7796 12.5655 8.08665 12.5655C7.39371 12.5655 6.78979 12.1311 6.56147 11.5116C7.03616 11.2078 7.39836 10.747 7.57079 10.2039ZM4.15539 14.6055V12.9967C4.15539 12.3921 4.65408 11.9004 5.26708 11.9004C5.27933 11.9004 5.47451 11.8893 5.55812 11.8782C5.93908 12.903 6.93936 13.6209 8.0866 13.6209C9.23383 13.6209 10.2341 12.903 10.6151 11.8782C10.6988 11.8893 10.8938 11.9004 10.9061 11.9004C11.5191 11.9004 12.0178 12.3922 12.0178 12.9967V14.6055H4.15539Z" fill="#8E9AAC"/>
</svg>
