<svg width="19" height="20" viewBox="0 0 19 20" fill="none" xmlns="http://www.w3.org/2000/svg">
<path d="M12.8329 2.42928C12.4111 2.24502 11.9199 2.43756 11.7356 2.85932C11.5513 3.28109 11.7439 3.77234 12.1656 3.9566C14.8771 5.14114 16.6668 7.82292 16.6668 10.833C16.6668 14.975 13.3085 18.3331 9.16671 18.3331C5.02442 18.3331 1.66665 14.9753 1.66665 10.833C1.66665 7.82358 3.45573 5.1418 6.16638 3.95648C6.58806 3.77211 6.78045 3.28077 6.59603 2.85909C6.41165 2.43741 5.92032 2.24502 5.49864 2.42944C2.18654 3.87769 0 7.1553 0 10.833C0 15.8958 4.10398 19.9997 9.16675 19.9997C14.229 19.9997 18.3335 15.8955 18.3335 10.833C18.3335 7.15444 16.1461 3.87668 12.8329 2.42928Z" fill="#8E9AAC"/>
<path d="M9.16634 9.16675C9.62657 9.16675 9.99966 8.79366 9.99966 8.33343V0.833366C9.9997 0.373089 9.62657 0 9.16634 0C8.7061 0 8.33301 0.373089 8.33301 0.833327V8.33339C8.33301 8.79362 8.7061 9.16675 9.16634 9.16675Z" fill="#8E9AAC"/>
</svg>
