<svg width="26" height="24" viewBox="0 0 26 24" version="1.1" xmlns="http://www.w3.org/2000/svg" xmlns:xlink="http://www.w3.org/1999/xlink">
	<g transform="translate(-173 4353)">
		<use xlink:href="#path0_fill" transform="translate(173 -4353)" fill="#3498DB"/>
	</g>
	<defs>
		<path id="path0_fill" d="M 25.9999 11.7C 25.9999 11.1443 25.6946 10.6445 25.2029 10.3956L 23.2671 9.41664L 25.2029 8.43773C 25.6945 8.1889 26 7.68902 26 7.13326C 26 6.5776 25.6947 6.07783 25.203 5.82889L 14.274 0.302332C 13.4762 -0.100786 12.5236 -0.100786 11.7256 0.302384L 0.796806 5.82915C 0.305347 6.07788 1.01296e-07 6.5776 1.01296e-07 7.13331C 1.01296e-07 7.68907 0.305296 8.18879 0.796958 8.43773L 2.73278 9.41664L 0.796704 10.3957C 0.305296 10.6445 1.01296e-07 11.1443 1.01296e-07 11.7C 1.01296e-07 12.2558 0.305296 12.7555 0.796958 13.0044L 2.73278 13.9833L 0.79711 14.9622C 0.305702 15.2105 0.000203225 15.7101 1.01296e-07 16.2659C -0.000203023 16.822 0.305093 17.3221 0.796958 17.571L 11.7258 23.0977C 12.1247 23.2993 12.5622 23.4 12.9999 23.4C 13.4376 23.4 13.8753 23.2992 14.2742 23.0976L 25.2031 17.571C 25.6948 17.3222 26.0001 16.8221 25.9999 16.266C 25.9997 15.7101 25.6942 15.2106 25.2029 14.9624L 23.2671 13.9834L 25.2031 13.0044C 25.6946 12.7555 25.9999 12.2558 25.9999 11.7ZM 1.33173 7.35657C 1.21296 7.29643 1.19528 7.19088 1.19528 7.13336C 1.19528 7.07584 1.21306 6.9703 1.33153 6.91031L 12.26 1.38385C 12.4917 1.26676 12.7459 1.20831 13.0001 1.20831C 13.2541 1.20831 13.5082 1.26681 13.7398 1.3838L 24.6682 6.91021C 24.7869 6.9703 24.8047 7.07584 24.8047 7.13336C 24.8047 7.19088 24.787 7.29643 24.6682 7.35657L 13.7399 12.8829C 13.2766 13.117 12.7233 13.117 12.2602 12.8829L 1.33173 7.35657ZM 24.6686 16.0437C 24.7869 16.1035 24.8046 16.2088 24.8046 16.2664C 24.8047 16.324 24.7869 16.4298 24.6684 16.4898L 13.7399 22.0162C 13.2765 22.2503 12.7233 22.2504 12.2602 22.0163L 1.33173 16.4898C 1.21296 16.4297 1.19523 16.324 1.19528 16.2663C 1.19528 16.2088 1.21296 16.1034 1.33153 16.0436L 4.06924 14.6591L 11.7258 18.5309C 12.1247 18.7325 12.5622 18.8332 12.9998 18.8332C 13.4375 18.8332 13.8752 18.7324 14.2742 18.5309L 21.9306 14.6591L 24.6686 16.0437ZM 24.6683 11.9231L 13.7399 17.4496C 13.2765 17.6837 12.7233 17.6837 12.2602 17.4496L 1.33173 11.9232C 1.21296 11.8631 1.19528 11.7576 1.19528 11.7001C 1.19528 11.6424 1.21296 11.537 1.33153 11.477L 4.06924 10.0925L 11.7258 13.9643C 12.1247 14.1659 12.5623 14.2666 12.9998 14.2666C 13.4374 14.2666 13.8752 14.1659 14.2741 13.9642L 21.9306 10.0925L 24.6681 11.4768C 24.7869 11.537 24.8046 11.6424 24.8046 11.7C 24.8046 11.7575 24.7869 11.8631 24.6683 11.9231Z"/>
	</defs>
</svg>