<svg width="22" height="18" viewBox="0 0 22 18" version="1.1" xmlns="http://www.w3.org/2000/svg" xmlns:xlink="http://www.w3.org/1999/xlink">
	<g id="Canvas" transform="translate(-175 2764)">
		<use xlink:href="#icon-menu-8-fill-1" transform="translate(175 -2764)" fill="#8E9AAC"/>			
	</g>
	<defs>
		<path id="icon-menu-8-fill-1" d="M 20.4294 0L 1.57342 0C 0.703476 0 0 0.670803 0 1.49917L 0 16.5008C 0 17.3279 0.703476 18 1.57342 18L 20.4294 18C 21.2944 18 22 17.3279 22 16.5008L 22 1.49917C 22 0.670803 21.2944 0 20.4294 0ZM 7.51396 1.1262C 7.94789 1.1262 8.29823 1.45994 8.29823 1.87612C 8.29823 2.2903 7.94789 2.62404 7.51396 2.62404C 7.08004 2.62404 6.7276 2.2903 6.7276 1.87612C 6.7276 1.45994 7.08004 1.1262 7.51396 1.1262ZM 5.10821 1.1262C 5.54214 1.1262 5.89457 1.45994 5.89457 1.87612C 5.89457 2.2903 5.54214 2.62404 5.10821 2.62404C 4.67289 2.62404 4.32046 2.28964 4.32046 1.87612C 4.32046 1.45994 4.67289 1.1262 5.10821 1.1262ZM 2.74913 1.1262C 3.18306 1.1262 3.53549 1.45994 3.53549 1.87612C 3.53549 2.2903 3.18306 2.62404 2.74913 2.62404C 2.3166 2.62404 1.96486 2.28964 1.96486 1.87612C 1.96486 1.45994 2.3166 1.1262 2.74913 1.1262ZM 20.4294 16.5008L 1.57342 16.5008L 1.57342 3.76687L 20.4294 3.76687L 20.4294 16.5008ZM 20.4294 2.26637L 9.42797 2.26637L 9.42797 1.51645L 20.4294 1.51645L 20.4294 2.26637Z"/>
	</defs>
</svg>