<svg width="30" height="30" viewBox="0 0 30 30" fill="none" xmlns="http://www.w3.org/2000/svg">
<path d="M15 0C6.72904 0 0 6.72904 0 15C0 23.271 6.72904 30 15 30C23.271 30 30 23.271 30 15C30 6.72904 23.2711 0 15 0ZM15 28.026C7.81748 28.026 1.97411 22.1825 1.97411 15C1.97411 7.81748 7.81748 1.97411 15 1.97411C22.1825 1.97411 28.0259 7.81748 28.0259 15C28.0259 22.1825 22.1825 28.026 15 28.026Z" fill="#8E9AAC"/>
<path d="M5.80501 10.2076V4.60334C6.36355 4.81077 6.85087 5.19135 7.18971 5.70603C7.48964 6.16134 8.10175 6.2874 8.55692 5.98762C9.01224 5.68784 9.1383 5.07572 8.83838 4.62041C8.12925 3.54367 7.03658 2.81269 5.80501 2.55506V0.987056C5.80501 0.441919 5.36309 -8.8216e-08 4.81796 -8.8216e-08C4.27282 -8.8216e-08 3.8309 0.441919 3.8309 0.987056V2.5521C1.64627 3.00756 -5.16386e-08 4.94769 -5.16386e-08 7.26543C-5.16386e-08 9.58318 1.64641 11.5236 3.8309 11.979V17.5833C3.27237 17.3758 2.78505 16.9953 2.44621 16.4806C2.14628 16.0253 1.53417 15.8991 1.07899 16.199C0.623678 16.4988 0.497617 17.1109 0.79754 17.5662C1.50667 18.6429 2.59934 19.3739 3.8309 19.6315V21.1994C3.8309 21.7446 4.27282 22.1865 4.81796 22.1865C5.36309 22.1865 5.80501 21.7446 5.80501 21.1994V19.6345C7.98965 19.1791 9.63592 17.2389 9.63592 14.9212C9.63592 12.6034 7.98965 10.663 5.80501 10.2076ZM1.97411 7.26543C1.97411 6.04529 2.74881 5.0055 3.8309 4.60405V9.92682C2.74881 9.52537 1.97411 8.48557 1.97411 7.26543ZM5.80501 17.5824V12.2597C6.88711 12.6611 7.66181 13.7009 7.66181 14.921C7.66181 16.1412 6.88725 17.181 5.80501 17.5824Z" transform="translate(10.1821 3.91016)" fill="#8E9AAC"/>
</svg>
