<svg width="22" height="19" viewBox="0 0 22 19" version="1.1" xmlns="http://www.w3.org/2000/svg" xmlns:xlink="http://www.w3.org/1999/xlink">
	<g transform="translate(-175 2885)">
		<use xlink:href="#icon-menu-6-fill-1" transform="translate(175 -2885)"/>
	</g>
	<defs>
		<path id="icon-menu-6-fill-1" d="M 22 6.22331C 22 4.97548 20.9611 3.96029 19.6842 3.96029C 18.4073 3.96029 17.3684 4.97548 17.3684 6.22331C 17.3684 6.55716 17.4433 6.87399 17.5767 7.15953C 17.0917 7.44365 16.5333 7.59731 15.9624 7.59731C 14.3993 7.59731 13.0892 6.47677 12.8569 4.99681C 13.4907 4.47745 13.8947 3.69846 13.8947 2.82878C 13.8947 1.26899 12.5962 0 11 0C 9.40384 0 8.10526 1.26899 8.10526 2.82878C 8.10526 3.69846 8.50925 4.47745 9.14314 4.99675C 8.91075 6.47677 7.60071 7.59725 6.03755 7.59725C 5.46665 7.59725 4.90832 7.44365 4.42327 7.15947C 4.55661 6.87399 4.63158 6.55716 4.63158 6.22331C 4.63158 4.97548 3.59272 3.96029 2.31579 3.96029C 1.03886 3.96029 0 4.97548 0 6.22331C 0 7.29027 0.759753 8.18649 1.77812 8.4241L 3.42598 14.06C 3.44514 14.1256 3.47218 14.1875 3.50506 14.2454C 3.48526 14.3185 3.47368 14.3949 3.47368 14.474L 3.47368 18.1042C 3.47368 18.5981 3.88497 19 4.39039 19L 17.6096 19C 18.115 19 18.5263 18.5981 18.5263 18.1042L 18.5263 14.474C 18.5263 14.3949 18.5147 14.3185 18.4949 14.2454C 18.5278 14.1874 18.5549 14.1255 18.574 14.0599L 20.2219 8.4241C 21.2402 8.18649 22 7.29027 22 6.22331ZM 11 1.13151C 11.9577 1.13151 12.7368 1.89291 12.7368 2.82878C 12.7368 3.43436 12.4104 3.96651 11.9207 4.26699C 11.8922 4.28447 11.8634 4.30133 11.834 4.31711C 11.8313 4.31864 11.8285 4.32022 11.8257 4.32169C 11.7943 4.33833 11.7624 4.35366 11.7301 4.36831C 11.7213 4.37233 11.7124 4.37618 11.7035 4.38002C 11.6734 4.39309 11.643 4.40554 11.6122 4.41685C 11.6086 4.41816 11.6052 4.41963 11.6017 4.42093C 11.567 4.43349 11.5318 4.44475 11.4964 4.45504C 11.4888 4.45725 11.4811 4.45929 11.4734 4.46144C 11.4428 4.46992 11.412 4.47762 11.3809 4.48441C 11.3748 4.48576 11.3687 4.48729 11.3626 4.48854C 11.3262 4.49612 11.2895 4.50257 11.2525 4.50788C 11.2461 4.50879 11.2395 4.50947 11.2329 4.51032C 11.2023 4.51433 11.1716 4.5175 11.1407 4.51999C 11.1311 4.52073 11.1214 4.52158 11.1116 4.52214C 11.0746 4.52446 11.0374 4.52605 11.0001 4.52605C 10.9627 4.52605 10.9255 4.52446 10.8885 4.52214C 10.8788 4.52152 10.8691 4.52073 10.8594 4.51999C 10.8285 4.51756 10.7978 4.51439 10.7672 4.51032C 10.7607 4.50947 10.7541 4.50879 10.7476 4.50788C 10.7106 4.50257 10.6739 4.49612 10.6375 4.48854C 10.6314 4.48724 10.6254 4.48576 10.6192 4.48441C 10.5881 4.47756 10.5573 4.46992 10.5267 4.46144C 10.5191 4.45934 10.5114 4.45725 10.5037 4.45504C 10.4683 4.44469 10.4331 4.43349 10.3984 4.42093C 10.3949 4.41963 10.3915 4.41816 10.3879 4.41685C 10.3571 4.40548 10.3267 4.39309 10.2966 4.38002C 10.2877 4.37618 10.2789 4.37227 10.2701 4.36831C 10.2378 4.35366 10.2059 4.33833 10.1744 4.32169C 10.1716 4.32022 10.1689 4.31858 10.1661 4.31711C 10.1367 4.30133 10.1079 4.28447 10.0794 4.26699C 9.58963 3.96651 9.26316 3.43436 9.26316 2.82878C 9.26316 1.89291 10.0423 1.13151 11 1.13151ZM 2.31579 5.0918C 2.95425 5.0918 3.47368 5.5994 3.47368 6.22331C 3.47368 6.53453 3.34441 6.81673 3.13564 7.02148L 3.13297 7.02414C 3.10733 7.04909 3.08058 7.07291 3.05267 7.09548L 3.05082 7.09695C 2.96705 7.16439 2.87332 7.22034 2.77235 7.26283C 2.76882 7.2643 2.76528 7.26589 2.76175 7.26736C 2.73113 7.27992 2.69975 7.29106 2.66779 7.30102C 2.66229 7.30272 2.65679 7.30442 2.65129 7.30606C 2.61991 7.31533 2.58801 7.32348 2.55553 7.33016C 2.54997 7.33129 2.5443 7.33231 2.53874 7.33338C 2.50545 7.33978 2.47182 7.34498 2.4376 7.34849C 2.43384 7.34888 2.43002 7.34905 2.42625 7.34939C 2.38989 7.35279 2.35307 7.35488 2.31585 7.35488C 1.67738 7.35488 1.15795 6.84728 1.15795 6.22337C 1.15795 5.59945 1.67733 5.0918 2.31579 5.0918ZM 17.3684 17.8685L 4.63158 17.8685L 4.63158 14.7096L 17.3684 14.7096L 17.3684 17.8685ZM 17.5107 13.5781L 4.48933 13.5781L 2.97342 8.3935C 2.98013 8.39157 2.98673 8.38925 2.99345 8.38727C 3.003 8.38439 3.01249 8.38133 3.02205 8.37833C 3.04839 8.37007 3.07456 8.36147 3.10055 8.35231C 3.10802 8.34965 3.11543 8.34699 3.12284 8.34427C 3.15191 8.3337 3.18079 8.32255 3.20939 8.31084C 3.21327 8.30925 3.21721 8.30767 3.22109 8.30603C 3.38638 8.2374 3.5435 8.15045 3.68888 8.04567C 4.38396 8.48883 5.20115 8.72871 6.03755 8.72871C 8.04048 8.72871 9.73986 7.38424 10.2093 5.55006C 10.2225 5.55374 10.2358 5.55685 10.249 5.56036C 10.2641 5.56432 10.2792 5.56834 10.2943 5.57207C 10.3284 5.58044 10.3628 5.58825 10.3972 5.59532C 10.4214 5.60036 10.4458 5.60472 10.4702 5.60913C 10.4855 5.61184 10.5007 5.61462 10.516 5.61716C 10.5434 5.62169 10.5708 5.62587 10.5984 5.62967C 10.6011 5.63 10.6037 5.63029 10.6064 5.63063C 10.7352 5.64783 10.8664 5.6575 11 5.6575C 11.1336 5.6575 11.2648 5.64783 11.3936 5.63063C 11.3963 5.63029 11.3989 5.63 11.4016 5.62967C 11.4292 5.62587 11.4566 5.62169 11.484 5.61716C 11.4993 5.61467 11.5146 5.6119 11.5298 5.60913C 11.5542 5.60472 11.5787 5.60036 11.6028 5.59532C 11.6372 5.5882 11.6716 5.58039 11.7057 5.57207C 11.7208 5.56834 11.7358 5.56432 11.751 5.56036C 11.7642 5.55691 11.7775 5.55374 11.7907 5.55006C 12.2601 7.38424 13.9595 8.72871 15.9624 8.72871C 16.7989 8.72871 17.6161 8.48883 18.3111 8.04567C 18.4565 8.15045 18.6136 8.2374 18.7789 8.30603C 18.7828 8.30767 18.7867 8.3092 18.7906 8.31084C 18.8192 8.32255 18.848 8.3337 18.8772 8.34427C 18.8846 8.34699 18.892 8.34965 18.8994 8.35231C 18.9254 8.36147 18.9516 8.37007 18.978 8.37833C 18.9875 8.38133 18.9969 8.38439 19.0066 8.38727C 19.0133 8.38925 19.0198 8.39157 19.0266 8.3935L 17.5107 13.5781ZM 19.6842 7.35482C 19.6469 7.35482 19.6102 7.35273 19.5738 7.34934C 19.57 7.349 19.5662 7.34883 19.5625 7.34843C 19.5282 7.34492 19.4945 7.33966 19.4613 7.33333C 19.4557 7.33225 19.4501 7.33129 19.4445 7.3301C 19.412 7.32343 19.3801 7.31528 19.3488 7.306C 19.3433 7.30436 19.3377 7.30272 19.3323 7.30096C 19.3004 7.29101 19.269 7.27986 19.2383 7.2673C 19.2347 7.26583 19.2312 7.2643 19.2277 7.26278C 19.1267 7.22023 19.033 7.16433 18.9492 7.0969L 18.9474 7.09543C 18.9195 7.07285 18.8927 7.04903 18.8671 7.02408L 18.8645 7.02142C 18.6557 6.81668 18.5264 6.53448 18.5264 6.22326C 18.5264 5.59934 19.0459 5.09174 19.6843 5.09174C 20.3228 5.09174 20.8422 5.59934 20.8422 6.22326C 20.8422 6.84717 20.3227 7.35482 19.6842 7.35482Z"/>
	</defs>
</svg>