<svg width="80" height="53" viewBox="0 0 80 53" fill="none" xmlns="http://www.w3.org/2000/svg">

<path d="M39.5932 8.69015C41.9562 8.69015 43.9169 6.77024 43.9169 4.34508C43.9169 1.97044 42.0064 1.2335e-05 39.5932 1.2335e-05C37.2303 1.2335e-05 35.2695 1.91992 35.2695 4.34508C35.3198 6.71972 37.2303 8.69015 39.5932 8.69015ZM39.5932 2.52622C40.5987 2.52622 41.4031 3.3346 41.4031 4.34508C41.4031 5.35556 40.5987 6.16394 39.5932 6.16394C38.5877 6.16394 37.7833 5.35556 37.7833 4.34508C37.7833 3.3346 38.5877 2.52622 39.5932 2.52622Z" fill="#EDD06E"/>
<path d="M20.3901 20.7146C22.753 20.7146 24.7138 18.7946 24.7138 16.3695C24.7138 13.9949 22.8033 12.0244 20.3901 12.0244C18.0271 12.0244 16.0664 13.9443 16.0664 16.3695C16.0664 18.7441 17.9769 20.7146 20.3901 20.7146ZM20.3901 14.5506C21.3956 14.5506 22.2 15.359 22.2 16.3695C22.2 17.38 21.3956 18.1884 20.3901 18.1884C19.3846 18.1884 18.5802 17.38 18.5802 16.3695C18.5802 15.359 19.3846 14.5506 20.3901 14.5506Z" fill="#EDD06E"/>
<path d="M58.851 20.7146C61.214 20.7146 63.1747 18.7946 63.1747 16.3695C63.1747 13.9949 61.2642 12.0244 58.851 12.0244C56.4881 12.0244 54.5273 13.9443 54.5273 16.3695C54.5273 18.7441 56.4881 20.7146 58.851 20.7146ZM58.851 14.5506C59.8565 14.5506 60.6609 15.359 60.6609 16.3695C60.6609 17.38 59.8565 18.1884 58.851 18.1884C57.8455 18.1884 57.0411 17.38 57.0411 16.3695C57.0411 15.359 57.8455 14.5506 58.851 14.5506Z" fill="#EDD06E"/>
<path d="M78.5067 19.5023C78.0039 19.1992 77.3504 19.2497 76.9482 19.6539L65.4351 31.224L60.5584 22.4327C60.3573 22.0286 59.9048 21.7759 59.4523 21.7759C58.9998 21.7759 58.5976 22.0286 58.3463 22.4327L52.9165 32.285L40.6996 10.2564C40.4985 9.85224 40.046 9.59962 39.5935 9.59962C39.1411 9.59962 38.7388 9.85224 38.4875 10.2564L26.5722 31.7292L21.3938 22.4327C21.1927 22.0286 20.7403 21.7759 20.2878 21.7759C19.8353 21.7759 19.4331 22.0286 19.1817 22.4327L14.0536 31.6281L2.13835 19.6539C1.73615 19.2497 1.08257 19.1487 0.579814 19.5023C0.0770598 19.8055 -0.124042 20.4623 0.0770598 20.9676L9.07635 45.7749V51.7368C9.07635 52.4441 9.62938 52.9999 10.3332 52.9999H68.6527C69.3566 52.9999 69.9096 52.4441 69.9096 51.7368V45.7749L78.9089 20.9676C79.2106 20.4623 79.0095 19.856 78.5067 19.5023ZM20.3883 25.6158L25.2148 34.3059L22.6507 38.9542L22.2485 39.712L19.4331 36.8827L16.0144 33.4976L20.3883 25.6158ZM28.0302 34.3059L39.5935 13.4394L51.4585 34.8617L52.1624 36.1753L52.8662 37.4889L54.6259 40.672L55.1286 41.5814L52.3635 44.3602H49.0453H48.8945H47.6376H46.2299H33.6108H32.203H30.9462H30.7451H26.8236L24.0584 41.5814L24.7623 40.3688L26.6727 36.9332L27.3766 35.6196L28.0302 34.3059ZM59.4523 25.6158L63.5749 33.0934L58.6479 38.0447L56.9888 39.712L56.7375 39.2573L54.3242 34.8617L59.4523 25.6158ZM20.9414 41.9856L21.8463 42.895L22.7513 43.8045L23.254 44.3097H22.4999H21.0922H19.6845H11.389L4.55157 25.4642L20.9414 41.9856ZM67.8986 44.3097H59.6031H58.1954H56.7877H55.933L56.4358 43.8045L57.3408 42.895L58.2457 41.9856L74.6858 25.4642L67.8986 44.3097ZM67.4964 50.5242H11.6907V46.8359H20.3883H26.2706H52.9165H58.849H67.4964V50.5242Z" fill="#EDD06E"/>
</svg>
