<svg width="67" height="53" viewBox="0 0 67 53" fill="none" xmlns="http://www.w3.org/2000/svg">

<path d="M33.3457 8.95483C35.5029 8.95483 37.2929 6.97643 37.2929 4.47741C37.2929 2.03045 35.5488 -6.35534e-06 33.3457 -6.35534e-06C31.1885 -6.35534e-06 29.3984 1.97839 29.3984 4.47741C29.3984 6.92437 31.1885 8.95483 33.3457 8.95483ZM33.3457 2.60314C34.2636 2.60314 34.998 3.43615 34.998 4.47741C34.998 5.51867 34.2636 6.35168 33.3457 6.35168C32.4277 6.35168 31.6933 5.51867 31.6933 4.47741C31.6933 3.43615 32.4277 2.60314 33.3457 2.60314Z" fill="#878787"/>
<path d="M62.6269 14.0564C64.7841 14.0564 66.5741 12.078 66.5741 9.57898C66.5741 7.13202 64.83 5.10157 62.6269 5.10157C60.4697 5.10157 58.6797 7.07996 58.6797 9.57898C58.6797 12.078 60.4697 14.0564 62.6269 14.0564ZM62.6269 7.75678C63.5449 7.75678 64.2792 8.58977 64.2792 9.63103C64.2792 10.6723 63.5449 11.5053 62.6269 11.5053C61.709 11.5053 60.9746 10.6723 60.9746 9.63103C60.9746 8.58977 61.709 7.75678 62.6269 7.75678Z" fill="#878787"/>
<path d="M4.06053 14.0564C6.21774 14.0564 8.00775 12.078 8.00775 9.57898C8.00775 7.13202 6.26364 5.10157 4.06053 5.10157C1.90332 5.10157 0.113276 7.07996 0.113276 9.57898C0.113276 12.078 1.85742 14.0564 4.06053 14.0564ZM4.06053 7.75678C4.97849 7.75678 5.71285 8.58977 5.71285 9.63103C5.71285 10.6723 4.97849 11.5053 4.06053 11.5053C3.14257 11.5053 2.40818 10.6723 2.40818 9.63103C2.40818 8.58977 3.14257 7.75678 4.06053 7.75678Z" fill="#878787"/>
<path d="M3.41806 15.4102C3.05088 15.6705 2.86729 16.1391 2.91319 16.6077L5.57528 45.3985V51.6981C5.57528 52.427 6.08016 52.9997 6.72273 52.9997H59.9645C60.6071 52.9997 61.112 52.427 61.112 51.6981V45.3985L63.7741 16.6077C63.82 16.1391 63.6364 15.6705 63.2692 15.4102C62.902 15.1499 62.443 15.1499 62.0758 15.3581L48.2146 24.313L34.078 10.8807C33.6649 10.4642 33.0223 10.4642 32.6092 10.8807L18.4726 24.313L4.6114 15.3581C4.24421 15.1499 3.78525 15.1499 3.41806 15.4102ZM58.9089 44.0969H7.73249L6.26375 28.1656L18.0136 35.7668C18.4267 36.0272 18.9316 35.9751 19.2988 35.6107L33.2977 22.2825L47.2966 35.6107C47.5261 35.8189 47.7556 35.923 48.031 35.923C48.2146 35.923 48.3982 35.871 48.5818 35.7668L60.3317 28.1656L58.9089 44.0969ZM54.5944 49.095C54.3649 49.095 54.1355 48.8867 54.1355 48.5743C54.1355 48.262 54.319 48.0537 54.5944 48.0537C54.8239 48.0537 55.0534 48.262 55.0534 48.5743C55.0534 48.8867 54.8698 49.095 54.5944 49.095ZM46.1033 49.095C45.8738 49.095 45.6443 48.8867 45.6443 48.5743C45.6443 48.262 45.8279 48.0537 46.1033 48.0537C46.3328 48.0537 46.5623 48.262 46.5623 48.5743C46.5623 48.8867 46.3328 49.095 46.1033 49.095ZM37.5663 49.095C37.3368 49.095 37.1073 48.8867 37.1073 48.5743C37.1073 48.262 37.2909 48.0537 37.5663 48.0537C37.7957 48.0537 38.0252 48.262 38.0252 48.5743C38.0252 48.8867 37.8416 49.095 37.5663 49.095ZM29.0751 49.095C28.8456 49.095 28.6161 48.8867 28.6161 48.5743C28.6161 48.262 28.7997 48.0537 29.0751 48.0537C29.3505 48.0537 29.5341 48.262 29.5341 48.5743C29.5341 48.8867 29.3046 49.095 29.0751 49.095ZM20.584 49.095C20.3545 49.095 20.125 48.8867 20.125 48.5743C20.125 48.262 20.3086 48.0537 20.584 48.0537C20.8134 48.0537 21.0429 48.262 21.0429 48.5743C21.0429 48.8867 20.8134 49.095 20.584 49.095ZM12.0469 49.095C11.8174 49.095 11.5879 48.8867 11.5879 48.5743C11.5879 48.262 11.7715 48.0537 12.0469 48.0537C12.3223 48.0537 12.5059 48.262 12.5059 48.5743C12.5059 48.8867 12.3223 49.095 12.0469 49.095ZM7.87018 50.4486V46.648H11.3584C10.7159 46.9604 10.2569 47.6893 10.2569 48.5743C10.2569 49.4073 10.7159 50.1362 11.3584 50.5007H7.87018V50.4486ZM12.7813 50.4486C13.4239 50.1362 13.8828 49.4073 13.8828 48.5223C13.8828 47.6893 13.4239 46.9604 12.7813 46.5959H19.8037C19.1611 46.9083 18.7021 47.6372 18.7021 48.5223C18.7021 49.3553 19.1611 50.0842 19.8037 50.4486H12.7813ZM21.3183 50.4486C21.9609 50.1362 22.4199 49.4073 22.4199 48.5223C22.4199 47.6893 21.9609 46.9604 21.3183 46.5959H28.3407C27.6981 46.9083 27.2392 47.6372 27.2392 48.5223C27.2392 49.3553 27.6981 50.0842 28.3407 50.4486H21.3183ZM29.8095 50.4486C30.452 50.1362 30.911 49.4073 30.911 48.5223C30.911 47.6893 30.452 46.9604 29.8095 46.5959H36.8319C36.1893 46.9083 35.7303 47.6372 35.7303 48.5223C35.7303 49.3553 36.1893 50.0842 36.8319 50.4486H29.8095ZM38.3006 50.4486C38.9432 50.1362 39.4022 49.4073 39.4022 48.5223C39.4022 47.6893 38.9432 46.9604 38.3006 46.5959H45.323C44.6804 46.9083 44.2215 47.6372 44.2215 48.5223C44.2215 49.3553 44.6804 50.0842 45.323 50.4486H38.3006ZM46.8377 50.4486C47.4802 50.1362 47.9392 49.4073 47.9392 48.5223C47.9392 47.6893 47.4802 46.9604 46.8377 46.5959H53.8601C53.2175 46.9083 52.7585 47.6372 52.7585 48.5223C52.7585 49.3553 53.2175 50.0842 53.8601 50.4486H46.8377ZM58.8171 50.4486H55.3288C55.9714 50.1362 56.4304 49.4073 56.4304 48.5223C56.4304 47.6893 55.9714 46.9604 55.3288 46.5959H58.8171V50.4486ZM18.0136 27.0203C18.4267 27.2806 18.9316 27.2285 19.2988 26.8641L33.2977 13.5359L47.2966 26.8641C47.6638 27.2285 48.1687 27.2806 48.5818 27.0203L61.2038 18.8984L60.653 24.9898L48.1687 33.0596L34.0321 19.6273C33.619 19.2108 32.9764 19.2108 32.5634 19.6273L18.4267 33.0596L5.94246 24.9898L5.39167 18.8984L18.0136 27.0203Z" fill="#878787"/>
</svg>
