<svg width="63" height="48" viewBox="0 0 63 48" fill="none" xmlns="http://www.w3.org/2000/svg">

<path d="M31.2594 22.209C27.1993 22.209 23.8945 25.5096 23.8945 29.5646C23.8945 33.6196 27.1993 36.9202 31.2594 36.9202C35.3196 36.9202 38.6243 33.6196 38.6243 29.5646C38.6243 25.5096 35.3196 22.209 31.2594 22.209ZM31.2594 34.6098C28.474 34.6098 26.2551 32.3465 26.2551 29.6117C26.2551 26.8298 28.5212 24.6137 31.2594 24.6137C34.0449 24.6137 36.2638 26.877 36.2638 29.6117C36.2638 32.3465 33.9977 34.6098 31.2594 34.6098Z" fill="#C7C7C7"/>
<path d="M10.3023 25.5557C8.0834 25.5557 6.24219 27.3474 6.24219 29.6107C6.24219 31.8268 8.03619 33.6657 10.3023 33.6657C12.5212 33.6657 14.3625 31.8739 14.3625 29.6107C14.3625 27.3474 12.5684 25.5557 10.3023 25.5557ZM10.3023 31.261C9.3581 31.261 8.60274 30.5066 8.60274 29.5635C8.60274 28.6205 9.3581 27.8661 10.3023 27.8661C11.2465 27.8661 12.0019 28.6205 12.0019 29.5635C12.0019 30.5066 11.2465 31.261 10.3023 31.261Z" fill="#C7C7C7"/>
<path d="M52.1734 33.6178C54.3923 33.6178 56.2335 31.8261 56.2335 29.5628C56.2335 27.3467 54.4395 25.5078 52.1734 25.5078C49.9545 25.5078 48.1133 27.2996 48.1133 29.5628C48.1133 31.8261 49.9545 33.6178 52.1734 33.6178ZM52.1734 27.8654C53.1176 27.8654 53.873 28.6198 53.873 29.5628C53.873 30.5059 53.1176 31.2603 52.1734 31.2603C51.2292 31.2603 50.4738 30.5059 50.4738 29.5628C50.4738 28.667 51.2292 27.8654 52.1734 27.8654Z" fill="#C7C7C7"/>
<path d="M62.0422 13.9568C61.6645 13.721 61.1924 13.721 60.8147 13.9096L56.3297 16.4558C54.0635 13.2024 50.3339 11.222 46.3209 11.222C44.2909 11.222 42.308 11.7407 40.514 12.6837L32.2049 0.518652C31.9689 0.188594 31.6384 0 31.2135 0C30.7886 0 30.4581 0.188594 30.2221 0.518652L21.9602 12.7308C20.1662 11.7407 18.1833 11.222 16.106 11.222C12.0931 11.222 8.41066 13.1552 6.14454 16.4086L1.75394 13.9096C1.37625 13.6739 0.904124 13.721 0.526437 13.9568C0.148751 14.1925 -0.0400813 14.6169 0.00712956 15.0413L2.74535 41.1159V46.8212C2.74535 47.4813 3.26467 48 3.92562 48H58.6902C59.3511 48 59.8705 47.4813 59.8705 46.8212V41.1159L62.6087 15.0413C62.6087 14.6169 62.3727 14.1925 62.0422 13.9568ZM46.3209 13.5796C49.4841 13.5796 52.4584 15.0884 54.2996 17.6346L46.7931 21.8782L41.8831 14.664C43.2523 13.9568 44.763 13.5796 46.3209 13.5796ZM16.0588 13.5796C17.664 13.5796 19.2219 13.9568 20.591 14.7112L15.6811 21.8782L8.1274 17.5874C9.96862 15.0884 12.9429 13.5796 16.0588 13.5796ZM5.05869 45.6896V42.2475H8.64671C7.98576 42.5304 7.51366 43.1906 7.51366 43.9921C7.51366 44.7466 7.98576 45.4067 8.64671 45.7367H5.05869V45.6896ZM9.35487 44.4165C9.11882 44.4165 8.88276 44.2279 8.88276 43.945C8.88276 43.7092 9.0716 43.4735 9.35487 43.4735C9.59092 43.4735 9.82698 43.6621 9.82698 43.945C9.82698 44.2279 9.63813 44.4165 9.35487 44.4165ZM10.1103 45.6896C10.7712 45.4067 11.2433 44.7466 11.2433 43.945C11.2433 43.1906 10.7712 42.5304 10.1103 42.2004H17.3335C16.6726 42.4833 16.2004 43.1434 16.2004 43.945C16.2004 44.6994 16.6726 45.3595 17.3335 45.6896H10.1103ZM18.1361 44.4165C17.9 44.4165 17.664 44.2279 17.664 43.945C17.664 43.7092 17.8528 43.4735 18.1361 43.4735C18.3722 43.4735 18.6082 43.6621 18.6082 43.945C18.6082 44.2279 18.3722 44.4165 18.1361 44.4165ZM18.8915 45.6896C19.5524 45.4067 20.0245 44.7466 20.0245 43.945C20.0245 43.1906 19.5524 42.5304 18.8915 42.2004H26.1147C25.4538 42.4833 24.9817 43.1434 24.9817 43.945C24.9817 44.6994 25.4538 45.3595 26.1147 45.6896H18.8915ZM26.8701 44.4165C26.6341 44.4165 26.398 44.2279 26.398 43.945C26.398 43.7092 26.5868 43.4735 26.8701 43.4735C27.1534 43.4735 27.3422 43.6621 27.3422 43.945C27.3422 44.2279 27.1062 44.4165 26.8701 44.4165ZM27.6255 45.6896C28.2864 45.4067 28.7585 44.7466 28.7585 43.945C28.7585 43.1906 28.2864 42.5304 27.6255 42.2004H34.8487C34.1878 42.4833 33.7157 43.1434 33.7157 43.945C33.7157 44.6994 34.1878 45.3595 34.8487 45.6896H27.6255ZM35.6041 44.4165C35.3681 44.4165 35.132 44.2279 35.132 43.945C35.132 43.7092 35.3208 43.4735 35.6041 43.4735C35.8402 43.4735 36.0762 43.6621 36.0762 43.945C36.0762 44.2279 35.8874 44.4165 35.6041 44.4165ZM36.3595 45.6896C37.0204 45.4067 37.4925 44.7466 37.4925 43.945C37.4925 43.1906 37.0204 42.5304 36.3595 42.2004H43.5827C42.9218 42.4833 42.4497 43.1434 42.4497 43.945C42.4497 44.6994 42.9218 45.3595 43.5827 45.6896H36.3595ZM44.3853 44.4165C44.1493 44.4165 43.9132 44.2279 43.9132 43.945C43.9132 43.7092 44.1021 43.4735 44.3853 43.4735C44.6214 43.4735 44.8574 43.6621 44.8574 43.945C44.8574 44.2279 44.6214 44.4165 44.3853 44.4165ZM45.1407 45.6896C45.8016 45.4067 46.2737 44.7466 46.2737 43.945C46.2737 43.1906 45.8016 42.5304 45.1407 42.2004H52.364C51.703 42.4833 51.2309 43.1434 51.2309 43.945C51.2309 44.6994 51.703 45.3595 52.364 45.6896H45.1407ZM53.1193 44.4165C52.8833 44.4165 52.6472 44.2279 52.6472 43.945C52.6472 43.7092 52.8361 43.4735 53.1193 43.4735C53.3554 43.4735 53.5914 43.6621 53.5914 43.945C53.5914 44.2279 53.4026 44.4165 53.1193 44.4165ZM57.4627 45.6896H53.8747C54.5356 45.4067 55.0078 44.7466 55.0078 43.945C55.0078 43.1906 54.5356 42.5304 53.8747 42.2004H57.4627V45.6896ZM57.5571 39.89H4.91707L2.5093 17.0688L15.4923 24.4244C16.0116 24.7073 16.7198 24.5658 17.0502 24.0471L31.2607 3.20628L45.4712 24.0471C45.8016 24.5658 46.5098 24.7073 47.0291 24.4244L60.0121 17.0688L57.5571 39.89Z" fill="#C7C7C7"/>
</svg>
