<svg width="67" height="55" viewBox="0 0 67 55" fill="none" xmlns="http://www.w3.org/2000/svg">

<path d="M45.0434 9.00954C47.488 9.00954 49.5165 7.01907 49.5165 4.50478C49.5165 2.04287 47.5401 1.27884e-05 45.0434 1.27884e-05C42.5988 1.27884e-05 40.5703 1.99048 40.5703 4.50478C40.6223 6.96669 42.5988 9.00954 45.0434 9.00954ZM45.0434 2.61907C46.0837 2.61907 46.9159 3.45716 46.9159 4.50478C46.9159 5.5524 46.0837 6.39049 45.0434 6.39049C44.0032 6.39049 43.171 5.5524 43.171 4.50478C43.171 3.45716 44.0032 2.61907 45.0434 2.61907Z" fill="#7BD8F1"/>
<path d="M64.5473 12.1521C66.9919 12.1521 69.0205 10.1617 69.0205 7.64736C69.0205 5.18544 67.044 3.14259 64.5473 3.14259C62.1027 3.14259 60.0742 5.13306 60.0742 7.64736C60.1262 10.1617 62.1027 12.1521 64.5473 12.1521ZM64.5473 5.81402C65.5876 5.81402 66.4198 6.6521 66.4198 7.69973C66.4198 8.74735 65.5876 9.58547 64.5473 9.58547C63.5071 9.58547 62.6749 8.74735 62.6749 7.69973C62.6749 6.6521 63.5591 5.81402 64.5473 5.81402Z" fill="#7BD8F1"/>
<path d="M85.1948 20.1659C84.6227 19.8516 83.8945 20.0087 83.5304 20.5325L67.0423 43.5278L64.9097 13.6182C64.8577 12.9896 64.3896 12.5182 63.7654 12.4134C63.1413 12.361 62.5692 12.6753 62.3611 13.3039L52.3226 42.6898L46.3411 11.0515C46.2371 10.423 45.7169 10.0039 45.0928 10.0039C44.4686 10.0039 43.9485 10.423 43.8445 11.0515L37.7589 42.7945L27.7204 13.4087C27.5124 12.8325 26.9402 12.4658 26.3161 12.5182C25.6919 12.623 25.2238 13.0944 25.1718 13.723L23.0393 43.5802L6.55114 20.5849C6.18705 20.0611 5.45887 19.9039 4.88673 20.2182C4.31458 20.5325 4.05452 21.2135 4.26257 21.7897L13.5729 47.5088V53.6898C13.5729 54.4231 14.145 54.9993 14.8732 54.9993H75.2083C75.9365 54.9993 76.5086 54.4231 76.5086 53.6898V47.5088L85.819 21.7897C86.027 21.1611 85.7669 20.4801 85.1948 20.1659ZM62.7772 20.2706L64.5977 45.9898H54.039L62.7772 20.2706ZM74.3241 45.9374H68.5506L80.2015 29.6992L74.3241 45.9374ZM50.3981 45.9374H39.7354L45.0408 18.123L50.3981 45.9374ZM21.5829 45.9374H15.8095L9.93199 29.6992L21.5829 45.9374ZM36.0945 45.9374H25.4839L27.3043 20.2182L36.0945 45.9374ZM73.908 52.3803H16.1736V48.5564H24.0795H37.863C37.915 48.5564 37.967 48.5564 38.019 48.5564C38.071 48.5564 38.123 48.5564 38.175 48.5564H51.9585C52.0105 48.5564 52.0625 48.5564 52.1145 48.5564C52.1665 48.5564 52.2186 48.5564 52.2706 48.5564H66.054H73.96V52.3803H73.908Z" fill="#7BD8F1"/>
<path d="M25.5395 12.1521C27.9841 12.1521 30.0126 10.1617 30.0126 7.64736C30.0126 5.18544 28.0361 3.14259 25.5395 3.14259C23.0949 3.14259 21.0664 5.13306 21.0664 7.64736C21.0664 10.1617 23.0949 12.1521 25.5395 12.1521ZM25.5395 5.81402C26.5798 5.81402 27.412 6.6521 27.412 7.69973C27.412 8.74735 26.5798 9.58547 25.5395 9.58547C24.4993 9.58547 23.6671 8.74735 23.6671 7.69973C23.6671 6.6521 24.4993 5.81402 25.5395 5.81402Z" fill="#7BD8F1"/>
<path d="M8.94624 14.8768C8.94624 12.4149 6.96974 10.3721 4.47312 10.3721C2.02851 10.3721 3.96828e-07 12.3625 3.96828e-07 14.8768C3.96828e-07 17.3388 1.97649 19.3816 4.47312 19.3816C6.96974 19.3816 8.94624 17.3911 8.94624 14.8768ZM2.65266 14.8768C2.65266 13.8292 3.48487 12.9911 4.52513 12.9911C5.56539 12.9911 6.3976 13.8292 6.3976 14.8768C6.3976 15.9245 5.56539 16.7626 4.52513 16.7626C3.48487 16.7626 2.65266 15.9245 2.65266 14.8768Z" fill="#7BD8F1"/>
</svg>
