<svg width="47" height="44" viewBox="0 0 47 44" fill="none" xmlns="http://www.w3.org/2000/svg">

<path d="M44.8581 40.9385H2.03235C1.51549 40.9385 1.10938 41.3933 1.10938 41.9721C1.10938 42.551 1.51549 43.0058 2.03235 43.0058H44.8581C45.3749 43.0058 45.781 42.551 45.781 41.9721C45.781 41.3933 45.338 40.9385 44.8581 40.9385Z" fill="#CAA982"/>
<path d="M2.0342 9.59863C1.11123 9.59863 0.335928 10.4669 0.335928 11.5006C0.335928 12.5342 1.11123 13.4025 2.0342 13.4025C2.95717 13.4025 3.73245 12.5342 3.73245 11.5006C3.73245 10.4256 2.95717 9.59863 2.0342 9.59863ZM2.0342 11.6246C1.96037 11.6246 1.88652 11.5419 1.88652 11.4592C1.88652 11.3765 1.96037 11.2938 2.0342 11.2938C2.10804 11.2938 2.18186 11.3765 2.18186 11.4592C2.14495 11.5832 2.10804 11.6246 2.0342 11.6246Z" fill="#CAA982"/>
<path d="M25.1465 1.90778C25.1465 0.87413 24.3712 0.00585811 23.4483 0.00585811C22.5253 0.00585811 21.75 0.87413 21.75 1.90778C21.75 2.94144 22.5253 3.80971 23.4483 3.80971C24.3712 3.80971 25.1465 2.94144 25.1465 1.90778ZM23.3006 1.90778C23.3006 1.82509 23.3744 1.7424 23.4483 1.7424C23.5221 1.7424 23.5959 1.82509 23.5959 1.90778C23.5959 1.99048 23.5221 2.07317 23.4483 2.07317C23.3744 2.03182 23.3006 1.99048 23.3006 1.90778Z" fill="#CAA982"/>
<path d="M46.5606 11.5006C46.5606 10.4669 45.7853 9.59863 44.8623 9.59863C43.9394 9.59863 43.1641 10.4669 43.1641 11.5006C43.1641 12.5342 43.9394 13.4025 44.8623 13.4025C45.7853 13.4025 46.5606 12.5342 46.5606 11.5006ZM44.7146 11.5006C44.7146 11.4179 44.7885 11.3352 44.8623 11.3352C44.9362 11.3352 45.01 11.4179 45.01 11.5006C45.01 11.5832 44.9362 11.6659 44.8623 11.6659C44.7885 11.6246 44.7146 11.5832 44.7146 11.5006Z" fill="#CAA982"/>
<path d="M2.25561 17.9495C1.99718 17.8668 1.70183 17.9495 1.4434 18.1149C1.22188 18.3216 1.07421 18.6111 1.07421 18.9418V35.687C1.07421 36.2659 1.48032 36.7207 1.99718 36.7207H44.8229C45.3397 36.7207 45.7458 36.2659 45.7458 35.687V18.9418C45.7458 18.6111 45.5982 18.3216 45.3767 18.1149C45.1551 17.9082 44.8598 17.8668 44.5645 17.9495L36.7746 20.3476L24.0007 7.5303C23.6685 7.19953 23.1147 7.19953 22.7824 7.5303L10.0085 20.3476L2.25561 17.9495ZM43.9368 34.6534H2.95708V28.8236H18.8321C19.2751 31.2216 21.158 33.0409 23.447 33.0409C25.7359 33.0409 27.6188 31.2216 28.0618 28.8236H43.9368V34.6534ZM20.5673 27.7899C20.5673 27.4178 20.6411 27.087 20.715 26.7563C21.0842 25.5159 22.1548 24.5649 23.41 24.5649C24.6653 24.5649 25.7359 25.4745 26.1051 26.7563C26.2159 27.087 26.2528 27.4178 26.2528 27.7899C26.2528 28.162 26.179 28.4928 26.1051 28.8236C25.7359 30.064 24.6653 31.0149 23.41 31.0149C22.1548 31.0149 21.0842 30.1053 20.715 28.8236C20.6411 28.5341 20.5673 28.162 20.5673 27.7899ZM10.8946 22.2495L23.41 9.6803L35.9255 22.2495C36.147 22.4976 36.4793 22.5803 36.7746 22.4563L43.8999 20.2649V26.7976H28.0249C27.5818 24.3995 25.699 22.5803 23.41 22.5803C21.1211 22.5803 19.2382 24.3995 18.7952 26.7976H2.92015V20.3063L10.0455 22.4976C10.3408 22.539 10.6731 22.4563 10.8946 22.2495Z" fill="#CAA982"/>
</svg>
