<svg version="1.1" id="Layer_1" xmlns="http://www.w3.org/2000/svg" xmlns:xlink="http://www.w3.org/1999/xlink" x="0px" y="0px"
	 viewBox="0 0 512 512" style="enable-background:new 0 0 512 512;" xml:space="preserve">


  <circle id="svg_1" r="256" cy="255.645951" cx="256.012208" fill="#D80027"/>
  <polygon id="svg_2" points="140.11221313476562,155.4458823800087 162.2122344970703,223.44603496789932 233.71224975585938,223.44603496789932 175.91224670410156,265.54611736536026 198.0122528076172,333.54611736536026 140.11221313476562,291.54611736536026 82.21221160888672,333.54611736536026 104.4122085571289,265.54611736536026 46.51220703125,223.44603496789932 118.01220703125,223.44603496789932 " fill="#FFDA44"/>
  <polygon id="svg_3" points="303.51214599609375,396.1461234688759 286.6121826171875,375.34613567590714 261.61224365234375,385.0461478829384 276.1122131347656,362.54611736536026 259.2122497558594,341.6461234688759 285.1121826171875,348.54611736536026 299.712158203125,326.04611736536026 301.1121520996094,352.84613567590714 327.1121520996094,359.7461295723915 302.01214599609375,369.34613567590714 " fill="#FFDA44"/>
  <polygon id="svg_4" points="337.1121520996094,335.1461234688759 345.1121520996094,309.54611736536026 323.212158203125,294.04611736536026 350.01214599609375,293.6461234688759 357.9121398925781,268.04611736536026 366.6121520996094,293.44611126184464 393.4121398925781,293.1461234688759 371.9121398925781,309.1461234688759 380.51214599609375,334.54611736536026 358.6121520996094,319.04611736536026 " fill="#FFDA44"/>
  <polygon id="svg_5" points="382.4121398925781,187.54596477746964 370.6121520996094,211.64601665735245 389.8121337890625,230.34607464075089 363.3121337890625,226.54604107141495 351.51214599609375,250.5461021065712 346.9121398925781,224.14604717493057 320.3121337890625,220.34604412317276 344.1121520996094,207.8460288643837 339.51214599609375,181.34596782922745 358.712158203125,200.04599529504776 " fill="#FFDA44"/>
  <polygon id="svg_6" points="304.212158203125,114.54581218957901 302.212158203125,141.24587017297745 327.1121520996094,151.3459067940712 301.01214599609375,157.74591594934464 299.1121520996094,184.54594951868057 285.0121765136719,161.74591594934464 258.9122314453125,168.14592510461807 276.21221923828125,147.64587932825089 262.0122375488281,124.94581371545792 286.91217041015625,135.04584270715714 " fill="#FFDA44"/>
 
</svg>